G04 #@! TF.FileFunction,Soldermask,Top*
%FSLAX46Y46*%
G04 Gerber Fmt 4.6, Leading zero omitted, Abs format (unit mm)*
G04 Created by KiCad (PCBNEW no-vcs-found-product) date Qui 14 Abr 2016 10:23:32 BRT*
%MOMM*%
G01*
G04 APERTURE LIST*
%ADD10C,0.100000*%
%ADD11R,1.924000X2.400000*%
%ADD12R,1.350000X0.850000*%
%ADD13R,2.700000X0.850000*%
%ADD14R,0.850000X1.700000*%
%ADD15R,1.650000X1.400000*%
%ADD16C,2.500000*%
G04 APERTURE END LIST*
D10*
D11*
X74676000Y-110236000D03*
D12*
X77383000Y-105327000D03*
X76033000Y-105327000D03*
X76033000Y-104477000D03*
X77383000Y-104477000D03*
D13*
X76708000Y-103677000D03*
X76708000Y-106177000D03*
D14*
X78483000Y-104902000D03*
X74933000Y-104902000D03*
D11*
X78740000Y-110236000D03*
X74676000Y-99568000D03*
D15*
X72898000Y-103902000D03*
X72898000Y-105902000D03*
D11*
X78740000Y-99568000D03*
X68072000Y-99568000D03*
D15*
X62230000Y-103902000D03*
X62230000Y-105902000D03*
X51562000Y-103902000D03*
X51562000Y-105902000D03*
D11*
X68072000Y-110236000D03*
D12*
X56047000Y-105327000D03*
X54697000Y-105327000D03*
X54697000Y-104477000D03*
X56047000Y-104477000D03*
D13*
X55372000Y-103677000D03*
X55372000Y-106177000D03*
D14*
X57147000Y-104902000D03*
X53597000Y-104902000D03*
D11*
X57404000Y-110236000D03*
D12*
X66715000Y-105327000D03*
X65365000Y-105327000D03*
X65365000Y-104477000D03*
X66715000Y-104477000D03*
D13*
X66040000Y-103677000D03*
X66040000Y-106177000D03*
D14*
X67815000Y-104902000D03*
X64265000Y-104902000D03*
D11*
X64008000Y-110236000D03*
X53340000Y-110236000D03*
X57404000Y-99568000D03*
X64008000Y-99568000D03*
X53340000Y-99568000D03*
X57404000Y-94996000D03*
X57404000Y-79756000D03*
X57404000Y-64516000D03*
X53340000Y-94996000D03*
X53340000Y-79756000D03*
X53340000Y-64516000D03*
D12*
X56047000Y-90087000D03*
X54697000Y-90087000D03*
X54697000Y-89237000D03*
X56047000Y-89237000D03*
D13*
X55372000Y-88437000D03*
X55372000Y-90937000D03*
D14*
X57147000Y-89662000D03*
X53597000Y-89662000D03*
D12*
X56047000Y-74847000D03*
X54697000Y-74847000D03*
X54697000Y-73997000D03*
X56047000Y-73997000D03*
D13*
X55372000Y-73197000D03*
X55372000Y-75697000D03*
D14*
X57147000Y-74422000D03*
X53597000Y-74422000D03*
D12*
X56047000Y-59607000D03*
X54697000Y-59607000D03*
X54697000Y-58757000D03*
X56047000Y-58757000D03*
D13*
X55372000Y-57957000D03*
X55372000Y-60457000D03*
D14*
X57147000Y-59182000D03*
X53597000Y-59182000D03*
D15*
X62230000Y-88662000D03*
X62230000Y-90662000D03*
X62230000Y-73422000D03*
X62230000Y-75422000D03*
X62230000Y-58182000D03*
X62230000Y-60182000D03*
D11*
X57404000Y-84328000D03*
X57404000Y-69088000D03*
X57404000Y-53848000D03*
D15*
X51562000Y-88662000D03*
X51562000Y-90662000D03*
X51562000Y-73422000D03*
X51562000Y-75422000D03*
X51562000Y-58182000D03*
X51562000Y-60182000D03*
D11*
X53340000Y-84328000D03*
X53340000Y-69088000D03*
X53340000Y-53848000D03*
X78740000Y-94996000D03*
X78740000Y-79756000D03*
X78740000Y-64516000D03*
X74676000Y-94996000D03*
X74676000Y-79756000D03*
X74676000Y-64516000D03*
X78740000Y-84328000D03*
X78740000Y-69088000D03*
X78740000Y-53848000D03*
D12*
X77383000Y-90087000D03*
X76033000Y-90087000D03*
X76033000Y-89237000D03*
X77383000Y-89237000D03*
D13*
X76708000Y-88437000D03*
X76708000Y-90937000D03*
D14*
X78483000Y-89662000D03*
X74933000Y-89662000D03*
D12*
X77383000Y-74847000D03*
X76033000Y-74847000D03*
X76033000Y-73997000D03*
X77383000Y-73997000D03*
D13*
X76708000Y-73197000D03*
X76708000Y-75697000D03*
D14*
X78483000Y-74422000D03*
X74933000Y-74422000D03*
D12*
X77383000Y-59607000D03*
X76033000Y-59607000D03*
X76033000Y-58757000D03*
X77383000Y-58757000D03*
D13*
X76708000Y-57957000D03*
X76708000Y-60457000D03*
D14*
X78483000Y-59182000D03*
X74933000Y-59182000D03*
D11*
X74676000Y-84328000D03*
X74676000Y-69088000D03*
X74676000Y-53848000D03*
X68072000Y-94996000D03*
X68072000Y-79756000D03*
X68072000Y-64516000D03*
X64008000Y-94996000D03*
X64008000Y-79756000D03*
X64008000Y-64516000D03*
D15*
X72898000Y-88662000D03*
X72898000Y-90662000D03*
X72898000Y-73422000D03*
X72898000Y-75422000D03*
X72898000Y-58182000D03*
X72898000Y-60182000D03*
D12*
X66715000Y-90087000D03*
X65365000Y-90087000D03*
X65365000Y-89237000D03*
X66715000Y-89237000D03*
D13*
X66040000Y-88437000D03*
X66040000Y-90937000D03*
D14*
X67815000Y-89662000D03*
X64265000Y-89662000D03*
D12*
X66715000Y-74847000D03*
X65365000Y-74847000D03*
X65365000Y-73997000D03*
X66715000Y-73997000D03*
D13*
X66040000Y-73197000D03*
X66040000Y-75697000D03*
D14*
X67815000Y-74422000D03*
X64265000Y-74422000D03*
D12*
X66715000Y-59607000D03*
X65365000Y-59607000D03*
X65365000Y-58757000D03*
X66715000Y-58757000D03*
D13*
X66040000Y-57957000D03*
X66040000Y-60457000D03*
D14*
X67815000Y-59182000D03*
X64265000Y-59182000D03*
D11*
X64008000Y-84328000D03*
X64008000Y-69088000D03*
X64008000Y-53848000D03*
X68072000Y-84328000D03*
X68072000Y-69088000D03*
X68072000Y-53848000D03*
D16*
X102362000Y-110236000D03*
D11*
X78740000Y-38608000D03*
X68072000Y-38608000D03*
X74676000Y-49276000D03*
X64008000Y-49276000D03*
X74676000Y-38608000D03*
X64008000Y-38608000D03*
D12*
X77383000Y-44367000D03*
X76033000Y-44367000D03*
X76033000Y-43517000D03*
X77383000Y-43517000D03*
D13*
X76708000Y-42717000D03*
X76708000Y-45217000D03*
D14*
X78483000Y-43942000D03*
X74933000Y-43942000D03*
D12*
X66715000Y-44367000D03*
X65365000Y-44367000D03*
X65365000Y-43517000D03*
X66715000Y-43517000D03*
D13*
X66040000Y-42717000D03*
X66040000Y-45217000D03*
D14*
X67815000Y-43942000D03*
X64265000Y-43942000D03*
D11*
X78740000Y-49276000D03*
X68072000Y-49276000D03*
D15*
X72898000Y-42942000D03*
X72898000Y-44942000D03*
X62230000Y-42942000D03*
X62230000Y-44942000D03*
D11*
X57404000Y-49276000D03*
D12*
X56047000Y-44367000D03*
X54697000Y-44367000D03*
X54697000Y-43517000D03*
X56047000Y-43517000D03*
D13*
X55372000Y-42717000D03*
X55372000Y-45217000D03*
D14*
X57147000Y-43942000D03*
X53597000Y-43942000D03*
D11*
X53340000Y-38608000D03*
X53340000Y-49276000D03*
D15*
X51562000Y-42942000D03*
X51562000Y-44942000D03*
D11*
X57404000Y-38608000D03*
D16*
X29718000Y-39116000D03*
M02*
