M48
;DRILL file {KiCad no-vcs-found-product} date Qui 14 Abr 2016 10:24:14 BRT
;FORMAT={-:-/ absolute / metric / decimal}
FMAT,2
METRIC,TZ
T1C0.508
T2C0.800
%
G90
G05
M71
T1
X51.562Y-47.244
X51.562Y-62.484
X51.562Y-77.724
X51.562Y-92.964
X51.562Y-108.204
X55.372Y-47.244
X55.372Y-62.484
X55.372Y-77.724
X55.372Y-92.964
X55.372Y-108.204
X62.23Y-47.244
X62.23Y-62.484
X62.23Y-77.724
X62.23Y-92.964
X62.23Y-108.204
X66.04Y-47.244
X66.04Y-62.484
X66.04Y-77.724
X66.04Y-92.964
X66.04Y-108.204
X72.898Y-47.244
X72.898Y-62.484
X72.898Y-77.724
X72.898Y-92.964
X72.898Y-108.204
X76.708Y-47.244
X76.708Y-62.484
X76.708Y-77.724
X76.708Y-92.964
X76.708Y-108.204
T2
X53.34Y-38.608
X53.34Y-49.276
X53.34Y-53.848
X53.34Y-64.516
X53.34Y-69.088
X53.34Y-79.756
X53.34Y-84.328
X53.34Y-94.996
X53.34Y-99.568
X53.34Y-110.236
X57.404Y-38.608
X57.404Y-49.276
X57.404Y-53.848
X57.404Y-64.516
X57.404Y-69.088
X57.404Y-79.756
X57.404Y-84.328
X57.404Y-94.996
X57.404Y-99.568
X57.404Y-110.236
X64.008Y-38.608
X64.008Y-49.276
X64.008Y-53.848
X64.008Y-64.516
X64.008Y-69.088
X64.008Y-79.756
X64.008Y-84.328
X64.008Y-94.996
X64.008Y-99.568
X64.008Y-110.236
X68.072Y-38.608
X68.072Y-49.276
X68.072Y-53.848
X68.072Y-64.516
X68.072Y-69.088
X68.072Y-79.756
X68.072Y-84.328
X68.072Y-94.996
X68.072Y-99.568
X68.072Y-110.236
X74.676Y-38.608
X74.676Y-49.276
X74.676Y-53.848
X74.676Y-64.516
X74.676Y-69.088
X74.676Y-79.756
X74.676Y-84.328
X74.676Y-94.996
X74.676Y-99.568
X74.676Y-110.236
X78.74Y-38.608
X78.74Y-49.276
X78.74Y-53.848
X78.74Y-64.516
X78.74Y-69.088
X78.74Y-79.756
X78.74Y-84.328
X78.74Y-94.996
X78.74Y-99.568
X78.74Y-110.236
T0
M30
