G04 #@! TF.FileFunction,Copper,L2,Bot,Signal*
%FSLAX46Y46*%
G04 Gerber Fmt 4.6, Leading zero omitted, Abs format (unit mm)*
G04 Created by KiCad (PCBNEW no-vcs-found-product) date Qui 14 Abr 2016 10:23:32 BRT*
%MOMM*%
G01*
G04 APERTURE LIST*
%ADD10C,0.100000*%
%ADD11R,1.524000X2.000000*%
%ADD12C,0.762000*%
%ADD13C,0.254000*%
%ADD14C,0.152400*%
G04 APERTURE END LIST*
D10*
D11*
X74676000Y-110236000D03*
X78740000Y-110236000D03*
X74676000Y-99568000D03*
X78740000Y-99568000D03*
X68072000Y-99568000D03*
X68072000Y-110236000D03*
X57404000Y-110236000D03*
X64008000Y-110236000D03*
X53340000Y-110236000D03*
X57404000Y-99568000D03*
X64008000Y-99568000D03*
X53340000Y-99568000D03*
X57404000Y-94996000D03*
X57404000Y-79756000D03*
X57404000Y-64516000D03*
X53340000Y-94996000D03*
X53340000Y-79756000D03*
X53340000Y-64516000D03*
X57404000Y-84328000D03*
X57404000Y-69088000D03*
X57404000Y-53848000D03*
X53340000Y-84328000D03*
X53340000Y-69088000D03*
X53340000Y-53848000D03*
X78740000Y-94996000D03*
X78740000Y-79756000D03*
X78740000Y-64516000D03*
X74676000Y-94996000D03*
X74676000Y-79756000D03*
X74676000Y-64516000D03*
X78740000Y-84328000D03*
X78740000Y-69088000D03*
X78740000Y-53848000D03*
X74676000Y-84328000D03*
X74676000Y-69088000D03*
X74676000Y-53848000D03*
X68072000Y-94996000D03*
X68072000Y-79756000D03*
X68072000Y-64516000D03*
X64008000Y-94996000D03*
X64008000Y-79756000D03*
X64008000Y-64516000D03*
X64008000Y-84328000D03*
X64008000Y-69088000D03*
X64008000Y-53848000D03*
X68072000Y-84328000D03*
X68072000Y-69088000D03*
X68072000Y-53848000D03*
X78740000Y-38608000D03*
X68072000Y-38608000D03*
X74676000Y-49276000D03*
X64008000Y-49276000D03*
X74676000Y-38608000D03*
X64008000Y-38608000D03*
X78740000Y-49276000D03*
X68072000Y-49276000D03*
X57404000Y-49276000D03*
X53340000Y-38608000D03*
X53340000Y-49276000D03*
X57404000Y-38608000D03*
D12*
X55372000Y-108204000D03*
X66040000Y-108204000D03*
X62230000Y-108204000D03*
X51562000Y-108204000D03*
X72898000Y-108204000D03*
X76708000Y-108204000D03*
X76708000Y-92964000D03*
X76708000Y-77724000D03*
X76708000Y-62484000D03*
X51562000Y-92964000D03*
X51562000Y-77724000D03*
X51562000Y-62484000D03*
X55372000Y-92964000D03*
X55372000Y-77724000D03*
X55372000Y-62484000D03*
X72898000Y-92964000D03*
X72898000Y-77724000D03*
X72898000Y-62484000D03*
X66040000Y-92964000D03*
X66040000Y-77724000D03*
X66040000Y-62484000D03*
X62230000Y-92964000D03*
X62230000Y-77724000D03*
X62230000Y-62484000D03*
X76708000Y-47244000D03*
X66040000Y-47244000D03*
X72898000Y-47244000D03*
X62230000Y-47244000D03*
X51562000Y-47244000D03*
X55372000Y-47244000D03*
D13*
X57404000Y-99568000D02*
X57404000Y-106172000D01*
X55372000Y-108204000D02*
X51562000Y-108204000D01*
X57404000Y-106172000D02*
X55372000Y-108204000D01*
X78740000Y-99568000D02*
X78740000Y-106172000D01*
X68072000Y-99568000D02*
X68072000Y-106172000D01*
X68072000Y-106172000D02*
X66040000Y-108204000D01*
X66040000Y-108204000D02*
X62230000Y-108204000D01*
X76708000Y-108204000D02*
X72898000Y-108204000D01*
X78740000Y-106172000D02*
X76708000Y-108204000D01*
X66040000Y-92964000D02*
X62230000Y-92964000D01*
X66040000Y-77724000D02*
X62230000Y-77724000D01*
X66040000Y-62484000D02*
X62230000Y-62484000D01*
X57404000Y-90932000D02*
X55372000Y-92964000D01*
X57404000Y-75692000D02*
X55372000Y-77724000D01*
X57404000Y-60452000D02*
X55372000Y-62484000D01*
X55372000Y-92964000D02*
X51562000Y-92964000D01*
X55372000Y-77724000D02*
X51562000Y-77724000D01*
X55372000Y-62484000D02*
X51562000Y-62484000D01*
X57404000Y-84328000D02*
X57404000Y-90932000D01*
X57404000Y-69088000D02*
X57404000Y-75692000D01*
X57404000Y-53848000D02*
X57404000Y-60452000D01*
X68072000Y-84328000D02*
X68072000Y-90932000D01*
X68072000Y-69088000D02*
X68072000Y-75692000D01*
X68072000Y-53848000D02*
X68072000Y-60452000D01*
X68072000Y-90932000D02*
X66040000Y-92964000D01*
X68072000Y-75692000D02*
X66040000Y-77724000D01*
X68072000Y-60452000D02*
X66040000Y-62484000D01*
X78740000Y-84328000D02*
X78740000Y-90932000D01*
X78740000Y-69088000D02*
X78740000Y-75692000D01*
X78740000Y-53848000D02*
X78740000Y-60452000D01*
X76708000Y-92964000D02*
X72898000Y-92964000D01*
X76708000Y-77724000D02*
X72898000Y-77724000D01*
X76708000Y-62484000D02*
X72898000Y-62484000D01*
X78740000Y-90932000D02*
X76708000Y-92964000D01*
X78740000Y-75692000D02*
X76708000Y-77724000D01*
X78740000Y-60452000D02*
X76708000Y-62484000D01*
X78740000Y-45212000D02*
X76708000Y-47244000D01*
X68072000Y-45212000D02*
X66040000Y-47244000D01*
X76708000Y-47244000D02*
X72898000Y-47244000D01*
X66040000Y-47244000D02*
X62230000Y-47244000D01*
X78740000Y-38608000D02*
X78740000Y-45212000D01*
X68072000Y-38608000D02*
X68072000Y-45212000D01*
X55372000Y-47244000D02*
X51562000Y-47244000D01*
X57404000Y-38608000D02*
X57404000Y-45212000D01*
X57404000Y-45212000D02*
X55372000Y-47244000D01*
D14*
G36*
X52241331Y-39608000D02*
X52264356Y-39730365D01*
X52336673Y-39842749D01*
X52447017Y-39918144D01*
X52578000Y-39944669D01*
X54102000Y-39944669D01*
X54224365Y-39921644D01*
X54336749Y-39849327D01*
X54412144Y-39738983D01*
X54438669Y-39608000D01*
X54438669Y-39013200D01*
X56057800Y-39013200D01*
X56057800Y-39724204D01*
X56146739Y-39938922D01*
X56311077Y-40103261D01*
X56525795Y-40192200D01*
X57080150Y-40192200D01*
X57226200Y-40046150D01*
X57226200Y-39013200D01*
X57581800Y-39013200D01*
X57581800Y-40046150D01*
X57727850Y-40192200D01*
X58282205Y-40192200D01*
X58496923Y-40103261D01*
X58661261Y-39938922D01*
X58750200Y-39724204D01*
X58750200Y-39013200D01*
X60300800Y-39013200D01*
X60300800Y-48870800D01*
X58502669Y-48870800D01*
X58502669Y-48276000D01*
X58479644Y-48153635D01*
X58407327Y-48041251D01*
X58296983Y-47965856D01*
X58166000Y-47939331D01*
X56642000Y-47939331D01*
X56519635Y-47962356D01*
X56407251Y-48034673D01*
X56331856Y-48145017D01*
X56305331Y-48276000D01*
X56305331Y-48870800D01*
X54438669Y-48870800D01*
X54438669Y-48276000D01*
X54415644Y-48153635D01*
X54343327Y-48041251D01*
X54232983Y-47965856D01*
X54102000Y-47939331D01*
X52578000Y-47939331D01*
X52455635Y-47962356D01*
X52343251Y-48034673D01*
X52267856Y-48145017D01*
X52241331Y-48276000D01*
X52241331Y-48870800D01*
X50443200Y-48870800D01*
X50443200Y-39013200D01*
X52241331Y-39013200D01*
X52241331Y-39608000D01*
X52241331Y-39608000D01*
G37*
X52241331Y-39608000D02*
X52264356Y-39730365D01*
X52336673Y-39842749D01*
X52447017Y-39918144D01*
X52578000Y-39944669D01*
X54102000Y-39944669D01*
X54224365Y-39921644D01*
X54336749Y-39849327D01*
X54412144Y-39738983D01*
X54438669Y-39608000D01*
X54438669Y-39013200D01*
X56057800Y-39013200D01*
X56057800Y-39724204D01*
X56146739Y-39938922D01*
X56311077Y-40103261D01*
X56525795Y-40192200D01*
X57080150Y-40192200D01*
X57226200Y-40046150D01*
X57226200Y-39013200D01*
X57581800Y-39013200D01*
X57581800Y-40046150D01*
X57727850Y-40192200D01*
X58282205Y-40192200D01*
X58496923Y-40103261D01*
X58661261Y-39938922D01*
X58750200Y-39724204D01*
X58750200Y-39013200D01*
X60300800Y-39013200D01*
X60300800Y-48870800D01*
X58502669Y-48870800D01*
X58502669Y-48276000D01*
X58479644Y-48153635D01*
X58407327Y-48041251D01*
X58296983Y-47965856D01*
X58166000Y-47939331D01*
X56642000Y-47939331D01*
X56519635Y-47962356D01*
X56407251Y-48034673D01*
X56331856Y-48145017D01*
X56305331Y-48276000D01*
X56305331Y-48870800D01*
X54438669Y-48870800D01*
X54438669Y-48276000D01*
X54415644Y-48153635D01*
X54343327Y-48041251D01*
X54232983Y-47965856D01*
X54102000Y-47939331D01*
X52578000Y-47939331D01*
X52455635Y-47962356D01*
X52343251Y-48034673D01*
X52267856Y-48145017D01*
X52241331Y-48276000D01*
X52241331Y-48870800D01*
X50443200Y-48870800D01*
X50443200Y-39013200D01*
X52241331Y-39013200D01*
X52241331Y-39608000D01*
G36*
X62909331Y-39608000D02*
X62932356Y-39730365D01*
X63004673Y-39842749D01*
X63115017Y-39918144D01*
X63246000Y-39944669D01*
X64770000Y-39944669D01*
X64892365Y-39921644D01*
X65004749Y-39849327D01*
X65080144Y-39738983D01*
X65106669Y-39608000D01*
X65106669Y-39013200D01*
X66725800Y-39013200D01*
X66725800Y-39724204D01*
X66814739Y-39938922D01*
X66979077Y-40103261D01*
X67193795Y-40192200D01*
X67748150Y-40192200D01*
X67894200Y-40046150D01*
X67894200Y-39013200D01*
X68249800Y-39013200D01*
X68249800Y-40046150D01*
X68395850Y-40192200D01*
X68950205Y-40192200D01*
X69164923Y-40103261D01*
X69329261Y-39938922D01*
X69418200Y-39724204D01*
X69418200Y-39013200D01*
X70968800Y-39013200D01*
X70968800Y-48870800D01*
X69170669Y-48870800D01*
X69170669Y-48276000D01*
X69147644Y-48153635D01*
X69075327Y-48041251D01*
X68964983Y-47965856D01*
X68834000Y-47939331D01*
X67310000Y-47939331D01*
X67187635Y-47962356D01*
X67075251Y-48034673D01*
X66999856Y-48145017D01*
X66973331Y-48276000D01*
X66973331Y-48870800D01*
X65106669Y-48870800D01*
X65106669Y-48276000D01*
X65083644Y-48153635D01*
X65011327Y-48041251D01*
X64900983Y-47965856D01*
X64770000Y-47939331D01*
X63246000Y-47939331D01*
X63123635Y-47962356D01*
X63011251Y-48034673D01*
X62935856Y-48145017D01*
X62909331Y-48276000D01*
X62909331Y-48870800D01*
X61111200Y-48870800D01*
X61111200Y-39013200D01*
X62909331Y-39013200D01*
X62909331Y-39608000D01*
X62909331Y-39608000D01*
G37*
X62909331Y-39608000D02*
X62932356Y-39730365D01*
X63004673Y-39842749D01*
X63115017Y-39918144D01*
X63246000Y-39944669D01*
X64770000Y-39944669D01*
X64892365Y-39921644D01*
X65004749Y-39849327D01*
X65080144Y-39738983D01*
X65106669Y-39608000D01*
X65106669Y-39013200D01*
X66725800Y-39013200D01*
X66725800Y-39724204D01*
X66814739Y-39938922D01*
X66979077Y-40103261D01*
X67193795Y-40192200D01*
X67748150Y-40192200D01*
X67894200Y-40046150D01*
X67894200Y-39013200D01*
X68249800Y-39013200D01*
X68249800Y-40046150D01*
X68395850Y-40192200D01*
X68950205Y-40192200D01*
X69164923Y-40103261D01*
X69329261Y-39938922D01*
X69418200Y-39724204D01*
X69418200Y-39013200D01*
X70968800Y-39013200D01*
X70968800Y-48870800D01*
X69170669Y-48870800D01*
X69170669Y-48276000D01*
X69147644Y-48153635D01*
X69075327Y-48041251D01*
X68964983Y-47965856D01*
X68834000Y-47939331D01*
X67310000Y-47939331D01*
X67187635Y-47962356D01*
X67075251Y-48034673D01*
X66999856Y-48145017D01*
X66973331Y-48276000D01*
X66973331Y-48870800D01*
X65106669Y-48870800D01*
X65106669Y-48276000D01*
X65083644Y-48153635D01*
X65011327Y-48041251D01*
X64900983Y-47965856D01*
X64770000Y-47939331D01*
X63246000Y-47939331D01*
X63123635Y-47962356D01*
X63011251Y-48034673D01*
X62935856Y-48145017D01*
X62909331Y-48276000D01*
X62909331Y-48870800D01*
X61111200Y-48870800D01*
X61111200Y-39013200D01*
X62909331Y-39013200D01*
X62909331Y-39608000D01*
G36*
X73577331Y-39608000D02*
X73600356Y-39730365D01*
X73672673Y-39842749D01*
X73783017Y-39918144D01*
X73914000Y-39944669D01*
X75438000Y-39944669D01*
X75560365Y-39921644D01*
X75672749Y-39849327D01*
X75748144Y-39738983D01*
X75774669Y-39608000D01*
X75774669Y-39013200D01*
X77393800Y-39013200D01*
X77393800Y-39724204D01*
X77482739Y-39938922D01*
X77647077Y-40103261D01*
X77861795Y-40192200D01*
X78416150Y-40192200D01*
X78562200Y-40046150D01*
X78562200Y-39013200D01*
X78917800Y-39013200D01*
X78917800Y-40046150D01*
X79063850Y-40192200D01*
X79618205Y-40192200D01*
X79832923Y-40103261D01*
X79997261Y-39938922D01*
X80086200Y-39724204D01*
X80086200Y-39013200D01*
X81636800Y-39013200D01*
X81636800Y-48870800D01*
X79838669Y-48870800D01*
X79838669Y-48276000D01*
X79815644Y-48153635D01*
X79743327Y-48041251D01*
X79632983Y-47965856D01*
X79502000Y-47939331D01*
X77978000Y-47939331D01*
X77855635Y-47962356D01*
X77743251Y-48034673D01*
X77667856Y-48145017D01*
X77641331Y-48276000D01*
X77641331Y-48870800D01*
X75774669Y-48870800D01*
X75774669Y-48276000D01*
X75751644Y-48153635D01*
X75679327Y-48041251D01*
X75568983Y-47965856D01*
X75438000Y-47939331D01*
X73914000Y-47939331D01*
X73791635Y-47962356D01*
X73679251Y-48034673D01*
X73603856Y-48145017D01*
X73577331Y-48276000D01*
X73577331Y-48870800D01*
X71779200Y-48870800D01*
X71779200Y-39013200D01*
X73577331Y-39013200D01*
X73577331Y-39608000D01*
X73577331Y-39608000D01*
G37*
X73577331Y-39608000D02*
X73600356Y-39730365D01*
X73672673Y-39842749D01*
X73783017Y-39918144D01*
X73914000Y-39944669D01*
X75438000Y-39944669D01*
X75560365Y-39921644D01*
X75672749Y-39849327D01*
X75748144Y-39738983D01*
X75774669Y-39608000D01*
X75774669Y-39013200D01*
X77393800Y-39013200D01*
X77393800Y-39724204D01*
X77482739Y-39938922D01*
X77647077Y-40103261D01*
X77861795Y-40192200D01*
X78416150Y-40192200D01*
X78562200Y-40046150D01*
X78562200Y-39013200D01*
X78917800Y-39013200D01*
X78917800Y-40046150D01*
X79063850Y-40192200D01*
X79618205Y-40192200D01*
X79832923Y-40103261D01*
X79997261Y-39938922D01*
X80086200Y-39724204D01*
X80086200Y-39013200D01*
X81636800Y-39013200D01*
X81636800Y-48870800D01*
X79838669Y-48870800D01*
X79838669Y-48276000D01*
X79815644Y-48153635D01*
X79743327Y-48041251D01*
X79632983Y-47965856D01*
X79502000Y-47939331D01*
X77978000Y-47939331D01*
X77855635Y-47962356D01*
X77743251Y-48034673D01*
X77667856Y-48145017D01*
X77641331Y-48276000D01*
X77641331Y-48870800D01*
X75774669Y-48870800D01*
X75774669Y-48276000D01*
X75751644Y-48153635D01*
X75679327Y-48041251D01*
X75568983Y-47965856D01*
X75438000Y-47939331D01*
X73914000Y-47939331D01*
X73791635Y-47962356D01*
X73679251Y-48034673D01*
X73603856Y-48145017D01*
X73577331Y-48276000D01*
X73577331Y-48870800D01*
X71779200Y-48870800D01*
X71779200Y-39013200D01*
X73577331Y-39013200D01*
X73577331Y-39608000D01*
G36*
X73577331Y-54848000D02*
X73600356Y-54970365D01*
X73672673Y-55082749D01*
X73783017Y-55158144D01*
X73914000Y-55184669D01*
X75438000Y-55184669D01*
X75560365Y-55161644D01*
X75672749Y-55089327D01*
X75748144Y-54978983D01*
X75774669Y-54848000D01*
X75774669Y-54253200D01*
X77393800Y-54253200D01*
X77393800Y-54964204D01*
X77482739Y-55178922D01*
X77647077Y-55343261D01*
X77861795Y-55432200D01*
X78416150Y-55432200D01*
X78562200Y-55286150D01*
X78562200Y-54253200D01*
X78917800Y-54253200D01*
X78917800Y-55286150D01*
X79063850Y-55432200D01*
X79618205Y-55432200D01*
X79832923Y-55343261D01*
X79997261Y-55178922D01*
X80086200Y-54964204D01*
X80086200Y-54253200D01*
X81636800Y-54253200D01*
X81636800Y-64110800D01*
X79838669Y-64110800D01*
X79838669Y-63516000D01*
X79815644Y-63393635D01*
X79743327Y-63281251D01*
X79632983Y-63205856D01*
X79502000Y-63179331D01*
X77978000Y-63179331D01*
X77855635Y-63202356D01*
X77743251Y-63274673D01*
X77667856Y-63385017D01*
X77641331Y-63516000D01*
X77641331Y-64110800D01*
X75774669Y-64110800D01*
X75774669Y-63516000D01*
X75751644Y-63393635D01*
X75679327Y-63281251D01*
X75568983Y-63205856D01*
X75438000Y-63179331D01*
X73914000Y-63179331D01*
X73791635Y-63202356D01*
X73679251Y-63274673D01*
X73603856Y-63385017D01*
X73577331Y-63516000D01*
X73577331Y-64110800D01*
X71779200Y-64110800D01*
X71779200Y-54253200D01*
X73577331Y-54253200D01*
X73577331Y-54848000D01*
X73577331Y-54848000D01*
G37*
X73577331Y-54848000D02*
X73600356Y-54970365D01*
X73672673Y-55082749D01*
X73783017Y-55158144D01*
X73914000Y-55184669D01*
X75438000Y-55184669D01*
X75560365Y-55161644D01*
X75672749Y-55089327D01*
X75748144Y-54978983D01*
X75774669Y-54848000D01*
X75774669Y-54253200D01*
X77393800Y-54253200D01*
X77393800Y-54964204D01*
X77482739Y-55178922D01*
X77647077Y-55343261D01*
X77861795Y-55432200D01*
X78416150Y-55432200D01*
X78562200Y-55286150D01*
X78562200Y-54253200D01*
X78917800Y-54253200D01*
X78917800Y-55286150D01*
X79063850Y-55432200D01*
X79618205Y-55432200D01*
X79832923Y-55343261D01*
X79997261Y-55178922D01*
X80086200Y-54964204D01*
X80086200Y-54253200D01*
X81636800Y-54253200D01*
X81636800Y-64110800D01*
X79838669Y-64110800D01*
X79838669Y-63516000D01*
X79815644Y-63393635D01*
X79743327Y-63281251D01*
X79632983Y-63205856D01*
X79502000Y-63179331D01*
X77978000Y-63179331D01*
X77855635Y-63202356D01*
X77743251Y-63274673D01*
X77667856Y-63385017D01*
X77641331Y-63516000D01*
X77641331Y-64110800D01*
X75774669Y-64110800D01*
X75774669Y-63516000D01*
X75751644Y-63393635D01*
X75679327Y-63281251D01*
X75568983Y-63205856D01*
X75438000Y-63179331D01*
X73914000Y-63179331D01*
X73791635Y-63202356D01*
X73679251Y-63274673D01*
X73603856Y-63385017D01*
X73577331Y-63516000D01*
X73577331Y-64110800D01*
X71779200Y-64110800D01*
X71779200Y-54253200D01*
X73577331Y-54253200D01*
X73577331Y-54848000D01*
G36*
X73577331Y-70088000D02*
X73600356Y-70210365D01*
X73672673Y-70322749D01*
X73783017Y-70398144D01*
X73914000Y-70424669D01*
X75438000Y-70424669D01*
X75560365Y-70401644D01*
X75672749Y-70329327D01*
X75748144Y-70218983D01*
X75774669Y-70088000D01*
X75774669Y-69493200D01*
X77393800Y-69493200D01*
X77393800Y-70204204D01*
X77482739Y-70418922D01*
X77647077Y-70583261D01*
X77861795Y-70672200D01*
X78416150Y-70672200D01*
X78562200Y-70526150D01*
X78562200Y-69493200D01*
X78917800Y-69493200D01*
X78917800Y-70526150D01*
X79063850Y-70672200D01*
X79618205Y-70672200D01*
X79832923Y-70583261D01*
X79997261Y-70418922D01*
X80086200Y-70204204D01*
X80086200Y-69493200D01*
X81636800Y-69493200D01*
X81636800Y-79350800D01*
X79838669Y-79350800D01*
X79838669Y-78756000D01*
X79815644Y-78633635D01*
X79743327Y-78521251D01*
X79632983Y-78445856D01*
X79502000Y-78419331D01*
X77978000Y-78419331D01*
X77855635Y-78442356D01*
X77743251Y-78514673D01*
X77667856Y-78625017D01*
X77641331Y-78756000D01*
X77641331Y-79350800D01*
X75774669Y-79350800D01*
X75774669Y-78756000D01*
X75751644Y-78633635D01*
X75679327Y-78521251D01*
X75568983Y-78445856D01*
X75438000Y-78419331D01*
X73914000Y-78419331D01*
X73791635Y-78442356D01*
X73679251Y-78514673D01*
X73603856Y-78625017D01*
X73577331Y-78756000D01*
X73577331Y-79350800D01*
X71779200Y-79350800D01*
X71779200Y-69493200D01*
X73577331Y-69493200D01*
X73577331Y-70088000D01*
X73577331Y-70088000D01*
G37*
X73577331Y-70088000D02*
X73600356Y-70210365D01*
X73672673Y-70322749D01*
X73783017Y-70398144D01*
X73914000Y-70424669D01*
X75438000Y-70424669D01*
X75560365Y-70401644D01*
X75672749Y-70329327D01*
X75748144Y-70218983D01*
X75774669Y-70088000D01*
X75774669Y-69493200D01*
X77393800Y-69493200D01*
X77393800Y-70204204D01*
X77482739Y-70418922D01*
X77647077Y-70583261D01*
X77861795Y-70672200D01*
X78416150Y-70672200D01*
X78562200Y-70526150D01*
X78562200Y-69493200D01*
X78917800Y-69493200D01*
X78917800Y-70526150D01*
X79063850Y-70672200D01*
X79618205Y-70672200D01*
X79832923Y-70583261D01*
X79997261Y-70418922D01*
X80086200Y-70204204D01*
X80086200Y-69493200D01*
X81636800Y-69493200D01*
X81636800Y-79350800D01*
X79838669Y-79350800D01*
X79838669Y-78756000D01*
X79815644Y-78633635D01*
X79743327Y-78521251D01*
X79632983Y-78445856D01*
X79502000Y-78419331D01*
X77978000Y-78419331D01*
X77855635Y-78442356D01*
X77743251Y-78514673D01*
X77667856Y-78625017D01*
X77641331Y-78756000D01*
X77641331Y-79350800D01*
X75774669Y-79350800D01*
X75774669Y-78756000D01*
X75751644Y-78633635D01*
X75679327Y-78521251D01*
X75568983Y-78445856D01*
X75438000Y-78419331D01*
X73914000Y-78419331D01*
X73791635Y-78442356D01*
X73679251Y-78514673D01*
X73603856Y-78625017D01*
X73577331Y-78756000D01*
X73577331Y-79350800D01*
X71779200Y-79350800D01*
X71779200Y-69493200D01*
X73577331Y-69493200D01*
X73577331Y-70088000D01*
G36*
X73577331Y-85328000D02*
X73600356Y-85450365D01*
X73672673Y-85562749D01*
X73783017Y-85638144D01*
X73914000Y-85664669D01*
X75438000Y-85664669D01*
X75560365Y-85641644D01*
X75672749Y-85569327D01*
X75748144Y-85458983D01*
X75774669Y-85328000D01*
X75774669Y-84733200D01*
X77393800Y-84733200D01*
X77393800Y-85444204D01*
X77482739Y-85658922D01*
X77647077Y-85823261D01*
X77861795Y-85912200D01*
X78416150Y-85912200D01*
X78562200Y-85766150D01*
X78562200Y-84733200D01*
X78917800Y-84733200D01*
X78917800Y-85766150D01*
X79063850Y-85912200D01*
X79618205Y-85912200D01*
X79832923Y-85823261D01*
X79997261Y-85658922D01*
X80086200Y-85444204D01*
X80086200Y-84733200D01*
X81636800Y-84733200D01*
X81636800Y-94590800D01*
X79838669Y-94590800D01*
X79838669Y-93996000D01*
X79815644Y-93873635D01*
X79743327Y-93761251D01*
X79632983Y-93685856D01*
X79502000Y-93659331D01*
X77978000Y-93659331D01*
X77855635Y-93682356D01*
X77743251Y-93754673D01*
X77667856Y-93865017D01*
X77641331Y-93996000D01*
X77641331Y-94590800D01*
X75774669Y-94590800D01*
X75774669Y-93996000D01*
X75751644Y-93873635D01*
X75679327Y-93761251D01*
X75568983Y-93685856D01*
X75438000Y-93659331D01*
X73914000Y-93659331D01*
X73791635Y-93682356D01*
X73679251Y-93754673D01*
X73603856Y-93865017D01*
X73577331Y-93996000D01*
X73577331Y-94590800D01*
X71779200Y-94590800D01*
X71779200Y-84733200D01*
X73577331Y-84733200D01*
X73577331Y-85328000D01*
X73577331Y-85328000D01*
G37*
X73577331Y-85328000D02*
X73600356Y-85450365D01*
X73672673Y-85562749D01*
X73783017Y-85638144D01*
X73914000Y-85664669D01*
X75438000Y-85664669D01*
X75560365Y-85641644D01*
X75672749Y-85569327D01*
X75748144Y-85458983D01*
X75774669Y-85328000D01*
X75774669Y-84733200D01*
X77393800Y-84733200D01*
X77393800Y-85444204D01*
X77482739Y-85658922D01*
X77647077Y-85823261D01*
X77861795Y-85912200D01*
X78416150Y-85912200D01*
X78562200Y-85766150D01*
X78562200Y-84733200D01*
X78917800Y-84733200D01*
X78917800Y-85766150D01*
X79063850Y-85912200D01*
X79618205Y-85912200D01*
X79832923Y-85823261D01*
X79997261Y-85658922D01*
X80086200Y-85444204D01*
X80086200Y-84733200D01*
X81636800Y-84733200D01*
X81636800Y-94590800D01*
X79838669Y-94590800D01*
X79838669Y-93996000D01*
X79815644Y-93873635D01*
X79743327Y-93761251D01*
X79632983Y-93685856D01*
X79502000Y-93659331D01*
X77978000Y-93659331D01*
X77855635Y-93682356D01*
X77743251Y-93754673D01*
X77667856Y-93865017D01*
X77641331Y-93996000D01*
X77641331Y-94590800D01*
X75774669Y-94590800D01*
X75774669Y-93996000D01*
X75751644Y-93873635D01*
X75679327Y-93761251D01*
X75568983Y-93685856D01*
X75438000Y-93659331D01*
X73914000Y-93659331D01*
X73791635Y-93682356D01*
X73679251Y-93754673D01*
X73603856Y-93865017D01*
X73577331Y-93996000D01*
X73577331Y-94590800D01*
X71779200Y-94590800D01*
X71779200Y-84733200D01*
X73577331Y-84733200D01*
X73577331Y-85328000D01*
G36*
X62909331Y-54848000D02*
X62932356Y-54970365D01*
X63004673Y-55082749D01*
X63115017Y-55158144D01*
X63246000Y-55184669D01*
X64770000Y-55184669D01*
X64892365Y-55161644D01*
X65004749Y-55089327D01*
X65080144Y-54978983D01*
X65106669Y-54848000D01*
X65106669Y-54253200D01*
X66725800Y-54253200D01*
X66725800Y-54964204D01*
X66814739Y-55178922D01*
X66979077Y-55343261D01*
X67193795Y-55432200D01*
X67748150Y-55432200D01*
X67894200Y-55286150D01*
X67894200Y-54253200D01*
X68249800Y-54253200D01*
X68249800Y-55286150D01*
X68395850Y-55432200D01*
X68950205Y-55432200D01*
X69164923Y-55343261D01*
X69329261Y-55178922D01*
X69418200Y-54964204D01*
X69418200Y-54253200D01*
X70968800Y-54253200D01*
X70968800Y-64110800D01*
X69170669Y-64110800D01*
X69170669Y-63516000D01*
X69147644Y-63393635D01*
X69075327Y-63281251D01*
X68964983Y-63205856D01*
X68834000Y-63179331D01*
X67310000Y-63179331D01*
X67187635Y-63202356D01*
X67075251Y-63274673D01*
X66999856Y-63385017D01*
X66973331Y-63516000D01*
X66973331Y-64110800D01*
X65106669Y-64110800D01*
X65106669Y-63516000D01*
X65083644Y-63393635D01*
X65011327Y-63281251D01*
X64900983Y-63205856D01*
X64770000Y-63179331D01*
X63246000Y-63179331D01*
X63123635Y-63202356D01*
X63011251Y-63274673D01*
X62935856Y-63385017D01*
X62909331Y-63516000D01*
X62909331Y-64110800D01*
X61111200Y-64110800D01*
X61111200Y-54253200D01*
X62909331Y-54253200D01*
X62909331Y-54848000D01*
X62909331Y-54848000D01*
G37*
X62909331Y-54848000D02*
X62932356Y-54970365D01*
X63004673Y-55082749D01*
X63115017Y-55158144D01*
X63246000Y-55184669D01*
X64770000Y-55184669D01*
X64892365Y-55161644D01*
X65004749Y-55089327D01*
X65080144Y-54978983D01*
X65106669Y-54848000D01*
X65106669Y-54253200D01*
X66725800Y-54253200D01*
X66725800Y-54964204D01*
X66814739Y-55178922D01*
X66979077Y-55343261D01*
X67193795Y-55432200D01*
X67748150Y-55432200D01*
X67894200Y-55286150D01*
X67894200Y-54253200D01*
X68249800Y-54253200D01*
X68249800Y-55286150D01*
X68395850Y-55432200D01*
X68950205Y-55432200D01*
X69164923Y-55343261D01*
X69329261Y-55178922D01*
X69418200Y-54964204D01*
X69418200Y-54253200D01*
X70968800Y-54253200D01*
X70968800Y-64110800D01*
X69170669Y-64110800D01*
X69170669Y-63516000D01*
X69147644Y-63393635D01*
X69075327Y-63281251D01*
X68964983Y-63205856D01*
X68834000Y-63179331D01*
X67310000Y-63179331D01*
X67187635Y-63202356D01*
X67075251Y-63274673D01*
X66999856Y-63385017D01*
X66973331Y-63516000D01*
X66973331Y-64110800D01*
X65106669Y-64110800D01*
X65106669Y-63516000D01*
X65083644Y-63393635D01*
X65011327Y-63281251D01*
X64900983Y-63205856D01*
X64770000Y-63179331D01*
X63246000Y-63179331D01*
X63123635Y-63202356D01*
X63011251Y-63274673D01*
X62935856Y-63385017D01*
X62909331Y-63516000D01*
X62909331Y-64110800D01*
X61111200Y-64110800D01*
X61111200Y-54253200D01*
X62909331Y-54253200D01*
X62909331Y-54848000D01*
G36*
X62909331Y-70088000D02*
X62932356Y-70210365D01*
X63004673Y-70322749D01*
X63115017Y-70398144D01*
X63246000Y-70424669D01*
X64770000Y-70424669D01*
X64892365Y-70401644D01*
X65004749Y-70329327D01*
X65080144Y-70218983D01*
X65106669Y-70088000D01*
X65106669Y-69493200D01*
X66725800Y-69493200D01*
X66725800Y-70204204D01*
X66814739Y-70418922D01*
X66979077Y-70583261D01*
X67193795Y-70672200D01*
X67748150Y-70672200D01*
X67894200Y-70526150D01*
X67894200Y-69493200D01*
X68249800Y-69493200D01*
X68249800Y-70526150D01*
X68395850Y-70672200D01*
X68950205Y-70672200D01*
X69164923Y-70583261D01*
X69329261Y-70418922D01*
X69418200Y-70204204D01*
X69418200Y-69493200D01*
X70968800Y-69493200D01*
X70968800Y-79350800D01*
X69170669Y-79350800D01*
X69170669Y-78756000D01*
X69147644Y-78633635D01*
X69075327Y-78521251D01*
X68964983Y-78445856D01*
X68834000Y-78419331D01*
X67310000Y-78419331D01*
X67187635Y-78442356D01*
X67075251Y-78514673D01*
X66999856Y-78625017D01*
X66973331Y-78756000D01*
X66973331Y-79350800D01*
X65106669Y-79350800D01*
X65106669Y-78756000D01*
X65083644Y-78633635D01*
X65011327Y-78521251D01*
X64900983Y-78445856D01*
X64770000Y-78419331D01*
X63246000Y-78419331D01*
X63123635Y-78442356D01*
X63011251Y-78514673D01*
X62935856Y-78625017D01*
X62909331Y-78756000D01*
X62909331Y-79350800D01*
X61111200Y-79350800D01*
X61111200Y-69493200D01*
X62909331Y-69493200D01*
X62909331Y-70088000D01*
X62909331Y-70088000D01*
G37*
X62909331Y-70088000D02*
X62932356Y-70210365D01*
X63004673Y-70322749D01*
X63115017Y-70398144D01*
X63246000Y-70424669D01*
X64770000Y-70424669D01*
X64892365Y-70401644D01*
X65004749Y-70329327D01*
X65080144Y-70218983D01*
X65106669Y-70088000D01*
X65106669Y-69493200D01*
X66725800Y-69493200D01*
X66725800Y-70204204D01*
X66814739Y-70418922D01*
X66979077Y-70583261D01*
X67193795Y-70672200D01*
X67748150Y-70672200D01*
X67894200Y-70526150D01*
X67894200Y-69493200D01*
X68249800Y-69493200D01*
X68249800Y-70526150D01*
X68395850Y-70672200D01*
X68950205Y-70672200D01*
X69164923Y-70583261D01*
X69329261Y-70418922D01*
X69418200Y-70204204D01*
X69418200Y-69493200D01*
X70968800Y-69493200D01*
X70968800Y-79350800D01*
X69170669Y-79350800D01*
X69170669Y-78756000D01*
X69147644Y-78633635D01*
X69075327Y-78521251D01*
X68964983Y-78445856D01*
X68834000Y-78419331D01*
X67310000Y-78419331D01*
X67187635Y-78442356D01*
X67075251Y-78514673D01*
X66999856Y-78625017D01*
X66973331Y-78756000D01*
X66973331Y-79350800D01*
X65106669Y-79350800D01*
X65106669Y-78756000D01*
X65083644Y-78633635D01*
X65011327Y-78521251D01*
X64900983Y-78445856D01*
X64770000Y-78419331D01*
X63246000Y-78419331D01*
X63123635Y-78442356D01*
X63011251Y-78514673D01*
X62935856Y-78625017D01*
X62909331Y-78756000D01*
X62909331Y-79350800D01*
X61111200Y-79350800D01*
X61111200Y-69493200D01*
X62909331Y-69493200D01*
X62909331Y-70088000D01*
G36*
X62909331Y-85328000D02*
X62932356Y-85450365D01*
X63004673Y-85562749D01*
X63115017Y-85638144D01*
X63246000Y-85664669D01*
X64770000Y-85664669D01*
X64892365Y-85641644D01*
X65004749Y-85569327D01*
X65080144Y-85458983D01*
X65106669Y-85328000D01*
X65106669Y-84733200D01*
X66725800Y-84733200D01*
X66725800Y-85444204D01*
X66814739Y-85658922D01*
X66979077Y-85823261D01*
X67193795Y-85912200D01*
X67748150Y-85912200D01*
X67894200Y-85766150D01*
X67894200Y-84733200D01*
X68249800Y-84733200D01*
X68249800Y-85766150D01*
X68395850Y-85912200D01*
X68950205Y-85912200D01*
X69164923Y-85823261D01*
X69329261Y-85658922D01*
X69418200Y-85444204D01*
X69418200Y-84733200D01*
X70968800Y-84733200D01*
X70968800Y-94590800D01*
X69170669Y-94590800D01*
X69170669Y-93996000D01*
X69147644Y-93873635D01*
X69075327Y-93761251D01*
X68964983Y-93685856D01*
X68834000Y-93659331D01*
X67310000Y-93659331D01*
X67187635Y-93682356D01*
X67075251Y-93754673D01*
X66999856Y-93865017D01*
X66973331Y-93996000D01*
X66973331Y-94590800D01*
X65106669Y-94590800D01*
X65106669Y-93996000D01*
X65083644Y-93873635D01*
X65011327Y-93761251D01*
X64900983Y-93685856D01*
X64770000Y-93659331D01*
X63246000Y-93659331D01*
X63123635Y-93682356D01*
X63011251Y-93754673D01*
X62935856Y-93865017D01*
X62909331Y-93996000D01*
X62909331Y-94590800D01*
X61111200Y-94590800D01*
X61111200Y-84733200D01*
X62909331Y-84733200D01*
X62909331Y-85328000D01*
X62909331Y-85328000D01*
G37*
X62909331Y-85328000D02*
X62932356Y-85450365D01*
X63004673Y-85562749D01*
X63115017Y-85638144D01*
X63246000Y-85664669D01*
X64770000Y-85664669D01*
X64892365Y-85641644D01*
X65004749Y-85569327D01*
X65080144Y-85458983D01*
X65106669Y-85328000D01*
X65106669Y-84733200D01*
X66725800Y-84733200D01*
X66725800Y-85444204D01*
X66814739Y-85658922D01*
X66979077Y-85823261D01*
X67193795Y-85912200D01*
X67748150Y-85912200D01*
X67894200Y-85766150D01*
X67894200Y-84733200D01*
X68249800Y-84733200D01*
X68249800Y-85766150D01*
X68395850Y-85912200D01*
X68950205Y-85912200D01*
X69164923Y-85823261D01*
X69329261Y-85658922D01*
X69418200Y-85444204D01*
X69418200Y-84733200D01*
X70968800Y-84733200D01*
X70968800Y-94590800D01*
X69170669Y-94590800D01*
X69170669Y-93996000D01*
X69147644Y-93873635D01*
X69075327Y-93761251D01*
X68964983Y-93685856D01*
X68834000Y-93659331D01*
X67310000Y-93659331D01*
X67187635Y-93682356D01*
X67075251Y-93754673D01*
X66999856Y-93865017D01*
X66973331Y-93996000D01*
X66973331Y-94590800D01*
X65106669Y-94590800D01*
X65106669Y-93996000D01*
X65083644Y-93873635D01*
X65011327Y-93761251D01*
X64900983Y-93685856D01*
X64770000Y-93659331D01*
X63246000Y-93659331D01*
X63123635Y-93682356D01*
X63011251Y-93754673D01*
X62935856Y-93865017D01*
X62909331Y-93996000D01*
X62909331Y-94590800D01*
X61111200Y-94590800D01*
X61111200Y-84733200D01*
X62909331Y-84733200D01*
X62909331Y-85328000D01*
G36*
X52241331Y-54848000D02*
X52264356Y-54970365D01*
X52336673Y-55082749D01*
X52447017Y-55158144D01*
X52578000Y-55184669D01*
X54102000Y-55184669D01*
X54224365Y-55161644D01*
X54336749Y-55089327D01*
X54412144Y-54978983D01*
X54438669Y-54848000D01*
X54438669Y-54253200D01*
X56057800Y-54253200D01*
X56057800Y-54964204D01*
X56146739Y-55178922D01*
X56311077Y-55343261D01*
X56525795Y-55432200D01*
X57080150Y-55432200D01*
X57226200Y-55286150D01*
X57226200Y-54253200D01*
X57581800Y-54253200D01*
X57581800Y-55286150D01*
X57727850Y-55432200D01*
X58282205Y-55432200D01*
X58496923Y-55343261D01*
X58661261Y-55178922D01*
X58750200Y-54964204D01*
X58750200Y-54253200D01*
X60300800Y-54253200D01*
X60300800Y-64110800D01*
X58502669Y-64110800D01*
X58502669Y-63516000D01*
X58479644Y-63393635D01*
X58407327Y-63281251D01*
X58296983Y-63205856D01*
X58166000Y-63179331D01*
X56642000Y-63179331D01*
X56519635Y-63202356D01*
X56407251Y-63274673D01*
X56331856Y-63385017D01*
X56305331Y-63516000D01*
X56305331Y-64110800D01*
X54438669Y-64110800D01*
X54438669Y-63516000D01*
X54415644Y-63393635D01*
X54343327Y-63281251D01*
X54232983Y-63205856D01*
X54102000Y-63179331D01*
X52578000Y-63179331D01*
X52455635Y-63202356D01*
X52343251Y-63274673D01*
X52267856Y-63385017D01*
X52241331Y-63516000D01*
X52241331Y-64110800D01*
X50443200Y-64110800D01*
X50443200Y-54253200D01*
X52241331Y-54253200D01*
X52241331Y-54848000D01*
X52241331Y-54848000D01*
G37*
X52241331Y-54848000D02*
X52264356Y-54970365D01*
X52336673Y-55082749D01*
X52447017Y-55158144D01*
X52578000Y-55184669D01*
X54102000Y-55184669D01*
X54224365Y-55161644D01*
X54336749Y-55089327D01*
X54412144Y-54978983D01*
X54438669Y-54848000D01*
X54438669Y-54253200D01*
X56057800Y-54253200D01*
X56057800Y-54964204D01*
X56146739Y-55178922D01*
X56311077Y-55343261D01*
X56525795Y-55432200D01*
X57080150Y-55432200D01*
X57226200Y-55286150D01*
X57226200Y-54253200D01*
X57581800Y-54253200D01*
X57581800Y-55286150D01*
X57727850Y-55432200D01*
X58282205Y-55432200D01*
X58496923Y-55343261D01*
X58661261Y-55178922D01*
X58750200Y-54964204D01*
X58750200Y-54253200D01*
X60300800Y-54253200D01*
X60300800Y-64110800D01*
X58502669Y-64110800D01*
X58502669Y-63516000D01*
X58479644Y-63393635D01*
X58407327Y-63281251D01*
X58296983Y-63205856D01*
X58166000Y-63179331D01*
X56642000Y-63179331D01*
X56519635Y-63202356D01*
X56407251Y-63274673D01*
X56331856Y-63385017D01*
X56305331Y-63516000D01*
X56305331Y-64110800D01*
X54438669Y-64110800D01*
X54438669Y-63516000D01*
X54415644Y-63393635D01*
X54343327Y-63281251D01*
X54232983Y-63205856D01*
X54102000Y-63179331D01*
X52578000Y-63179331D01*
X52455635Y-63202356D01*
X52343251Y-63274673D01*
X52267856Y-63385017D01*
X52241331Y-63516000D01*
X52241331Y-64110800D01*
X50443200Y-64110800D01*
X50443200Y-54253200D01*
X52241331Y-54253200D01*
X52241331Y-54848000D01*
G36*
X52241331Y-70088000D02*
X52264356Y-70210365D01*
X52336673Y-70322749D01*
X52447017Y-70398144D01*
X52578000Y-70424669D01*
X54102000Y-70424669D01*
X54224365Y-70401644D01*
X54336749Y-70329327D01*
X54412144Y-70218983D01*
X54438669Y-70088000D01*
X54438669Y-69493200D01*
X56057800Y-69493200D01*
X56057800Y-70204204D01*
X56146739Y-70418922D01*
X56311077Y-70583261D01*
X56525795Y-70672200D01*
X57080150Y-70672200D01*
X57226200Y-70526150D01*
X57226200Y-69493200D01*
X57581800Y-69493200D01*
X57581800Y-70526150D01*
X57727850Y-70672200D01*
X58282205Y-70672200D01*
X58496923Y-70583261D01*
X58661261Y-70418922D01*
X58750200Y-70204204D01*
X58750200Y-69493200D01*
X60300800Y-69493200D01*
X60300800Y-79350800D01*
X58502669Y-79350800D01*
X58502669Y-78756000D01*
X58479644Y-78633635D01*
X58407327Y-78521251D01*
X58296983Y-78445856D01*
X58166000Y-78419331D01*
X56642000Y-78419331D01*
X56519635Y-78442356D01*
X56407251Y-78514673D01*
X56331856Y-78625017D01*
X56305331Y-78756000D01*
X56305331Y-79350800D01*
X54438669Y-79350800D01*
X54438669Y-78756000D01*
X54415644Y-78633635D01*
X54343327Y-78521251D01*
X54232983Y-78445856D01*
X54102000Y-78419331D01*
X52578000Y-78419331D01*
X52455635Y-78442356D01*
X52343251Y-78514673D01*
X52267856Y-78625017D01*
X52241331Y-78756000D01*
X52241331Y-79350800D01*
X50443200Y-79350800D01*
X50443200Y-69493200D01*
X52241331Y-69493200D01*
X52241331Y-70088000D01*
X52241331Y-70088000D01*
G37*
X52241331Y-70088000D02*
X52264356Y-70210365D01*
X52336673Y-70322749D01*
X52447017Y-70398144D01*
X52578000Y-70424669D01*
X54102000Y-70424669D01*
X54224365Y-70401644D01*
X54336749Y-70329327D01*
X54412144Y-70218983D01*
X54438669Y-70088000D01*
X54438669Y-69493200D01*
X56057800Y-69493200D01*
X56057800Y-70204204D01*
X56146739Y-70418922D01*
X56311077Y-70583261D01*
X56525795Y-70672200D01*
X57080150Y-70672200D01*
X57226200Y-70526150D01*
X57226200Y-69493200D01*
X57581800Y-69493200D01*
X57581800Y-70526150D01*
X57727850Y-70672200D01*
X58282205Y-70672200D01*
X58496923Y-70583261D01*
X58661261Y-70418922D01*
X58750200Y-70204204D01*
X58750200Y-69493200D01*
X60300800Y-69493200D01*
X60300800Y-79350800D01*
X58502669Y-79350800D01*
X58502669Y-78756000D01*
X58479644Y-78633635D01*
X58407327Y-78521251D01*
X58296983Y-78445856D01*
X58166000Y-78419331D01*
X56642000Y-78419331D01*
X56519635Y-78442356D01*
X56407251Y-78514673D01*
X56331856Y-78625017D01*
X56305331Y-78756000D01*
X56305331Y-79350800D01*
X54438669Y-79350800D01*
X54438669Y-78756000D01*
X54415644Y-78633635D01*
X54343327Y-78521251D01*
X54232983Y-78445856D01*
X54102000Y-78419331D01*
X52578000Y-78419331D01*
X52455635Y-78442356D01*
X52343251Y-78514673D01*
X52267856Y-78625017D01*
X52241331Y-78756000D01*
X52241331Y-79350800D01*
X50443200Y-79350800D01*
X50443200Y-69493200D01*
X52241331Y-69493200D01*
X52241331Y-70088000D01*
G36*
X52241331Y-85328000D02*
X52264356Y-85450365D01*
X52336673Y-85562749D01*
X52447017Y-85638144D01*
X52578000Y-85664669D01*
X54102000Y-85664669D01*
X54224365Y-85641644D01*
X54336749Y-85569327D01*
X54412144Y-85458983D01*
X54438669Y-85328000D01*
X54438669Y-84733200D01*
X56057800Y-84733200D01*
X56057800Y-85444204D01*
X56146739Y-85658922D01*
X56311077Y-85823261D01*
X56525795Y-85912200D01*
X57080150Y-85912200D01*
X57226200Y-85766150D01*
X57226200Y-84733200D01*
X57581800Y-84733200D01*
X57581800Y-85766150D01*
X57727850Y-85912200D01*
X58282205Y-85912200D01*
X58496923Y-85823261D01*
X58661261Y-85658922D01*
X58750200Y-85444204D01*
X58750200Y-84733200D01*
X60300800Y-84733200D01*
X60300800Y-94590800D01*
X58502669Y-94590800D01*
X58502669Y-93996000D01*
X58479644Y-93873635D01*
X58407327Y-93761251D01*
X58296983Y-93685856D01*
X58166000Y-93659331D01*
X56642000Y-93659331D01*
X56519635Y-93682356D01*
X56407251Y-93754673D01*
X56331856Y-93865017D01*
X56305331Y-93996000D01*
X56305331Y-94590800D01*
X54438669Y-94590800D01*
X54438669Y-93996000D01*
X54415644Y-93873635D01*
X54343327Y-93761251D01*
X54232983Y-93685856D01*
X54102000Y-93659331D01*
X52578000Y-93659331D01*
X52455635Y-93682356D01*
X52343251Y-93754673D01*
X52267856Y-93865017D01*
X52241331Y-93996000D01*
X52241331Y-94590800D01*
X50443200Y-94590800D01*
X50443200Y-84733200D01*
X52241331Y-84733200D01*
X52241331Y-85328000D01*
X52241331Y-85328000D01*
G37*
X52241331Y-85328000D02*
X52264356Y-85450365D01*
X52336673Y-85562749D01*
X52447017Y-85638144D01*
X52578000Y-85664669D01*
X54102000Y-85664669D01*
X54224365Y-85641644D01*
X54336749Y-85569327D01*
X54412144Y-85458983D01*
X54438669Y-85328000D01*
X54438669Y-84733200D01*
X56057800Y-84733200D01*
X56057800Y-85444204D01*
X56146739Y-85658922D01*
X56311077Y-85823261D01*
X56525795Y-85912200D01*
X57080150Y-85912200D01*
X57226200Y-85766150D01*
X57226200Y-84733200D01*
X57581800Y-84733200D01*
X57581800Y-85766150D01*
X57727850Y-85912200D01*
X58282205Y-85912200D01*
X58496923Y-85823261D01*
X58661261Y-85658922D01*
X58750200Y-85444204D01*
X58750200Y-84733200D01*
X60300800Y-84733200D01*
X60300800Y-94590800D01*
X58502669Y-94590800D01*
X58502669Y-93996000D01*
X58479644Y-93873635D01*
X58407327Y-93761251D01*
X58296983Y-93685856D01*
X58166000Y-93659331D01*
X56642000Y-93659331D01*
X56519635Y-93682356D01*
X56407251Y-93754673D01*
X56331856Y-93865017D01*
X56305331Y-93996000D01*
X56305331Y-94590800D01*
X54438669Y-94590800D01*
X54438669Y-93996000D01*
X54415644Y-93873635D01*
X54343327Y-93761251D01*
X54232983Y-93685856D01*
X54102000Y-93659331D01*
X52578000Y-93659331D01*
X52455635Y-93682356D01*
X52343251Y-93754673D01*
X52267856Y-93865017D01*
X52241331Y-93996000D01*
X52241331Y-94590800D01*
X50443200Y-94590800D01*
X50443200Y-84733200D01*
X52241331Y-84733200D01*
X52241331Y-85328000D01*
G36*
X62909331Y-100568000D02*
X62932356Y-100690365D01*
X63004673Y-100802749D01*
X63115017Y-100878144D01*
X63246000Y-100904669D01*
X64770000Y-100904669D01*
X64892365Y-100881644D01*
X65004749Y-100809327D01*
X65080144Y-100698983D01*
X65106669Y-100568000D01*
X65106669Y-99973200D01*
X66725800Y-99973200D01*
X66725800Y-100684204D01*
X66814739Y-100898922D01*
X66979077Y-101063261D01*
X67193795Y-101152200D01*
X67748150Y-101152200D01*
X67894200Y-101006150D01*
X67894200Y-99973200D01*
X68249800Y-99973200D01*
X68249800Y-101006150D01*
X68395850Y-101152200D01*
X68950205Y-101152200D01*
X69164923Y-101063261D01*
X69329261Y-100898922D01*
X69418200Y-100684204D01*
X69418200Y-99973200D01*
X70968800Y-99973200D01*
X70968800Y-109830800D01*
X69170669Y-109830800D01*
X69170669Y-109236000D01*
X69147644Y-109113635D01*
X69075327Y-109001251D01*
X68964983Y-108925856D01*
X68834000Y-108899331D01*
X67310000Y-108899331D01*
X67187635Y-108922356D01*
X67075251Y-108994673D01*
X66999856Y-109105017D01*
X66973331Y-109236000D01*
X66973331Y-109830800D01*
X65106669Y-109830800D01*
X65106669Y-109236000D01*
X65083644Y-109113635D01*
X65011327Y-109001251D01*
X64900983Y-108925856D01*
X64770000Y-108899331D01*
X63246000Y-108899331D01*
X63123635Y-108922356D01*
X63011251Y-108994673D01*
X62935856Y-109105017D01*
X62909331Y-109236000D01*
X62909331Y-109830800D01*
X61111200Y-109830800D01*
X61111200Y-99973200D01*
X62909331Y-99973200D01*
X62909331Y-100568000D01*
X62909331Y-100568000D01*
G37*
X62909331Y-100568000D02*
X62932356Y-100690365D01*
X63004673Y-100802749D01*
X63115017Y-100878144D01*
X63246000Y-100904669D01*
X64770000Y-100904669D01*
X64892365Y-100881644D01*
X65004749Y-100809327D01*
X65080144Y-100698983D01*
X65106669Y-100568000D01*
X65106669Y-99973200D01*
X66725800Y-99973200D01*
X66725800Y-100684204D01*
X66814739Y-100898922D01*
X66979077Y-101063261D01*
X67193795Y-101152200D01*
X67748150Y-101152200D01*
X67894200Y-101006150D01*
X67894200Y-99973200D01*
X68249800Y-99973200D01*
X68249800Y-101006150D01*
X68395850Y-101152200D01*
X68950205Y-101152200D01*
X69164923Y-101063261D01*
X69329261Y-100898922D01*
X69418200Y-100684204D01*
X69418200Y-99973200D01*
X70968800Y-99973200D01*
X70968800Y-109830800D01*
X69170669Y-109830800D01*
X69170669Y-109236000D01*
X69147644Y-109113635D01*
X69075327Y-109001251D01*
X68964983Y-108925856D01*
X68834000Y-108899331D01*
X67310000Y-108899331D01*
X67187635Y-108922356D01*
X67075251Y-108994673D01*
X66999856Y-109105017D01*
X66973331Y-109236000D01*
X66973331Y-109830800D01*
X65106669Y-109830800D01*
X65106669Y-109236000D01*
X65083644Y-109113635D01*
X65011327Y-109001251D01*
X64900983Y-108925856D01*
X64770000Y-108899331D01*
X63246000Y-108899331D01*
X63123635Y-108922356D01*
X63011251Y-108994673D01*
X62935856Y-109105017D01*
X62909331Y-109236000D01*
X62909331Y-109830800D01*
X61111200Y-109830800D01*
X61111200Y-99973200D01*
X62909331Y-99973200D01*
X62909331Y-100568000D01*
G36*
X73577331Y-100568000D02*
X73600356Y-100690365D01*
X73672673Y-100802749D01*
X73783017Y-100878144D01*
X73914000Y-100904669D01*
X75438000Y-100904669D01*
X75560365Y-100881644D01*
X75672749Y-100809327D01*
X75748144Y-100698983D01*
X75774669Y-100568000D01*
X75774669Y-99973200D01*
X77393800Y-99973200D01*
X77393800Y-100684204D01*
X77482739Y-100898922D01*
X77647077Y-101063261D01*
X77861795Y-101152200D01*
X78416150Y-101152200D01*
X78562200Y-101006150D01*
X78562200Y-99973200D01*
X78917800Y-99973200D01*
X78917800Y-101006150D01*
X79063850Y-101152200D01*
X79618205Y-101152200D01*
X79832923Y-101063261D01*
X79997261Y-100898922D01*
X80086200Y-100684204D01*
X80086200Y-99973200D01*
X81636800Y-99973200D01*
X81636800Y-109830800D01*
X79838669Y-109830800D01*
X79838669Y-109236000D01*
X79815644Y-109113635D01*
X79743327Y-109001251D01*
X79632983Y-108925856D01*
X79502000Y-108899331D01*
X77978000Y-108899331D01*
X77855635Y-108922356D01*
X77743251Y-108994673D01*
X77667856Y-109105017D01*
X77641331Y-109236000D01*
X77641331Y-109830800D01*
X75774669Y-109830800D01*
X75774669Y-109236000D01*
X75751644Y-109113635D01*
X75679327Y-109001251D01*
X75568983Y-108925856D01*
X75438000Y-108899331D01*
X73914000Y-108899331D01*
X73791635Y-108922356D01*
X73679251Y-108994673D01*
X73603856Y-109105017D01*
X73577331Y-109236000D01*
X73577331Y-109830800D01*
X71779200Y-109830800D01*
X71779200Y-99973200D01*
X73577331Y-99973200D01*
X73577331Y-100568000D01*
X73577331Y-100568000D01*
G37*
X73577331Y-100568000D02*
X73600356Y-100690365D01*
X73672673Y-100802749D01*
X73783017Y-100878144D01*
X73914000Y-100904669D01*
X75438000Y-100904669D01*
X75560365Y-100881644D01*
X75672749Y-100809327D01*
X75748144Y-100698983D01*
X75774669Y-100568000D01*
X75774669Y-99973200D01*
X77393800Y-99973200D01*
X77393800Y-100684204D01*
X77482739Y-100898922D01*
X77647077Y-101063261D01*
X77861795Y-101152200D01*
X78416150Y-101152200D01*
X78562200Y-101006150D01*
X78562200Y-99973200D01*
X78917800Y-99973200D01*
X78917800Y-101006150D01*
X79063850Y-101152200D01*
X79618205Y-101152200D01*
X79832923Y-101063261D01*
X79997261Y-100898922D01*
X80086200Y-100684204D01*
X80086200Y-99973200D01*
X81636800Y-99973200D01*
X81636800Y-109830800D01*
X79838669Y-109830800D01*
X79838669Y-109236000D01*
X79815644Y-109113635D01*
X79743327Y-109001251D01*
X79632983Y-108925856D01*
X79502000Y-108899331D01*
X77978000Y-108899331D01*
X77855635Y-108922356D01*
X77743251Y-108994673D01*
X77667856Y-109105017D01*
X77641331Y-109236000D01*
X77641331Y-109830800D01*
X75774669Y-109830800D01*
X75774669Y-109236000D01*
X75751644Y-109113635D01*
X75679327Y-109001251D01*
X75568983Y-108925856D01*
X75438000Y-108899331D01*
X73914000Y-108899331D01*
X73791635Y-108922356D01*
X73679251Y-108994673D01*
X73603856Y-109105017D01*
X73577331Y-109236000D01*
X73577331Y-109830800D01*
X71779200Y-109830800D01*
X71779200Y-99973200D01*
X73577331Y-99973200D01*
X73577331Y-100568000D01*
G36*
X52241331Y-100568000D02*
X52264356Y-100690365D01*
X52336673Y-100802749D01*
X52447017Y-100878144D01*
X52578000Y-100904669D01*
X54102000Y-100904669D01*
X54224365Y-100881644D01*
X54336749Y-100809327D01*
X54412144Y-100698983D01*
X54438669Y-100568000D01*
X54438669Y-99973200D01*
X56057800Y-99973200D01*
X56057800Y-100684204D01*
X56146739Y-100898922D01*
X56311077Y-101063261D01*
X56525795Y-101152200D01*
X57080150Y-101152200D01*
X57226200Y-101006150D01*
X57226200Y-99973200D01*
X57581800Y-99973200D01*
X57581800Y-101006150D01*
X57727850Y-101152200D01*
X58282205Y-101152200D01*
X58496923Y-101063261D01*
X58661261Y-100898922D01*
X58750200Y-100684204D01*
X58750200Y-99973200D01*
X60300800Y-99973200D01*
X60300800Y-109830800D01*
X58502669Y-109830800D01*
X58502669Y-109236000D01*
X58479644Y-109113635D01*
X58407327Y-109001251D01*
X58296983Y-108925856D01*
X58166000Y-108899331D01*
X56642000Y-108899331D01*
X56519635Y-108922356D01*
X56407251Y-108994673D01*
X56331856Y-109105017D01*
X56305331Y-109236000D01*
X56305331Y-109830800D01*
X54438669Y-109830800D01*
X54438669Y-109236000D01*
X54415644Y-109113635D01*
X54343327Y-109001251D01*
X54232983Y-108925856D01*
X54102000Y-108899331D01*
X52578000Y-108899331D01*
X52455635Y-108922356D01*
X52343251Y-108994673D01*
X52267856Y-109105017D01*
X52241331Y-109236000D01*
X52241331Y-109830800D01*
X50443200Y-109830800D01*
X50443200Y-99973200D01*
X52241331Y-99973200D01*
X52241331Y-100568000D01*
X52241331Y-100568000D01*
G37*
X52241331Y-100568000D02*
X52264356Y-100690365D01*
X52336673Y-100802749D01*
X52447017Y-100878144D01*
X52578000Y-100904669D01*
X54102000Y-100904669D01*
X54224365Y-100881644D01*
X54336749Y-100809327D01*
X54412144Y-100698983D01*
X54438669Y-100568000D01*
X54438669Y-99973200D01*
X56057800Y-99973200D01*
X56057800Y-100684204D01*
X56146739Y-100898922D01*
X56311077Y-101063261D01*
X56525795Y-101152200D01*
X57080150Y-101152200D01*
X57226200Y-101006150D01*
X57226200Y-99973200D01*
X57581800Y-99973200D01*
X57581800Y-101006150D01*
X57727850Y-101152200D01*
X58282205Y-101152200D01*
X58496923Y-101063261D01*
X58661261Y-100898922D01*
X58750200Y-100684204D01*
X58750200Y-99973200D01*
X60300800Y-99973200D01*
X60300800Y-109830800D01*
X58502669Y-109830800D01*
X58502669Y-109236000D01*
X58479644Y-109113635D01*
X58407327Y-109001251D01*
X58296983Y-108925856D01*
X58166000Y-108899331D01*
X56642000Y-108899331D01*
X56519635Y-108922356D01*
X56407251Y-108994673D01*
X56331856Y-109105017D01*
X56305331Y-109236000D01*
X56305331Y-109830800D01*
X54438669Y-109830800D01*
X54438669Y-109236000D01*
X54415644Y-109113635D01*
X54343327Y-109001251D01*
X54232983Y-108925856D01*
X54102000Y-108899331D01*
X52578000Y-108899331D01*
X52455635Y-108922356D01*
X52343251Y-108994673D01*
X52267856Y-109105017D01*
X52241331Y-109236000D01*
X52241331Y-109830800D01*
X50443200Y-109830800D01*
X50443200Y-99973200D01*
X52241331Y-99973200D01*
X52241331Y-100568000D01*
M02*
