G04 #@! TF.FileFunction,Copper,L1,Top,Signal*
%FSLAX46Y46*%
G04 Gerber Fmt 4.6, Leading zero omitted, Abs format (unit mm)*
G04 Created by KiCad (PCBNEW no-vcs-found-product) date Qui 14 Abr 2016 10:23:32 BRT*
%MOMM*%
G01*
G04 APERTURE LIST*
%ADD10C,0.100000*%
%ADD11R,1.524000X2.000000*%
%ADD12R,0.950000X0.450000*%
%ADD13R,2.300000X0.450000*%
%ADD14R,0.450000X1.300000*%
%ADD15R,1.250000X1.000000*%
%ADD16C,0.500000*%
%ADD17C,0.762000*%
%ADD18C,0.254000*%
%ADD19C,0.508000*%
%ADD20C,0.152400*%
G04 APERTURE END LIST*
D10*
D11*
X74676000Y-110236000D03*
D12*
X77383000Y-105327000D03*
X76033000Y-105327000D03*
X76033000Y-104477000D03*
X77383000Y-104477000D03*
D13*
X76708000Y-103677000D03*
X76708000Y-106177000D03*
D14*
X78483000Y-104902000D03*
X74933000Y-104902000D03*
D11*
X78740000Y-110236000D03*
X74676000Y-99568000D03*
D15*
X72898000Y-103902000D03*
X72898000Y-105902000D03*
D11*
X78740000Y-99568000D03*
X68072000Y-99568000D03*
D15*
X62230000Y-103902000D03*
X62230000Y-105902000D03*
X51562000Y-103902000D03*
X51562000Y-105902000D03*
D11*
X68072000Y-110236000D03*
D12*
X56047000Y-105327000D03*
X54697000Y-105327000D03*
X54697000Y-104477000D03*
X56047000Y-104477000D03*
D13*
X55372000Y-103677000D03*
X55372000Y-106177000D03*
D14*
X57147000Y-104902000D03*
X53597000Y-104902000D03*
D11*
X57404000Y-110236000D03*
D12*
X66715000Y-105327000D03*
X65365000Y-105327000D03*
X65365000Y-104477000D03*
X66715000Y-104477000D03*
D13*
X66040000Y-103677000D03*
X66040000Y-106177000D03*
D14*
X67815000Y-104902000D03*
X64265000Y-104902000D03*
D11*
X64008000Y-110236000D03*
X53340000Y-110236000D03*
X57404000Y-99568000D03*
X64008000Y-99568000D03*
X53340000Y-99568000D03*
X57404000Y-94996000D03*
X57404000Y-79756000D03*
X57404000Y-64516000D03*
X53340000Y-94996000D03*
X53340000Y-79756000D03*
X53340000Y-64516000D03*
D12*
X56047000Y-90087000D03*
X54697000Y-90087000D03*
X54697000Y-89237000D03*
X56047000Y-89237000D03*
D13*
X55372000Y-88437000D03*
X55372000Y-90937000D03*
D14*
X57147000Y-89662000D03*
X53597000Y-89662000D03*
D12*
X56047000Y-74847000D03*
X54697000Y-74847000D03*
X54697000Y-73997000D03*
X56047000Y-73997000D03*
D13*
X55372000Y-73197000D03*
X55372000Y-75697000D03*
D14*
X57147000Y-74422000D03*
X53597000Y-74422000D03*
D12*
X56047000Y-59607000D03*
X54697000Y-59607000D03*
X54697000Y-58757000D03*
X56047000Y-58757000D03*
D13*
X55372000Y-57957000D03*
X55372000Y-60457000D03*
D14*
X57147000Y-59182000D03*
X53597000Y-59182000D03*
D15*
X62230000Y-88662000D03*
X62230000Y-90662000D03*
X62230000Y-73422000D03*
X62230000Y-75422000D03*
X62230000Y-58182000D03*
X62230000Y-60182000D03*
D11*
X57404000Y-84328000D03*
X57404000Y-69088000D03*
X57404000Y-53848000D03*
D15*
X51562000Y-88662000D03*
X51562000Y-90662000D03*
X51562000Y-73422000D03*
X51562000Y-75422000D03*
X51562000Y-58182000D03*
X51562000Y-60182000D03*
D11*
X53340000Y-84328000D03*
X53340000Y-69088000D03*
X53340000Y-53848000D03*
X78740000Y-94996000D03*
X78740000Y-79756000D03*
X78740000Y-64516000D03*
X74676000Y-94996000D03*
X74676000Y-79756000D03*
X74676000Y-64516000D03*
X78740000Y-84328000D03*
X78740000Y-69088000D03*
X78740000Y-53848000D03*
D12*
X77383000Y-90087000D03*
X76033000Y-90087000D03*
X76033000Y-89237000D03*
X77383000Y-89237000D03*
D13*
X76708000Y-88437000D03*
X76708000Y-90937000D03*
D14*
X78483000Y-89662000D03*
X74933000Y-89662000D03*
D12*
X77383000Y-74847000D03*
X76033000Y-74847000D03*
X76033000Y-73997000D03*
X77383000Y-73997000D03*
D13*
X76708000Y-73197000D03*
X76708000Y-75697000D03*
D14*
X78483000Y-74422000D03*
X74933000Y-74422000D03*
D12*
X77383000Y-59607000D03*
X76033000Y-59607000D03*
X76033000Y-58757000D03*
X77383000Y-58757000D03*
D13*
X76708000Y-57957000D03*
X76708000Y-60457000D03*
D14*
X78483000Y-59182000D03*
X74933000Y-59182000D03*
D11*
X74676000Y-84328000D03*
X74676000Y-69088000D03*
X74676000Y-53848000D03*
X68072000Y-94996000D03*
X68072000Y-79756000D03*
X68072000Y-64516000D03*
X64008000Y-94996000D03*
X64008000Y-79756000D03*
X64008000Y-64516000D03*
D15*
X72898000Y-88662000D03*
X72898000Y-90662000D03*
X72898000Y-73422000D03*
X72898000Y-75422000D03*
X72898000Y-58182000D03*
X72898000Y-60182000D03*
D12*
X66715000Y-90087000D03*
X65365000Y-90087000D03*
X65365000Y-89237000D03*
X66715000Y-89237000D03*
D13*
X66040000Y-88437000D03*
X66040000Y-90937000D03*
D14*
X67815000Y-89662000D03*
X64265000Y-89662000D03*
D12*
X66715000Y-74847000D03*
X65365000Y-74847000D03*
X65365000Y-73997000D03*
X66715000Y-73997000D03*
D13*
X66040000Y-73197000D03*
X66040000Y-75697000D03*
D14*
X67815000Y-74422000D03*
X64265000Y-74422000D03*
D12*
X66715000Y-59607000D03*
X65365000Y-59607000D03*
X65365000Y-58757000D03*
X66715000Y-58757000D03*
D13*
X66040000Y-57957000D03*
X66040000Y-60457000D03*
D14*
X67815000Y-59182000D03*
X64265000Y-59182000D03*
D11*
X64008000Y-84328000D03*
X64008000Y-69088000D03*
X64008000Y-53848000D03*
X68072000Y-84328000D03*
X68072000Y-69088000D03*
X68072000Y-53848000D03*
D16*
X102362000Y-110236000D03*
D11*
X78740000Y-38608000D03*
X68072000Y-38608000D03*
X74676000Y-49276000D03*
X64008000Y-49276000D03*
X74676000Y-38608000D03*
X64008000Y-38608000D03*
D12*
X77383000Y-44367000D03*
X76033000Y-44367000D03*
X76033000Y-43517000D03*
X77383000Y-43517000D03*
D13*
X76708000Y-42717000D03*
X76708000Y-45217000D03*
D14*
X78483000Y-43942000D03*
X74933000Y-43942000D03*
D12*
X66715000Y-44367000D03*
X65365000Y-44367000D03*
X65365000Y-43517000D03*
X66715000Y-43517000D03*
D13*
X66040000Y-42717000D03*
X66040000Y-45217000D03*
D14*
X67815000Y-43942000D03*
X64265000Y-43942000D03*
D11*
X78740000Y-49276000D03*
X68072000Y-49276000D03*
D15*
X72898000Y-42942000D03*
X72898000Y-44942000D03*
X62230000Y-42942000D03*
X62230000Y-44942000D03*
D11*
X57404000Y-49276000D03*
D12*
X56047000Y-44367000D03*
X54697000Y-44367000D03*
X54697000Y-43517000D03*
X56047000Y-43517000D03*
D13*
X55372000Y-42717000D03*
X55372000Y-45217000D03*
D14*
X57147000Y-43942000D03*
X53597000Y-43942000D03*
D11*
X53340000Y-38608000D03*
X53340000Y-49276000D03*
D15*
X51562000Y-42942000D03*
X51562000Y-44942000D03*
D11*
X57404000Y-38608000D03*
D16*
X29718000Y-39116000D03*
D17*
X55372000Y-108204000D03*
X66040000Y-108204000D03*
X62230000Y-108204000D03*
X51562000Y-108204000D03*
X72898000Y-108204000D03*
X76708000Y-108204000D03*
X76708000Y-92964000D03*
X76708000Y-77724000D03*
X76708000Y-62484000D03*
X51562000Y-92964000D03*
X51562000Y-77724000D03*
X51562000Y-62484000D03*
X55372000Y-92964000D03*
X55372000Y-77724000D03*
X55372000Y-62484000D03*
X72898000Y-92964000D03*
X72898000Y-77724000D03*
X72898000Y-62484000D03*
X66040000Y-92964000D03*
X66040000Y-77724000D03*
X66040000Y-62484000D03*
X62230000Y-92964000D03*
X62230000Y-77724000D03*
X62230000Y-62484000D03*
X76708000Y-47244000D03*
X66040000Y-47244000D03*
X72898000Y-47244000D03*
X62230000Y-47244000D03*
X51562000Y-47244000D03*
X55372000Y-47244000D03*
D18*
X54697000Y-104477000D02*
X56047000Y-104477000D01*
D19*
X53340000Y-99568000D02*
X53340000Y-99806000D01*
X51562000Y-101584000D02*
X51562000Y-103902000D01*
X53340000Y-99806000D02*
X51562000Y-101584000D01*
D18*
X52925000Y-103902000D02*
X51562000Y-103902000D01*
X53195000Y-103632000D02*
X52925000Y-103902000D01*
D20*
X53602000Y-103632000D02*
X54229000Y-104259000D01*
D18*
X54697000Y-104477000D02*
X54447000Y-104477000D01*
D20*
X53594000Y-103632000D02*
X53602000Y-103632000D01*
D18*
X54447000Y-104477000D02*
X54229000Y-104259000D01*
X53594000Y-103632000D02*
X53195000Y-103632000D01*
X76033000Y-104477000D02*
X75783000Y-104477000D01*
D19*
X72898000Y-101584000D02*
X72898000Y-103902000D01*
D20*
X74938000Y-103632000D02*
X75565000Y-104259000D01*
D18*
X75783000Y-104477000D02*
X75565000Y-104259000D01*
X74930000Y-103632000D02*
X74531000Y-103632000D01*
D20*
X74930000Y-103632000D02*
X74938000Y-103632000D01*
D18*
X74531000Y-103632000D02*
X74261000Y-103902000D01*
X74261000Y-103902000D02*
X72898000Y-103902000D01*
D19*
X74676000Y-99806000D02*
X72898000Y-101584000D01*
X74676000Y-99568000D02*
X74676000Y-99806000D01*
D18*
X76033000Y-104477000D02*
X77383000Y-104477000D01*
D19*
X64008000Y-99806000D02*
X62230000Y-101584000D01*
X64008000Y-99568000D02*
X64008000Y-99806000D01*
D18*
X64262000Y-103632000D02*
X63863000Y-103632000D01*
D20*
X64262000Y-103632000D02*
X64270000Y-103632000D01*
X64270000Y-103632000D02*
X64897000Y-104259000D01*
D18*
X63863000Y-103632000D02*
X63593000Y-103902000D01*
X63593000Y-103902000D02*
X62230000Y-103902000D01*
D19*
X62230000Y-101584000D02*
X62230000Y-103902000D01*
D18*
X65365000Y-104477000D02*
X66715000Y-104477000D01*
X65365000Y-104477000D02*
X65115000Y-104477000D01*
X65115000Y-104477000D02*
X64897000Y-104259000D01*
X65365000Y-89237000D02*
X66715000Y-89237000D01*
X65365000Y-73997000D02*
X66715000Y-73997000D01*
X65365000Y-58757000D02*
X66715000Y-58757000D01*
X65115000Y-89237000D02*
X64897000Y-89019000D01*
X65115000Y-73997000D02*
X64897000Y-73779000D01*
X65115000Y-58757000D02*
X64897000Y-58539000D01*
D20*
X64270000Y-88392000D02*
X64897000Y-89019000D01*
X64270000Y-73152000D02*
X64897000Y-73779000D01*
X64270000Y-57912000D02*
X64897000Y-58539000D01*
D18*
X65365000Y-89237000D02*
X65115000Y-89237000D01*
X65365000Y-73997000D02*
X65115000Y-73997000D01*
X65365000Y-58757000D02*
X65115000Y-58757000D01*
X63863000Y-88392000D02*
X63593000Y-88662000D01*
X63863000Y-73152000D02*
X63593000Y-73422000D01*
X63863000Y-57912000D02*
X63593000Y-58182000D01*
X63593000Y-88662000D02*
X62230000Y-88662000D01*
X63593000Y-73422000D02*
X62230000Y-73422000D01*
X63593000Y-58182000D02*
X62230000Y-58182000D01*
D19*
X64008000Y-84566000D02*
X62230000Y-86344000D01*
X64008000Y-69326000D02*
X62230000Y-71104000D01*
X64008000Y-54086000D02*
X62230000Y-55864000D01*
X64008000Y-84328000D02*
X64008000Y-84566000D01*
X64008000Y-69088000D02*
X64008000Y-69326000D01*
X64008000Y-53848000D02*
X64008000Y-54086000D01*
X62230000Y-86344000D02*
X62230000Y-88662000D01*
X62230000Y-71104000D02*
X62230000Y-73422000D01*
X62230000Y-55864000D02*
X62230000Y-58182000D01*
D20*
X64262000Y-88392000D02*
X64270000Y-88392000D01*
X64262000Y-73152000D02*
X64270000Y-73152000D01*
X64262000Y-57912000D02*
X64270000Y-57912000D01*
D18*
X64262000Y-88392000D02*
X63863000Y-88392000D01*
X64262000Y-73152000D02*
X63863000Y-73152000D01*
X64262000Y-57912000D02*
X63863000Y-57912000D01*
D20*
X53594000Y-88392000D02*
X53602000Y-88392000D01*
X53594000Y-73152000D02*
X53602000Y-73152000D01*
X53594000Y-57912000D02*
X53602000Y-57912000D01*
D19*
X53340000Y-84328000D02*
X53340000Y-84566000D01*
X53340000Y-69088000D02*
X53340000Y-69326000D01*
X53340000Y-53848000D02*
X53340000Y-54086000D01*
D18*
X52925000Y-88662000D02*
X51562000Y-88662000D01*
X52925000Y-73422000D02*
X51562000Y-73422000D01*
X52925000Y-58182000D02*
X51562000Y-58182000D01*
X53195000Y-88392000D02*
X52925000Y-88662000D01*
X53195000Y-73152000D02*
X52925000Y-73422000D01*
X53195000Y-57912000D02*
X52925000Y-58182000D01*
X53594000Y-88392000D02*
X53195000Y-88392000D01*
X53594000Y-73152000D02*
X53195000Y-73152000D01*
X53594000Y-57912000D02*
X53195000Y-57912000D01*
D19*
X53340000Y-84566000D02*
X51562000Y-86344000D01*
X53340000Y-69326000D02*
X51562000Y-71104000D01*
X53340000Y-54086000D02*
X51562000Y-55864000D01*
X51562000Y-86344000D02*
X51562000Y-88662000D01*
X51562000Y-71104000D02*
X51562000Y-73422000D01*
X51562000Y-55864000D02*
X51562000Y-58182000D01*
D20*
X53602000Y-88392000D02*
X54229000Y-89019000D01*
X53602000Y-73152000D02*
X54229000Y-73779000D01*
X53602000Y-57912000D02*
X54229000Y-58539000D01*
D18*
X54697000Y-89237000D02*
X54447000Y-89237000D01*
X54697000Y-73997000D02*
X54447000Y-73997000D01*
X54697000Y-58757000D02*
X54447000Y-58757000D01*
X54697000Y-89237000D02*
X56047000Y-89237000D01*
X54697000Y-73997000D02*
X56047000Y-73997000D01*
X54697000Y-58757000D02*
X56047000Y-58757000D01*
X54447000Y-89237000D02*
X54229000Y-89019000D01*
X54447000Y-73997000D02*
X54229000Y-73779000D01*
X54447000Y-58757000D02*
X54229000Y-58539000D01*
X75783000Y-89237000D02*
X75565000Y-89019000D01*
X75783000Y-73997000D02*
X75565000Y-73779000D01*
X75783000Y-58757000D02*
X75565000Y-58539000D01*
D20*
X74930000Y-88392000D02*
X74938000Y-88392000D01*
X74930000Y-73152000D02*
X74938000Y-73152000D01*
X74930000Y-57912000D02*
X74938000Y-57912000D01*
D18*
X74930000Y-88392000D02*
X74531000Y-88392000D01*
X74930000Y-73152000D02*
X74531000Y-73152000D01*
X74930000Y-57912000D02*
X74531000Y-57912000D01*
D20*
X74938000Y-88392000D02*
X75565000Y-89019000D01*
X74938000Y-73152000D02*
X75565000Y-73779000D01*
X74938000Y-57912000D02*
X75565000Y-58539000D01*
D18*
X76033000Y-89237000D02*
X75783000Y-89237000D01*
X76033000Y-73997000D02*
X75783000Y-73997000D01*
X76033000Y-58757000D02*
X75783000Y-58757000D01*
X76033000Y-89237000D02*
X77383000Y-89237000D01*
X76033000Y-73997000D02*
X77383000Y-73997000D01*
X76033000Y-58757000D02*
X77383000Y-58757000D01*
D19*
X74676000Y-84566000D02*
X72898000Y-86344000D01*
X74676000Y-69326000D02*
X72898000Y-71104000D01*
X74676000Y-54086000D02*
X72898000Y-55864000D01*
D18*
X74261000Y-88662000D02*
X72898000Y-88662000D01*
X74261000Y-73422000D02*
X72898000Y-73422000D01*
X74261000Y-58182000D02*
X72898000Y-58182000D01*
X74531000Y-88392000D02*
X74261000Y-88662000D01*
X74531000Y-73152000D02*
X74261000Y-73422000D01*
X74531000Y-57912000D02*
X74261000Y-58182000D01*
D19*
X74676000Y-84328000D02*
X74676000Y-84566000D01*
X74676000Y-69088000D02*
X74676000Y-69326000D01*
X74676000Y-53848000D02*
X74676000Y-54086000D01*
X72898000Y-86344000D02*
X72898000Y-88662000D01*
X72898000Y-71104000D02*
X72898000Y-73422000D01*
X72898000Y-55864000D02*
X72898000Y-58182000D01*
D18*
X76033000Y-43517000D02*
X77383000Y-43517000D01*
X65365000Y-43517000D02*
X66715000Y-43517000D01*
X76033000Y-43517000D02*
X75783000Y-43517000D01*
X65365000Y-43517000D02*
X65115000Y-43517000D01*
X74930000Y-42672000D02*
X74531000Y-42672000D01*
X64262000Y-42672000D02*
X63863000Y-42672000D01*
X75783000Y-43517000D02*
X75565000Y-43299000D01*
X65115000Y-43517000D02*
X64897000Y-43299000D01*
D20*
X74938000Y-42672000D02*
X75565000Y-43299000D01*
X64270000Y-42672000D02*
X64897000Y-43299000D01*
D18*
X74531000Y-42672000D02*
X74261000Y-42942000D01*
X63863000Y-42672000D02*
X63593000Y-42942000D01*
D20*
X74930000Y-42672000D02*
X74938000Y-42672000D01*
X64262000Y-42672000D02*
X64270000Y-42672000D01*
D18*
X74261000Y-42942000D02*
X72898000Y-42942000D01*
X63593000Y-42942000D02*
X62230000Y-42942000D01*
D19*
X74676000Y-38846000D02*
X72898000Y-40624000D01*
X64008000Y-38846000D02*
X62230000Y-40624000D01*
X74676000Y-38608000D02*
X74676000Y-38846000D01*
X64008000Y-38608000D02*
X64008000Y-38846000D01*
X72898000Y-40624000D02*
X72898000Y-42942000D01*
X62230000Y-40624000D02*
X62230000Y-42942000D01*
X51562000Y-40624000D02*
X51562000Y-42942000D01*
X53340000Y-38608000D02*
X53340000Y-38846000D01*
X53340000Y-38846000D02*
X51562000Y-40624000D01*
D18*
X53594000Y-42672000D02*
X53195000Y-42672000D01*
X53195000Y-42672000D02*
X52925000Y-42942000D01*
X52925000Y-42942000D02*
X51562000Y-42942000D01*
D20*
X53594000Y-42672000D02*
X53602000Y-42672000D01*
D18*
X54447000Y-43517000D02*
X54229000Y-43299000D01*
D20*
X53602000Y-42672000D02*
X54229000Y-43299000D01*
D18*
X54697000Y-43517000D02*
X56047000Y-43517000D01*
X54697000Y-43517000D02*
X54447000Y-43517000D01*
X57404000Y-99568000D02*
X57404000Y-102570000D01*
X51562000Y-108204000D02*
X51562000Y-105902000D01*
X56297000Y-103677000D02*
X55372000Y-103677000D01*
X57404000Y-102570000D02*
X56297000Y-103677000D01*
X55372000Y-108204000D02*
X55372000Y-106177000D01*
X53597000Y-105327000D02*
X53597000Y-104902000D01*
X74933000Y-105327000D02*
X74933000Y-104902000D01*
X77633000Y-103677000D02*
X76708000Y-103677000D01*
X78740000Y-99568000D02*
X78740000Y-102570000D01*
X78740000Y-102570000D02*
X77633000Y-103677000D01*
X76708000Y-108204000D02*
X76708000Y-106177000D01*
X72898000Y-108204000D02*
X72898000Y-105902000D01*
X62230000Y-108204000D02*
X62230000Y-105902000D01*
X64265000Y-105327000D02*
X64265000Y-104902000D01*
X66965000Y-103677000D02*
X66040000Y-103677000D01*
X68072000Y-99568000D02*
X68072000Y-102570000D01*
X68072000Y-102570000D02*
X66965000Y-103677000D01*
X66040000Y-108204000D02*
X66040000Y-106177000D01*
X68072000Y-87330000D02*
X66965000Y-88437000D01*
X68072000Y-72090000D02*
X66965000Y-73197000D01*
X68072000Y-56850000D02*
X66965000Y-57957000D01*
X68072000Y-84328000D02*
X68072000Y-87330000D01*
X68072000Y-69088000D02*
X68072000Y-72090000D01*
X68072000Y-53848000D02*
X68072000Y-56850000D01*
X66965000Y-88437000D02*
X66040000Y-88437000D01*
X66965000Y-73197000D02*
X66040000Y-73197000D01*
X66965000Y-57957000D02*
X66040000Y-57957000D01*
X64265000Y-90087000D02*
X64265000Y-89662000D01*
X64265000Y-74847000D02*
X64265000Y-74422000D01*
X64265000Y-59607000D02*
X64265000Y-59182000D01*
X62230000Y-92964000D02*
X62230000Y-90662000D01*
X62230000Y-77724000D02*
X62230000Y-75422000D01*
X62230000Y-62484000D02*
X62230000Y-60182000D01*
X66040000Y-92964000D02*
X66040000Y-90937000D01*
X66040000Y-77724000D02*
X66040000Y-75697000D01*
X66040000Y-62484000D02*
X66040000Y-60457000D01*
X57404000Y-84328000D02*
X57404000Y-87330000D01*
X57404000Y-69088000D02*
X57404000Y-72090000D01*
X57404000Y-53848000D02*
X57404000Y-56850000D01*
X55372000Y-92964000D02*
X55372000Y-90937000D01*
X55372000Y-77724000D02*
X55372000Y-75697000D01*
X55372000Y-62484000D02*
X55372000Y-60457000D01*
X56297000Y-88437000D02*
X55372000Y-88437000D01*
X56297000Y-73197000D02*
X55372000Y-73197000D01*
X56297000Y-57957000D02*
X55372000Y-57957000D01*
X57404000Y-87330000D02*
X56297000Y-88437000D01*
X57404000Y-72090000D02*
X56297000Y-73197000D01*
X57404000Y-56850000D02*
X56297000Y-57957000D01*
X51562000Y-92964000D02*
X51562000Y-90662000D01*
X51562000Y-77724000D02*
X51562000Y-75422000D01*
X51562000Y-62484000D02*
X51562000Y-60182000D01*
X53597000Y-90087000D02*
X53597000Y-89662000D01*
X53597000Y-74847000D02*
X53597000Y-74422000D01*
X53597000Y-59607000D02*
X53597000Y-59182000D01*
X77633000Y-88437000D02*
X76708000Y-88437000D01*
X77633000Y-73197000D02*
X76708000Y-73197000D01*
X77633000Y-57957000D02*
X76708000Y-57957000D01*
X78740000Y-87330000D02*
X77633000Y-88437000D01*
X78740000Y-72090000D02*
X77633000Y-73197000D01*
X78740000Y-56850000D02*
X77633000Y-57957000D01*
X78740000Y-84328000D02*
X78740000Y-87330000D01*
X78740000Y-69088000D02*
X78740000Y-72090000D01*
X78740000Y-53848000D02*
X78740000Y-56850000D01*
X72898000Y-92964000D02*
X72898000Y-90662000D01*
X72898000Y-77724000D02*
X72898000Y-75422000D01*
X72898000Y-62484000D02*
X72898000Y-60182000D01*
X74933000Y-90087000D02*
X74933000Y-89662000D01*
X74933000Y-74847000D02*
X74933000Y-74422000D01*
X74933000Y-59607000D02*
X74933000Y-59182000D01*
X76708000Y-92964000D02*
X76708000Y-90937000D01*
X76708000Y-77724000D02*
X76708000Y-75697000D01*
X76708000Y-62484000D02*
X76708000Y-60457000D01*
X77633000Y-42717000D02*
X76708000Y-42717000D01*
X66965000Y-42717000D02*
X66040000Y-42717000D01*
X78740000Y-41610000D02*
X77633000Y-42717000D01*
X68072000Y-41610000D02*
X66965000Y-42717000D01*
X78740000Y-38608000D02*
X78740000Y-41610000D01*
X68072000Y-38608000D02*
X68072000Y-41610000D01*
X74933000Y-44367000D02*
X74933000Y-43942000D01*
X64265000Y-44367000D02*
X64265000Y-43942000D01*
X76708000Y-47244000D02*
X76708000Y-45217000D01*
X66040000Y-47244000D02*
X66040000Y-45217000D01*
X72898000Y-47244000D02*
X72898000Y-44942000D01*
X62230000Y-47244000D02*
X62230000Y-44942000D01*
X51562000Y-47244000D02*
X51562000Y-44942000D01*
X55372000Y-47244000D02*
X55372000Y-45217000D01*
X57404000Y-38608000D02*
X57404000Y-41610000D01*
X57404000Y-41610000D02*
X56297000Y-42717000D01*
X56297000Y-42717000D02*
X55372000Y-42717000D01*
X53597000Y-44367000D02*
X53597000Y-43942000D01*
X56297000Y-105327000D02*
X56634000Y-105664000D01*
X56047000Y-105327000D02*
X56297000Y-105327000D01*
D20*
X57142000Y-106172000D02*
X56634000Y-105664000D01*
D18*
X57150000Y-106172000D02*
X57404000Y-106426000D01*
X57404000Y-106426000D02*
X57404000Y-110236000D01*
D20*
X57150000Y-106172000D02*
X57142000Y-106172000D01*
D18*
X77383000Y-105327000D02*
X77633000Y-105327000D01*
X77633000Y-105327000D02*
X77970000Y-105664000D01*
D20*
X78478000Y-106172000D02*
X77970000Y-105664000D01*
X78486000Y-106172000D02*
X78478000Y-106172000D01*
D18*
X78486000Y-106172000D02*
X78740000Y-106426000D01*
X78740000Y-106426000D02*
X78740000Y-110236000D01*
D20*
X67818000Y-106172000D02*
X67810000Y-106172000D01*
D18*
X67818000Y-106172000D02*
X68072000Y-106426000D01*
X68072000Y-106426000D02*
X68072000Y-110236000D01*
X66715000Y-105327000D02*
X66965000Y-105327000D01*
D20*
X67810000Y-106172000D02*
X67302000Y-105664000D01*
D18*
X66965000Y-105327000D02*
X67302000Y-105664000D01*
X68072000Y-91186000D02*
X68072000Y-94996000D01*
X68072000Y-75946000D02*
X68072000Y-79756000D01*
X68072000Y-60706000D02*
X68072000Y-64516000D01*
D20*
X67818000Y-90932000D02*
X67810000Y-90932000D01*
X67818000Y-75692000D02*
X67810000Y-75692000D01*
X67818000Y-60452000D02*
X67810000Y-60452000D01*
D18*
X67818000Y-90932000D02*
X68072000Y-91186000D01*
X67818000Y-75692000D02*
X68072000Y-75946000D01*
X67818000Y-60452000D02*
X68072000Y-60706000D01*
D20*
X67810000Y-90932000D02*
X67302000Y-90424000D01*
X67810000Y-75692000D02*
X67302000Y-75184000D01*
X67810000Y-60452000D02*
X67302000Y-59944000D01*
D18*
X66965000Y-90087000D02*
X67302000Y-90424000D01*
X66965000Y-74847000D02*
X67302000Y-75184000D01*
X66965000Y-59607000D02*
X67302000Y-59944000D01*
X66715000Y-90087000D02*
X66965000Y-90087000D01*
X66715000Y-74847000D02*
X66965000Y-74847000D01*
X66715000Y-59607000D02*
X66965000Y-59607000D01*
X57150000Y-90932000D02*
X57404000Y-91186000D01*
X57150000Y-75692000D02*
X57404000Y-75946000D01*
X57150000Y-60452000D02*
X57404000Y-60706000D01*
D20*
X57142000Y-90932000D02*
X56634000Y-90424000D01*
X57142000Y-75692000D02*
X56634000Y-75184000D01*
X57142000Y-60452000D02*
X56634000Y-59944000D01*
X57150000Y-90932000D02*
X57142000Y-90932000D01*
X57150000Y-75692000D02*
X57142000Y-75692000D01*
X57150000Y-60452000D02*
X57142000Y-60452000D01*
D18*
X57404000Y-91186000D02*
X57404000Y-94996000D01*
X57404000Y-75946000D02*
X57404000Y-79756000D01*
X57404000Y-60706000D02*
X57404000Y-64516000D01*
X56047000Y-90087000D02*
X56297000Y-90087000D01*
X56047000Y-74847000D02*
X56297000Y-74847000D01*
X56047000Y-59607000D02*
X56297000Y-59607000D01*
X56297000Y-90087000D02*
X56634000Y-90424000D01*
X56297000Y-74847000D02*
X56634000Y-75184000D01*
X56297000Y-59607000D02*
X56634000Y-59944000D01*
D20*
X78478000Y-90932000D02*
X77970000Y-90424000D01*
X78478000Y-75692000D02*
X77970000Y-75184000D01*
X78478000Y-60452000D02*
X77970000Y-59944000D01*
D18*
X77633000Y-90087000D02*
X77970000Y-90424000D01*
X77633000Y-74847000D02*
X77970000Y-75184000D01*
X77633000Y-59607000D02*
X77970000Y-59944000D01*
D20*
X78486000Y-90932000D02*
X78478000Y-90932000D01*
X78486000Y-75692000D02*
X78478000Y-75692000D01*
X78486000Y-60452000D02*
X78478000Y-60452000D01*
D18*
X77383000Y-90087000D02*
X77633000Y-90087000D01*
X77383000Y-74847000D02*
X77633000Y-74847000D01*
X77383000Y-59607000D02*
X77633000Y-59607000D01*
X78740000Y-91186000D02*
X78740000Y-94996000D01*
X78740000Y-75946000D02*
X78740000Y-79756000D01*
X78740000Y-60706000D02*
X78740000Y-64516000D01*
X78486000Y-90932000D02*
X78740000Y-91186000D01*
X78486000Y-75692000D02*
X78740000Y-75946000D01*
X78486000Y-60452000D02*
X78740000Y-60706000D01*
X77383000Y-44367000D02*
X77633000Y-44367000D01*
X66715000Y-44367000D02*
X66965000Y-44367000D01*
D20*
X78478000Y-45212000D02*
X77970000Y-44704000D01*
X67810000Y-45212000D02*
X67302000Y-44704000D01*
X78486000Y-45212000D02*
X78478000Y-45212000D01*
X67818000Y-45212000D02*
X67810000Y-45212000D01*
D18*
X77633000Y-44367000D02*
X77970000Y-44704000D01*
X66965000Y-44367000D02*
X67302000Y-44704000D01*
X78486000Y-45212000D02*
X78740000Y-45466000D01*
X67818000Y-45212000D02*
X68072000Y-45466000D01*
X78740000Y-45466000D02*
X78740000Y-49276000D01*
X68072000Y-45466000D02*
X68072000Y-49276000D01*
X57150000Y-45212000D02*
X57404000Y-45466000D01*
X57404000Y-45466000D02*
X57404000Y-49276000D01*
X56047000Y-44367000D02*
X56297000Y-44367000D01*
D20*
X57150000Y-45212000D02*
X57142000Y-45212000D01*
X57142000Y-45212000D02*
X56634000Y-44704000D01*
D18*
X56297000Y-44367000D02*
X56634000Y-44704000D01*
X54447000Y-105327000D02*
X54102000Y-105672000D01*
X53721000Y-106045000D02*
X53340000Y-106426000D01*
D20*
X53721000Y-106053000D02*
X54102000Y-105672000D01*
X53721000Y-106045000D02*
X53721000Y-106053000D01*
D18*
X53340000Y-106426000D02*
X53340000Y-110236000D01*
X54697000Y-105327000D02*
X54447000Y-105327000D01*
X75057000Y-106045000D02*
X74676000Y-106426000D01*
X76033000Y-105327000D02*
X75783000Y-105327000D01*
X75783000Y-105327000D02*
X75438000Y-105672000D01*
D20*
X75057000Y-106045000D02*
X75057000Y-106053000D01*
X75057000Y-106053000D02*
X75438000Y-105672000D01*
D18*
X74676000Y-106426000D02*
X74676000Y-110236000D01*
X65115000Y-105327000D02*
X64770000Y-105672000D01*
D20*
X64389000Y-106045000D02*
X64389000Y-106053000D01*
D18*
X64389000Y-106045000D02*
X64008000Y-106426000D01*
D20*
X64389000Y-106053000D02*
X64770000Y-105672000D01*
D18*
X64008000Y-106426000D02*
X64008000Y-110236000D01*
X65365000Y-105327000D02*
X65115000Y-105327000D01*
X65115000Y-90087000D02*
X64770000Y-90432000D01*
X65115000Y-74847000D02*
X64770000Y-75192000D01*
X65115000Y-59607000D02*
X64770000Y-59952000D01*
D20*
X64389000Y-90813000D02*
X64770000Y-90432000D01*
X64389000Y-75573000D02*
X64770000Y-75192000D01*
X64389000Y-60333000D02*
X64770000Y-59952000D01*
X64389000Y-90805000D02*
X64389000Y-90813000D01*
X64389000Y-75565000D02*
X64389000Y-75573000D01*
X64389000Y-60325000D02*
X64389000Y-60333000D01*
D18*
X64389000Y-90805000D02*
X64008000Y-91186000D01*
X64389000Y-75565000D02*
X64008000Y-75946000D01*
X64389000Y-60325000D02*
X64008000Y-60706000D01*
X64008000Y-91186000D02*
X64008000Y-94996000D01*
X64008000Y-75946000D02*
X64008000Y-79756000D01*
X64008000Y-60706000D02*
X64008000Y-64516000D01*
X65365000Y-90087000D02*
X65115000Y-90087000D01*
X65365000Y-74847000D02*
X65115000Y-74847000D01*
X65365000Y-59607000D02*
X65115000Y-59607000D01*
X53340000Y-91186000D02*
X53340000Y-94996000D01*
X53340000Y-75946000D02*
X53340000Y-79756000D01*
X53340000Y-60706000D02*
X53340000Y-64516000D01*
X53721000Y-90805000D02*
X53340000Y-91186000D01*
X53721000Y-75565000D02*
X53340000Y-75946000D01*
X53721000Y-60325000D02*
X53340000Y-60706000D01*
X54697000Y-90087000D02*
X54447000Y-90087000D01*
X54697000Y-74847000D02*
X54447000Y-74847000D01*
X54697000Y-59607000D02*
X54447000Y-59607000D01*
X54447000Y-90087000D02*
X54102000Y-90432000D01*
X54447000Y-74847000D02*
X54102000Y-75192000D01*
X54447000Y-59607000D02*
X54102000Y-59952000D01*
D20*
X53721000Y-90813000D02*
X54102000Y-90432000D01*
X53721000Y-75573000D02*
X54102000Y-75192000D01*
X53721000Y-60333000D02*
X54102000Y-59952000D01*
X53721000Y-90805000D02*
X53721000Y-90813000D01*
X53721000Y-75565000D02*
X53721000Y-75573000D01*
X53721000Y-60325000D02*
X53721000Y-60333000D01*
D18*
X75057000Y-90805000D02*
X74676000Y-91186000D01*
X75057000Y-75565000D02*
X74676000Y-75946000D01*
X75057000Y-60325000D02*
X74676000Y-60706000D01*
D20*
X75057000Y-90805000D02*
X75057000Y-90813000D01*
X75057000Y-75565000D02*
X75057000Y-75573000D01*
X75057000Y-60325000D02*
X75057000Y-60333000D01*
D18*
X76033000Y-90087000D02*
X75783000Y-90087000D01*
X76033000Y-74847000D02*
X75783000Y-74847000D01*
X76033000Y-59607000D02*
X75783000Y-59607000D01*
X75783000Y-90087000D02*
X75438000Y-90432000D01*
X75783000Y-74847000D02*
X75438000Y-75192000D01*
X75783000Y-59607000D02*
X75438000Y-59952000D01*
D20*
X75057000Y-90813000D02*
X75438000Y-90432000D01*
X75057000Y-75573000D02*
X75438000Y-75192000D01*
X75057000Y-60333000D02*
X75438000Y-59952000D01*
D18*
X74676000Y-91186000D02*
X74676000Y-94996000D01*
X74676000Y-75946000D02*
X74676000Y-79756000D01*
X74676000Y-60706000D02*
X74676000Y-64516000D01*
X76033000Y-44367000D02*
X75783000Y-44367000D01*
X65365000Y-44367000D02*
X65115000Y-44367000D01*
X75783000Y-44367000D02*
X75438000Y-44712000D01*
X65115000Y-44367000D02*
X64770000Y-44712000D01*
D20*
X75057000Y-45085000D02*
X75057000Y-45093000D01*
X64389000Y-45085000D02*
X64389000Y-45093000D01*
X75057000Y-45093000D02*
X75438000Y-44712000D01*
X64389000Y-45093000D02*
X64770000Y-44712000D01*
D18*
X75057000Y-45085000D02*
X74676000Y-45466000D01*
X64389000Y-45085000D02*
X64008000Y-45466000D01*
X74676000Y-45466000D02*
X74676000Y-49276000D01*
X64008000Y-45466000D02*
X64008000Y-49276000D01*
X53721000Y-45085000D02*
X53340000Y-45466000D01*
X53340000Y-45466000D02*
X53340000Y-49276000D01*
X54697000Y-44367000D02*
X54447000Y-44367000D01*
D20*
X53721000Y-45085000D02*
X53721000Y-45093000D01*
X53721000Y-45093000D02*
X54102000Y-44712000D01*
D18*
X54447000Y-44367000D02*
X54102000Y-44712000D01*
D20*
G36*
X56057800Y-39724204D02*
X56146739Y-39938922D01*
X56311077Y-40103261D01*
X56525795Y-40192200D01*
X57080150Y-40192200D01*
X57226200Y-40046150D01*
X57226200Y-39013200D01*
X57581800Y-39013200D01*
X57581800Y-40046150D01*
X57727850Y-40192200D01*
X58282205Y-40192200D01*
X58496923Y-40103261D01*
X58661261Y-39938922D01*
X58750200Y-39724204D01*
X58750200Y-39013200D01*
X60300800Y-39013200D01*
X60300800Y-48870800D01*
X58502669Y-48870800D01*
X58502669Y-48276000D01*
X58479644Y-48153635D01*
X58407327Y-48041251D01*
X58296983Y-47965856D01*
X58166000Y-47939331D01*
X57861200Y-47939331D01*
X57861200Y-45466000D01*
X57826398Y-45291037D01*
X57727289Y-45142711D01*
X57680943Y-45096365D01*
X57702922Y-45087261D01*
X57867261Y-44922923D01*
X57956200Y-44708205D01*
X57956200Y-44265850D01*
X57810150Y-44119800D01*
X57259500Y-44119800D01*
X57259500Y-44139800D01*
X57034500Y-44139800D01*
X57034500Y-44119800D01*
X56949200Y-44119800D01*
X56949200Y-43764200D01*
X57034500Y-43764200D01*
X57034500Y-43231304D01*
X57106200Y-43058205D01*
X57106200Y-42975550D01*
X57034500Y-42903850D01*
X57034500Y-42853850D01*
X57259500Y-42853850D01*
X57259500Y-43764200D01*
X57810150Y-43764200D01*
X57956200Y-43618150D01*
X57956200Y-43175795D01*
X57867261Y-42961077D01*
X57702922Y-42796739D01*
X57488204Y-42707800D01*
X57405550Y-42707800D01*
X57259500Y-42853850D01*
X57034500Y-42853850D01*
X56888450Y-42707800D01*
X56805796Y-42707800D01*
X56591078Y-42796739D01*
X56558317Y-42829500D01*
X55549800Y-42829500D01*
X55549800Y-42914800D01*
X55194200Y-42914800D01*
X55194200Y-42829500D01*
X55174200Y-42829500D01*
X55174200Y-42604500D01*
X55194200Y-42604500D01*
X55194200Y-42053850D01*
X55549800Y-42053850D01*
X55549800Y-42604500D01*
X56960150Y-42604500D01*
X57106200Y-42458450D01*
X57106200Y-42375795D01*
X57017261Y-42161077D01*
X56852922Y-41996739D01*
X56638204Y-41907800D01*
X55695850Y-41907800D01*
X55549800Y-42053850D01*
X55194200Y-42053850D01*
X55048150Y-41907800D01*
X54105796Y-41907800D01*
X53891078Y-41996739D01*
X53726739Y-42161077D01*
X53696076Y-42235104D01*
X53594000Y-42214800D01*
X53195000Y-42214800D01*
X53020037Y-42249602D01*
X52871711Y-42348711D01*
X52735622Y-42484800D01*
X52523669Y-42484800D01*
X52523669Y-42442000D01*
X52500644Y-42319635D01*
X52428327Y-42207251D01*
X52317983Y-42131856D01*
X52187000Y-42105331D01*
X52146200Y-42105331D01*
X52146200Y-40865984D01*
X53067515Y-39944669D01*
X54102000Y-39944669D01*
X54224365Y-39921644D01*
X54336749Y-39849327D01*
X54412144Y-39738983D01*
X54438669Y-39608000D01*
X54438669Y-39013200D01*
X56057800Y-39013200D01*
X56057800Y-39724204D01*
X56057800Y-39724204D01*
G37*
X56057800Y-39724204D02*
X56146739Y-39938922D01*
X56311077Y-40103261D01*
X56525795Y-40192200D01*
X57080150Y-40192200D01*
X57226200Y-40046150D01*
X57226200Y-39013200D01*
X57581800Y-39013200D01*
X57581800Y-40046150D01*
X57727850Y-40192200D01*
X58282205Y-40192200D01*
X58496923Y-40103261D01*
X58661261Y-39938922D01*
X58750200Y-39724204D01*
X58750200Y-39013200D01*
X60300800Y-39013200D01*
X60300800Y-48870800D01*
X58502669Y-48870800D01*
X58502669Y-48276000D01*
X58479644Y-48153635D01*
X58407327Y-48041251D01*
X58296983Y-47965856D01*
X58166000Y-47939331D01*
X57861200Y-47939331D01*
X57861200Y-45466000D01*
X57826398Y-45291037D01*
X57727289Y-45142711D01*
X57680943Y-45096365D01*
X57702922Y-45087261D01*
X57867261Y-44922923D01*
X57956200Y-44708205D01*
X57956200Y-44265850D01*
X57810150Y-44119800D01*
X57259500Y-44119800D01*
X57259500Y-44139800D01*
X57034500Y-44139800D01*
X57034500Y-44119800D01*
X56949200Y-44119800D01*
X56949200Y-43764200D01*
X57034500Y-43764200D01*
X57034500Y-43231304D01*
X57106200Y-43058205D01*
X57106200Y-42975550D01*
X57034500Y-42903850D01*
X57034500Y-42853850D01*
X57259500Y-42853850D01*
X57259500Y-43764200D01*
X57810150Y-43764200D01*
X57956200Y-43618150D01*
X57956200Y-43175795D01*
X57867261Y-42961077D01*
X57702922Y-42796739D01*
X57488204Y-42707800D01*
X57405550Y-42707800D01*
X57259500Y-42853850D01*
X57034500Y-42853850D01*
X56888450Y-42707800D01*
X56805796Y-42707800D01*
X56591078Y-42796739D01*
X56558317Y-42829500D01*
X55549800Y-42829500D01*
X55549800Y-42914800D01*
X55194200Y-42914800D01*
X55194200Y-42829500D01*
X55174200Y-42829500D01*
X55174200Y-42604500D01*
X55194200Y-42604500D01*
X55194200Y-42053850D01*
X55549800Y-42053850D01*
X55549800Y-42604500D01*
X56960150Y-42604500D01*
X57106200Y-42458450D01*
X57106200Y-42375795D01*
X57017261Y-42161077D01*
X56852922Y-41996739D01*
X56638204Y-41907800D01*
X55695850Y-41907800D01*
X55549800Y-42053850D01*
X55194200Y-42053850D01*
X55048150Y-41907800D01*
X54105796Y-41907800D01*
X53891078Y-41996739D01*
X53726739Y-42161077D01*
X53696076Y-42235104D01*
X53594000Y-42214800D01*
X53195000Y-42214800D01*
X53020037Y-42249602D01*
X52871711Y-42348711D01*
X52735622Y-42484800D01*
X52523669Y-42484800D01*
X52523669Y-42442000D01*
X52500644Y-42319635D01*
X52428327Y-42207251D01*
X52317983Y-42131856D01*
X52187000Y-42105331D01*
X52146200Y-42105331D01*
X52146200Y-40865984D01*
X53067515Y-39944669D01*
X54102000Y-39944669D01*
X54224365Y-39921644D01*
X54336749Y-39849327D01*
X54412144Y-39738983D01*
X54438669Y-39608000D01*
X54438669Y-39013200D01*
X56057800Y-39013200D01*
X56057800Y-39724204D01*
G36*
X55549800Y-45104500D02*
X55569800Y-45104500D01*
X55569800Y-45329500D01*
X55549800Y-45329500D01*
X55549800Y-45880150D01*
X55695850Y-46026200D01*
X56638204Y-46026200D01*
X56852922Y-45937261D01*
X56946800Y-45843384D01*
X56946800Y-47939331D01*
X56642000Y-47939331D01*
X56519635Y-47962356D01*
X56407251Y-48034673D01*
X56331856Y-48145017D01*
X56305331Y-48276000D01*
X56305331Y-48870800D01*
X54438669Y-48870800D01*
X54438669Y-48276000D01*
X54415644Y-48153635D01*
X54343327Y-48041251D01*
X54232983Y-47965856D01*
X54102000Y-47939331D01*
X53797200Y-47939331D01*
X53797200Y-45843384D01*
X53891078Y-45937261D01*
X54105796Y-46026200D01*
X55048150Y-46026200D01*
X55194200Y-45880150D01*
X55194200Y-45329500D01*
X55174200Y-45329500D01*
X55174200Y-45104500D01*
X55194200Y-45104500D01*
X55194200Y-45019200D01*
X55549800Y-45019200D01*
X55549800Y-45104500D01*
X55549800Y-45104500D01*
G37*
X55549800Y-45104500D02*
X55569800Y-45104500D01*
X55569800Y-45329500D01*
X55549800Y-45329500D01*
X55549800Y-45880150D01*
X55695850Y-46026200D01*
X56638204Y-46026200D01*
X56852922Y-45937261D01*
X56946800Y-45843384D01*
X56946800Y-47939331D01*
X56642000Y-47939331D01*
X56519635Y-47962356D01*
X56407251Y-48034673D01*
X56331856Y-48145017D01*
X56305331Y-48276000D01*
X56305331Y-48870800D01*
X54438669Y-48870800D01*
X54438669Y-48276000D01*
X54415644Y-48153635D01*
X54343327Y-48041251D01*
X54232983Y-47965856D01*
X54102000Y-47939331D01*
X53797200Y-47939331D01*
X53797200Y-45843384D01*
X53891078Y-45937261D01*
X54105796Y-46026200D01*
X55048150Y-46026200D01*
X55194200Y-45880150D01*
X55194200Y-45329500D01*
X55174200Y-45329500D01*
X55174200Y-45104500D01*
X55194200Y-45104500D01*
X55194200Y-45019200D01*
X55549800Y-45019200D01*
X55549800Y-45104500D01*
G36*
X52241331Y-39118485D02*
X51148908Y-40210908D01*
X51022270Y-40400436D01*
X50977800Y-40624000D01*
X50977800Y-42105331D01*
X50937000Y-42105331D01*
X50814635Y-42128356D01*
X50702251Y-42200673D01*
X50626856Y-42311017D01*
X50600331Y-42442000D01*
X50600331Y-43442000D01*
X50623356Y-43564365D01*
X50695673Y-43676749D01*
X50806017Y-43752144D01*
X50937000Y-43778669D01*
X52187000Y-43778669D01*
X52309365Y-43755644D01*
X52421749Y-43683327D01*
X52497144Y-43572983D01*
X52523669Y-43442000D01*
X52523669Y-43399200D01*
X52787800Y-43399200D01*
X52787800Y-43618150D01*
X52933850Y-43764200D01*
X53484500Y-43764200D01*
X53484500Y-43744200D01*
X53709500Y-43744200D01*
X53709500Y-43764200D01*
X53794800Y-43764200D01*
X53794800Y-44119800D01*
X53709500Y-44119800D01*
X53709500Y-44139800D01*
X53484500Y-44139800D01*
X53484500Y-44119800D01*
X52933850Y-44119800D01*
X52787800Y-44265850D01*
X52787800Y-44708205D01*
X52876739Y-44922923D01*
X53041078Y-45087261D01*
X53063057Y-45096365D01*
X53016711Y-45142711D01*
X52917602Y-45291037D01*
X52882800Y-45466000D01*
X52882800Y-47939331D01*
X52578000Y-47939331D01*
X52455635Y-47962356D01*
X52343251Y-48034673D01*
X52267856Y-48145017D01*
X52241331Y-48276000D01*
X52241331Y-48870800D01*
X50443200Y-48870800D01*
X50443200Y-45774384D01*
X50606078Y-45937261D01*
X50820796Y-46026200D01*
X51238150Y-46026200D01*
X51384200Y-45880150D01*
X51384200Y-45119800D01*
X51739800Y-45119800D01*
X51739800Y-45880150D01*
X51885850Y-46026200D01*
X52303204Y-46026200D01*
X52517922Y-45937261D01*
X52682261Y-45772923D01*
X52771200Y-45558205D01*
X52771200Y-45265850D01*
X52625150Y-45119800D01*
X51739800Y-45119800D01*
X51384200Y-45119800D01*
X51364200Y-45119800D01*
X51364200Y-44764200D01*
X51384200Y-44764200D01*
X51384200Y-44003850D01*
X51739800Y-44003850D01*
X51739800Y-44764200D01*
X52625150Y-44764200D01*
X52771200Y-44618150D01*
X52771200Y-44325795D01*
X52682261Y-44111077D01*
X52517922Y-43946739D01*
X52303204Y-43857800D01*
X51885850Y-43857800D01*
X51739800Y-44003850D01*
X51384200Y-44003850D01*
X51238150Y-43857800D01*
X50820796Y-43857800D01*
X50606078Y-43946739D01*
X50443200Y-44109616D01*
X50443200Y-39013200D01*
X52241331Y-39013200D01*
X52241331Y-39118485D01*
X52241331Y-39118485D01*
G37*
X52241331Y-39118485D02*
X51148908Y-40210908D01*
X51022270Y-40400436D01*
X50977800Y-40624000D01*
X50977800Y-42105331D01*
X50937000Y-42105331D01*
X50814635Y-42128356D01*
X50702251Y-42200673D01*
X50626856Y-42311017D01*
X50600331Y-42442000D01*
X50600331Y-43442000D01*
X50623356Y-43564365D01*
X50695673Y-43676749D01*
X50806017Y-43752144D01*
X50937000Y-43778669D01*
X52187000Y-43778669D01*
X52309365Y-43755644D01*
X52421749Y-43683327D01*
X52497144Y-43572983D01*
X52523669Y-43442000D01*
X52523669Y-43399200D01*
X52787800Y-43399200D01*
X52787800Y-43618150D01*
X52933850Y-43764200D01*
X53484500Y-43764200D01*
X53484500Y-43744200D01*
X53709500Y-43744200D01*
X53709500Y-43764200D01*
X53794800Y-43764200D01*
X53794800Y-44119800D01*
X53709500Y-44119800D01*
X53709500Y-44139800D01*
X53484500Y-44139800D01*
X53484500Y-44119800D01*
X52933850Y-44119800D01*
X52787800Y-44265850D01*
X52787800Y-44708205D01*
X52876739Y-44922923D01*
X53041078Y-45087261D01*
X53063057Y-45096365D01*
X53016711Y-45142711D01*
X52917602Y-45291037D01*
X52882800Y-45466000D01*
X52882800Y-47939331D01*
X52578000Y-47939331D01*
X52455635Y-47962356D01*
X52343251Y-48034673D01*
X52267856Y-48145017D01*
X52241331Y-48276000D01*
X52241331Y-48870800D01*
X50443200Y-48870800D01*
X50443200Y-45774384D01*
X50606078Y-45937261D01*
X50820796Y-46026200D01*
X51238150Y-46026200D01*
X51384200Y-45880150D01*
X51384200Y-45119800D01*
X51739800Y-45119800D01*
X51739800Y-45880150D01*
X51885850Y-46026200D01*
X52303204Y-46026200D01*
X52517922Y-45937261D01*
X52682261Y-45772923D01*
X52771200Y-45558205D01*
X52771200Y-45265850D01*
X52625150Y-45119800D01*
X51739800Y-45119800D01*
X51384200Y-45119800D01*
X51364200Y-45119800D01*
X51364200Y-44764200D01*
X51384200Y-44764200D01*
X51384200Y-44003850D01*
X51739800Y-44003850D01*
X51739800Y-44764200D01*
X52625150Y-44764200D01*
X52771200Y-44618150D01*
X52771200Y-44325795D01*
X52682261Y-44111077D01*
X52517922Y-43946739D01*
X52303204Y-43857800D01*
X51885850Y-43857800D01*
X51739800Y-44003850D01*
X51384200Y-44003850D01*
X51238150Y-43857800D01*
X50820796Y-43857800D01*
X50606078Y-43946739D01*
X50443200Y-44109616D01*
X50443200Y-39013200D01*
X52241331Y-39013200D01*
X52241331Y-39118485D01*
G36*
X66725800Y-39724204D02*
X66814739Y-39938922D01*
X66979077Y-40103261D01*
X67193795Y-40192200D01*
X67748150Y-40192200D01*
X67894200Y-40046150D01*
X67894200Y-39013200D01*
X68249800Y-39013200D01*
X68249800Y-40046150D01*
X68395850Y-40192200D01*
X68950205Y-40192200D01*
X69164923Y-40103261D01*
X69329261Y-39938922D01*
X69418200Y-39724204D01*
X69418200Y-39013200D01*
X70968800Y-39013200D01*
X70968800Y-48870800D01*
X69170669Y-48870800D01*
X69170669Y-48276000D01*
X69147644Y-48153635D01*
X69075327Y-48041251D01*
X68964983Y-47965856D01*
X68834000Y-47939331D01*
X68529200Y-47939331D01*
X68529200Y-45466000D01*
X68494398Y-45291037D01*
X68395289Y-45142711D01*
X68348943Y-45096365D01*
X68370922Y-45087261D01*
X68535261Y-44922923D01*
X68624200Y-44708205D01*
X68624200Y-44265850D01*
X68478150Y-44119800D01*
X67927500Y-44119800D01*
X67927500Y-44139800D01*
X67702500Y-44139800D01*
X67702500Y-44119800D01*
X67617200Y-44119800D01*
X67617200Y-43764200D01*
X67702500Y-43764200D01*
X67702500Y-43231304D01*
X67774200Y-43058205D01*
X67774200Y-42975550D01*
X67702500Y-42903850D01*
X67702500Y-42853850D01*
X67927500Y-42853850D01*
X67927500Y-43764200D01*
X68478150Y-43764200D01*
X68624200Y-43618150D01*
X68624200Y-43175795D01*
X68535261Y-42961077D01*
X68370922Y-42796739D01*
X68156204Y-42707800D01*
X68073550Y-42707800D01*
X67927500Y-42853850D01*
X67702500Y-42853850D01*
X67556450Y-42707800D01*
X67473796Y-42707800D01*
X67259078Y-42796739D01*
X67226317Y-42829500D01*
X66217800Y-42829500D01*
X66217800Y-42914800D01*
X65862200Y-42914800D01*
X65862200Y-42829500D01*
X65842200Y-42829500D01*
X65842200Y-42604500D01*
X65862200Y-42604500D01*
X65862200Y-42053850D01*
X66217800Y-42053850D01*
X66217800Y-42604500D01*
X67628150Y-42604500D01*
X67774200Y-42458450D01*
X67774200Y-42375795D01*
X67685261Y-42161077D01*
X67520922Y-41996739D01*
X67306204Y-41907800D01*
X66363850Y-41907800D01*
X66217800Y-42053850D01*
X65862200Y-42053850D01*
X65716150Y-41907800D01*
X64773796Y-41907800D01*
X64559078Y-41996739D01*
X64394739Y-42161077D01*
X64364076Y-42235104D01*
X64262000Y-42214800D01*
X63863000Y-42214800D01*
X63688037Y-42249602D01*
X63539711Y-42348711D01*
X63403622Y-42484800D01*
X63191669Y-42484800D01*
X63191669Y-42442000D01*
X63168644Y-42319635D01*
X63096327Y-42207251D01*
X62985983Y-42131856D01*
X62855000Y-42105331D01*
X62814200Y-42105331D01*
X62814200Y-40865984D01*
X63735515Y-39944669D01*
X64770000Y-39944669D01*
X64892365Y-39921644D01*
X65004749Y-39849327D01*
X65080144Y-39738983D01*
X65106669Y-39608000D01*
X65106669Y-39013200D01*
X66725800Y-39013200D01*
X66725800Y-39724204D01*
X66725800Y-39724204D01*
G37*
X66725800Y-39724204D02*
X66814739Y-39938922D01*
X66979077Y-40103261D01*
X67193795Y-40192200D01*
X67748150Y-40192200D01*
X67894200Y-40046150D01*
X67894200Y-39013200D01*
X68249800Y-39013200D01*
X68249800Y-40046150D01*
X68395850Y-40192200D01*
X68950205Y-40192200D01*
X69164923Y-40103261D01*
X69329261Y-39938922D01*
X69418200Y-39724204D01*
X69418200Y-39013200D01*
X70968800Y-39013200D01*
X70968800Y-48870800D01*
X69170669Y-48870800D01*
X69170669Y-48276000D01*
X69147644Y-48153635D01*
X69075327Y-48041251D01*
X68964983Y-47965856D01*
X68834000Y-47939331D01*
X68529200Y-47939331D01*
X68529200Y-45466000D01*
X68494398Y-45291037D01*
X68395289Y-45142711D01*
X68348943Y-45096365D01*
X68370922Y-45087261D01*
X68535261Y-44922923D01*
X68624200Y-44708205D01*
X68624200Y-44265850D01*
X68478150Y-44119800D01*
X67927500Y-44119800D01*
X67927500Y-44139800D01*
X67702500Y-44139800D01*
X67702500Y-44119800D01*
X67617200Y-44119800D01*
X67617200Y-43764200D01*
X67702500Y-43764200D01*
X67702500Y-43231304D01*
X67774200Y-43058205D01*
X67774200Y-42975550D01*
X67702500Y-42903850D01*
X67702500Y-42853850D01*
X67927500Y-42853850D01*
X67927500Y-43764200D01*
X68478150Y-43764200D01*
X68624200Y-43618150D01*
X68624200Y-43175795D01*
X68535261Y-42961077D01*
X68370922Y-42796739D01*
X68156204Y-42707800D01*
X68073550Y-42707800D01*
X67927500Y-42853850D01*
X67702500Y-42853850D01*
X67556450Y-42707800D01*
X67473796Y-42707800D01*
X67259078Y-42796739D01*
X67226317Y-42829500D01*
X66217800Y-42829500D01*
X66217800Y-42914800D01*
X65862200Y-42914800D01*
X65862200Y-42829500D01*
X65842200Y-42829500D01*
X65842200Y-42604500D01*
X65862200Y-42604500D01*
X65862200Y-42053850D01*
X66217800Y-42053850D01*
X66217800Y-42604500D01*
X67628150Y-42604500D01*
X67774200Y-42458450D01*
X67774200Y-42375795D01*
X67685261Y-42161077D01*
X67520922Y-41996739D01*
X67306204Y-41907800D01*
X66363850Y-41907800D01*
X66217800Y-42053850D01*
X65862200Y-42053850D01*
X65716150Y-41907800D01*
X64773796Y-41907800D01*
X64559078Y-41996739D01*
X64394739Y-42161077D01*
X64364076Y-42235104D01*
X64262000Y-42214800D01*
X63863000Y-42214800D01*
X63688037Y-42249602D01*
X63539711Y-42348711D01*
X63403622Y-42484800D01*
X63191669Y-42484800D01*
X63191669Y-42442000D01*
X63168644Y-42319635D01*
X63096327Y-42207251D01*
X62985983Y-42131856D01*
X62855000Y-42105331D01*
X62814200Y-42105331D01*
X62814200Y-40865984D01*
X63735515Y-39944669D01*
X64770000Y-39944669D01*
X64892365Y-39921644D01*
X65004749Y-39849327D01*
X65080144Y-39738983D01*
X65106669Y-39608000D01*
X65106669Y-39013200D01*
X66725800Y-39013200D01*
X66725800Y-39724204D01*
G36*
X66217800Y-45104500D02*
X66237800Y-45104500D01*
X66237800Y-45329500D01*
X66217800Y-45329500D01*
X66217800Y-45880150D01*
X66363850Y-46026200D01*
X67306204Y-46026200D01*
X67520922Y-45937261D01*
X67614800Y-45843384D01*
X67614800Y-47939331D01*
X67310000Y-47939331D01*
X67187635Y-47962356D01*
X67075251Y-48034673D01*
X66999856Y-48145017D01*
X66973331Y-48276000D01*
X66973331Y-48870800D01*
X65106669Y-48870800D01*
X65106669Y-48276000D01*
X65083644Y-48153635D01*
X65011327Y-48041251D01*
X64900983Y-47965856D01*
X64770000Y-47939331D01*
X64465200Y-47939331D01*
X64465200Y-45843384D01*
X64559078Y-45937261D01*
X64773796Y-46026200D01*
X65716150Y-46026200D01*
X65862200Y-45880150D01*
X65862200Y-45329500D01*
X65842200Y-45329500D01*
X65842200Y-45104500D01*
X65862200Y-45104500D01*
X65862200Y-45019200D01*
X66217800Y-45019200D01*
X66217800Y-45104500D01*
X66217800Y-45104500D01*
G37*
X66217800Y-45104500D02*
X66237800Y-45104500D01*
X66237800Y-45329500D01*
X66217800Y-45329500D01*
X66217800Y-45880150D01*
X66363850Y-46026200D01*
X67306204Y-46026200D01*
X67520922Y-45937261D01*
X67614800Y-45843384D01*
X67614800Y-47939331D01*
X67310000Y-47939331D01*
X67187635Y-47962356D01*
X67075251Y-48034673D01*
X66999856Y-48145017D01*
X66973331Y-48276000D01*
X66973331Y-48870800D01*
X65106669Y-48870800D01*
X65106669Y-48276000D01*
X65083644Y-48153635D01*
X65011327Y-48041251D01*
X64900983Y-47965856D01*
X64770000Y-47939331D01*
X64465200Y-47939331D01*
X64465200Y-45843384D01*
X64559078Y-45937261D01*
X64773796Y-46026200D01*
X65716150Y-46026200D01*
X65862200Y-45880150D01*
X65862200Y-45329500D01*
X65842200Y-45329500D01*
X65842200Y-45104500D01*
X65862200Y-45104500D01*
X65862200Y-45019200D01*
X66217800Y-45019200D01*
X66217800Y-45104500D01*
G36*
X62909331Y-39118485D02*
X61816908Y-40210908D01*
X61690270Y-40400436D01*
X61645800Y-40624000D01*
X61645800Y-42105331D01*
X61605000Y-42105331D01*
X61482635Y-42128356D01*
X61370251Y-42200673D01*
X61294856Y-42311017D01*
X61268331Y-42442000D01*
X61268331Y-43442000D01*
X61291356Y-43564365D01*
X61363673Y-43676749D01*
X61474017Y-43752144D01*
X61605000Y-43778669D01*
X62855000Y-43778669D01*
X62977365Y-43755644D01*
X63089749Y-43683327D01*
X63165144Y-43572983D01*
X63191669Y-43442000D01*
X63191669Y-43399200D01*
X63455800Y-43399200D01*
X63455800Y-43618150D01*
X63601850Y-43764200D01*
X64152500Y-43764200D01*
X64152500Y-43744200D01*
X64377500Y-43744200D01*
X64377500Y-43764200D01*
X64462800Y-43764200D01*
X64462800Y-44119800D01*
X64377500Y-44119800D01*
X64377500Y-44139800D01*
X64152500Y-44139800D01*
X64152500Y-44119800D01*
X63601850Y-44119800D01*
X63455800Y-44265850D01*
X63455800Y-44708205D01*
X63544739Y-44922923D01*
X63709078Y-45087261D01*
X63731057Y-45096365D01*
X63684711Y-45142711D01*
X63585602Y-45291037D01*
X63550800Y-45466000D01*
X63550800Y-47939331D01*
X63246000Y-47939331D01*
X63123635Y-47962356D01*
X63011251Y-48034673D01*
X62935856Y-48145017D01*
X62909331Y-48276000D01*
X62909331Y-48870800D01*
X61111200Y-48870800D01*
X61111200Y-45774384D01*
X61274078Y-45937261D01*
X61488796Y-46026200D01*
X61906150Y-46026200D01*
X62052200Y-45880150D01*
X62052200Y-45119800D01*
X62407800Y-45119800D01*
X62407800Y-45880150D01*
X62553850Y-46026200D01*
X62971204Y-46026200D01*
X63185922Y-45937261D01*
X63350261Y-45772923D01*
X63439200Y-45558205D01*
X63439200Y-45265850D01*
X63293150Y-45119800D01*
X62407800Y-45119800D01*
X62052200Y-45119800D01*
X62032200Y-45119800D01*
X62032200Y-44764200D01*
X62052200Y-44764200D01*
X62052200Y-44003850D01*
X62407800Y-44003850D01*
X62407800Y-44764200D01*
X63293150Y-44764200D01*
X63439200Y-44618150D01*
X63439200Y-44325795D01*
X63350261Y-44111077D01*
X63185922Y-43946739D01*
X62971204Y-43857800D01*
X62553850Y-43857800D01*
X62407800Y-44003850D01*
X62052200Y-44003850D01*
X61906150Y-43857800D01*
X61488796Y-43857800D01*
X61274078Y-43946739D01*
X61111200Y-44109616D01*
X61111200Y-39013200D01*
X62909331Y-39013200D01*
X62909331Y-39118485D01*
X62909331Y-39118485D01*
G37*
X62909331Y-39118485D02*
X61816908Y-40210908D01*
X61690270Y-40400436D01*
X61645800Y-40624000D01*
X61645800Y-42105331D01*
X61605000Y-42105331D01*
X61482635Y-42128356D01*
X61370251Y-42200673D01*
X61294856Y-42311017D01*
X61268331Y-42442000D01*
X61268331Y-43442000D01*
X61291356Y-43564365D01*
X61363673Y-43676749D01*
X61474017Y-43752144D01*
X61605000Y-43778669D01*
X62855000Y-43778669D01*
X62977365Y-43755644D01*
X63089749Y-43683327D01*
X63165144Y-43572983D01*
X63191669Y-43442000D01*
X63191669Y-43399200D01*
X63455800Y-43399200D01*
X63455800Y-43618150D01*
X63601850Y-43764200D01*
X64152500Y-43764200D01*
X64152500Y-43744200D01*
X64377500Y-43744200D01*
X64377500Y-43764200D01*
X64462800Y-43764200D01*
X64462800Y-44119800D01*
X64377500Y-44119800D01*
X64377500Y-44139800D01*
X64152500Y-44139800D01*
X64152500Y-44119800D01*
X63601850Y-44119800D01*
X63455800Y-44265850D01*
X63455800Y-44708205D01*
X63544739Y-44922923D01*
X63709078Y-45087261D01*
X63731057Y-45096365D01*
X63684711Y-45142711D01*
X63585602Y-45291037D01*
X63550800Y-45466000D01*
X63550800Y-47939331D01*
X63246000Y-47939331D01*
X63123635Y-47962356D01*
X63011251Y-48034673D01*
X62935856Y-48145017D01*
X62909331Y-48276000D01*
X62909331Y-48870800D01*
X61111200Y-48870800D01*
X61111200Y-45774384D01*
X61274078Y-45937261D01*
X61488796Y-46026200D01*
X61906150Y-46026200D01*
X62052200Y-45880150D01*
X62052200Y-45119800D01*
X62407800Y-45119800D01*
X62407800Y-45880150D01*
X62553850Y-46026200D01*
X62971204Y-46026200D01*
X63185922Y-45937261D01*
X63350261Y-45772923D01*
X63439200Y-45558205D01*
X63439200Y-45265850D01*
X63293150Y-45119800D01*
X62407800Y-45119800D01*
X62052200Y-45119800D01*
X62032200Y-45119800D01*
X62032200Y-44764200D01*
X62052200Y-44764200D01*
X62052200Y-44003850D01*
X62407800Y-44003850D01*
X62407800Y-44764200D01*
X63293150Y-44764200D01*
X63439200Y-44618150D01*
X63439200Y-44325795D01*
X63350261Y-44111077D01*
X63185922Y-43946739D01*
X62971204Y-43857800D01*
X62553850Y-43857800D01*
X62407800Y-44003850D01*
X62052200Y-44003850D01*
X61906150Y-43857800D01*
X61488796Y-43857800D01*
X61274078Y-43946739D01*
X61111200Y-44109616D01*
X61111200Y-39013200D01*
X62909331Y-39013200D01*
X62909331Y-39118485D01*
G36*
X77393800Y-39724204D02*
X77482739Y-39938922D01*
X77647077Y-40103261D01*
X77861795Y-40192200D01*
X78416150Y-40192200D01*
X78562200Y-40046150D01*
X78562200Y-39013200D01*
X78917800Y-39013200D01*
X78917800Y-40046150D01*
X79063850Y-40192200D01*
X79618205Y-40192200D01*
X79832923Y-40103261D01*
X79997261Y-39938922D01*
X80086200Y-39724204D01*
X80086200Y-39013200D01*
X81636800Y-39013200D01*
X81636800Y-48870800D01*
X79838669Y-48870800D01*
X79838669Y-48276000D01*
X79815644Y-48153635D01*
X79743327Y-48041251D01*
X79632983Y-47965856D01*
X79502000Y-47939331D01*
X79197200Y-47939331D01*
X79197200Y-45466000D01*
X79162398Y-45291037D01*
X79063289Y-45142711D01*
X79016943Y-45096365D01*
X79038922Y-45087261D01*
X79203261Y-44922923D01*
X79292200Y-44708205D01*
X79292200Y-44265850D01*
X79146150Y-44119800D01*
X78595500Y-44119800D01*
X78595500Y-44139800D01*
X78370500Y-44139800D01*
X78370500Y-44119800D01*
X78285200Y-44119800D01*
X78285200Y-43764200D01*
X78370500Y-43764200D01*
X78370500Y-43231304D01*
X78442200Y-43058205D01*
X78442200Y-42975550D01*
X78370500Y-42903850D01*
X78370500Y-42853850D01*
X78595500Y-42853850D01*
X78595500Y-43764200D01*
X79146150Y-43764200D01*
X79292200Y-43618150D01*
X79292200Y-43175795D01*
X79203261Y-42961077D01*
X79038922Y-42796739D01*
X78824204Y-42707800D01*
X78741550Y-42707800D01*
X78595500Y-42853850D01*
X78370500Y-42853850D01*
X78224450Y-42707800D01*
X78141796Y-42707800D01*
X77927078Y-42796739D01*
X77894317Y-42829500D01*
X76885800Y-42829500D01*
X76885800Y-42914800D01*
X76530200Y-42914800D01*
X76530200Y-42829500D01*
X76510200Y-42829500D01*
X76510200Y-42604500D01*
X76530200Y-42604500D01*
X76530200Y-42053850D01*
X76885800Y-42053850D01*
X76885800Y-42604500D01*
X78296150Y-42604500D01*
X78442200Y-42458450D01*
X78442200Y-42375795D01*
X78353261Y-42161077D01*
X78188922Y-41996739D01*
X77974204Y-41907800D01*
X77031850Y-41907800D01*
X76885800Y-42053850D01*
X76530200Y-42053850D01*
X76384150Y-41907800D01*
X75441796Y-41907800D01*
X75227078Y-41996739D01*
X75062739Y-42161077D01*
X75032076Y-42235104D01*
X74930000Y-42214800D01*
X74531000Y-42214800D01*
X74356037Y-42249602D01*
X74207711Y-42348711D01*
X74071622Y-42484800D01*
X73859669Y-42484800D01*
X73859669Y-42442000D01*
X73836644Y-42319635D01*
X73764327Y-42207251D01*
X73653983Y-42131856D01*
X73523000Y-42105331D01*
X73482200Y-42105331D01*
X73482200Y-40865984D01*
X74403515Y-39944669D01*
X75438000Y-39944669D01*
X75560365Y-39921644D01*
X75672749Y-39849327D01*
X75748144Y-39738983D01*
X75774669Y-39608000D01*
X75774669Y-39013200D01*
X77393800Y-39013200D01*
X77393800Y-39724204D01*
X77393800Y-39724204D01*
G37*
X77393800Y-39724204D02*
X77482739Y-39938922D01*
X77647077Y-40103261D01*
X77861795Y-40192200D01*
X78416150Y-40192200D01*
X78562200Y-40046150D01*
X78562200Y-39013200D01*
X78917800Y-39013200D01*
X78917800Y-40046150D01*
X79063850Y-40192200D01*
X79618205Y-40192200D01*
X79832923Y-40103261D01*
X79997261Y-39938922D01*
X80086200Y-39724204D01*
X80086200Y-39013200D01*
X81636800Y-39013200D01*
X81636800Y-48870800D01*
X79838669Y-48870800D01*
X79838669Y-48276000D01*
X79815644Y-48153635D01*
X79743327Y-48041251D01*
X79632983Y-47965856D01*
X79502000Y-47939331D01*
X79197200Y-47939331D01*
X79197200Y-45466000D01*
X79162398Y-45291037D01*
X79063289Y-45142711D01*
X79016943Y-45096365D01*
X79038922Y-45087261D01*
X79203261Y-44922923D01*
X79292200Y-44708205D01*
X79292200Y-44265850D01*
X79146150Y-44119800D01*
X78595500Y-44119800D01*
X78595500Y-44139800D01*
X78370500Y-44139800D01*
X78370500Y-44119800D01*
X78285200Y-44119800D01*
X78285200Y-43764200D01*
X78370500Y-43764200D01*
X78370500Y-43231304D01*
X78442200Y-43058205D01*
X78442200Y-42975550D01*
X78370500Y-42903850D01*
X78370500Y-42853850D01*
X78595500Y-42853850D01*
X78595500Y-43764200D01*
X79146150Y-43764200D01*
X79292200Y-43618150D01*
X79292200Y-43175795D01*
X79203261Y-42961077D01*
X79038922Y-42796739D01*
X78824204Y-42707800D01*
X78741550Y-42707800D01*
X78595500Y-42853850D01*
X78370500Y-42853850D01*
X78224450Y-42707800D01*
X78141796Y-42707800D01*
X77927078Y-42796739D01*
X77894317Y-42829500D01*
X76885800Y-42829500D01*
X76885800Y-42914800D01*
X76530200Y-42914800D01*
X76530200Y-42829500D01*
X76510200Y-42829500D01*
X76510200Y-42604500D01*
X76530200Y-42604500D01*
X76530200Y-42053850D01*
X76885800Y-42053850D01*
X76885800Y-42604500D01*
X78296150Y-42604500D01*
X78442200Y-42458450D01*
X78442200Y-42375795D01*
X78353261Y-42161077D01*
X78188922Y-41996739D01*
X77974204Y-41907800D01*
X77031850Y-41907800D01*
X76885800Y-42053850D01*
X76530200Y-42053850D01*
X76384150Y-41907800D01*
X75441796Y-41907800D01*
X75227078Y-41996739D01*
X75062739Y-42161077D01*
X75032076Y-42235104D01*
X74930000Y-42214800D01*
X74531000Y-42214800D01*
X74356037Y-42249602D01*
X74207711Y-42348711D01*
X74071622Y-42484800D01*
X73859669Y-42484800D01*
X73859669Y-42442000D01*
X73836644Y-42319635D01*
X73764327Y-42207251D01*
X73653983Y-42131856D01*
X73523000Y-42105331D01*
X73482200Y-42105331D01*
X73482200Y-40865984D01*
X74403515Y-39944669D01*
X75438000Y-39944669D01*
X75560365Y-39921644D01*
X75672749Y-39849327D01*
X75748144Y-39738983D01*
X75774669Y-39608000D01*
X75774669Y-39013200D01*
X77393800Y-39013200D01*
X77393800Y-39724204D01*
G36*
X76885800Y-45104500D02*
X76905800Y-45104500D01*
X76905800Y-45329500D01*
X76885800Y-45329500D01*
X76885800Y-45880150D01*
X77031850Y-46026200D01*
X77974204Y-46026200D01*
X78188922Y-45937261D01*
X78282800Y-45843384D01*
X78282800Y-47939331D01*
X77978000Y-47939331D01*
X77855635Y-47962356D01*
X77743251Y-48034673D01*
X77667856Y-48145017D01*
X77641331Y-48276000D01*
X77641331Y-48870800D01*
X75774669Y-48870800D01*
X75774669Y-48276000D01*
X75751644Y-48153635D01*
X75679327Y-48041251D01*
X75568983Y-47965856D01*
X75438000Y-47939331D01*
X75133200Y-47939331D01*
X75133200Y-45843384D01*
X75227078Y-45937261D01*
X75441796Y-46026200D01*
X76384150Y-46026200D01*
X76530200Y-45880150D01*
X76530200Y-45329500D01*
X76510200Y-45329500D01*
X76510200Y-45104500D01*
X76530200Y-45104500D01*
X76530200Y-45019200D01*
X76885800Y-45019200D01*
X76885800Y-45104500D01*
X76885800Y-45104500D01*
G37*
X76885800Y-45104500D02*
X76905800Y-45104500D01*
X76905800Y-45329500D01*
X76885800Y-45329500D01*
X76885800Y-45880150D01*
X77031850Y-46026200D01*
X77974204Y-46026200D01*
X78188922Y-45937261D01*
X78282800Y-45843384D01*
X78282800Y-47939331D01*
X77978000Y-47939331D01*
X77855635Y-47962356D01*
X77743251Y-48034673D01*
X77667856Y-48145017D01*
X77641331Y-48276000D01*
X77641331Y-48870800D01*
X75774669Y-48870800D01*
X75774669Y-48276000D01*
X75751644Y-48153635D01*
X75679327Y-48041251D01*
X75568983Y-47965856D01*
X75438000Y-47939331D01*
X75133200Y-47939331D01*
X75133200Y-45843384D01*
X75227078Y-45937261D01*
X75441796Y-46026200D01*
X76384150Y-46026200D01*
X76530200Y-45880150D01*
X76530200Y-45329500D01*
X76510200Y-45329500D01*
X76510200Y-45104500D01*
X76530200Y-45104500D01*
X76530200Y-45019200D01*
X76885800Y-45019200D01*
X76885800Y-45104500D01*
G36*
X73577331Y-39118485D02*
X72484908Y-40210908D01*
X72358270Y-40400436D01*
X72313800Y-40624000D01*
X72313800Y-42105331D01*
X72273000Y-42105331D01*
X72150635Y-42128356D01*
X72038251Y-42200673D01*
X71962856Y-42311017D01*
X71936331Y-42442000D01*
X71936331Y-43442000D01*
X71959356Y-43564365D01*
X72031673Y-43676749D01*
X72142017Y-43752144D01*
X72273000Y-43778669D01*
X73523000Y-43778669D01*
X73645365Y-43755644D01*
X73757749Y-43683327D01*
X73833144Y-43572983D01*
X73859669Y-43442000D01*
X73859669Y-43399200D01*
X74123800Y-43399200D01*
X74123800Y-43618150D01*
X74269850Y-43764200D01*
X74820500Y-43764200D01*
X74820500Y-43744200D01*
X75045500Y-43744200D01*
X75045500Y-43764200D01*
X75130800Y-43764200D01*
X75130800Y-44119800D01*
X75045500Y-44119800D01*
X75045500Y-44139800D01*
X74820500Y-44139800D01*
X74820500Y-44119800D01*
X74269850Y-44119800D01*
X74123800Y-44265850D01*
X74123800Y-44708205D01*
X74212739Y-44922923D01*
X74377078Y-45087261D01*
X74399057Y-45096365D01*
X74352711Y-45142711D01*
X74253602Y-45291037D01*
X74218800Y-45466000D01*
X74218800Y-47939331D01*
X73914000Y-47939331D01*
X73791635Y-47962356D01*
X73679251Y-48034673D01*
X73603856Y-48145017D01*
X73577331Y-48276000D01*
X73577331Y-48870800D01*
X71779200Y-48870800D01*
X71779200Y-45774384D01*
X71942078Y-45937261D01*
X72156796Y-46026200D01*
X72574150Y-46026200D01*
X72720200Y-45880150D01*
X72720200Y-45119800D01*
X73075800Y-45119800D01*
X73075800Y-45880150D01*
X73221850Y-46026200D01*
X73639204Y-46026200D01*
X73853922Y-45937261D01*
X74018261Y-45772923D01*
X74107200Y-45558205D01*
X74107200Y-45265850D01*
X73961150Y-45119800D01*
X73075800Y-45119800D01*
X72720200Y-45119800D01*
X72700200Y-45119800D01*
X72700200Y-44764200D01*
X72720200Y-44764200D01*
X72720200Y-44003850D01*
X73075800Y-44003850D01*
X73075800Y-44764200D01*
X73961150Y-44764200D01*
X74107200Y-44618150D01*
X74107200Y-44325795D01*
X74018261Y-44111077D01*
X73853922Y-43946739D01*
X73639204Y-43857800D01*
X73221850Y-43857800D01*
X73075800Y-44003850D01*
X72720200Y-44003850D01*
X72574150Y-43857800D01*
X72156796Y-43857800D01*
X71942078Y-43946739D01*
X71779200Y-44109616D01*
X71779200Y-39013200D01*
X73577331Y-39013200D01*
X73577331Y-39118485D01*
X73577331Y-39118485D01*
G37*
X73577331Y-39118485D02*
X72484908Y-40210908D01*
X72358270Y-40400436D01*
X72313800Y-40624000D01*
X72313800Y-42105331D01*
X72273000Y-42105331D01*
X72150635Y-42128356D01*
X72038251Y-42200673D01*
X71962856Y-42311017D01*
X71936331Y-42442000D01*
X71936331Y-43442000D01*
X71959356Y-43564365D01*
X72031673Y-43676749D01*
X72142017Y-43752144D01*
X72273000Y-43778669D01*
X73523000Y-43778669D01*
X73645365Y-43755644D01*
X73757749Y-43683327D01*
X73833144Y-43572983D01*
X73859669Y-43442000D01*
X73859669Y-43399200D01*
X74123800Y-43399200D01*
X74123800Y-43618150D01*
X74269850Y-43764200D01*
X74820500Y-43764200D01*
X74820500Y-43744200D01*
X75045500Y-43744200D01*
X75045500Y-43764200D01*
X75130800Y-43764200D01*
X75130800Y-44119800D01*
X75045500Y-44119800D01*
X75045500Y-44139800D01*
X74820500Y-44139800D01*
X74820500Y-44119800D01*
X74269850Y-44119800D01*
X74123800Y-44265850D01*
X74123800Y-44708205D01*
X74212739Y-44922923D01*
X74377078Y-45087261D01*
X74399057Y-45096365D01*
X74352711Y-45142711D01*
X74253602Y-45291037D01*
X74218800Y-45466000D01*
X74218800Y-47939331D01*
X73914000Y-47939331D01*
X73791635Y-47962356D01*
X73679251Y-48034673D01*
X73603856Y-48145017D01*
X73577331Y-48276000D01*
X73577331Y-48870800D01*
X71779200Y-48870800D01*
X71779200Y-45774384D01*
X71942078Y-45937261D01*
X72156796Y-46026200D01*
X72574150Y-46026200D01*
X72720200Y-45880150D01*
X72720200Y-45119800D01*
X73075800Y-45119800D01*
X73075800Y-45880150D01*
X73221850Y-46026200D01*
X73639204Y-46026200D01*
X73853922Y-45937261D01*
X74018261Y-45772923D01*
X74107200Y-45558205D01*
X74107200Y-45265850D01*
X73961150Y-45119800D01*
X73075800Y-45119800D01*
X72720200Y-45119800D01*
X72700200Y-45119800D01*
X72700200Y-44764200D01*
X72720200Y-44764200D01*
X72720200Y-44003850D01*
X73075800Y-44003850D01*
X73075800Y-44764200D01*
X73961150Y-44764200D01*
X74107200Y-44618150D01*
X74107200Y-44325795D01*
X74018261Y-44111077D01*
X73853922Y-43946739D01*
X73639204Y-43857800D01*
X73221850Y-43857800D01*
X73075800Y-44003850D01*
X72720200Y-44003850D01*
X72574150Y-43857800D01*
X72156796Y-43857800D01*
X71942078Y-43946739D01*
X71779200Y-44109616D01*
X71779200Y-39013200D01*
X73577331Y-39013200D01*
X73577331Y-39118485D01*
G36*
X77393800Y-54964204D02*
X77482739Y-55178922D01*
X77647077Y-55343261D01*
X77861795Y-55432200D01*
X78416150Y-55432200D01*
X78562200Y-55286150D01*
X78562200Y-54253200D01*
X78917800Y-54253200D01*
X78917800Y-55286150D01*
X79063850Y-55432200D01*
X79618205Y-55432200D01*
X79832923Y-55343261D01*
X79997261Y-55178922D01*
X80086200Y-54964204D01*
X80086200Y-54253200D01*
X81636800Y-54253200D01*
X81636800Y-64110800D01*
X79838669Y-64110800D01*
X79838669Y-63516000D01*
X79815644Y-63393635D01*
X79743327Y-63281251D01*
X79632983Y-63205856D01*
X79502000Y-63179331D01*
X79197200Y-63179331D01*
X79197200Y-60706000D01*
X79162398Y-60531037D01*
X79063289Y-60382711D01*
X79016943Y-60336365D01*
X79038922Y-60327261D01*
X79203261Y-60162923D01*
X79292200Y-59948205D01*
X79292200Y-59505850D01*
X79146150Y-59359800D01*
X78595500Y-59359800D01*
X78595500Y-59379800D01*
X78370500Y-59379800D01*
X78370500Y-59359800D01*
X78285200Y-59359800D01*
X78285200Y-59004200D01*
X78370500Y-59004200D01*
X78370500Y-58471304D01*
X78442200Y-58298205D01*
X78442200Y-58215550D01*
X78370500Y-58143850D01*
X78370500Y-58093850D01*
X78595500Y-58093850D01*
X78595500Y-59004200D01*
X79146150Y-59004200D01*
X79292200Y-58858150D01*
X79292200Y-58415795D01*
X79203261Y-58201077D01*
X79038922Y-58036739D01*
X78824204Y-57947800D01*
X78741550Y-57947800D01*
X78595500Y-58093850D01*
X78370500Y-58093850D01*
X78224450Y-57947800D01*
X78141796Y-57947800D01*
X77927078Y-58036739D01*
X77894317Y-58069500D01*
X76885800Y-58069500D01*
X76885800Y-58154800D01*
X76530200Y-58154800D01*
X76530200Y-58069500D01*
X76510200Y-58069500D01*
X76510200Y-57844500D01*
X76530200Y-57844500D01*
X76530200Y-57293850D01*
X76885800Y-57293850D01*
X76885800Y-57844500D01*
X78296150Y-57844500D01*
X78442200Y-57698450D01*
X78442200Y-57615795D01*
X78353261Y-57401077D01*
X78188922Y-57236739D01*
X77974204Y-57147800D01*
X77031850Y-57147800D01*
X76885800Y-57293850D01*
X76530200Y-57293850D01*
X76384150Y-57147800D01*
X75441796Y-57147800D01*
X75227078Y-57236739D01*
X75062739Y-57401077D01*
X75032076Y-57475104D01*
X74930000Y-57454800D01*
X74531000Y-57454800D01*
X74356037Y-57489602D01*
X74207711Y-57588711D01*
X74071622Y-57724800D01*
X73859669Y-57724800D01*
X73859669Y-57682000D01*
X73836644Y-57559635D01*
X73764327Y-57447251D01*
X73653983Y-57371856D01*
X73523000Y-57345331D01*
X73482200Y-57345331D01*
X73482200Y-56105984D01*
X74403515Y-55184669D01*
X75438000Y-55184669D01*
X75560365Y-55161644D01*
X75672749Y-55089327D01*
X75748144Y-54978983D01*
X75774669Y-54848000D01*
X75774669Y-54253200D01*
X77393800Y-54253200D01*
X77393800Y-54964204D01*
X77393800Y-54964204D01*
G37*
X77393800Y-54964204D02*
X77482739Y-55178922D01*
X77647077Y-55343261D01*
X77861795Y-55432200D01*
X78416150Y-55432200D01*
X78562200Y-55286150D01*
X78562200Y-54253200D01*
X78917800Y-54253200D01*
X78917800Y-55286150D01*
X79063850Y-55432200D01*
X79618205Y-55432200D01*
X79832923Y-55343261D01*
X79997261Y-55178922D01*
X80086200Y-54964204D01*
X80086200Y-54253200D01*
X81636800Y-54253200D01*
X81636800Y-64110800D01*
X79838669Y-64110800D01*
X79838669Y-63516000D01*
X79815644Y-63393635D01*
X79743327Y-63281251D01*
X79632983Y-63205856D01*
X79502000Y-63179331D01*
X79197200Y-63179331D01*
X79197200Y-60706000D01*
X79162398Y-60531037D01*
X79063289Y-60382711D01*
X79016943Y-60336365D01*
X79038922Y-60327261D01*
X79203261Y-60162923D01*
X79292200Y-59948205D01*
X79292200Y-59505850D01*
X79146150Y-59359800D01*
X78595500Y-59359800D01*
X78595500Y-59379800D01*
X78370500Y-59379800D01*
X78370500Y-59359800D01*
X78285200Y-59359800D01*
X78285200Y-59004200D01*
X78370500Y-59004200D01*
X78370500Y-58471304D01*
X78442200Y-58298205D01*
X78442200Y-58215550D01*
X78370500Y-58143850D01*
X78370500Y-58093850D01*
X78595500Y-58093850D01*
X78595500Y-59004200D01*
X79146150Y-59004200D01*
X79292200Y-58858150D01*
X79292200Y-58415795D01*
X79203261Y-58201077D01*
X79038922Y-58036739D01*
X78824204Y-57947800D01*
X78741550Y-57947800D01*
X78595500Y-58093850D01*
X78370500Y-58093850D01*
X78224450Y-57947800D01*
X78141796Y-57947800D01*
X77927078Y-58036739D01*
X77894317Y-58069500D01*
X76885800Y-58069500D01*
X76885800Y-58154800D01*
X76530200Y-58154800D01*
X76530200Y-58069500D01*
X76510200Y-58069500D01*
X76510200Y-57844500D01*
X76530200Y-57844500D01*
X76530200Y-57293850D01*
X76885800Y-57293850D01*
X76885800Y-57844500D01*
X78296150Y-57844500D01*
X78442200Y-57698450D01*
X78442200Y-57615795D01*
X78353261Y-57401077D01*
X78188922Y-57236739D01*
X77974204Y-57147800D01*
X77031850Y-57147800D01*
X76885800Y-57293850D01*
X76530200Y-57293850D01*
X76384150Y-57147800D01*
X75441796Y-57147800D01*
X75227078Y-57236739D01*
X75062739Y-57401077D01*
X75032076Y-57475104D01*
X74930000Y-57454800D01*
X74531000Y-57454800D01*
X74356037Y-57489602D01*
X74207711Y-57588711D01*
X74071622Y-57724800D01*
X73859669Y-57724800D01*
X73859669Y-57682000D01*
X73836644Y-57559635D01*
X73764327Y-57447251D01*
X73653983Y-57371856D01*
X73523000Y-57345331D01*
X73482200Y-57345331D01*
X73482200Y-56105984D01*
X74403515Y-55184669D01*
X75438000Y-55184669D01*
X75560365Y-55161644D01*
X75672749Y-55089327D01*
X75748144Y-54978983D01*
X75774669Y-54848000D01*
X75774669Y-54253200D01*
X77393800Y-54253200D01*
X77393800Y-54964204D01*
G36*
X76885800Y-60344500D02*
X76905800Y-60344500D01*
X76905800Y-60569500D01*
X76885800Y-60569500D01*
X76885800Y-61120150D01*
X77031850Y-61266200D01*
X77974204Y-61266200D01*
X78188922Y-61177261D01*
X78282800Y-61083384D01*
X78282800Y-63179331D01*
X77978000Y-63179331D01*
X77855635Y-63202356D01*
X77743251Y-63274673D01*
X77667856Y-63385017D01*
X77641331Y-63516000D01*
X77641331Y-64110800D01*
X75774669Y-64110800D01*
X75774669Y-63516000D01*
X75751644Y-63393635D01*
X75679327Y-63281251D01*
X75568983Y-63205856D01*
X75438000Y-63179331D01*
X75133200Y-63179331D01*
X75133200Y-61083384D01*
X75227078Y-61177261D01*
X75441796Y-61266200D01*
X76384150Y-61266200D01*
X76530200Y-61120150D01*
X76530200Y-60569500D01*
X76510200Y-60569500D01*
X76510200Y-60344500D01*
X76530200Y-60344500D01*
X76530200Y-60259200D01*
X76885800Y-60259200D01*
X76885800Y-60344500D01*
X76885800Y-60344500D01*
G37*
X76885800Y-60344500D02*
X76905800Y-60344500D01*
X76905800Y-60569500D01*
X76885800Y-60569500D01*
X76885800Y-61120150D01*
X77031850Y-61266200D01*
X77974204Y-61266200D01*
X78188922Y-61177261D01*
X78282800Y-61083384D01*
X78282800Y-63179331D01*
X77978000Y-63179331D01*
X77855635Y-63202356D01*
X77743251Y-63274673D01*
X77667856Y-63385017D01*
X77641331Y-63516000D01*
X77641331Y-64110800D01*
X75774669Y-64110800D01*
X75774669Y-63516000D01*
X75751644Y-63393635D01*
X75679327Y-63281251D01*
X75568983Y-63205856D01*
X75438000Y-63179331D01*
X75133200Y-63179331D01*
X75133200Y-61083384D01*
X75227078Y-61177261D01*
X75441796Y-61266200D01*
X76384150Y-61266200D01*
X76530200Y-61120150D01*
X76530200Y-60569500D01*
X76510200Y-60569500D01*
X76510200Y-60344500D01*
X76530200Y-60344500D01*
X76530200Y-60259200D01*
X76885800Y-60259200D01*
X76885800Y-60344500D01*
G36*
X73577331Y-54358485D02*
X72484908Y-55450908D01*
X72358270Y-55640436D01*
X72313800Y-55864000D01*
X72313800Y-57345331D01*
X72273000Y-57345331D01*
X72150635Y-57368356D01*
X72038251Y-57440673D01*
X71962856Y-57551017D01*
X71936331Y-57682000D01*
X71936331Y-58682000D01*
X71959356Y-58804365D01*
X72031673Y-58916749D01*
X72142017Y-58992144D01*
X72273000Y-59018669D01*
X73523000Y-59018669D01*
X73645365Y-58995644D01*
X73757749Y-58923327D01*
X73833144Y-58812983D01*
X73859669Y-58682000D01*
X73859669Y-58639200D01*
X74123800Y-58639200D01*
X74123800Y-58858150D01*
X74269850Y-59004200D01*
X74820500Y-59004200D01*
X74820500Y-58984200D01*
X75045500Y-58984200D01*
X75045500Y-59004200D01*
X75130800Y-59004200D01*
X75130800Y-59359800D01*
X75045500Y-59359800D01*
X75045500Y-59379800D01*
X74820500Y-59379800D01*
X74820500Y-59359800D01*
X74269850Y-59359800D01*
X74123800Y-59505850D01*
X74123800Y-59948205D01*
X74212739Y-60162923D01*
X74377078Y-60327261D01*
X74399057Y-60336365D01*
X74352711Y-60382711D01*
X74253602Y-60531037D01*
X74218800Y-60706000D01*
X74218800Y-63179331D01*
X73914000Y-63179331D01*
X73791635Y-63202356D01*
X73679251Y-63274673D01*
X73603856Y-63385017D01*
X73577331Y-63516000D01*
X73577331Y-64110800D01*
X71779200Y-64110800D01*
X71779200Y-61014384D01*
X71942078Y-61177261D01*
X72156796Y-61266200D01*
X72574150Y-61266200D01*
X72720200Y-61120150D01*
X72720200Y-60359800D01*
X73075800Y-60359800D01*
X73075800Y-61120150D01*
X73221850Y-61266200D01*
X73639204Y-61266200D01*
X73853922Y-61177261D01*
X74018261Y-61012923D01*
X74107200Y-60798205D01*
X74107200Y-60505850D01*
X73961150Y-60359800D01*
X73075800Y-60359800D01*
X72720200Y-60359800D01*
X72700200Y-60359800D01*
X72700200Y-60004200D01*
X72720200Y-60004200D01*
X72720200Y-59243850D01*
X73075800Y-59243850D01*
X73075800Y-60004200D01*
X73961150Y-60004200D01*
X74107200Y-59858150D01*
X74107200Y-59565795D01*
X74018261Y-59351077D01*
X73853922Y-59186739D01*
X73639204Y-59097800D01*
X73221850Y-59097800D01*
X73075800Y-59243850D01*
X72720200Y-59243850D01*
X72574150Y-59097800D01*
X72156796Y-59097800D01*
X71942078Y-59186739D01*
X71779200Y-59349616D01*
X71779200Y-54253200D01*
X73577331Y-54253200D01*
X73577331Y-54358485D01*
X73577331Y-54358485D01*
G37*
X73577331Y-54358485D02*
X72484908Y-55450908D01*
X72358270Y-55640436D01*
X72313800Y-55864000D01*
X72313800Y-57345331D01*
X72273000Y-57345331D01*
X72150635Y-57368356D01*
X72038251Y-57440673D01*
X71962856Y-57551017D01*
X71936331Y-57682000D01*
X71936331Y-58682000D01*
X71959356Y-58804365D01*
X72031673Y-58916749D01*
X72142017Y-58992144D01*
X72273000Y-59018669D01*
X73523000Y-59018669D01*
X73645365Y-58995644D01*
X73757749Y-58923327D01*
X73833144Y-58812983D01*
X73859669Y-58682000D01*
X73859669Y-58639200D01*
X74123800Y-58639200D01*
X74123800Y-58858150D01*
X74269850Y-59004200D01*
X74820500Y-59004200D01*
X74820500Y-58984200D01*
X75045500Y-58984200D01*
X75045500Y-59004200D01*
X75130800Y-59004200D01*
X75130800Y-59359800D01*
X75045500Y-59359800D01*
X75045500Y-59379800D01*
X74820500Y-59379800D01*
X74820500Y-59359800D01*
X74269850Y-59359800D01*
X74123800Y-59505850D01*
X74123800Y-59948205D01*
X74212739Y-60162923D01*
X74377078Y-60327261D01*
X74399057Y-60336365D01*
X74352711Y-60382711D01*
X74253602Y-60531037D01*
X74218800Y-60706000D01*
X74218800Y-63179331D01*
X73914000Y-63179331D01*
X73791635Y-63202356D01*
X73679251Y-63274673D01*
X73603856Y-63385017D01*
X73577331Y-63516000D01*
X73577331Y-64110800D01*
X71779200Y-64110800D01*
X71779200Y-61014384D01*
X71942078Y-61177261D01*
X72156796Y-61266200D01*
X72574150Y-61266200D01*
X72720200Y-61120150D01*
X72720200Y-60359800D01*
X73075800Y-60359800D01*
X73075800Y-61120150D01*
X73221850Y-61266200D01*
X73639204Y-61266200D01*
X73853922Y-61177261D01*
X74018261Y-61012923D01*
X74107200Y-60798205D01*
X74107200Y-60505850D01*
X73961150Y-60359800D01*
X73075800Y-60359800D01*
X72720200Y-60359800D01*
X72700200Y-60359800D01*
X72700200Y-60004200D01*
X72720200Y-60004200D01*
X72720200Y-59243850D01*
X73075800Y-59243850D01*
X73075800Y-60004200D01*
X73961150Y-60004200D01*
X74107200Y-59858150D01*
X74107200Y-59565795D01*
X74018261Y-59351077D01*
X73853922Y-59186739D01*
X73639204Y-59097800D01*
X73221850Y-59097800D01*
X73075800Y-59243850D01*
X72720200Y-59243850D01*
X72574150Y-59097800D01*
X72156796Y-59097800D01*
X71942078Y-59186739D01*
X71779200Y-59349616D01*
X71779200Y-54253200D01*
X73577331Y-54253200D01*
X73577331Y-54358485D01*
G36*
X77393800Y-70204204D02*
X77482739Y-70418922D01*
X77647077Y-70583261D01*
X77861795Y-70672200D01*
X78416150Y-70672200D01*
X78562200Y-70526150D01*
X78562200Y-69493200D01*
X78917800Y-69493200D01*
X78917800Y-70526150D01*
X79063850Y-70672200D01*
X79618205Y-70672200D01*
X79832923Y-70583261D01*
X79997261Y-70418922D01*
X80086200Y-70204204D01*
X80086200Y-69493200D01*
X81636800Y-69493200D01*
X81636800Y-79350800D01*
X79838669Y-79350800D01*
X79838669Y-78756000D01*
X79815644Y-78633635D01*
X79743327Y-78521251D01*
X79632983Y-78445856D01*
X79502000Y-78419331D01*
X79197200Y-78419331D01*
X79197200Y-75946000D01*
X79162398Y-75771037D01*
X79063289Y-75622711D01*
X79016943Y-75576365D01*
X79038922Y-75567261D01*
X79203261Y-75402923D01*
X79292200Y-75188205D01*
X79292200Y-74745850D01*
X79146150Y-74599800D01*
X78595500Y-74599800D01*
X78595500Y-74619800D01*
X78370500Y-74619800D01*
X78370500Y-74599800D01*
X78285200Y-74599800D01*
X78285200Y-74244200D01*
X78370500Y-74244200D01*
X78370500Y-73711304D01*
X78442200Y-73538205D01*
X78442200Y-73455550D01*
X78370500Y-73383850D01*
X78370500Y-73333850D01*
X78595500Y-73333850D01*
X78595500Y-74244200D01*
X79146150Y-74244200D01*
X79292200Y-74098150D01*
X79292200Y-73655795D01*
X79203261Y-73441077D01*
X79038922Y-73276739D01*
X78824204Y-73187800D01*
X78741550Y-73187800D01*
X78595500Y-73333850D01*
X78370500Y-73333850D01*
X78224450Y-73187800D01*
X78141796Y-73187800D01*
X77927078Y-73276739D01*
X77894317Y-73309500D01*
X76885800Y-73309500D01*
X76885800Y-73394800D01*
X76530200Y-73394800D01*
X76530200Y-73309500D01*
X76510200Y-73309500D01*
X76510200Y-73084500D01*
X76530200Y-73084500D01*
X76530200Y-72533850D01*
X76885800Y-72533850D01*
X76885800Y-73084500D01*
X78296150Y-73084500D01*
X78442200Y-72938450D01*
X78442200Y-72855795D01*
X78353261Y-72641077D01*
X78188922Y-72476739D01*
X77974204Y-72387800D01*
X77031850Y-72387800D01*
X76885800Y-72533850D01*
X76530200Y-72533850D01*
X76384150Y-72387800D01*
X75441796Y-72387800D01*
X75227078Y-72476739D01*
X75062739Y-72641077D01*
X75032076Y-72715104D01*
X74930000Y-72694800D01*
X74531000Y-72694800D01*
X74356037Y-72729602D01*
X74207711Y-72828711D01*
X74071622Y-72964800D01*
X73859669Y-72964800D01*
X73859669Y-72922000D01*
X73836644Y-72799635D01*
X73764327Y-72687251D01*
X73653983Y-72611856D01*
X73523000Y-72585331D01*
X73482200Y-72585331D01*
X73482200Y-71345984D01*
X74403515Y-70424669D01*
X75438000Y-70424669D01*
X75560365Y-70401644D01*
X75672749Y-70329327D01*
X75748144Y-70218983D01*
X75774669Y-70088000D01*
X75774669Y-69493200D01*
X77393800Y-69493200D01*
X77393800Y-70204204D01*
X77393800Y-70204204D01*
G37*
X77393800Y-70204204D02*
X77482739Y-70418922D01*
X77647077Y-70583261D01*
X77861795Y-70672200D01*
X78416150Y-70672200D01*
X78562200Y-70526150D01*
X78562200Y-69493200D01*
X78917800Y-69493200D01*
X78917800Y-70526150D01*
X79063850Y-70672200D01*
X79618205Y-70672200D01*
X79832923Y-70583261D01*
X79997261Y-70418922D01*
X80086200Y-70204204D01*
X80086200Y-69493200D01*
X81636800Y-69493200D01*
X81636800Y-79350800D01*
X79838669Y-79350800D01*
X79838669Y-78756000D01*
X79815644Y-78633635D01*
X79743327Y-78521251D01*
X79632983Y-78445856D01*
X79502000Y-78419331D01*
X79197200Y-78419331D01*
X79197200Y-75946000D01*
X79162398Y-75771037D01*
X79063289Y-75622711D01*
X79016943Y-75576365D01*
X79038922Y-75567261D01*
X79203261Y-75402923D01*
X79292200Y-75188205D01*
X79292200Y-74745850D01*
X79146150Y-74599800D01*
X78595500Y-74599800D01*
X78595500Y-74619800D01*
X78370500Y-74619800D01*
X78370500Y-74599800D01*
X78285200Y-74599800D01*
X78285200Y-74244200D01*
X78370500Y-74244200D01*
X78370500Y-73711304D01*
X78442200Y-73538205D01*
X78442200Y-73455550D01*
X78370500Y-73383850D01*
X78370500Y-73333850D01*
X78595500Y-73333850D01*
X78595500Y-74244200D01*
X79146150Y-74244200D01*
X79292200Y-74098150D01*
X79292200Y-73655795D01*
X79203261Y-73441077D01*
X79038922Y-73276739D01*
X78824204Y-73187800D01*
X78741550Y-73187800D01*
X78595500Y-73333850D01*
X78370500Y-73333850D01*
X78224450Y-73187800D01*
X78141796Y-73187800D01*
X77927078Y-73276739D01*
X77894317Y-73309500D01*
X76885800Y-73309500D01*
X76885800Y-73394800D01*
X76530200Y-73394800D01*
X76530200Y-73309500D01*
X76510200Y-73309500D01*
X76510200Y-73084500D01*
X76530200Y-73084500D01*
X76530200Y-72533850D01*
X76885800Y-72533850D01*
X76885800Y-73084500D01*
X78296150Y-73084500D01*
X78442200Y-72938450D01*
X78442200Y-72855795D01*
X78353261Y-72641077D01*
X78188922Y-72476739D01*
X77974204Y-72387800D01*
X77031850Y-72387800D01*
X76885800Y-72533850D01*
X76530200Y-72533850D01*
X76384150Y-72387800D01*
X75441796Y-72387800D01*
X75227078Y-72476739D01*
X75062739Y-72641077D01*
X75032076Y-72715104D01*
X74930000Y-72694800D01*
X74531000Y-72694800D01*
X74356037Y-72729602D01*
X74207711Y-72828711D01*
X74071622Y-72964800D01*
X73859669Y-72964800D01*
X73859669Y-72922000D01*
X73836644Y-72799635D01*
X73764327Y-72687251D01*
X73653983Y-72611856D01*
X73523000Y-72585331D01*
X73482200Y-72585331D01*
X73482200Y-71345984D01*
X74403515Y-70424669D01*
X75438000Y-70424669D01*
X75560365Y-70401644D01*
X75672749Y-70329327D01*
X75748144Y-70218983D01*
X75774669Y-70088000D01*
X75774669Y-69493200D01*
X77393800Y-69493200D01*
X77393800Y-70204204D01*
G36*
X76885800Y-75584500D02*
X76905800Y-75584500D01*
X76905800Y-75809500D01*
X76885800Y-75809500D01*
X76885800Y-76360150D01*
X77031850Y-76506200D01*
X77974204Y-76506200D01*
X78188922Y-76417261D01*
X78282800Y-76323384D01*
X78282800Y-78419331D01*
X77978000Y-78419331D01*
X77855635Y-78442356D01*
X77743251Y-78514673D01*
X77667856Y-78625017D01*
X77641331Y-78756000D01*
X77641331Y-79350800D01*
X75774669Y-79350800D01*
X75774669Y-78756000D01*
X75751644Y-78633635D01*
X75679327Y-78521251D01*
X75568983Y-78445856D01*
X75438000Y-78419331D01*
X75133200Y-78419331D01*
X75133200Y-76323384D01*
X75227078Y-76417261D01*
X75441796Y-76506200D01*
X76384150Y-76506200D01*
X76530200Y-76360150D01*
X76530200Y-75809500D01*
X76510200Y-75809500D01*
X76510200Y-75584500D01*
X76530200Y-75584500D01*
X76530200Y-75499200D01*
X76885800Y-75499200D01*
X76885800Y-75584500D01*
X76885800Y-75584500D01*
G37*
X76885800Y-75584500D02*
X76905800Y-75584500D01*
X76905800Y-75809500D01*
X76885800Y-75809500D01*
X76885800Y-76360150D01*
X77031850Y-76506200D01*
X77974204Y-76506200D01*
X78188922Y-76417261D01*
X78282800Y-76323384D01*
X78282800Y-78419331D01*
X77978000Y-78419331D01*
X77855635Y-78442356D01*
X77743251Y-78514673D01*
X77667856Y-78625017D01*
X77641331Y-78756000D01*
X77641331Y-79350800D01*
X75774669Y-79350800D01*
X75774669Y-78756000D01*
X75751644Y-78633635D01*
X75679327Y-78521251D01*
X75568983Y-78445856D01*
X75438000Y-78419331D01*
X75133200Y-78419331D01*
X75133200Y-76323384D01*
X75227078Y-76417261D01*
X75441796Y-76506200D01*
X76384150Y-76506200D01*
X76530200Y-76360150D01*
X76530200Y-75809500D01*
X76510200Y-75809500D01*
X76510200Y-75584500D01*
X76530200Y-75584500D01*
X76530200Y-75499200D01*
X76885800Y-75499200D01*
X76885800Y-75584500D01*
G36*
X73577331Y-69598485D02*
X72484908Y-70690908D01*
X72358270Y-70880436D01*
X72313800Y-71104000D01*
X72313800Y-72585331D01*
X72273000Y-72585331D01*
X72150635Y-72608356D01*
X72038251Y-72680673D01*
X71962856Y-72791017D01*
X71936331Y-72922000D01*
X71936331Y-73922000D01*
X71959356Y-74044365D01*
X72031673Y-74156749D01*
X72142017Y-74232144D01*
X72273000Y-74258669D01*
X73523000Y-74258669D01*
X73645365Y-74235644D01*
X73757749Y-74163327D01*
X73833144Y-74052983D01*
X73859669Y-73922000D01*
X73859669Y-73879200D01*
X74123800Y-73879200D01*
X74123800Y-74098150D01*
X74269850Y-74244200D01*
X74820500Y-74244200D01*
X74820500Y-74224200D01*
X75045500Y-74224200D01*
X75045500Y-74244200D01*
X75130800Y-74244200D01*
X75130800Y-74599800D01*
X75045500Y-74599800D01*
X75045500Y-74619800D01*
X74820500Y-74619800D01*
X74820500Y-74599800D01*
X74269850Y-74599800D01*
X74123800Y-74745850D01*
X74123800Y-75188205D01*
X74212739Y-75402923D01*
X74377078Y-75567261D01*
X74399057Y-75576365D01*
X74352711Y-75622711D01*
X74253602Y-75771037D01*
X74218800Y-75946000D01*
X74218800Y-78419331D01*
X73914000Y-78419331D01*
X73791635Y-78442356D01*
X73679251Y-78514673D01*
X73603856Y-78625017D01*
X73577331Y-78756000D01*
X73577331Y-79350800D01*
X71779200Y-79350800D01*
X71779200Y-76254384D01*
X71942078Y-76417261D01*
X72156796Y-76506200D01*
X72574150Y-76506200D01*
X72720200Y-76360150D01*
X72720200Y-75599800D01*
X73075800Y-75599800D01*
X73075800Y-76360150D01*
X73221850Y-76506200D01*
X73639204Y-76506200D01*
X73853922Y-76417261D01*
X74018261Y-76252923D01*
X74107200Y-76038205D01*
X74107200Y-75745850D01*
X73961150Y-75599800D01*
X73075800Y-75599800D01*
X72720200Y-75599800D01*
X72700200Y-75599800D01*
X72700200Y-75244200D01*
X72720200Y-75244200D01*
X72720200Y-74483850D01*
X73075800Y-74483850D01*
X73075800Y-75244200D01*
X73961150Y-75244200D01*
X74107200Y-75098150D01*
X74107200Y-74805795D01*
X74018261Y-74591077D01*
X73853922Y-74426739D01*
X73639204Y-74337800D01*
X73221850Y-74337800D01*
X73075800Y-74483850D01*
X72720200Y-74483850D01*
X72574150Y-74337800D01*
X72156796Y-74337800D01*
X71942078Y-74426739D01*
X71779200Y-74589616D01*
X71779200Y-69493200D01*
X73577331Y-69493200D01*
X73577331Y-69598485D01*
X73577331Y-69598485D01*
G37*
X73577331Y-69598485D02*
X72484908Y-70690908D01*
X72358270Y-70880436D01*
X72313800Y-71104000D01*
X72313800Y-72585331D01*
X72273000Y-72585331D01*
X72150635Y-72608356D01*
X72038251Y-72680673D01*
X71962856Y-72791017D01*
X71936331Y-72922000D01*
X71936331Y-73922000D01*
X71959356Y-74044365D01*
X72031673Y-74156749D01*
X72142017Y-74232144D01*
X72273000Y-74258669D01*
X73523000Y-74258669D01*
X73645365Y-74235644D01*
X73757749Y-74163327D01*
X73833144Y-74052983D01*
X73859669Y-73922000D01*
X73859669Y-73879200D01*
X74123800Y-73879200D01*
X74123800Y-74098150D01*
X74269850Y-74244200D01*
X74820500Y-74244200D01*
X74820500Y-74224200D01*
X75045500Y-74224200D01*
X75045500Y-74244200D01*
X75130800Y-74244200D01*
X75130800Y-74599800D01*
X75045500Y-74599800D01*
X75045500Y-74619800D01*
X74820500Y-74619800D01*
X74820500Y-74599800D01*
X74269850Y-74599800D01*
X74123800Y-74745850D01*
X74123800Y-75188205D01*
X74212739Y-75402923D01*
X74377078Y-75567261D01*
X74399057Y-75576365D01*
X74352711Y-75622711D01*
X74253602Y-75771037D01*
X74218800Y-75946000D01*
X74218800Y-78419331D01*
X73914000Y-78419331D01*
X73791635Y-78442356D01*
X73679251Y-78514673D01*
X73603856Y-78625017D01*
X73577331Y-78756000D01*
X73577331Y-79350800D01*
X71779200Y-79350800D01*
X71779200Y-76254384D01*
X71942078Y-76417261D01*
X72156796Y-76506200D01*
X72574150Y-76506200D01*
X72720200Y-76360150D01*
X72720200Y-75599800D01*
X73075800Y-75599800D01*
X73075800Y-76360150D01*
X73221850Y-76506200D01*
X73639204Y-76506200D01*
X73853922Y-76417261D01*
X74018261Y-76252923D01*
X74107200Y-76038205D01*
X74107200Y-75745850D01*
X73961150Y-75599800D01*
X73075800Y-75599800D01*
X72720200Y-75599800D01*
X72700200Y-75599800D01*
X72700200Y-75244200D01*
X72720200Y-75244200D01*
X72720200Y-74483850D01*
X73075800Y-74483850D01*
X73075800Y-75244200D01*
X73961150Y-75244200D01*
X74107200Y-75098150D01*
X74107200Y-74805795D01*
X74018261Y-74591077D01*
X73853922Y-74426739D01*
X73639204Y-74337800D01*
X73221850Y-74337800D01*
X73075800Y-74483850D01*
X72720200Y-74483850D01*
X72574150Y-74337800D01*
X72156796Y-74337800D01*
X71942078Y-74426739D01*
X71779200Y-74589616D01*
X71779200Y-69493200D01*
X73577331Y-69493200D01*
X73577331Y-69598485D01*
G36*
X77393800Y-85444204D02*
X77482739Y-85658922D01*
X77647077Y-85823261D01*
X77861795Y-85912200D01*
X78416150Y-85912200D01*
X78562200Y-85766150D01*
X78562200Y-84733200D01*
X78917800Y-84733200D01*
X78917800Y-85766150D01*
X79063850Y-85912200D01*
X79618205Y-85912200D01*
X79832923Y-85823261D01*
X79997261Y-85658922D01*
X80086200Y-85444204D01*
X80086200Y-84733200D01*
X81636800Y-84733200D01*
X81636800Y-94590800D01*
X79838669Y-94590800D01*
X79838669Y-93996000D01*
X79815644Y-93873635D01*
X79743327Y-93761251D01*
X79632983Y-93685856D01*
X79502000Y-93659331D01*
X79197200Y-93659331D01*
X79197200Y-91186000D01*
X79162398Y-91011037D01*
X79063289Y-90862711D01*
X79016943Y-90816365D01*
X79038922Y-90807261D01*
X79203261Y-90642923D01*
X79292200Y-90428205D01*
X79292200Y-89985850D01*
X79146150Y-89839800D01*
X78595500Y-89839800D01*
X78595500Y-89859800D01*
X78370500Y-89859800D01*
X78370500Y-89839800D01*
X78285200Y-89839800D01*
X78285200Y-89484200D01*
X78370500Y-89484200D01*
X78370500Y-88951304D01*
X78442200Y-88778205D01*
X78442200Y-88695550D01*
X78370500Y-88623850D01*
X78370500Y-88573850D01*
X78595500Y-88573850D01*
X78595500Y-89484200D01*
X79146150Y-89484200D01*
X79292200Y-89338150D01*
X79292200Y-88895795D01*
X79203261Y-88681077D01*
X79038922Y-88516739D01*
X78824204Y-88427800D01*
X78741550Y-88427800D01*
X78595500Y-88573850D01*
X78370500Y-88573850D01*
X78224450Y-88427800D01*
X78141796Y-88427800D01*
X77927078Y-88516739D01*
X77894317Y-88549500D01*
X76885800Y-88549500D01*
X76885800Y-88634800D01*
X76530200Y-88634800D01*
X76530200Y-88549500D01*
X76510200Y-88549500D01*
X76510200Y-88324500D01*
X76530200Y-88324500D01*
X76530200Y-87773850D01*
X76885800Y-87773850D01*
X76885800Y-88324500D01*
X78296150Y-88324500D01*
X78442200Y-88178450D01*
X78442200Y-88095795D01*
X78353261Y-87881077D01*
X78188922Y-87716739D01*
X77974204Y-87627800D01*
X77031850Y-87627800D01*
X76885800Y-87773850D01*
X76530200Y-87773850D01*
X76384150Y-87627800D01*
X75441796Y-87627800D01*
X75227078Y-87716739D01*
X75062739Y-87881077D01*
X75032076Y-87955104D01*
X74930000Y-87934800D01*
X74531000Y-87934800D01*
X74356037Y-87969602D01*
X74207711Y-88068711D01*
X74071622Y-88204800D01*
X73859669Y-88204800D01*
X73859669Y-88162000D01*
X73836644Y-88039635D01*
X73764327Y-87927251D01*
X73653983Y-87851856D01*
X73523000Y-87825331D01*
X73482200Y-87825331D01*
X73482200Y-86585984D01*
X74403515Y-85664669D01*
X75438000Y-85664669D01*
X75560365Y-85641644D01*
X75672749Y-85569327D01*
X75748144Y-85458983D01*
X75774669Y-85328000D01*
X75774669Y-84733200D01*
X77393800Y-84733200D01*
X77393800Y-85444204D01*
X77393800Y-85444204D01*
G37*
X77393800Y-85444204D02*
X77482739Y-85658922D01*
X77647077Y-85823261D01*
X77861795Y-85912200D01*
X78416150Y-85912200D01*
X78562200Y-85766150D01*
X78562200Y-84733200D01*
X78917800Y-84733200D01*
X78917800Y-85766150D01*
X79063850Y-85912200D01*
X79618205Y-85912200D01*
X79832923Y-85823261D01*
X79997261Y-85658922D01*
X80086200Y-85444204D01*
X80086200Y-84733200D01*
X81636800Y-84733200D01*
X81636800Y-94590800D01*
X79838669Y-94590800D01*
X79838669Y-93996000D01*
X79815644Y-93873635D01*
X79743327Y-93761251D01*
X79632983Y-93685856D01*
X79502000Y-93659331D01*
X79197200Y-93659331D01*
X79197200Y-91186000D01*
X79162398Y-91011037D01*
X79063289Y-90862711D01*
X79016943Y-90816365D01*
X79038922Y-90807261D01*
X79203261Y-90642923D01*
X79292200Y-90428205D01*
X79292200Y-89985850D01*
X79146150Y-89839800D01*
X78595500Y-89839800D01*
X78595500Y-89859800D01*
X78370500Y-89859800D01*
X78370500Y-89839800D01*
X78285200Y-89839800D01*
X78285200Y-89484200D01*
X78370500Y-89484200D01*
X78370500Y-88951304D01*
X78442200Y-88778205D01*
X78442200Y-88695550D01*
X78370500Y-88623850D01*
X78370500Y-88573850D01*
X78595500Y-88573850D01*
X78595500Y-89484200D01*
X79146150Y-89484200D01*
X79292200Y-89338150D01*
X79292200Y-88895795D01*
X79203261Y-88681077D01*
X79038922Y-88516739D01*
X78824204Y-88427800D01*
X78741550Y-88427800D01*
X78595500Y-88573850D01*
X78370500Y-88573850D01*
X78224450Y-88427800D01*
X78141796Y-88427800D01*
X77927078Y-88516739D01*
X77894317Y-88549500D01*
X76885800Y-88549500D01*
X76885800Y-88634800D01*
X76530200Y-88634800D01*
X76530200Y-88549500D01*
X76510200Y-88549500D01*
X76510200Y-88324500D01*
X76530200Y-88324500D01*
X76530200Y-87773850D01*
X76885800Y-87773850D01*
X76885800Y-88324500D01*
X78296150Y-88324500D01*
X78442200Y-88178450D01*
X78442200Y-88095795D01*
X78353261Y-87881077D01*
X78188922Y-87716739D01*
X77974204Y-87627800D01*
X77031850Y-87627800D01*
X76885800Y-87773850D01*
X76530200Y-87773850D01*
X76384150Y-87627800D01*
X75441796Y-87627800D01*
X75227078Y-87716739D01*
X75062739Y-87881077D01*
X75032076Y-87955104D01*
X74930000Y-87934800D01*
X74531000Y-87934800D01*
X74356037Y-87969602D01*
X74207711Y-88068711D01*
X74071622Y-88204800D01*
X73859669Y-88204800D01*
X73859669Y-88162000D01*
X73836644Y-88039635D01*
X73764327Y-87927251D01*
X73653983Y-87851856D01*
X73523000Y-87825331D01*
X73482200Y-87825331D01*
X73482200Y-86585984D01*
X74403515Y-85664669D01*
X75438000Y-85664669D01*
X75560365Y-85641644D01*
X75672749Y-85569327D01*
X75748144Y-85458983D01*
X75774669Y-85328000D01*
X75774669Y-84733200D01*
X77393800Y-84733200D01*
X77393800Y-85444204D01*
G36*
X76885800Y-90824500D02*
X76905800Y-90824500D01*
X76905800Y-91049500D01*
X76885800Y-91049500D01*
X76885800Y-91600150D01*
X77031850Y-91746200D01*
X77974204Y-91746200D01*
X78188922Y-91657261D01*
X78282800Y-91563384D01*
X78282800Y-93659331D01*
X77978000Y-93659331D01*
X77855635Y-93682356D01*
X77743251Y-93754673D01*
X77667856Y-93865017D01*
X77641331Y-93996000D01*
X77641331Y-94590800D01*
X75774669Y-94590800D01*
X75774669Y-93996000D01*
X75751644Y-93873635D01*
X75679327Y-93761251D01*
X75568983Y-93685856D01*
X75438000Y-93659331D01*
X75133200Y-93659331D01*
X75133200Y-91563384D01*
X75227078Y-91657261D01*
X75441796Y-91746200D01*
X76384150Y-91746200D01*
X76530200Y-91600150D01*
X76530200Y-91049500D01*
X76510200Y-91049500D01*
X76510200Y-90824500D01*
X76530200Y-90824500D01*
X76530200Y-90739200D01*
X76885800Y-90739200D01*
X76885800Y-90824500D01*
X76885800Y-90824500D01*
G37*
X76885800Y-90824500D02*
X76905800Y-90824500D01*
X76905800Y-91049500D01*
X76885800Y-91049500D01*
X76885800Y-91600150D01*
X77031850Y-91746200D01*
X77974204Y-91746200D01*
X78188922Y-91657261D01*
X78282800Y-91563384D01*
X78282800Y-93659331D01*
X77978000Y-93659331D01*
X77855635Y-93682356D01*
X77743251Y-93754673D01*
X77667856Y-93865017D01*
X77641331Y-93996000D01*
X77641331Y-94590800D01*
X75774669Y-94590800D01*
X75774669Y-93996000D01*
X75751644Y-93873635D01*
X75679327Y-93761251D01*
X75568983Y-93685856D01*
X75438000Y-93659331D01*
X75133200Y-93659331D01*
X75133200Y-91563384D01*
X75227078Y-91657261D01*
X75441796Y-91746200D01*
X76384150Y-91746200D01*
X76530200Y-91600150D01*
X76530200Y-91049500D01*
X76510200Y-91049500D01*
X76510200Y-90824500D01*
X76530200Y-90824500D01*
X76530200Y-90739200D01*
X76885800Y-90739200D01*
X76885800Y-90824500D01*
G36*
X73577331Y-84838485D02*
X72484908Y-85930908D01*
X72358270Y-86120436D01*
X72313800Y-86344000D01*
X72313800Y-87825331D01*
X72273000Y-87825331D01*
X72150635Y-87848356D01*
X72038251Y-87920673D01*
X71962856Y-88031017D01*
X71936331Y-88162000D01*
X71936331Y-89162000D01*
X71959356Y-89284365D01*
X72031673Y-89396749D01*
X72142017Y-89472144D01*
X72273000Y-89498669D01*
X73523000Y-89498669D01*
X73645365Y-89475644D01*
X73757749Y-89403327D01*
X73833144Y-89292983D01*
X73859669Y-89162000D01*
X73859669Y-89119200D01*
X74123800Y-89119200D01*
X74123800Y-89338150D01*
X74269850Y-89484200D01*
X74820500Y-89484200D01*
X74820500Y-89464200D01*
X75045500Y-89464200D01*
X75045500Y-89484200D01*
X75130800Y-89484200D01*
X75130800Y-89839800D01*
X75045500Y-89839800D01*
X75045500Y-89859800D01*
X74820500Y-89859800D01*
X74820500Y-89839800D01*
X74269850Y-89839800D01*
X74123800Y-89985850D01*
X74123800Y-90428205D01*
X74212739Y-90642923D01*
X74377078Y-90807261D01*
X74399057Y-90816365D01*
X74352711Y-90862711D01*
X74253602Y-91011037D01*
X74218800Y-91186000D01*
X74218800Y-93659331D01*
X73914000Y-93659331D01*
X73791635Y-93682356D01*
X73679251Y-93754673D01*
X73603856Y-93865017D01*
X73577331Y-93996000D01*
X73577331Y-94590800D01*
X71779200Y-94590800D01*
X71779200Y-91494384D01*
X71942078Y-91657261D01*
X72156796Y-91746200D01*
X72574150Y-91746200D01*
X72720200Y-91600150D01*
X72720200Y-90839800D01*
X73075800Y-90839800D01*
X73075800Y-91600150D01*
X73221850Y-91746200D01*
X73639204Y-91746200D01*
X73853922Y-91657261D01*
X74018261Y-91492923D01*
X74107200Y-91278205D01*
X74107200Y-90985850D01*
X73961150Y-90839800D01*
X73075800Y-90839800D01*
X72720200Y-90839800D01*
X72700200Y-90839800D01*
X72700200Y-90484200D01*
X72720200Y-90484200D01*
X72720200Y-89723850D01*
X73075800Y-89723850D01*
X73075800Y-90484200D01*
X73961150Y-90484200D01*
X74107200Y-90338150D01*
X74107200Y-90045795D01*
X74018261Y-89831077D01*
X73853922Y-89666739D01*
X73639204Y-89577800D01*
X73221850Y-89577800D01*
X73075800Y-89723850D01*
X72720200Y-89723850D01*
X72574150Y-89577800D01*
X72156796Y-89577800D01*
X71942078Y-89666739D01*
X71779200Y-89829616D01*
X71779200Y-84733200D01*
X73577331Y-84733200D01*
X73577331Y-84838485D01*
X73577331Y-84838485D01*
G37*
X73577331Y-84838485D02*
X72484908Y-85930908D01*
X72358270Y-86120436D01*
X72313800Y-86344000D01*
X72313800Y-87825331D01*
X72273000Y-87825331D01*
X72150635Y-87848356D01*
X72038251Y-87920673D01*
X71962856Y-88031017D01*
X71936331Y-88162000D01*
X71936331Y-89162000D01*
X71959356Y-89284365D01*
X72031673Y-89396749D01*
X72142017Y-89472144D01*
X72273000Y-89498669D01*
X73523000Y-89498669D01*
X73645365Y-89475644D01*
X73757749Y-89403327D01*
X73833144Y-89292983D01*
X73859669Y-89162000D01*
X73859669Y-89119200D01*
X74123800Y-89119200D01*
X74123800Y-89338150D01*
X74269850Y-89484200D01*
X74820500Y-89484200D01*
X74820500Y-89464200D01*
X75045500Y-89464200D01*
X75045500Y-89484200D01*
X75130800Y-89484200D01*
X75130800Y-89839800D01*
X75045500Y-89839800D01*
X75045500Y-89859800D01*
X74820500Y-89859800D01*
X74820500Y-89839800D01*
X74269850Y-89839800D01*
X74123800Y-89985850D01*
X74123800Y-90428205D01*
X74212739Y-90642923D01*
X74377078Y-90807261D01*
X74399057Y-90816365D01*
X74352711Y-90862711D01*
X74253602Y-91011037D01*
X74218800Y-91186000D01*
X74218800Y-93659331D01*
X73914000Y-93659331D01*
X73791635Y-93682356D01*
X73679251Y-93754673D01*
X73603856Y-93865017D01*
X73577331Y-93996000D01*
X73577331Y-94590800D01*
X71779200Y-94590800D01*
X71779200Y-91494384D01*
X71942078Y-91657261D01*
X72156796Y-91746200D01*
X72574150Y-91746200D01*
X72720200Y-91600150D01*
X72720200Y-90839800D01*
X73075800Y-90839800D01*
X73075800Y-91600150D01*
X73221850Y-91746200D01*
X73639204Y-91746200D01*
X73853922Y-91657261D01*
X74018261Y-91492923D01*
X74107200Y-91278205D01*
X74107200Y-90985850D01*
X73961150Y-90839800D01*
X73075800Y-90839800D01*
X72720200Y-90839800D01*
X72700200Y-90839800D01*
X72700200Y-90484200D01*
X72720200Y-90484200D01*
X72720200Y-89723850D01*
X73075800Y-89723850D01*
X73075800Y-90484200D01*
X73961150Y-90484200D01*
X74107200Y-90338150D01*
X74107200Y-90045795D01*
X74018261Y-89831077D01*
X73853922Y-89666739D01*
X73639204Y-89577800D01*
X73221850Y-89577800D01*
X73075800Y-89723850D01*
X72720200Y-89723850D01*
X72574150Y-89577800D01*
X72156796Y-89577800D01*
X71942078Y-89666739D01*
X71779200Y-89829616D01*
X71779200Y-84733200D01*
X73577331Y-84733200D01*
X73577331Y-84838485D01*
G36*
X56057800Y-54964204D02*
X56146739Y-55178922D01*
X56311077Y-55343261D01*
X56525795Y-55432200D01*
X57080150Y-55432200D01*
X57226200Y-55286150D01*
X57226200Y-54253200D01*
X57581800Y-54253200D01*
X57581800Y-55286150D01*
X57727850Y-55432200D01*
X58282205Y-55432200D01*
X58496923Y-55343261D01*
X58661261Y-55178922D01*
X58750200Y-54964204D01*
X58750200Y-54253200D01*
X60300800Y-54253200D01*
X60300800Y-64110800D01*
X58502669Y-64110800D01*
X58502669Y-63516000D01*
X58479644Y-63393635D01*
X58407327Y-63281251D01*
X58296983Y-63205856D01*
X58166000Y-63179331D01*
X57861200Y-63179331D01*
X57861200Y-60706000D01*
X57826398Y-60531037D01*
X57727289Y-60382711D01*
X57680943Y-60336365D01*
X57702922Y-60327261D01*
X57867261Y-60162923D01*
X57956200Y-59948205D01*
X57956200Y-59505850D01*
X57810150Y-59359800D01*
X57259500Y-59359800D01*
X57259500Y-59379800D01*
X57034500Y-59379800D01*
X57034500Y-59359800D01*
X56949200Y-59359800D01*
X56949200Y-59004200D01*
X57034500Y-59004200D01*
X57034500Y-58471304D01*
X57106200Y-58298205D01*
X57106200Y-58215550D01*
X57034500Y-58143850D01*
X57034500Y-58093850D01*
X57259500Y-58093850D01*
X57259500Y-59004200D01*
X57810150Y-59004200D01*
X57956200Y-58858150D01*
X57956200Y-58415795D01*
X57867261Y-58201077D01*
X57702922Y-58036739D01*
X57488204Y-57947800D01*
X57405550Y-57947800D01*
X57259500Y-58093850D01*
X57034500Y-58093850D01*
X56888450Y-57947800D01*
X56805796Y-57947800D01*
X56591078Y-58036739D01*
X56558317Y-58069500D01*
X55549800Y-58069500D01*
X55549800Y-58154800D01*
X55194200Y-58154800D01*
X55194200Y-58069500D01*
X55174200Y-58069500D01*
X55174200Y-57844500D01*
X55194200Y-57844500D01*
X55194200Y-57293850D01*
X55549800Y-57293850D01*
X55549800Y-57844500D01*
X56960150Y-57844500D01*
X57106200Y-57698450D01*
X57106200Y-57615795D01*
X57017261Y-57401077D01*
X56852922Y-57236739D01*
X56638204Y-57147800D01*
X55695850Y-57147800D01*
X55549800Y-57293850D01*
X55194200Y-57293850D01*
X55048150Y-57147800D01*
X54105796Y-57147800D01*
X53891078Y-57236739D01*
X53726739Y-57401077D01*
X53696076Y-57475104D01*
X53594000Y-57454800D01*
X53195000Y-57454800D01*
X53020037Y-57489602D01*
X52871711Y-57588711D01*
X52735622Y-57724800D01*
X52523669Y-57724800D01*
X52523669Y-57682000D01*
X52500644Y-57559635D01*
X52428327Y-57447251D01*
X52317983Y-57371856D01*
X52187000Y-57345331D01*
X52146200Y-57345331D01*
X52146200Y-56105984D01*
X53067515Y-55184669D01*
X54102000Y-55184669D01*
X54224365Y-55161644D01*
X54336749Y-55089327D01*
X54412144Y-54978983D01*
X54438669Y-54848000D01*
X54438669Y-54253200D01*
X56057800Y-54253200D01*
X56057800Y-54964204D01*
X56057800Y-54964204D01*
G37*
X56057800Y-54964204D02*
X56146739Y-55178922D01*
X56311077Y-55343261D01*
X56525795Y-55432200D01*
X57080150Y-55432200D01*
X57226200Y-55286150D01*
X57226200Y-54253200D01*
X57581800Y-54253200D01*
X57581800Y-55286150D01*
X57727850Y-55432200D01*
X58282205Y-55432200D01*
X58496923Y-55343261D01*
X58661261Y-55178922D01*
X58750200Y-54964204D01*
X58750200Y-54253200D01*
X60300800Y-54253200D01*
X60300800Y-64110800D01*
X58502669Y-64110800D01*
X58502669Y-63516000D01*
X58479644Y-63393635D01*
X58407327Y-63281251D01*
X58296983Y-63205856D01*
X58166000Y-63179331D01*
X57861200Y-63179331D01*
X57861200Y-60706000D01*
X57826398Y-60531037D01*
X57727289Y-60382711D01*
X57680943Y-60336365D01*
X57702922Y-60327261D01*
X57867261Y-60162923D01*
X57956200Y-59948205D01*
X57956200Y-59505850D01*
X57810150Y-59359800D01*
X57259500Y-59359800D01*
X57259500Y-59379800D01*
X57034500Y-59379800D01*
X57034500Y-59359800D01*
X56949200Y-59359800D01*
X56949200Y-59004200D01*
X57034500Y-59004200D01*
X57034500Y-58471304D01*
X57106200Y-58298205D01*
X57106200Y-58215550D01*
X57034500Y-58143850D01*
X57034500Y-58093850D01*
X57259500Y-58093850D01*
X57259500Y-59004200D01*
X57810150Y-59004200D01*
X57956200Y-58858150D01*
X57956200Y-58415795D01*
X57867261Y-58201077D01*
X57702922Y-58036739D01*
X57488204Y-57947800D01*
X57405550Y-57947800D01*
X57259500Y-58093850D01*
X57034500Y-58093850D01*
X56888450Y-57947800D01*
X56805796Y-57947800D01*
X56591078Y-58036739D01*
X56558317Y-58069500D01*
X55549800Y-58069500D01*
X55549800Y-58154800D01*
X55194200Y-58154800D01*
X55194200Y-58069500D01*
X55174200Y-58069500D01*
X55174200Y-57844500D01*
X55194200Y-57844500D01*
X55194200Y-57293850D01*
X55549800Y-57293850D01*
X55549800Y-57844500D01*
X56960150Y-57844500D01*
X57106200Y-57698450D01*
X57106200Y-57615795D01*
X57017261Y-57401077D01*
X56852922Y-57236739D01*
X56638204Y-57147800D01*
X55695850Y-57147800D01*
X55549800Y-57293850D01*
X55194200Y-57293850D01*
X55048150Y-57147800D01*
X54105796Y-57147800D01*
X53891078Y-57236739D01*
X53726739Y-57401077D01*
X53696076Y-57475104D01*
X53594000Y-57454800D01*
X53195000Y-57454800D01*
X53020037Y-57489602D01*
X52871711Y-57588711D01*
X52735622Y-57724800D01*
X52523669Y-57724800D01*
X52523669Y-57682000D01*
X52500644Y-57559635D01*
X52428327Y-57447251D01*
X52317983Y-57371856D01*
X52187000Y-57345331D01*
X52146200Y-57345331D01*
X52146200Y-56105984D01*
X53067515Y-55184669D01*
X54102000Y-55184669D01*
X54224365Y-55161644D01*
X54336749Y-55089327D01*
X54412144Y-54978983D01*
X54438669Y-54848000D01*
X54438669Y-54253200D01*
X56057800Y-54253200D01*
X56057800Y-54964204D01*
G36*
X55549800Y-60344500D02*
X55569800Y-60344500D01*
X55569800Y-60569500D01*
X55549800Y-60569500D01*
X55549800Y-61120150D01*
X55695850Y-61266200D01*
X56638204Y-61266200D01*
X56852922Y-61177261D01*
X56946800Y-61083384D01*
X56946800Y-63179331D01*
X56642000Y-63179331D01*
X56519635Y-63202356D01*
X56407251Y-63274673D01*
X56331856Y-63385017D01*
X56305331Y-63516000D01*
X56305331Y-64110800D01*
X54438669Y-64110800D01*
X54438669Y-63516000D01*
X54415644Y-63393635D01*
X54343327Y-63281251D01*
X54232983Y-63205856D01*
X54102000Y-63179331D01*
X53797200Y-63179331D01*
X53797200Y-61083384D01*
X53891078Y-61177261D01*
X54105796Y-61266200D01*
X55048150Y-61266200D01*
X55194200Y-61120150D01*
X55194200Y-60569500D01*
X55174200Y-60569500D01*
X55174200Y-60344500D01*
X55194200Y-60344500D01*
X55194200Y-60259200D01*
X55549800Y-60259200D01*
X55549800Y-60344500D01*
X55549800Y-60344500D01*
G37*
X55549800Y-60344500D02*
X55569800Y-60344500D01*
X55569800Y-60569500D01*
X55549800Y-60569500D01*
X55549800Y-61120150D01*
X55695850Y-61266200D01*
X56638204Y-61266200D01*
X56852922Y-61177261D01*
X56946800Y-61083384D01*
X56946800Y-63179331D01*
X56642000Y-63179331D01*
X56519635Y-63202356D01*
X56407251Y-63274673D01*
X56331856Y-63385017D01*
X56305331Y-63516000D01*
X56305331Y-64110800D01*
X54438669Y-64110800D01*
X54438669Y-63516000D01*
X54415644Y-63393635D01*
X54343327Y-63281251D01*
X54232983Y-63205856D01*
X54102000Y-63179331D01*
X53797200Y-63179331D01*
X53797200Y-61083384D01*
X53891078Y-61177261D01*
X54105796Y-61266200D01*
X55048150Y-61266200D01*
X55194200Y-61120150D01*
X55194200Y-60569500D01*
X55174200Y-60569500D01*
X55174200Y-60344500D01*
X55194200Y-60344500D01*
X55194200Y-60259200D01*
X55549800Y-60259200D01*
X55549800Y-60344500D01*
G36*
X52241331Y-54358485D02*
X51148908Y-55450908D01*
X51022270Y-55640436D01*
X50977800Y-55864000D01*
X50977800Y-57345331D01*
X50937000Y-57345331D01*
X50814635Y-57368356D01*
X50702251Y-57440673D01*
X50626856Y-57551017D01*
X50600331Y-57682000D01*
X50600331Y-58682000D01*
X50623356Y-58804365D01*
X50695673Y-58916749D01*
X50806017Y-58992144D01*
X50937000Y-59018669D01*
X52187000Y-59018669D01*
X52309365Y-58995644D01*
X52421749Y-58923327D01*
X52497144Y-58812983D01*
X52523669Y-58682000D01*
X52523669Y-58639200D01*
X52787800Y-58639200D01*
X52787800Y-58858150D01*
X52933850Y-59004200D01*
X53484500Y-59004200D01*
X53484500Y-58984200D01*
X53709500Y-58984200D01*
X53709500Y-59004200D01*
X53794800Y-59004200D01*
X53794800Y-59359800D01*
X53709500Y-59359800D01*
X53709500Y-59379800D01*
X53484500Y-59379800D01*
X53484500Y-59359800D01*
X52933850Y-59359800D01*
X52787800Y-59505850D01*
X52787800Y-59948205D01*
X52876739Y-60162923D01*
X53041078Y-60327261D01*
X53063057Y-60336365D01*
X53016711Y-60382711D01*
X52917602Y-60531037D01*
X52882800Y-60706000D01*
X52882800Y-63179331D01*
X52578000Y-63179331D01*
X52455635Y-63202356D01*
X52343251Y-63274673D01*
X52267856Y-63385017D01*
X52241331Y-63516000D01*
X52241331Y-64110800D01*
X50443200Y-64110800D01*
X50443200Y-61014384D01*
X50606078Y-61177261D01*
X50820796Y-61266200D01*
X51238150Y-61266200D01*
X51384200Y-61120150D01*
X51384200Y-60359800D01*
X51739800Y-60359800D01*
X51739800Y-61120150D01*
X51885850Y-61266200D01*
X52303204Y-61266200D01*
X52517922Y-61177261D01*
X52682261Y-61012923D01*
X52771200Y-60798205D01*
X52771200Y-60505850D01*
X52625150Y-60359800D01*
X51739800Y-60359800D01*
X51384200Y-60359800D01*
X51364200Y-60359800D01*
X51364200Y-60004200D01*
X51384200Y-60004200D01*
X51384200Y-59243850D01*
X51739800Y-59243850D01*
X51739800Y-60004200D01*
X52625150Y-60004200D01*
X52771200Y-59858150D01*
X52771200Y-59565795D01*
X52682261Y-59351077D01*
X52517922Y-59186739D01*
X52303204Y-59097800D01*
X51885850Y-59097800D01*
X51739800Y-59243850D01*
X51384200Y-59243850D01*
X51238150Y-59097800D01*
X50820796Y-59097800D01*
X50606078Y-59186739D01*
X50443200Y-59349616D01*
X50443200Y-54253200D01*
X52241331Y-54253200D01*
X52241331Y-54358485D01*
X52241331Y-54358485D01*
G37*
X52241331Y-54358485D02*
X51148908Y-55450908D01*
X51022270Y-55640436D01*
X50977800Y-55864000D01*
X50977800Y-57345331D01*
X50937000Y-57345331D01*
X50814635Y-57368356D01*
X50702251Y-57440673D01*
X50626856Y-57551017D01*
X50600331Y-57682000D01*
X50600331Y-58682000D01*
X50623356Y-58804365D01*
X50695673Y-58916749D01*
X50806017Y-58992144D01*
X50937000Y-59018669D01*
X52187000Y-59018669D01*
X52309365Y-58995644D01*
X52421749Y-58923327D01*
X52497144Y-58812983D01*
X52523669Y-58682000D01*
X52523669Y-58639200D01*
X52787800Y-58639200D01*
X52787800Y-58858150D01*
X52933850Y-59004200D01*
X53484500Y-59004200D01*
X53484500Y-58984200D01*
X53709500Y-58984200D01*
X53709500Y-59004200D01*
X53794800Y-59004200D01*
X53794800Y-59359800D01*
X53709500Y-59359800D01*
X53709500Y-59379800D01*
X53484500Y-59379800D01*
X53484500Y-59359800D01*
X52933850Y-59359800D01*
X52787800Y-59505850D01*
X52787800Y-59948205D01*
X52876739Y-60162923D01*
X53041078Y-60327261D01*
X53063057Y-60336365D01*
X53016711Y-60382711D01*
X52917602Y-60531037D01*
X52882800Y-60706000D01*
X52882800Y-63179331D01*
X52578000Y-63179331D01*
X52455635Y-63202356D01*
X52343251Y-63274673D01*
X52267856Y-63385017D01*
X52241331Y-63516000D01*
X52241331Y-64110800D01*
X50443200Y-64110800D01*
X50443200Y-61014384D01*
X50606078Y-61177261D01*
X50820796Y-61266200D01*
X51238150Y-61266200D01*
X51384200Y-61120150D01*
X51384200Y-60359800D01*
X51739800Y-60359800D01*
X51739800Y-61120150D01*
X51885850Y-61266200D01*
X52303204Y-61266200D01*
X52517922Y-61177261D01*
X52682261Y-61012923D01*
X52771200Y-60798205D01*
X52771200Y-60505850D01*
X52625150Y-60359800D01*
X51739800Y-60359800D01*
X51384200Y-60359800D01*
X51364200Y-60359800D01*
X51364200Y-60004200D01*
X51384200Y-60004200D01*
X51384200Y-59243850D01*
X51739800Y-59243850D01*
X51739800Y-60004200D01*
X52625150Y-60004200D01*
X52771200Y-59858150D01*
X52771200Y-59565795D01*
X52682261Y-59351077D01*
X52517922Y-59186739D01*
X52303204Y-59097800D01*
X51885850Y-59097800D01*
X51739800Y-59243850D01*
X51384200Y-59243850D01*
X51238150Y-59097800D01*
X50820796Y-59097800D01*
X50606078Y-59186739D01*
X50443200Y-59349616D01*
X50443200Y-54253200D01*
X52241331Y-54253200D01*
X52241331Y-54358485D01*
G36*
X56057800Y-70204204D02*
X56146739Y-70418922D01*
X56311077Y-70583261D01*
X56525795Y-70672200D01*
X57080150Y-70672200D01*
X57226200Y-70526150D01*
X57226200Y-69493200D01*
X57581800Y-69493200D01*
X57581800Y-70526150D01*
X57727850Y-70672200D01*
X58282205Y-70672200D01*
X58496923Y-70583261D01*
X58661261Y-70418922D01*
X58750200Y-70204204D01*
X58750200Y-69493200D01*
X60300800Y-69493200D01*
X60300800Y-79350800D01*
X58502669Y-79350800D01*
X58502669Y-78756000D01*
X58479644Y-78633635D01*
X58407327Y-78521251D01*
X58296983Y-78445856D01*
X58166000Y-78419331D01*
X57861200Y-78419331D01*
X57861200Y-75946000D01*
X57826398Y-75771037D01*
X57727289Y-75622711D01*
X57680943Y-75576365D01*
X57702922Y-75567261D01*
X57867261Y-75402923D01*
X57956200Y-75188205D01*
X57956200Y-74745850D01*
X57810150Y-74599800D01*
X57259500Y-74599800D01*
X57259500Y-74619800D01*
X57034500Y-74619800D01*
X57034500Y-74599800D01*
X56949200Y-74599800D01*
X56949200Y-74244200D01*
X57034500Y-74244200D01*
X57034500Y-73711304D01*
X57106200Y-73538205D01*
X57106200Y-73455550D01*
X57034500Y-73383850D01*
X57034500Y-73333850D01*
X57259500Y-73333850D01*
X57259500Y-74244200D01*
X57810150Y-74244200D01*
X57956200Y-74098150D01*
X57956200Y-73655795D01*
X57867261Y-73441077D01*
X57702922Y-73276739D01*
X57488204Y-73187800D01*
X57405550Y-73187800D01*
X57259500Y-73333850D01*
X57034500Y-73333850D01*
X56888450Y-73187800D01*
X56805796Y-73187800D01*
X56591078Y-73276739D01*
X56558317Y-73309500D01*
X55549800Y-73309500D01*
X55549800Y-73394800D01*
X55194200Y-73394800D01*
X55194200Y-73309500D01*
X55174200Y-73309500D01*
X55174200Y-73084500D01*
X55194200Y-73084500D01*
X55194200Y-72533850D01*
X55549800Y-72533850D01*
X55549800Y-73084500D01*
X56960150Y-73084500D01*
X57106200Y-72938450D01*
X57106200Y-72855795D01*
X57017261Y-72641077D01*
X56852922Y-72476739D01*
X56638204Y-72387800D01*
X55695850Y-72387800D01*
X55549800Y-72533850D01*
X55194200Y-72533850D01*
X55048150Y-72387800D01*
X54105796Y-72387800D01*
X53891078Y-72476739D01*
X53726739Y-72641077D01*
X53696076Y-72715104D01*
X53594000Y-72694800D01*
X53195000Y-72694800D01*
X53020037Y-72729602D01*
X52871711Y-72828711D01*
X52735622Y-72964800D01*
X52523669Y-72964800D01*
X52523669Y-72922000D01*
X52500644Y-72799635D01*
X52428327Y-72687251D01*
X52317983Y-72611856D01*
X52187000Y-72585331D01*
X52146200Y-72585331D01*
X52146200Y-71345984D01*
X53067515Y-70424669D01*
X54102000Y-70424669D01*
X54224365Y-70401644D01*
X54336749Y-70329327D01*
X54412144Y-70218983D01*
X54438669Y-70088000D01*
X54438669Y-69493200D01*
X56057800Y-69493200D01*
X56057800Y-70204204D01*
X56057800Y-70204204D01*
G37*
X56057800Y-70204204D02*
X56146739Y-70418922D01*
X56311077Y-70583261D01*
X56525795Y-70672200D01*
X57080150Y-70672200D01*
X57226200Y-70526150D01*
X57226200Y-69493200D01*
X57581800Y-69493200D01*
X57581800Y-70526150D01*
X57727850Y-70672200D01*
X58282205Y-70672200D01*
X58496923Y-70583261D01*
X58661261Y-70418922D01*
X58750200Y-70204204D01*
X58750200Y-69493200D01*
X60300800Y-69493200D01*
X60300800Y-79350800D01*
X58502669Y-79350800D01*
X58502669Y-78756000D01*
X58479644Y-78633635D01*
X58407327Y-78521251D01*
X58296983Y-78445856D01*
X58166000Y-78419331D01*
X57861200Y-78419331D01*
X57861200Y-75946000D01*
X57826398Y-75771037D01*
X57727289Y-75622711D01*
X57680943Y-75576365D01*
X57702922Y-75567261D01*
X57867261Y-75402923D01*
X57956200Y-75188205D01*
X57956200Y-74745850D01*
X57810150Y-74599800D01*
X57259500Y-74599800D01*
X57259500Y-74619800D01*
X57034500Y-74619800D01*
X57034500Y-74599800D01*
X56949200Y-74599800D01*
X56949200Y-74244200D01*
X57034500Y-74244200D01*
X57034500Y-73711304D01*
X57106200Y-73538205D01*
X57106200Y-73455550D01*
X57034500Y-73383850D01*
X57034500Y-73333850D01*
X57259500Y-73333850D01*
X57259500Y-74244200D01*
X57810150Y-74244200D01*
X57956200Y-74098150D01*
X57956200Y-73655795D01*
X57867261Y-73441077D01*
X57702922Y-73276739D01*
X57488204Y-73187800D01*
X57405550Y-73187800D01*
X57259500Y-73333850D01*
X57034500Y-73333850D01*
X56888450Y-73187800D01*
X56805796Y-73187800D01*
X56591078Y-73276739D01*
X56558317Y-73309500D01*
X55549800Y-73309500D01*
X55549800Y-73394800D01*
X55194200Y-73394800D01*
X55194200Y-73309500D01*
X55174200Y-73309500D01*
X55174200Y-73084500D01*
X55194200Y-73084500D01*
X55194200Y-72533850D01*
X55549800Y-72533850D01*
X55549800Y-73084500D01*
X56960150Y-73084500D01*
X57106200Y-72938450D01*
X57106200Y-72855795D01*
X57017261Y-72641077D01*
X56852922Y-72476739D01*
X56638204Y-72387800D01*
X55695850Y-72387800D01*
X55549800Y-72533850D01*
X55194200Y-72533850D01*
X55048150Y-72387800D01*
X54105796Y-72387800D01*
X53891078Y-72476739D01*
X53726739Y-72641077D01*
X53696076Y-72715104D01*
X53594000Y-72694800D01*
X53195000Y-72694800D01*
X53020037Y-72729602D01*
X52871711Y-72828711D01*
X52735622Y-72964800D01*
X52523669Y-72964800D01*
X52523669Y-72922000D01*
X52500644Y-72799635D01*
X52428327Y-72687251D01*
X52317983Y-72611856D01*
X52187000Y-72585331D01*
X52146200Y-72585331D01*
X52146200Y-71345984D01*
X53067515Y-70424669D01*
X54102000Y-70424669D01*
X54224365Y-70401644D01*
X54336749Y-70329327D01*
X54412144Y-70218983D01*
X54438669Y-70088000D01*
X54438669Y-69493200D01*
X56057800Y-69493200D01*
X56057800Y-70204204D01*
G36*
X55549800Y-75584500D02*
X55569800Y-75584500D01*
X55569800Y-75809500D01*
X55549800Y-75809500D01*
X55549800Y-76360150D01*
X55695850Y-76506200D01*
X56638204Y-76506200D01*
X56852922Y-76417261D01*
X56946800Y-76323384D01*
X56946800Y-78419331D01*
X56642000Y-78419331D01*
X56519635Y-78442356D01*
X56407251Y-78514673D01*
X56331856Y-78625017D01*
X56305331Y-78756000D01*
X56305331Y-79350800D01*
X54438669Y-79350800D01*
X54438669Y-78756000D01*
X54415644Y-78633635D01*
X54343327Y-78521251D01*
X54232983Y-78445856D01*
X54102000Y-78419331D01*
X53797200Y-78419331D01*
X53797200Y-76323384D01*
X53891078Y-76417261D01*
X54105796Y-76506200D01*
X55048150Y-76506200D01*
X55194200Y-76360150D01*
X55194200Y-75809500D01*
X55174200Y-75809500D01*
X55174200Y-75584500D01*
X55194200Y-75584500D01*
X55194200Y-75499200D01*
X55549800Y-75499200D01*
X55549800Y-75584500D01*
X55549800Y-75584500D01*
G37*
X55549800Y-75584500D02*
X55569800Y-75584500D01*
X55569800Y-75809500D01*
X55549800Y-75809500D01*
X55549800Y-76360150D01*
X55695850Y-76506200D01*
X56638204Y-76506200D01*
X56852922Y-76417261D01*
X56946800Y-76323384D01*
X56946800Y-78419331D01*
X56642000Y-78419331D01*
X56519635Y-78442356D01*
X56407251Y-78514673D01*
X56331856Y-78625017D01*
X56305331Y-78756000D01*
X56305331Y-79350800D01*
X54438669Y-79350800D01*
X54438669Y-78756000D01*
X54415644Y-78633635D01*
X54343327Y-78521251D01*
X54232983Y-78445856D01*
X54102000Y-78419331D01*
X53797200Y-78419331D01*
X53797200Y-76323384D01*
X53891078Y-76417261D01*
X54105796Y-76506200D01*
X55048150Y-76506200D01*
X55194200Y-76360150D01*
X55194200Y-75809500D01*
X55174200Y-75809500D01*
X55174200Y-75584500D01*
X55194200Y-75584500D01*
X55194200Y-75499200D01*
X55549800Y-75499200D01*
X55549800Y-75584500D01*
G36*
X52241331Y-69598485D02*
X51148908Y-70690908D01*
X51022270Y-70880436D01*
X50977800Y-71104000D01*
X50977800Y-72585331D01*
X50937000Y-72585331D01*
X50814635Y-72608356D01*
X50702251Y-72680673D01*
X50626856Y-72791017D01*
X50600331Y-72922000D01*
X50600331Y-73922000D01*
X50623356Y-74044365D01*
X50695673Y-74156749D01*
X50806017Y-74232144D01*
X50937000Y-74258669D01*
X52187000Y-74258669D01*
X52309365Y-74235644D01*
X52421749Y-74163327D01*
X52497144Y-74052983D01*
X52523669Y-73922000D01*
X52523669Y-73879200D01*
X52787800Y-73879200D01*
X52787800Y-74098150D01*
X52933850Y-74244200D01*
X53484500Y-74244200D01*
X53484500Y-74224200D01*
X53709500Y-74224200D01*
X53709500Y-74244200D01*
X53794800Y-74244200D01*
X53794800Y-74599800D01*
X53709500Y-74599800D01*
X53709500Y-74619800D01*
X53484500Y-74619800D01*
X53484500Y-74599800D01*
X52933850Y-74599800D01*
X52787800Y-74745850D01*
X52787800Y-75188205D01*
X52876739Y-75402923D01*
X53041078Y-75567261D01*
X53063057Y-75576365D01*
X53016711Y-75622711D01*
X52917602Y-75771037D01*
X52882800Y-75946000D01*
X52882800Y-78419331D01*
X52578000Y-78419331D01*
X52455635Y-78442356D01*
X52343251Y-78514673D01*
X52267856Y-78625017D01*
X52241331Y-78756000D01*
X52241331Y-79350800D01*
X50443200Y-79350800D01*
X50443200Y-76254384D01*
X50606078Y-76417261D01*
X50820796Y-76506200D01*
X51238150Y-76506200D01*
X51384200Y-76360150D01*
X51384200Y-75599800D01*
X51739800Y-75599800D01*
X51739800Y-76360150D01*
X51885850Y-76506200D01*
X52303204Y-76506200D01*
X52517922Y-76417261D01*
X52682261Y-76252923D01*
X52771200Y-76038205D01*
X52771200Y-75745850D01*
X52625150Y-75599800D01*
X51739800Y-75599800D01*
X51384200Y-75599800D01*
X51364200Y-75599800D01*
X51364200Y-75244200D01*
X51384200Y-75244200D01*
X51384200Y-74483850D01*
X51739800Y-74483850D01*
X51739800Y-75244200D01*
X52625150Y-75244200D01*
X52771200Y-75098150D01*
X52771200Y-74805795D01*
X52682261Y-74591077D01*
X52517922Y-74426739D01*
X52303204Y-74337800D01*
X51885850Y-74337800D01*
X51739800Y-74483850D01*
X51384200Y-74483850D01*
X51238150Y-74337800D01*
X50820796Y-74337800D01*
X50606078Y-74426739D01*
X50443200Y-74589616D01*
X50443200Y-69493200D01*
X52241331Y-69493200D01*
X52241331Y-69598485D01*
X52241331Y-69598485D01*
G37*
X52241331Y-69598485D02*
X51148908Y-70690908D01*
X51022270Y-70880436D01*
X50977800Y-71104000D01*
X50977800Y-72585331D01*
X50937000Y-72585331D01*
X50814635Y-72608356D01*
X50702251Y-72680673D01*
X50626856Y-72791017D01*
X50600331Y-72922000D01*
X50600331Y-73922000D01*
X50623356Y-74044365D01*
X50695673Y-74156749D01*
X50806017Y-74232144D01*
X50937000Y-74258669D01*
X52187000Y-74258669D01*
X52309365Y-74235644D01*
X52421749Y-74163327D01*
X52497144Y-74052983D01*
X52523669Y-73922000D01*
X52523669Y-73879200D01*
X52787800Y-73879200D01*
X52787800Y-74098150D01*
X52933850Y-74244200D01*
X53484500Y-74244200D01*
X53484500Y-74224200D01*
X53709500Y-74224200D01*
X53709500Y-74244200D01*
X53794800Y-74244200D01*
X53794800Y-74599800D01*
X53709500Y-74599800D01*
X53709500Y-74619800D01*
X53484500Y-74619800D01*
X53484500Y-74599800D01*
X52933850Y-74599800D01*
X52787800Y-74745850D01*
X52787800Y-75188205D01*
X52876739Y-75402923D01*
X53041078Y-75567261D01*
X53063057Y-75576365D01*
X53016711Y-75622711D01*
X52917602Y-75771037D01*
X52882800Y-75946000D01*
X52882800Y-78419331D01*
X52578000Y-78419331D01*
X52455635Y-78442356D01*
X52343251Y-78514673D01*
X52267856Y-78625017D01*
X52241331Y-78756000D01*
X52241331Y-79350800D01*
X50443200Y-79350800D01*
X50443200Y-76254384D01*
X50606078Y-76417261D01*
X50820796Y-76506200D01*
X51238150Y-76506200D01*
X51384200Y-76360150D01*
X51384200Y-75599800D01*
X51739800Y-75599800D01*
X51739800Y-76360150D01*
X51885850Y-76506200D01*
X52303204Y-76506200D01*
X52517922Y-76417261D01*
X52682261Y-76252923D01*
X52771200Y-76038205D01*
X52771200Y-75745850D01*
X52625150Y-75599800D01*
X51739800Y-75599800D01*
X51384200Y-75599800D01*
X51364200Y-75599800D01*
X51364200Y-75244200D01*
X51384200Y-75244200D01*
X51384200Y-74483850D01*
X51739800Y-74483850D01*
X51739800Y-75244200D01*
X52625150Y-75244200D01*
X52771200Y-75098150D01*
X52771200Y-74805795D01*
X52682261Y-74591077D01*
X52517922Y-74426739D01*
X52303204Y-74337800D01*
X51885850Y-74337800D01*
X51739800Y-74483850D01*
X51384200Y-74483850D01*
X51238150Y-74337800D01*
X50820796Y-74337800D01*
X50606078Y-74426739D01*
X50443200Y-74589616D01*
X50443200Y-69493200D01*
X52241331Y-69493200D01*
X52241331Y-69598485D01*
G36*
X56057800Y-85444204D02*
X56146739Y-85658922D01*
X56311077Y-85823261D01*
X56525795Y-85912200D01*
X57080150Y-85912200D01*
X57226200Y-85766150D01*
X57226200Y-84733200D01*
X57581800Y-84733200D01*
X57581800Y-85766150D01*
X57727850Y-85912200D01*
X58282205Y-85912200D01*
X58496923Y-85823261D01*
X58661261Y-85658922D01*
X58750200Y-85444204D01*
X58750200Y-84733200D01*
X60300800Y-84733200D01*
X60300800Y-94590800D01*
X58502669Y-94590800D01*
X58502669Y-93996000D01*
X58479644Y-93873635D01*
X58407327Y-93761251D01*
X58296983Y-93685856D01*
X58166000Y-93659331D01*
X57861200Y-93659331D01*
X57861200Y-91186000D01*
X57826398Y-91011037D01*
X57727289Y-90862711D01*
X57680943Y-90816365D01*
X57702922Y-90807261D01*
X57867261Y-90642923D01*
X57956200Y-90428205D01*
X57956200Y-89985850D01*
X57810150Y-89839800D01*
X57259500Y-89839800D01*
X57259500Y-89859800D01*
X57034500Y-89859800D01*
X57034500Y-89839800D01*
X56949200Y-89839800D01*
X56949200Y-89484200D01*
X57034500Y-89484200D01*
X57034500Y-88951304D01*
X57106200Y-88778205D01*
X57106200Y-88695550D01*
X57034500Y-88623850D01*
X57034500Y-88573850D01*
X57259500Y-88573850D01*
X57259500Y-89484200D01*
X57810150Y-89484200D01*
X57956200Y-89338150D01*
X57956200Y-88895795D01*
X57867261Y-88681077D01*
X57702922Y-88516739D01*
X57488204Y-88427800D01*
X57405550Y-88427800D01*
X57259500Y-88573850D01*
X57034500Y-88573850D01*
X56888450Y-88427800D01*
X56805796Y-88427800D01*
X56591078Y-88516739D01*
X56558317Y-88549500D01*
X55549800Y-88549500D01*
X55549800Y-88634800D01*
X55194200Y-88634800D01*
X55194200Y-88549500D01*
X55174200Y-88549500D01*
X55174200Y-88324500D01*
X55194200Y-88324500D01*
X55194200Y-87773850D01*
X55549800Y-87773850D01*
X55549800Y-88324500D01*
X56960150Y-88324500D01*
X57106200Y-88178450D01*
X57106200Y-88095795D01*
X57017261Y-87881077D01*
X56852922Y-87716739D01*
X56638204Y-87627800D01*
X55695850Y-87627800D01*
X55549800Y-87773850D01*
X55194200Y-87773850D01*
X55048150Y-87627800D01*
X54105796Y-87627800D01*
X53891078Y-87716739D01*
X53726739Y-87881077D01*
X53696076Y-87955104D01*
X53594000Y-87934800D01*
X53195000Y-87934800D01*
X53020037Y-87969602D01*
X52871711Y-88068711D01*
X52735622Y-88204800D01*
X52523669Y-88204800D01*
X52523669Y-88162000D01*
X52500644Y-88039635D01*
X52428327Y-87927251D01*
X52317983Y-87851856D01*
X52187000Y-87825331D01*
X52146200Y-87825331D01*
X52146200Y-86585984D01*
X53067515Y-85664669D01*
X54102000Y-85664669D01*
X54224365Y-85641644D01*
X54336749Y-85569327D01*
X54412144Y-85458983D01*
X54438669Y-85328000D01*
X54438669Y-84733200D01*
X56057800Y-84733200D01*
X56057800Y-85444204D01*
X56057800Y-85444204D01*
G37*
X56057800Y-85444204D02*
X56146739Y-85658922D01*
X56311077Y-85823261D01*
X56525795Y-85912200D01*
X57080150Y-85912200D01*
X57226200Y-85766150D01*
X57226200Y-84733200D01*
X57581800Y-84733200D01*
X57581800Y-85766150D01*
X57727850Y-85912200D01*
X58282205Y-85912200D01*
X58496923Y-85823261D01*
X58661261Y-85658922D01*
X58750200Y-85444204D01*
X58750200Y-84733200D01*
X60300800Y-84733200D01*
X60300800Y-94590800D01*
X58502669Y-94590800D01*
X58502669Y-93996000D01*
X58479644Y-93873635D01*
X58407327Y-93761251D01*
X58296983Y-93685856D01*
X58166000Y-93659331D01*
X57861200Y-93659331D01*
X57861200Y-91186000D01*
X57826398Y-91011037D01*
X57727289Y-90862711D01*
X57680943Y-90816365D01*
X57702922Y-90807261D01*
X57867261Y-90642923D01*
X57956200Y-90428205D01*
X57956200Y-89985850D01*
X57810150Y-89839800D01*
X57259500Y-89839800D01*
X57259500Y-89859800D01*
X57034500Y-89859800D01*
X57034500Y-89839800D01*
X56949200Y-89839800D01*
X56949200Y-89484200D01*
X57034500Y-89484200D01*
X57034500Y-88951304D01*
X57106200Y-88778205D01*
X57106200Y-88695550D01*
X57034500Y-88623850D01*
X57034500Y-88573850D01*
X57259500Y-88573850D01*
X57259500Y-89484200D01*
X57810150Y-89484200D01*
X57956200Y-89338150D01*
X57956200Y-88895795D01*
X57867261Y-88681077D01*
X57702922Y-88516739D01*
X57488204Y-88427800D01*
X57405550Y-88427800D01*
X57259500Y-88573850D01*
X57034500Y-88573850D01*
X56888450Y-88427800D01*
X56805796Y-88427800D01*
X56591078Y-88516739D01*
X56558317Y-88549500D01*
X55549800Y-88549500D01*
X55549800Y-88634800D01*
X55194200Y-88634800D01*
X55194200Y-88549500D01*
X55174200Y-88549500D01*
X55174200Y-88324500D01*
X55194200Y-88324500D01*
X55194200Y-87773850D01*
X55549800Y-87773850D01*
X55549800Y-88324500D01*
X56960150Y-88324500D01*
X57106200Y-88178450D01*
X57106200Y-88095795D01*
X57017261Y-87881077D01*
X56852922Y-87716739D01*
X56638204Y-87627800D01*
X55695850Y-87627800D01*
X55549800Y-87773850D01*
X55194200Y-87773850D01*
X55048150Y-87627800D01*
X54105796Y-87627800D01*
X53891078Y-87716739D01*
X53726739Y-87881077D01*
X53696076Y-87955104D01*
X53594000Y-87934800D01*
X53195000Y-87934800D01*
X53020037Y-87969602D01*
X52871711Y-88068711D01*
X52735622Y-88204800D01*
X52523669Y-88204800D01*
X52523669Y-88162000D01*
X52500644Y-88039635D01*
X52428327Y-87927251D01*
X52317983Y-87851856D01*
X52187000Y-87825331D01*
X52146200Y-87825331D01*
X52146200Y-86585984D01*
X53067515Y-85664669D01*
X54102000Y-85664669D01*
X54224365Y-85641644D01*
X54336749Y-85569327D01*
X54412144Y-85458983D01*
X54438669Y-85328000D01*
X54438669Y-84733200D01*
X56057800Y-84733200D01*
X56057800Y-85444204D01*
G36*
X55549800Y-90824500D02*
X55569800Y-90824500D01*
X55569800Y-91049500D01*
X55549800Y-91049500D01*
X55549800Y-91600150D01*
X55695850Y-91746200D01*
X56638204Y-91746200D01*
X56852922Y-91657261D01*
X56946800Y-91563384D01*
X56946800Y-93659331D01*
X56642000Y-93659331D01*
X56519635Y-93682356D01*
X56407251Y-93754673D01*
X56331856Y-93865017D01*
X56305331Y-93996000D01*
X56305331Y-94590800D01*
X54438669Y-94590800D01*
X54438669Y-93996000D01*
X54415644Y-93873635D01*
X54343327Y-93761251D01*
X54232983Y-93685856D01*
X54102000Y-93659331D01*
X53797200Y-93659331D01*
X53797200Y-91563384D01*
X53891078Y-91657261D01*
X54105796Y-91746200D01*
X55048150Y-91746200D01*
X55194200Y-91600150D01*
X55194200Y-91049500D01*
X55174200Y-91049500D01*
X55174200Y-90824500D01*
X55194200Y-90824500D01*
X55194200Y-90739200D01*
X55549800Y-90739200D01*
X55549800Y-90824500D01*
X55549800Y-90824500D01*
G37*
X55549800Y-90824500D02*
X55569800Y-90824500D01*
X55569800Y-91049500D01*
X55549800Y-91049500D01*
X55549800Y-91600150D01*
X55695850Y-91746200D01*
X56638204Y-91746200D01*
X56852922Y-91657261D01*
X56946800Y-91563384D01*
X56946800Y-93659331D01*
X56642000Y-93659331D01*
X56519635Y-93682356D01*
X56407251Y-93754673D01*
X56331856Y-93865017D01*
X56305331Y-93996000D01*
X56305331Y-94590800D01*
X54438669Y-94590800D01*
X54438669Y-93996000D01*
X54415644Y-93873635D01*
X54343327Y-93761251D01*
X54232983Y-93685856D01*
X54102000Y-93659331D01*
X53797200Y-93659331D01*
X53797200Y-91563384D01*
X53891078Y-91657261D01*
X54105796Y-91746200D01*
X55048150Y-91746200D01*
X55194200Y-91600150D01*
X55194200Y-91049500D01*
X55174200Y-91049500D01*
X55174200Y-90824500D01*
X55194200Y-90824500D01*
X55194200Y-90739200D01*
X55549800Y-90739200D01*
X55549800Y-90824500D01*
G36*
X52241331Y-84838485D02*
X51148908Y-85930908D01*
X51022270Y-86120436D01*
X50977800Y-86344000D01*
X50977800Y-87825331D01*
X50937000Y-87825331D01*
X50814635Y-87848356D01*
X50702251Y-87920673D01*
X50626856Y-88031017D01*
X50600331Y-88162000D01*
X50600331Y-89162000D01*
X50623356Y-89284365D01*
X50695673Y-89396749D01*
X50806017Y-89472144D01*
X50937000Y-89498669D01*
X52187000Y-89498669D01*
X52309365Y-89475644D01*
X52421749Y-89403327D01*
X52497144Y-89292983D01*
X52523669Y-89162000D01*
X52523669Y-89119200D01*
X52787800Y-89119200D01*
X52787800Y-89338150D01*
X52933850Y-89484200D01*
X53484500Y-89484200D01*
X53484500Y-89464200D01*
X53709500Y-89464200D01*
X53709500Y-89484200D01*
X53794800Y-89484200D01*
X53794800Y-89839800D01*
X53709500Y-89839800D01*
X53709500Y-89859800D01*
X53484500Y-89859800D01*
X53484500Y-89839800D01*
X52933850Y-89839800D01*
X52787800Y-89985850D01*
X52787800Y-90428205D01*
X52876739Y-90642923D01*
X53041078Y-90807261D01*
X53063057Y-90816365D01*
X53016711Y-90862711D01*
X52917602Y-91011037D01*
X52882800Y-91186000D01*
X52882800Y-93659331D01*
X52578000Y-93659331D01*
X52455635Y-93682356D01*
X52343251Y-93754673D01*
X52267856Y-93865017D01*
X52241331Y-93996000D01*
X52241331Y-94590800D01*
X50443200Y-94590800D01*
X50443200Y-91494384D01*
X50606078Y-91657261D01*
X50820796Y-91746200D01*
X51238150Y-91746200D01*
X51384200Y-91600150D01*
X51384200Y-90839800D01*
X51739800Y-90839800D01*
X51739800Y-91600150D01*
X51885850Y-91746200D01*
X52303204Y-91746200D01*
X52517922Y-91657261D01*
X52682261Y-91492923D01*
X52771200Y-91278205D01*
X52771200Y-90985850D01*
X52625150Y-90839800D01*
X51739800Y-90839800D01*
X51384200Y-90839800D01*
X51364200Y-90839800D01*
X51364200Y-90484200D01*
X51384200Y-90484200D01*
X51384200Y-89723850D01*
X51739800Y-89723850D01*
X51739800Y-90484200D01*
X52625150Y-90484200D01*
X52771200Y-90338150D01*
X52771200Y-90045795D01*
X52682261Y-89831077D01*
X52517922Y-89666739D01*
X52303204Y-89577800D01*
X51885850Y-89577800D01*
X51739800Y-89723850D01*
X51384200Y-89723850D01*
X51238150Y-89577800D01*
X50820796Y-89577800D01*
X50606078Y-89666739D01*
X50443200Y-89829616D01*
X50443200Y-84733200D01*
X52241331Y-84733200D01*
X52241331Y-84838485D01*
X52241331Y-84838485D01*
G37*
X52241331Y-84838485D02*
X51148908Y-85930908D01*
X51022270Y-86120436D01*
X50977800Y-86344000D01*
X50977800Y-87825331D01*
X50937000Y-87825331D01*
X50814635Y-87848356D01*
X50702251Y-87920673D01*
X50626856Y-88031017D01*
X50600331Y-88162000D01*
X50600331Y-89162000D01*
X50623356Y-89284365D01*
X50695673Y-89396749D01*
X50806017Y-89472144D01*
X50937000Y-89498669D01*
X52187000Y-89498669D01*
X52309365Y-89475644D01*
X52421749Y-89403327D01*
X52497144Y-89292983D01*
X52523669Y-89162000D01*
X52523669Y-89119200D01*
X52787800Y-89119200D01*
X52787800Y-89338150D01*
X52933850Y-89484200D01*
X53484500Y-89484200D01*
X53484500Y-89464200D01*
X53709500Y-89464200D01*
X53709500Y-89484200D01*
X53794800Y-89484200D01*
X53794800Y-89839800D01*
X53709500Y-89839800D01*
X53709500Y-89859800D01*
X53484500Y-89859800D01*
X53484500Y-89839800D01*
X52933850Y-89839800D01*
X52787800Y-89985850D01*
X52787800Y-90428205D01*
X52876739Y-90642923D01*
X53041078Y-90807261D01*
X53063057Y-90816365D01*
X53016711Y-90862711D01*
X52917602Y-91011037D01*
X52882800Y-91186000D01*
X52882800Y-93659331D01*
X52578000Y-93659331D01*
X52455635Y-93682356D01*
X52343251Y-93754673D01*
X52267856Y-93865017D01*
X52241331Y-93996000D01*
X52241331Y-94590800D01*
X50443200Y-94590800D01*
X50443200Y-91494384D01*
X50606078Y-91657261D01*
X50820796Y-91746200D01*
X51238150Y-91746200D01*
X51384200Y-91600150D01*
X51384200Y-90839800D01*
X51739800Y-90839800D01*
X51739800Y-91600150D01*
X51885850Y-91746200D01*
X52303204Y-91746200D01*
X52517922Y-91657261D01*
X52682261Y-91492923D01*
X52771200Y-91278205D01*
X52771200Y-90985850D01*
X52625150Y-90839800D01*
X51739800Y-90839800D01*
X51384200Y-90839800D01*
X51364200Y-90839800D01*
X51364200Y-90484200D01*
X51384200Y-90484200D01*
X51384200Y-89723850D01*
X51739800Y-89723850D01*
X51739800Y-90484200D01*
X52625150Y-90484200D01*
X52771200Y-90338150D01*
X52771200Y-90045795D01*
X52682261Y-89831077D01*
X52517922Y-89666739D01*
X52303204Y-89577800D01*
X51885850Y-89577800D01*
X51739800Y-89723850D01*
X51384200Y-89723850D01*
X51238150Y-89577800D01*
X50820796Y-89577800D01*
X50606078Y-89666739D01*
X50443200Y-89829616D01*
X50443200Y-84733200D01*
X52241331Y-84733200D01*
X52241331Y-84838485D01*
G36*
X66725800Y-54964204D02*
X66814739Y-55178922D01*
X66979077Y-55343261D01*
X67193795Y-55432200D01*
X67748150Y-55432200D01*
X67894200Y-55286150D01*
X67894200Y-54253200D01*
X68249800Y-54253200D01*
X68249800Y-55286150D01*
X68395850Y-55432200D01*
X68950205Y-55432200D01*
X69164923Y-55343261D01*
X69329261Y-55178922D01*
X69418200Y-54964204D01*
X69418200Y-54253200D01*
X70968800Y-54253200D01*
X70968800Y-64110800D01*
X69170669Y-64110800D01*
X69170669Y-63516000D01*
X69147644Y-63393635D01*
X69075327Y-63281251D01*
X68964983Y-63205856D01*
X68834000Y-63179331D01*
X68529200Y-63179331D01*
X68529200Y-60706000D01*
X68494398Y-60531037D01*
X68395289Y-60382711D01*
X68348943Y-60336365D01*
X68370922Y-60327261D01*
X68535261Y-60162923D01*
X68624200Y-59948205D01*
X68624200Y-59505850D01*
X68478150Y-59359800D01*
X67927500Y-59359800D01*
X67927500Y-59379800D01*
X67702500Y-59379800D01*
X67702500Y-59359800D01*
X67617200Y-59359800D01*
X67617200Y-59004200D01*
X67702500Y-59004200D01*
X67702500Y-58471304D01*
X67774200Y-58298205D01*
X67774200Y-58215550D01*
X67702500Y-58143850D01*
X67702500Y-58093850D01*
X67927500Y-58093850D01*
X67927500Y-59004200D01*
X68478150Y-59004200D01*
X68624200Y-58858150D01*
X68624200Y-58415795D01*
X68535261Y-58201077D01*
X68370922Y-58036739D01*
X68156204Y-57947800D01*
X68073550Y-57947800D01*
X67927500Y-58093850D01*
X67702500Y-58093850D01*
X67556450Y-57947800D01*
X67473796Y-57947800D01*
X67259078Y-58036739D01*
X67226317Y-58069500D01*
X66217800Y-58069500D01*
X66217800Y-58154800D01*
X65862200Y-58154800D01*
X65862200Y-58069500D01*
X65842200Y-58069500D01*
X65842200Y-57844500D01*
X65862200Y-57844500D01*
X65862200Y-57293850D01*
X66217800Y-57293850D01*
X66217800Y-57844500D01*
X67628150Y-57844500D01*
X67774200Y-57698450D01*
X67774200Y-57615795D01*
X67685261Y-57401077D01*
X67520922Y-57236739D01*
X67306204Y-57147800D01*
X66363850Y-57147800D01*
X66217800Y-57293850D01*
X65862200Y-57293850D01*
X65716150Y-57147800D01*
X64773796Y-57147800D01*
X64559078Y-57236739D01*
X64394739Y-57401077D01*
X64364076Y-57475104D01*
X64262000Y-57454800D01*
X63863000Y-57454800D01*
X63688037Y-57489602D01*
X63539711Y-57588711D01*
X63403622Y-57724800D01*
X63191669Y-57724800D01*
X63191669Y-57682000D01*
X63168644Y-57559635D01*
X63096327Y-57447251D01*
X62985983Y-57371856D01*
X62855000Y-57345331D01*
X62814200Y-57345331D01*
X62814200Y-56105984D01*
X63735515Y-55184669D01*
X64770000Y-55184669D01*
X64892365Y-55161644D01*
X65004749Y-55089327D01*
X65080144Y-54978983D01*
X65106669Y-54848000D01*
X65106669Y-54253200D01*
X66725800Y-54253200D01*
X66725800Y-54964204D01*
X66725800Y-54964204D01*
G37*
X66725800Y-54964204D02*
X66814739Y-55178922D01*
X66979077Y-55343261D01*
X67193795Y-55432200D01*
X67748150Y-55432200D01*
X67894200Y-55286150D01*
X67894200Y-54253200D01*
X68249800Y-54253200D01*
X68249800Y-55286150D01*
X68395850Y-55432200D01*
X68950205Y-55432200D01*
X69164923Y-55343261D01*
X69329261Y-55178922D01*
X69418200Y-54964204D01*
X69418200Y-54253200D01*
X70968800Y-54253200D01*
X70968800Y-64110800D01*
X69170669Y-64110800D01*
X69170669Y-63516000D01*
X69147644Y-63393635D01*
X69075327Y-63281251D01*
X68964983Y-63205856D01*
X68834000Y-63179331D01*
X68529200Y-63179331D01*
X68529200Y-60706000D01*
X68494398Y-60531037D01*
X68395289Y-60382711D01*
X68348943Y-60336365D01*
X68370922Y-60327261D01*
X68535261Y-60162923D01*
X68624200Y-59948205D01*
X68624200Y-59505850D01*
X68478150Y-59359800D01*
X67927500Y-59359800D01*
X67927500Y-59379800D01*
X67702500Y-59379800D01*
X67702500Y-59359800D01*
X67617200Y-59359800D01*
X67617200Y-59004200D01*
X67702500Y-59004200D01*
X67702500Y-58471304D01*
X67774200Y-58298205D01*
X67774200Y-58215550D01*
X67702500Y-58143850D01*
X67702500Y-58093850D01*
X67927500Y-58093850D01*
X67927500Y-59004200D01*
X68478150Y-59004200D01*
X68624200Y-58858150D01*
X68624200Y-58415795D01*
X68535261Y-58201077D01*
X68370922Y-58036739D01*
X68156204Y-57947800D01*
X68073550Y-57947800D01*
X67927500Y-58093850D01*
X67702500Y-58093850D01*
X67556450Y-57947800D01*
X67473796Y-57947800D01*
X67259078Y-58036739D01*
X67226317Y-58069500D01*
X66217800Y-58069500D01*
X66217800Y-58154800D01*
X65862200Y-58154800D01*
X65862200Y-58069500D01*
X65842200Y-58069500D01*
X65842200Y-57844500D01*
X65862200Y-57844500D01*
X65862200Y-57293850D01*
X66217800Y-57293850D01*
X66217800Y-57844500D01*
X67628150Y-57844500D01*
X67774200Y-57698450D01*
X67774200Y-57615795D01*
X67685261Y-57401077D01*
X67520922Y-57236739D01*
X67306204Y-57147800D01*
X66363850Y-57147800D01*
X66217800Y-57293850D01*
X65862200Y-57293850D01*
X65716150Y-57147800D01*
X64773796Y-57147800D01*
X64559078Y-57236739D01*
X64394739Y-57401077D01*
X64364076Y-57475104D01*
X64262000Y-57454800D01*
X63863000Y-57454800D01*
X63688037Y-57489602D01*
X63539711Y-57588711D01*
X63403622Y-57724800D01*
X63191669Y-57724800D01*
X63191669Y-57682000D01*
X63168644Y-57559635D01*
X63096327Y-57447251D01*
X62985983Y-57371856D01*
X62855000Y-57345331D01*
X62814200Y-57345331D01*
X62814200Y-56105984D01*
X63735515Y-55184669D01*
X64770000Y-55184669D01*
X64892365Y-55161644D01*
X65004749Y-55089327D01*
X65080144Y-54978983D01*
X65106669Y-54848000D01*
X65106669Y-54253200D01*
X66725800Y-54253200D01*
X66725800Y-54964204D01*
G36*
X66217800Y-60344500D02*
X66237800Y-60344500D01*
X66237800Y-60569500D01*
X66217800Y-60569500D01*
X66217800Y-61120150D01*
X66363850Y-61266200D01*
X67306204Y-61266200D01*
X67520922Y-61177261D01*
X67614800Y-61083384D01*
X67614800Y-63179331D01*
X67310000Y-63179331D01*
X67187635Y-63202356D01*
X67075251Y-63274673D01*
X66999856Y-63385017D01*
X66973331Y-63516000D01*
X66973331Y-64110800D01*
X65106669Y-64110800D01*
X65106669Y-63516000D01*
X65083644Y-63393635D01*
X65011327Y-63281251D01*
X64900983Y-63205856D01*
X64770000Y-63179331D01*
X64465200Y-63179331D01*
X64465200Y-61083384D01*
X64559078Y-61177261D01*
X64773796Y-61266200D01*
X65716150Y-61266200D01*
X65862200Y-61120150D01*
X65862200Y-60569500D01*
X65842200Y-60569500D01*
X65842200Y-60344500D01*
X65862200Y-60344500D01*
X65862200Y-60259200D01*
X66217800Y-60259200D01*
X66217800Y-60344500D01*
X66217800Y-60344500D01*
G37*
X66217800Y-60344500D02*
X66237800Y-60344500D01*
X66237800Y-60569500D01*
X66217800Y-60569500D01*
X66217800Y-61120150D01*
X66363850Y-61266200D01*
X67306204Y-61266200D01*
X67520922Y-61177261D01*
X67614800Y-61083384D01*
X67614800Y-63179331D01*
X67310000Y-63179331D01*
X67187635Y-63202356D01*
X67075251Y-63274673D01*
X66999856Y-63385017D01*
X66973331Y-63516000D01*
X66973331Y-64110800D01*
X65106669Y-64110800D01*
X65106669Y-63516000D01*
X65083644Y-63393635D01*
X65011327Y-63281251D01*
X64900983Y-63205856D01*
X64770000Y-63179331D01*
X64465200Y-63179331D01*
X64465200Y-61083384D01*
X64559078Y-61177261D01*
X64773796Y-61266200D01*
X65716150Y-61266200D01*
X65862200Y-61120150D01*
X65862200Y-60569500D01*
X65842200Y-60569500D01*
X65842200Y-60344500D01*
X65862200Y-60344500D01*
X65862200Y-60259200D01*
X66217800Y-60259200D01*
X66217800Y-60344500D01*
G36*
X62909331Y-54358485D02*
X61816908Y-55450908D01*
X61690270Y-55640436D01*
X61645800Y-55864000D01*
X61645800Y-57345331D01*
X61605000Y-57345331D01*
X61482635Y-57368356D01*
X61370251Y-57440673D01*
X61294856Y-57551017D01*
X61268331Y-57682000D01*
X61268331Y-58682000D01*
X61291356Y-58804365D01*
X61363673Y-58916749D01*
X61474017Y-58992144D01*
X61605000Y-59018669D01*
X62855000Y-59018669D01*
X62977365Y-58995644D01*
X63089749Y-58923327D01*
X63165144Y-58812983D01*
X63191669Y-58682000D01*
X63191669Y-58639200D01*
X63455800Y-58639200D01*
X63455800Y-58858150D01*
X63601850Y-59004200D01*
X64152500Y-59004200D01*
X64152500Y-58984200D01*
X64377500Y-58984200D01*
X64377500Y-59004200D01*
X64462800Y-59004200D01*
X64462800Y-59359800D01*
X64377500Y-59359800D01*
X64377500Y-59379800D01*
X64152500Y-59379800D01*
X64152500Y-59359800D01*
X63601850Y-59359800D01*
X63455800Y-59505850D01*
X63455800Y-59948205D01*
X63544739Y-60162923D01*
X63709078Y-60327261D01*
X63731057Y-60336365D01*
X63684711Y-60382711D01*
X63585602Y-60531037D01*
X63550800Y-60706000D01*
X63550800Y-63179331D01*
X63246000Y-63179331D01*
X63123635Y-63202356D01*
X63011251Y-63274673D01*
X62935856Y-63385017D01*
X62909331Y-63516000D01*
X62909331Y-64110800D01*
X61111200Y-64110800D01*
X61111200Y-61014384D01*
X61274078Y-61177261D01*
X61488796Y-61266200D01*
X61906150Y-61266200D01*
X62052200Y-61120150D01*
X62052200Y-60359800D01*
X62407800Y-60359800D01*
X62407800Y-61120150D01*
X62553850Y-61266200D01*
X62971204Y-61266200D01*
X63185922Y-61177261D01*
X63350261Y-61012923D01*
X63439200Y-60798205D01*
X63439200Y-60505850D01*
X63293150Y-60359800D01*
X62407800Y-60359800D01*
X62052200Y-60359800D01*
X62032200Y-60359800D01*
X62032200Y-60004200D01*
X62052200Y-60004200D01*
X62052200Y-59243850D01*
X62407800Y-59243850D01*
X62407800Y-60004200D01*
X63293150Y-60004200D01*
X63439200Y-59858150D01*
X63439200Y-59565795D01*
X63350261Y-59351077D01*
X63185922Y-59186739D01*
X62971204Y-59097800D01*
X62553850Y-59097800D01*
X62407800Y-59243850D01*
X62052200Y-59243850D01*
X61906150Y-59097800D01*
X61488796Y-59097800D01*
X61274078Y-59186739D01*
X61111200Y-59349616D01*
X61111200Y-54253200D01*
X62909331Y-54253200D01*
X62909331Y-54358485D01*
X62909331Y-54358485D01*
G37*
X62909331Y-54358485D02*
X61816908Y-55450908D01*
X61690270Y-55640436D01*
X61645800Y-55864000D01*
X61645800Y-57345331D01*
X61605000Y-57345331D01*
X61482635Y-57368356D01*
X61370251Y-57440673D01*
X61294856Y-57551017D01*
X61268331Y-57682000D01*
X61268331Y-58682000D01*
X61291356Y-58804365D01*
X61363673Y-58916749D01*
X61474017Y-58992144D01*
X61605000Y-59018669D01*
X62855000Y-59018669D01*
X62977365Y-58995644D01*
X63089749Y-58923327D01*
X63165144Y-58812983D01*
X63191669Y-58682000D01*
X63191669Y-58639200D01*
X63455800Y-58639200D01*
X63455800Y-58858150D01*
X63601850Y-59004200D01*
X64152500Y-59004200D01*
X64152500Y-58984200D01*
X64377500Y-58984200D01*
X64377500Y-59004200D01*
X64462800Y-59004200D01*
X64462800Y-59359800D01*
X64377500Y-59359800D01*
X64377500Y-59379800D01*
X64152500Y-59379800D01*
X64152500Y-59359800D01*
X63601850Y-59359800D01*
X63455800Y-59505850D01*
X63455800Y-59948205D01*
X63544739Y-60162923D01*
X63709078Y-60327261D01*
X63731057Y-60336365D01*
X63684711Y-60382711D01*
X63585602Y-60531037D01*
X63550800Y-60706000D01*
X63550800Y-63179331D01*
X63246000Y-63179331D01*
X63123635Y-63202356D01*
X63011251Y-63274673D01*
X62935856Y-63385017D01*
X62909331Y-63516000D01*
X62909331Y-64110800D01*
X61111200Y-64110800D01*
X61111200Y-61014384D01*
X61274078Y-61177261D01*
X61488796Y-61266200D01*
X61906150Y-61266200D01*
X62052200Y-61120150D01*
X62052200Y-60359800D01*
X62407800Y-60359800D01*
X62407800Y-61120150D01*
X62553850Y-61266200D01*
X62971204Y-61266200D01*
X63185922Y-61177261D01*
X63350261Y-61012923D01*
X63439200Y-60798205D01*
X63439200Y-60505850D01*
X63293150Y-60359800D01*
X62407800Y-60359800D01*
X62052200Y-60359800D01*
X62032200Y-60359800D01*
X62032200Y-60004200D01*
X62052200Y-60004200D01*
X62052200Y-59243850D01*
X62407800Y-59243850D01*
X62407800Y-60004200D01*
X63293150Y-60004200D01*
X63439200Y-59858150D01*
X63439200Y-59565795D01*
X63350261Y-59351077D01*
X63185922Y-59186739D01*
X62971204Y-59097800D01*
X62553850Y-59097800D01*
X62407800Y-59243850D01*
X62052200Y-59243850D01*
X61906150Y-59097800D01*
X61488796Y-59097800D01*
X61274078Y-59186739D01*
X61111200Y-59349616D01*
X61111200Y-54253200D01*
X62909331Y-54253200D01*
X62909331Y-54358485D01*
G36*
X66725800Y-70204204D02*
X66814739Y-70418922D01*
X66979077Y-70583261D01*
X67193795Y-70672200D01*
X67748150Y-70672200D01*
X67894200Y-70526150D01*
X67894200Y-69493200D01*
X68249800Y-69493200D01*
X68249800Y-70526150D01*
X68395850Y-70672200D01*
X68950205Y-70672200D01*
X69164923Y-70583261D01*
X69329261Y-70418922D01*
X69418200Y-70204204D01*
X69418200Y-69493200D01*
X70968800Y-69493200D01*
X70968800Y-79350800D01*
X69170669Y-79350800D01*
X69170669Y-78756000D01*
X69147644Y-78633635D01*
X69075327Y-78521251D01*
X68964983Y-78445856D01*
X68834000Y-78419331D01*
X68529200Y-78419331D01*
X68529200Y-75946000D01*
X68494398Y-75771037D01*
X68395289Y-75622711D01*
X68348943Y-75576365D01*
X68370922Y-75567261D01*
X68535261Y-75402923D01*
X68624200Y-75188205D01*
X68624200Y-74745850D01*
X68478150Y-74599800D01*
X67927500Y-74599800D01*
X67927500Y-74619800D01*
X67702500Y-74619800D01*
X67702500Y-74599800D01*
X67617200Y-74599800D01*
X67617200Y-74244200D01*
X67702500Y-74244200D01*
X67702500Y-73711304D01*
X67774200Y-73538205D01*
X67774200Y-73455550D01*
X67702500Y-73383850D01*
X67702500Y-73333850D01*
X67927500Y-73333850D01*
X67927500Y-74244200D01*
X68478150Y-74244200D01*
X68624200Y-74098150D01*
X68624200Y-73655795D01*
X68535261Y-73441077D01*
X68370922Y-73276739D01*
X68156204Y-73187800D01*
X68073550Y-73187800D01*
X67927500Y-73333850D01*
X67702500Y-73333850D01*
X67556450Y-73187800D01*
X67473796Y-73187800D01*
X67259078Y-73276739D01*
X67226317Y-73309500D01*
X66217800Y-73309500D01*
X66217800Y-73394800D01*
X65862200Y-73394800D01*
X65862200Y-73309500D01*
X65842200Y-73309500D01*
X65842200Y-73084500D01*
X65862200Y-73084500D01*
X65862200Y-72533850D01*
X66217800Y-72533850D01*
X66217800Y-73084500D01*
X67628150Y-73084500D01*
X67774200Y-72938450D01*
X67774200Y-72855795D01*
X67685261Y-72641077D01*
X67520922Y-72476739D01*
X67306204Y-72387800D01*
X66363850Y-72387800D01*
X66217800Y-72533850D01*
X65862200Y-72533850D01*
X65716150Y-72387800D01*
X64773796Y-72387800D01*
X64559078Y-72476739D01*
X64394739Y-72641077D01*
X64364076Y-72715104D01*
X64262000Y-72694800D01*
X63863000Y-72694800D01*
X63688037Y-72729602D01*
X63539711Y-72828711D01*
X63403622Y-72964800D01*
X63191669Y-72964800D01*
X63191669Y-72922000D01*
X63168644Y-72799635D01*
X63096327Y-72687251D01*
X62985983Y-72611856D01*
X62855000Y-72585331D01*
X62814200Y-72585331D01*
X62814200Y-71345984D01*
X63735515Y-70424669D01*
X64770000Y-70424669D01*
X64892365Y-70401644D01*
X65004749Y-70329327D01*
X65080144Y-70218983D01*
X65106669Y-70088000D01*
X65106669Y-69493200D01*
X66725800Y-69493200D01*
X66725800Y-70204204D01*
X66725800Y-70204204D01*
G37*
X66725800Y-70204204D02*
X66814739Y-70418922D01*
X66979077Y-70583261D01*
X67193795Y-70672200D01*
X67748150Y-70672200D01*
X67894200Y-70526150D01*
X67894200Y-69493200D01*
X68249800Y-69493200D01*
X68249800Y-70526150D01*
X68395850Y-70672200D01*
X68950205Y-70672200D01*
X69164923Y-70583261D01*
X69329261Y-70418922D01*
X69418200Y-70204204D01*
X69418200Y-69493200D01*
X70968800Y-69493200D01*
X70968800Y-79350800D01*
X69170669Y-79350800D01*
X69170669Y-78756000D01*
X69147644Y-78633635D01*
X69075327Y-78521251D01*
X68964983Y-78445856D01*
X68834000Y-78419331D01*
X68529200Y-78419331D01*
X68529200Y-75946000D01*
X68494398Y-75771037D01*
X68395289Y-75622711D01*
X68348943Y-75576365D01*
X68370922Y-75567261D01*
X68535261Y-75402923D01*
X68624200Y-75188205D01*
X68624200Y-74745850D01*
X68478150Y-74599800D01*
X67927500Y-74599800D01*
X67927500Y-74619800D01*
X67702500Y-74619800D01*
X67702500Y-74599800D01*
X67617200Y-74599800D01*
X67617200Y-74244200D01*
X67702500Y-74244200D01*
X67702500Y-73711304D01*
X67774200Y-73538205D01*
X67774200Y-73455550D01*
X67702500Y-73383850D01*
X67702500Y-73333850D01*
X67927500Y-73333850D01*
X67927500Y-74244200D01*
X68478150Y-74244200D01*
X68624200Y-74098150D01*
X68624200Y-73655795D01*
X68535261Y-73441077D01*
X68370922Y-73276739D01*
X68156204Y-73187800D01*
X68073550Y-73187800D01*
X67927500Y-73333850D01*
X67702500Y-73333850D01*
X67556450Y-73187800D01*
X67473796Y-73187800D01*
X67259078Y-73276739D01*
X67226317Y-73309500D01*
X66217800Y-73309500D01*
X66217800Y-73394800D01*
X65862200Y-73394800D01*
X65862200Y-73309500D01*
X65842200Y-73309500D01*
X65842200Y-73084500D01*
X65862200Y-73084500D01*
X65862200Y-72533850D01*
X66217800Y-72533850D01*
X66217800Y-73084500D01*
X67628150Y-73084500D01*
X67774200Y-72938450D01*
X67774200Y-72855795D01*
X67685261Y-72641077D01*
X67520922Y-72476739D01*
X67306204Y-72387800D01*
X66363850Y-72387800D01*
X66217800Y-72533850D01*
X65862200Y-72533850D01*
X65716150Y-72387800D01*
X64773796Y-72387800D01*
X64559078Y-72476739D01*
X64394739Y-72641077D01*
X64364076Y-72715104D01*
X64262000Y-72694800D01*
X63863000Y-72694800D01*
X63688037Y-72729602D01*
X63539711Y-72828711D01*
X63403622Y-72964800D01*
X63191669Y-72964800D01*
X63191669Y-72922000D01*
X63168644Y-72799635D01*
X63096327Y-72687251D01*
X62985983Y-72611856D01*
X62855000Y-72585331D01*
X62814200Y-72585331D01*
X62814200Y-71345984D01*
X63735515Y-70424669D01*
X64770000Y-70424669D01*
X64892365Y-70401644D01*
X65004749Y-70329327D01*
X65080144Y-70218983D01*
X65106669Y-70088000D01*
X65106669Y-69493200D01*
X66725800Y-69493200D01*
X66725800Y-70204204D01*
G36*
X66217800Y-75584500D02*
X66237800Y-75584500D01*
X66237800Y-75809500D01*
X66217800Y-75809500D01*
X66217800Y-76360150D01*
X66363850Y-76506200D01*
X67306204Y-76506200D01*
X67520922Y-76417261D01*
X67614800Y-76323384D01*
X67614800Y-78419331D01*
X67310000Y-78419331D01*
X67187635Y-78442356D01*
X67075251Y-78514673D01*
X66999856Y-78625017D01*
X66973331Y-78756000D01*
X66973331Y-79350800D01*
X65106669Y-79350800D01*
X65106669Y-78756000D01*
X65083644Y-78633635D01*
X65011327Y-78521251D01*
X64900983Y-78445856D01*
X64770000Y-78419331D01*
X64465200Y-78419331D01*
X64465200Y-76323384D01*
X64559078Y-76417261D01*
X64773796Y-76506200D01*
X65716150Y-76506200D01*
X65862200Y-76360150D01*
X65862200Y-75809500D01*
X65842200Y-75809500D01*
X65842200Y-75584500D01*
X65862200Y-75584500D01*
X65862200Y-75499200D01*
X66217800Y-75499200D01*
X66217800Y-75584500D01*
X66217800Y-75584500D01*
G37*
X66217800Y-75584500D02*
X66237800Y-75584500D01*
X66237800Y-75809500D01*
X66217800Y-75809500D01*
X66217800Y-76360150D01*
X66363850Y-76506200D01*
X67306204Y-76506200D01*
X67520922Y-76417261D01*
X67614800Y-76323384D01*
X67614800Y-78419331D01*
X67310000Y-78419331D01*
X67187635Y-78442356D01*
X67075251Y-78514673D01*
X66999856Y-78625017D01*
X66973331Y-78756000D01*
X66973331Y-79350800D01*
X65106669Y-79350800D01*
X65106669Y-78756000D01*
X65083644Y-78633635D01*
X65011327Y-78521251D01*
X64900983Y-78445856D01*
X64770000Y-78419331D01*
X64465200Y-78419331D01*
X64465200Y-76323384D01*
X64559078Y-76417261D01*
X64773796Y-76506200D01*
X65716150Y-76506200D01*
X65862200Y-76360150D01*
X65862200Y-75809500D01*
X65842200Y-75809500D01*
X65842200Y-75584500D01*
X65862200Y-75584500D01*
X65862200Y-75499200D01*
X66217800Y-75499200D01*
X66217800Y-75584500D01*
G36*
X62909331Y-69598485D02*
X61816908Y-70690908D01*
X61690270Y-70880436D01*
X61645800Y-71104000D01*
X61645800Y-72585331D01*
X61605000Y-72585331D01*
X61482635Y-72608356D01*
X61370251Y-72680673D01*
X61294856Y-72791017D01*
X61268331Y-72922000D01*
X61268331Y-73922000D01*
X61291356Y-74044365D01*
X61363673Y-74156749D01*
X61474017Y-74232144D01*
X61605000Y-74258669D01*
X62855000Y-74258669D01*
X62977365Y-74235644D01*
X63089749Y-74163327D01*
X63165144Y-74052983D01*
X63191669Y-73922000D01*
X63191669Y-73879200D01*
X63455800Y-73879200D01*
X63455800Y-74098150D01*
X63601850Y-74244200D01*
X64152500Y-74244200D01*
X64152500Y-74224200D01*
X64377500Y-74224200D01*
X64377500Y-74244200D01*
X64462800Y-74244200D01*
X64462800Y-74599800D01*
X64377500Y-74599800D01*
X64377500Y-74619800D01*
X64152500Y-74619800D01*
X64152500Y-74599800D01*
X63601850Y-74599800D01*
X63455800Y-74745850D01*
X63455800Y-75188205D01*
X63544739Y-75402923D01*
X63709078Y-75567261D01*
X63731057Y-75576365D01*
X63684711Y-75622711D01*
X63585602Y-75771037D01*
X63550800Y-75946000D01*
X63550800Y-78419331D01*
X63246000Y-78419331D01*
X63123635Y-78442356D01*
X63011251Y-78514673D01*
X62935856Y-78625017D01*
X62909331Y-78756000D01*
X62909331Y-79350800D01*
X61111200Y-79350800D01*
X61111200Y-76254384D01*
X61274078Y-76417261D01*
X61488796Y-76506200D01*
X61906150Y-76506200D01*
X62052200Y-76360150D01*
X62052200Y-75599800D01*
X62407800Y-75599800D01*
X62407800Y-76360150D01*
X62553850Y-76506200D01*
X62971204Y-76506200D01*
X63185922Y-76417261D01*
X63350261Y-76252923D01*
X63439200Y-76038205D01*
X63439200Y-75745850D01*
X63293150Y-75599800D01*
X62407800Y-75599800D01*
X62052200Y-75599800D01*
X62032200Y-75599800D01*
X62032200Y-75244200D01*
X62052200Y-75244200D01*
X62052200Y-74483850D01*
X62407800Y-74483850D01*
X62407800Y-75244200D01*
X63293150Y-75244200D01*
X63439200Y-75098150D01*
X63439200Y-74805795D01*
X63350261Y-74591077D01*
X63185922Y-74426739D01*
X62971204Y-74337800D01*
X62553850Y-74337800D01*
X62407800Y-74483850D01*
X62052200Y-74483850D01*
X61906150Y-74337800D01*
X61488796Y-74337800D01*
X61274078Y-74426739D01*
X61111200Y-74589616D01*
X61111200Y-69493200D01*
X62909331Y-69493200D01*
X62909331Y-69598485D01*
X62909331Y-69598485D01*
G37*
X62909331Y-69598485D02*
X61816908Y-70690908D01*
X61690270Y-70880436D01*
X61645800Y-71104000D01*
X61645800Y-72585331D01*
X61605000Y-72585331D01*
X61482635Y-72608356D01*
X61370251Y-72680673D01*
X61294856Y-72791017D01*
X61268331Y-72922000D01*
X61268331Y-73922000D01*
X61291356Y-74044365D01*
X61363673Y-74156749D01*
X61474017Y-74232144D01*
X61605000Y-74258669D01*
X62855000Y-74258669D01*
X62977365Y-74235644D01*
X63089749Y-74163327D01*
X63165144Y-74052983D01*
X63191669Y-73922000D01*
X63191669Y-73879200D01*
X63455800Y-73879200D01*
X63455800Y-74098150D01*
X63601850Y-74244200D01*
X64152500Y-74244200D01*
X64152500Y-74224200D01*
X64377500Y-74224200D01*
X64377500Y-74244200D01*
X64462800Y-74244200D01*
X64462800Y-74599800D01*
X64377500Y-74599800D01*
X64377500Y-74619800D01*
X64152500Y-74619800D01*
X64152500Y-74599800D01*
X63601850Y-74599800D01*
X63455800Y-74745850D01*
X63455800Y-75188205D01*
X63544739Y-75402923D01*
X63709078Y-75567261D01*
X63731057Y-75576365D01*
X63684711Y-75622711D01*
X63585602Y-75771037D01*
X63550800Y-75946000D01*
X63550800Y-78419331D01*
X63246000Y-78419331D01*
X63123635Y-78442356D01*
X63011251Y-78514673D01*
X62935856Y-78625017D01*
X62909331Y-78756000D01*
X62909331Y-79350800D01*
X61111200Y-79350800D01*
X61111200Y-76254384D01*
X61274078Y-76417261D01*
X61488796Y-76506200D01*
X61906150Y-76506200D01*
X62052200Y-76360150D01*
X62052200Y-75599800D01*
X62407800Y-75599800D01*
X62407800Y-76360150D01*
X62553850Y-76506200D01*
X62971204Y-76506200D01*
X63185922Y-76417261D01*
X63350261Y-76252923D01*
X63439200Y-76038205D01*
X63439200Y-75745850D01*
X63293150Y-75599800D01*
X62407800Y-75599800D01*
X62052200Y-75599800D01*
X62032200Y-75599800D01*
X62032200Y-75244200D01*
X62052200Y-75244200D01*
X62052200Y-74483850D01*
X62407800Y-74483850D01*
X62407800Y-75244200D01*
X63293150Y-75244200D01*
X63439200Y-75098150D01*
X63439200Y-74805795D01*
X63350261Y-74591077D01*
X63185922Y-74426739D01*
X62971204Y-74337800D01*
X62553850Y-74337800D01*
X62407800Y-74483850D01*
X62052200Y-74483850D01*
X61906150Y-74337800D01*
X61488796Y-74337800D01*
X61274078Y-74426739D01*
X61111200Y-74589616D01*
X61111200Y-69493200D01*
X62909331Y-69493200D01*
X62909331Y-69598485D01*
G36*
X66725800Y-85444204D02*
X66814739Y-85658922D01*
X66979077Y-85823261D01*
X67193795Y-85912200D01*
X67748150Y-85912200D01*
X67894200Y-85766150D01*
X67894200Y-84733200D01*
X68249800Y-84733200D01*
X68249800Y-85766150D01*
X68395850Y-85912200D01*
X68950205Y-85912200D01*
X69164923Y-85823261D01*
X69329261Y-85658922D01*
X69418200Y-85444204D01*
X69418200Y-84733200D01*
X70968800Y-84733200D01*
X70968800Y-94590800D01*
X69170669Y-94590800D01*
X69170669Y-93996000D01*
X69147644Y-93873635D01*
X69075327Y-93761251D01*
X68964983Y-93685856D01*
X68834000Y-93659331D01*
X68529200Y-93659331D01*
X68529200Y-91186000D01*
X68494398Y-91011037D01*
X68395289Y-90862711D01*
X68348943Y-90816365D01*
X68370922Y-90807261D01*
X68535261Y-90642923D01*
X68624200Y-90428205D01*
X68624200Y-89985850D01*
X68478150Y-89839800D01*
X67927500Y-89839800D01*
X67927500Y-89859800D01*
X67702500Y-89859800D01*
X67702500Y-89839800D01*
X67617200Y-89839800D01*
X67617200Y-89484200D01*
X67702500Y-89484200D01*
X67702500Y-88951304D01*
X67774200Y-88778205D01*
X67774200Y-88695550D01*
X67702500Y-88623850D01*
X67702500Y-88573850D01*
X67927500Y-88573850D01*
X67927500Y-89484200D01*
X68478150Y-89484200D01*
X68624200Y-89338150D01*
X68624200Y-88895795D01*
X68535261Y-88681077D01*
X68370922Y-88516739D01*
X68156204Y-88427800D01*
X68073550Y-88427800D01*
X67927500Y-88573850D01*
X67702500Y-88573850D01*
X67556450Y-88427800D01*
X67473796Y-88427800D01*
X67259078Y-88516739D01*
X67226317Y-88549500D01*
X66217800Y-88549500D01*
X66217800Y-88634800D01*
X65862200Y-88634800D01*
X65862200Y-88549500D01*
X65842200Y-88549500D01*
X65842200Y-88324500D01*
X65862200Y-88324500D01*
X65862200Y-87773850D01*
X66217800Y-87773850D01*
X66217800Y-88324500D01*
X67628150Y-88324500D01*
X67774200Y-88178450D01*
X67774200Y-88095795D01*
X67685261Y-87881077D01*
X67520922Y-87716739D01*
X67306204Y-87627800D01*
X66363850Y-87627800D01*
X66217800Y-87773850D01*
X65862200Y-87773850D01*
X65716150Y-87627800D01*
X64773796Y-87627800D01*
X64559078Y-87716739D01*
X64394739Y-87881077D01*
X64364076Y-87955104D01*
X64262000Y-87934800D01*
X63863000Y-87934800D01*
X63688037Y-87969602D01*
X63539711Y-88068711D01*
X63403622Y-88204800D01*
X63191669Y-88204800D01*
X63191669Y-88162000D01*
X63168644Y-88039635D01*
X63096327Y-87927251D01*
X62985983Y-87851856D01*
X62855000Y-87825331D01*
X62814200Y-87825331D01*
X62814200Y-86585984D01*
X63735515Y-85664669D01*
X64770000Y-85664669D01*
X64892365Y-85641644D01*
X65004749Y-85569327D01*
X65080144Y-85458983D01*
X65106669Y-85328000D01*
X65106669Y-84733200D01*
X66725800Y-84733200D01*
X66725800Y-85444204D01*
X66725800Y-85444204D01*
G37*
X66725800Y-85444204D02*
X66814739Y-85658922D01*
X66979077Y-85823261D01*
X67193795Y-85912200D01*
X67748150Y-85912200D01*
X67894200Y-85766150D01*
X67894200Y-84733200D01*
X68249800Y-84733200D01*
X68249800Y-85766150D01*
X68395850Y-85912200D01*
X68950205Y-85912200D01*
X69164923Y-85823261D01*
X69329261Y-85658922D01*
X69418200Y-85444204D01*
X69418200Y-84733200D01*
X70968800Y-84733200D01*
X70968800Y-94590800D01*
X69170669Y-94590800D01*
X69170669Y-93996000D01*
X69147644Y-93873635D01*
X69075327Y-93761251D01*
X68964983Y-93685856D01*
X68834000Y-93659331D01*
X68529200Y-93659331D01*
X68529200Y-91186000D01*
X68494398Y-91011037D01*
X68395289Y-90862711D01*
X68348943Y-90816365D01*
X68370922Y-90807261D01*
X68535261Y-90642923D01*
X68624200Y-90428205D01*
X68624200Y-89985850D01*
X68478150Y-89839800D01*
X67927500Y-89839800D01*
X67927500Y-89859800D01*
X67702500Y-89859800D01*
X67702500Y-89839800D01*
X67617200Y-89839800D01*
X67617200Y-89484200D01*
X67702500Y-89484200D01*
X67702500Y-88951304D01*
X67774200Y-88778205D01*
X67774200Y-88695550D01*
X67702500Y-88623850D01*
X67702500Y-88573850D01*
X67927500Y-88573850D01*
X67927500Y-89484200D01*
X68478150Y-89484200D01*
X68624200Y-89338150D01*
X68624200Y-88895795D01*
X68535261Y-88681077D01*
X68370922Y-88516739D01*
X68156204Y-88427800D01*
X68073550Y-88427800D01*
X67927500Y-88573850D01*
X67702500Y-88573850D01*
X67556450Y-88427800D01*
X67473796Y-88427800D01*
X67259078Y-88516739D01*
X67226317Y-88549500D01*
X66217800Y-88549500D01*
X66217800Y-88634800D01*
X65862200Y-88634800D01*
X65862200Y-88549500D01*
X65842200Y-88549500D01*
X65842200Y-88324500D01*
X65862200Y-88324500D01*
X65862200Y-87773850D01*
X66217800Y-87773850D01*
X66217800Y-88324500D01*
X67628150Y-88324500D01*
X67774200Y-88178450D01*
X67774200Y-88095795D01*
X67685261Y-87881077D01*
X67520922Y-87716739D01*
X67306204Y-87627800D01*
X66363850Y-87627800D01*
X66217800Y-87773850D01*
X65862200Y-87773850D01*
X65716150Y-87627800D01*
X64773796Y-87627800D01*
X64559078Y-87716739D01*
X64394739Y-87881077D01*
X64364076Y-87955104D01*
X64262000Y-87934800D01*
X63863000Y-87934800D01*
X63688037Y-87969602D01*
X63539711Y-88068711D01*
X63403622Y-88204800D01*
X63191669Y-88204800D01*
X63191669Y-88162000D01*
X63168644Y-88039635D01*
X63096327Y-87927251D01*
X62985983Y-87851856D01*
X62855000Y-87825331D01*
X62814200Y-87825331D01*
X62814200Y-86585984D01*
X63735515Y-85664669D01*
X64770000Y-85664669D01*
X64892365Y-85641644D01*
X65004749Y-85569327D01*
X65080144Y-85458983D01*
X65106669Y-85328000D01*
X65106669Y-84733200D01*
X66725800Y-84733200D01*
X66725800Y-85444204D01*
G36*
X66217800Y-90824500D02*
X66237800Y-90824500D01*
X66237800Y-91049500D01*
X66217800Y-91049500D01*
X66217800Y-91600150D01*
X66363850Y-91746200D01*
X67306204Y-91746200D01*
X67520922Y-91657261D01*
X67614800Y-91563384D01*
X67614800Y-93659331D01*
X67310000Y-93659331D01*
X67187635Y-93682356D01*
X67075251Y-93754673D01*
X66999856Y-93865017D01*
X66973331Y-93996000D01*
X66973331Y-94590800D01*
X65106669Y-94590800D01*
X65106669Y-93996000D01*
X65083644Y-93873635D01*
X65011327Y-93761251D01*
X64900983Y-93685856D01*
X64770000Y-93659331D01*
X64465200Y-93659331D01*
X64465200Y-91563384D01*
X64559078Y-91657261D01*
X64773796Y-91746200D01*
X65716150Y-91746200D01*
X65862200Y-91600150D01*
X65862200Y-91049500D01*
X65842200Y-91049500D01*
X65842200Y-90824500D01*
X65862200Y-90824500D01*
X65862200Y-90739200D01*
X66217800Y-90739200D01*
X66217800Y-90824500D01*
X66217800Y-90824500D01*
G37*
X66217800Y-90824500D02*
X66237800Y-90824500D01*
X66237800Y-91049500D01*
X66217800Y-91049500D01*
X66217800Y-91600150D01*
X66363850Y-91746200D01*
X67306204Y-91746200D01*
X67520922Y-91657261D01*
X67614800Y-91563384D01*
X67614800Y-93659331D01*
X67310000Y-93659331D01*
X67187635Y-93682356D01*
X67075251Y-93754673D01*
X66999856Y-93865017D01*
X66973331Y-93996000D01*
X66973331Y-94590800D01*
X65106669Y-94590800D01*
X65106669Y-93996000D01*
X65083644Y-93873635D01*
X65011327Y-93761251D01*
X64900983Y-93685856D01*
X64770000Y-93659331D01*
X64465200Y-93659331D01*
X64465200Y-91563384D01*
X64559078Y-91657261D01*
X64773796Y-91746200D01*
X65716150Y-91746200D01*
X65862200Y-91600150D01*
X65862200Y-91049500D01*
X65842200Y-91049500D01*
X65842200Y-90824500D01*
X65862200Y-90824500D01*
X65862200Y-90739200D01*
X66217800Y-90739200D01*
X66217800Y-90824500D01*
G36*
X62909331Y-84838485D02*
X61816908Y-85930908D01*
X61690270Y-86120436D01*
X61645800Y-86344000D01*
X61645800Y-87825331D01*
X61605000Y-87825331D01*
X61482635Y-87848356D01*
X61370251Y-87920673D01*
X61294856Y-88031017D01*
X61268331Y-88162000D01*
X61268331Y-89162000D01*
X61291356Y-89284365D01*
X61363673Y-89396749D01*
X61474017Y-89472144D01*
X61605000Y-89498669D01*
X62855000Y-89498669D01*
X62977365Y-89475644D01*
X63089749Y-89403327D01*
X63165144Y-89292983D01*
X63191669Y-89162000D01*
X63191669Y-89119200D01*
X63455800Y-89119200D01*
X63455800Y-89338150D01*
X63601850Y-89484200D01*
X64152500Y-89484200D01*
X64152500Y-89464200D01*
X64377500Y-89464200D01*
X64377500Y-89484200D01*
X64462800Y-89484200D01*
X64462800Y-89839800D01*
X64377500Y-89839800D01*
X64377500Y-89859800D01*
X64152500Y-89859800D01*
X64152500Y-89839800D01*
X63601850Y-89839800D01*
X63455800Y-89985850D01*
X63455800Y-90428205D01*
X63544739Y-90642923D01*
X63709078Y-90807261D01*
X63731057Y-90816365D01*
X63684711Y-90862711D01*
X63585602Y-91011037D01*
X63550800Y-91186000D01*
X63550800Y-93659331D01*
X63246000Y-93659331D01*
X63123635Y-93682356D01*
X63011251Y-93754673D01*
X62935856Y-93865017D01*
X62909331Y-93996000D01*
X62909331Y-94590800D01*
X61111200Y-94590800D01*
X61111200Y-91494384D01*
X61274078Y-91657261D01*
X61488796Y-91746200D01*
X61906150Y-91746200D01*
X62052200Y-91600150D01*
X62052200Y-90839800D01*
X62407800Y-90839800D01*
X62407800Y-91600150D01*
X62553850Y-91746200D01*
X62971204Y-91746200D01*
X63185922Y-91657261D01*
X63350261Y-91492923D01*
X63439200Y-91278205D01*
X63439200Y-90985850D01*
X63293150Y-90839800D01*
X62407800Y-90839800D01*
X62052200Y-90839800D01*
X62032200Y-90839800D01*
X62032200Y-90484200D01*
X62052200Y-90484200D01*
X62052200Y-89723850D01*
X62407800Y-89723850D01*
X62407800Y-90484200D01*
X63293150Y-90484200D01*
X63439200Y-90338150D01*
X63439200Y-90045795D01*
X63350261Y-89831077D01*
X63185922Y-89666739D01*
X62971204Y-89577800D01*
X62553850Y-89577800D01*
X62407800Y-89723850D01*
X62052200Y-89723850D01*
X61906150Y-89577800D01*
X61488796Y-89577800D01*
X61274078Y-89666739D01*
X61111200Y-89829616D01*
X61111200Y-84733200D01*
X62909331Y-84733200D01*
X62909331Y-84838485D01*
X62909331Y-84838485D01*
G37*
X62909331Y-84838485D02*
X61816908Y-85930908D01*
X61690270Y-86120436D01*
X61645800Y-86344000D01*
X61645800Y-87825331D01*
X61605000Y-87825331D01*
X61482635Y-87848356D01*
X61370251Y-87920673D01*
X61294856Y-88031017D01*
X61268331Y-88162000D01*
X61268331Y-89162000D01*
X61291356Y-89284365D01*
X61363673Y-89396749D01*
X61474017Y-89472144D01*
X61605000Y-89498669D01*
X62855000Y-89498669D01*
X62977365Y-89475644D01*
X63089749Y-89403327D01*
X63165144Y-89292983D01*
X63191669Y-89162000D01*
X63191669Y-89119200D01*
X63455800Y-89119200D01*
X63455800Y-89338150D01*
X63601850Y-89484200D01*
X64152500Y-89484200D01*
X64152500Y-89464200D01*
X64377500Y-89464200D01*
X64377500Y-89484200D01*
X64462800Y-89484200D01*
X64462800Y-89839800D01*
X64377500Y-89839800D01*
X64377500Y-89859800D01*
X64152500Y-89859800D01*
X64152500Y-89839800D01*
X63601850Y-89839800D01*
X63455800Y-89985850D01*
X63455800Y-90428205D01*
X63544739Y-90642923D01*
X63709078Y-90807261D01*
X63731057Y-90816365D01*
X63684711Y-90862711D01*
X63585602Y-91011037D01*
X63550800Y-91186000D01*
X63550800Y-93659331D01*
X63246000Y-93659331D01*
X63123635Y-93682356D01*
X63011251Y-93754673D01*
X62935856Y-93865017D01*
X62909331Y-93996000D01*
X62909331Y-94590800D01*
X61111200Y-94590800D01*
X61111200Y-91494384D01*
X61274078Y-91657261D01*
X61488796Y-91746200D01*
X61906150Y-91746200D01*
X62052200Y-91600150D01*
X62052200Y-90839800D01*
X62407800Y-90839800D01*
X62407800Y-91600150D01*
X62553850Y-91746200D01*
X62971204Y-91746200D01*
X63185922Y-91657261D01*
X63350261Y-91492923D01*
X63439200Y-91278205D01*
X63439200Y-90985850D01*
X63293150Y-90839800D01*
X62407800Y-90839800D01*
X62052200Y-90839800D01*
X62032200Y-90839800D01*
X62032200Y-90484200D01*
X62052200Y-90484200D01*
X62052200Y-89723850D01*
X62407800Y-89723850D01*
X62407800Y-90484200D01*
X63293150Y-90484200D01*
X63439200Y-90338150D01*
X63439200Y-90045795D01*
X63350261Y-89831077D01*
X63185922Y-89666739D01*
X62971204Y-89577800D01*
X62553850Y-89577800D01*
X62407800Y-89723850D01*
X62052200Y-89723850D01*
X61906150Y-89577800D01*
X61488796Y-89577800D01*
X61274078Y-89666739D01*
X61111200Y-89829616D01*
X61111200Y-84733200D01*
X62909331Y-84733200D01*
X62909331Y-84838485D01*
G36*
X66725800Y-100684204D02*
X66814739Y-100898922D01*
X66979077Y-101063261D01*
X67193795Y-101152200D01*
X67748150Y-101152200D01*
X67894200Y-101006150D01*
X67894200Y-99973200D01*
X68249800Y-99973200D01*
X68249800Y-101006150D01*
X68395850Y-101152200D01*
X68950205Y-101152200D01*
X69164923Y-101063261D01*
X69329261Y-100898922D01*
X69418200Y-100684204D01*
X69418200Y-99973200D01*
X70968800Y-99973200D01*
X70968800Y-109830800D01*
X69170669Y-109830800D01*
X69170669Y-109236000D01*
X69147644Y-109113635D01*
X69075327Y-109001251D01*
X68964983Y-108925856D01*
X68834000Y-108899331D01*
X68529200Y-108899331D01*
X68529200Y-106426000D01*
X68494398Y-106251037D01*
X68395289Y-106102711D01*
X68348943Y-106056365D01*
X68370922Y-106047261D01*
X68535261Y-105882923D01*
X68624200Y-105668205D01*
X68624200Y-105225850D01*
X68478150Y-105079800D01*
X67927500Y-105079800D01*
X67927500Y-105099800D01*
X67702500Y-105099800D01*
X67702500Y-105079800D01*
X67617200Y-105079800D01*
X67617200Y-104724200D01*
X67702500Y-104724200D01*
X67702500Y-104191304D01*
X67774200Y-104018205D01*
X67774200Y-103935550D01*
X67702500Y-103863850D01*
X67702500Y-103813850D01*
X67927500Y-103813850D01*
X67927500Y-104724200D01*
X68478150Y-104724200D01*
X68624200Y-104578150D01*
X68624200Y-104135795D01*
X68535261Y-103921077D01*
X68370922Y-103756739D01*
X68156204Y-103667800D01*
X68073550Y-103667800D01*
X67927500Y-103813850D01*
X67702500Y-103813850D01*
X67556450Y-103667800D01*
X67473796Y-103667800D01*
X67259078Y-103756739D01*
X67226317Y-103789500D01*
X66217800Y-103789500D01*
X66217800Y-103874800D01*
X65862200Y-103874800D01*
X65862200Y-103789500D01*
X65842200Y-103789500D01*
X65842200Y-103564500D01*
X65862200Y-103564500D01*
X65862200Y-103013850D01*
X66217800Y-103013850D01*
X66217800Y-103564500D01*
X67628150Y-103564500D01*
X67774200Y-103418450D01*
X67774200Y-103335795D01*
X67685261Y-103121077D01*
X67520922Y-102956739D01*
X67306204Y-102867800D01*
X66363850Y-102867800D01*
X66217800Y-103013850D01*
X65862200Y-103013850D01*
X65716150Y-102867800D01*
X64773796Y-102867800D01*
X64559078Y-102956739D01*
X64394739Y-103121077D01*
X64364076Y-103195104D01*
X64262000Y-103174800D01*
X63863000Y-103174800D01*
X63688037Y-103209602D01*
X63539711Y-103308711D01*
X63403622Y-103444800D01*
X63191669Y-103444800D01*
X63191669Y-103402000D01*
X63168644Y-103279635D01*
X63096327Y-103167251D01*
X62985983Y-103091856D01*
X62855000Y-103065331D01*
X62814200Y-103065331D01*
X62814200Y-101825984D01*
X63735515Y-100904669D01*
X64770000Y-100904669D01*
X64892365Y-100881644D01*
X65004749Y-100809327D01*
X65080144Y-100698983D01*
X65106669Y-100568000D01*
X65106669Y-99973200D01*
X66725800Y-99973200D01*
X66725800Y-100684204D01*
X66725800Y-100684204D01*
G37*
X66725800Y-100684204D02*
X66814739Y-100898922D01*
X66979077Y-101063261D01*
X67193795Y-101152200D01*
X67748150Y-101152200D01*
X67894200Y-101006150D01*
X67894200Y-99973200D01*
X68249800Y-99973200D01*
X68249800Y-101006150D01*
X68395850Y-101152200D01*
X68950205Y-101152200D01*
X69164923Y-101063261D01*
X69329261Y-100898922D01*
X69418200Y-100684204D01*
X69418200Y-99973200D01*
X70968800Y-99973200D01*
X70968800Y-109830800D01*
X69170669Y-109830800D01*
X69170669Y-109236000D01*
X69147644Y-109113635D01*
X69075327Y-109001251D01*
X68964983Y-108925856D01*
X68834000Y-108899331D01*
X68529200Y-108899331D01*
X68529200Y-106426000D01*
X68494398Y-106251037D01*
X68395289Y-106102711D01*
X68348943Y-106056365D01*
X68370922Y-106047261D01*
X68535261Y-105882923D01*
X68624200Y-105668205D01*
X68624200Y-105225850D01*
X68478150Y-105079800D01*
X67927500Y-105079800D01*
X67927500Y-105099800D01*
X67702500Y-105099800D01*
X67702500Y-105079800D01*
X67617200Y-105079800D01*
X67617200Y-104724200D01*
X67702500Y-104724200D01*
X67702500Y-104191304D01*
X67774200Y-104018205D01*
X67774200Y-103935550D01*
X67702500Y-103863850D01*
X67702500Y-103813850D01*
X67927500Y-103813850D01*
X67927500Y-104724200D01*
X68478150Y-104724200D01*
X68624200Y-104578150D01*
X68624200Y-104135795D01*
X68535261Y-103921077D01*
X68370922Y-103756739D01*
X68156204Y-103667800D01*
X68073550Y-103667800D01*
X67927500Y-103813850D01*
X67702500Y-103813850D01*
X67556450Y-103667800D01*
X67473796Y-103667800D01*
X67259078Y-103756739D01*
X67226317Y-103789500D01*
X66217800Y-103789500D01*
X66217800Y-103874800D01*
X65862200Y-103874800D01*
X65862200Y-103789500D01*
X65842200Y-103789500D01*
X65842200Y-103564500D01*
X65862200Y-103564500D01*
X65862200Y-103013850D01*
X66217800Y-103013850D01*
X66217800Y-103564500D01*
X67628150Y-103564500D01*
X67774200Y-103418450D01*
X67774200Y-103335795D01*
X67685261Y-103121077D01*
X67520922Y-102956739D01*
X67306204Y-102867800D01*
X66363850Y-102867800D01*
X66217800Y-103013850D01*
X65862200Y-103013850D01*
X65716150Y-102867800D01*
X64773796Y-102867800D01*
X64559078Y-102956739D01*
X64394739Y-103121077D01*
X64364076Y-103195104D01*
X64262000Y-103174800D01*
X63863000Y-103174800D01*
X63688037Y-103209602D01*
X63539711Y-103308711D01*
X63403622Y-103444800D01*
X63191669Y-103444800D01*
X63191669Y-103402000D01*
X63168644Y-103279635D01*
X63096327Y-103167251D01*
X62985983Y-103091856D01*
X62855000Y-103065331D01*
X62814200Y-103065331D01*
X62814200Y-101825984D01*
X63735515Y-100904669D01*
X64770000Y-100904669D01*
X64892365Y-100881644D01*
X65004749Y-100809327D01*
X65080144Y-100698983D01*
X65106669Y-100568000D01*
X65106669Y-99973200D01*
X66725800Y-99973200D01*
X66725800Y-100684204D01*
G36*
X66217800Y-106064500D02*
X66237800Y-106064500D01*
X66237800Y-106289500D01*
X66217800Y-106289500D01*
X66217800Y-106840150D01*
X66363850Y-106986200D01*
X67306204Y-106986200D01*
X67520922Y-106897261D01*
X67614800Y-106803384D01*
X67614800Y-108899331D01*
X67310000Y-108899331D01*
X67187635Y-108922356D01*
X67075251Y-108994673D01*
X66999856Y-109105017D01*
X66973331Y-109236000D01*
X66973331Y-109830800D01*
X65106669Y-109830800D01*
X65106669Y-109236000D01*
X65083644Y-109113635D01*
X65011327Y-109001251D01*
X64900983Y-108925856D01*
X64770000Y-108899331D01*
X64465200Y-108899331D01*
X64465200Y-106803384D01*
X64559078Y-106897261D01*
X64773796Y-106986200D01*
X65716150Y-106986200D01*
X65862200Y-106840150D01*
X65862200Y-106289500D01*
X65842200Y-106289500D01*
X65842200Y-106064500D01*
X65862200Y-106064500D01*
X65862200Y-105979200D01*
X66217800Y-105979200D01*
X66217800Y-106064500D01*
X66217800Y-106064500D01*
G37*
X66217800Y-106064500D02*
X66237800Y-106064500D01*
X66237800Y-106289500D01*
X66217800Y-106289500D01*
X66217800Y-106840150D01*
X66363850Y-106986200D01*
X67306204Y-106986200D01*
X67520922Y-106897261D01*
X67614800Y-106803384D01*
X67614800Y-108899331D01*
X67310000Y-108899331D01*
X67187635Y-108922356D01*
X67075251Y-108994673D01*
X66999856Y-109105017D01*
X66973331Y-109236000D01*
X66973331Y-109830800D01*
X65106669Y-109830800D01*
X65106669Y-109236000D01*
X65083644Y-109113635D01*
X65011327Y-109001251D01*
X64900983Y-108925856D01*
X64770000Y-108899331D01*
X64465200Y-108899331D01*
X64465200Y-106803384D01*
X64559078Y-106897261D01*
X64773796Y-106986200D01*
X65716150Y-106986200D01*
X65862200Y-106840150D01*
X65862200Y-106289500D01*
X65842200Y-106289500D01*
X65842200Y-106064500D01*
X65862200Y-106064500D01*
X65862200Y-105979200D01*
X66217800Y-105979200D01*
X66217800Y-106064500D01*
G36*
X62909331Y-100078485D02*
X61816908Y-101170908D01*
X61690270Y-101360436D01*
X61645800Y-101584000D01*
X61645800Y-103065331D01*
X61605000Y-103065331D01*
X61482635Y-103088356D01*
X61370251Y-103160673D01*
X61294856Y-103271017D01*
X61268331Y-103402000D01*
X61268331Y-104402000D01*
X61291356Y-104524365D01*
X61363673Y-104636749D01*
X61474017Y-104712144D01*
X61605000Y-104738669D01*
X62855000Y-104738669D01*
X62977365Y-104715644D01*
X63089749Y-104643327D01*
X63165144Y-104532983D01*
X63191669Y-104402000D01*
X63191669Y-104359200D01*
X63455800Y-104359200D01*
X63455800Y-104578150D01*
X63601850Y-104724200D01*
X64152500Y-104724200D01*
X64152500Y-104704200D01*
X64377500Y-104704200D01*
X64377500Y-104724200D01*
X64462800Y-104724200D01*
X64462800Y-105079800D01*
X64377500Y-105079800D01*
X64377500Y-105099800D01*
X64152500Y-105099800D01*
X64152500Y-105079800D01*
X63601850Y-105079800D01*
X63455800Y-105225850D01*
X63455800Y-105668205D01*
X63544739Y-105882923D01*
X63709078Y-106047261D01*
X63731057Y-106056365D01*
X63684711Y-106102711D01*
X63585602Y-106251037D01*
X63550800Y-106426000D01*
X63550800Y-108899331D01*
X63246000Y-108899331D01*
X63123635Y-108922356D01*
X63011251Y-108994673D01*
X62935856Y-109105017D01*
X62909331Y-109236000D01*
X62909331Y-109830800D01*
X61111200Y-109830800D01*
X61111200Y-106734384D01*
X61274078Y-106897261D01*
X61488796Y-106986200D01*
X61906150Y-106986200D01*
X62052200Y-106840150D01*
X62052200Y-106079800D01*
X62407800Y-106079800D01*
X62407800Y-106840150D01*
X62553850Y-106986200D01*
X62971204Y-106986200D01*
X63185922Y-106897261D01*
X63350261Y-106732923D01*
X63439200Y-106518205D01*
X63439200Y-106225850D01*
X63293150Y-106079800D01*
X62407800Y-106079800D01*
X62052200Y-106079800D01*
X62032200Y-106079800D01*
X62032200Y-105724200D01*
X62052200Y-105724200D01*
X62052200Y-104963850D01*
X62407800Y-104963850D01*
X62407800Y-105724200D01*
X63293150Y-105724200D01*
X63439200Y-105578150D01*
X63439200Y-105285795D01*
X63350261Y-105071077D01*
X63185922Y-104906739D01*
X62971204Y-104817800D01*
X62553850Y-104817800D01*
X62407800Y-104963850D01*
X62052200Y-104963850D01*
X61906150Y-104817800D01*
X61488796Y-104817800D01*
X61274078Y-104906739D01*
X61111200Y-105069616D01*
X61111200Y-99973200D01*
X62909331Y-99973200D01*
X62909331Y-100078485D01*
X62909331Y-100078485D01*
G37*
X62909331Y-100078485D02*
X61816908Y-101170908D01*
X61690270Y-101360436D01*
X61645800Y-101584000D01*
X61645800Y-103065331D01*
X61605000Y-103065331D01*
X61482635Y-103088356D01*
X61370251Y-103160673D01*
X61294856Y-103271017D01*
X61268331Y-103402000D01*
X61268331Y-104402000D01*
X61291356Y-104524365D01*
X61363673Y-104636749D01*
X61474017Y-104712144D01*
X61605000Y-104738669D01*
X62855000Y-104738669D01*
X62977365Y-104715644D01*
X63089749Y-104643327D01*
X63165144Y-104532983D01*
X63191669Y-104402000D01*
X63191669Y-104359200D01*
X63455800Y-104359200D01*
X63455800Y-104578150D01*
X63601850Y-104724200D01*
X64152500Y-104724200D01*
X64152500Y-104704200D01*
X64377500Y-104704200D01*
X64377500Y-104724200D01*
X64462800Y-104724200D01*
X64462800Y-105079800D01*
X64377500Y-105079800D01*
X64377500Y-105099800D01*
X64152500Y-105099800D01*
X64152500Y-105079800D01*
X63601850Y-105079800D01*
X63455800Y-105225850D01*
X63455800Y-105668205D01*
X63544739Y-105882923D01*
X63709078Y-106047261D01*
X63731057Y-106056365D01*
X63684711Y-106102711D01*
X63585602Y-106251037D01*
X63550800Y-106426000D01*
X63550800Y-108899331D01*
X63246000Y-108899331D01*
X63123635Y-108922356D01*
X63011251Y-108994673D01*
X62935856Y-109105017D01*
X62909331Y-109236000D01*
X62909331Y-109830800D01*
X61111200Y-109830800D01*
X61111200Y-106734384D01*
X61274078Y-106897261D01*
X61488796Y-106986200D01*
X61906150Y-106986200D01*
X62052200Y-106840150D01*
X62052200Y-106079800D01*
X62407800Y-106079800D01*
X62407800Y-106840150D01*
X62553850Y-106986200D01*
X62971204Y-106986200D01*
X63185922Y-106897261D01*
X63350261Y-106732923D01*
X63439200Y-106518205D01*
X63439200Y-106225850D01*
X63293150Y-106079800D01*
X62407800Y-106079800D01*
X62052200Y-106079800D01*
X62032200Y-106079800D01*
X62032200Y-105724200D01*
X62052200Y-105724200D01*
X62052200Y-104963850D01*
X62407800Y-104963850D01*
X62407800Y-105724200D01*
X63293150Y-105724200D01*
X63439200Y-105578150D01*
X63439200Y-105285795D01*
X63350261Y-105071077D01*
X63185922Y-104906739D01*
X62971204Y-104817800D01*
X62553850Y-104817800D01*
X62407800Y-104963850D01*
X62052200Y-104963850D01*
X61906150Y-104817800D01*
X61488796Y-104817800D01*
X61274078Y-104906739D01*
X61111200Y-105069616D01*
X61111200Y-99973200D01*
X62909331Y-99973200D01*
X62909331Y-100078485D01*
G36*
X77393800Y-100684204D02*
X77482739Y-100898922D01*
X77647077Y-101063261D01*
X77861795Y-101152200D01*
X78416150Y-101152200D01*
X78562200Y-101006150D01*
X78562200Y-99973200D01*
X78917800Y-99973200D01*
X78917800Y-101006150D01*
X79063850Y-101152200D01*
X79618205Y-101152200D01*
X79832923Y-101063261D01*
X79997261Y-100898922D01*
X80086200Y-100684204D01*
X80086200Y-99973200D01*
X81636800Y-99973200D01*
X81636800Y-109830800D01*
X79838669Y-109830800D01*
X79838669Y-109236000D01*
X79815644Y-109113635D01*
X79743327Y-109001251D01*
X79632983Y-108925856D01*
X79502000Y-108899331D01*
X79197200Y-108899331D01*
X79197200Y-106426000D01*
X79162398Y-106251037D01*
X79063289Y-106102711D01*
X79016943Y-106056365D01*
X79038922Y-106047261D01*
X79203261Y-105882923D01*
X79292200Y-105668205D01*
X79292200Y-105225850D01*
X79146150Y-105079800D01*
X78595500Y-105079800D01*
X78595500Y-105099800D01*
X78370500Y-105099800D01*
X78370500Y-105079800D01*
X78285200Y-105079800D01*
X78285200Y-104724200D01*
X78370500Y-104724200D01*
X78370500Y-104191304D01*
X78442200Y-104018205D01*
X78442200Y-103935550D01*
X78370500Y-103863850D01*
X78370500Y-103813850D01*
X78595500Y-103813850D01*
X78595500Y-104724200D01*
X79146150Y-104724200D01*
X79292200Y-104578150D01*
X79292200Y-104135795D01*
X79203261Y-103921077D01*
X79038922Y-103756739D01*
X78824204Y-103667800D01*
X78741550Y-103667800D01*
X78595500Y-103813850D01*
X78370500Y-103813850D01*
X78224450Y-103667800D01*
X78141796Y-103667800D01*
X77927078Y-103756739D01*
X77894317Y-103789500D01*
X76885800Y-103789500D01*
X76885800Y-103874800D01*
X76530200Y-103874800D01*
X76530200Y-103789500D01*
X76510200Y-103789500D01*
X76510200Y-103564500D01*
X76530200Y-103564500D01*
X76530200Y-103013850D01*
X76885800Y-103013850D01*
X76885800Y-103564500D01*
X78296150Y-103564500D01*
X78442200Y-103418450D01*
X78442200Y-103335795D01*
X78353261Y-103121077D01*
X78188922Y-102956739D01*
X77974204Y-102867800D01*
X77031850Y-102867800D01*
X76885800Y-103013850D01*
X76530200Y-103013850D01*
X76384150Y-102867800D01*
X75441796Y-102867800D01*
X75227078Y-102956739D01*
X75062739Y-103121077D01*
X75032076Y-103195104D01*
X74930000Y-103174800D01*
X74531000Y-103174800D01*
X74356037Y-103209602D01*
X74207711Y-103308711D01*
X74071622Y-103444800D01*
X73859669Y-103444800D01*
X73859669Y-103402000D01*
X73836644Y-103279635D01*
X73764327Y-103167251D01*
X73653983Y-103091856D01*
X73523000Y-103065331D01*
X73482200Y-103065331D01*
X73482200Y-101825984D01*
X74403515Y-100904669D01*
X75438000Y-100904669D01*
X75560365Y-100881644D01*
X75672749Y-100809327D01*
X75748144Y-100698983D01*
X75774669Y-100568000D01*
X75774669Y-99973200D01*
X77393800Y-99973200D01*
X77393800Y-100684204D01*
X77393800Y-100684204D01*
G37*
X77393800Y-100684204D02*
X77482739Y-100898922D01*
X77647077Y-101063261D01*
X77861795Y-101152200D01*
X78416150Y-101152200D01*
X78562200Y-101006150D01*
X78562200Y-99973200D01*
X78917800Y-99973200D01*
X78917800Y-101006150D01*
X79063850Y-101152200D01*
X79618205Y-101152200D01*
X79832923Y-101063261D01*
X79997261Y-100898922D01*
X80086200Y-100684204D01*
X80086200Y-99973200D01*
X81636800Y-99973200D01*
X81636800Y-109830800D01*
X79838669Y-109830800D01*
X79838669Y-109236000D01*
X79815644Y-109113635D01*
X79743327Y-109001251D01*
X79632983Y-108925856D01*
X79502000Y-108899331D01*
X79197200Y-108899331D01*
X79197200Y-106426000D01*
X79162398Y-106251037D01*
X79063289Y-106102711D01*
X79016943Y-106056365D01*
X79038922Y-106047261D01*
X79203261Y-105882923D01*
X79292200Y-105668205D01*
X79292200Y-105225850D01*
X79146150Y-105079800D01*
X78595500Y-105079800D01*
X78595500Y-105099800D01*
X78370500Y-105099800D01*
X78370500Y-105079800D01*
X78285200Y-105079800D01*
X78285200Y-104724200D01*
X78370500Y-104724200D01*
X78370500Y-104191304D01*
X78442200Y-104018205D01*
X78442200Y-103935550D01*
X78370500Y-103863850D01*
X78370500Y-103813850D01*
X78595500Y-103813850D01*
X78595500Y-104724200D01*
X79146150Y-104724200D01*
X79292200Y-104578150D01*
X79292200Y-104135795D01*
X79203261Y-103921077D01*
X79038922Y-103756739D01*
X78824204Y-103667800D01*
X78741550Y-103667800D01*
X78595500Y-103813850D01*
X78370500Y-103813850D01*
X78224450Y-103667800D01*
X78141796Y-103667800D01*
X77927078Y-103756739D01*
X77894317Y-103789500D01*
X76885800Y-103789500D01*
X76885800Y-103874800D01*
X76530200Y-103874800D01*
X76530200Y-103789500D01*
X76510200Y-103789500D01*
X76510200Y-103564500D01*
X76530200Y-103564500D01*
X76530200Y-103013850D01*
X76885800Y-103013850D01*
X76885800Y-103564500D01*
X78296150Y-103564500D01*
X78442200Y-103418450D01*
X78442200Y-103335795D01*
X78353261Y-103121077D01*
X78188922Y-102956739D01*
X77974204Y-102867800D01*
X77031850Y-102867800D01*
X76885800Y-103013850D01*
X76530200Y-103013850D01*
X76384150Y-102867800D01*
X75441796Y-102867800D01*
X75227078Y-102956739D01*
X75062739Y-103121077D01*
X75032076Y-103195104D01*
X74930000Y-103174800D01*
X74531000Y-103174800D01*
X74356037Y-103209602D01*
X74207711Y-103308711D01*
X74071622Y-103444800D01*
X73859669Y-103444800D01*
X73859669Y-103402000D01*
X73836644Y-103279635D01*
X73764327Y-103167251D01*
X73653983Y-103091856D01*
X73523000Y-103065331D01*
X73482200Y-103065331D01*
X73482200Y-101825984D01*
X74403515Y-100904669D01*
X75438000Y-100904669D01*
X75560365Y-100881644D01*
X75672749Y-100809327D01*
X75748144Y-100698983D01*
X75774669Y-100568000D01*
X75774669Y-99973200D01*
X77393800Y-99973200D01*
X77393800Y-100684204D01*
G36*
X76885800Y-106064500D02*
X76905800Y-106064500D01*
X76905800Y-106289500D01*
X76885800Y-106289500D01*
X76885800Y-106840150D01*
X77031850Y-106986200D01*
X77974204Y-106986200D01*
X78188922Y-106897261D01*
X78282800Y-106803384D01*
X78282800Y-108899331D01*
X77978000Y-108899331D01*
X77855635Y-108922356D01*
X77743251Y-108994673D01*
X77667856Y-109105017D01*
X77641331Y-109236000D01*
X77641331Y-109830800D01*
X75774669Y-109830800D01*
X75774669Y-109236000D01*
X75751644Y-109113635D01*
X75679327Y-109001251D01*
X75568983Y-108925856D01*
X75438000Y-108899331D01*
X75133200Y-108899331D01*
X75133200Y-106803384D01*
X75227078Y-106897261D01*
X75441796Y-106986200D01*
X76384150Y-106986200D01*
X76530200Y-106840150D01*
X76530200Y-106289500D01*
X76510200Y-106289500D01*
X76510200Y-106064500D01*
X76530200Y-106064500D01*
X76530200Y-105979200D01*
X76885800Y-105979200D01*
X76885800Y-106064500D01*
X76885800Y-106064500D01*
G37*
X76885800Y-106064500D02*
X76905800Y-106064500D01*
X76905800Y-106289500D01*
X76885800Y-106289500D01*
X76885800Y-106840150D01*
X77031850Y-106986200D01*
X77974204Y-106986200D01*
X78188922Y-106897261D01*
X78282800Y-106803384D01*
X78282800Y-108899331D01*
X77978000Y-108899331D01*
X77855635Y-108922356D01*
X77743251Y-108994673D01*
X77667856Y-109105017D01*
X77641331Y-109236000D01*
X77641331Y-109830800D01*
X75774669Y-109830800D01*
X75774669Y-109236000D01*
X75751644Y-109113635D01*
X75679327Y-109001251D01*
X75568983Y-108925856D01*
X75438000Y-108899331D01*
X75133200Y-108899331D01*
X75133200Y-106803384D01*
X75227078Y-106897261D01*
X75441796Y-106986200D01*
X76384150Y-106986200D01*
X76530200Y-106840150D01*
X76530200Y-106289500D01*
X76510200Y-106289500D01*
X76510200Y-106064500D01*
X76530200Y-106064500D01*
X76530200Y-105979200D01*
X76885800Y-105979200D01*
X76885800Y-106064500D01*
G36*
X73577331Y-100078485D02*
X72484908Y-101170908D01*
X72358270Y-101360436D01*
X72313800Y-101584000D01*
X72313800Y-103065331D01*
X72273000Y-103065331D01*
X72150635Y-103088356D01*
X72038251Y-103160673D01*
X71962856Y-103271017D01*
X71936331Y-103402000D01*
X71936331Y-104402000D01*
X71959356Y-104524365D01*
X72031673Y-104636749D01*
X72142017Y-104712144D01*
X72273000Y-104738669D01*
X73523000Y-104738669D01*
X73645365Y-104715644D01*
X73757749Y-104643327D01*
X73833144Y-104532983D01*
X73859669Y-104402000D01*
X73859669Y-104359200D01*
X74123800Y-104359200D01*
X74123800Y-104578150D01*
X74269850Y-104724200D01*
X74820500Y-104724200D01*
X74820500Y-104704200D01*
X75045500Y-104704200D01*
X75045500Y-104724200D01*
X75130800Y-104724200D01*
X75130800Y-105079800D01*
X75045500Y-105079800D01*
X75045500Y-105099800D01*
X74820500Y-105099800D01*
X74820500Y-105079800D01*
X74269850Y-105079800D01*
X74123800Y-105225850D01*
X74123800Y-105668205D01*
X74212739Y-105882923D01*
X74377078Y-106047261D01*
X74399057Y-106056365D01*
X74352711Y-106102711D01*
X74253602Y-106251037D01*
X74218800Y-106426000D01*
X74218800Y-108899331D01*
X73914000Y-108899331D01*
X73791635Y-108922356D01*
X73679251Y-108994673D01*
X73603856Y-109105017D01*
X73577331Y-109236000D01*
X73577331Y-109830800D01*
X71779200Y-109830800D01*
X71779200Y-106734384D01*
X71942078Y-106897261D01*
X72156796Y-106986200D01*
X72574150Y-106986200D01*
X72720200Y-106840150D01*
X72720200Y-106079800D01*
X73075800Y-106079800D01*
X73075800Y-106840150D01*
X73221850Y-106986200D01*
X73639204Y-106986200D01*
X73853922Y-106897261D01*
X74018261Y-106732923D01*
X74107200Y-106518205D01*
X74107200Y-106225850D01*
X73961150Y-106079800D01*
X73075800Y-106079800D01*
X72720200Y-106079800D01*
X72700200Y-106079800D01*
X72700200Y-105724200D01*
X72720200Y-105724200D01*
X72720200Y-104963850D01*
X73075800Y-104963850D01*
X73075800Y-105724200D01*
X73961150Y-105724200D01*
X74107200Y-105578150D01*
X74107200Y-105285795D01*
X74018261Y-105071077D01*
X73853922Y-104906739D01*
X73639204Y-104817800D01*
X73221850Y-104817800D01*
X73075800Y-104963850D01*
X72720200Y-104963850D01*
X72574150Y-104817800D01*
X72156796Y-104817800D01*
X71942078Y-104906739D01*
X71779200Y-105069616D01*
X71779200Y-99973200D01*
X73577331Y-99973200D01*
X73577331Y-100078485D01*
X73577331Y-100078485D01*
G37*
X73577331Y-100078485D02*
X72484908Y-101170908D01*
X72358270Y-101360436D01*
X72313800Y-101584000D01*
X72313800Y-103065331D01*
X72273000Y-103065331D01*
X72150635Y-103088356D01*
X72038251Y-103160673D01*
X71962856Y-103271017D01*
X71936331Y-103402000D01*
X71936331Y-104402000D01*
X71959356Y-104524365D01*
X72031673Y-104636749D01*
X72142017Y-104712144D01*
X72273000Y-104738669D01*
X73523000Y-104738669D01*
X73645365Y-104715644D01*
X73757749Y-104643327D01*
X73833144Y-104532983D01*
X73859669Y-104402000D01*
X73859669Y-104359200D01*
X74123800Y-104359200D01*
X74123800Y-104578150D01*
X74269850Y-104724200D01*
X74820500Y-104724200D01*
X74820500Y-104704200D01*
X75045500Y-104704200D01*
X75045500Y-104724200D01*
X75130800Y-104724200D01*
X75130800Y-105079800D01*
X75045500Y-105079800D01*
X75045500Y-105099800D01*
X74820500Y-105099800D01*
X74820500Y-105079800D01*
X74269850Y-105079800D01*
X74123800Y-105225850D01*
X74123800Y-105668205D01*
X74212739Y-105882923D01*
X74377078Y-106047261D01*
X74399057Y-106056365D01*
X74352711Y-106102711D01*
X74253602Y-106251037D01*
X74218800Y-106426000D01*
X74218800Y-108899331D01*
X73914000Y-108899331D01*
X73791635Y-108922356D01*
X73679251Y-108994673D01*
X73603856Y-109105017D01*
X73577331Y-109236000D01*
X73577331Y-109830800D01*
X71779200Y-109830800D01*
X71779200Y-106734384D01*
X71942078Y-106897261D01*
X72156796Y-106986200D01*
X72574150Y-106986200D01*
X72720200Y-106840150D01*
X72720200Y-106079800D01*
X73075800Y-106079800D01*
X73075800Y-106840150D01*
X73221850Y-106986200D01*
X73639204Y-106986200D01*
X73853922Y-106897261D01*
X74018261Y-106732923D01*
X74107200Y-106518205D01*
X74107200Y-106225850D01*
X73961150Y-106079800D01*
X73075800Y-106079800D01*
X72720200Y-106079800D01*
X72700200Y-106079800D01*
X72700200Y-105724200D01*
X72720200Y-105724200D01*
X72720200Y-104963850D01*
X73075800Y-104963850D01*
X73075800Y-105724200D01*
X73961150Y-105724200D01*
X74107200Y-105578150D01*
X74107200Y-105285795D01*
X74018261Y-105071077D01*
X73853922Y-104906739D01*
X73639204Y-104817800D01*
X73221850Y-104817800D01*
X73075800Y-104963850D01*
X72720200Y-104963850D01*
X72574150Y-104817800D01*
X72156796Y-104817800D01*
X71942078Y-104906739D01*
X71779200Y-105069616D01*
X71779200Y-99973200D01*
X73577331Y-99973200D01*
X73577331Y-100078485D01*
G36*
X56057800Y-100684204D02*
X56146739Y-100898922D01*
X56311077Y-101063261D01*
X56525795Y-101152200D01*
X57080150Y-101152200D01*
X57226200Y-101006150D01*
X57226200Y-99973200D01*
X57581800Y-99973200D01*
X57581800Y-101006150D01*
X57727850Y-101152200D01*
X58282205Y-101152200D01*
X58496923Y-101063261D01*
X58661261Y-100898922D01*
X58750200Y-100684204D01*
X58750200Y-99973200D01*
X60300800Y-99973200D01*
X60300800Y-109830800D01*
X58502669Y-109830800D01*
X58502669Y-109236000D01*
X58479644Y-109113635D01*
X58407327Y-109001251D01*
X58296983Y-108925856D01*
X58166000Y-108899331D01*
X57861200Y-108899331D01*
X57861200Y-106426000D01*
X57826398Y-106251037D01*
X57727289Y-106102711D01*
X57680943Y-106056365D01*
X57702922Y-106047261D01*
X57867261Y-105882923D01*
X57956200Y-105668205D01*
X57956200Y-105225850D01*
X57810150Y-105079800D01*
X57259500Y-105079800D01*
X57259500Y-105099800D01*
X57034500Y-105099800D01*
X57034500Y-105079800D01*
X56949200Y-105079800D01*
X56949200Y-104724200D01*
X57034500Y-104724200D01*
X57034500Y-104191304D01*
X57106200Y-104018205D01*
X57106200Y-103935550D01*
X57034500Y-103863850D01*
X57034500Y-103813850D01*
X57259500Y-103813850D01*
X57259500Y-104724200D01*
X57810150Y-104724200D01*
X57956200Y-104578150D01*
X57956200Y-104135795D01*
X57867261Y-103921077D01*
X57702922Y-103756739D01*
X57488204Y-103667800D01*
X57405550Y-103667800D01*
X57259500Y-103813850D01*
X57034500Y-103813850D01*
X56888450Y-103667800D01*
X56805796Y-103667800D01*
X56591078Y-103756739D01*
X56558317Y-103789500D01*
X55549800Y-103789500D01*
X55549800Y-103874800D01*
X55194200Y-103874800D01*
X55194200Y-103789500D01*
X55174200Y-103789500D01*
X55174200Y-103564500D01*
X55194200Y-103564500D01*
X55194200Y-103013850D01*
X55549800Y-103013850D01*
X55549800Y-103564500D01*
X56960150Y-103564500D01*
X57106200Y-103418450D01*
X57106200Y-103335795D01*
X57017261Y-103121077D01*
X56852922Y-102956739D01*
X56638204Y-102867800D01*
X55695850Y-102867800D01*
X55549800Y-103013850D01*
X55194200Y-103013850D01*
X55048150Y-102867800D01*
X54105796Y-102867800D01*
X53891078Y-102956739D01*
X53726739Y-103121077D01*
X53696076Y-103195104D01*
X53594000Y-103174800D01*
X53195000Y-103174800D01*
X53020037Y-103209602D01*
X52871711Y-103308711D01*
X52735622Y-103444800D01*
X52523669Y-103444800D01*
X52523669Y-103402000D01*
X52500644Y-103279635D01*
X52428327Y-103167251D01*
X52317983Y-103091856D01*
X52187000Y-103065331D01*
X52146200Y-103065331D01*
X52146200Y-101825984D01*
X53067515Y-100904669D01*
X54102000Y-100904669D01*
X54224365Y-100881644D01*
X54336749Y-100809327D01*
X54412144Y-100698983D01*
X54438669Y-100568000D01*
X54438669Y-99973200D01*
X56057800Y-99973200D01*
X56057800Y-100684204D01*
X56057800Y-100684204D01*
G37*
X56057800Y-100684204D02*
X56146739Y-100898922D01*
X56311077Y-101063261D01*
X56525795Y-101152200D01*
X57080150Y-101152200D01*
X57226200Y-101006150D01*
X57226200Y-99973200D01*
X57581800Y-99973200D01*
X57581800Y-101006150D01*
X57727850Y-101152200D01*
X58282205Y-101152200D01*
X58496923Y-101063261D01*
X58661261Y-100898922D01*
X58750200Y-100684204D01*
X58750200Y-99973200D01*
X60300800Y-99973200D01*
X60300800Y-109830800D01*
X58502669Y-109830800D01*
X58502669Y-109236000D01*
X58479644Y-109113635D01*
X58407327Y-109001251D01*
X58296983Y-108925856D01*
X58166000Y-108899331D01*
X57861200Y-108899331D01*
X57861200Y-106426000D01*
X57826398Y-106251037D01*
X57727289Y-106102711D01*
X57680943Y-106056365D01*
X57702922Y-106047261D01*
X57867261Y-105882923D01*
X57956200Y-105668205D01*
X57956200Y-105225850D01*
X57810150Y-105079800D01*
X57259500Y-105079800D01*
X57259500Y-105099800D01*
X57034500Y-105099800D01*
X57034500Y-105079800D01*
X56949200Y-105079800D01*
X56949200Y-104724200D01*
X57034500Y-104724200D01*
X57034500Y-104191304D01*
X57106200Y-104018205D01*
X57106200Y-103935550D01*
X57034500Y-103863850D01*
X57034500Y-103813850D01*
X57259500Y-103813850D01*
X57259500Y-104724200D01*
X57810150Y-104724200D01*
X57956200Y-104578150D01*
X57956200Y-104135795D01*
X57867261Y-103921077D01*
X57702922Y-103756739D01*
X57488204Y-103667800D01*
X57405550Y-103667800D01*
X57259500Y-103813850D01*
X57034500Y-103813850D01*
X56888450Y-103667800D01*
X56805796Y-103667800D01*
X56591078Y-103756739D01*
X56558317Y-103789500D01*
X55549800Y-103789500D01*
X55549800Y-103874800D01*
X55194200Y-103874800D01*
X55194200Y-103789500D01*
X55174200Y-103789500D01*
X55174200Y-103564500D01*
X55194200Y-103564500D01*
X55194200Y-103013850D01*
X55549800Y-103013850D01*
X55549800Y-103564500D01*
X56960150Y-103564500D01*
X57106200Y-103418450D01*
X57106200Y-103335795D01*
X57017261Y-103121077D01*
X56852922Y-102956739D01*
X56638204Y-102867800D01*
X55695850Y-102867800D01*
X55549800Y-103013850D01*
X55194200Y-103013850D01*
X55048150Y-102867800D01*
X54105796Y-102867800D01*
X53891078Y-102956739D01*
X53726739Y-103121077D01*
X53696076Y-103195104D01*
X53594000Y-103174800D01*
X53195000Y-103174800D01*
X53020037Y-103209602D01*
X52871711Y-103308711D01*
X52735622Y-103444800D01*
X52523669Y-103444800D01*
X52523669Y-103402000D01*
X52500644Y-103279635D01*
X52428327Y-103167251D01*
X52317983Y-103091856D01*
X52187000Y-103065331D01*
X52146200Y-103065331D01*
X52146200Y-101825984D01*
X53067515Y-100904669D01*
X54102000Y-100904669D01*
X54224365Y-100881644D01*
X54336749Y-100809327D01*
X54412144Y-100698983D01*
X54438669Y-100568000D01*
X54438669Y-99973200D01*
X56057800Y-99973200D01*
X56057800Y-100684204D01*
G36*
X55549800Y-106064500D02*
X55569800Y-106064500D01*
X55569800Y-106289500D01*
X55549800Y-106289500D01*
X55549800Y-106840150D01*
X55695850Y-106986200D01*
X56638204Y-106986200D01*
X56852922Y-106897261D01*
X56946800Y-106803384D01*
X56946800Y-108899331D01*
X56642000Y-108899331D01*
X56519635Y-108922356D01*
X56407251Y-108994673D01*
X56331856Y-109105017D01*
X56305331Y-109236000D01*
X56305331Y-109830800D01*
X54438669Y-109830800D01*
X54438669Y-109236000D01*
X54415644Y-109113635D01*
X54343327Y-109001251D01*
X54232983Y-108925856D01*
X54102000Y-108899331D01*
X53797200Y-108899331D01*
X53797200Y-106803384D01*
X53891078Y-106897261D01*
X54105796Y-106986200D01*
X55048150Y-106986200D01*
X55194200Y-106840150D01*
X55194200Y-106289500D01*
X55174200Y-106289500D01*
X55174200Y-106064500D01*
X55194200Y-106064500D01*
X55194200Y-105979200D01*
X55549800Y-105979200D01*
X55549800Y-106064500D01*
X55549800Y-106064500D01*
G37*
X55549800Y-106064500D02*
X55569800Y-106064500D01*
X55569800Y-106289500D01*
X55549800Y-106289500D01*
X55549800Y-106840150D01*
X55695850Y-106986200D01*
X56638204Y-106986200D01*
X56852922Y-106897261D01*
X56946800Y-106803384D01*
X56946800Y-108899331D01*
X56642000Y-108899331D01*
X56519635Y-108922356D01*
X56407251Y-108994673D01*
X56331856Y-109105017D01*
X56305331Y-109236000D01*
X56305331Y-109830800D01*
X54438669Y-109830800D01*
X54438669Y-109236000D01*
X54415644Y-109113635D01*
X54343327Y-109001251D01*
X54232983Y-108925856D01*
X54102000Y-108899331D01*
X53797200Y-108899331D01*
X53797200Y-106803384D01*
X53891078Y-106897261D01*
X54105796Y-106986200D01*
X55048150Y-106986200D01*
X55194200Y-106840150D01*
X55194200Y-106289500D01*
X55174200Y-106289500D01*
X55174200Y-106064500D01*
X55194200Y-106064500D01*
X55194200Y-105979200D01*
X55549800Y-105979200D01*
X55549800Y-106064500D01*
G36*
X52241331Y-100078485D02*
X51148908Y-101170908D01*
X51022270Y-101360436D01*
X50977800Y-101584000D01*
X50977800Y-103065331D01*
X50937000Y-103065331D01*
X50814635Y-103088356D01*
X50702251Y-103160673D01*
X50626856Y-103271017D01*
X50600331Y-103402000D01*
X50600331Y-104402000D01*
X50623356Y-104524365D01*
X50695673Y-104636749D01*
X50806017Y-104712144D01*
X50937000Y-104738669D01*
X52187000Y-104738669D01*
X52309365Y-104715644D01*
X52421749Y-104643327D01*
X52497144Y-104532983D01*
X52523669Y-104402000D01*
X52523669Y-104359200D01*
X52787800Y-104359200D01*
X52787800Y-104578150D01*
X52933850Y-104724200D01*
X53484500Y-104724200D01*
X53484500Y-104704200D01*
X53709500Y-104704200D01*
X53709500Y-104724200D01*
X53794800Y-104724200D01*
X53794800Y-105079800D01*
X53709500Y-105079800D01*
X53709500Y-105099800D01*
X53484500Y-105099800D01*
X53484500Y-105079800D01*
X52933850Y-105079800D01*
X52787800Y-105225850D01*
X52787800Y-105668205D01*
X52876739Y-105882923D01*
X53041078Y-106047261D01*
X53063057Y-106056365D01*
X53016711Y-106102711D01*
X52917602Y-106251037D01*
X52882800Y-106426000D01*
X52882800Y-108899331D01*
X52578000Y-108899331D01*
X52455635Y-108922356D01*
X52343251Y-108994673D01*
X52267856Y-109105017D01*
X52241331Y-109236000D01*
X52241331Y-109830800D01*
X50443200Y-109830800D01*
X50443200Y-106734384D01*
X50606078Y-106897261D01*
X50820796Y-106986200D01*
X51238150Y-106986200D01*
X51384200Y-106840150D01*
X51384200Y-106079800D01*
X51739800Y-106079800D01*
X51739800Y-106840150D01*
X51885850Y-106986200D01*
X52303204Y-106986200D01*
X52517922Y-106897261D01*
X52682261Y-106732923D01*
X52771200Y-106518205D01*
X52771200Y-106225850D01*
X52625150Y-106079800D01*
X51739800Y-106079800D01*
X51384200Y-106079800D01*
X51364200Y-106079800D01*
X51364200Y-105724200D01*
X51384200Y-105724200D01*
X51384200Y-104963850D01*
X51739800Y-104963850D01*
X51739800Y-105724200D01*
X52625150Y-105724200D01*
X52771200Y-105578150D01*
X52771200Y-105285795D01*
X52682261Y-105071077D01*
X52517922Y-104906739D01*
X52303204Y-104817800D01*
X51885850Y-104817800D01*
X51739800Y-104963850D01*
X51384200Y-104963850D01*
X51238150Y-104817800D01*
X50820796Y-104817800D01*
X50606078Y-104906739D01*
X50443200Y-105069616D01*
X50443200Y-99973200D01*
X52241331Y-99973200D01*
X52241331Y-100078485D01*
X52241331Y-100078485D01*
G37*
X52241331Y-100078485D02*
X51148908Y-101170908D01*
X51022270Y-101360436D01*
X50977800Y-101584000D01*
X50977800Y-103065331D01*
X50937000Y-103065331D01*
X50814635Y-103088356D01*
X50702251Y-103160673D01*
X50626856Y-103271017D01*
X50600331Y-103402000D01*
X50600331Y-104402000D01*
X50623356Y-104524365D01*
X50695673Y-104636749D01*
X50806017Y-104712144D01*
X50937000Y-104738669D01*
X52187000Y-104738669D01*
X52309365Y-104715644D01*
X52421749Y-104643327D01*
X52497144Y-104532983D01*
X52523669Y-104402000D01*
X52523669Y-104359200D01*
X52787800Y-104359200D01*
X52787800Y-104578150D01*
X52933850Y-104724200D01*
X53484500Y-104724200D01*
X53484500Y-104704200D01*
X53709500Y-104704200D01*
X53709500Y-104724200D01*
X53794800Y-104724200D01*
X53794800Y-105079800D01*
X53709500Y-105079800D01*
X53709500Y-105099800D01*
X53484500Y-105099800D01*
X53484500Y-105079800D01*
X52933850Y-105079800D01*
X52787800Y-105225850D01*
X52787800Y-105668205D01*
X52876739Y-105882923D01*
X53041078Y-106047261D01*
X53063057Y-106056365D01*
X53016711Y-106102711D01*
X52917602Y-106251037D01*
X52882800Y-106426000D01*
X52882800Y-108899331D01*
X52578000Y-108899331D01*
X52455635Y-108922356D01*
X52343251Y-108994673D01*
X52267856Y-109105017D01*
X52241331Y-109236000D01*
X52241331Y-109830800D01*
X50443200Y-109830800D01*
X50443200Y-106734384D01*
X50606078Y-106897261D01*
X50820796Y-106986200D01*
X51238150Y-106986200D01*
X51384200Y-106840150D01*
X51384200Y-106079800D01*
X51739800Y-106079800D01*
X51739800Y-106840150D01*
X51885850Y-106986200D01*
X52303204Y-106986200D01*
X52517922Y-106897261D01*
X52682261Y-106732923D01*
X52771200Y-106518205D01*
X52771200Y-106225850D01*
X52625150Y-106079800D01*
X51739800Y-106079800D01*
X51384200Y-106079800D01*
X51364200Y-106079800D01*
X51364200Y-105724200D01*
X51384200Y-105724200D01*
X51384200Y-104963850D01*
X51739800Y-104963850D01*
X51739800Y-105724200D01*
X52625150Y-105724200D01*
X52771200Y-105578150D01*
X52771200Y-105285795D01*
X52682261Y-105071077D01*
X52517922Y-104906739D01*
X52303204Y-104817800D01*
X51885850Y-104817800D01*
X51739800Y-104963850D01*
X51384200Y-104963850D01*
X51238150Y-104817800D01*
X50820796Y-104817800D01*
X50606078Y-104906739D01*
X50443200Y-105069616D01*
X50443200Y-99973200D01*
X52241331Y-99973200D01*
X52241331Y-100078485D01*
M02*
