%FSLAX45Y45*%
G04 Gerber Fmt 4.5, Leading zero omitted, Abs format (unit mm)*
G04 Created by KiCad (PCBNEW no-vcs-found-product) date Qui 14 Abr 2016 10:24:15 BRT*
%MOMM*%
G01*
G04 APERTURE LIST*
%ADD10C,0.127000*%
%ADD11C,0.150000*%
%ADD12C,0.200000*%
%ADD13C,0.300000*%
G04 APERTURE END LIST*
D10*
D11*
X6070600Y-11023600D02*
X5003800Y-11023600D01*
X7137400Y-11023600D02*
X6070600Y-11023600D01*
X8204200Y-11023600D02*
X7137400Y-11023600D01*
X5003800Y-11023600D02*
X5003800Y-11531600D01*
X8204200Y-11531600D02*
X8204200Y-11023600D01*
X8204200Y-3403600D02*
X8204200Y-3860800D01*
X5003800Y-3403600D02*
X5003800Y-3860800D01*
X10744200Y-3403600D02*
X10744200Y-11531600D01*
X10744200Y-11531600D02*
X8204200Y-11531600D01*
X8204200Y-3403600D02*
X10744200Y-3403600D01*
X2463800Y-3403600D02*
X5003800Y-3403600D01*
X2463800Y-11531600D02*
X2463800Y-3403600D01*
X5003800Y-11531600D02*
X2463800Y-11531600D01*
X7137400Y-3860800D02*
X8204200Y-3860800D01*
X6070600Y-3860800D02*
X7137400Y-3860800D01*
X5003800Y-3860800D02*
X6070600Y-3860800D01*
D12*
X5130800Y-4699000D02*
X5181600Y-4749800D01*
X5181600Y-4699000D02*
X5130800Y-4749800D01*
X5130800Y-6223000D02*
X5181600Y-6273800D01*
X5181600Y-6223000D02*
X5130800Y-6273800D01*
X5130800Y-7747000D02*
X5181600Y-7797800D01*
X5181600Y-7747000D02*
X5130800Y-7797800D01*
X5130800Y-9271000D02*
X5181600Y-9321800D01*
X5181600Y-9271000D02*
X5130800Y-9321800D01*
X5130800Y-10795000D02*
X5181600Y-10845800D01*
X5181600Y-10795000D02*
X5130800Y-10845800D01*
X5511800Y-4699000D02*
X5562600Y-4749800D01*
X5562600Y-4699000D02*
X5511800Y-4749800D01*
X5511800Y-6223000D02*
X5562600Y-6273800D01*
X5562600Y-6223000D02*
X5511800Y-6273800D01*
X5511800Y-7747000D02*
X5562600Y-7797800D01*
X5562600Y-7747000D02*
X5511800Y-7797800D01*
X5511800Y-9271000D02*
X5562600Y-9321800D01*
X5562600Y-9271000D02*
X5511800Y-9321800D01*
X5511800Y-10795000D02*
X5562600Y-10845800D01*
X5562600Y-10795000D02*
X5511800Y-10845800D01*
X6197600Y-4699000D02*
X6248400Y-4749800D01*
X6248400Y-4699000D02*
X6197600Y-4749800D01*
X6197600Y-6223000D02*
X6248400Y-6273800D01*
X6248400Y-6223000D02*
X6197600Y-6273800D01*
X6197600Y-7747000D02*
X6248400Y-7797800D01*
X6248400Y-7747000D02*
X6197600Y-7797800D01*
X6197600Y-9271000D02*
X6248400Y-9321800D01*
X6248400Y-9271000D02*
X6197600Y-9321800D01*
X6197600Y-10795000D02*
X6248400Y-10845800D01*
X6248400Y-10795000D02*
X6197600Y-10845800D01*
X6578600Y-4699000D02*
X6629400Y-4749800D01*
X6629400Y-4699000D02*
X6578600Y-4749800D01*
X6578600Y-6223000D02*
X6629400Y-6273800D01*
X6629400Y-6223000D02*
X6578600Y-6273800D01*
X6578600Y-7747000D02*
X6629400Y-7797800D01*
X6629400Y-7747000D02*
X6578600Y-7797800D01*
X6578600Y-9271000D02*
X6629400Y-9321800D01*
X6629400Y-9271000D02*
X6578600Y-9321800D01*
X6578600Y-10795000D02*
X6629400Y-10845800D01*
X6629400Y-10795000D02*
X6578600Y-10845800D01*
X7264400Y-4699000D02*
X7315200Y-4749800D01*
X7315200Y-4699000D02*
X7264400Y-4749800D01*
X7264400Y-6223000D02*
X7315200Y-6273800D01*
X7315200Y-6223000D02*
X7264400Y-6273800D01*
X7264400Y-7747000D02*
X7315200Y-7797800D01*
X7315200Y-7747000D02*
X7264400Y-7797800D01*
X7264400Y-9271000D02*
X7315200Y-9321800D01*
X7315200Y-9271000D02*
X7264400Y-9321800D01*
X7264400Y-10795000D02*
X7315200Y-10845800D01*
X7315200Y-10795000D02*
X7264400Y-10845800D01*
X7645400Y-4699000D02*
X7696200Y-4749800D01*
X7696200Y-4699000D02*
X7645400Y-4749800D01*
X7645400Y-6223000D02*
X7696200Y-6273800D01*
X7696200Y-6223000D02*
X7645400Y-6273800D01*
X7645400Y-7747000D02*
X7696200Y-7797800D01*
X7696200Y-7747000D02*
X7645400Y-7797800D01*
X7645400Y-9271000D02*
X7696200Y-9321800D01*
X7696200Y-9271000D02*
X7645400Y-9321800D01*
X7645400Y-10795000D02*
X7696200Y-10845800D01*
X7696200Y-10795000D02*
X7645400Y-10845800D01*
X5374000Y-3860800D02*
G75*
G03X5374000Y-3860800I-40000J0D01*
G01*
X5374000Y-4927600D02*
G75*
G03X5374000Y-4927600I-40000J0D01*
G01*
X5374000Y-5384800D02*
G75*
G03X5374000Y-5384800I-40000J0D01*
G01*
X5374000Y-6451600D02*
G75*
G03X5374000Y-6451600I-40000J0D01*
G01*
X5374000Y-6908800D02*
G75*
G03X5374000Y-6908800I-40000J0D01*
G01*
X5374000Y-7975600D02*
G75*
G03X5374000Y-7975600I-40000J0D01*
G01*
X5374000Y-8432800D02*
G75*
G03X5374000Y-8432800I-40000J0D01*
G01*
X5374000Y-9499600D02*
G75*
G03X5374000Y-9499600I-40000J0D01*
G01*
X5374000Y-9956800D02*
G75*
G03X5374000Y-9956800I-40000J0D01*
G01*
X5374000Y-11023600D02*
G75*
G03X5374000Y-11023600I-40000J0D01*
G01*
X5780400Y-3860800D02*
G75*
G03X5780400Y-3860800I-40000J0D01*
G01*
X5780400Y-4927600D02*
G75*
G03X5780400Y-4927600I-40000J0D01*
G01*
X5780400Y-5384800D02*
G75*
G03X5780400Y-5384800I-40000J0D01*
G01*
X5780400Y-6451600D02*
G75*
G03X5780400Y-6451600I-40000J0D01*
G01*
X5780400Y-6908800D02*
G75*
G03X5780400Y-6908800I-40000J0D01*
G01*
X5780400Y-7975600D02*
G75*
G03X5780400Y-7975600I-40000J0D01*
G01*
X5780400Y-8432800D02*
G75*
G03X5780400Y-8432800I-40000J0D01*
G01*
X5780400Y-9499600D02*
G75*
G03X5780400Y-9499600I-40000J0D01*
G01*
X5780400Y-9956800D02*
G75*
G03X5780400Y-9956800I-40000J0D01*
G01*
X5780400Y-11023600D02*
G75*
G03X5780400Y-11023600I-40000J0D01*
G01*
X6440800Y-3860800D02*
G75*
G03X6440800Y-3860800I-40000J0D01*
G01*
X6440800Y-4927600D02*
G75*
G03X6440800Y-4927600I-40000J0D01*
G01*
X6440800Y-5384800D02*
G75*
G03X6440800Y-5384800I-40000J0D01*
G01*
X6440800Y-6451600D02*
G75*
G03X6440800Y-6451600I-40000J0D01*
G01*
X6440800Y-6908800D02*
G75*
G03X6440800Y-6908800I-40000J0D01*
G01*
X6440800Y-7975600D02*
G75*
G03X6440800Y-7975600I-40000J0D01*
G01*
X6440800Y-8432800D02*
G75*
G03X6440800Y-8432800I-40000J0D01*
G01*
X6440800Y-9499600D02*
G75*
G03X6440800Y-9499600I-40000J0D01*
G01*
X6440800Y-9956800D02*
G75*
G03X6440800Y-9956800I-40000J0D01*
G01*
X6440800Y-11023600D02*
G75*
G03X6440800Y-11023600I-40000J0D01*
G01*
X6847200Y-3860800D02*
G75*
G03X6847200Y-3860800I-40000J0D01*
G01*
X6847200Y-4927600D02*
G75*
G03X6847200Y-4927600I-40000J0D01*
G01*
X6847200Y-5384800D02*
G75*
G03X6847200Y-5384800I-40000J0D01*
G01*
X6847200Y-6451600D02*
G75*
G03X6847200Y-6451600I-40000J0D01*
G01*
X6847200Y-6908800D02*
G75*
G03X6847200Y-6908800I-40000J0D01*
G01*
X6847200Y-7975600D02*
G75*
G03X6847200Y-7975600I-40000J0D01*
G01*
X6847200Y-8432800D02*
G75*
G03X6847200Y-8432800I-40000J0D01*
G01*
X6847200Y-9499600D02*
G75*
G03X6847200Y-9499600I-40000J0D01*
G01*
X6847200Y-9956800D02*
G75*
G03X6847200Y-9956800I-40000J0D01*
G01*
X6847200Y-11023600D02*
G75*
G03X6847200Y-11023600I-40000J0D01*
G01*
X7507600Y-3860800D02*
G75*
G03X7507600Y-3860800I-40000J0D01*
G01*
X7507600Y-4927600D02*
G75*
G03X7507600Y-4927600I-40000J0D01*
G01*
X7507600Y-5384800D02*
G75*
G03X7507600Y-5384800I-40000J0D01*
G01*
X7507600Y-6451600D02*
G75*
G03X7507600Y-6451600I-40000J0D01*
G01*
X7507600Y-6908800D02*
G75*
G03X7507600Y-6908800I-40000J0D01*
G01*
X7507600Y-7975600D02*
G75*
G03X7507600Y-7975600I-40000J0D01*
G01*
X7507600Y-8432800D02*
G75*
G03X7507600Y-8432800I-40000J0D01*
G01*
X7507600Y-9499600D02*
G75*
G03X7507600Y-9499600I-40000J0D01*
G01*
X7507600Y-9956800D02*
G75*
G03X7507600Y-9956800I-40000J0D01*
G01*
X7507600Y-11023600D02*
G75*
G03X7507600Y-11023600I-40000J0D01*
G01*
X7914000Y-3860800D02*
G75*
G03X7914000Y-3860800I-40000J0D01*
G01*
X7914000Y-4927600D02*
G75*
G03X7914000Y-4927600I-40000J0D01*
G01*
X7914000Y-5384800D02*
G75*
G03X7914000Y-5384800I-40000J0D01*
G01*
X7914000Y-6451600D02*
G75*
G03X7914000Y-6451600I-40000J0D01*
G01*
X7914000Y-6908800D02*
G75*
G03X7914000Y-6908800I-40000J0D01*
G01*
X7914000Y-7975600D02*
G75*
G03X7914000Y-7975600I-40000J0D01*
G01*
X7914000Y-8432800D02*
G75*
G03X7914000Y-8432800I-40000J0D01*
G01*
X7914000Y-9499600D02*
G75*
G03X7914000Y-9499600I-40000J0D01*
G01*
X7914000Y-9956800D02*
G75*
G03X7914000Y-9956800I-40000J0D01*
G01*
X7914000Y-11023600D02*
G75*
G03X7914000Y-11023600I-40000J0D01*
G01*
D13*
X2727728Y-12004814D02*
X2727728Y-11704814D01*
X2799157Y-11704814D01*
X2842014Y-11719100D01*
X2870586Y-11747671D01*
X2884871Y-11776243D01*
X2899157Y-11833386D01*
X2899157Y-11876243D01*
X2884871Y-11933386D01*
X2870586Y-11961957D01*
X2842014Y-11990529D01*
X2799157Y-12004814D01*
X2727728Y-12004814D01*
X3027728Y-12004814D02*
X3027728Y-11804814D01*
X3027728Y-11861957D02*
X3042014Y-11833386D01*
X3056300Y-11819100D01*
X3084871Y-11804814D01*
X3113443Y-11804814D01*
X3213443Y-12004814D02*
X3213443Y-11804814D01*
X3213443Y-11704814D02*
X3199157Y-11719100D01*
X3213443Y-11733386D01*
X3227728Y-11719100D01*
X3213443Y-11704814D01*
X3213443Y-11733386D01*
X3399157Y-12004814D02*
X3370586Y-11990529D01*
X3356300Y-11961957D01*
X3356300Y-11704814D01*
X3556300Y-12004814D02*
X3527728Y-11990529D01*
X3513443Y-11961957D01*
X3513443Y-11704814D01*
X3899157Y-12004814D02*
X3899157Y-11704814D01*
X3999157Y-11919100D01*
X4099157Y-11704814D01*
X4099157Y-12004814D01*
X4370586Y-12004814D02*
X4370586Y-11847671D01*
X4356300Y-11819100D01*
X4327728Y-11804814D01*
X4270586Y-11804814D01*
X4242014Y-11819100D01*
X4370586Y-11990529D02*
X4342014Y-12004814D01*
X4270586Y-12004814D01*
X4242014Y-11990529D01*
X4227728Y-11961957D01*
X4227728Y-11933386D01*
X4242014Y-11904814D01*
X4270586Y-11890529D01*
X4342014Y-11890529D01*
X4370586Y-11876243D01*
X4513443Y-11804814D02*
X4513443Y-12104814D01*
X4513443Y-11819100D02*
X4542014Y-11804814D01*
X4599157Y-11804814D01*
X4627728Y-11819100D01*
X4642014Y-11833386D01*
X4656300Y-11861957D01*
X4656300Y-11947671D01*
X4642014Y-11976243D01*
X4627728Y-11990529D01*
X4599157Y-12004814D01*
X4542014Y-12004814D01*
X4513443Y-11990529D01*
X4784871Y-11976243D02*
X4799157Y-11990529D01*
X4784871Y-12004814D01*
X4770586Y-11990529D01*
X4784871Y-11976243D01*
X4784871Y-12004814D01*
X4784871Y-11819100D02*
X4799157Y-11833386D01*
X4784871Y-11847671D01*
X4770586Y-11833386D01*
X4784871Y-11819100D01*
X4784871Y-11847671D01*
X2405500Y-12473700D02*
X2456300Y-12524500D01*
X2456300Y-12473700D02*
X2405500Y-12524500D01*
X2784871Y-12334814D02*
X2813443Y-12334814D01*
X2842014Y-12349100D01*
X2856300Y-12363386D01*
X2870586Y-12391957D01*
X2884871Y-12449100D01*
X2884871Y-12520529D01*
X2870586Y-12577671D01*
X2856300Y-12606243D01*
X2842014Y-12620529D01*
X2813443Y-12634814D01*
X2784871Y-12634814D01*
X2756300Y-12620529D01*
X2742014Y-12606243D01*
X2727728Y-12577671D01*
X2713443Y-12520529D01*
X2713443Y-12449100D01*
X2727728Y-12391957D01*
X2742014Y-12363386D01*
X2756300Y-12349100D01*
X2784871Y-12334814D01*
X3013443Y-12606243D02*
X3027728Y-12620529D01*
X3013443Y-12634814D01*
X2999157Y-12620529D01*
X3013443Y-12606243D01*
X3013443Y-12634814D01*
X3299157Y-12334814D02*
X3156300Y-12334814D01*
X3142014Y-12477671D01*
X3156300Y-12463386D01*
X3184871Y-12449100D01*
X3256300Y-12449100D01*
X3284871Y-12463386D01*
X3299157Y-12477671D01*
X3313443Y-12506243D01*
X3313443Y-12577671D01*
X3299157Y-12606243D01*
X3284871Y-12620529D01*
X3256300Y-12634814D01*
X3184871Y-12634814D01*
X3156300Y-12620529D01*
X3142014Y-12606243D01*
X3599157Y-12634814D02*
X3427728Y-12634814D01*
X3513443Y-12634814D02*
X3513443Y-12334814D01*
X3484871Y-12377671D01*
X3456300Y-12406243D01*
X3427728Y-12420529D01*
X3727728Y-12634814D02*
X3727728Y-12434814D01*
X3727728Y-12463386D02*
X3742014Y-12449100D01*
X3770586Y-12434814D01*
X3813443Y-12434814D01*
X3842014Y-12449100D01*
X3856300Y-12477671D01*
X3856300Y-12634814D01*
X3856300Y-12477671D02*
X3870586Y-12449100D01*
X3899157Y-12434814D01*
X3942014Y-12434814D01*
X3970586Y-12449100D01*
X3984871Y-12477671D01*
X3984871Y-12634814D01*
X4127728Y-12634814D02*
X4127728Y-12434814D01*
X4127728Y-12463386D02*
X4142014Y-12449100D01*
X4170586Y-12434814D01*
X4213443Y-12434814D01*
X4242014Y-12449100D01*
X4256300Y-12477671D01*
X4256300Y-12634814D01*
X4256300Y-12477671D02*
X4270586Y-12449100D01*
X4299157Y-12434814D01*
X4342014Y-12434814D01*
X4370586Y-12449100D01*
X4384871Y-12477671D01*
X4384871Y-12634814D01*
X4970586Y-12320529D02*
X4713443Y-12706243D01*
X5356300Y-12334814D02*
X5384871Y-12334814D01*
X5413443Y-12349100D01*
X5427728Y-12363386D01*
X5442014Y-12391957D01*
X5456300Y-12449100D01*
X5456300Y-12520529D01*
X5442014Y-12577671D01*
X5427728Y-12606243D01*
X5413443Y-12620529D01*
X5384871Y-12634814D01*
X5356300Y-12634814D01*
X5327728Y-12620529D01*
X5313443Y-12606243D01*
X5299157Y-12577671D01*
X5284871Y-12520529D01*
X5284871Y-12449100D01*
X5299157Y-12391957D01*
X5313443Y-12363386D01*
X5327728Y-12349100D01*
X5356300Y-12334814D01*
X5584871Y-12606243D02*
X5599157Y-12620529D01*
X5584871Y-12634814D01*
X5570586Y-12620529D01*
X5584871Y-12606243D01*
X5584871Y-12634814D01*
X5784871Y-12334814D02*
X5813443Y-12334814D01*
X5842014Y-12349100D01*
X5856300Y-12363386D01*
X5870586Y-12391957D01*
X5884871Y-12449100D01*
X5884871Y-12520529D01*
X5870586Y-12577671D01*
X5856300Y-12606243D01*
X5842014Y-12620529D01*
X5813443Y-12634814D01*
X5784871Y-12634814D01*
X5756300Y-12620529D01*
X5742014Y-12606243D01*
X5727728Y-12577671D01*
X5713443Y-12520529D01*
X5713443Y-12449100D01*
X5727728Y-12391957D01*
X5742014Y-12363386D01*
X5756300Y-12349100D01*
X5784871Y-12334814D01*
X5999157Y-12363386D02*
X6013443Y-12349100D01*
X6042014Y-12334814D01*
X6113443Y-12334814D01*
X6142014Y-12349100D01*
X6156300Y-12363386D01*
X6170586Y-12391957D01*
X6170586Y-12420529D01*
X6156300Y-12463386D01*
X5984871Y-12634814D01*
X6170586Y-12634814D01*
X6356300Y-12334814D02*
X6384871Y-12334814D01*
X6413443Y-12349100D01*
X6427728Y-12363386D01*
X6442014Y-12391957D01*
X6456300Y-12449100D01*
X6456300Y-12520529D01*
X6442014Y-12577671D01*
X6427728Y-12606243D01*
X6413443Y-12620529D01*
X6384871Y-12634814D01*
X6356300Y-12634814D01*
X6327728Y-12620529D01*
X6313443Y-12606243D01*
X6299157Y-12577671D01*
X6284871Y-12520529D01*
X6284871Y-12449100D01*
X6299157Y-12391957D01*
X6313443Y-12363386D01*
X6327728Y-12349100D01*
X6356300Y-12334814D01*
X6570586Y-12334814D02*
X6570586Y-12391957D01*
X6684871Y-12334814D02*
X6684871Y-12391957D01*
X7127728Y-12749100D02*
X7113443Y-12734814D01*
X7084871Y-12691957D01*
X7070586Y-12663386D01*
X7056300Y-12620529D01*
X7042014Y-12549100D01*
X7042014Y-12491957D01*
X7056300Y-12420529D01*
X7070586Y-12377671D01*
X7084871Y-12349100D01*
X7113443Y-12306243D01*
X7127728Y-12291957D01*
X7213443Y-12334814D02*
X7399157Y-12334814D01*
X7299157Y-12449100D01*
X7342014Y-12449100D01*
X7370586Y-12463386D01*
X7384871Y-12477671D01*
X7399157Y-12506243D01*
X7399157Y-12577671D01*
X7384871Y-12606243D01*
X7370586Y-12620529D01*
X7342014Y-12634814D01*
X7256300Y-12634814D01*
X7227728Y-12620529D01*
X7213443Y-12606243D01*
X7584871Y-12334814D02*
X7613443Y-12334814D01*
X7642014Y-12349100D01*
X7656300Y-12363386D01*
X7670586Y-12391957D01*
X7684871Y-12449100D01*
X7684871Y-12520529D01*
X7670586Y-12577671D01*
X7656300Y-12606243D01*
X7642014Y-12620529D01*
X7613443Y-12634814D01*
X7584871Y-12634814D01*
X7556300Y-12620529D01*
X7542014Y-12606243D01*
X7527728Y-12577671D01*
X7513443Y-12520529D01*
X7513443Y-12449100D01*
X7527728Y-12391957D01*
X7542014Y-12363386D01*
X7556300Y-12349100D01*
X7584871Y-12334814D01*
X8042014Y-12634814D02*
X8042014Y-12334814D01*
X8170586Y-12634814D02*
X8170586Y-12477671D01*
X8156300Y-12449100D01*
X8127728Y-12434814D01*
X8084871Y-12434814D01*
X8056300Y-12449100D01*
X8042014Y-12463386D01*
X8356300Y-12634814D02*
X8327728Y-12620529D01*
X8313443Y-12606243D01*
X8299157Y-12577671D01*
X8299157Y-12491957D01*
X8313443Y-12463386D01*
X8327728Y-12449100D01*
X8356300Y-12434814D01*
X8399157Y-12434814D01*
X8427728Y-12449100D01*
X8442014Y-12463386D01*
X8456300Y-12491957D01*
X8456300Y-12577671D01*
X8442014Y-12606243D01*
X8427728Y-12620529D01*
X8399157Y-12634814D01*
X8356300Y-12634814D01*
X8627728Y-12634814D02*
X8599157Y-12620529D01*
X8584871Y-12591957D01*
X8584871Y-12334814D01*
X8856300Y-12620529D02*
X8827728Y-12634814D01*
X8770586Y-12634814D01*
X8742014Y-12620529D01*
X8727728Y-12591957D01*
X8727728Y-12477671D01*
X8742014Y-12449100D01*
X8770586Y-12434814D01*
X8827728Y-12434814D01*
X8856300Y-12449100D01*
X8870586Y-12477671D01*
X8870586Y-12506243D01*
X8727728Y-12534814D01*
X8984871Y-12620529D02*
X9013443Y-12634814D01*
X9070586Y-12634814D01*
X9099157Y-12620529D01*
X9113443Y-12591957D01*
X9113443Y-12577671D01*
X9099157Y-12549100D01*
X9070586Y-12534814D01*
X9027728Y-12534814D01*
X8999157Y-12520529D01*
X8984871Y-12491957D01*
X8984871Y-12477671D01*
X8999157Y-12449100D01*
X9027728Y-12434814D01*
X9070586Y-12434814D01*
X9099157Y-12449100D01*
X9213443Y-12749100D02*
X9227728Y-12734814D01*
X9256300Y-12691957D01*
X9270586Y-12663386D01*
X9284871Y-12620529D01*
X9299157Y-12549100D01*
X9299157Y-12491957D01*
X9284871Y-12420529D01*
X9270586Y-12377671D01*
X9256300Y-12349100D01*
X9227728Y-12306243D01*
X9213443Y-12291957D01*
X2456300Y-12895100D02*
G75*
G03X2456300Y-12895100I-40000J0D01*
G01*
X2784871Y-12730814D02*
X2813443Y-12730814D01*
X2842014Y-12745100D01*
X2856300Y-12759386D01*
X2870586Y-12787957D01*
X2884871Y-12845100D01*
X2884871Y-12916529D01*
X2870586Y-12973671D01*
X2856300Y-13002243D01*
X2842014Y-13016529D01*
X2813443Y-13030814D01*
X2784871Y-13030814D01*
X2756300Y-13016529D01*
X2742014Y-13002243D01*
X2727728Y-12973671D01*
X2713443Y-12916529D01*
X2713443Y-12845100D01*
X2727728Y-12787957D01*
X2742014Y-12759386D01*
X2756300Y-12745100D01*
X2784871Y-12730814D01*
X3013443Y-13002243D02*
X3027728Y-13016529D01*
X3013443Y-13030814D01*
X2999157Y-13016529D01*
X3013443Y-13002243D01*
X3013443Y-13030814D01*
X3199157Y-12859386D02*
X3170586Y-12845100D01*
X3156300Y-12830814D01*
X3142014Y-12802243D01*
X3142014Y-12787957D01*
X3156300Y-12759386D01*
X3170586Y-12745100D01*
X3199157Y-12730814D01*
X3256300Y-12730814D01*
X3284871Y-12745100D01*
X3299157Y-12759386D01*
X3313443Y-12787957D01*
X3313443Y-12802243D01*
X3299157Y-12830814D01*
X3284871Y-12845100D01*
X3256300Y-12859386D01*
X3199157Y-12859386D01*
X3170586Y-12873671D01*
X3156300Y-12887957D01*
X3142014Y-12916529D01*
X3142014Y-12973671D01*
X3156300Y-13002243D01*
X3170586Y-13016529D01*
X3199157Y-13030814D01*
X3256300Y-13030814D01*
X3284871Y-13016529D01*
X3299157Y-13002243D01*
X3313443Y-12973671D01*
X3313443Y-12916529D01*
X3299157Y-12887957D01*
X3284871Y-12873671D01*
X3256300Y-12859386D01*
X3499157Y-12730814D02*
X3527728Y-12730814D01*
X3556300Y-12745100D01*
X3570586Y-12759386D01*
X3584871Y-12787957D01*
X3599157Y-12845100D01*
X3599157Y-12916529D01*
X3584871Y-12973671D01*
X3570586Y-13002243D01*
X3556300Y-13016529D01*
X3527728Y-13030814D01*
X3499157Y-13030814D01*
X3470586Y-13016529D01*
X3456300Y-13002243D01*
X3442014Y-12973671D01*
X3427728Y-12916529D01*
X3427728Y-12845100D01*
X3442014Y-12787957D01*
X3456300Y-12759386D01*
X3470586Y-12745100D01*
X3499157Y-12730814D01*
X3727728Y-13030814D02*
X3727728Y-12830814D01*
X3727728Y-12859386D02*
X3742014Y-12845100D01*
X3770586Y-12830814D01*
X3813443Y-12830814D01*
X3842014Y-12845100D01*
X3856300Y-12873671D01*
X3856300Y-13030814D01*
X3856300Y-12873671D02*
X3870586Y-12845100D01*
X3899157Y-12830814D01*
X3942014Y-12830814D01*
X3970586Y-12845100D01*
X3984871Y-12873671D01*
X3984871Y-13030814D01*
X4127728Y-13030814D02*
X4127728Y-12830814D01*
X4127728Y-12859386D02*
X4142014Y-12845100D01*
X4170586Y-12830814D01*
X4213443Y-12830814D01*
X4242014Y-12845100D01*
X4256300Y-12873671D01*
X4256300Y-13030814D01*
X4256300Y-12873671D02*
X4270586Y-12845100D01*
X4299157Y-12830814D01*
X4342014Y-12830814D01*
X4370586Y-12845100D01*
X4384871Y-12873671D01*
X4384871Y-13030814D01*
X4970586Y-12716529D02*
X4713443Y-13102243D01*
X5356300Y-12730814D02*
X5384871Y-12730814D01*
X5413443Y-12745100D01*
X5427728Y-12759386D01*
X5442014Y-12787957D01*
X5456300Y-12845100D01*
X5456300Y-12916529D01*
X5442014Y-12973671D01*
X5427728Y-13002243D01*
X5413443Y-13016529D01*
X5384871Y-13030814D01*
X5356300Y-13030814D01*
X5327728Y-13016529D01*
X5313443Y-13002243D01*
X5299157Y-12973671D01*
X5284871Y-12916529D01*
X5284871Y-12845100D01*
X5299157Y-12787957D01*
X5313443Y-12759386D01*
X5327728Y-12745100D01*
X5356300Y-12730814D01*
X5584871Y-13002243D02*
X5599157Y-13016529D01*
X5584871Y-13030814D01*
X5570586Y-13016529D01*
X5584871Y-13002243D01*
X5584871Y-13030814D01*
X5784871Y-12730814D02*
X5813443Y-12730814D01*
X5842014Y-12745100D01*
X5856300Y-12759386D01*
X5870586Y-12787957D01*
X5884871Y-12845100D01*
X5884871Y-12916529D01*
X5870586Y-12973671D01*
X5856300Y-13002243D01*
X5842014Y-13016529D01*
X5813443Y-13030814D01*
X5784871Y-13030814D01*
X5756300Y-13016529D01*
X5742014Y-13002243D01*
X5727728Y-12973671D01*
X5713443Y-12916529D01*
X5713443Y-12845100D01*
X5727728Y-12787957D01*
X5742014Y-12759386D01*
X5756300Y-12745100D01*
X5784871Y-12730814D01*
X5984871Y-12730814D02*
X6170586Y-12730814D01*
X6070586Y-12845100D01*
X6113443Y-12845100D01*
X6142014Y-12859386D01*
X6156300Y-12873671D01*
X6170586Y-12902243D01*
X6170586Y-12973671D01*
X6156300Y-13002243D01*
X6142014Y-13016529D01*
X6113443Y-13030814D01*
X6027728Y-13030814D01*
X5999157Y-13016529D01*
X5984871Y-13002243D01*
X6456300Y-13030814D02*
X6284871Y-13030814D01*
X6370586Y-13030814D02*
X6370586Y-12730814D01*
X6342014Y-12773671D01*
X6313443Y-12802243D01*
X6284871Y-12816529D01*
X6570586Y-12730814D02*
X6570586Y-12787957D01*
X6684871Y-12730814D02*
X6684871Y-12787957D01*
X7127728Y-13145100D02*
X7113443Y-13130814D01*
X7084871Y-13087957D01*
X7070586Y-13059386D01*
X7056300Y-13016529D01*
X7042014Y-12945100D01*
X7042014Y-12887957D01*
X7056300Y-12816529D01*
X7070586Y-12773671D01*
X7084871Y-12745100D01*
X7113443Y-12702243D01*
X7127728Y-12687957D01*
X7370586Y-12730814D02*
X7313443Y-12730814D01*
X7284871Y-12745100D01*
X7270586Y-12759386D01*
X7242014Y-12802243D01*
X7227728Y-12859386D01*
X7227728Y-12973671D01*
X7242014Y-13002243D01*
X7256300Y-13016529D01*
X7284871Y-13030814D01*
X7342014Y-13030814D01*
X7370586Y-13016529D01*
X7384871Y-13002243D01*
X7399157Y-12973671D01*
X7399157Y-12902243D01*
X7384871Y-12873671D01*
X7370586Y-12859386D01*
X7342014Y-12845100D01*
X7284871Y-12845100D01*
X7256300Y-12859386D01*
X7242014Y-12873671D01*
X7227728Y-12902243D01*
X7584871Y-12730814D02*
X7613443Y-12730814D01*
X7642014Y-12745100D01*
X7656300Y-12759386D01*
X7670586Y-12787957D01*
X7684871Y-12845100D01*
X7684871Y-12916529D01*
X7670586Y-12973671D01*
X7656300Y-13002243D01*
X7642014Y-13016529D01*
X7613443Y-13030814D01*
X7584871Y-13030814D01*
X7556300Y-13016529D01*
X7542014Y-13002243D01*
X7527728Y-12973671D01*
X7513443Y-12916529D01*
X7513443Y-12845100D01*
X7527728Y-12787957D01*
X7542014Y-12759386D01*
X7556300Y-12745100D01*
X7584871Y-12730814D01*
X8042014Y-13030814D02*
X8042014Y-12730814D01*
X8170586Y-13030814D02*
X8170586Y-12873671D01*
X8156300Y-12845100D01*
X8127728Y-12830814D01*
X8084871Y-12830814D01*
X8056300Y-12845100D01*
X8042014Y-12859386D01*
X8356300Y-13030814D02*
X8327728Y-13016529D01*
X8313443Y-13002243D01*
X8299157Y-12973671D01*
X8299157Y-12887957D01*
X8313443Y-12859386D01*
X8327728Y-12845100D01*
X8356300Y-12830814D01*
X8399157Y-12830814D01*
X8427728Y-12845100D01*
X8442014Y-12859386D01*
X8456300Y-12887957D01*
X8456300Y-12973671D01*
X8442014Y-13002243D01*
X8427728Y-13016529D01*
X8399157Y-13030814D01*
X8356300Y-13030814D01*
X8627728Y-13030814D02*
X8599157Y-13016529D01*
X8584871Y-12987957D01*
X8584871Y-12730814D01*
X8856300Y-13016529D02*
X8827728Y-13030814D01*
X8770586Y-13030814D01*
X8742014Y-13016529D01*
X8727728Y-12987957D01*
X8727728Y-12873671D01*
X8742014Y-12845100D01*
X8770586Y-12830814D01*
X8827728Y-12830814D01*
X8856300Y-12845100D01*
X8870586Y-12873671D01*
X8870586Y-12902243D01*
X8727728Y-12930814D01*
X8984871Y-13016529D02*
X9013443Y-13030814D01*
X9070586Y-13030814D01*
X9099157Y-13016529D01*
X9113443Y-12987957D01*
X9113443Y-12973671D01*
X9099157Y-12945100D01*
X9070586Y-12930814D01*
X9027728Y-12930814D01*
X8999157Y-12916529D01*
X8984871Y-12887957D01*
X8984871Y-12873671D01*
X8999157Y-12845100D01*
X9027728Y-12830814D01*
X9070586Y-12830814D01*
X9099157Y-12845100D01*
X9213443Y-13145100D02*
X9227728Y-13130814D01*
X9256300Y-13087957D01*
X9270586Y-13059386D01*
X9284871Y-13016529D01*
X9299157Y-12945100D01*
X9299157Y-12887957D01*
X9284871Y-12816529D01*
X9270586Y-12773671D01*
X9256300Y-12745100D01*
X9227728Y-12702243D01*
X9213443Y-12687957D01*
M02*
