G04 #@! TF.FileFunction,Soldermask,Bot*
%FSLAX46Y46*%
G04 Gerber Fmt 4.6, Leading zero omitted, Abs format (unit mm)*
G04 Created by KiCad (PCBNEW no-vcs-found-product) date Qui 14 Abr 2016 10:23:32 BRT*
%MOMM*%
G01*
G04 APERTURE LIST*
%ADD10C,0.100000*%
%ADD11R,1.924000X2.400000*%
G04 APERTURE END LIST*
D10*
D11*
X74676000Y-110236000D03*
X78740000Y-110236000D03*
X74676000Y-99568000D03*
X78740000Y-99568000D03*
X68072000Y-99568000D03*
X68072000Y-110236000D03*
X57404000Y-110236000D03*
X64008000Y-110236000D03*
X53340000Y-110236000D03*
X57404000Y-99568000D03*
X64008000Y-99568000D03*
X53340000Y-99568000D03*
X57404000Y-94996000D03*
X57404000Y-79756000D03*
X57404000Y-64516000D03*
X53340000Y-94996000D03*
X53340000Y-79756000D03*
X53340000Y-64516000D03*
X57404000Y-84328000D03*
X57404000Y-69088000D03*
X57404000Y-53848000D03*
X53340000Y-84328000D03*
X53340000Y-69088000D03*
X53340000Y-53848000D03*
X78740000Y-94996000D03*
X78740000Y-79756000D03*
X78740000Y-64516000D03*
X74676000Y-94996000D03*
X74676000Y-79756000D03*
X74676000Y-64516000D03*
X78740000Y-84328000D03*
X78740000Y-69088000D03*
X78740000Y-53848000D03*
X74676000Y-84328000D03*
X74676000Y-69088000D03*
X74676000Y-53848000D03*
X68072000Y-94996000D03*
X68072000Y-79756000D03*
X68072000Y-64516000D03*
X64008000Y-94996000D03*
X64008000Y-79756000D03*
X64008000Y-64516000D03*
X64008000Y-84328000D03*
X64008000Y-69088000D03*
X64008000Y-53848000D03*
X68072000Y-84328000D03*
X68072000Y-69088000D03*
X68072000Y-53848000D03*
X78740000Y-38608000D03*
X68072000Y-38608000D03*
X74676000Y-49276000D03*
X64008000Y-49276000D03*
X74676000Y-38608000D03*
X64008000Y-38608000D03*
X78740000Y-49276000D03*
X68072000Y-49276000D03*
X57404000Y-49276000D03*
X53340000Y-38608000D03*
X53340000Y-49276000D03*
X57404000Y-38608000D03*
M02*
