%FSLAX45Y45*%
G04 Gerber Fmt 4.5, Leading zero omitted, Abs format (unit mm)*
G04 Created by KiCad (PCBNEW no-vcs-found-product) date Seg 25 Abr 2016 23:01:22 BRT*
%MOMM*%
G01*
G04 APERTURE LIST*
%ADD10C,0.127000*%
%ADD11C,0.150000*%
%ADD12C,0.200000*%
%ADD13C,0.300000*%
G04 APERTURE END LIST*
D10*
D11*
X31100000Y-22000000D02*
X3000000Y-22000000D01*
X33000000Y-18500000D02*
X38000000Y-18500000D01*
X33000000Y-16400000D02*
X33000000Y-18500000D01*
X31100000Y-16400000D02*
X33000000Y-16400000D01*
X31100000Y-22000000D02*
X31100000Y-16400000D01*
X38000000Y-3000000D02*
X3000000Y-3000000D01*
X38000000Y-18500000D02*
X38000000Y-3000000D01*
X3000000Y-3000000D02*
X3000000Y-22000000D01*
D12*
X3875000Y-3875000D02*
X4125000Y-4125000D01*
X4125000Y-3875000D02*
X3875000Y-4125000D01*
X3875000Y-20875000D02*
X4125000Y-21125000D01*
X4125000Y-20875000D02*
X3875000Y-21125000D01*
X29875000Y-3875000D02*
X30125000Y-4125000D01*
X30125000Y-3875000D02*
X29875000Y-4125000D01*
X29875000Y-20875000D02*
X30125000Y-21125000D01*
X30125000Y-20875000D02*
X29875000Y-21125000D01*
D13*
X3263928Y-22473214D02*
X3263928Y-22173214D01*
X3335357Y-22173214D01*
X3378214Y-22187500D01*
X3406786Y-22216072D01*
X3421071Y-22244643D01*
X3435357Y-22301786D01*
X3435357Y-22344643D01*
X3421071Y-22401786D01*
X3406786Y-22430357D01*
X3378214Y-22458929D01*
X3335357Y-22473214D01*
X3263928Y-22473214D01*
X3563928Y-22473214D02*
X3563928Y-22273214D01*
X3563928Y-22330357D02*
X3578214Y-22301786D01*
X3592500Y-22287500D01*
X3621071Y-22273214D01*
X3649643Y-22273214D01*
X3749643Y-22473214D02*
X3749643Y-22273214D01*
X3749643Y-22173214D02*
X3735357Y-22187500D01*
X3749643Y-22201786D01*
X3763928Y-22187500D01*
X3749643Y-22173214D01*
X3749643Y-22201786D01*
X3935357Y-22473214D02*
X3906786Y-22458929D01*
X3892500Y-22430357D01*
X3892500Y-22173214D01*
X4092500Y-22473214D02*
X4063928Y-22458929D01*
X4049643Y-22430357D01*
X4049643Y-22173214D01*
X4435357Y-22473214D02*
X4435357Y-22173214D01*
X4535357Y-22387500D01*
X4635357Y-22173214D01*
X4635357Y-22473214D01*
X4906786Y-22473214D02*
X4906786Y-22316072D01*
X4892500Y-22287500D01*
X4863928Y-22273214D01*
X4806786Y-22273214D01*
X4778214Y-22287500D01*
X4906786Y-22458929D02*
X4878214Y-22473214D01*
X4806786Y-22473214D01*
X4778214Y-22458929D01*
X4763928Y-22430357D01*
X4763928Y-22401786D01*
X4778214Y-22373214D01*
X4806786Y-22358929D01*
X4878214Y-22358929D01*
X4906786Y-22344643D01*
X5049643Y-22273214D02*
X5049643Y-22573214D01*
X5049643Y-22287500D02*
X5078214Y-22273214D01*
X5135357Y-22273214D01*
X5163928Y-22287500D01*
X5178214Y-22301786D01*
X5192500Y-22330357D01*
X5192500Y-22416071D01*
X5178214Y-22444643D01*
X5163928Y-22458929D01*
X5135357Y-22473214D01*
X5078214Y-22473214D01*
X5049643Y-22458929D01*
X5321071Y-22444643D02*
X5335357Y-22458929D01*
X5321071Y-22473214D01*
X5306786Y-22458929D01*
X5321071Y-22444643D01*
X5321071Y-22473214D01*
X5321071Y-22287500D02*
X5335357Y-22301786D01*
X5321071Y-22316072D01*
X5306786Y-22301786D01*
X5321071Y-22287500D01*
X5321071Y-22316072D01*
X2742500Y-22842500D02*
X2992500Y-23092500D01*
X2992500Y-22842500D02*
X2742500Y-23092500D01*
X3249643Y-22831786D02*
X3263928Y-22817500D01*
X3292500Y-22803214D01*
X3363928Y-22803214D01*
X3392500Y-22817500D01*
X3406786Y-22831786D01*
X3421071Y-22860357D01*
X3421071Y-22888929D01*
X3406786Y-22931786D01*
X3235357Y-23103214D01*
X3421071Y-23103214D01*
X3549643Y-23074643D02*
X3563928Y-23088929D01*
X3549643Y-23103214D01*
X3535357Y-23088929D01*
X3549643Y-23074643D01*
X3549643Y-23103214D01*
X3835357Y-22803214D02*
X3692500Y-22803214D01*
X3678214Y-22946071D01*
X3692500Y-22931786D01*
X3721071Y-22917500D01*
X3792500Y-22917500D01*
X3821071Y-22931786D01*
X3835357Y-22946071D01*
X3849643Y-22974643D01*
X3849643Y-23046071D01*
X3835357Y-23074643D01*
X3821071Y-23088929D01*
X3792500Y-23103214D01*
X3721071Y-23103214D01*
X3692500Y-23088929D01*
X3678214Y-23074643D01*
X4035357Y-22803214D02*
X4063928Y-22803214D01*
X4092500Y-22817500D01*
X4106786Y-22831786D01*
X4121071Y-22860357D01*
X4135357Y-22917500D01*
X4135357Y-22988929D01*
X4121071Y-23046071D01*
X4106786Y-23074643D01*
X4092500Y-23088929D01*
X4063928Y-23103214D01*
X4035357Y-23103214D01*
X4006786Y-23088929D01*
X3992500Y-23074643D01*
X3978214Y-23046071D01*
X3963928Y-22988929D01*
X3963928Y-22917500D01*
X3978214Y-22860357D01*
X3992500Y-22831786D01*
X4006786Y-22817500D01*
X4035357Y-22803214D01*
X4263928Y-23103214D02*
X4263928Y-22903214D01*
X4263928Y-22931786D02*
X4278214Y-22917500D01*
X4306786Y-22903214D01*
X4349643Y-22903214D01*
X4378214Y-22917500D01*
X4392500Y-22946071D01*
X4392500Y-23103214D01*
X4392500Y-22946071D02*
X4406786Y-22917500D01*
X4435357Y-22903214D01*
X4478214Y-22903214D01*
X4506786Y-22917500D01*
X4521071Y-22946071D01*
X4521071Y-23103214D01*
X4663928Y-23103214D02*
X4663928Y-22903214D01*
X4663928Y-22931786D02*
X4678214Y-22917500D01*
X4706786Y-22903214D01*
X4749643Y-22903214D01*
X4778214Y-22917500D01*
X4792500Y-22946071D01*
X4792500Y-23103214D01*
X4792500Y-22946071D02*
X4806786Y-22917500D01*
X4835357Y-22903214D01*
X4878214Y-22903214D01*
X4906786Y-22917500D01*
X4921071Y-22946071D01*
X4921071Y-23103214D01*
X5506786Y-22788929D02*
X5249643Y-23174643D01*
X5892500Y-22803214D02*
X5921071Y-22803214D01*
X5949643Y-22817500D01*
X5963928Y-22831786D01*
X5978214Y-22860357D01*
X5992500Y-22917500D01*
X5992500Y-22988929D01*
X5978214Y-23046071D01*
X5963928Y-23074643D01*
X5949643Y-23088929D01*
X5921071Y-23103214D01*
X5892500Y-23103214D01*
X5863928Y-23088929D01*
X5849643Y-23074643D01*
X5835357Y-23046071D01*
X5821071Y-22988929D01*
X5821071Y-22917500D01*
X5835357Y-22860357D01*
X5849643Y-22831786D01*
X5863928Y-22817500D01*
X5892500Y-22803214D01*
X6121071Y-23074643D02*
X6135357Y-23088929D01*
X6121071Y-23103214D01*
X6106786Y-23088929D01*
X6121071Y-23074643D01*
X6121071Y-23103214D01*
X6321071Y-22803214D02*
X6349643Y-22803214D01*
X6378214Y-22817500D01*
X6392500Y-22831786D01*
X6406786Y-22860357D01*
X6421071Y-22917500D01*
X6421071Y-22988929D01*
X6406786Y-23046071D01*
X6392500Y-23074643D01*
X6378214Y-23088929D01*
X6349643Y-23103214D01*
X6321071Y-23103214D01*
X6292500Y-23088929D01*
X6278214Y-23074643D01*
X6263928Y-23046071D01*
X6249643Y-22988929D01*
X6249643Y-22917500D01*
X6263928Y-22860357D01*
X6278214Y-22831786D01*
X6292500Y-22817500D01*
X6321071Y-22803214D01*
X6563928Y-23103214D02*
X6621071Y-23103214D01*
X6649643Y-23088929D01*
X6663928Y-23074643D01*
X6692500Y-23031786D01*
X6706786Y-22974643D01*
X6706786Y-22860357D01*
X6692500Y-22831786D01*
X6678214Y-22817500D01*
X6649643Y-22803214D01*
X6592500Y-22803214D01*
X6563928Y-22817500D01*
X6549643Y-22831786D01*
X6535357Y-22860357D01*
X6535357Y-22931786D01*
X6549643Y-22960357D01*
X6563928Y-22974643D01*
X6592500Y-22988929D01*
X6649643Y-22988929D01*
X6678214Y-22974643D01*
X6692500Y-22960357D01*
X6706786Y-22931786D01*
X6878214Y-22931786D02*
X6849643Y-22917500D01*
X6835357Y-22903214D01*
X6821071Y-22874643D01*
X6821071Y-22860357D01*
X6835357Y-22831786D01*
X6849643Y-22817500D01*
X6878214Y-22803214D01*
X6935357Y-22803214D01*
X6963928Y-22817500D01*
X6978214Y-22831786D01*
X6992500Y-22860357D01*
X6992500Y-22874643D01*
X6978214Y-22903214D01*
X6963928Y-22917500D01*
X6935357Y-22931786D01*
X6878214Y-22931786D01*
X6849643Y-22946071D01*
X6835357Y-22960357D01*
X6821071Y-22988929D01*
X6821071Y-23046071D01*
X6835357Y-23074643D01*
X6849643Y-23088929D01*
X6878214Y-23103214D01*
X6935357Y-23103214D01*
X6963928Y-23088929D01*
X6978214Y-23074643D01*
X6992500Y-23046071D01*
X6992500Y-22988929D01*
X6978214Y-22960357D01*
X6963928Y-22946071D01*
X6935357Y-22931786D01*
X7106786Y-22803214D02*
X7106786Y-22860357D01*
X7221071Y-22803214D02*
X7221071Y-22860357D01*
X7663928Y-23217500D02*
X7649643Y-23203214D01*
X7621071Y-23160357D01*
X7606786Y-23131786D01*
X7592500Y-23088929D01*
X7578214Y-23017500D01*
X7578214Y-22960357D01*
X7592500Y-22888929D01*
X7606786Y-22846071D01*
X7621071Y-22817500D01*
X7649643Y-22774643D01*
X7663928Y-22760357D01*
X7906786Y-22903214D02*
X7906786Y-23103214D01*
X7835357Y-22788929D02*
X7763928Y-23003214D01*
X7949643Y-23003214D01*
X8292500Y-23103214D02*
X8292500Y-22803214D01*
X8421071Y-23103214D02*
X8421071Y-22946071D01*
X8406786Y-22917500D01*
X8378214Y-22903214D01*
X8335357Y-22903214D01*
X8306786Y-22917500D01*
X8292500Y-22931786D01*
X8606786Y-23103214D02*
X8578214Y-23088929D01*
X8563928Y-23074643D01*
X8549643Y-23046071D01*
X8549643Y-22960357D01*
X8563928Y-22931786D01*
X8578214Y-22917500D01*
X8606786Y-22903214D01*
X8649643Y-22903214D01*
X8678214Y-22917500D01*
X8692500Y-22931786D01*
X8706786Y-22960357D01*
X8706786Y-23046071D01*
X8692500Y-23074643D01*
X8678214Y-23088929D01*
X8649643Y-23103214D01*
X8606786Y-23103214D01*
X8878214Y-23103214D02*
X8849643Y-23088929D01*
X8835357Y-23060357D01*
X8835357Y-22803214D01*
X9106786Y-23088929D02*
X9078214Y-23103214D01*
X9021071Y-23103214D01*
X8992500Y-23088929D01*
X8978214Y-23060357D01*
X8978214Y-22946071D01*
X8992500Y-22917500D01*
X9021071Y-22903214D01*
X9078214Y-22903214D01*
X9106786Y-22917500D01*
X9121071Y-22946071D01*
X9121071Y-22974643D01*
X8978214Y-23003214D01*
X9235357Y-23088929D02*
X9263928Y-23103214D01*
X9321071Y-23103214D01*
X9349643Y-23088929D01*
X9363928Y-23060357D01*
X9363928Y-23046071D01*
X9349643Y-23017500D01*
X9321071Y-23003214D01*
X9278214Y-23003214D01*
X9249643Y-22988929D01*
X9235357Y-22960357D01*
X9235357Y-22946071D01*
X9249643Y-22917500D01*
X9278214Y-22903214D01*
X9321071Y-22903214D01*
X9349643Y-22917500D01*
X9463928Y-23217500D02*
X9478214Y-23203214D01*
X9506786Y-23160357D01*
X9521071Y-23131786D01*
X9535357Y-23088929D01*
X9549643Y-23017500D01*
X9549643Y-22960357D01*
X9535357Y-22888929D01*
X9521071Y-22846071D01*
X9506786Y-22817500D01*
X9478214Y-22774643D01*
X9463928Y-22760357D01*
X10006786Y-23217500D02*
X9992500Y-23203214D01*
X9963928Y-23160357D01*
X9949643Y-23131786D01*
X9935357Y-23088929D01*
X9921071Y-23017500D01*
X9921071Y-22960357D01*
X9935357Y-22888929D01*
X9949643Y-22846071D01*
X9963928Y-22817500D01*
X9992500Y-22774643D01*
X10006786Y-22760357D01*
X10121071Y-22903214D02*
X10121071Y-23103214D01*
X10121071Y-22931786D02*
X10135357Y-22917500D01*
X10163928Y-22903214D01*
X10206786Y-22903214D01*
X10235357Y-22917500D01*
X10249643Y-22946071D01*
X10249643Y-23103214D01*
X10435357Y-23103214D02*
X10406786Y-23088929D01*
X10392500Y-23074643D01*
X10378214Y-23046071D01*
X10378214Y-22960357D01*
X10392500Y-22931786D01*
X10406786Y-22917500D01*
X10435357Y-22903214D01*
X10478214Y-22903214D01*
X10506786Y-22917500D01*
X10521071Y-22931786D01*
X10535357Y-22960357D01*
X10535357Y-23046071D01*
X10521071Y-23074643D01*
X10506786Y-23088929D01*
X10478214Y-23103214D01*
X10435357Y-23103214D01*
X10621071Y-22903214D02*
X10735357Y-22903214D01*
X10663928Y-22803214D02*
X10663928Y-23060357D01*
X10678214Y-23088929D01*
X10706786Y-23103214D01*
X10735357Y-23103214D01*
X11063928Y-22903214D02*
X11063928Y-23203214D01*
X11063928Y-22917500D02*
X11092500Y-22903214D01*
X11149643Y-22903214D01*
X11178214Y-22917500D01*
X11192500Y-22931786D01*
X11206786Y-22960357D01*
X11206786Y-23046071D01*
X11192500Y-23074643D01*
X11178214Y-23088929D01*
X11149643Y-23103214D01*
X11092500Y-23103214D01*
X11063928Y-23088929D01*
X11378214Y-23103214D02*
X11349643Y-23088929D01*
X11335357Y-23060357D01*
X11335357Y-22803214D01*
X11621071Y-23103214D02*
X11621071Y-22946071D01*
X11606786Y-22917500D01*
X11578214Y-22903214D01*
X11521071Y-22903214D01*
X11492500Y-22917500D01*
X11621071Y-23088929D02*
X11592500Y-23103214D01*
X11521071Y-23103214D01*
X11492500Y-23088929D01*
X11478214Y-23060357D01*
X11478214Y-23031786D01*
X11492500Y-23003214D01*
X11521071Y-22988929D01*
X11592500Y-22988929D01*
X11621071Y-22974643D01*
X11721071Y-22903214D02*
X11835357Y-22903214D01*
X11763928Y-22803214D02*
X11763928Y-23060357D01*
X11778214Y-23088929D01*
X11806786Y-23103214D01*
X11835357Y-23103214D01*
X12049643Y-23088929D02*
X12021071Y-23103214D01*
X11963928Y-23103214D01*
X11935357Y-23088929D01*
X11921071Y-23060357D01*
X11921071Y-22946071D01*
X11935357Y-22917500D01*
X11963928Y-22903214D01*
X12021071Y-22903214D01*
X12049643Y-22917500D01*
X12063928Y-22946071D01*
X12063928Y-22974643D01*
X11921071Y-23003214D01*
X12321071Y-23103214D02*
X12321071Y-22803214D01*
X12321071Y-23088929D02*
X12292500Y-23103214D01*
X12235357Y-23103214D01*
X12206786Y-23088929D01*
X12192500Y-23074643D01*
X12178214Y-23046071D01*
X12178214Y-22960357D01*
X12192500Y-22931786D01*
X12206786Y-22917500D01*
X12235357Y-22903214D01*
X12292500Y-22903214D01*
X12321071Y-22917500D01*
X12435357Y-23217500D02*
X12449643Y-23203214D01*
X12478214Y-23160357D01*
X12492500Y-23131786D01*
X12506786Y-23088929D01*
X12521071Y-23017500D01*
X12521071Y-22960357D01*
X12506786Y-22888929D01*
X12492500Y-22846071D01*
X12478214Y-22817500D01*
X12449643Y-22774643D01*
X12435357Y-22760357D01*
M02*
