M48
;DRILL file {KiCad no-vcs-found-product} date Seg 25 Abr 2016 23:01:20 BRT
;FORMAT={-:-/ absolute / metric / decimal}
FMAT,2
METRIC,TZ
T1C0.508
T2C1.100
T3C3.175
%
G90
G05
M71
T1
X61.59Y-147.522
X62.098Y-57.098
X62.86Y-77.418
X62.86Y-107.39
X62.86Y-187.146
X66.162Y-57.098
X66.924Y-77.418
X66.924Y-107.39
X67.178Y-187.146
X68.448Y-147.522
X71.75Y-106.374
X71.75Y-187.146
X72.004Y-76.91
X72.004Y-147.522
X73.274Y-57.098
X77.338Y-57.098
X80.386Y-76.402
X80.386Y-106.12
X80.64Y-143.458
X80.894Y-183.336
X93.594Y-145.998
X93.594Y-186.638
X93.848Y-56.336
X93.848Y-76.148
X93.848Y-106.374
X97.912Y-56.336
X102.23Y-76.148
X102.23Y-146.506
X102.738Y-106.374
X102.738Y-183.336
X126.36Y-186.384
X126.614Y-76.148
X126.614Y-106.374
X126.614Y-146.506
X126.868Y-56.082
X130.932Y-56.082
X135.25Y-76.402
X135.25Y-186.384
X135.504Y-146.252
X135.758Y-105.866
X136.266Y-68.274
X136.266Y-88.34
X136.266Y-118.058
X136.266Y-157.936
X137.282Y-65.48
X137.282Y-85.292
X137.282Y-115.264
X137.282Y-195.274
X137.536Y-155.396
X139.06Y-64.21
X139.06Y-84.022
X139.06Y-90.88
X139.06Y-113.994
X139.06Y-154.38
X139.06Y-194.004
X142.108Y-75.132
X142.108Y-84.022
X142.108Y-105.358
X142.108Y-113.994
X142.108Y-145.236
X142.108Y-154.38
X142.108Y-185.368
X142.108Y-194.004
X143.378Y-75.132
X143.378Y-84.022
X143.378Y-105.358
X143.378Y-113.994
X143.378Y-145.236
X143.378Y-154.38
X143.378Y-185.368
X143.378Y-194.004
X146.68Y-56.336
X146.934Y-52.018
X147.188Y-141.426
X147.696Y-68.274
X147.696Y-88.34
X147.696Y-118.058
X147.696Y-157.936
X147.696Y-181.05
X147.949Y-100.451
X147.95Y-70.814
X148.458Y-106.12
X148.712Y-76.402
X148.712Y-147.014
X148.966Y-186.892
X149.982Y-57.098
X154.3Y-57.098
X157.094Y-76.91
X157.094Y-147.014
X157.348Y-106.882
X157.348Y-186.892
X192.654Y-106.882
X192.654Y-186.892
X192.908Y-76.656
X192.908Y-147.014
X193.924Y-57.098
X197.988Y-57.098
X201.036Y-76.91
X201.036Y-147.014
X201.29Y-106.882
X201.544Y-186.638
X236.596Y-146.76
X236.85Y-106.882
X236.85Y-186.892
X237.104Y-76.91
X238.12Y-57.098
X240.66Y-107.136
X241.93Y-57.098
X244.978Y-76.91
X244.978Y-147.014
X245.486Y-187.146
X250.566Y-94.69
X250.566Y-98.5
X260.218Y-57.098
X260.98Y-77.418
X260.98Y-187.654
X261.996Y-148.03
X263.012Y-100.278
X263.012Y-106.628
X264.282Y-57.098
X265.044Y-77.418
X265.044Y-187.654
X266.06Y-148.03
X269.87Y-107.644
X275.712Y-106.374
X275.966Y-110.184
X279.014Y-85.038
X279.014Y-86.562
X279.014Y-88.086
X279.014Y-89.864
X279.014Y-91.388
X281.046Y-93.928
X281.046Y-101.04
X281.3Y-82.752
X281.3Y-116.28
X282.062Y-102.056
X282.062Y-106.628
X283.078Y-103.072
X287.Y-155.
X287.904Y-106.628
X288.412Y-81.736
X288.92Y-116.28
X289.936Y-85.038
X289.936Y-108.66
T2
X297.6Y-109.615
X297.6Y-112.155
X297.6Y-114.695
X297.6Y-117.235
X297.6Y-119.775
X297.6Y-122.315
X297.6Y-124.855
X297.6Y-127.395
X297.6Y-129.935
X297.6Y-132.475
X297.6Y-135.015
X297.6Y-137.555
X297.6Y-140.095
X297.6Y-142.635
X297.6Y-145.175
X297.6Y-147.715
X297.6Y-150.255
X297.6Y-152.795
X297.6Y-155.335
X297.6Y-157.875
X297.6Y-160.415
X297.6Y-162.955
X297.6Y-165.495
X300.14Y-109.615
X300.14Y-112.155
X300.14Y-114.695
X300.14Y-117.235
X300.14Y-119.775
X300.14Y-122.315
X300.14Y-124.855
X300.14Y-127.395
X300.14Y-129.935
X300.14Y-132.475
X300.14Y-135.015
X300.14Y-137.555
X300.14Y-140.095
X300.14Y-142.635
X300.14Y-145.175
X300.14Y-147.715
X300.14Y-150.255
X300.14Y-152.795
X300.14Y-155.335
X300.14Y-157.875
X300.14Y-160.415
X300.14Y-162.955
X300.14Y-165.495
X345.86Y-109.615
X345.86Y-112.155
X345.86Y-114.695
X345.86Y-117.235
X345.86Y-119.775
X345.86Y-122.315
X345.86Y-124.855
X345.86Y-127.395
X345.86Y-129.935
X345.86Y-132.475
X345.86Y-135.015
X345.86Y-137.555
X345.86Y-140.095
X345.86Y-142.635
X345.86Y-145.175
X345.86Y-147.715
X345.86Y-150.255
X345.86Y-152.795
X345.86Y-155.335
X345.86Y-157.875
X345.86Y-160.415
X345.86Y-162.955
X345.86Y-165.495
X348.4Y-109.615
X348.4Y-112.155
X348.4Y-114.695
X348.4Y-117.235
X348.4Y-119.775
X348.4Y-122.315
X348.4Y-124.855
X348.4Y-127.395
X348.4Y-129.935
X348.4Y-132.475
X348.4Y-135.015
X348.4Y-137.555
X348.4Y-140.095
X348.4Y-142.635
X348.4Y-145.175
X348.4Y-147.715
X348.4Y-150.255
X348.4Y-152.795
X348.4Y-155.335
X348.4Y-157.875
X348.4Y-160.415
X348.4Y-162.955
X348.4Y-165.495
T3
X298.87Y-170.575
X302.045Y-104.535
X343.955Y-104.535
X347.13Y-170.575
T0
M30
