G04 #@! TF.FileFunction,Copper,L4,Bot,Signal*
%FSLAX46Y46*%
G04 Gerber Fmt 4.6, Leading zero omitted, Abs format (unit mm)*
G04 Created by KiCad (PCBNEW no-vcs-found-product) date Seg 25 Abr 2016 23:01:13 BRT*
%MOMM*%
G01*
G04 APERTURE LIST*
%ADD10C,0.100000*%
%ADD11C,4.572000*%
%ADD12R,1.800000X1.800000*%
%ADD13C,1.800000*%
%ADD14C,0.762000*%
%ADD15C,0.254000*%
G04 APERTURE END LIST*
D10*
D11*
X343955000Y-104535000D03*
X347130000Y-170575000D03*
X298870000Y-170575000D03*
X302045000Y-104535000D03*
D12*
X348400000Y-165495000D03*
D13*
X345860000Y-165495000D03*
X348400000Y-162955000D03*
X345860000Y-162955000D03*
X348400000Y-160415000D03*
X345860000Y-160415000D03*
X348400000Y-157875000D03*
X345860000Y-157875000D03*
X348400000Y-155335000D03*
X345860000Y-155335000D03*
X348400000Y-152795000D03*
X345860000Y-152795000D03*
X348400000Y-150255000D03*
X345860000Y-150255000D03*
X348400000Y-147715000D03*
X345860000Y-147715000D03*
X348400000Y-145175000D03*
X345860000Y-145175000D03*
X348400000Y-142635000D03*
X345860000Y-142635000D03*
X348400000Y-140095000D03*
X345860000Y-140095000D03*
X348400000Y-137555000D03*
X345860000Y-137555000D03*
X348400000Y-135015000D03*
X345860000Y-135015000D03*
X348400000Y-132475000D03*
X345860000Y-132475000D03*
X348400000Y-129935000D03*
X345860000Y-129935000D03*
X348400000Y-127395000D03*
X345860000Y-127395000D03*
X348400000Y-124855000D03*
X345860000Y-124855000D03*
X348400000Y-122315000D03*
X345860000Y-122315000D03*
X348400000Y-119775000D03*
X345860000Y-119775000D03*
X348400000Y-117235000D03*
X345860000Y-117235000D03*
X348400000Y-114695000D03*
X345860000Y-114695000D03*
X348400000Y-112155000D03*
X345860000Y-112155000D03*
X348400000Y-109615000D03*
X345860000Y-109615000D03*
D12*
X300140000Y-165495000D03*
D13*
X297600000Y-165495000D03*
X300140000Y-162955000D03*
X297600000Y-162955000D03*
X300140000Y-160415000D03*
X297600000Y-160415000D03*
X300140000Y-157875000D03*
X297600000Y-157875000D03*
X300140000Y-155335000D03*
X297600000Y-155335000D03*
X300140000Y-152795000D03*
X297600000Y-152795000D03*
X300140000Y-150255000D03*
X297600000Y-150255000D03*
X300140000Y-147715000D03*
X297600000Y-147715000D03*
X300140000Y-145175000D03*
X297600000Y-145175000D03*
X300140000Y-142635000D03*
X297600000Y-142635000D03*
X300140000Y-140095000D03*
X297600000Y-140095000D03*
X300140000Y-137555000D03*
X297600000Y-137555000D03*
X300140000Y-135015000D03*
X297600000Y-135015000D03*
X300140000Y-132475000D03*
X297600000Y-132475000D03*
X300140000Y-129935000D03*
X297600000Y-129935000D03*
X300140000Y-127395000D03*
X297600000Y-127395000D03*
X300140000Y-124855000D03*
X297600000Y-124855000D03*
X300140000Y-122315000D03*
X297600000Y-122315000D03*
X300140000Y-119775000D03*
X297600000Y-119775000D03*
X300140000Y-117235000D03*
X297600000Y-117235000D03*
X300140000Y-114695000D03*
X297600000Y-114695000D03*
X300140000Y-112155000D03*
X297600000Y-112155000D03*
X300140000Y-109615000D03*
X297600000Y-109615000D03*
D14*
X287000000Y-155000000D03*
X281300000Y-82752000D03*
X289936000Y-85038000D03*
X288920000Y-116280000D03*
X287904000Y-106628000D03*
X260980000Y-187654000D03*
X236850000Y-186892000D03*
X192654000Y-186892000D03*
X148966000Y-186892000D03*
X126360000Y-186384000D03*
X93594000Y-186638000D03*
X71750000Y-187146000D03*
X62860000Y-187146000D03*
X261996000Y-148030000D03*
X236596000Y-146760000D03*
X192908000Y-147014000D03*
X148712000Y-147014000D03*
X126614000Y-146506000D03*
X93594000Y-145998000D03*
X72004000Y-147522000D03*
X61590000Y-147522000D03*
X263012000Y-106628000D03*
X236850000Y-106882000D03*
X192654000Y-106882000D03*
X148458000Y-106120000D03*
X126614000Y-106374000D03*
X93848000Y-106374000D03*
X71750000Y-106374000D03*
X62860000Y-107390000D03*
X260980000Y-77418000D03*
X237104000Y-76910000D03*
X192908000Y-76656000D03*
X148712000Y-76402000D03*
X126614000Y-76148000D03*
X93848000Y-76148000D03*
X72004000Y-76910000D03*
X62860000Y-77418000D03*
X146680000Y-56336000D03*
X260218000Y-57098000D03*
X238120000Y-57098000D03*
X193924000Y-57098000D03*
X149982000Y-57098000D03*
X126868000Y-56082000D03*
X93848000Y-56336000D03*
X73274000Y-57098000D03*
X62098000Y-57098000D03*
X147948981Y-100450981D03*
X288412000Y-81736000D03*
X281046000Y-93928000D03*
X281300000Y-116280000D03*
X289936000Y-108660000D03*
X282062000Y-106628000D03*
X139060000Y-194004000D03*
X147696000Y-181050000D03*
X265044000Y-187654000D03*
X245486000Y-187146000D03*
X201544000Y-186638000D03*
X157348000Y-186892000D03*
X135250000Y-186384000D03*
X102738000Y-183336000D03*
X80894000Y-183336000D03*
X67178000Y-187146000D03*
X139060000Y-154380000D03*
X147188000Y-141426000D03*
X266060000Y-148030000D03*
X244978000Y-147014000D03*
X201036000Y-147014000D03*
X157094000Y-147014000D03*
X135504000Y-146252000D03*
X102230000Y-146506000D03*
X80640000Y-143458000D03*
X68448000Y-147522000D03*
X139060000Y-113994000D03*
X263012000Y-100278000D03*
X240660000Y-107136000D03*
X201290000Y-106882000D03*
X157348000Y-106882000D03*
X135758000Y-105866000D03*
X102738000Y-106374000D03*
X80386000Y-106120000D03*
X66924000Y-107390000D03*
X147950000Y-70814000D03*
X139060000Y-84022000D03*
X265044000Y-77418000D03*
X244978000Y-76910000D03*
X201036000Y-76910000D03*
X157094000Y-76910000D03*
X135250000Y-76402000D03*
X102230000Y-76148000D03*
X80386000Y-76402000D03*
X66924000Y-77418000D03*
X146934000Y-52018000D03*
X139060000Y-64210000D03*
X264282000Y-57098000D03*
X241930000Y-57098000D03*
X197988000Y-57098000D03*
X154300000Y-57098000D03*
X130932000Y-56082000D03*
X97912000Y-56336000D03*
X77338000Y-57098006D03*
X66162000Y-57098000D03*
X136265996Y-68274000D03*
X147696000Y-68274000D03*
X136266000Y-88340000D03*
X147696000Y-88340000D03*
X136266000Y-118058000D03*
X147696000Y-118058000D03*
X136266000Y-157936000D03*
X147696000Y-157936000D03*
X279013996Y-85038000D03*
X137282000Y-65480004D03*
X279014000Y-86562000D03*
X137282000Y-85292000D03*
X279014000Y-88086000D03*
X137282000Y-115264000D03*
X279014000Y-89864000D03*
X137536000Y-155396000D03*
X279014000Y-91388004D03*
X137282000Y-195274000D03*
X275965998Y-110184000D03*
X283078000Y-103072000D03*
X250566000Y-94690000D03*
X139060000Y-90880000D03*
X250566000Y-98500000D03*
X269870000Y-107644008D03*
X282062000Y-102056000D03*
X142108000Y-194003990D03*
X142108000Y-185368000D03*
X142108000Y-154379976D03*
X142108000Y-145236004D03*
X142108000Y-113993962D03*
X142108000Y-105358000D03*
X142108000Y-84022000D03*
X142108000Y-75132000D03*
X281046000Y-101040000D03*
X275712000Y-106374000D03*
X143378000Y-194004000D03*
X143378000Y-185368000D03*
X143378000Y-154380000D03*
X143378000Y-145236000D03*
X143378000Y-113994000D03*
X143378000Y-105358000D03*
X143378000Y-84022000D03*
X143378000Y-75132000D03*
D15*
X147696000Y-68274000D02*
X136265996Y-68274000D01*
X147696000Y-88340000D02*
X136266000Y-88340000D01*
X147696000Y-118058000D02*
X136266000Y-118058000D01*
X147696000Y-157936000D02*
X136266000Y-157936000D01*
X137282000Y-65480004D02*
X269362004Y-65480004D01*
X269362004Y-65480004D02*
X278632997Y-74750997D01*
X278632997Y-74750997D02*
X278632997Y-84657001D01*
X278632997Y-84657001D02*
X279013996Y-85038000D01*
X278633001Y-86181001D02*
X279014000Y-86562000D01*
X277744000Y-85292000D02*
X278633001Y-86181001D01*
X137282000Y-85292000D02*
X277744000Y-85292000D01*
X137282000Y-115264000D02*
X236342000Y-115264000D01*
X236342000Y-115264000D02*
X263520000Y-88086000D01*
X263520000Y-88086000D02*
X278475185Y-88086000D01*
X278475185Y-88086000D02*
X279014000Y-88086000D01*
X137536000Y-155396000D02*
X204592000Y-155396000D01*
X204592000Y-155396000D02*
X270124000Y-89864000D01*
X270124000Y-89864000D02*
X279014000Y-89864000D01*
X137282000Y-195274000D02*
X177668000Y-195274000D01*
X177668000Y-195274000D02*
X279014000Y-93928000D01*
X279014000Y-93928000D02*
X279014000Y-91388004D01*
X276346997Y-109803001D02*
X275965998Y-110184000D01*
X282696999Y-103452999D02*
X276346997Y-109803001D01*
X283078000Y-103072000D02*
X282696999Y-103452999D01*
X139060000Y-90880000D02*
X142870000Y-94690000D01*
X142870000Y-94690000D02*
X250566000Y-94690000D01*
X250027185Y-98500000D02*
X250566000Y-98500000D01*
X148966000Y-98500000D02*
X250027185Y-98500000D01*
X142108000Y-105358000D02*
X148966000Y-98500000D01*
X270408815Y-107644008D02*
X269870000Y-107644008D01*
X282062000Y-102056000D02*
X276473992Y-107644008D01*
X276473992Y-107644008D02*
X270408815Y-107644008D01*
X142108000Y-185368000D02*
X142108000Y-194003990D01*
X142108000Y-145236004D02*
X142108000Y-154379976D01*
X142108000Y-105358000D02*
X142108000Y-113993962D01*
X142108000Y-75132000D02*
X142108000Y-84022000D01*
X275712000Y-106374000D02*
X281046000Y-101040000D01*
X143378000Y-185368000D02*
X143378000Y-194004000D01*
X143378000Y-145236000D02*
X143378000Y-154380000D01*
X143378000Y-105358000D02*
X143378000Y-113994000D01*
X143378000Y-75132000D02*
X143378000Y-84022000D01*
M02*
