G04 #@! TF.FileFunction,Soldermask,Top*
%FSLAX46Y46*%
G04 Gerber Fmt 4.6, Leading zero omitted, Abs format (unit mm)*
G04 Created by KiCad (PCBNEW no-vcs-found-product) date Seg 25 Abr 2016 23:01:13 BRT*
%MOMM*%
G01*
G04 APERTURE LIST*
%ADD10C,0.100000*%
%ADD11C,2.900000*%
%ADD12R,1.900000X1.650000*%
%ADD13R,2.800300X3.900120*%
%ADD14R,1.650000X1.900000*%
%ADD15R,2.000000X2.500000*%
%ADD16R,1.850000X0.850000*%
%ADD17O,2.058620X0.808940*%
%ADD18O,1.057860X0.699720*%
%ADD19C,4.972000*%
%ADD20R,2.200000X2.200000*%
%ADD21C,2.200000*%
%ADD22R,1.900000X0.850000*%
G04 APERTURE END LIST*
D10*
D11*
X300000000Y-40000000D03*
X40000000Y-40000000D03*
X40000000Y-210000000D03*
D12*
X286360000Y-116280000D03*
X283860000Y-116280000D03*
D13*
X287000000Y-158748800D03*
X287000000Y-165251200D03*
D12*
X283606000Y-82752000D03*
X286106000Y-82752000D03*
D14*
X144902000Y-54538000D03*
X144902000Y-52038000D03*
X145664000Y-74584000D03*
X145664000Y-72084000D03*
X145664000Y-104068000D03*
X145664000Y-101568000D03*
X145156000Y-143946000D03*
X145156000Y-141446000D03*
X145410000Y-183570000D03*
X145410000Y-181070000D03*
D15*
X62968000Y-54666000D03*
X67032000Y-54666000D03*
X62968000Y-65334000D03*
X67032000Y-65334000D03*
X73968000Y-54666000D03*
X78032000Y-54666000D03*
X73968000Y-65334000D03*
X78032000Y-65334000D03*
X95968000Y-54666000D03*
X100032000Y-54666000D03*
X95968000Y-65334000D03*
X100032000Y-65334000D03*
X128968000Y-54666000D03*
X133032000Y-54666000D03*
X128968000Y-65334000D03*
X133032000Y-65334000D03*
X150968000Y-54666000D03*
X155032000Y-54666000D03*
X150968000Y-65334000D03*
X155032000Y-65334000D03*
X194968000Y-54666000D03*
X199032000Y-54666000D03*
X194968000Y-65334000D03*
X199032000Y-65334000D03*
X238968000Y-54666000D03*
X243032000Y-54666000D03*
X238968000Y-65334000D03*
X243032000Y-65334000D03*
X260968000Y-54666000D03*
X265032000Y-54666000D03*
X260968000Y-65334000D03*
X265032000Y-65334000D03*
X62968000Y-74666000D03*
X67032000Y-74666000D03*
X62968000Y-85334000D03*
X67032000Y-85334000D03*
X73968000Y-74666000D03*
X78032000Y-74666000D03*
X73968000Y-85334000D03*
X78032000Y-85334000D03*
X95968000Y-74666000D03*
X100032000Y-74666000D03*
X95968000Y-85334000D03*
X100032000Y-85334000D03*
X128968000Y-74666000D03*
X133032000Y-74666000D03*
X128968000Y-85334000D03*
X133032000Y-85334000D03*
X150968000Y-74666000D03*
X155032000Y-74666000D03*
X150968000Y-85334000D03*
X155032000Y-85334000D03*
X194968000Y-74666000D03*
X199032000Y-74666000D03*
X194968000Y-85334000D03*
X199032000Y-85334000D03*
X238968000Y-74666000D03*
X243032000Y-74666000D03*
X238968000Y-85334000D03*
X243032000Y-85334000D03*
X260968000Y-74666000D03*
X265032000Y-74666000D03*
X260968000Y-85334000D03*
X265032000Y-85334000D03*
X62968000Y-104666000D03*
X67032000Y-104666000D03*
X62968000Y-115334000D03*
X67032000Y-115334000D03*
X73968000Y-104666000D03*
X78032000Y-104666000D03*
X73968000Y-115334000D03*
X78032000Y-115334000D03*
X95968000Y-104666000D03*
X100032000Y-104666000D03*
X95968000Y-115334000D03*
X100032000Y-115334000D03*
X128968000Y-104666000D03*
X133032000Y-104666000D03*
X128968000Y-115334000D03*
X133032000Y-115334000D03*
X150968000Y-104666000D03*
X155032000Y-104666000D03*
X150968000Y-115334000D03*
X155032000Y-115334000D03*
X194968000Y-104666000D03*
X199032000Y-104666000D03*
X194968000Y-115334000D03*
X199032000Y-115334000D03*
X238968000Y-104666000D03*
X243032000Y-104666000D03*
X238968000Y-115334000D03*
X243032000Y-115334000D03*
X260968000Y-104666000D03*
X265032000Y-104666000D03*
X260968000Y-115334000D03*
X265032000Y-115334000D03*
X62968000Y-144666000D03*
X67032000Y-144666000D03*
X62968000Y-155334000D03*
X67032000Y-155334000D03*
X73968000Y-144666000D03*
X78032000Y-144666000D03*
X73968000Y-155334000D03*
X78032000Y-155334000D03*
X95968000Y-144666000D03*
X100032000Y-144666000D03*
X95968000Y-155334000D03*
X100032000Y-155334000D03*
X128968000Y-144666000D03*
X133032000Y-144666000D03*
X128968000Y-155334000D03*
X133032000Y-155334000D03*
X150968000Y-144666000D03*
X155032000Y-144666000D03*
X150968000Y-155334000D03*
X155032000Y-155334000D03*
X194968000Y-144666000D03*
X199032000Y-144666000D03*
X194968000Y-155334000D03*
X199032000Y-155334000D03*
X238968000Y-144666000D03*
X243032000Y-144666000D03*
X238968000Y-155334000D03*
X243032000Y-155334000D03*
X260968000Y-144666000D03*
X265032000Y-144666000D03*
X260968000Y-155334000D03*
X265032000Y-155334000D03*
X62968000Y-184666000D03*
X67032000Y-184666000D03*
X62968000Y-195334000D03*
X67032000Y-195334000D03*
X73968000Y-184666000D03*
X78032000Y-184666000D03*
X73968000Y-195334000D03*
X78032000Y-195334000D03*
X95968000Y-184666000D03*
X100032000Y-184666000D03*
X95968000Y-195334000D03*
X100032000Y-195334000D03*
X128968000Y-184666000D03*
X133032000Y-184666000D03*
X128968000Y-195334000D03*
X133032000Y-195334000D03*
X150968000Y-184666000D03*
X155032000Y-184666000D03*
X150968000Y-195334000D03*
X155032000Y-195334000D03*
X194968000Y-184666000D03*
X199032000Y-184666000D03*
X194968000Y-195334000D03*
X199032000Y-195334000D03*
X238968000Y-184666000D03*
X243032000Y-184666000D03*
X238968000Y-195334000D03*
X243032000Y-195334000D03*
X260968000Y-184666000D03*
X265032000Y-184666000D03*
X260968000Y-195334000D03*
X265032000Y-195334000D03*
D16*
X282050000Y-108075000D03*
X282050000Y-108725000D03*
X282050000Y-109375000D03*
X282050000Y-110025000D03*
X282050000Y-110675000D03*
X282050000Y-111325000D03*
X282050000Y-111975000D03*
X282050000Y-112625000D03*
X282050000Y-113275000D03*
X282050000Y-113925000D03*
X287950000Y-113925000D03*
X287950000Y-113275000D03*
X287950000Y-112625000D03*
X287950000Y-111975000D03*
X287950000Y-111325000D03*
X287950000Y-110675000D03*
X287950000Y-110025000D03*
X287950000Y-109375000D03*
X287950000Y-108725000D03*
X287950000Y-108075000D03*
D17*
X282371100Y-86142500D03*
X282371100Y-86777500D03*
X282371100Y-87412500D03*
X282371100Y-88047500D03*
X282371100Y-88682500D03*
X282371100Y-89317500D03*
X282371100Y-89952500D03*
X282371100Y-90587500D03*
X282371100Y-91222500D03*
X282371100Y-91857500D03*
X287628900Y-91857500D03*
X287628900Y-91222500D03*
X287628900Y-90587500D03*
X287628900Y-89952500D03*
X287628900Y-89317500D03*
X287628900Y-88682500D03*
X287628900Y-88047500D03*
X287628900Y-87412500D03*
X287628900Y-86777500D03*
X287628900Y-86142500D03*
D18*
X293718060Y-85027840D03*
X293718060Y-84530000D03*
X293718060Y-84032160D03*
X292249940Y-84032160D03*
X292249940Y-85027840D03*
D19*
X343955000Y-104535000D03*
X347130000Y-170575000D03*
X298870000Y-170575000D03*
X302045000Y-104535000D03*
D20*
X348400000Y-165495000D03*
D21*
X345860000Y-165495000D03*
X348400000Y-162955000D03*
X345860000Y-162955000D03*
X348400000Y-160415000D03*
X345860000Y-160415000D03*
X348400000Y-157875000D03*
X345860000Y-157875000D03*
X348400000Y-155335000D03*
X345860000Y-155335000D03*
X348400000Y-152795000D03*
X345860000Y-152795000D03*
X348400000Y-150255000D03*
X345860000Y-150255000D03*
X348400000Y-147715000D03*
X345860000Y-147715000D03*
X348400000Y-145175000D03*
X345860000Y-145175000D03*
X348400000Y-142635000D03*
X345860000Y-142635000D03*
X348400000Y-140095000D03*
X345860000Y-140095000D03*
X348400000Y-137555000D03*
X345860000Y-137555000D03*
X348400000Y-135015000D03*
X345860000Y-135015000D03*
X348400000Y-132475000D03*
X345860000Y-132475000D03*
X348400000Y-129935000D03*
X345860000Y-129935000D03*
X348400000Y-127395000D03*
X345860000Y-127395000D03*
X348400000Y-124855000D03*
X345860000Y-124855000D03*
X348400000Y-122315000D03*
X345860000Y-122315000D03*
X348400000Y-119775000D03*
X345860000Y-119775000D03*
X348400000Y-117235000D03*
X345860000Y-117235000D03*
X348400000Y-114695000D03*
X345860000Y-114695000D03*
X348400000Y-112155000D03*
X345860000Y-112155000D03*
X348400000Y-109615000D03*
X345860000Y-109615000D03*
D20*
X300140000Y-165495000D03*
D21*
X297600000Y-165495000D03*
X300140000Y-162955000D03*
X297600000Y-162955000D03*
X300140000Y-160415000D03*
X297600000Y-160415000D03*
X300140000Y-157875000D03*
X297600000Y-157875000D03*
X300140000Y-155335000D03*
X297600000Y-155335000D03*
X300140000Y-152795000D03*
X297600000Y-152795000D03*
X300140000Y-150255000D03*
X297600000Y-150255000D03*
X300140000Y-147715000D03*
X297600000Y-147715000D03*
X300140000Y-145175000D03*
X297600000Y-145175000D03*
X300140000Y-142635000D03*
X297600000Y-142635000D03*
X300140000Y-140095000D03*
X297600000Y-140095000D03*
X300140000Y-137555000D03*
X297600000Y-137555000D03*
X300140000Y-135015000D03*
X297600000Y-135015000D03*
X300140000Y-132475000D03*
X297600000Y-132475000D03*
X300140000Y-129935000D03*
X297600000Y-129935000D03*
X300140000Y-127395000D03*
X297600000Y-127395000D03*
X300140000Y-124855000D03*
X297600000Y-124855000D03*
X300140000Y-122315000D03*
X297600000Y-122315000D03*
X300140000Y-119775000D03*
X297600000Y-119775000D03*
X300140000Y-117235000D03*
X297600000Y-117235000D03*
X300140000Y-114695000D03*
X297600000Y-114695000D03*
X300140000Y-112155000D03*
X297600000Y-112155000D03*
X300140000Y-109615000D03*
X297600000Y-109615000D03*
D22*
X139050000Y-57725000D03*
X139050000Y-58375000D03*
X139050000Y-59025000D03*
X139050000Y-59675000D03*
X139050000Y-60325000D03*
X139050000Y-60975000D03*
X139050000Y-61625000D03*
X139050000Y-62275000D03*
X144950000Y-62275000D03*
X144950000Y-61625000D03*
X144950000Y-60975000D03*
X144950000Y-60325000D03*
X144950000Y-59675000D03*
X144950000Y-59025000D03*
X144950000Y-58375000D03*
X144950000Y-57725000D03*
X139050000Y-77725000D03*
X139050000Y-78375000D03*
X139050000Y-79025000D03*
X139050000Y-79675000D03*
X139050000Y-80325000D03*
X139050000Y-80975000D03*
X139050000Y-81625000D03*
X139050000Y-82275000D03*
X144950000Y-82275000D03*
X144950000Y-81625000D03*
X144950000Y-80975000D03*
X144950000Y-80325000D03*
X144950000Y-79675000D03*
X144950000Y-79025000D03*
X144950000Y-78375000D03*
X144950000Y-77725000D03*
X139050000Y-107725000D03*
X139050000Y-108375000D03*
X139050000Y-109025000D03*
X139050000Y-109675000D03*
X139050000Y-110325000D03*
X139050000Y-110975000D03*
X139050000Y-111625000D03*
X139050000Y-112275000D03*
X144950000Y-112275000D03*
X144950000Y-111625000D03*
X144950000Y-110975000D03*
X144950000Y-110325000D03*
X144950000Y-109675000D03*
X144950000Y-109025000D03*
X144950000Y-108375000D03*
X144950000Y-107725000D03*
X139050000Y-147725000D03*
X139050000Y-148375000D03*
X139050000Y-149025000D03*
X139050000Y-149675000D03*
X139050000Y-150325000D03*
X139050000Y-150975000D03*
X139050000Y-151625000D03*
X139050000Y-152275000D03*
X144950000Y-152275000D03*
X144950000Y-151625000D03*
X144950000Y-150975000D03*
X144950000Y-150325000D03*
X144950000Y-149675000D03*
X144950000Y-149025000D03*
X144950000Y-148375000D03*
X144950000Y-147725000D03*
X139050000Y-187725000D03*
X139050000Y-188375000D03*
X139050000Y-189025000D03*
X139050000Y-189675000D03*
X139050000Y-190325000D03*
X139050000Y-190975000D03*
X139050000Y-191625000D03*
X139050000Y-192275000D03*
X144950000Y-192275000D03*
X144950000Y-191625000D03*
X144950000Y-190975000D03*
X144950000Y-190325000D03*
X144950000Y-189675000D03*
X144950000Y-189025000D03*
X144950000Y-188375000D03*
X144950000Y-187725000D03*
D11*
X300000000Y-210000000D03*
M02*
