G04 #@! TF.FileFunction,Copper,L2,Inr,Plane*
%FSLAX46Y46*%
G04 Gerber Fmt 4.6, Leading zero omitted, Abs format (unit mm)*
G04 Created by KiCad (PCBNEW no-vcs-found-product) date Seg 25 Abr 2016 23:01:13 BRT*
%MOMM*%
G01*
G04 APERTURE LIST*
%ADD10C,0.100000*%
%ADD11C,4.572000*%
%ADD12R,1.800000X1.800000*%
%ADD13C,1.800000*%
%ADD14C,0.762000*%
%ADD15C,0.254000*%
G04 APERTURE END LIST*
D10*
D11*
X343955000Y-104535000D03*
X347130000Y-170575000D03*
X298870000Y-170575000D03*
X302045000Y-104535000D03*
D12*
X348400000Y-165495000D03*
D13*
X345860000Y-165495000D03*
X348400000Y-162955000D03*
X345860000Y-162955000D03*
X348400000Y-160415000D03*
X345860000Y-160415000D03*
X348400000Y-157875000D03*
X345860000Y-157875000D03*
X348400000Y-155335000D03*
X345860000Y-155335000D03*
X348400000Y-152795000D03*
X345860000Y-152795000D03*
X348400000Y-150255000D03*
X345860000Y-150255000D03*
X348400000Y-147715000D03*
X345860000Y-147715000D03*
X348400000Y-145175000D03*
X345860000Y-145175000D03*
X348400000Y-142635000D03*
X345860000Y-142635000D03*
X348400000Y-140095000D03*
X345860000Y-140095000D03*
X348400000Y-137555000D03*
X345860000Y-137555000D03*
X348400000Y-135015000D03*
X345860000Y-135015000D03*
X348400000Y-132475000D03*
X345860000Y-132475000D03*
X348400000Y-129935000D03*
X345860000Y-129935000D03*
X348400000Y-127395000D03*
X345860000Y-127395000D03*
X348400000Y-124855000D03*
X345860000Y-124855000D03*
X348400000Y-122315000D03*
X345860000Y-122315000D03*
X348400000Y-119775000D03*
X345860000Y-119775000D03*
X348400000Y-117235000D03*
X345860000Y-117235000D03*
X348400000Y-114695000D03*
X345860000Y-114695000D03*
X348400000Y-112155000D03*
X345860000Y-112155000D03*
X348400000Y-109615000D03*
X345860000Y-109615000D03*
D12*
X300140000Y-165495000D03*
D13*
X297600000Y-165495000D03*
X300140000Y-162955000D03*
X297600000Y-162955000D03*
X300140000Y-160415000D03*
X297600000Y-160415000D03*
X300140000Y-157875000D03*
X297600000Y-157875000D03*
X300140000Y-155335000D03*
X297600000Y-155335000D03*
X300140000Y-152795000D03*
X297600000Y-152795000D03*
X300140000Y-150255000D03*
X297600000Y-150255000D03*
X300140000Y-147715000D03*
X297600000Y-147715000D03*
X300140000Y-145175000D03*
X297600000Y-145175000D03*
X300140000Y-142635000D03*
X297600000Y-142635000D03*
X300140000Y-140095000D03*
X297600000Y-140095000D03*
X300140000Y-137555000D03*
X297600000Y-137555000D03*
X300140000Y-135015000D03*
X297600000Y-135015000D03*
X300140000Y-132475000D03*
X297600000Y-132475000D03*
X300140000Y-129935000D03*
X297600000Y-129935000D03*
X300140000Y-127395000D03*
X297600000Y-127395000D03*
X300140000Y-124855000D03*
X297600000Y-124855000D03*
X300140000Y-122315000D03*
X297600000Y-122315000D03*
X300140000Y-119775000D03*
X297600000Y-119775000D03*
X300140000Y-117235000D03*
X297600000Y-117235000D03*
X300140000Y-114695000D03*
X297600000Y-114695000D03*
X300140000Y-112155000D03*
X297600000Y-112155000D03*
X300140000Y-109615000D03*
X297600000Y-109615000D03*
D14*
X287000000Y-155000000D03*
X281300000Y-82752000D03*
X289936000Y-85038000D03*
X288920000Y-116280000D03*
X287904000Y-106628000D03*
X260980000Y-187654000D03*
X236850000Y-186892000D03*
X192654000Y-186892000D03*
X148966000Y-186892000D03*
X126360000Y-186384000D03*
X93594000Y-186638000D03*
X71750000Y-187146000D03*
X62860000Y-187146000D03*
X261996000Y-148030000D03*
X236596000Y-146760000D03*
X192908000Y-147014000D03*
X148712000Y-147014000D03*
X126614000Y-146506000D03*
X93594000Y-145998000D03*
X72004000Y-147522000D03*
X61590000Y-147522000D03*
X263012000Y-106628000D03*
X236850000Y-106882000D03*
X192654000Y-106882000D03*
X148458000Y-106120000D03*
X126614000Y-106374000D03*
X93848000Y-106374000D03*
X71750000Y-106374000D03*
X62860000Y-107390000D03*
X260980000Y-77418000D03*
X237104000Y-76910000D03*
X192908000Y-76656000D03*
X148712000Y-76402000D03*
X126614000Y-76148000D03*
X93848000Y-76148000D03*
X72004000Y-76910000D03*
X62860000Y-77418000D03*
X146680000Y-56336000D03*
X260218000Y-57098000D03*
X238120000Y-57098000D03*
X193924000Y-57098000D03*
X149982000Y-57098000D03*
X126868000Y-56082000D03*
X93848000Y-56336000D03*
X73274000Y-57098000D03*
X62098000Y-57098000D03*
X147948981Y-100450981D03*
X288412000Y-81736000D03*
X281046000Y-93928000D03*
X281300000Y-116280000D03*
X289936000Y-108660000D03*
X282062000Y-106628000D03*
X139060000Y-194004000D03*
X147696000Y-181050000D03*
X265044000Y-187654000D03*
X245486000Y-187146000D03*
X201544000Y-186638000D03*
X157348000Y-186892000D03*
X135250000Y-186384000D03*
X102738000Y-183336000D03*
X80894000Y-183336000D03*
X67178000Y-187146000D03*
X139060000Y-154380000D03*
X147188000Y-141426000D03*
X266060000Y-148030000D03*
X244978000Y-147014000D03*
X201036000Y-147014000D03*
X157094000Y-147014000D03*
X135504000Y-146252000D03*
X102230000Y-146506000D03*
X80640000Y-143458000D03*
X68448000Y-147522000D03*
X139060000Y-113994000D03*
X263012000Y-100278000D03*
X240660000Y-107136000D03*
X201290000Y-106882000D03*
X157348000Y-106882000D03*
X135758000Y-105866000D03*
X102738000Y-106374000D03*
X80386000Y-106120000D03*
X66924000Y-107390000D03*
X147950000Y-70814000D03*
X139060000Y-84022000D03*
X265044000Y-77418000D03*
X244978000Y-76910000D03*
X201036000Y-76910000D03*
X157094000Y-76910000D03*
X135250000Y-76402000D03*
X102230000Y-76148000D03*
X80386000Y-76402000D03*
X66924000Y-77418000D03*
X146934000Y-52018000D03*
X139060000Y-64210000D03*
X264282000Y-57098000D03*
X241930000Y-57098000D03*
X197988000Y-57098000D03*
X154300000Y-57098000D03*
X130932000Y-56082000D03*
X97912000Y-56336000D03*
X77338000Y-57098006D03*
X66162000Y-57098000D03*
X136265996Y-68274000D03*
X147696000Y-68274000D03*
X136266000Y-88340000D03*
X147696000Y-88340000D03*
X136266000Y-118058000D03*
X147696000Y-118058000D03*
X136266000Y-157936000D03*
X147696000Y-157936000D03*
X279013996Y-85038000D03*
X137282000Y-65480004D03*
X279014000Y-86562000D03*
X137282000Y-85292000D03*
X279014000Y-88086000D03*
X137282000Y-115264000D03*
X279014000Y-89864000D03*
X137536000Y-155396000D03*
X279014000Y-91388004D03*
X137282000Y-195274000D03*
X275965998Y-110184000D03*
X283078000Y-103072000D03*
X250566000Y-94690000D03*
X139060000Y-90880000D03*
X250566000Y-98500000D03*
X269870000Y-107644008D03*
X282062000Y-102056000D03*
X142108000Y-194003990D03*
X142108000Y-185368000D03*
X142108000Y-154379976D03*
X142108000Y-145236004D03*
X142108000Y-113993962D03*
X142108000Y-105358000D03*
X142108000Y-84022000D03*
X142108000Y-75132000D03*
X281046000Y-101040000D03*
X275712000Y-106374000D03*
X143378000Y-194004000D03*
X143378000Y-185368000D03*
X143378000Y-154380000D03*
X143378000Y-145236000D03*
X143378000Y-113994000D03*
X143378000Y-105358000D03*
X143378000Y-84022000D03*
X143378000Y-75132000D03*
D15*
G36*
X354873000Y-174873000D02*
X332127000Y-174873000D01*
X332127000Y-171153474D01*
X344208494Y-171153474D01*
X344652253Y-172227452D01*
X345473226Y-173049860D01*
X346546428Y-173495492D01*
X347708474Y-173496506D01*
X348782452Y-173052747D01*
X349604860Y-172231774D01*
X350050492Y-171158572D01*
X350051506Y-169996526D01*
X349607747Y-168922548D01*
X348786774Y-168100140D01*
X347713572Y-167654508D01*
X346551526Y-167653494D01*
X345477548Y-168097253D01*
X344655140Y-168918226D01*
X344209508Y-169991428D01*
X344208494Y-171153474D01*
X332127000Y-171153474D01*
X332127000Y-165254336D01*
X344313542Y-165254336D01*
X344339161Y-165864460D01*
X344523357Y-166309148D01*
X344779841Y-166395554D01*
X345680395Y-165495000D01*
X344779841Y-164594446D01*
X344523357Y-164680852D01*
X344313542Y-165254336D01*
X332127000Y-165254336D01*
X332127000Y-162000000D01*
X332116994Y-161950590D01*
X332088553Y-161908965D01*
X332046159Y-161881685D01*
X332000000Y-161873000D01*
X309000000Y-161873000D01*
X308950590Y-161883006D01*
X308908965Y-161911447D01*
X308881685Y-161953841D01*
X308873000Y-162000000D01*
X308873000Y-204873000D01*
X45127000Y-204873000D01*
X45127000Y-195475208D01*
X136265824Y-195475208D01*
X136420175Y-195848766D01*
X136705731Y-196134821D01*
X137079018Y-196289824D01*
X137483208Y-196290176D01*
X137856766Y-196135825D01*
X138142821Y-195850269D01*
X138297824Y-195476982D01*
X138298176Y-195072792D01*
X138143825Y-194699234D01*
X137858269Y-194413179D01*
X137484982Y-194258176D01*
X137080792Y-194257824D01*
X136707234Y-194412175D01*
X136421179Y-194697731D01*
X136266176Y-195071018D01*
X136265824Y-195475208D01*
X45127000Y-195475208D01*
X45127000Y-194205198D01*
X141091824Y-194205198D01*
X141246175Y-194578756D01*
X141531731Y-194864811D01*
X141905018Y-195019814D01*
X142309208Y-195020166D01*
X142682766Y-194865815D01*
X142742849Y-194805836D01*
X142801731Y-194864821D01*
X143175018Y-195019824D01*
X143579208Y-195020176D01*
X143952766Y-194865825D01*
X144238821Y-194580269D01*
X144393824Y-194206982D01*
X144394176Y-193802792D01*
X144239825Y-193429234D01*
X143954269Y-193143179D01*
X143580982Y-192988176D01*
X143176792Y-192987824D01*
X142803234Y-193142175D01*
X142743151Y-193202154D01*
X142684269Y-193143169D01*
X142310982Y-192988166D01*
X141906792Y-192987814D01*
X141533234Y-193142165D01*
X141247179Y-193427721D01*
X141092176Y-193801008D01*
X141091824Y-194205198D01*
X45127000Y-194205198D01*
X45127000Y-187347208D01*
X61843824Y-187347208D01*
X61998175Y-187720766D01*
X62283731Y-188006821D01*
X62657018Y-188161824D01*
X63061208Y-188162176D01*
X63434766Y-188007825D01*
X63720821Y-187722269D01*
X63875824Y-187348982D01*
X63875825Y-187347208D01*
X70733824Y-187347208D01*
X70888175Y-187720766D01*
X71173731Y-188006821D01*
X71547018Y-188161824D01*
X71951208Y-188162176D01*
X72324766Y-188007825D01*
X72610821Y-187722269D01*
X72765824Y-187348982D01*
X72766176Y-186944792D01*
X72722550Y-186839208D01*
X92577824Y-186839208D01*
X92732175Y-187212766D01*
X93017731Y-187498821D01*
X93391018Y-187653824D01*
X93795208Y-187654176D01*
X94168766Y-187499825D01*
X94454821Y-187214269D01*
X94609824Y-186840982D01*
X94610046Y-186585208D01*
X125343824Y-186585208D01*
X125498175Y-186958766D01*
X125783731Y-187244821D01*
X126157018Y-187399824D01*
X126561208Y-187400176D01*
X126934766Y-187245825D01*
X127087649Y-187093208D01*
X147949824Y-187093208D01*
X148104175Y-187466766D01*
X148389731Y-187752821D01*
X148763018Y-187907824D01*
X149167208Y-187908176D01*
X149540766Y-187753825D01*
X149826821Y-187468269D01*
X149981824Y-187094982D01*
X149981825Y-187093208D01*
X191637824Y-187093208D01*
X191792175Y-187466766D01*
X192077731Y-187752821D01*
X192451018Y-187907824D01*
X192855208Y-187908176D01*
X193228766Y-187753825D01*
X193514821Y-187468269D01*
X193669824Y-187094982D01*
X193669825Y-187093208D01*
X235833824Y-187093208D01*
X235988175Y-187466766D01*
X236273731Y-187752821D01*
X236647018Y-187907824D01*
X237051208Y-187908176D01*
X237179400Y-187855208D01*
X259963824Y-187855208D01*
X260118175Y-188228766D01*
X260403731Y-188514821D01*
X260777018Y-188669824D01*
X261181208Y-188670176D01*
X261554766Y-188515825D01*
X261840821Y-188230269D01*
X261995824Y-187856982D01*
X261996176Y-187452792D01*
X261841825Y-187079234D01*
X261556269Y-186793179D01*
X261182982Y-186638176D01*
X260778792Y-186637824D01*
X260405234Y-186792175D01*
X260119179Y-187077731D01*
X259964176Y-187451018D01*
X259963824Y-187855208D01*
X237179400Y-187855208D01*
X237424766Y-187753825D01*
X237710821Y-187468269D01*
X237865824Y-187094982D01*
X237866176Y-186690792D01*
X237711825Y-186317234D01*
X237426269Y-186031179D01*
X237052982Y-185876176D01*
X236648792Y-185875824D01*
X236275234Y-186030175D01*
X235989179Y-186315731D01*
X235834176Y-186689018D01*
X235833824Y-187093208D01*
X193669825Y-187093208D01*
X193670176Y-186690792D01*
X193515825Y-186317234D01*
X193230269Y-186031179D01*
X192856982Y-185876176D01*
X192452792Y-185875824D01*
X192079234Y-186030175D01*
X191793179Y-186315731D01*
X191638176Y-186689018D01*
X191637824Y-187093208D01*
X149981825Y-187093208D01*
X149982176Y-186690792D01*
X149827825Y-186317234D01*
X149542269Y-186031179D01*
X149168982Y-185876176D01*
X148764792Y-185875824D01*
X148391234Y-186030175D01*
X148105179Y-186315731D01*
X147950176Y-186689018D01*
X147949824Y-187093208D01*
X127087649Y-187093208D01*
X127220821Y-186960269D01*
X127375824Y-186586982D01*
X127376176Y-186182792D01*
X127221825Y-185809234D01*
X126982218Y-185569208D01*
X141091824Y-185569208D01*
X141246175Y-185942766D01*
X141531731Y-186228821D01*
X141905018Y-186383824D01*
X142309208Y-186384176D01*
X142682766Y-186229825D01*
X142742854Y-186169841D01*
X142801731Y-186228821D01*
X143175018Y-186383824D01*
X143579208Y-186384176D01*
X143952766Y-186229825D01*
X144238821Y-185944269D01*
X144393824Y-185570982D01*
X144394176Y-185166792D01*
X144239825Y-184793234D01*
X143954269Y-184507179D01*
X143580982Y-184352176D01*
X143176792Y-184351824D01*
X142803234Y-184506175D01*
X142743146Y-184566159D01*
X142684269Y-184507179D01*
X142310982Y-184352176D01*
X141906792Y-184351824D01*
X141533234Y-184506175D01*
X141247179Y-184791731D01*
X141092176Y-185165018D01*
X141091824Y-185569208D01*
X126982218Y-185569208D01*
X126936269Y-185523179D01*
X126562982Y-185368176D01*
X126158792Y-185367824D01*
X125785234Y-185522175D01*
X125499179Y-185807731D01*
X125344176Y-186181018D01*
X125343824Y-186585208D01*
X94610046Y-186585208D01*
X94610176Y-186436792D01*
X94455825Y-186063234D01*
X94170269Y-185777179D01*
X93796982Y-185622176D01*
X93392792Y-185621824D01*
X93019234Y-185776175D01*
X92733179Y-186061731D01*
X92578176Y-186435018D01*
X92577824Y-186839208D01*
X72722550Y-186839208D01*
X72611825Y-186571234D01*
X72326269Y-186285179D01*
X71952982Y-186130176D01*
X71548792Y-186129824D01*
X71175234Y-186284175D01*
X70889179Y-186569731D01*
X70734176Y-186943018D01*
X70733824Y-187347208D01*
X63875825Y-187347208D01*
X63876176Y-186944792D01*
X63721825Y-186571234D01*
X63436269Y-186285179D01*
X63062982Y-186130176D01*
X62658792Y-186129824D01*
X62285234Y-186284175D01*
X61999179Y-186569731D01*
X61844176Y-186943018D01*
X61843824Y-187347208D01*
X45127000Y-187347208D01*
X45127000Y-171153474D01*
X295948494Y-171153474D01*
X296392253Y-172227452D01*
X297213226Y-173049860D01*
X298286428Y-173495492D01*
X299448474Y-173496506D01*
X300522452Y-173052747D01*
X301344860Y-172231774D01*
X301790492Y-171158572D01*
X301791506Y-169996526D01*
X301347747Y-168922548D01*
X300526774Y-168100140D01*
X299453572Y-167654508D01*
X298291526Y-167653494D01*
X297217548Y-168097253D01*
X296395140Y-168918226D01*
X295949508Y-169991428D01*
X295948494Y-171153474D01*
X45127000Y-171153474D01*
X45127000Y-165254336D01*
X296053542Y-165254336D01*
X296079161Y-165864460D01*
X296263357Y-166309148D01*
X296519841Y-166395554D01*
X297420395Y-165495000D01*
X296519841Y-164594446D01*
X296263357Y-164680852D01*
X296053542Y-165254336D01*
X45127000Y-165254336D01*
X45127000Y-158137208D01*
X135249824Y-158137208D01*
X135404175Y-158510766D01*
X135689731Y-158796821D01*
X136063018Y-158951824D01*
X136467208Y-158952176D01*
X136840766Y-158797825D01*
X137126821Y-158512269D01*
X137281824Y-158138982D01*
X137281825Y-158137208D01*
X146679824Y-158137208D01*
X146834175Y-158510766D01*
X147119731Y-158796821D01*
X147493018Y-158951824D01*
X147897208Y-158952176D01*
X148270766Y-158797825D01*
X148556821Y-158512269D01*
X148711824Y-158138982D01*
X148712176Y-157734792D01*
X148557825Y-157361234D01*
X148272269Y-157075179D01*
X147898982Y-156920176D01*
X147494792Y-156919824D01*
X147121234Y-157074175D01*
X146835179Y-157359731D01*
X146680176Y-157733018D01*
X146679824Y-158137208D01*
X137281825Y-158137208D01*
X137282176Y-157734792D01*
X137127825Y-157361234D01*
X136842269Y-157075179D01*
X136468982Y-156920176D01*
X136064792Y-156919824D01*
X135691234Y-157074175D01*
X135405179Y-157359731D01*
X135250176Y-157733018D01*
X135249824Y-158137208D01*
X45127000Y-158137208D01*
X45127000Y-155597208D01*
X136519824Y-155597208D01*
X136674175Y-155970766D01*
X136959731Y-156256821D01*
X137333018Y-156411824D01*
X137737208Y-156412176D01*
X138110766Y-156257825D01*
X138396821Y-155972269D01*
X138551824Y-155598982D01*
X138552176Y-155194792D01*
X138397825Y-154821234D01*
X138158194Y-154581184D01*
X141091824Y-154581184D01*
X141246175Y-154954742D01*
X141531731Y-155240797D01*
X141905018Y-155395800D01*
X142309208Y-155396152D01*
X142682766Y-155241801D01*
X142742842Y-155181829D01*
X142801731Y-155240821D01*
X143175018Y-155395824D01*
X143579208Y-155396176D01*
X143952766Y-155241825D01*
X143993453Y-155201208D01*
X285983824Y-155201208D01*
X286138175Y-155574766D01*
X286423731Y-155860821D01*
X286797018Y-156015824D01*
X287201208Y-156016176D01*
X287574766Y-155861825D01*
X287860821Y-155576269D01*
X288015824Y-155202982D01*
X288016176Y-154798792D01*
X287861825Y-154425234D01*
X287576269Y-154139179D01*
X287202982Y-153984176D01*
X286798792Y-153983824D01*
X286425234Y-154138175D01*
X286139179Y-154423731D01*
X285984176Y-154797018D01*
X285983824Y-155201208D01*
X143993453Y-155201208D01*
X144238821Y-154956269D01*
X144393824Y-154582982D01*
X144394176Y-154178792D01*
X144239825Y-153805234D01*
X143954269Y-153519179D01*
X143580982Y-153364176D01*
X143176792Y-153363824D01*
X142803234Y-153518175D01*
X142743158Y-153578147D01*
X142684269Y-153519155D01*
X142310982Y-153364152D01*
X141906792Y-153363800D01*
X141533234Y-153518151D01*
X141247179Y-153803707D01*
X141092176Y-154176994D01*
X141091824Y-154581184D01*
X138158194Y-154581184D01*
X138112269Y-154535179D01*
X137738982Y-154380176D01*
X137334792Y-154379824D01*
X136961234Y-154534175D01*
X136675179Y-154819731D01*
X136520176Y-155193018D01*
X136519824Y-155597208D01*
X45127000Y-155597208D01*
X45127000Y-147723208D01*
X60573824Y-147723208D01*
X60728175Y-148096766D01*
X61013731Y-148382821D01*
X61387018Y-148537824D01*
X61791208Y-148538176D01*
X62164766Y-148383825D01*
X62450821Y-148098269D01*
X62605824Y-147724982D01*
X62605825Y-147723208D01*
X70987824Y-147723208D01*
X71142175Y-148096766D01*
X71427731Y-148382821D01*
X71801018Y-148537824D01*
X72205208Y-148538176D01*
X72578766Y-148383825D01*
X72731649Y-148231208D01*
X260979824Y-148231208D01*
X261134175Y-148604766D01*
X261419731Y-148890821D01*
X261793018Y-149045824D01*
X262197208Y-149046176D01*
X262570766Y-148891825D01*
X262856821Y-148606269D01*
X263011824Y-148232982D01*
X263012176Y-147828792D01*
X262857825Y-147455234D01*
X262572269Y-147169179D01*
X262198982Y-147014176D01*
X261794792Y-147013824D01*
X261421234Y-147168175D01*
X261135179Y-147453731D01*
X260980176Y-147827018D01*
X260979824Y-148231208D01*
X72731649Y-148231208D01*
X72864821Y-148098269D01*
X73019824Y-147724982D01*
X73020176Y-147320792D01*
X72865825Y-146947234D01*
X72580269Y-146661179D01*
X72206982Y-146506176D01*
X71802792Y-146505824D01*
X71429234Y-146660175D01*
X71143179Y-146945731D01*
X70988176Y-147319018D01*
X70987824Y-147723208D01*
X62605825Y-147723208D01*
X62606176Y-147320792D01*
X62451825Y-146947234D01*
X62166269Y-146661179D01*
X61792982Y-146506176D01*
X61388792Y-146505824D01*
X61015234Y-146660175D01*
X60729179Y-146945731D01*
X60574176Y-147319018D01*
X60573824Y-147723208D01*
X45127000Y-147723208D01*
X45127000Y-146199208D01*
X92577824Y-146199208D01*
X92732175Y-146572766D01*
X93017731Y-146858821D01*
X93391018Y-147013824D01*
X93795208Y-147014176D01*
X94168766Y-146859825D01*
X94321649Y-146707208D01*
X125597824Y-146707208D01*
X125752175Y-147080766D01*
X126037731Y-147366821D01*
X126411018Y-147521824D01*
X126815208Y-147522176D01*
X127188766Y-147367825D01*
X127341649Y-147215208D01*
X147695824Y-147215208D01*
X147850175Y-147588766D01*
X148135731Y-147874821D01*
X148509018Y-148029824D01*
X148913208Y-148030176D01*
X149286766Y-147875825D01*
X149572821Y-147590269D01*
X149727824Y-147216982D01*
X149727825Y-147215208D01*
X191891824Y-147215208D01*
X192046175Y-147588766D01*
X192331731Y-147874821D01*
X192705018Y-148029824D01*
X193109208Y-148030176D01*
X193482766Y-147875825D01*
X193768821Y-147590269D01*
X193923824Y-147216982D01*
X193924046Y-146961208D01*
X235579824Y-146961208D01*
X235734175Y-147334766D01*
X236019731Y-147620821D01*
X236393018Y-147775824D01*
X236797208Y-147776176D01*
X237170766Y-147621825D01*
X237456821Y-147336269D01*
X237611824Y-146962982D01*
X237612176Y-146558792D01*
X237457825Y-146185234D01*
X237172269Y-145899179D01*
X236798982Y-145744176D01*
X236394792Y-145743824D01*
X236021234Y-145898175D01*
X235735179Y-146183731D01*
X235580176Y-146557018D01*
X235579824Y-146961208D01*
X193924046Y-146961208D01*
X193924176Y-146812792D01*
X193769825Y-146439234D01*
X193484269Y-146153179D01*
X193110982Y-145998176D01*
X192706792Y-145997824D01*
X192333234Y-146152175D01*
X192047179Y-146437731D01*
X191892176Y-146811018D01*
X191891824Y-147215208D01*
X149727825Y-147215208D01*
X149728176Y-146812792D01*
X149573825Y-146439234D01*
X149288269Y-146153179D01*
X148914982Y-145998176D01*
X148510792Y-145997824D01*
X148137234Y-146152175D01*
X147851179Y-146437731D01*
X147696176Y-146811018D01*
X147695824Y-147215208D01*
X127341649Y-147215208D01*
X127474821Y-147082269D01*
X127629824Y-146708982D01*
X127630176Y-146304792D01*
X127475825Y-145931234D01*
X127190269Y-145645179D01*
X126816982Y-145490176D01*
X126412792Y-145489824D01*
X126039234Y-145644175D01*
X125753179Y-145929731D01*
X125598176Y-146303018D01*
X125597824Y-146707208D01*
X94321649Y-146707208D01*
X94454821Y-146574269D01*
X94609824Y-146200982D01*
X94610176Y-145796792D01*
X94461601Y-145437212D01*
X141091824Y-145437212D01*
X141246175Y-145810770D01*
X141531731Y-146096825D01*
X141905018Y-146251828D01*
X142309208Y-146252180D01*
X142682766Y-146097829D01*
X142742856Y-146037843D01*
X142801731Y-146096821D01*
X143175018Y-146251824D01*
X143579208Y-146252176D01*
X143952766Y-146097825D01*
X144238821Y-145812269D01*
X144393824Y-145438982D01*
X144394176Y-145034792D01*
X144239825Y-144661234D01*
X143954269Y-144375179D01*
X143580982Y-144220176D01*
X143176792Y-144219824D01*
X142803234Y-144374175D01*
X142743144Y-144434161D01*
X142684269Y-144375183D01*
X142310982Y-144220180D01*
X141906792Y-144219828D01*
X141533234Y-144374179D01*
X141247179Y-144659735D01*
X141092176Y-145033022D01*
X141091824Y-145437212D01*
X94461601Y-145437212D01*
X94455825Y-145423234D01*
X94170269Y-145137179D01*
X93796982Y-144982176D01*
X93392792Y-144981824D01*
X93019234Y-145136175D01*
X92733179Y-145421731D01*
X92578176Y-145795018D01*
X92577824Y-146199208D01*
X45127000Y-146199208D01*
X45127000Y-118259208D01*
X135249824Y-118259208D01*
X135404175Y-118632766D01*
X135689731Y-118918821D01*
X136063018Y-119073824D01*
X136467208Y-119074176D01*
X136840766Y-118919825D01*
X137126821Y-118634269D01*
X137281824Y-118260982D01*
X137281825Y-118259208D01*
X146679824Y-118259208D01*
X146834175Y-118632766D01*
X147119731Y-118918821D01*
X147493018Y-119073824D01*
X147897208Y-119074176D01*
X148270766Y-118919825D01*
X148556821Y-118634269D01*
X148711824Y-118260982D01*
X148712176Y-117856792D01*
X148557825Y-117483234D01*
X148272269Y-117197179D01*
X147898982Y-117042176D01*
X147494792Y-117041824D01*
X147121234Y-117196175D01*
X146835179Y-117481731D01*
X146680176Y-117855018D01*
X146679824Y-118259208D01*
X137281825Y-118259208D01*
X137282176Y-117856792D01*
X137127825Y-117483234D01*
X136842269Y-117197179D01*
X136468982Y-117042176D01*
X136064792Y-117041824D01*
X135691234Y-117196175D01*
X135405179Y-117481731D01*
X135250176Y-117855018D01*
X135249824Y-118259208D01*
X45127000Y-118259208D01*
X45127000Y-116481208D01*
X287903824Y-116481208D01*
X288058175Y-116854766D01*
X288343731Y-117140821D01*
X288717018Y-117295824D01*
X289121208Y-117296176D01*
X289494766Y-117141825D01*
X289780821Y-116856269D01*
X289935824Y-116482982D01*
X289936176Y-116078792D01*
X289781825Y-115705234D01*
X289496269Y-115419179D01*
X289122982Y-115264176D01*
X288718792Y-115263824D01*
X288345234Y-115418175D01*
X288059179Y-115703731D01*
X287904176Y-116077018D01*
X287903824Y-116481208D01*
X45127000Y-116481208D01*
X45127000Y-115465208D01*
X136265824Y-115465208D01*
X136420175Y-115838766D01*
X136705731Y-116124821D01*
X137079018Y-116279824D01*
X137483208Y-116280176D01*
X137856766Y-116125825D01*
X138142821Y-115840269D01*
X138297824Y-115466982D01*
X138298176Y-115062792D01*
X138143825Y-114689234D01*
X137858269Y-114403179D01*
X137484982Y-114248176D01*
X137080792Y-114247824D01*
X136707234Y-114402175D01*
X136421179Y-114687731D01*
X136266176Y-115061018D01*
X136265824Y-115465208D01*
X45127000Y-115465208D01*
X45127000Y-114195170D01*
X141091824Y-114195170D01*
X141246175Y-114568728D01*
X141531731Y-114854783D01*
X141905018Y-115009786D01*
X142309208Y-115010138D01*
X142682766Y-114855787D01*
X142742835Y-114795822D01*
X142801731Y-114854821D01*
X143175018Y-115009824D01*
X143579208Y-115010176D01*
X143952766Y-114855825D01*
X144238821Y-114570269D01*
X144393824Y-114196982D01*
X144394176Y-113792792D01*
X144239825Y-113419234D01*
X143954269Y-113133179D01*
X143580982Y-112978176D01*
X143176792Y-112977824D01*
X142803234Y-113132175D01*
X142743165Y-113192140D01*
X142684269Y-113133141D01*
X142310982Y-112978138D01*
X141906792Y-112977786D01*
X141533234Y-113132137D01*
X141247179Y-113417693D01*
X141092176Y-113790980D01*
X141091824Y-114195170D01*
X45127000Y-114195170D01*
X45127000Y-110385208D01*
X274949822Y-110385208D01*
X275104173Y-110758766D01*
X275389729Y-111044821D01*
X275763016Y-111199824D01*
X276167206Y-111200176D01*
X276540764Y-111045825D01*
X276826819Y-110760269D01*
X276981822Y-110386982D01*
X276982174Y-109982792D01*
X276955812Y-109918991D01*
X296064735Y-109918991D01*
X296297932Y-110483371D01*
X296699182Y-110885323D01*
X296299449Y-111284357D01*
X296065267Y-111848330D01*
X296064735Y-112458991D01*
X296297932Y-113023371D01*
X296699182Y-113425323D01*
X296299449Y-113824357D01*
X296065267Y-114388330D01*
X296064735Y-114998991D01*
X296297932Y-115563371D01*
X296699182Y-115965323D01*
X296299449Y-116364357D01*
X296065267Y-116928330D01*
X296064735Y-117538991D01*
X296297932Y-118103371D01*
X296699182Y-118505323D01*
X296299449Y-118904357D01*
X296065267Y-119468330D01*
X296064735Y-120078991D01*
X296297932Y-120643371D01*
X296699182Y-121045323D01*
X296299449Y-121444357D01*
X296065267Y-122008330D01*
X296064735Y-122618991D01*
X296297932Y-123183371D01*
X296699182Y-123585323D01*
X296299449Y-123984357D01*
X296065267Y-124548330D01*
X296064735Y-125158991D01*
X296297932Y-125723371D01*
X296699182Y-126125323D01*
X296299449Y-126524357D01*
X296065267Y-127088330D01*
X296064735Y-127698991D01*
X296297932Y-128263371D01*
X296699182Y-128665323D01*
X296299449Y-129064357D01*
X296065267Y-129628330D01*
X296064735Y-130238991D01*
X296297932Y-130803371D01*
X296699182Y-131205323D01*
X296299449Y-131604357D01*
X296065267Y-132168330D01*
X296064735Y-132778991D01*
X296297932Y-133343371D01*
X296699182Y-133745323D01*
X296299449Y-134144357D01*
X296065267Y-134708330D01*
X296064735Y-135318991D01*
X296297932Y-135883371D01*
X296699182Y-136285323D01*
X296299449Y-136684357D01*
X296065267Y-137248330D01*
X296064735Y-137858991D01*
X296297932Y-138423371D01*
X296699182Y-138825323D01*
X296299449Y-139224357D01*
X296065267Y-139788330D01*
X296064735Y-140398991D01*
X296297932Y-140963371D01*
X296699182Y-141365323D01*
X296299449Y-141764357D01*
X296065267Y-142328330D01*
X296064735Y-142938991D01*
X296297932Y-143503371D01*
X296699182Y-143905323D01*
X296299449Y-144304357D01*
X296065267Y-144868330D01*
X296064735Y-145478991D01*
X296297932Y-146043371D01*
X296699182Y-146445323D01*
X296299449Y-146844357D01*
X296065267Y-147408330D01*
X296064735Y-148018991D01*
X296297932Y-148583371D01*
X296699182Y-148985323D01*
X296299449Y-149384357D01*
X296065267Y-149948330D01*
X296064735Y-150558991D01*
X296297932Y-151123371D01*
X296699182Y-151525323D01*
X296299449Y-151924357D01*
X296065267Y-152488330D01*
X296064735Y-153098991D01*
X296297932Y-153663371D01*
X296699182Y-154065323D01*
X296299449Y-154464357D01*
X296065267Y-155028330D01*
X296064735Y-155638991D01*
X296297932Y-156203371D01*
X296699182Y-156605323D01*
X296299449Y-157004357D01*
X296065267Y-157568330D01*
X296064735Y-158178991D01*
X296297932Y-158743371D01*
X296699182Y-159145323D01*
X296299449Y-159544357D01*
X296065267Y-160108330D01*
X296064735Y-160718991D01*
X296297932Y-161283371D01*
X296699182Y-161685323D01*
X296299449Y-162084357D01*
X296065267Y-162648330D01*
X296064735Y-163258991D01*
X296297932Y-163823371D01*
X296729357Y-164255551D01*
X296750194Y-164264203D01*
X296699446Y-164414841D01*
X297600000Y-165315395D01*
X297614143Y-165301253D01*
X297793748Y-165480858D01*
X297779605Y-165495000D01*
X297793748Y-165509143D01*
X297614143Y-165688748D01*
X297600000Y-165674605D01*
X296699446Y-166575159D01*
X296785852Y-166831643D01*
X297359336Y-167041458D01*
X297969460Y-167015839D01*
X298414148Y-166831643D01*
X298500553Y-166575161D01*
X298615110Y-166689718D01*
X298657287Y-166647541D01*
X298701673Y-166754698D01*
X298880301Y-166933327D01*
X299113690Y-167030000D01*
X299854250Y-167030000D01*
X300013000Y-166871250D01*
X300013000Y-165622000D01*
X300267000Y-165622000D01*
X300267000Y-166871250D01*
X300425750Y-167030000D01*
X301166310Y-167030000D01*
X301399699Y-166933327D01*
X301578327Y-166754698D01*
X301675000Y-166521309D01*
X301675000Y-165780750D01*
X301516250Y-165622000D01*
X300267000Y-165622000D01*
X300013000Y-165622000D01*
X299993000Y-165622000D01*
X299993000Y-165368000D01*
X300013000Y-165368000D01*
X300013000Y-165348000D01*
X300267000Y-165348000D01*
X300267000Y-165368000D01*
X301516250Y-165368000D01*
X301675000Y-165209250D01*
X301675000Y-164468691D01*
X301578327Y-164235302D01*
X301399699Y-164056673D01*
X301265006Y-164000881D01*
X301440551Y-163825643D01*
X301674733Y-163261670D01*
X301675265Y-162651009D01*
X301442068Y-162086629D01*
X301040818Y-161684677D01*
X301440551Y-161285643D01*
X301674733Y-160721670D01*
X301675265Y-160111009D01*
X301442068Y-159546629D01*
X301040818Y-159144677D01*
X301440551Y-158745643D01*
X301674733Y-158181670D01*
X301675265Y-157571009D01*
X301442068Y-157006629D01*
X301040818Y-156604677D01*
X301440551Y-156205643D01*
X301674733Y-155641670D01*
X301675265Y-155031009D01*
X301442068Y-154466629D01*
X301040818Y-154064677D01*
X301440551Y-153665643D01*
X301674733Y-153101670D01*
X301675265Y-152491009D01*
X301442068Y-151926629D01*
X301040818Y-151524677D01*
X301440551Y-151125643D01*
X301674733Y-150561670D01*
X301675265Y-149951009D01*
X301442068Y-149386629D01*
X301040818Y-148984677D01*
X301440551Y-148585643D01*
X301674733Y-148021670D01*
X301675265Y-147411009D01*
X301442068Y-146846629D01*
X301040818Y-146444677D01*
X301440551Y-146045643D01*
X301674733Y-145481670D01*
X301675265Y-144871009D01*
X301442068Y-144306629D01*
X301040818Y-143904677D01*
X301440551Y-143505643D01*
X301674733Y-142941670D01*
X301675265Y-142331009D01*
X301442068Y-141766629D01*
X301040818Y-141364677D01*
X301440551Y-140965643D01*
X301674733Y-140401670D01*
X301675265Y-139791009D01*
X301442068Y-139226629D01*
X301040818Y-138824677D01*
X301440551Y-138425643D01*
X301674733Y-137861670D01*
X301675265Y-137251009D01*
X301442068Y-136686629D01*
X301040818Y-136284677D01*
X301440551Y-135885643D01*
X301674733Y-135321670D01*
X301675265Y-134711009D01*
X301442068Y-134146629D01*
X301040818Y-133744677D01*
X301440551Y-133345643D01*
X301674733Y-132781670D01*
X301675265Y-132171009D01*
X301442068Y-131606629D01*
X301040818Y-131204677D01*
X301440551Y-130805643D01*
X301674733Y-130241670D01*
X301675265Y-129631009D01*
X301442068Y-129066629D01*
X301040818Y-128664677D01*
X301440551Y-128265643D01*
X301674733Y-127701670D01*
X301675265Y-127091009D01*
X301442068Y-126526629D01*
X301040818Y-126124677D01*
X301440551Y-125725643D01*
X301674733Y-125161670D01*
X301675265Y-124551009D01*
X301442068Y-123986629D01*
X301040818Y-123584677D01*
X301440551Y-123185643D01*
X301674733Y-122621670D01*
X301675265Y-122011009D01*
X301442068Y-121446629D01*
X301040818Y-121044677D01*
X301440551Y-120645643D01*
X301674733Y-120081670D01*
X301675265Y-119471009D01*
X301442068Y-118906629D01*
X301040818Y-118504677D01*
X301440551Y-118105643D01*
X301674733Y-117541670D01*
X301675265Y-116931009D01*
X301442068Y-116366629D01*
X301040818Y-115964677D01*
X301440551Y-115565643D01*
X301674733Y-115001670D01*
X301674735Y-114998991D01*
X344324735Y-114998991D01*
X344557932Y-115563371D01*
X344959182Y-115965323D01*
X344559449Y-116364357D01*
X344325267Y-116928330D01*
X344324735Y-117538991D01*
X344557932Y-118103371D01*
X344959182Y-118505323D01*
X344559449Y-118904357D01*
X344325267Y-119468330D01*
X344324735Y-120078991D01*
X344557932Y-120643371D01*
X344959182Y-121045323D01*
X344559449Y-121444357D01*
X344325267Y-122008330D01*
X344324735Y-122618991D01*
X344557932Y-123183371D01*
X344959182Y-123585323D01*
X344559449Y-123984357D01*
X344325267Y-124548330D01*
X344324735Y-125158991D01*
X344557932Y-125723371D01*
X344959182Y-126125323D01*
X344559449Y-126524357D01*
X344325267Y-127088330D01*
X344324735Y-127698991D01*
X344557932Y-128263371D01*
X344959182Y-128665323D01*
X344559449Y-129064357D01*
X344325267Y-129628330D01*
X344324735Y-130238991D01*
X344557932Y-130803371D01*
X344959182Y-131205323D01*
X344559449Y-131604357D01*
X344325267Y-132168330D01*
X344324735Y-132778991D01*
X344557932Y-133343371D01*
X344959182Y-133745323D01*
X344559449Y-134144357D01*
X344325267Y-134708330D01*
X344324735Y-135318991D01*
X344557932Y-135883371D01*
X344959182Y-136285323D01*
X344559449Y-136684357D01*
X344325267Y-137248330D01*
X344324735Y-137858991D01*
X344557932Y-138423371D01*
X344959182Y-138825323D01*
X344559449Y-139224357D01*
X344325267Y-139788330D01*
X344324735Y-140398991D01*
X344557932Y-140963371D01*
X344959182Y-141365323D01*
X344559449Y-141764357D01*
X344325267Y-142328330D01*
X344324735Y-142938991D01*
X344557932Y-143503371D01*
X344959182Y-143905323D01*
X344559449Y-144304357D01*
X344325267Y-144868330D01*
X344324735Y-145478991D01*
X344557932Y-146043371D01*
X344959182Y-146445323D01*
X344559449Y-146844357D01*
X344325267Y-147408330D01*
X344324735Y-148018991D01*
X344557932Y-148583371D01*
X344959182Y-148985323D01*
X344559449Y-149384357D01*
X344325267Y-149948330D01*
X344324735Y-150558991D01*
X344557932Y-151123371D01*
X344959182Y-151525323D01*
X344559449Y-151924357D01*
X344325267Y-152488330D01*
X344324735Y-153098991D01*
X344557932Y-153663371D01*
X344959182Y-154065323D01*
X344559449Y-154464357D01*
X344325267Y-155028330D01*
X344324735Y-155638991D01*
X344557932Y-156203371D01*
X344959182Y-156605323D01*
X344559449Y-157004357D01*
X344325267Y-157568330D01*
X344324735Y-158178991D01*
X344557932Y-158743371D01*
X344959182Y-159145323D01*
X344559449Y-159544357D01*
X344325267Y-160108330D01*
X344324735Y-160718991D01*
X344557932Y-161283371D01*
X344959182Y-161685323D01*
X344559449Y-162084357D01*
X344325267Y-162648330D01*
X344324735Y-163258991D01*
X344557932Y-163823371D01*
X344989357Y-164255551D01*
X345010194Y-164264203D01*
X344959446Y-164414841D01*
X345860000Y-165315395D01*
X345874143Y-165301253D01*
X346053748Y-165480858D01*
X346039605Y-165495000D01*
X346053748Y-165509143D01*
X345874143Y-165688748D01*
X345860000Y-165674605D01*
X344959446Y-166575159D01*
X345045852Y-166831643D01*
X345619336Y-167041458D01*
X346229460Y-167015839D01*
X346674148Y-166831643D01*
X346760553Y-166575161D01*
X346875110Y-166689718D01*
X346917287Y-166647541D01*
X346961673Y-166754698D01*
X347140301Y-166933327D01*
X347373690Y-167030000D01*
X348114250Y-167030000D01*
X348273000Y-166871250D01*
X348273000Y-165622000D01*
X348527000Y-165622000D01*
X348527000Y-166871250D01*
X348685750Y-167030000D01*
X349426310Y-167030000D01*
X349659699Y-166933327D01*
X349838327Y-166754698D01*
X349935000Y-166521309D01*
X349935000Y-165780750D01*
X349776250Y-165622000D01*
X348527000Y-165622000D01*
X348273000Y-165622000D01*
X348253000Y-165622000D01*
X348253000Y-165368000D01*
X348273000Y-165368000D01*
X348273000Y-165348000D01*
X348527000Y-165348000D01*
X348527000Y-165368000D01*
X349776250Y-165368000D01*
X349935000Y-165209250D01*
X349935000Y-164468691D01*
X349838327Y-164235302D01*
X349659699Y-164056673D01*
X349525006Y-164000881D01*
X349700551Y-163825643D01*
X349934733Y-163261670D01*
X349935265Y-162651009D01*
X349702068Y-162086629D01*
X349300818Y-161684677D01*
X349700551Y-161285643D01*
X349934733Y-160721670D01*
X349935265Y-160111009D01*
X349702068Y-159546629D01*
X349300818Y-159144677D01*
X349700551Y-158745643D01*
X349934733Y-158181670D01*
X349935265Y-157571009D01*
X349702068Y-157006629D01*
X349300818Y-156604677D01*
X349700551Y-156205643D01*
X349934733Y-155641670D01*
X349935265Y-155031009D01*
X349702068Y-154466629D01*
X349300818Y-154064677D01*
X349700551Y-153665643D01*
X349934733Y-153101670D01*
X349935265Y-152491009D01*
X349702068Y-151926629D01*
X349300818Y-151524677D01*
X349700551Y-151125643D01*
X349934733Y-150561670D01*
X349935265Y-149951009D01*
X349702068Y-149386629D01*
X349300818Y-148984677D01*
X349700551Y-148585643D01*
X349934733Y-148021670D01*
X349935265Y-147411009D01*
X349702068Y-146846629D01*
X349300818Y-146444677D01*
X349700551Y-146045643D01*
X349934733Y-145481670D01*
X349935265Y-144871009D01*
X349702068Y-144306629D01*
X349300818Y-143904677D01*
X349700551Y-143505643D01*
X349934733Y-142941670D01*
X349935265Y-142331009D01*
X349702068Y-141766629D01*
X349300818Y-141364677D01*
X349700551Y-140965643D01*
X349934733Y-140401670D01*
X349935265Y-139791009D01*
X349702068Y-139226629D01*
X349300818Y-138824677D01*
X349700551Y-138425643D01*
X349934733Y-137861670D01*
X349935265Y-137251009D01*
X349702068Y-136686629D01*
X349300818Y-136284677D01*
X349700551Y-135885643D01*
X349934733Y-135321670D01*
X349935265Y-134711009D01*
X349702068Y-134146629D01*
X349300818Y-133744677D01*
X349700551Y-133345643D01*
X349934733Y-132781670D01*
X349935265Y-132171009D01*
X349702068Y-131606629D01*
X349300818Y-131204677D01*
X349700551Y-130805643D01*
X349934733Y-130241670D01*
X349935265Y-129631009D01*
X349702068Y-129066629D01*
X349300818Y-128664677D01*
X349700551Y-128265643D01*
X349934733Y-127701670D01*
X349935265Y-127091009D01*
X349702068Y-126526629D01*
X349300818Y-126124677D01*
X349700551Y-125725643D01*
X349934733Y-125161670D01*
X349935265Y-124551009D01*
X349702068Y-123986629D01*
X349300818Y-123584677D01*
X349700551Y-123185643D01*
X349934733Y-122621670D01*
X349935265Y-122011009D01*
X349702068Y-121446629D01*
X349300818Y-121044677D01*
X349700551Y-120645643D01*
X349934733Y-120081670D01*
X349935265Y-119471009D01*
X349702068Y-118906629D01*
X349300818Y-118504677D01*
X349700551Y-118105643D01*
X349934733Y-117541670D01*
X349935265Y-116931009D01*
X349702068Y-116366629D01*
X349300818Y-115964677D01*
X349700551Y-115565643D01*
X349934733Y-115001670D01*
X349935265Y-114391009D01*
X349702068Y-113826629D01*
X349270643Y-113394449D01*
X349249806Y-113385797D01*
X349300554Y-113235159D01*
X348400000Y-112334605D01*
X347499446Y-113235159D01*
X347550035Y-113385327D01*
X347531629Y-113392932D01*
X347129677Y-113794182D01*
X346730643Y-113394449D01*
X346709806Y-113385797D01*
X346760554Y-113235159D01*
X345860000Y-112334605D01*
X344959446Y-113235159D01*
X345010035Y-113385327D01*
X344991629Y-113392932D01*
X344559449Y-113824357D01*
X344325267Y-114388330D01*
X344324735Y-114998991D01*
X301674735Y-114998991D01*
X301675265Y-114391009D01*
X301442068Y-113826629D01*
X301040818Y-113424677D01*
X301440551Y-113025643D01*
X301674733Y-112461670D01*
X301675209Y-111914336D01*
X344313542Y-111914336D01*
X344339161Y-112524460D01*
X344523357Y-112969148D01*
X344779841Y-113055554D01*
X345680395Y-112155000D01*
X346039605Y-112155000D01*
X346940159Y-113055554D01*
X347130000Y-112991599D01*
X347319841Y-113055554D01*
X348220395Y-112155000D01*
X348579605Y-112155000D01*
X349480159Y-113055554D01*
X349736643Y-112969148D01*
X349946458Y-112395664D01*
X349920839Y-111785540D01*
X349736643Y-111340852D01*
X349480159Y-111254446D01*
X348579605Y-112155000D01*
X348220395Y-112155000D01*
X347319841Y-111254446D01*
X347130000Y-111318401D01*
X346940159Y-111254446D01*
X346039605Y-112155000D01*
X345680395Y-112155000D01*
X344779841Y-111254446D01*
X344523357Y-111340852D01*
X344313542Y-111914336D01*
X301675209Y-111914336D01*
X301675265Y-111851009D01*
X301442068Y-111286629D01*
X301040818Y-110884677D01*
X301230667Y-110695159D01*
X344959446Y-110695159D01*
X345023401Y-110885000D01*
X344959446Y-111074841D01*
X345860000Y-111975395D01*
X346760554Y-111074841D01*
X346696599Y-110885000D01*
X346760554Y-110695159D01*
X347499446Y-110695159D01*
X347563401Y-110885000D01*
X347499446Y-111074841D01*
X348400000Y-111975395D01*
X349300554Y-111074841D01*
X349236599Y-110885000D01*
X349300554Y-110695159D01*
X348400000Y-109794605D01*
X347499446Y-110695159D01*
X346760554Y-110695159D01*
X345860000Y-109794605D01*
X344959446Y-110695159D01*
X301230667Y-110695159D01*
X301440551Y-110485643D01*
X301674733Y-109921670D01*
X301675209Y-109374336D01*
X344313542Y-109374336D01*
X344339161Y-109984460D01*
X344523357Y-110429148D01*
X344779841Y-110515554D01*
X345680395Y-109615000D01*
X346039605Y-109615000D01*
X346940159Y-110515554D01*
X347130000Y-110451599D01*
X347319841Y-110515554D01*
X348220395Y-109615000D01*
X348579605Y-109615000D01*
X349480159Y-110515554D01*
X349736643Y-110429148D01*
X349946458Y-109855664D01*
X349920839Y-109245540D01*
X349736643Y-108800852D01*
X349480159Y-108714446D01*
X348579605Y-109615000D01*
X348220395Y-109615000D01*
X347319841Y-108714446D01*
X347130000Y-108778401D01*
X346940159Y-108714446D01*
X346039605Y-109615000D01*
X345680395Y-109615000D01*
X344779841Y-108714446D01*
X344523357Y-108800852D01*
X344313542Y-109374336D01*
X301675209Y-109374336D01*
X301675265Y-109311009D01*
X301442068Y-108746629D01*
X301230650Y-108534841D01*
X344959446Y-108534841D01*
X345860000Y-109435395D01*
X346760554Y-108534841D01*
X347499446Y-108534841D01*
X348400000Y-109435395D01*
X349300554Y-108534841D01*
X349214148Y-108278357D01*
X348640664Y-108068542D01*
X348030540Y-108094161D01*
X347585852Y-108278357D01*
X347499446Y-108534841D01*
X346760554Y-108534841D01*
X346674148Y-108278357D01*
X346100664Y-108068542D01*
X345490540Y-108094161D01*
X345045852Y-108278357D01*
X344959446Y-108534841D01*
X301230650Y-108534841D01*
X301010643Y-108314449D01*
X300446670Y-108080267D01*
X299836009Y-108079735D01*
X299271629Y-108312932D01*
X298869677Y-108714182D01*
X298470643Y-108314449D01*
X297906670Y-108080267D01*
X297296009Y-108079735D01*
X296731629Y-108312932D01*
X296299449Y-108744357D01*
X296065267Y-109308330D01*
X296064735Y-109918991D01*
X276955812Y-109918991D01*
X276827823Y-109609234D01*
X276542267Y-109323179D01*
X276168980Y-109168176D01*
X275764790Y-109167824D01*
X275391232Y-109322175D01*
X275105177Y-109607731D01*
X274950174Y-109981018D01*
X274949822Y-110385208D01*
X45127000Y-110385208D01*
X45127000Y-107591208D01*
X61843824Y-107591208D01*
X61998175Y-107964766D01*
X62283731Y-108250821D01*
X62657018Y-108405824D01*
X63061208Y-108406176D01*
X63434766Y-108251825D01*
X63720821Y-107966269D01*
X63875824Y-107592982D01*
X63876176Y-107188792D01*
X63721825Y-106815234D01*
X63482218Y-106575208D01*
X70733824Y-106575208D01*
X70888175Y-106948766D01*
X71173731Y-107234821D01*
X71547018Y-107389824D01*
X71951208Y-107390176D01*
X72324766Y-107235825D01*
X72610821Y-106950269D01*
X72765824Y-106576982D01*
X72765825Y-106575208D01*
X92831824Y-106575208D01*
X92986175Y-106948766D01*
X93271731Y-107234821D01*
X93645018Y-107389824D01*
X94049208Y-107390176D01*
X94422766Y-107235825D01*
X94708821Y-106950269D01*
X94863824Y-106576982D01*
X94863825Y-106575208D01*
X125597824Y-106575208D01*
X125752175Y-106948766D01*
X126037731Y-107234821D01*
X126411018Y-107389824D01*
X126815208Y-107390176D01*
X127188766Y-107235825D01*
X127474821Y-106950269D01*
X127629824Y-106576982D01*
X127630176Y-106172792D01*
X127475825Y-105799234D01*
X127236218Y-105559208D01*
X141091824Y-105559208D01*
X141246175Y-105932766D01*
X141531731Y-106218821D01*
X141905018Y-106373824D01*
X142309208Y-106374176D01*
X142682766Y-106219825D01*
X142742854Y-106159841D01*
X142801731Y-106218821D01*
X143175018Y-106373824D01*
X143579208Y-106374176D01*
X143707400Y-106321208D01*
X147441824Y-106321208D01*
X147596175Y-106694766D01*
X147881731Y-106980821D01*
X148255018Y-107135824D01*
X148659208Y-107136176D01*
X148787400Y-107083208D01*
X191637824Y-107083208D01*
X191792175Y-107456766D01*
X192077731Y-107742821D01*
X192451018Y-107897824D01*
X192855208Y-107898176D01*
X193228766Y-107743825D01*
X193514821Y-107458269D01*
X193669824Y-107084982D01*
X193669825Y-107083208D01*
X235833824Y-107083208D01*
X235988175Y-107456766D01*
X236273731Y-107742821D01*
X236647018Y-107897824D01*
X237051208Y-107898176D01*
X237179381Y-107845216D01*
X268853824Y-107845216D01*
X269008175Y-108218774D01*
X269293731Y-108504829D01*
X269667018Y-108659832D01*
X270071208Y-108660184D01*
X270444766Y-108505833D01*
X270730821Y-108220277D01*
X270885824Y-107846990D01*
X270886176Y-107442800D01*
X270731825Y-107069242D01*
X270446269Y-106783187D01*
X270072982Y-106628184D01*
X269668792Y-106627832D01*
X269295234Y-106782183D01*
X269009179Y-107067739D01*
X268854176Y-107441026D01*
X268853824Y-107845216D01*
X237179381Y-107845216D01*
X237424766Y-107743825D01*
X237710821Y-107458269D01*
X237865824Y-107084982D01*
X237866046Y-106829208D01*
X261995824Y-106829208D01*
X262150175Y-107202766D01*
X262435731Y-107488821D01*
X262809018Y-107643824D01*
X263213208Y-107644176D01*
X263586766Y-107489825D01*
X263872821Y-107204269D01*
X264027824Y-106830982D01*
X264028046Y-106575208D01*
X274695824Y-106575208D01*
X274850175Y-106948766D01*
X275135731Y-107234821D01*
X275509018Y-107389824D01*
X275913208Y-107390176D01*
X276286766Y-107235825D01*
X276572821Y-106950269D01*
X276623090Y-106829208D01*
X286887824Y-106829208D01*
X287042175Y-107202766D01*
X287327731Y-107488821D01*
X287701018Y-107643824D01*
X288105208Y-107644176D01*
X288478766Y-107489825D01*
X288764821Y-107204269D01*
X288919824Y-106830982D01*
X288920176Y-106426792D01*
X288765825Y-106053234D01*
X288480269Y-105767179D01*
X288106982Y-105612176D01*
X287702792Y-105611824D01*
X287329234Y-105766175D01*
X287043179Y-106051731D01*
X286888176Y-106425018D01*
X286887824Y-106829208D01*
X276623090Y-106829208D01*
X276727824Y-106576982D01*
X276728176Y-106172792D01*
X276573825Y-105799234D01*
X276288269Y-105513179D01*
X275914982Y-105358176D01*
X275510792Y-105357824D01*
X275137234Y-105512175D01*
X274851179Y-105797731D01*
X274696176Y-106171018D01*
X274695824Y-106575208D01*
X264028046Y-106575208D01*
X264028176Y-106426792D01*
X263873825Y-106053234D01*
X263588269Y-105767179D01*
X263214982Y-105612176D01*
X262810792Y-105611824D01*
X262437234Y-105766175D01*
X262151179Y-106051731D01*
X261996176Y-106425018D01*
X261995824Y-106829208D01*
X237866046Y-106829208D01*
X237866176Y-106680792D01*
X237711825Y-106307234D01*
X237426269Y-106021179D01*
X237052982Y-105866176D01*
X236648792Y-105865824D01*
X236275234Y-106020175D01*
X235989179Y-106305731D01*
X235834176Y-106679018D01*
X235833824Y-107083208D01*
X193669825Y-107083208D01*
X193670176Y-106680792D01*
X193515825Y-106307234D01*
X193230269Y-106021179D01*
X192856982Y-105866176D01*
X192452792Y-105865824D01*
X192079234Y-106020175D01*
X191793179Y-106305731D01*
X191638176Y-106679018D01*
X191637824Y-107083208D01*
X148787400Y-107083208D01*
X149032766Y-106981825D01*
X149318821Y-106696269D01*
X149473824Y-106322982D01*
X149474176Y-105918792D01*
X149319825Y-105545234D01*
X149034269Y-105259179D01*
X148683374Y-105113474D01*
X299123494Y-105113474D01*
X299567253Y-106187452D01*
X300388226Y-107009860D01*
X301461428Y-107455492D01*
X302623474Y-107456506D01*
X303697452Y-107012747D01*
X304519860Y-106191774D01*
X304965492Y-105118572D01*
X304965496Y-105113474D01*
X341033494Y-105113474D01*
X341477253Y-106187452D01*
X342298226Y-107009860D01*
X343371428Y-107455492D01*
X344533474Y-107456506D01*
X345607452Y-107012747D01*
X346429860Y-106191774D01*
X346875492Y-105118572D01*
X346876506Y-103956526D01*
X346432747Y-102882548D01*
X345611774Y-102060140D01*
X344538572Y-101614508D01*
X343376526Y-101613494D01*
X342302548Y-102057253D01*
X341480140Y-102878226D01*
X341034508Y-103951428D01*
X341033494Y-105113474D01*
X304965496Y-105113474D01*
X304966506Y-103956526D01*
X304522747Y-102882548D01*
X303701774Y-102060140D01*
X302628572Y-101614508D01*
X301466526Y-101613494D01*
X300392548Y-102057253D01*
X299570140Y-102878226D01*
X299124508Y-103951428D01*
X299123494Y-105113474D01*
X148683374Y-105113474D01*
X148660982Y-105104176D01*
X148256792Y-105103824D01*
X147883234Y-105258175D01*
X147597179Y-105543731D01*
X147442176Y-105917018D01*
X147441824Y-106321208D01*
X143707400Y-106321208D01*
X143952766Y-106219825D01*
X144238821Y-105934269D01*
X144393824Y-105560982D01*
X144394176Y-105156792D01*
X144239825Y-104783234D01*
X143954269Y-104497179D01*
X143580982Y-104342176D01*
X143176792Y-104341824D01*
X142803234Y-104496175D01*
X142743146Y-104556159D01*
X142684269Y-104497179D01*
X142310982Y-104342176D01*
X141906792Y-104341824D01*
X141533234Y-104496175D01*
X141247179Y-104781731D01*
X141092176Y-105155018D01*
X141091824Y-105559208D01*
X127236218Y-105559208D01*
X127190269Y-105513179D01*
X126816982Y-105358176D01*
X126412792Y-105357824D01*
X126039234Y-105512175D01*
X125753179Y-105797731D01*
X125598176Y-106171018D01*
X125597824Y-106575208D01*
X94863825Y-106575208D01*
X94864176Y-106172792D01*
X94709825Y-105799234D01*
X94424269Y-105513179D01*
X94050982Y-105358176D01*
X93646792Y-105357824D01*
X93273234Y-105512175D01*
X92987179Y-105797731D01*
X92832176Y-106171018D01*
X92831824Y-106575208D01*
X72765825Y-106575208D01*
X72766176Y-106172792D01*
X72611825Y-105799234D01*
X72326269Y-105513179D01*
X71952982Y-105358176D01*
X71548792Y-105357824D01*
X71175234Y-105512175D01*
X70889179Y-105797731D01*
X70734176Y-106171018D01*
X70733824Y-106575208D01*
X63482218Y-106575208D01*
X63436269Y-106529179D01*
X63062982Y-106374176D01*
X62658792Y-106373824D01*
X62285234Y-106528175D01*
X61999179Y-106813731D01*
X61844176Y-107187018D01*
X61843824Y-107591208D01*
X45127000Y-107591208D01*
X45127000Y-101241208D01*
X280029824Y-101241208D01*
X280184175Y-101614766D01*
X280469731Y-101900821D01*
X280843018Y-102055824D01*
X281045999Y-102056001D01*
X281045824Y-102257208D01*
X281200175Y-102630766D01*
X281485731Y-102916821D01*
X281859018Y-103071824D01*
X282061999Y-103072001D01*
X282061824Y-103273208D01*
X282216175Y-103646766D01*
X282501731Y-103932821D01*
X282875018Y-104087824D01*
X283279208Y-104088176D01*
X283652766Y-103933825D01*
X283938821Y-103648269D01*
X284093824Y-103274982D01*
X284094176Y-102870792D01*
X283939825Y-102497234D01*
X283654269Y-102211179D01*
X283280982Y-102056176D01*
X283078001Y-102055999D01*
X283078176Y-101854792D01*
X282923825Y-101481234D01*
X282638269Y-101195179D01*
X282264982Y-101040176D01*
X282062001Y-101039999D01*
X282062176Y-100838792D01*
X281907825Y-100465234D01*
X281622269Y-100179179D01*
X281248982Y-100024176D01*
X280844792Y-100023824D01*
X280471234Y-100178175D01*
X280185179Y-100463731D01*
X280030176Y-100837018D01*
X280029824Y-101241208D01*
X45127000Y-101241208D01*
X45127000Y-98701208D01*
X249549824Y-98701208D01*
X249704175Y-99074766D01*
X249989731Y-99360821D01*
X250363018Y-99515824D01*
X250767208Y-99516176D01*
X251140766Y-99361825D01*
X251426821Y-99076269D01*
X251581824Y-98702982D01*
X251582176Y-98298792D01*
X251427825Y-97925234D01*
X251142269Y-97639179D01*
X250768982Y-97484176D01*
X250364792Y-97483824D01*
X249991234Y-97638175D01*
X249705179Y-97923731D01*
X249550176Y-98297018D01*
X249549824Y-98701208D01*
X45127000Y-98701208D01*
X45127000Y-94891208D01*
X249549824Y-94891208D01*
X249704175Y-95264766D01*
X249989731Y-95550821D01*
X250363018Y-95705824D01*
X250767208Y-95706176D01*
X251140766Y-95551825D01*
X251426821Y-95266269D01*
X251581824Y-94892982D01*
X251582176Y-94488792D01*
X251427825Y-94115234D01*
X251142269Y-93829179D01*
X250768982Y-93674176D01*
X250364792Y-93673824D01*
X249991234Y-93828175D01*
X249705179Y-94113731D01*
X249550176Y-94487018D01*
X249549824Y-94891208D01*
X45127000Y-94891208D01*
X45127000Y-91081208D01*
X138043824Y-91081208D01*
X138198175Y-91454766D01*
X138483731Y-91740821D01*
X138857018Y-91895824D01*
X139261208Y-91896176D01*
X139634766Y-91741825D01*
X139920821Y-91456269D01*
X140075824Y-91082982D01*
X140076176Y-90678792D01*
X139921825Y-90305234D01*
X139636269Y-90019179D01*
X139262982Y-89864176D01*
X138858792Y-89863824D01*
X138485234Y-90018175D01*
X138199179Y-90303731D01*
X138044176Y-90677018D01*
X138043824Y-91081208D01*
X45127000Y-91081208D01*
X45127000Y-88541208D01*
X135249824Y-88541208D01*
X135404175Y-88914766D01*
X135689731Y-89200821D01*
X136063018Y-89355824D01*
X136467208Y-89356176D01*
X136840766Y-89201825D01*
X137126821Y-88916269D01*
X137281824Y-88542982D01*
X137281825Y-88541208D01*
X146679824Y-88541208D01*
X146834175Y-88914766D01*
X147119731Y-89200821D01*
X147493018Y-89355824D01*
X147897208Y-89356176D01*
X148270766Y-89201825D01*
X148556821Y-88916269D01*
X148711824Y-88542982D01*
X148712176Y-88138792D01*
X148557825Y-87765234D01*
X148272269Y-87479179D01*
X147898982Y-87324176D01*
X147494792Y-87323824D01*
X147121234Y-87478175D01*
X146835179Y-87763731D01*
X146680176Y-88137018D01*
X146679824Y-88541208D01*
X137281825Y-88541208D01*
X137282176Y-88138792D01*
X137127825Y-87765234D01*
X136842269Y-87479179D01*
X136468982Y-87324176D01*
X136064792Y-87323824D01*
X135691234Y-87478175D01*
X135405179Y-87763731D01*
X135250176Y-88137018D01*
X135249824Y-88541208D01*
X45127000Y-88541208D01*
X45127000Y-85493208D01*
X136265824Y-85493208D01*
X136420175Y-85866766D01*
X136705731Y-86152821D01*
X137079018Y-86307824D01*
X137483208Y-86308176D01*
X137856766Y-86153825D01*
X138142821Y-85868269D01*
X138297824Y-85494982D01*
X138298046Y-85239208D01*
X277997820Y-85239208D01*
X278152171Y-85612766D01*
X278339156Y-85800078D01*
X278153179Y-85985731D01*
X277998176Y-86359018D01*
X277997824Y-86763208D01*
X278152175Y-87136766D01*
X278339158Y-87324076D01*
X278153179Y-87509731D01*
X277998176Y-87883018D01*
X277997824Y-88287208D01*
X278152175Y-88660766D01*
X278437731Y-88946821D01*
X278505299Y-88974878D01*
X278439234Y-89002175D01*
X278153179Y-89287731D01*
X277998176Y-89661018D01*
X277997824Y-90065208D01*
X278152175Y-90438766D01*
X278339160Y-90626078D01*
X278153179Y-90811735D01*
X277998176Y-91185022D01*
X277997824Y-91589212D01*
X278152175Y-91962770D01*
X278437731Y-92248825D01*
X278811018Y-92403828D01*
X279215208Y-92404180D01*
X279588766Y-92249829D01*
X279874821Y-91964273D01*
X280029824Y-91590986D01*
X280030176Y-91186796D01*
X279875825Y-90813238D01*
X279688840Y-90625926D01*
X279874821Y-90440269D01*
X280029824Y-90066982D01*
X280030176Y-89662792D01*
X279875825Y-89289234D01*
X279590269Y-89003179D01*
X279522701Y-88975122D01*
X279588766Y-88947825D01*
X279874821Y-88662269D01*
X280029824Y-88288982D01*
X280030176Y-87884792D01*
X279875825Y-87511234D01*
X279688842Y-87323924D01*
X279874821Y-87138269D01*
X280029824Y-86764982D01*
X280030176Y-86360792D01*
X279875825Y-85987234D01*
X279688840Y-85799922D01*
X279874817Y-85614269D01*
X280029820Y-85240982D01*
X280029821Y-85239208D01*
X288919824Y-85239208D01*
X289074175Y-85612766D01*
X289359731Y-85898821D01*
X289733018Y-86053824D01*
X290137208Y-86054176D01*
X290510766Y-85899825D01*
X290796821Y-85614269D01*
X290951824Y-85240982D01*
X290952176Y-84836792D01*
X290797825Y-84463234D01*
X290512269Y-84177179D01*
X290138982Y-84022176D01*
X289734792Y-84021824D01*
X289361234Y-84176175D01*
X289075179Y-84461731D01*
X288920176Y-84835018D01*
X288919824Y-85239208D01*
X280029821Y-85239208D01*
X280030172Y-84836792D01*
X279875821Y-84463234D01*
X279590265Y-84177179D01*
X279216978Y-84022176D01*
X278812788Y-84021824D01*
X278439230Y-84176175D01*
X278153175Y-84461731D01*
X277998172Y-84835018D01*
X277997820Y-85239208D01*
X138298046Y-85239208D01*
X138298176Y-85090792D01*
X138143825Y-84717234D01*
X137858269Y-84431179D01*
X137484982Y-84276176D01*
X137080792Y-84275824D01*
X136707234Y-84430175D01*
X136421179Y-84715731D01*
X136266176Y-85089018D01*
X136265824Y-85493208D01*
X45127000Y-85493208D01*
X45127000Y-84223208D01*
X141091824Y-84223208D01*
X141246175Y-84596766D01*
X141531731Y-84882821D01*
X141905018Y-85037824D01*
X142309208Y-85038176D01*
X142682766Y-84883825D01*
X142742854Y-84823841D01*
X142801731Y-84882821D01*
X143175018Y-85037824D01*
X143579208Y-85038176D01*
X143952766Y-84883825D01*
X144238821Y-84598269D01*
X144393824Y-84224982D01*
X144394176Y-83820792D01*
X144239825Y-83447234D01*
X143954269Y-83161179D01*
X143580982Y-83006176D01*
X143176792Y-83005824D01*
X142803234Y-83160175D01*
X142743146Y-83220159D01*
X142684269Y-83161179D01*
X142310982Y-83006176D01*
X141906792Y-83005824D01*
X141533234Y-83160175D01*
X141247179Y-83445731D01*
X141092176Y-83819018D01*
X141091824Y-84223208D01*
X45127000Y-84223208D01*
X45127000Y-82953208D01*
X280283824Y-82953208D01*
X280438175Y-83326766D01*
X280723731Y-83612821D01*
X281097018Y-83767824D01*
X281501208Y-83768176D01*
X281874766Y-83613825D01*
X282160821Y-83328269D01*
X282315824Y-82954982D01*
X282316176Y-82550792D01*
X282161825Y-82177234D01*
X281876269Y-81891179D01*
X281502982Y-81736176D01*
X281098792Y-81735824D01*
X280725234Y-81890175D01*
X280439179Y-82175731D01*
X280284176Y-82549018D01*
X280283824Y-82953208D01*
X45127000Y-82953208D01*
X45127000Y-77619208D01*
X61843824Y-77619208D01*
X61998175Y-77992766D01*
X62283731Y-78278821D01*
X62657018Y-78433824D01*
X63061208Y-78434176D01*
X63434766Y-78279825D01*
X63720821Y-77994269D01*
X63875824Y-77620982D01*
X63876176Y-77216792D01*
X63832550Y-77111208D01*
X70987824Y-77111208D01*
X71142175Y-77484766D01*
X71427731Y-77770821D01*
X71801018Y-77925824D01*
X72205208Y-77926176D01*
X72578766Y-77771825D01*
X72864821Y-77486269D01*
X73019824Y-77112982D01*
X73020176Y-76708792D01*
X72871599Y-76349208D01*
X92831824Y-76349208D01*
X92986175Y-76722766D01*
X93271731Y-77008821D01*
X93645018Y-77163824D01*
X94049208Y-77164176D01*
X94422766Y-77009825D01*
X94708821Y-76724269D01*
X94863824Y-76350982D01*
X94863825Y-76349208D01*
X125597824Y-76349208D01*
X125752175Y-76722766D01*
X126037731Y-77008821D01*
X126411018Y-77163824D01*
X126815208Y-77164176D01*
X127188766Y-77009825D01*
X127474821Y-76724269D01*
X127525090Y-76603208D01*
X147695824Y-76603208D01*
X147850175Y-76976766D01*
X148135731Y-77262821D01*
X148509018Y-77417824D01*
X148913208Y-77418176D01*
X149286766Y-77263825D01*
X149572821Y-76978269D01*
X149623090Y-76857208D01*
X191891824Y-76857208D01*
X192046175Y-77230766D01*
X192331731Y-77516821D01*
X192705018Y-77671824D01*
X193109208Y-77672176D01*
X193482766Y-77517825D01*
X193768821Y-77232269D01*
X193819090Y-77111208D01*
X236087824Y-77111208D01*
X236242175Y-77484766D01*
X236527731Y-77770821D01*
X236901018Y-77925824D01*
X237305208Y-77926176D01*
X237678766Y-77771825D01*
X237831649Y-77619208D01*
X259963824Y-77619208D01*
X260118175Y-77992766D01*
X260403731Y-78278821D01*
X260777018Y-78433824D01*
X261181208Y-78434176D01*
X261554766Y-78279825D01*
X261840821Y-77994269D01*
X261995824Y-77620982D01*
X261996176Y-77216792D01*
X261841825Y-76843234D01*
X261556269Y-76557179D01*
X261182982Y-76402176D01*
X260778792Y-76401824D01*
X260405234Y-76556175D01*
X260119179Y-76841731D01*
X259964176Y-77215018D01*
X259963824Y-77619208D01*
X237831649Y-77619208D01*
X237964821Y-77486269D01*
X238119824Y-77112982D01*
X238120176Y-76708792D01*
X237965825Y-76335234D01*
X237680269Y-76049179D01*
X237306982Y-75894176D01*
X236902792Y-75893824D01*
X236529234Y-76048175D01*
X236243179Y-76333731D01*
X236088176Y-76707018D01*
X236087824Y-77111208D01*
X193819090Y-77111208D01*
X193923824Y-76858982D01*
X193924176Y-76454792D01*
X193769825Y-76081234D01*
X193484269Y-75795179D01*
X193110982Y-75640176D01*
X192706792Y-75639824D01*
X192333234Y-75794175D01*
X192047179Y-76079731D01*
X191892176Y-76453018D01*
X191891824Y-76857208D01*
X149623090Y-76857208D01*
X149727824Y-76604982D01*
X149728176Y-76200792D01*
X149573825Y-75827234D01*
X149288269Y-75541179D01*
X148914982Y-75386176D01*
X148510792Y-75385824D01*
X148137234Y-75540175D01*
X147851179Y-75825731D01*
X147696176Y-76199018D01*
X147695824Y-76603208D01*
X127525090Y-76603208D01*
X127629824Y-76350982D01*
X127630176Y-75946792D01*
X127475825Y-75573234D01*
X127236218Y-75333208D01*
X141091824Y-75333208D01*
X141246175Y-75706766D01*
X141531731Y-75992821D01*
X141905018Y-76147824D01*
X142309208Y-76148176D01*
X142682766Y-75993825D01*
X142742854Y-75933841D01*
X142801731Y-75992821D01*
X143175018Y-76147824D01*
X143579208Y-76148176D01*
X143952766Y-75993825D01*
X144238821Y-75708269D01*
X144393824Y-75334982D01*
X144394176Y-74930792D01*
X144239825Y-74557234D01*
X143954269Y-74271179D01*
X143580982Y-74116176D01*
X143176792Y-74115824D01*
X142803234Y-74270175D01*
X142743146Y-74330159D01*
X142684269Y-74271179D01*
X142310982Y-74116176D01*
X141906792Y-74115824D01*
X141533234Y-74270175D01*
X141247179Y-74555731D01*
X141092176Y-74929018D01*
X141091824Y-75333208D01*
X127236218Y-75333208D01*
X127190269Y-75287179D01*
X126816982Y-75132176D01*
X126412792Y-75131824D01*
X126039234Y-75286175D01*
X125753179Y-75571731D01*
X125598176Y-75945018D01*
X125597824Y-76349208D01*
X94863825Y-76349208D01*
X94864176Y-75946792D01*
X94709825Y-75573234D01*
X94424269Y-75287179D01*
X94050982Y-75132176D01*
X93646792Y-75131824D01*
X93273234Y-75286175D01*
X92987179Y-75571731D01*
X92832176Y-75945018D01*
X92831824Y-76349208D01*
X72871599Y-76349208D01*
X72865825Y-76335234D01*
X72580269Y-76049179D01*
X72206982Y-75894176D01*
X71802792Y-75893824D01*
X71429234Y-76048175D01*
X71143179Y-76333731D01*
X70988176Y-76707018D01*
X70987824Y-77111208D01*
X63832550Y-77111208D01*
X63721825Y-76843234D01*
X63436269Y-76557179D01*
X63062982Y-76402176D01*
X62658792Y-76401824D01*
X62285234Y-76556175D01*
X61999179Y-76841731D01*
X61844176Y-77215018D01*
X61843824Y-77619208D01*
X45127000Y-77619208D01*
X45127000Y-68475208D01*
X135249820Y-68475208D01*
X135404171Y-68848766D01*
X135689727Y-69134821D01*
X136063014Y-69289824D01*
X136467204Y-69290176D01*
X136840762Y-69135825D01*
X137126817Y-68850269D01*
X137281820Y-68476982D01*
X137281821Y-68475208D01*
X146679824Y-68475208D01*
X146834175Y-68848766D01*
X147119731Y-69134821D01*
X147493018Y-69289824D01*
X147897208Y-69290176D01*
X148270766Y-69135825D01*
X148556821Y-68850269D01*
X148711824Y-68476982D01*
X148712176Y-68072792D01*
X148557825Y-67699234D01*
X148272269Y-67413179D01*
X147898982Y-67258176D01*
X147494792Y-67257824D01*
X147121234Y-67412175D01*
X146835179Y-67697731D01*
X146680176Y-68071018D01*
X146679824Y-68475208D01*
X137281821Y-68475208D01*
X137282172Y-68072792D01*
X137127821Y-67699234D01*
X136842265Y-67413179D01*
X136468978Y-67258176D01*
X136064788Y-67257824D01*
X135691230Y-67412175D01*
X135405175Y-67697731D01*
X135250172Y-68071018D01*
X135249820Y-68475208D01*
X45127000Y-68475208D01*
X45127000Y-65681212D01*
X136265824Y-65681212D01*
X136420175Y-66054770D01*
X136705731Y-66340825D01*
X137079018Y-66495828D01*
X137483208Y-66496180D01*
X137856766Y-66341829D01*
X138142821Y-66056273D01*
X138297824Y-65682986D01*
X138298176Y-65278796D01*
X138143825Y-64905238D01*
X137858269Y-64619183D01*
X137484982Y-64464180D01*
X137080792Y-64463828D01*
X136707234Y-64618179D01*
X136421179Y-64903735D01*
X136266176Y-65277022D01*
X136265824Y-65681212D01*
X45127000Y-65681212D01*
X45127000Y-57299208D01*
X61081824Y-57299208D01*
X61236175Y-57672766D01*
X61521731Y-57958821D01*
X61895018Y-58113824D01*
X62299208Y-58114176D01*
X62672766Y-57959825D01*
X62958821Y-57674269D01*
X63113824Y-57300982D01*
X63113825Y-57299208D01*
X72257824Y-57299208D01*
X72412175Y-57672766D01*
X72697731Y-57958821D01*
X73071018Y-58113824D01*
X73475208Y-58114176D01*
X73848766Y-57959825D01*
X74134821Y-57674269D01*
X74289824Y-57300982D01*
X74290176Y-56896792D01*
X74141599Y-56537208D01*
X92831824Y-56537208D01*
X92986175Y-56910766D01*
X93271731Y-57196821D01*
X93645018Y-57351824D01*
X94049208Y-57352176D01*
X94422766Y-57197825D01*
X94708821Y-56912269D01*
X94863824Y-56538982D01*
X94864046Y-56283208D01*
X125851824Y-56283208D01*
X126006175Y-56656766D01*
X126291731Y-56942821D01*
X126665018Y-57097824D01*
X127069208Y-57098176D01*
X127442766Y-56943825D01*
X127728821Y-56658269D01*
X127779090Y-56537208D01*
X145663824Y-56537208D01*
X145818175Y-56910766D01*
X146103731Y-57196821D01*
X146477018Y-57351824D01*
X146881208Y-57352176D01*
X147009400Y-57299208D01*
X148965824Y-57299208D01*
X149120175Y-57672766D01*
X149405731Y-57958821D01*
X149779018Y-58113824D01*
X150183208Y-58114176D01*
X150556766Y-57959825D01*
X150842821Y-57674269D01*
X150997824Y-57300982D01*
X150997825Y-57299208D01*
X192907824Y-57299208D01*
X193062175Y-57672766D01*
X193347731Y-57958821D01*
X193721018Y-58113824D01*
X194125208Y-58114176D01*
X194498766Y-57959825D01*
X194784821Y-57674269D01*
X194939824Y-57300982D01*
X194939825Y-57299208D01*
X237103824Y-57299208D01*
X237258175Y-57672766D01*
X237543731Y-57958821D01*
X237917018Y-58113824D01*
X238321208Y-58114176D01*
X238694766Y-57959825D01*
X238980821Y-57674269D01*
X239135824Y-57300982D01*
X239135825Y-57299208D01*
X259201824Y-57299208D01*
X259356175Y-57672766D01*
X259641731Y-57958821D01*
X260015018Y-58113824D01*
X260419208Y-58114176D01*
X260792766Y-57959825D01*
X261078821Y-57674269D01*
X261233824Y-57300982D01*
X261234176Y-56896792D01*
X261079825Y-56523234D01*
X260794269Y-56237179D01*
X260420982Y-56082176D01*
X260016792Y-56081824D01*
X259643234Y-56236175D01*
X259357179Y-56521731D01*
X259202176Y-56895018D01*
X259201824Y-57299208D01*
X239135825Y-57299208D01*
X239136176Y-56896792D01*
X238981825Y-56523234D01*
X238696269Y-56237179D01*
X238322982Y-56082176D01*
X237918792Y-56081824D01*
X237545234Y-56236175D01*
X237259179Y-56521731D01*
X237104176Y-56895018D01*
X237103824Y-57299208D01*
X194939825Y-57299208D01*
X194940176Y-56896792D01*
X194785825Y-56523234D01*
X194500269Y-56237179D01*
X194126982Y-56082176D01*
X193722792Y-56081824D01*
X193349234Y-56236175D01*
X193063179Y-56521731D01*
X192908176Y-56895018D01*
X192907824Y-57299208D01*
X150997825Y-57299208D01*
X150998176Y-56896792D01*
X150843825Y-56523234D01*
X150558269Y-56237179D01*
X150184982Y-56082176D01*
X149780792Y-56081824D01*
X149407234Y-56236175D01*
X149121179Y-56521731D01*
X148966176Y-56895018D01*
X148965824Y-57299208D01*
X147009400Y-57299208D01*
X147254766Y-57197825D01*
X147540821Y-56912269D01*
X147695824Y-56538982D01*
X147696176Y-56134792D01*
X147541825Y-55761234D01*
X147256269Y-55475179D01*
X146882982Y-55320176D01*
X146478792Y-55319824D01*
X146105234Y-55474175D01*
X145819179Y-55759731D01*
X145664176Y-56133018D01*
X145663824Y-56537208D01*
X127779090Y-56537208D01*
X127883824Y-56284982D01*
X127884176Y-55880792D01*
X127729825Y-55507234D01*
X127444269Y-55221179D01*
X127070982Y-55066176D01*
X126666792Y-55065824D01*
X126293234Y-55220175D01*
X126007179Y-55505731D01*
X125852176Y-55879018D01*
X125851824Y-56283208D01*
X94864046Y-56283208D01*
X94864176Y-56134792D01*
X94709825Y-55761234D01*
X94424269Y-55475179D01*
X94050982Y-55320176D01*
X93646792Y-55319824D01*
X93273234Y-55474175D01*
X92987179Y-55759731D01*
X92832176Y-56133018D01*
X92831824Y-56537208D01*
X74141599Y-56537208D01*
X74135825Y-56523234D01*
X73850269Y-56237179D01*
X73476982Y-56082176D01*
X73072792Y-56081824D01*
X72699234Y-56236175D01*
X72413179Y-56521731D01*
X72258176Y-56895018D01*
X72257824Y-57299208D01*
X63113825Y-57299208D01*
X63114176Y-56896792D01*
X62959825Y-56523234D01*
X62674269Y-56237179D01*
X62300982Y-56082176D01*
X61896792Y-56081824D01*
X61523234Y-56236175D01*
X61237179Y-56521731D01*
X61082176Y-56895018D01*
X61081824Y-57299208D01*
X45127000Y-57299208D01*
X45127000Y-45127000D01*
X354873000Y-45127000D01*
X354873000Y-174873000D01*
X354873000Y-174873000D01*
G37*
X354873000Y-174873000D02*
X332127000Y-174873000D01*
X332127000Y-171153474D01*
X344208494Y-171153474D01*
X344652253Y-172227452D01*
X345473226Y-173049860D01*
X346546428Y-173495492D01*
X347708474Y-173496506D01*
X348782452Y-173052747D01*
X349604860Y-172231774D01*
X350050492Y-171158572D01*
X350051506Y-169996526D01*
X349607747Y-168922548D01*
X348786774Y-168100140D01*
X347713572Y-167654508D01*
X346551526Y-167653494D01*
X345477548Y-168097253D01*
X344655140Y-168918226D01*
X344209508Y-169991428D01*
X344208494Y-171153474D01*
X332127000Y-171153474D01*
X332127000Y-165254336D01*
X344313542Y-165254336D01*
X344339161Y-165864460D01*
X344523357Y-166309148D01*
X344779841Y-166395554D01*
X345680395Y-165495000D01*
X344779841Y-164594446D01*
X344523357Y-164680852D01*
X344313542Y-165254336D01*
X332127000Y-165254336D01*
X332127000Y-162000000D01*
X332116994Y-161950590D01*
X332088553Y-161908965D01*
X332046159Y-161881685D01*
X332000000Y-161873000D01*
X309000000Y-161873000D01*
X308950590Y-161883006D01*
X308908965Y-161911447D01*
X308881685Y-161953841D01*
X308873000Y-162000000D01*
X308873000Y-204873000D01*
X45127000Y-204873000D01*
X45127000Y-195475208D01*
X136265824Y-195475208D01*
X136420175Y-195848766D01*
X136705731Y-196134821D01*
X137079018Y-196289824D01*
X137483208Y-196290176D01*
X137856766Y-196135825D01*
X138142821Y-195850269D01*
X138297824Y-195476982D01*
X138298176Y-195072792D01*
X138143825Y-194699234D01*
X137858269Y-194413179D01*
X137484982Y-194258176D01*
X137080792Y-194257824D01*
X136707234Y-194412175D01*
X136421179Y-194697731D01*
X136266176Y-195071018D01*
X136265824Y-195475208D01*
X45127000Y-195475208D01*
X45127000Y-194205198D01*
X141091824Y-194205198D01*
X141246175Y-194578756D01*
X141531731Y-194864811D01*
X141905018Y-195019814D01*
X142309208Y-195020166D01*
X142682766Y-194865815D01*
X142742849Y-194805836D01*
X142801731Y-194864821D01*
X143175018Y-195019824D01*
X143579208Y-195020176D01*
X143952766Y-194865825D01*
X144238821Y-194580269D01*
X144393824Y-194206982D01*
X144394176Y-193802792D01*
X144239825Y-193429234D01*
X143954269Y-193143179D01*
X143580982Y-192988176D01*
X143176792Y-192987824D01*
X142803234Y-193142175D01*
X142743151Y-193202154D01*
X142684269Y-193143169D01*
X142310982Y-192988166D01*
X141906792Y-192987814D01*
X141533234Y-193142165D01*
X141247179Y-193427721D01*
X141092176Y-193801008D01*
X141091824Y-194205198D01*
X45127000Y-194205198D01*
X45127000Y-187347208D01*
X61843824Y-187347208D01*
X61998175Y-187720766D01*
X62283731Y-188006821D01*
X62657018Y-188161824D01*
X63061208Y-188162176D01*
X63434766Y-188007825D01*
X63720821Y-187722269D01*
X63875824Y-187348982D01*
X63875825Y-187347208D01*
X70733824Y-187347208D01*
X70888175Y-187720766D01*
X71173731Y-188006821D01*
X71547018Y-188161824D01*
X71951208Y-188162176D01*
X72324766Y-188007825D01*
X72610821Y-187722269D01*
X72765824Y-187348982D01*
X72766176Y-186944792D01*
X72722550Y-186839208D01*
X92577824Y-186839208D01*
X92732175Y-187212766D01*
X93017731Y-187498821D01*
X93391018Y-187653824D01*
X93795208Y-187654176D01*
X94168766Y-187499825D01*
X94454821Y-187214269D01*
X94609824Y-186840982D01*
X94610046Y-186585208D01*
X125343824Y-186585208D01*
X125498175Y-186958766D01*
X125783731Y-187244821D01*
X126157018Y-187399824D01*
X126561208Y-187400176D01*
X126934766Y-187245825D01*
X127087649Y-187093208D01*
X147949824Y-187093208D01*
X148104175Y-187466766D01*
X148389731Y-187752821D01*
X148763018Y-187907824D01*
X149167208Y-187908176D01*
X149540766Y-187753825D01*
X149826821Y-187468269D01*
X149981824Y-187094982D01*
X149981825Y-187093208D01*
X191637824Y-187093208D01*
X191792175Y-187466766D01*
X192077731Y-187752821D01*
X192451018Y-187907824D01*
X192855208Y-187908176D01*
X193228766Y-187753825D01*
X193514821Y-187468269D01*
X193669824Y-187094982D01*
X193669825Y-187093208D01*
X235833824Y-187093208D01*
X235988175Y-187466766D01*
X236273731Y-187752821D01*
X236647018Y-187907824D01*
X237051208Y-187908176D01*
X237179400Y-187855208D01*
X259963824Y-187855208D01*
X260118175Y-188228766D01*
X260403731Y-188514821D01*
X260777018Y-188669824D01*
X261181208Y-188670176D01*
X261554766Y-188515825D01*
X261840821Y-188230269D01*
X261995824Y-187856982D01*
X261996176Y-187452792D01*
X261841825Y-187079234D01*
X261556269Y-186793179D01*
X261182982Y-186638176D01*
X260778792Y-186637824D01*
X260405234Y-186792175D01*
X260119179Y-187077731D01*
X259964176Y-187451018D01*
X259963824Y-187855208D01*
X237179400Y-187855208D01*
X237424766Y-187753825D01*
X237710821Y-187468269D01*
X237865824Y-187094982D01*
X237866176Y-186690792D01*
X237711825Y-186317234D01*
X237426269Y-186031179D01*
X237052982Y-185876176D01*
X236648792Y-185875824D01*
X236275234Y-186030175D01*
X235989179Y-186315731D01*
X235834176Y-186689018D01*
X235833824Y-187093208D01*
X193669825Y-187093208D01*
X193670176Y-186690792D01*
X193515825Y-186317234D01*
X193230269Y-186031179D01*
X192856982Y-185876176D01*
X192452792Y-185875824D01*
X192079234Y-186030175D01*
X191793179Y-186315731D01*
X191638176Y-186689018D01*
X191637824Y-187093208D01*
X149981825Y-187093208D01*
X149982176Y-186690792D01*
X149827825Y-186317234D01*
X149542269Y-186031179D01*
X149168982Y-185876176D01*
X148764792Y-185875824D01*
X148391234Y-186030175D01*
X148105179Y-186315731D01*
X147950176Y-186689018D01*
X147949824Y-187093208D01*
X127087649Y-187093208D01*
X127220821Y-186960269D01*
X127375824Y-186586982D01*
X127376176Y-186182792D01*
X127221825Y-185809234D01*
X126982218Y-185569208D01*
X141091824Y-185569208D01*
X141246175Y-185942766D01*
X141531731Y-186228821D01*
X141905018Y-186383824D01*
X142309208Y-186384176D01*
X142682766Y-186229825D01*
X142742854Y-186169841D01*
X142801731Y-186228821D01*
X143175018Y-186383824D01*
X143579208Y-186384176D01*
X143952766Y-186229825D01*
X144238821Y-185944269D01*
X144393824Y-185570982D01*
X144394176Y-185166792D01*
X144239825Y-184793234D01*
X143954269Y-184507179D01*
X143580982Y-184352176D01*
X143176792Y-184351824D01*
X142803234Y-184506175D01*
X142743146Y-184566159D01*
X142684269Y-184507179D01*
X142310982Y-184352176D01*
X141906792Y-184351824D01*
X141533234Y-184506175D01*
X141247179Y-184791731D01*
X141092176Y-185165018D01*
X141091824Y-185569208D01*
X126982218Y-185569208D01*
X126936269Y-185523179D01*
X126562982Y-185368176D01*
X126158792Y-185367824D01*
X125785234Y-185522175D01*
X125499179Y-185807731D01*
X125344176Y-186181018D01*
X125343824Y-186585208D01*
X94610046Y-186585208D01*
X94610176Y-186436792D01*
X94455825Y-186063234D01*
X94170269Y-185777179D01*
X93796982Y-185622176D01*
X93392792Y-185621824D01*
X93019234Y-185776175D01*
X92733179Y-186061731D01*
X92578176Y-186435018D01*
X92577824Y-186839208D01*
X72722550Y-186839208D01*
X72611825Y-186571234D01*
X72326269Y-186285179D01*
X71952982Y-186130176D01*
X71548792Y-186129824D01*
X71175234Y-186284175D01*
X70889179Y-186569731D01*
X70734176Y-186943018D01*
X70733824Y-187347208D01*
X63875825Y-187347208D01*
X63876176Y-186944792D01*
X63721825Y-186571234D01*
X63436269Y-186285179D01*
X63062982Y-186130176D01*
X62658792Y-186129824D01*
X62285234Y-186284175D01*
X61999179Y-186569731D01*
X61844176Y-186943018D01*
X61843824Y-187347208D01*
X45127000Y-187347208D01*
X45127000Y-171153474D01*
X295948494Y-171153474D01*
X296392253Y-172227452D01*
X297213226Y-173049860D01*
X298286428Y-173495492D01*
X299448474Y-173496506D01*
X300522452Y-173052747D01*
X301344860Y-172231774D01*
X301790492Y-171158572D01*
X301791506Y-169996526D01*
X301347747Y-168922548D01*
X300526774Y-168100140D01*
X299453572Y-167654508D01*
X298291526Y-167653494D01*
X297217548Y-168097253D01*
X296395140Y-168918226D01*
X295949508Y-169991428D01*
X295948494Y-171153474D01*
X45127000Y-171153474D01*
X45127000Y-165254336D01*
X296053542Y-165254336D01*
X296079161Y-165864460D01*
X296263357Y-166309148D01*
X296519841Y-166395554D01*
X297420395Y-165495000D01*
X296519841Y-164594446D01*
X296263357Y-164680852D01*
X296053542Y-165254336D01*
X45127000Y-165254336D01*
X45127000Y-158137208D01*
X135249824Y-158137208D01*
X135404175Y-158510766D01*
X135689731Y-158796821D01*
X136063018Y-158951824D01*
X136467208Y-158952176D01*
X136840766Y-158797825D01*
X137126821Y-158512269D01*
X137281824Y-158138982D01*
X137281825Y-158137208D01*
X146679824Y-158137208D01*
X146834175Y-158510766D01*
X147119731Y-158796821D01*
X147493018Y-158951824D01*
X147897208Y-158952176D01*
X148270766Y-158797825D01*
X148556821Y-158512269D01*
X148711824Y-158138982D01*
X148712176Y-157734792D01*
X148557825Y-157361234D01*
X148272269Y-157075179D01*
X147898982Y-156920176D01*
X147494792Y-156919824D01*
X147121234Y-157074175D01*
X146835179Y-157359731D01*
X146680176Y-157733018D01*
X146679824Y-158137208D01*
X137281825Y-158137208D01*
X137282176Y-157734792D01*
X137127825Y-157361234D01*
X136842269Y-157075179D01*
X136468982Y-156920176D01*
X136064792Y-156919824D01*
X135691234Y-157074175D01*
X135405179Y-157359731D01*
X135250176Y-157733018D01*
X135249824Y-158137208D01*
X45127000Y-158137208D01*
X45127000Y-155597208D01*
X136519824Y-155597208D01*
X136674175Y-155970766D01*
X136959731Y-156256821D01*
X137333018Y-156411824D01*
X137737208Y-156412176D01*
X138110766Y-156257825D01*
X138396821Y-155972269D01*
X138551824Y-155598982D01*
X138552176Y-155194792D01*
X138397825Y-154821234D01*
X138158194Y-154581184D01*
X141091824Y-154581184D01*
X141246175Y-154954742D01*
X141531731Y-155240797D01*
X141905018Y-155395800D01*
X142309208Y-155396152D01*
X142682766Y-155241801D01*
X142742842Y-155181829D01*
X142801731Y-155240821D01*
X143175018Y-155395824D01*
X143579208Y-155396176D01*
X143952766Y-155241825D01*
X143993453Y-155201208D01*
X285983824Y-155201208D01*
X286138175Y-155574766D01*
X286423731Y-155860821D01*
X286797018Y-156015824D01*
X287201208Y-156016176D01*
X287574766Y-155861825D01*
X287860821Y-155576269D01*
X288015824Y-155202982D01*
X288016176Y-154798792D01*
X287861825Y-154425234D01*
X287576269Y-154139179D01*
X287202982Y-153984176D01*
X286798792Y-153983824D01*
X286425234Y-154138175D01*
X286139179Y-154423731D01*
X285984176Y-154797018D01*
X285983824Y-155201208D01*
X143993453Y-155201208D01*
X144238821Y-154956269D01*
X144393824Y-154582982D01*
X144394176Y-154178792D01*
X144239825Y-153805234D01*
X143954269Y-153519179D01*
X143580982Y-153364176D01*
X143176792Y-153363824D01*
X142803234Y-153518175D01*
X142743158Y-153578147D01*
X142684269Y-153519155D01*
X142310982Y-153364152D01*
X141906792Y-153363800D01*
X141533234Y-153518151D01*
X141247179Y-153803707D01*
X141092176Y-154176994D01*
X141091824Y-154581184D01*
X138158194Y-154581184D01*
X138112269Y-154535179D01*
X137738982Y-154380176D01*
X137334792Y-154379824D01*
X136961234Y-154534175D01*
X136675179Y-154819731D01*
X136520176Y-155193018D01*
X136519824Y-155597208D01*
X45127000Y-155597208D01*
X45127000Y-147723208D01*
X60573824Y-147723208D01*
X60728175Y-148096766D01*
X61013731Y-148382821D01*
X61387018Y-148537824D01*
X61791208Y-148538176D01*
X62164766Y-148383825D01*
X62450821Y-148098269D01*
X62605824Y-147724982D01*
X62605825Y-147723208D01*
X70987824Y-147723208D01*
X71142175Y-148096766D01*
X71427731Y-148382821D01*
X71801018Y-148537824D01*
X72205208Y-148538176D01*
X72578766Y-148383825D01*
X72731649Y-148231208D01*
X260979824Y-148231208D01*
X261134175Y-148604766D01*
X261419731Y-148890821D01*
X261793018Y-149045824D01*
X262197208Y-149046176D01*
X262570766Y-148891825D01*
X262856821Y-148606269D01*
X263011824Y-148232982D01*
X263012176Y-147828792D01*
X262857825Y-147455234D01*
X262572269Y-147169179D01*
X262198982Y-147014176D01*
X261794792Y-147013824D01*
X261421234Y-147168175D01*
X261135179Y-147453731D01*
X260980176Y-147827018D01*
X260979824Y-148231208D01*
X72731649Y-148231208D01*
X72864821Y-148098269D01*
X73019824Y-147724982D01*
X73020176Y-147320792D01*
X72865825Y-146947234D01*
X72580269Y-146661179D01*
X72206982Y-146506176D01*
X71802792Y-146505824D01*
X71429234Y-146660175D01*
X71143179Y-146945731D01*
X70988176Y-147319018D01*
X70987824Y-147723208D01*
X62605825Y-147723208D01*
X62606176Y-147320792D01*
X62451825Y-146947234D01*
X62166269Y-146661179D01*
X61792982Y-146506176D01*
X61388792Y-146505824D01*
X61015234Y-146660175D01*
X60729179Y-146945731D01*
X60574176Y-147319018D01*
X60573824Y-147723208D01*
X45127000Y-147723208D01*
X45127000Y-146199208D01*
X92577824Y-146199208D01*
X92732175Y-146572766D01*
X93017731Y-146858821D01*
X93391018Y-147013824D01*
X93795208Y-147014176D01*
X94168766Y-146859825D01*
X94321649Y-146707208D01*
X125597824Y-146707208D01*
X125752175Y-147080766D01*
X126037731Y-147366821D01*
X126411018Y-147521824D01*
X126815208Y-147522176D01*
X127188766Y-147367825D01*
X127341649Y-147215208D01*
X147695824Y-147215208D01*
X147850175Y-147588766D01*
X148135731Y-147874821D01*
X148509018Y-148029824D01*
X148913208Y-148030176D01*
X149286766Y-147875825D01*
X149572821Y-147590269D01*
X149727824Y-147216982D01*
X149727825Y-147215208D01*
X191891824Y-147215208D01*
X192046175Y-147588766D01*
X192331731Y-147874821D01*
X192705018Y-148029824D01*
X193109208Y-148030176D01*
X193482766Y-147875825D01*
X193768821Y-147590269D01*
X193923824Y-147216982D01*
X193924046Y-146961208D01*
X235579824Y-146961208D01*
X235734175Y-147334766D01*
X236019731Y-147620821D01*
X236393018Y-147775824D01*
X236797208Y-147776176D01*
X237170766Y-147621825D01*
X237456821Y-147336269D01*
X237611824Y-146962982D01*
X237612176Y-146558792D01*
X237457825Y-146185234D01*
X237172269Y-145899179D01*
X236798982Y-145744176D01*
X236394792Y-145743824D01*
X236021234Y-145898175D01*
X235735179Y-146183731D01*
X235580176Y-146557018D01*
X235579824Y-146961208D01*
X193924046Y-146961208D01*
X193924176Y-146812792D01*
X193769825Y-146439234D01*
X193484269Y-146153179D01*
X193110982Y-145998176D01*
X192706792Y-145997824D01*
X192333234Y-146152175D01*
X192047179Y-146437731D01*
X191892176Y-146811018D01*
X191891824Y-147215208D01*
X149727825Y-147215208D01*
X149728176Y-146812792D01*
X149573825Y-146439234D01*
X149288269Y-146153179D01*
X148914982Y-145998176D01*
X148510792Y-145997824D01*
X148137234Y-146152175D01*
X147851179Y-146437731D01*
X147696176Y-146811018D01*
X147695824Y-147215208D01*
X127341649Y-147215208D01*
X127474821Y-147082269D01*
X127629824Y-146708982D01*
X127630176Y-146304792D01*
X127475825Y-145931234D01*
X127190269Y-145645179D01*
X126816982Y-145490176D01*
X126412792Y-145489824D01*
X126039234Y-145644175D01*
X125753179Y-145929731D01*
X125598176Y-146303018D01*
X125597824Y-146707208D01*
X94321649Y-146707208D01*
X94454821Y-146574269D01*
X94609824Y-146200982D01*
X94610176Y-145796792D01*
X94461601Y-145437212D01*
X141091824Y-145437212D01*
X141246175Y-145810770D01*
X141531731Y-146096825D01*
X141905018Y-146251828D01*
X142309208Y-146252180D01*
X142682766Y-146097829D01*
X142742856Y-146037843D01*
X142801731Y-146096821D01*
X143175018Y-146251824D01*
X143579208Y-146252176D01*
X143952766Y-146097825D01*
X144238821Y-145812269D01*
X144393824Y-145438982D01*
X144394176Y-145034792D01*
X144239825Y-144661234D01*
X143954269Y-144375179D01*
X143580982Y-144220176D01*
X143176792Y-144219824D01*
X142803234Y-144374175D01*
X142743144Y-144434161D01*
X142684269Y-144375183D01*
X142310982Y-144220180D01*
X141906792Y-144219828D01*
X141533234Y-144374179D01*
X141247179Y-144659735D01*
X141092176Y-145033022D01*
X141091824Y-145437212D01*
X94461601Y-145437212D01*
X94455825Y-145423234D01*
X94170269Y-145137179D01*
X93796982Y-144982176D01*
X93392792Y-144981824D01*
X93019234Y-145136175D01*
X92733179Y-145421731D01*
X92578176Y-145795018D01*
X92577824Y-146199208D01*
X45127000Y-146199208D01*
X45127000Y-118259208D01*
X135249824Y-118259208D01*
X135404175Y-118632766D01*
X135689731Y-118918821D01*
X136063018Y-119073824D01*
X136467208Y-119074176D01*
X136840766Y-118919825D01*
X137126821Y-118634269D01*
X137281824Y-118260982D01*
X137281825Y-118259208D01*
X146679824Y-118259208D01*
X146834175Y-118632766D01*
X147119731Y-118918821D01*
X147493018Y-119073824D01*
X147897208Y-119074176D01*
X148270766Y-118919825D01*
X148556821Y-118634269D01*
X148711824Y-118260982D01*
X148712176Y-117856792D01*
X148557825Y-117483234D01*
X148272269Y-117197179D01*
X147898982Y-117042176D01*
X147494792Y-117041824D01*
X147121234Y-117196175D01*
X146835179Y-117481731D01*
X146680176Y-117855018D01*
X146679824Y-118259208D01*
X137281825Y-118259208D01*
X137282176Y-117856792D01*
X137127825Y-117483234D01*
X136842269Y-117197179D01*
X136468982Y-117042176D01*
X136064792Y-117041824D01*
X135691234Y-117196175D01*
X135405179Y-117481731D01*
X135250176Y-117855018D01*
X135249824Y-118259208D01*
X45127000Y-118259208D01*
X45127000Y-116481208D01*
X287903824Y-116481208D01*
X288058175Y-116854766D01*
X288343731Y-117140821D01*
X288717018Y-117295824D01*
X289121208Y-117296176D01*
X289494766Y-117141825D01*
X289780821Y-116856269D01*
X289935824Y-116482982D01*
X289936176Y-116078792D01*
X289781825Y-115705234D01*
X289496269Y-115419179D01*
X289122982Y-115264176D01*
X288718792Y-115263824D01*
X288345234Y-115418175D01*
X288059179Y-115703731D01*
X287904176Y-116077018D01*
X287903824Y-116481208D01*
X45127000Y-116481208D01*
X45127000Y-115465208D01*
X136265824Y-115465208D01*
X136420175Y-115838766D01*
X136705731Y-116124821D01*
X137079018Y-116279824D01*
X137483208Y-116280176D01*
X137856766Y-116125825D01*
X138142821Y-115840269D01*
X138297824Y-115466982D01*
X138298176Y-115062792D01*
X138143825Y-114689234D01*
X137858269Y-114403179D01*
X137484982Y-114248176D01*
X137080792Y-114247824D01*
X136707234Y-114402175D01*
X136421179Y-114687731D01*
X136266176Y-115061018D01*
X136265824Y-115465208D01*
X45127000Y-115465208D01*
X45127000Y-114195170D01*
X141091824Y-114195170D01*
X141246175Y-114568728D01*
X141531731Y-114854783D01*
X141905018Y-115009786D01*
X142309208Y-115010138D01*
X142682766Y-114855787D01*
X142742835Y-114795822D01*
X142801731Y-114854821D01*
X143175018Y-115009824D01*
X143579208Y-115010176D01*
X143952766Y-114855825D01*
X144238821Y-114570269D01*
X144393824Y-114196982D01*
X144394176Y-113792792D01*
X144239825Y-113419234D01*
X143954269Y-113133179D01*
X143580982Y-112978176D01*
X143176792Y-112977824D01*
X142803234Y-113132175D01*
X142743165Y-113192140D01*
X142684269Y-113133141D01*
X142310982Y-112978138D01*
X141906792Y-112977786D01*
X141533234Y-113132137D01*
X141247179Y-113417693D01*
X141092176Y-113790980D01*
X141091824Y-114195170D01*
X45127000Y-114195170D01*
X45127000Y-110385208D01*
X274949822Y-110385208D01*
X275104173Y-110758766D01*
X275389729Y-111044821D01*
X275763016Y-111199824D01*
X276167206Y-111200176D01*
X276540764Y-111045825D01*
X276826819Y-110760269D01*
X276981822Y-110386982D01*
X276982174Y-109982792D01*
X276955812Y-109918991D01*
X296064735Y-109918991D01*
X296297932Y-110483371D01*
X296699182Y-110885323D01*
X296299449Y-111284357D01*
X296065267Y-111848330D01*
X296064735Y-112458991D01*
X296297932Y-113023371D01*
X296699182Y-113425323D01*
X296299449Y-113824357D01*
X296065267Y-114388330D01*
X296064735Y-114998991D01*
X296297932Y-115563371D01*
X296699182Y-115965323D01*
X296299449Y-116364357D01*
X296065267Y-116928330D01*
X296064735Y-117538991D01*
X296297932Y-118103371D01*
X296699182Y-118505323D01*
X296299449Y-118904357D01*
X296065267Y-119468330D01*
X296064735Y-120078991D01*
X296297932Y-120643371D01*
X296699182Y-121045323D01*
X296299449Y-121444357D01*
X296065267Y-122008330D01*
X296064735Y-122618991D01*
X296297932Y-123183371D01*
X296699182Y-123585323D01*
X296299449Y-123984357D01*
X296065267Y-124548330D01*
X296064735Y-125158991D01*
X296297932Y-125723371D01*
X296699182Y-126125323D01*
X296299449Y-126524357D01*
X296065267Y-127088330D01*
X296064735Y-127698991D01*
X296297932Y-128263371D01*
X296699182Y-128665323D01*
X296299449Y-129064357D01*
X296065267Y-129628330D01*
X296064735Y-130238991D01*
X296297932Y-130803371D01*
X296699182Y-131205323D01*
X296299449Y-131604357D01*
X296065267Y-132168330D01*
X296064735Y-132778991D01*
X296297932Y-133343371D01*
X296699182Y-133745323D01*
X296299449Y-134144357D01*
X296065267Y-134708330D01*
X296064735Y-135318991D01*
X296297932Y-135883371D01*
X296699182Y-136285323D01*
X296299449Y-136684357D01*
X296065267Y-137248330D01*
X296064735Y-137858991D01*
X296297932Y-138423371D01*
X296699182Y-138825323D01*
X296299449Y-139224357D01*
X296065267Y-139788330D01*
X296064735Y-140398991D01*
X296297932Y-140963371D01*
X296699182Y-141365323D01*
X296299449Y-141764357D01*
X296065267Y-142328330D01*
X296064735Y-142938991D01*
X296297932Y-143503371D01*
X296699182Y-143905323D01*
X296299449Y-144304357D01*
X296065267Y-144868330D01*
X296064735Y-145478991D01*
X296297932Y-146043371D01*
X296699182Y-146445323D01*
X296299449Y-146844357D01*
X296065267Y-147408330D01*
X296064735Y-148018991D01*
X296297932Y-148583371D01*
X296699182Y-148985323D01*
X296299449Y-149384357D01*
X296065267Y-149948330D01*
X296064735Y-150558991D01*
X296297932Y-151123371D01*
X296699182Y-151525323D01*
X296299449Y-151924357D01*
X296065267Y-152488330D01*
X296064735Y-153098991D01*
X296297932Y-153663371D01*
X296699182Y-154065323D01*
X296299449Y-154464357D01*
X296065267Y-155028330D01*
X296064735Y-155638991D01*
X296297932Y-156203371D01*
X296699182Y-156605323D01*
X296299449Y-157004357D01*
X296065267Y-157568330D01*
X296064735Y-158178991D01*
X296297932Y-158743371D01*
X296699182Y-159145323D01*
X296299449Y-159544357D01*
X296065267Y-160108330D01*
X296064735Y-160718991D01*
X296297932Y-161283371D01*
X296699182Y-161685323D01*
X296299449Y-162084357D01*
X296065267Y-162648330D01*
X296064735Y-163258991D01*
X296297932Y-163823371D01*
X296729357Y-164255551D01*
X296750194Y-164264203D01*
X296699446Y-164414841D01*
X297600000Y-165315395D01*
X297614143Y-165301253D01*
X297793748Y-165480858D01*
X297779605Y-165495000D01*
X297793748Y-165509143D01*
X297614143Y-165688748D01*
X297600000Y-165674605D01*
X296699446Y-166575159D01*
X296785852Y-166831643D01*
X297359336Y-167041458D01*
X297969460Y-167015839D01*
X298414148Y-166831643D01*
X298500553Y-166575161D01*
X298615110Y-166689718D01*
X298657287Y-166647541D01*
X298701673Y-166754698D01*
X298880301Y-166933327D01*
X299113690Y-167030000D01*
X299854250Y-167030000D01*
X300013000Y-166871250D01*
X300013000Y-165622000D01*
X300267000Y-165622000D01*
X300267000Y-166871250D01*
X300425750Y-167030000D01*
X301166310Y-167030000D01*
X301399699Y-166933327D01*
X301578327Y-166754698D01*
X301675000Y-166521309D01*
X301675000Y-165780750D01*
X301516250Y-165622000D01*
X300267000Y-165622000D01*
X300013000Y-165622000D01*
X299993000Y-165622000D01*
X299993000Y-165368000D01*
X300013000Y-165368000D01*
X300013000Y-165348000D01*
X300267000Y-165348000D01*
X300267000Y-165368000D01*
X301516250Y-165368000D01*
X301675000Y-165209250D01*
X301675000Y-164468691D01*
X301578327Y-164235302D01*
X301399699Y-164056673D01*
X301265006Y-164000881D01*
X301440551Y-163825643D01*
X301674733Y-163261670D01*
X301675265Y-162651009D01*
X301442068Y-162086629D01*
X301040818Y-161684677D01*
X301440551Y-161285643D01*
X301674733Y-160721670D01*
X301675265Y-160111009D01*
X301442068Y-159546629D01*
X301040818Y-159144677D01*
X301440551Y-158745643D01*
X301674733Y-158181670D01*
X301675265Y-157571009D01*
X301442068Y-157006629D01*
X301040818Y-156604677D01*
X301440551Y-156205643D01*
X301674733Y-155641670D01*
X301675265Y-155031009D01*
X301442068Y-154466629D01*
X301040818Y-154064677D01*
X301440551Y-153665643D01*
X301674733Y-153101670D01*
X301675265Y-152491009D01*
X301442068Y-151926629D01*
X301040818Y-151524677D01*
X301440551Y-151125643D01*
X301674733Y-150561670D01*
X301675265Y-149951009D01*
X301442068Y-149386629D01*
X301040818Y-148984677D01*
X301440551Y-148585643D01*
X301674733Y-148021670D01*
X301675265Y-147411009D01*
X301442068Y-146846629D01*
X301040818Y-146444677D01*
X301440551Y-146045643D01*
X301674733Y-145481670D01*
X301675265Y-144871009D01*
X301442068Y-144306629D01*
X301040818Y-143904677D01*
X301440551Y-143505643D01*
X301674733Y-142941670D01*
X301675265Y-142331009D01*
X301442068Y-141766629D01*
X301040818Y-141364677D01*
X301440551Y-140965643D01*
X301674733Y-140401670D01*
X301675265Y-139791009D01*
X301442068Y-139226629D01*
X301040818Y-138824677D01*
X301440551Y-138425643D01*
X301674733Y-137861670D01*
X301675265Y-137251009D01*
X301442068Y-136686629D01*
X301040818Y-136284677D01*
X301440551Y-135885643D01*
X301674733Y-135321670D01*
X301675265Y-134711009D01*
X301442068Y-134146629D01*
X301040818Y-133744677D01*
X301440551Y-133345643D01*
X301674733Y-132781670D01*
X301675265Y-132171009D01*
X301442068Y-131606629D01*
X301040818Y-131204677D01*
X301440551Y-130805643D01*
X301674733Y-130241670D01*
X301675265Y-129631009D01*
X301442068Y-129066629D01*
X301040818Y-128664677D01*
X301440551Y-128265643D01*
X301674733Y-127701670D01*
X301675265Y-127091009D01*
X301442068Y-126526629D01*
X301040818Y-126124677D01*
X301440551Y-125725643D01*
X301674733Y-125161670D01*
X301675265Y-124551009D01*
X301442068Y-123986629D01*
X301040818Y-123584677D01*
X301440551Y-123185643D01*
X301674733Y-122621670D01*
X301675265Y-122011009D01*
X301442068Y-121446629D01*
X301040818Y-121044677D01*
X301440551Y-120645643D01*
X301674733Y-120081670D01*
X301675265Y-119471009D01*
X301442068Y-118906629D01*
X301040818Y-118504677D01*
X301440551Y-118105643D01*
X301674733Y-117541670D01*
X301675265Y-116931009D01*
X301442068Y-116366629D01*
X301040818Y-115964677D01*
X301440551Y-115565643D01*
X301674733Y-115001670D01*
X301674735Y-114998991D01*
X344324735Y-114998991D01*
X344557932Y-115563371D01*
X344959182Y-115965323D01*
X344559449Y-116364357D01*
X344325267Y-116928330D01*
X344324735Y-117538991D01*
X344557932Y-118103371D01*
X344959182Y-118505323D01*
X344559449Y-118904357D01*
X344325267Y-119468330D01*
X344324735Y-120078991D01*
X344557932Y-120643371D01*
X344959182Y-121045323D01*
X344559449Y-121444357D01*
X344325267Y-122008330D01*
X344324735Y-122618991D01*
X344557932Y-123183371D01*
X344959182Y-123585323D01*
X344559449Y-123984357D01*
X344325267Y-124548330D01*
X344324735Y-125158991D01*
X344557932Y-125723371D01*
X344959182Y-126125323D01*
X344559449Y-126524357D01*
X344325267Y-127088330D01*
X344324735Y-127698991D01*
X344557932Y-128263371D01*
X344959182Y-128665323D01*
X344559449Y-129064357D01*
X344325267Y-129628330D01*
X344324735Y-130238991D01*
X344557932Y-130803371D01*
X344959182Y-131205323D01*
X344559449Y-131604357D01*
X344325267Y-132168330D01*
X344324735Y-132778991D01*
X344557932Y-133343371D01*
X344959182Y-133745323D01*
X344559449Y-134144357D01*
X344325267Y-134708330D01*
X344324735Y-135318991D01*
X344557932Y-135883371D01*
X344959182Y-136285323D01*
X344559449Y-136684357D01*
X344325267Y-137248330D01*
X344324735Y-137858991D01*
X344557932Y-138423371D01*
X344959182Y-138825323D01*
X344559449Y-139224357D01*
X344325267Y-139788330D01*
X344324735Y-140398991D01*
X344557932Y-140963371D01*
X344959182Y-141365323D01*
X344559449Y-141764357D01*
X344325267Y-142328330D01*
X344324735Y-142938991D01*
X344557932Y-143503371D01*
X344959182Y-143905323D01*
X344559449Y-144304357D01*
X344325267Y-144868330D01*
X344324735Y-145478991D01*
X344557932Y-146043371D01*
X344959182Y-146445323D01*
X344559449Y-146844357D01*
X344325267Y-147408330D01*
X344324735Y-148018991D01*
X344557932Y-148583371D01*
X344959182Y-148985323D01*
X344559449Y-149384357D01*
X344325267Y-149948330D01*
X344324735Y-150558991D01*
X344557932Y-151123371D01*
X344959182Y-151525323D01*
X344559449Y-151924357D01*
X344325267Y-152488330D01*
X344324735Y-153098991D01*
X344557932Y-153663371D01*
X344959182Y-154065323D01*
X344559449Y-154464357D01*
X344325267Y-155028330D01*
X344324735Y-155638991D01*
X344557932Y-156203371D01*
X344959182Y-156605323D01*
X344559449Y-157004357D01*
X344325267Y-157568330D01*
X344324735Y-158178991D01*
X344557932Y-158743371D01*
X344959182Y-159145323D01*
X344559449Y-159544357D01*
X344325267Y-160108330D01*
X344324735Y-160718991D01*
X344557932Y-161283371D01*
X344959182Y-161685323D01*
X344559449Y-162084357D01*
X344325267Y-162648330D01*
X344324735Y-163258991D01*
X344557932Y-163823371D01*
X344989357Y-164255551D01*
X345010194Y-164264203D01*
X344959446Y-164414841D01*
X345860000Y-165315395D01*
X345874143Y-165301253D01*
X346053748Y-165480858D01*
X346039605Y-165495000D01*
X346053748Y-165509143D01*
X345874143Y-165688748D01*
X345860000Y-165674605D01*
X344959446Y-166575159D01*
X345045852Y-166831643D01*
X345619336Y-167041458D01*
X346229460Y-167015839D01*
X346674148Y-166831643D01*
X346760553Y-166575161D01*
X346875110Y-166689718D01*
X346917287Y-166647541D01*
X346961673Y-166754698D01*
X347140301Y-166933327D01*
X347373690Y-167030000D01*
X348114250Y-167030000D01*
X348273000Y-166871250D01*
X348273000Y-165622000D01*
X348527000Y-165622000D01*
X348527000Y-166871250D01*
X348685750Y-167030000D01*
X349426310Y-167030000D01*
X349659699Y-166933327D01*
X349838327Y-166754698D01*
X349935000Y-166521309D01*
X349935000Y-165780750D01*
X349776250Y-165622000D01*
X348527000Y-165622000D01*
X348273000Y-165622000D01*
X348253000Y-165622000D01*
X348253000Y-165368000D01*
X348273000Y-165368000D01*
X348273000Y-165348000D01*
X348527000Y-165348000D01*
X348527000Y-165368000D01*
X349776250Y-165368000D01*
X349935000Y-165209250D01*
X349935000Y-164468691D01*
X349838327Y-164235302D01*
X349659699Y-164056673D01*
X349525006Y-164000881D01*
X349700551Y-163825643D01*
X349934733Y-163261670D01*
X349935265Y-162651009D01*
X349702068Y-162086629D01*
X349300818Y-161684677D01*
X349700551Y-161285643D01*
X349934733Y-160721670D01*
X349935265Y-160111009D01*
X349702068Y-159546629D01*
X349300818Y-159144677D01*
X349700551Y-158745643D01*
X349934733Y-158181670D01*
X349935265Y-157571009D01*
X349702068Y-157006629D01*
X349300818Y-156604677D01*
X349700551Y-156205643D01*
X349934733Y-155641670D01*
X349935265Y-155031009D01*
X349702068Y-154466629D01*
X349300818Y-154064677D01*
X349700551Y-153665643D01*
X349934733Y-153101670D01*
X349935265Y-152491009D01*
X349702068Y-151926629D01*
X349300818Y-151524677D01*
X349700551Y-151125643D01*
X349934733Y-150561670D01*
X349935265Y-149951009D01*
X349702068Y-149386629D01*
X349300818Y-148984677D01*
X349700551Y-148585643D01*
X349934733Y-148021670D01*
X349935265Y-147411009D01*
X349702068Y-146846629D01*
X349300818Y-146444677D01*
X349700551Y-146045643D01*
X349934733Y-145481670D01*
X349935265Y-144871009D01*
X349702068Y-144306629D01*
X349300818Y-143904677D01*
X349700551Y-143505643D01*
X349934733Y-142941670D01*
X349935265Y-142331009D01*
X349702068Y-141766629D01*
X349300818Y-141364677D01*
X349700551Y-140965643D01*
X349934733Y-140401670D01*
X349935265Y-139791009D01*
X349702068Y-139226629D01*
X349300818Y-138824677D01*
X349700551Y-138425643D01*
X349934733Y-137861670D01*
X349935265Y-137251009D01*
X349702068Y-136686629D01*
X349300818Y-136284677D01*
X349700551Y-135885643D01*
X349934733Y-135321670D01*
X349935265Y-134711009D01*
X349702068Y-134146629D01*
X349300818Y-133744677D01*
X349700551Y-133345643D01*
X349934733Y-132781670D01*
X349935265Y-132171009D01*
X349702068Y-131606629D01*
X349300818Y-131204677D01*
X349700551Y-130805643D01*
X349934733Y-130241670D01*
X349935265Y-129631009D01*
X349702068Y-129066629D01*
X349300818Y-128664677D01*
X349700551Y-128265643D01*
X349934733Y-127701670D01*
X349935265Y-127091009D01*
X349702068Y-126526629D01*
X349300818Y-126124677D01*
X349700551Y-125725643D01*
X349934733Y-125161670D01*
X349935265Y-124551009D01*
X349702068Y-123986629D01*
X349300818Y-123584677D01*
X349700551Y-123185643D01*
X349934733Y-122621670D01*
X349935265Y-122011009D01*
X349702068Y-121446629D01*
X349300818Y-121044677D01*
X349700551Y-120645643D01*
X349934733Y-120081670D01*
X349935265Y-119471009D01*
X349702068Y-118906629D01*
X349300818Y-118504677D01*
X349700551Y-118105643D01*
X349934733Y-117541670D01*
X349935265Y-116931009D01*
X349702068Y-116366629D01*
X349300818Y-115964677D01*
X349700551Y-115565643D01*
X349934733Y-115001670D01*
X349935265Y-114391009D01*
X349702068Y-113826629D01*
X349270643Y-113394449D01*
X349249806Y-113385797D01*
X349300554Y-113235159D01*
X348400000Y-112334605D01*
X347499446Y-113235159D01*
X347550035Y-113385327D01*
X347531629Y-113392932D01*
X347129677Y-113794182D01*
X346730643Y-113394449D01*
X346709806Y-113385797D01*
X346760554Y-113235159D01*
X345860000Y-112334605D01*
X344959446Y-113235159D01*
X345010035Y-113385327D01*
X344991629Y-113392932D01*
X344559449Y-113824357D01*
X344325267Y-114388330D01*
X344324735Y-114998991D01*
X301674735Y-114998991D01*
X301675265Y-114391009D01*
X301442068Y-113826629D01*
X301040818Y-113424677D01*
X301440551Y-113025643D01*
X301674733Y-112461670D01*
X301675209Y-111914336D01*
X344313542Y-111914336D01*
X344339161Y-112524460D01*
X344523357Y-112969148D01*
X344779841Y-113055554D01*
X345680395Y-112155000D01*
X346039605Y-112155000D01*
X346940159Y-113055554D01*
X347130000Y-112991599D01*
X347319841Y-113055554D01*
X348220395Y-112155000D01*
X348579605Y-112155000D01*
X349480159Y-113055554D01*
X349736643Y-112969148D01*
X349946458Y-112395664D01*
X349920839Y-111785540D01*
X349736643Y-111340852D01*
X349480159Y-111254446D01*
X348579605Y-112155000D01*
X348220395Y-112155000D01*
X347319841Y-111254446D01*
X347130000Y-111318401D01*
X346940159Y-111254446D01*
X346039605Y-112155000D01*
X345680395Y-112155000D01*
X344779841Y-111254446D01*
X344523357Y-111340852D01*
X344313542Y-111914336D01*
X301675209Y-111914336D01*
X301675265Y-111851009D01*
X301442068Y-111286629D01*
X301040818Y-110884677D01*
X301230667Y-110695159D01*
X344959446Y-110695159D01*
X345023401Y-110885000D01*
X344959446Y-111074841D01*
X345860000Y-111975395D01*
X346760554Y-111074841D01*
X346696599Y-110885000D01*
X346760554Y-110695159D01*
X347499446Y-110695159D01*
X347563401Y-110885000D01*
X347499446Y-111074841D01*
X348400000Y-111975395D01*
X349300554Y-111074841D01*
X349236599Y-110885000D01*
X349300554Y-110695159D01*
X348400000Y-109794605D01*
X347499446Y-110695159D01*
X346760554Y-110695159D01*
X345860000Y-109794605D01*
X344959446Y-110695159D01*
X301230667Y-110695159D01*
X301440551Y-110485643D01*
X301674733Y-109921670D01*
X301675209Y-109374336D01*
X344313542Y-109374336D01*
X344339161Y-109984460D01*
X344523357Y-110429148D01*
X344779841Y-110515554D01*
X345680395Y-109615000D01*
X346039605Y-109615000D01*
X346940159Y-110515554D01*
X347130000Y-110451599D01*
X347319841Y-110515554D01*
X348220395Y-109615000D01*
X348579605Y-109615000D01*
X349480159Y-110515554D01*
X349736643Y-110429148D01*
X349946458Y-109855664D01*
X349920839Y-109245540D01*
X349736643Y-108800852D01*
X349480159Y-108714446D01*
X348579605Y-109615000D01*
X348220395Y-109615000D01*
X347319841Y-108714446D01*
X347130000Y-108778401D01*
X346940159Y-108714446D01*
X346039605Y-109615000D01*
X345680395Y-109615000D01*
X344779841Y-108714446D01*
X344523357Y-108800852D01*
X344313542Y-109374336D01*
X301675209Y-109374336D01*
X301675265Y-109311009D01*
X301442068Y-108746629D01*
X301230650Y-108534841D01*
X344959446Y-108534841D01*
X345860000Y-109435395D01*
X346760554Y-108534841D01*
X347499446Y-108534841D01*
X348400000Y-109435395D01*
X349300554Y-108534841D01*
X349214148Y-108278357D01*
X348640664Y-108068542D01*
X348030540Y-108094161D01*
X347585852Y-108278357D01*
X347499446Y-108534841D01*
X346760554Y-108534841D01*
X346674148Y-108278357D01*
X346100664Y-108068542D01*
X345490540Y-108094161D01*
X345045852Y-108278357D01*
X344959446Y-108534841D01*
X301230650Y-108534841D01*
X301010643Y-108314449D01*
X300446670Y-108080267D01*
X299836009Y-108079735D01*
X299271629Y-108312932D01*
X298869677Y-108714182D01*
X298470643Y-108314449D01*
X297906670Y-108080267D01*
X297296009Y-108079735D01*
X296731629Y-108312932D01*
X296299449Y-108744357D01*
X296065267Y-109308330D01*
X296064735Y-109918991D01*
X276955812Y-109918991D01*
X276827823Y-109609234D01*
X276542267Y-109323179D01*
X276168980Y-109168176D01*
X275764790Y-109167824D01*
X275391232Y-109322175D01*
X275105177Y-109607731D01*
X274950174Y-109981018D01*
X274949822Y-110385208D01*
X45127000Y-110385208D01*
X45127000Y-107591208D01*
X61843824Y-107591208D01*
X61998175Y-107964766D01*
X62283731Y-108250821D01*
X62657018Y-108405824D01*
X63061208Y-108406176D01*
X63434766Y-108251825D01*
X63720821Y-107966269D01*
X63875824Y-107592982D01*
X63876176Y-107188792D01*
X63721825Y-106815234D01*
X63482218Y-106575208D01*
X70733824Y-106575208D01*
X70888175Y-106948766D01*
X71173731Y-107234821D01*
X71547018Y-107389824D01*
X71951208Y-107390176D01*
X72324766Y-107235825D01*
X72610821Y-106950269D01*
X72765824Y-106576982D01*
X72765825Y-106575208D01*
X92831824Y-106575208D01*
X92986175Y-106948766D01*
X93271731Y-107234821D01*
X93645018Y-107389824D01*
X94049208Y-107390176D01*
X94422766Y-107235825D01*
X94708821Y-106950269D01*
X94863824Y-106576982D01*
X94863825Y-106575208D01*
X125597824Y-106575208D01*
X125752175Y-106948766D01*
X126037731Y-107234821D01*
X126411018Y-107389824D01*
X126815208Y-107390176D01*
X127188766Y-107235825D01*
X127474821Y-106950269D01*
X127629824Y-106576982D01*
X127630176Y-106172792D01*
X127475825Y-105799234D01*
X127236218Y-105559208D01*
X141091824Y-105559208D01*
X141246175Y-105932766D01*
X141531731Y-106218821D01*
X141905018Y-106373824D01*
X142309208Y-106374176D01*
X142682766Y-106219825D01*
X142742854Y-106159841D01*
X142801731Y-106218821D01*
X143175018Y-106373824D01*
X143579208Y-106374176D01*
X143707400Y-106321208D01*
X147441824Y-106321208D01*
X147596175Y-106694766D01*
X147881731Y-106980821D01*
X148255018Y-107135824D01*
X148659208Y-107136176D01*
X148787400Y-107083208D01*
X191637824Y-107083208D01*
X191792175Y-107456766D01*
X192077731Y-107742821D01*
X192451018Y-107897824D01*
X192855208Y-107898176D01*
X193228766Y-107743825D01*
X193514821Y-107458269D01*
X193669824Y-107084982D01*
X193669825Y-107083208D01*
X235833824Y-107083208D01*
X235988175Y-107456766D01*
X236273731Y-107742821D01*
X236647018Y-107897824D01*
X237051208Y-107898176D01*
X237179381Y-107845216D01*
X268853824Y-107845216D01*
X269008175Y-108218774D01*
X269293731Y-108504829D01*
X269667018Y-108659832D01*
X270071208Y-108660184D01*
X270444766Y-108505833D01*
X270730821Y-108220277D01*
X270885824Y-107846990D01*
X270886176Y-107442800D01*
X270731825Y-107069242D01*
X270446269Y-106783187D01*
X270072982Y-106628184D01*
X269668792Y-106627832D01*
X269295234Y-106782183D01*
X269009179Y-107067739D01*
X268854176Y-107441026D01*
X268853824Y-107845216D01*
X237179381Y-107845216D01*
X237424766Y-107743825D01*
X237710821Y-107458269D01*
X237865824Y-107084982D01*
X237866046Y-106829208D01*
X261995824Y-106829208D01*
X262150175Y-107202766D01*
X262435731Y-107488821D01*
X262809018Y-107643824D01*
X263213208Y-107644176D01*
X263586766Y-107489825D01*
X263872821Y-107204269D01*
X264027824Y-106830982D01*
X264028046Y-106575208D01*
X274695824Y-106575208D01*
X274850175Y-106948766D01*
X275135731Y-107234821D01*
X275509018Y-107389824D01*
X275913208Y-107390176D01*
X276286766Y-107235825D01*
X276572821Y-106950269D01*
X276623090Y-106829208D01*
X286887824Y-106829208D01*
X287042175Y-107202766D01*
X287327731Y-107488821D01*
X287701018Y-107643824D01*
X288105208Y-107644176D01*
X288478766Y-107489825D01*
X288764821Y-107204269D01*
X288919824Y-106830982D01*
X288920176Y-106426792D01*
X288765825Y-106053234D01*
X288480269Y-105767179D01*
X288106982Y-105612176D01*
X287702792Y-105611824D01*
X287329234Y-105766175D01*
X287043179Y-106051731D01*
X286888176Y-106425018D01*
X286887824Y-106829208D01*
X276623090Y-106829208D01*
X276727824Y-106576982D01*
X276728176Y-106172792D01*
X276573825Y-105799234D01*
X276288269Y-105513179D01*
X275914982Y-105358176D01*
X275510792Y-105357824D01*
X275137234Y-105512175D01*
X274851179Y-105797731D01*
X274696176Y-106171018D01*
X274695824Y-106575208D01*
X264028046Y-106575208D01*
X264028176Y-106426792D01*
X263873825Y-106053234D01*
X263588269Y-105767179D01*
X263214982Y-105612176D01*
X262810792Y-105611824D01*
X262437234Y-105766175D01*
X262151179Y-106051731D01*
X261996176Y-106425018D01*
X261995824Y-106829208D01*
X237866046Y-106829208D01*
X237866176Y-106680792D01*
X237711825Y-106307234D01*
X237426269Y-106021179D01*
X237052982Y-105866176D01*
X236648792Y-105865824D01*
X236275234Y-106020175D01*
X235989179Y-106305731D01*
X235834176Y-106679018D01*
X235833824Y-107083208D01*
X193669825Y-107083208D01*
X193670176Y-106680792D01*
X193515825Y-106307234D01*
X193230269Y-106021179D01*
X192856982Y-105866176D01*
X192452792Y-105865824D01*
X192079234Y-106020175D01*
X191793179Y-106305731D01*
X191638176Y-106679018D01*
X191637824Y-107083208D01*
X148787400Y-107083208D01*
X149032766Y-106981825D01*
X149318821Y-106696269D01*
X149473824Y-106322982D01*
X149474176Y-105918792D01*
X149319825Y-105545234D01*
X149034269Y-105259179D01*
X148683374Y-105113474D01*
X299123494Y-105113474D01*
X299567253Y-106187452D01*
X300388226Y-107009860D01*
X301461428Y-107455492D01*
X302623474Y-107456506D01*
X303697452Y-107012747D01*
X304519860Y-106191774D01*
X304965492Y-105118572D01*
X304965496Y-105113474D01*
X341033494Y-105113474D01*
X341477253Y-106187452D01*
X342298226Y-107009860D01*
X343371428Y-107455492D01*
X344533474Y-107456506D01*
X345607452Y-107012747D01*
X346429860Y-106191774D01*
X346875492Y-105118572D01*
X346876506Y-103956526D01*
X346432747Y-102882548D01*
X345611774Y-102060140D01*
X344538572Y-101614508D01*
X343376526Y-101613494D01*
X342302548Y-102057253D01*
X341480140Y-102878226D01*
X341034508Y-103951428D01*
X341033494Y-105113474D01*
X304965496Y-105113474D01*
X304966506Y-103956526D01*
X304522747Y-102882548D01*
X303701774Y-102060140D01*
X302628572Y-101614508D01*
X301466526Y-101613494D01*
X300392548Y-102057253D01*
X299570140Y-102878226D01*
X299124508Y-103951428D01*
X299123494Y-105113474D01*
X148683374Y-105113474D01*
X148660982Y-105104176D01*
X148256792Y-105103824D01*
X147883234Y-105258175D01*
X147597179Y-105543731D01*
X147442176Y-105917018D01*
X147441824Y-106321208D01*
X143707400Y-106321208D01*
X143952766Y-106219825D01*
X144238821Y-105934269D01*
X144393824Y-105560982D01*
X144394176Y-105156792D01*
X144239825Y-104783234D01*
X143954269Y-104497179D01*
X143580982Y-104342176D01*
X143176792Y-104341824D01*
X142803234Y-104496175D01*
X142743146Y-104556159D01*
X142684269Y-104497179D01*
X142310982Y-104342176D01*
X141906792Y-104341824D01*
X141533234Y-104496175D01*
X141247179Y-104781731D01*
X141092176Y-105155018D01*
X141091824Y-105559208D01*
X127236218Y-105559208D01*
X127190269Y-105513179D01*
X126816982Y-105358176D01*
X126412792Y-105357824D01*
X126039234Y-105512175D01*
X125753179Y-105797731D01*
X125598176Y-106171018D01*
X125597824Y-106575208D01*
X94863825Y-106575208D01*
X94864176Y-106172792D01*
X94709825Y-105799234D01*
X94424269Y-105513179D01*
X94050982Y-105358176D01*
X93646792Y-105357824D01*
X93273234Y-105512175D01*
X92987179Y-105797731D01*
X92832176Y-106171018D01*
X92831824Y-106575208D01*
X72765825Y-106575208D01*
X72766176Y-106172792D01*
X72611825Y-105799234D01*
X72326269Y-105513179D01*
X71952982Y-105358176D01*
X71548792Y-105357824D01*
X71175234Y-105512175D01*
X70889179Y-105797731D01*
X70734176Y-106171018D01*
X70733824Y-106575208D01*
X63482218Y-106575208D01*
X63436269Y-106529179D01*
X63062982Y-106374176D01*
X62658792Y-106373824D01*
X62285234Y-106528175D01*
X61999179Y-106813731D01*
X61844176Y-107187018D01*
X61843824Y-107591208D01*
X45127000Y-107591208D01*
X45127000Y-101241208D01*
X280029824Y-101241208D01*
X280184175Y-101614766D01*
X280469731Y-101900821D01*
X280843018Y-102055824D01*
X281045999Y-102056001D01*
X281045824Y-102257208D01*
X281200175Y-102630766D01*
X281485731Y-102916821D01*
X281859018Y-103071824D01*
X282061999Y-103072001D01*
X282061824Y-103273208D01*
X282216175Y-103646766D01*
X282501731Y-103932821D01*
X282875018Y-104087824D01*
X283279208Y-104088176D01*
X283652766Y-103933825D01*
X283938821Y-103648269D01*
X284093824Y-103274982D01*
X284094176Y-102870792D01*
X283939825Y-102497234D01*
X283654269Y-102211179D01*
X283280982Y-102056176D01*
X283078001Y-102055999D01*
X283078176Y-101854792D01*
X282923825Y-101481234D01*
X282638269Y-101195179D01*
X282264982Y-101040176D01*
X282062001Y-101039999D01*
X282062176Y-100838792D01*
X281907825Y-100465234D01*
X281622269Y-100179179D01*
X281248982Y-100024176D01*
X280844792Y-100023824D01*
X280471234Y-100178175D01*
X280185179Y-100463731D01*
X280030176Y-100837018D01*
X280029824Y-101241208D01*
X45127000Y-101241208D01*
X45127000Y-98701208D01*
X249549824Y-98701208D01*
X249704175Y-99074766D01*
X249989731Y-99360821D01*
X250363018Y-99515824D01*
X250767208Y-99516176D01*
X251140766Y-99361825D01*
X251426821Y-99076269D01*
X251581824Y-98702982D01*
X251582176Y-98298792D01*
X251427825Y-97925234D01*
X251142269Y-97639179D01*
X250768982Y-97484176D01*
X250364792Y-97483824D01*
X249991234Y-97638175D01*
X249705179Y-97923731D01*
X249550176Y-98297018D01*
X249549824Y-98701208D01*
X45127000Y-98701208D01*
X45127000Y-94891208D01*
X249549824Y-94891208D01*
X249704175Y-95264766D01*
X249989731Y-95550821D01*
X250363018Y-95705824D01*
X250767208Y-95706176D01*
X251140766Y-95551825D01*
X251426821Y-95266269D01*
X251581824Y-94892982D01*
X251582176Y-94488792D01*
X251427825Y-94115234D01*
X251142269Y-93829179D01*
X250768982Y-93674176D01*
X250364792Y-93673824D01*
X249991234Y-93828175D01*
X249705179Y-94113731D01*
X249550176Y-94487018D01*
X249549824Y-94891208D01*
X45127000Y-94891208D01*
X45127000Y-91081208D01*
X138043824Y-91081208D01*
X138198175Y-91454766D01*
X138483731Y-91740821D01*
X138857018Y-91895824D01*
X139261208Y-91896176D01*
X139634766Y-91741825D01*
X139920821Y-91456269D01*
X140075824Y-91082982D01*
X140076176Y-90678792D01*
X139921825Y-90305234D01*
X139636269Y-90019179D01*
X139262982Y-89864176D01*
X138858792Y-89863824D01*
X138485234Y-90018175D01*
X138199179Y-90303731D01*
X138044176Y-90677018D01*
X138043824Y-91081208D01*
X45127000Y-91081208D01*
X45127000Y-88541208D01*
X135249824Y-88541208D01*
X135404175Y-88914766D01*
X135689731Y-89200821D01*
X136063018Y-89355824D01*
X136467208Y-89356176D01*
X136840766Y-89201825D01*
X137126821Y-88916269D01*
X137281824Y-88542982D01*
X137281825Y-88541208D01*
X146679824Y-88541208D01*
X146834175Y-88914766D01*
X147119731Y-89200821D01*
X147493018Y-89355824D01*
X147897208Y-89356176D01*
X148270766Y-89201825D01*
X148556821Y-88916269D01*
X148711824Y-88542982D01*
X148712176Y-88138792D01*
X148557825Y-87765234D01*
X148272269Y-87479179D01*
X147898982Y-87324176D01*
X147494792Y-87323824D01*
X147121234Y-87478175D01*
X146835179Y-87763731D01*
X146680176Y-88137018D01*
X146679824Y-88541208D01*
X137281825Y-88541208D01*
X137282176Y-88138792D01*
X137127825Y-87765234D01*
X136842269Y-87479179D01*
X136468982Y-87324176D01*
X136064792Y-87323824D01*
X135691234Y-87478175D01*
X135405179Y-87763731D01*
X135250176Y-88137018D01*
X135249824Y-88541208D01*
X45127000Y-88541208D01*
X45127000Y-85493208D01*
X136265824Y-85493208D01*
X136420175Y-85866766D01*
X136705731Y-86152821D01*
X137079018Y-86307824D01*
X137483208Y-86308176D01*
X137856766Y-86153825D01*
X138142821Y-85868269D01*
X138297824Y-85494982D01*
X138298046Y-85239208D01*
X277997820Y-85239208D01*
X278152171Y-85612766D01*
X278339156Y-85800078D01*
X278153179Y-85985731D01*
X277998176Y-86359018D01*
X277997824Y-86763208D01*
X278152175Y-87136766D01*
X278339158Y-87324076D01*
X278153179Y-87509731D01*
X277998176Y-87883018D01*
X277997824Y-88287208D01*
X278152175Y-88660766D01*
X278437731Y-88946821D01*
X278505299Y-88974878D01*
X278439234Y-89002175D01*
X278153179Y-89287731D01*
X277998176Y-89661018D01*
X277997824Y-90065208D01*
X278152175Y-90438766D01*
X278339160Y-90626078D01*
X278153179Y-90811735D01*
X277998176Y-91185022D01*
X277997824Y-91589212D01*
X278152175Y-91962770D01*
X278437731Y-92248825D01*
X278811018Y-92403828D01*
X279215208Y-92404180D01*
X279588766Y-92249829D01*
X279874821Y-91964273D01*
X280029824Y-91590986D01*
X280030176Y-91186796D01*
X279875825Y-90813238D01*
X279688840Y-90625926D01*
X279874821Y-90440269D01*
X280029824Y-90066982D01*
X280030176Y-89662792D01*
X279875825Y-89289234D01*
X279590269Y-89003179D01*
X279522701Y-88975122D01*
X279588766Y-88947825D01*
X279874821Y-88662269D01*
X280029824Y-88288982D01*
X280030176Y-87884792D01*
X279875825Y-87511234D01*
X279688842Y-87323924D01*
X279874821Y-87138269D01*
X280029824Y-86764982D01*
X280030176Y-86360792D01*
X279875825Y-85987234D01*
X279688840Y-85799922D01*
X279874817Y-85614269D01*
X280029820Y-85240982D01*
X280029821Y-85239208D01*
X288919824Y-85239208D01*
X289074175Y-85612766D01*
X289359731Y-85898821D01*
X289733018Y-86053824D01*
X290137208Y-86054176D01*
X290510766Y-85899825D01*
X290796821Y-85614269D01*
X290951824Y-85240982D01*
X290952176Y-84836792D01*
X290797825Y-84463234D01*
X290512269Y-84177179D01*
X290138982Y-84022176D01*
X289734792Y-84021824D01*
X289361234Y-84176175D01*
X289075179Y-84461731D01*
X288920176Y-84835018D01*
X288919824Y-85239208D01*
X280029821Y-85239208D01*
X280030172Y-84836792D01*
X279875821Y-84463234D01*
X279590265Y-84177179D01*
X279216978Y-84022176D01*
X278812788Y-84021824D01*
X278439230Y-84176175D01*
X278153175Y-84461731D01*
X277998172Y-84835018D01*
X277997820Y-85239208D01*
X138298046Y-85239208D01*
X138298176Y-85090792D01*
X138143825Y-84717234D01*
X137858269Y-84431179D01*
X137484982Y-84276176D01*
X137080792Y-84275824D01*
X136707234Y-84430175D01*
X136421179Y-84715731D01*
X136266176Y-85089018D01*
X136265824Y-85493208D01*
X45127000Y-85493208D01*
X45127000Y-84223208D01*
X141091824Y-84223208D01*
X141246175Y-84596766D01*
X141531731Y-84882821D01*
X141905018Y-85037824D01*
X142309208Y-85038176D01*
X142682766Y-84883825D01*
X142742854Y-84823841D01*
X142801731Y-84882821D01*
X143175018Y-85037824D01*
X143579208Y-85038176D01*
X143952766Y-84883825D01*
X144238821Y-84598269D01*
X144393824Y-84224982D01*
X144394176Y-83820792D01*
X144239825Y-83447234D01*
X143954269Y-83161179D01*
X143580982Y-83006176D01*
X143176792Y-83005824D01*
X142803234Y-83160175D01*
X142743146Y-83220159D01*
X142684269Y-83161179D01*
X142310982Y-83006176D01*
X141906792Y-83005824D01*
X141533234Y-83160175D01*
X141247179Y-83445731D01*
X141092176Y-83819018D01*
X141091824Y-84223208D01*
X45127000Y-84223208D01*
X45127000Y-82953208D01*
X280283824Y-82953208D01*
X280438175Y-83326766D01*
X280723731Y-83612821D01*
X281097018Y-83767824D01*
X281501208Y-83768176D01*
X281874766Y-83613825D01*
X282160821Y-83328269D01*
X282315824Y-82954982D01*
X282316176Y-82550792D01*
X282161825Y-82177234D01*
X281876269Y-81891179D01*
X281502982Y-81736176D01*
X281098792Y-81735824D01*
X280725234Y-81890175D01*
X280439179Y-82175731D01*
X280284176Y-82549018D01*
X280283824Y-82953208D01*
X45127000Y-82953208D01*
X45127000Y-77619208D01*
X61843824Y-77619208D01*
X61998175Y-77992766D01*
X62283731Y-78278821D01*
X62657018Y-78433824D01*
X63061208Y-78434176D01*
X63434766Y-78279825D01*
X63720821Y-77994269D01*
X63875824Y-77620982D01*
X63876176Y-77216792D01*
X63832550Y-77111208D01*
X70987824Y-77111208D01*
X71142175Y-77484766D01*
X71427731Y-77770821D01*
X71801018Y-77925824D01*
X72205208Y-77926176D01*
X72578766Y-77771825D01*
X72864821Y-77486269D01*
X73019824Y-77112982D01*
X73020176Y-76708792D01*
X72871599Y-76349208D01*
X92831824Y-76349208D01*
X92986175Y-76722766D01*
X93271731Y-77008821D01*
X93645018Y-77163824D01*
X94049208Y-77164176D01*
X94422766Y-77009825D01*
X94708821Y-76724269D01*
X94863824Y-76350982D01*
X94863825Y-76349208D01*
X125597824Y-76349208D01*
X125752175Y-76722766D01*
X126037731Y-77008821D01*
X126411018Y-77163824D01*
X126815208Y-77164176D01*
X127188766Y-77009825D01*
X127474821Y-76724269D01*
X127525090Y-76603208D01*
X147695824Y-76603208D01*
X147850175Y-76976766D01*
X148135731Y-77262821D01*
X148509018Y-77417824D01*
X148913208Y-77418176D01*
X149286766Y-77263825D01*
X149572821Y-76978269D01*
X149623090Y-76857208D01*
X191891824Y-76857208D01*
X192046175Y-77230766D01*
X192331731Y-77516821D01*
X192705018Y-77671824D01*
X193109208Y-77672176D01*
X193482766Y-77517825D01*
X193768821Y-77232269D01*
X193819090Y-77111208D01*
X236087824Y-77111208D01*
X236242175Y-77484766D01*
X236527731Y-77770821D01*
X236901018Y-77925824D01*
X237305208Y-77926176D01*
X237678766Y-77771825D01*
X237831649Y-77619208D01*
X259963824Y-77619208D01*
X260118175Y-77992766D01*
X260403731Y-78278821D01*
X260777018Y-78433824D01*
X261181208Y-78434176D01*
X261554766Y-78279825D01*
X261840821Y-77994269D01*
X261995824Y-77620982D01*
X261996176Y-77216792D01*
X261841825Y-76843234D01*
X261556269Y-76557179D01*
X261182982Y-76402176D01*
X260778792Y-76401824D01*
X260405234Y-76556175D01*
X260119179Y-76841731D01*
X259964176Y-77215018D01*
X259963824Y-77619208D01*
X237831649Y-77619208D01*
X237964821Y-77486269D01*
X238119824Y-77112982D01*
X238120176Y-76708792D01*
X237965825Y-76335234D01*
X237680269Y-76049179D01*
X237306982Y-75894176D01*
X236902792Y-75893824D01*
X236529234Y-76048175D01*
X236243179Y-76333731D01*
X236088176Y-76707018D01*
X236087824Y-77111208D01*
X193819090Y-77111208D01*
X193923824Y-76858982D01*
X193924176Y-76454792D01*
X193769825Y-76081234D01*
X193484269Y-75795179D01*
X193110982Y-75640176D01*
X192706792Y-75639824D01*
X192333234Y-75794175D01*
X192047179Y-76079731D01*
X191892176Y-76453018D01*
X191891824Y-76857208D01*
X149623090Y-76857208D01*
X149727824Y-76604982D01*
X149728176Y-76200792D01*
X149573825Y-75827234D01*
X149288269Y-75541179D01*
X148914982Y-75386176D01*
X148510792Y-75385824D01*
X148137234Y-75540175D01*
X147851179Y-75825731D01*
X147696176Y-76199018D01*
X147695824Y-76603208D01*
X127525090Y-76603208D01*
X127629824Y-76350982D01*
X127630176Y-75946792D01*
X127475825Y-75573234D01*
X127236218Y-75333208D01*
X141091824Y-75333208D01*
X141246175Y-75706766D01*
X141531731Y-75992821D01*
X141905018Y-76147824D01*
X142309208Y-76148176D01*
X142682766Y-75993825D01*
X142742854Y-75933841D01*
X142801731Y-75992821D01*
X143175018Y-76147824D01*
X143579208Y-76148176D01*
X143952766Y-75993825D01*
X144238821Y-75708269D01*
X144393824Y-75334982D01*
X144394176Y-74930792D01*
X144239825Y-74557234D01*
X143954269Y-74271179D01*
X143580982Y-74116176D01*
X143176792Y-74115824D01*
X142803234Y-74270175D01*
X142743146Y-74330159D01*
X142684269Y-74271179D01*
X142310982Y-74116176D01*
X141906792Y-74115824D01*
X141533234Y-74270175D01*
X141247179Y-74555731D01*
X141092176Y-74929018D01*
X141091824Y-75333208D01*
X127236218Y-75333208D01*
X127190269Y-75287179D01*
X126816982Y-75132176D01*
X126412792Y-75131824D01*
X126039234Y-75286175D01*
X125753179Y-75571731D01*
X125598176Y-75945018D01*
X125597824Y-76349208D01*
X94863825Y-76349208D01*
X94864176Y-75946792D01*
X94709825Y-75573234D01*
X94424269Y-75287179D01*
X94050982Y-75132176D01*
X93646792Y-75131824D01*
X93273234Y-75286175D01*
X92987179Y-75571731D01*
X92832176Y-75945018D01*
X92831824Y-76349208D01*
X72871599Y-76349208D01*
X72865825Y-76335234D01*
X72580269Y-76049179D01*
X72206982Y-75894176D01*
X71802792Y-75893824D01*
X71429234Y-76048175D01*
X71143179Y-76333731D01*
X70988176Y-76707018D01*
X70987824Y-77111208D01*
X63832550Y-77111208D01*
X63721825Y-76843234D01*
X63436269Y-76557179D01*
X63062982Y-76402176D01*
X62658792Y-76401824D01*
X62285234Y-76556175D01*
X61999179Y-76841731D01*
X61844176Y-77215018D01*
X61843824Y-77619208D01*
X45127000Y-77619208D01*
X45127000Y-68475208D01*
X135249820Y-68475208D01*
X135404171Y-68848766D01*
X135689727Y-69134821D01*
X136063014Y-69289824D01*
X136467204Y-69290176D01*
X136840762Y-69135825D01*
X137126817Y-68850269D01*
X137281820Y-68476982D01*
X137281821Y-68475208D01*
X146679824Y-68475208D01*
X146834175Y-68848766D01*
X147119731Y-69134821D01*
X147493018Y-69289824D01*
X147897208Y-69290176D01*
X148270766Y-69135825D01*
X148556821Y-68850269D01*
X148711824Y-68476982D01*
X148712176Y-68072792D01*
X148557825Y-67699234D01*
X148272269Y-67413179D01*
X147898982Y-67258176D01*
X147494792Y-67257824D01*
X147121234Y-67412175D01*
X146835179Y-67697731D01*
X146680176Y-68071018D01*
X146679824Y-68475208D01*
X137281821Y-68475208D01*
X137282172Y-68072792D01*
X137127821Y-67699234D01*
X136842265Y-67413179D01*
X136468978Y-67258176D01*
X136064788Y-67257824D01*
X135691230Y-67412175D01*
X135405175Y-67697731D01*
X135250172Y-68071018D01*
X135249820Y-68475208D01*
X45127000Y-68475208D01*
X45127000Y-65681212D01*
X136265824Y-65681212D01*
X136420175Y-66054770D01*
X136705731Y-66340825D01*
X137079018Y-66495828D01*
X137483208Y-66496180D01*
X137856766Y-66341829D01*
X138142821Y-66056273D01*
X138297824Y-65682986D01*
X138298176Y-65278796D01*
X138143825Y-64905238D01*
X137858269Y-64619183D01*
X137484982Y-64464180D01*
X137080792Y-64463828D01*
X136707234Y-64618179D01*
X136421179Y-64903735D01*
X136266176Y-65277022D01*
X136265824Y-65681212D01*
X45127000Y-65681212D01*
X45127000Y-57299208D01*
X61081824Y-57299208D01*
X61236175Y-57672766D01*
X61521731Y-57958821D01*
X61895018Y-58113824D01*
X62299208Y-58114176D01*
X62672766Y-57959825D01*
X62958821Y-57674269D01*
X63113824Y-57300982D01*
X63113825Y-57299208D01*
X72257824Y-57299208D01*
X72412175Y-57672766D01*
X72697731Y-57958821D01*
X73071018Y-58113824D01*
X73475208Y-58114176D01*
X73848766Y-57959825D01*
X74134821Y-57674269D01*
X74289824Y-57300982D01*
X74290176Y-56896792D01*
X74141599Y-56537208D01*
X92831824Y-56537208D01*
X92986175Y-56910766D01*
X93271731Y-57196821D01*
X93645018Y-57351824D01*
X94049208Y-57352176D01*
X94422766Y-57197825D01*
X94708821Y-56912269D01*
X94863824Y-56538982D01*
X94864046Y-56283208D01*
X125851824Y-56283208D01*
X126006175Y-56656766D01*
X126291731Y-56942821D01*
X126665018Y-57097824D01*
X127069208Y-57098176D01*
X127442766Y-56943825D01*
X127728821Y-56658269D01*
X127779090Y-56537208D01*
X145663824Y-56537208D01*
X145818175Y-56910766D01*
X146103731Y-57196821D01*
X146477018Y-57351824D01*
X146881208Y-57352176D01*
X147009400Y-57299208D01*
X148965824Y-57299208D01*
X149120175Y-57672766D01*
X149405731Y-57958821D01*
X149779018Y-58113824D01*
X150183208Y-58114176D01*
X150556766Y-57959825D01*
X150842821Y-57674269D01*
X150997824Y-57300982D01*
X150997825Y-57299208D01*
X192907824Y-57299208D01*
X193062175Y-57672766D01*
X193347731Y-57958821D01*
X193721018Y-58113824D01*
X194125208Y-58114176D01*
X194498766Y-57959825D01*
X194784821Y-57674269D01*
X194939824Y-57300982D01*
X194939825Y-57299208D01*
X237103824Y-57299208D01*
X237258175Y-57672766D01*
X237543731Y-57958821D01*
X237917018Y-58113824D01*
X238321208Y-58114176D01*
X238694766Y-57959825D01*
X238980821Y-57674269D01*
X239135824Y-57300982D01*
X239135825Y-57299208D01*
X259201824Y-57299208D01*
X259356175Y-57672766D01*
X259641731Y-57958821D01*
X260015018Y-58113824D01*
X260419208Y-58114176D01*
X260792766Y-57959825D01*
X261078821Y-57674269D01*
X261233824Y-57300982D01*
X261234176Y-56896792D01*
X261079825Y-56523234D01*
X260794269Y-56237179D01*
X260420982Y-56082176D01*
X260016792Y-56081824D01*
X259643234Y-56236175D01*
X259357179Y-56521731D01*
X259202176Y-56895018D01*
X259201824Y-57299208D01*
X239135825Y-57299208D01*
X239136176Y-56896792D01*
X238981825Y-56523234D01*
X238696269Y-56237179D01*
X238322982Y-56082176D01*
X237918792Y-56081824D01*
X237545234Y-56236175D01*
X237259179Y-56521731D01*
X237104176Y-56895018D01*
X237103824Y-57299208D01*
X194939825Y-57299208D01*
X194940176Y-56896792D01*
X194785825Y-56523234D01*
X194500269Y-56237179D01*
X194126982Y-56082176D01*
X193722792Y-56081824D01*
X193349234Y-56236175D01*
X193063179Y-56521731D01*
X192908176Y-56895018D01*
X192907824Y-57299208D01*
X150997825Y-57299208D01*
X150998176Y-56896792D01*
X150843825Y-56523234D01*
X150558269Y-56237179D01*
X150184982Y-56082176D01*
X149780792Y-56081824D01*
X149407234Y-56236175D01*
X149121179Y-56521731D01*
X148966176Y-56895018D01*
X148965824Y-57299208D01*
X147009400Y-57299208D01*
X147254766Y-57197825D01*
X147540821Y-56912269D01*
X147695824Y-56538982D01*
X147696176Y-56134792D01*
X147541825Y-55761234D01*
X147256269Y-55475179D01*
X146882982Y-55320176D01*
X146478792Y-55319824D01*
X146105234Y-55474175D01*
X145819179Y-55759731D01*
X145664176Y-56133018D01*
X145663824Y-56537208D01*
X127779090Y-56537208D01*
X127883824Y-56284982D01*
X127884176Y-55880792D01*
X127729825Y-55507234D01*
X127444269Y-55221179D01*
X127070982Y-55066176D01*
X126666792Y-55065824D01*
X126293234Y-55220175D01*
X126007179Y-55505731D01*
X125852176Y-55879018D01*
X125851824Y-56283208D01*
X94864046Y-56283208D01*
X94864176Y-56134792D01*
X94709825Y-55761234D01*
X94424269Y-55475179D01*
X94050982Y-55320176D01*
X93646792Y-55319824D01*
X93273234Y-55474175D01*
X92987179Y-55759731D01*
X92832176Y-56133018D01*
X92831824Y-56537208D01*
X74141599Y-56537208D01*
X74135825Y-56523234D01*
X73850269Y-56237179D01*
X73476982Y-56082176D01*
X73072792Y-56081824D01*
X72699234Y-56236175D01*
X72413179Y-56521731D01*
X72258176Y-56895018D01*
X72257824Y-57299208D01*
X63113825Y-57299208D01*
X63114176Y-56896792D01*
X62959825Y-56523234D01*
X62674269Y-56237179D01*
X62300982Y-56082176D01*
X61896792Y-56081824D01*
X61523234Y-56236175D01*
X61237179Y-56521731D01*
X61082176Y-56895018D01*
X61081824Y-57299208D01*
X45127000Y-57299208D01*
X45127000Y-45127000D01*
X354873000Y-45127000D01*
X354873000Y-174873000D01*
M02*
