%FSLAX45Y45*%
G04 Gerber Fmt 4.5, Leading zero omitted, Abs format (unit mm)*
G04 Created by KiCad (PCBNEW no-vcs-found-product) date Seg 25 Abr 2016 23:01:22 BRT*
%MOMM*%
G01*
G04 APERTURE LIST*
%ADD10C,0.127000*%
%ADD11C,0.150000*%
%ADD12C,0.200000*%
%ADD13C,0.300000*%
G04 APERTURE END LIST*
D10*
D11*
X31100000Y-22000000D02*
X3000000Y-22000000D01*
X33000000Y-18500000D02*
X38000000Y-18500000D01*
X33000000Y-16400000D02*
X33000000Y-18500000D01*
X31100000Y-16400000D02*
X33000000Y-16400000D01*
X31100000Y-22000000D02*
X31100000Y-16400000D01*
X38000000Y-3000000D02*
X3000000Y-3000000D01*
X38000000Y-18500000D02*
X38000000Y-3000000D01*
X3000000Y-3000000D02*
X3000000Y-22000000D01*
D12*
X6133600Y-14726800D02*
X6184400Y-14777600D01*
X6184400Y-14726800D02*
X6133600Y-14777600D01*
X6184400Y-5684400D02*
X6235200Y-5735200D01*
X6235200Y-5684400D02*
X6184400Y-5735200D01*
X6260600Y-7716400D02*
X6311400Y-7767200D01*
X6311400Y-7716400D02*
X6260600Y-7767200D01*
X6260600Y-10713600D02*
X6311400Y-10764400D01*
X6311400Y-10713600D02*
X6260600Y-10764400D01*
X6260600Y-18689200D02*
X6311400Y-18740000D01*
X6311400Y-18689200D02*
X6260600Y-18740000D01*
X6590800Y-5684400D02*
X6641600Y-5735200D01*
X6641600Y-5684400D02*
X6590800Y-5735200D01*
X6667000Y-7716400D02*
X6717800Y-7767200D01*
X6717800Y-7716400D02*
X6667000Y-7767200D01*
X6667000Y-10713600D02*
X6717800Y-10764400D01*
X6717800Y-10713600D02*
X6667000Y-10764400D01*
X6692400Y-18689200D02*
X6743200Y-18740000D01*
X6743200Y-18689200D02*
X6692400Y-18740000D01*
X6819400Y-14726800D02*
X6870200Y-14777600D01*
X6870200Y-14726800D02*
X6819400Y-14777600D01*
X7149600Y-10612000D02*
X7200400Y-10662800D01*
X7200400Y-10612000D02*
X7149600Y-10662800D01*
X7149600Y-18689200D02*
X7200400Y-18740000D01*
X7200400Y-18689200D02*
X7149600Y-18740000D01*
X7175000Y-7665600D02*
X7225800Y-7716400D01*
X7225800Y-7665600D02*
X7175000Y-7716400D01*
X7175000Y-14726800D02*
X7225800Y-14777600D01*
X7225800Y-14726800D02*
X7175000Y-14777600D01*
X7302000Y-5684400D02*
X7352800Y-5735200D01*
X7352800Y-5684400D02*
X7302000Y-5735200D01*
X7708400Y-5684401D02*
X7759200Y-5735201D01*
X7759200Y-5684401D02*
X7708400Y-5735201D01*
X8013200Y-7614800D02*
X8064000Y-7665600D01*
X8064000Y-7614800D02*
X8013200Y-7665600D01*
X8013200Y-10586600D02*
X8064000Y-10637400D01*
X8064000Y-10586600D02*
X8013200Y-10637400D01*
X8038600Y-14320400D02*
X8089400Y-14371200D01*
X8089400Y-14320400D02*
X8038600Y-14371200D01*
X8064000Y-18308200D02*
X8114800Y-18359000D01*
X8114800Y-18308200D02*
X8064000Y-18359000D01*
X9334000Y-14574400D02*
X9384800Y-14625200D01*
X9384800Y-14574400D02*
X9334000Y-14625200D01*
X9334000Y-18638400D02*
X9384800Y-18689200D01*
X9384800Y-18638400D02*
X9334000Y-18689200D01*
X9359400Y-5608200D02*
X9410200Y-5659000D01*
X9410200Y-5608200D02*
X9359400Y-5659000D01*
X9359400Y-7589400D02*
X9410200Y-7640200D01*
X9410200Y-7589400D02*
X9359400Y-7640200D01*
X9359400Y-10612000D02*
X9410200Y-10662800D01*
X9410200Y-10612000D02*
X9359400Y-10662800D01*
X9765800Y-5608200D02*
X9816600Y-5659000D01*
X9816600Y-5608200D02*
X9765800Y-5659000D01*
X10197600Y-7589400D02*
X10248400Y-7640200D01*
X10248400Y-7589400D02*
X10197600Y-7640200D01*
X10197600Y-14625200D02*
X10248400Y-14676000D01*
X10248400Y-14625200D02*
X10197600Y-14676000D01*
X10248400Y-10612000D02*
X10299200Y-10662800D01*
X10299200Y-10612000D02*
X10248400Y-10662800D01*
X10248400Y-18308200D02*
X10299200Y-18359000D01*
X10299200Y-18308200D02*
X10248400Y-18359000D01*
X12610600Y-18613000D02*
X12661400Y-18663800D01*
X12661400Y-18613000D02*
X12610600Y-18663800D01*
X12636000Y-7589400D02*
X12686800Y-7640200D01*
X12686800Y-7589400D02*
X12636000Y-7640200D01*
X12636000Y-10612000D02*
X12686800Y-10662800D01*
X12686800Y-10612000D02*
X12636000Y-10662800D01*
X12636000Y-14625200D02*
X12686800Y-14676000D01*
X12686800Y-14625200D02*
X12636000Y-14676000D01*
X12661400Y-5582800D02*
X12712200Y-5633600D01*
X12712200Y-5582800D02*
X12661400Y-5633600D01*
X13067800Y-5582800D02*
X13118600Y-5633600D01*
X13118600Y-5582800D02*
X13067800Y-5633600D01*
X13499600Y-7614800D02*
X13550400Y-7665600D01*
X13550400Y-7614800D02*
X13499600Y-7665600D01*
X13499600Y-18613000D02*
X13550400Y-18663800D01*
X13550400Y-18613000D02*
X13499600Y-18663800D01*
X13525000Y-14599800D02*
X13575800Y-14650600D01*
X13575800Y-14599800D02*
X13525000Y-14650600D01*
X13550400Y-10561200D02*
X13601200Y-10612000D01*
X13601200Y-10561200D02*
X13550400Y-10612000D01*
X13601200Y-6802000D02*
X13652000Y-6852800D01*
X13652000Y-6802000D02*
X13601200Y-6852800D01*
X13601200Y-8808600D02*
X13652000Y-8859400D01*
X13652000Y-8808600D02*
X13601200Y-8859400D01*
X13601200Y-11780400D02*
X13652000Y-11831200D01*
X13652000Y-11780400D02*
X13601200Y-11831200D01*
X13601200Y-15768200D02*
X13652000Y-15819000D01*
X13652000Y-15768200D02*
X13601200Y-15819000D01*
X13702800Y-6522600D02*
X13753600Y-6573400D01*
X13753600Y-6522600D02*
X13702800Y-6573400D01*
X13702800Y-8503800D02*
X13753600Y-8554600D01*
X13753600Y-8503800D02*
X13702800Y-8554600D01*
X13702800Y-11501000D02*
X13753600Y-11551800D01*
X13753600Y-11501000D02*
X13702800Y-11551800D01*
X13702800Y-19502000D02*
X13753600Y-19552800D01*
X13753600Y-19502000D02*
X13702800Y-19552800D01*
X13728200Y-15514200D02*
X13779000Y-15565000D01*
X13779000Y-15514200D02*
X13728200Y-15565000D01*
X13880600Y-6395600D02*
X13931400Y-6446400D01*
X13931400Y-6395600D02*
X13880600Y-6446400D01*
X13880600Y-8376800D02*
X13931400Y-8427600D01*
X13931400Y-8376800D02*
X13880600Y-8427600D01*
X13880600Y-9062600D02*
X13931400Y-9113400D01*
X13931400Y-9062600D02*
X13880600Y-9113400D01*
X13880600Y-11374000D02*
X13931400Y-11424800D01*
X13931400Y-11374000D02*
X13880600Y-11424800D01*
X13880600Y-15412600D02*
X13931400Y-15463400D01*
X13931400Y-15412600D02*
X13880600Y-15463400D01*
X13880600Y-19375000D02*
X13931400Y-19425800D01*
X13931400Y-19375000D02*
X13880600Y-19425800D01*
X14185400Y-7487800D02*
X14236200Y-7538600D01*
X14236200Y-7487800D02*
X14185400Y-7538600D01*
X14185400Y-8376800D02*
X14236200Y-8427600D01*
X14236200Y-8376800D02*
X14185400Y-8427600D01*
X14185400Y-10510400D02*
X14236200Y-10561200D01*
X14236200Y-10510400D02*
X14185400Y-10561200D01*
X14185400Y-11373996D02*
X14236200Y-11424796D01*
X14236200Y-11373996D02*
X14185400Y-11424796D01*
X14185400Y-14498200D02*
X14236200Y-14549000D01*
X14236200Y-14498200D02*
X14185400Y-14549000D01*
X14185400Y-15412598D02*
X14236200Y-15463398D01*
X14236200Y-15412598D02*
X14185400Y-15463398D01*
X14185400Y-18511400D02*
X14236200Y-18562200D01*
X14236200Y-18511400D02*
X14185400Y-18562200D01*
X14185400Y-19374999D02*
X14236200Y-19425799D01*
X14236200Y-19374999D02*
X14185400Y-19425799D01*
X14312400Y-7487800D02*
X14363200Y-7538600D01*
X14363200Y-7487800D02*
X14312400Y-7538600D01*
X14312400Y-8376800D02*
X14363200Y-8427600D01*
X14363200Y-8376800D02*
X14312400Y-8427600D01*
X14312400Y-10510400D02*
X14363200Y-10561200D01*
X14363200Y-10510400D02*
X14312400Y-10561200D01*
X14312400Y-11374000D02*
X14363200Y-11424800D01*
X14363200Y-11374000D02*
X14312400Y-11424800D01*
X14312400Y-14498200D02*
X14363200Y-14549000D01*
X14363200Y-14498200D02*
X14312400Y-14549000D01*
X14312400Y-15412600D02*
X14363200Y-15463400D01*
X14363200Y-15412600D02*
X14312400Y-15463400D01*
X14312400Y-18511400D02*
X14363200Y-18562200D01*
X14363200Y-18511400D02*
X14312400Y-18562200D01*
X14312400Y-19375000D02*
X14363200Y-19425800D01*
X14363200Y-19375000D02*
X14312400Y-19425800D01*
X14642600Y-5608200D02*
X14693400Y-5659000D01*
X14693400Y-5608200D02*
X14642600Y-5659000D01*
X14668000Y-5176400D02*
X14718800Y-5227200D01*
X14718800Y-5176400D02*
X14668000Y-5227200D01*
X14693400Y-14117200D02*
X14744200Y-14168000D01*
X14744200Y-14117200D02*
X14693400Y-14168000D01*
X14744200Y-6802000D02*
X14795000Y-6852800D01*
X14795000Y-6802000D02*
X14744200Y-6852800D01*
X14744200Y-8808600D02*
X14795000Y-8859400D01*
X14795000Y-8808600D02*
X14744200Y-8859400D01*
X14744200Y-11780400D02*
X14795000Y-11831200D01*
X14795000Y-11780400D02*
X14744200Y-11831200D01*
X14744200Y-15768200D02*
X14795000Y-15819000D01*
X14795000Y-15768200D02*
X14744200Y-15819000D01*
X14744200Y-18079600D02*
X14795000Y-18130400D01*
X14795000Y-18079600D02*
X14744200Y-18130400D01*
X14769498Y-10019698D02*
X14820298Y-10070498D01*
X14820298Y-10019698D02*
X14769498Y-10070498D01*
X14769600Y-7056000D02*
X14820400Y-7106800D01*
X14820400Y-7056000D02*
X14769600Y-7106800D01*
X14820400Y-10586600D02*
X14871200Y-10637400D01*
X14871200Y-10586600D02*
X14820400Y-10637400D01*
X14845800Y-7614800D02*
X14896600Y-7665600D01*
X14896600Y-7614800D02*
X14845800Y-7665600D01*
X14845800Y-14676000D02*
X14896600Y-14726800D01*
X14896600Y-14676000D02*
X14845800Y-14726800D01*
X14871200Y-18663800D02*
X14922000Y-18714600D01*
X14922000Y-18663800D02*
X14871200Y-18714600D01*
X14972800Y-5684400D02*
X15023600Y-5735200D01*
X15023600Y-5684400D02*
X14972800Y-5735200D01*
X15404600Y-5684400D02*
X15455400Y-5735200D01*
X15455400Y-5684400D02*
X15404600Y-5735200D01*
X15684000Y-7665600D02*
X15734800Y-7716400D01*
X15734800Y-7665600D02*
X15684000Y-7716400D01*
X15684000Y-14676000D02*
X15734800Y-14726800D01*
X15734800Y-14676000D02*
X15684000Y-14726800D01*
X15709400Y-10662800D02*
X15760200Y-10713600D01*
X15760200Y-10662800D02*
X15709400Y-10713600D01*
X15709400Y-18663800D02*
X15760200Y-18714600D01*
X15760200Y-18663800D02*
X15709400Y-18714600D01*
X19240000Y-10662800D02*
X19290800Y-10713600D01*
X19290800Y-10662800D02*
X19240000Y-10713600D01*
X19240000Y-18663800D02*
X19290800Y-18714600D01*
X19290800Y-18663800D02*
X19240000Y-18714600D01*
X19265400Y-7640200D02*
X19316200Y-7691000D01*
X19316200Y-7640200D02*
X19265400Y-7691000D01*
X19265400Y-14676000D02*
X19316200Y-14726800D01*
X19316200Y-14676000D02*
X19265400Y-14726800D01*
X19367000Y-5684400D02*
X19417800Y-5735200D01*
X19417800Y-5684400D02*
X19367000Y-5735200D01*
X19773400Y-5684400D02*
X19824200Y-5735200D01*
X19824200Y-5684400D02*
X19773400Y-5735200D01*
X20078200Y-7665600D02*
X20129000Y-7716400D01*
X20129000Y-7665600D02*
X20078200Y-7716400D01*
X20078200Y-14676000D02*
X20129000Y-14726800D01*
X20129000Y-14676000D02*
X20078200Y-14726800D01*
X20103600Y-10662800D02*
X20154400Y-10713600D01*
X20154400Y-10662800D02*
X20103600Y-10713600D01*
X20129000Y-18638400D02*
X20179800Y-18689200D01*
X20179800Y-18638400D02*
X20129000Y-18689200D01*
X23634200Y-14650600D02*
X23685000Y-14701400D01*
X23685000Y-14650600D02*
X23634200Y-14701400D01*
X23659600Y-10662800D02*
X23710400Y-10713600D01*
X23710400Y-10662800D02*
X23659600Y-10713600D01*
X23659600Y-18663800D02*
X23710400Y-18714600D01*
X23710400Y-18663800D02*
X23659600Y-18714600D01*
X23685000Y-7665600D02*
X23735800Y-7716400D01*
X23735800Y-7665600D02*
X23685000Y-7716400D01*
X23786600Y-5684400D02*
X23837400Y-5735200D01*
X23837400Y-5684400D02*
X23786600Y-5735200D01*
X24040600Y-10688200D02*
X24091400Y-10739000D01*
X24091400Y-10688200D02*
X24040600Y-10739000D01*
X24167600Y-5684400D02*
X24218400Y-5735200D01*
X24218400Y-5684400D02*
X24167600Y-5735200D01*
X24472400Y-7665600D02*
X24523200Y-7716400D01*
X24523200Y-7665600D02*
X24472400Y-7716400D01*
X24472400Y-14676000D02*
X24523200Y-14726800D01*
X24523200Y-14676000D02*
X24472400Y-14726800D01*
X24523200Y-18689200D02*
X24574000Y-18740000D01*
X24574000Y-18689200D02*
X24523200Y-18740000D01*
X25031200Y-9443600D02*
X25082000Y-9494400D01*
X25082000Y-9443600D02*
X25031200Y-9494400D01*
X25031200Y-9824600D02*
X25082000Y-9875400D01*
X25082000Y-9824600D02*
X25031200Y-9875400D01*
X25996400Y-5684400D02*
X26047200Y-5735200D01*
X26047200Y-5684400D02*
X25996400Y-5735200D01*
X26072600Y-7716400D02*
X26123400Y-7767200D01*
X26123400Y-7716400D02*
X26072600Y-7767200D01*
X26072600Y-18740000D02*
X26123400Y-18790800D01*
X26123400Y-18740000D02*
X26072600Y-18790800D01*
X26174200Y-14777600D02*
X26225000Y-14828400D01*
X26225000Y-14777600D02*
X26174200Y-14828400D01*
X26275800Y-10002400D02*
X26326600Y-10053200D01*
X26326600Y-10002400D02*
X26275800Y-10053200D01*
X26275800Y-10637400D02*
X26326600Y-10688200D01*
X26326600Y-10637400D02*
X26275800Y-10688200D01*
X26402800Y-5684400D02*
X26453600Y-5735200D01*
X26453600Y-5684400D02*
X26402800Y-5735200D01*
X26479000Y-7716400D02*
X26529800Y-7767200D01*
X26529800Y-7716400D02*
X26479000Y-7767200D01*
X26479000Y-18740000D02*
X26529800Y-18790800D01*
X26529800Y-18740000D02*
X26479000Y-18790800D01*
X26580600Y-14777600D02*
X26631400Y-14828400D01*
X26631400Y-14777600D02*
X26580600Y-14828400D01*
X26961600Y-10739001D02*
X27012400Y-10789801D01*
X27012400Y-10739001D02*
X26961600Y-10789801D01*
X27545800Y-10612000D02*
X27596600Y-10662800D01*
X27596600Y-10612000D02*
X27545800Y-10662800D01*
X27571200Y-10993000D02*
X27622000Y-11043800D01*
X27622000Y-10993000D02*
X27571200Y-11043800D01*
X27876000Y-8478400D02*
X27926800Y-8529200D01*
X27926800Y-8478400D02*
X27876000Y-8529200D01*
X27876000Y-8630800D02*
X27926800Y-8681600D01*
X27926800Y-8630800D02*
X27876000Y-8681600D01*
X27876000Y-8783200D02*
X27926800Y-8834000D01*
X27926800Y-8783200D02*
X27876000Y-8834000D01*
X27876000Y-8961000D02*
X27926800Y-9011800D01*
X27926800Y-8961000D02*
X27876000Y-9011800D01*
X27876000Y-9113400D02*
X27926800Y-9164200D01*
X27926800Y-9113400D02*
X27876000Y-9164200D01*
X28079200Y-9367400D02*
X28130000Y-9418200D01*
X28130000Y-9367400D02*
X28079200Y-9418200D01*
X28079200Y-10078600D02*
X28130000Y-10129400D01*
X28130000Y-10078600D02*
X28079200Y-10129400D01*
X28104600Y-8249800D02*
X28155400Y-8300600D01*
X28155400Y-8249800D02*
X28104600Y-8300600D01*
X28104600Y-11602600D02*
X28155400Y-11653400D01*
X28155400Y-11602600D02*
X28104600Y-11653400D01*
X28180800Y-10180200D02*
X28231600Y-10231000D01*
X28231600Y-10180200D02*
X28180800Y-10231000D01*
X28180800Y-10637400D02*
X28231600Y-10688200D01*
X28231600Y-10637400D02*
X28180800Y-10688200D01*
X28282400Y-10281800D02*
X28333200Y-10332600D01*
X28333200Y-10281800D02*
X28282400Y-10332600D01*
X28674600Y-15474600D02*
X28725400Y-15525400D01*
X28725400Y-15474600D02*
X28674600Y-15525400D01*
X28765000Y-10637400D02*
X28815800Y-10688200D01*
X28815800Y-10637400D02*
X28765000Y-10688200D01*
X28815800Y-8148200D02*
X28866600Y-8199000D01*
X28866600Y-8148200D02*
X28815800Y-8199000D01*
X28866600Y-11602600D02*
X28917400Y-11653400D01*
X28917400Y-11602600D02*
X28866600Y-11653400D01*
X28968200Y-8478400D02*
X29019000Y-8529200D01*
X29019000Y-8478400D02*
X28968200Y-8529200D01*
X28968200Y-10840600D02*
X29019000Y-10891400D01*
X29019000Y-10840600D02*
X28968200Y-10891400D01*
X29815000Y-10961500D02*
G75*
G03X29815000Y-10961500I-55000J0D01*
G01*
X29815000Y-11215500D02*
G75*
G03X29815000Y-11215500I-55000J0D01*
G01*
X29815000Y-11469500D02*
G75*
G03X29815000Y-11469500I-55000J0D01*
G01*
X29815000Y-11723500D02*
G75*
G03X29815000Y-11723500I-55000J0D01*
G01*
X29815000Y-11977500D02*
G75*
G03X29815000Y-11977500I-55000J0D01*
G01*
X29815000Y-12231500D02*
G75*
G03X29815000Y-12231500I-55000J0D01*
G01*
X29815000Y-12485500D02*
G75*
G03X29815000Y-12485500I-55000J0D01*
G01*
X29815000Y-12739500D02*
G75*
G03X29815000Y-12739500I-55000J0D01*
G01*
X29815000Y-12993500D02*
G75*
G03X29815000Y-12993500I-55000J0D01*
G01*
X29815000Y-13247500D02*
G75*
G03X29815000Y-13247500I-55000J0D01*
G01*
X29815000Y-13501500D02*
G75*
G03X29815000Y-13501500I-55000J0D01*
G01*
X29815000Y-13755500D02*
G75*
G03X29815000Y-13755500I-55000J0D01*
G01*
X29815000Y-14009500D02*
G75*
G03X29815000Y-14009500I-55000J0D01*
G01*
X29815000Y-14263500D02*
G75*
G03X29815000Y-14263500I-55000J0D01*
G01*
X29815000Y-14517500D02*
G75*
G03X29815000Y-14517500I-55000J0D01*
G01*
X29815000Y-14771500D02*
G75*
G03X29815000Y-14771500I-55000J0D01*
G01*
X29815000Y-15025500D02*
G75*
G03X29815000Y-15025500I-55000J0D01*
G01*
X29815000Y-15279500D02*
G75*
G03X29815000Y-15279500I-55000J0D01*
G01*
X29815000Y-15533500D02*
G75*
G03X29815000Y-15533500I-55000J0D01*
G01*
X29815000Y-15787500D02*
G75*
G03X29815000Y-15787500I-55000J0D01*
G01*
X29815000Y-16041500D02*
G75*
G03X29815000Y-16041500I-55000J0D01*
G01*
X29815000Y-16295500D02*
G75*
G03X29815000Y-16295500I-55000J0D01*
G01*
X29815000Y-16549500D02*
G75*
G03X29815000Y-16549500I-55000J0D01*
G01*
X30069000Y-10961500D02*
G75*
G03X30069000Y-10961500I-55000J0D01*
G01*
X30069000Y-11215500D02*
G75*
G03X30069000Y-11215500I-55000J0D01*
G01*
X30069000Y-11469500D02*
G75*
G03X30069000Y-11469500I-55000J0D01*
G01*
X30069000Y-11723500D02*
G75*
G03X30069000Y-11723500I-55000J0D01*
G01*
X30069000Y-11977500D02*
G75*
G03X30069000Y-11977500I-55000J0D01*
G01*
X30069000Y-12231500D02*
G75*
G03X30069000Y-12231500I-55000J0D01*
G01*
X30069000Y-12485500D02*
G75*
G03X30069000Y-12485500I-55000J0D01*
G01*
X30069000Y-12739500D02*
G75*
G03X30069000Y-12739500I-55000J0D01*
G01*
X30069000Y-12993500D02*
G75*
G03X30069000Y-12993500I-55000J0D01*
G01*
X30069000Y-13247500D02*
G75*
G03X30069000Y-13247500I-55000J0D01*
G01*
X30069000Y-13501500D02*
G75*
G03X30069000Y-13501500I-55000J0D01*
G01*
X30069000Y-13755500D02*
G75*
G03X30069000Y-13755500I-55000J0D01*
G01*
X30069000Y-14009500D02*
G75*
G03X30069000Y-14009500I-55000J0D01*
G01*
X30069000Y-14263500D02*
G75*
G03X30069000Y-14263500I-55000J0D01*
G01*
X30069000Y-14517500D02*
G75*
G03X30069000Y-14517500I-55000J0D01*
G01*
X30069000Y-14771500D02*
G75*
G03X30069000Y-14771500I-55000J0D01*
G01*
X30069000Y-15025500D02*
G75*
G03X30069000Y-15025500I-55000J0D01*
G01*
X30069000Y-15279500D02*
G75*
G03X30069000Y-15279500I-55000J0D01*
G01*
X30069000Y-15533500D02*
G75*
G03X30069000Y-15533500I-55000J0D01*
G01*
X30069000Y-15787500D02*
G75*
G03X30069000Y-15787500I-55000J0D01*
G01*
X30069000Y-16041500D02*
G75*
G03X30069000Y-16041500I-55000J0D01*
G01*
X30069000Y-16295500D02*
G75*
G03X30069000Y-16295500I-55000J0D01*
G01*
X30069000Y-16549500D02*
G75*
G03X30069000Y-16549500I-55000J0D01*
G01*
X34641000Y-10961500D02*
G75*
G03X34641000Y-10961500I-55000J0D01*
G01*
X34641000Y-11215500D02*
G75*
G03X34641000Y-11215500I-55000J0D01*
G01*
X34641000Y-11469500D02*
G75*
G03X34641000Y-11469500I-55000J0D01*
G01*
X34641000Y-11723500D02*
G75*
G03X34641000Y-11723500I-55000J0D01*
G01*
X34641000Y-11977500D02*
G75*
G03X34641000Y-11977500I-55000J0D01*
G01*
X34641000Y-12231500D02*
G75*
G03X34641000Y-12231500I-55000J0D01*
G01*
X34641000Y-12485500D02*
G75*
G03X34641000Y-12485500I-55000J0D01*
G01*
X34641000Y-12739500D02*
G75*
G03X34641000Y-12739500I-55000J0D01*
G01*
X34641000Y-12993500D02*
G75*
G03X34641000Y-12993500I-55000J0D01*
G01*
X34641000Y-13247500D02*
G75*
G03X34641000Y-13247500I-55000J0D01*
G01*
X34641000Y-13501500D02*
G75*
G03X34641000Y-13501500I-55000J0D01*
G01*
X34641000Y-13755500D02*
G75*
G03X34641000Y-13755500I-55000J0D01*
G01*
X34641000Y-14009500D02*
G75*
G03X34641000Y-14009500I-55000J0D01*
G01*
X34641000Y-14263500D02*
G75*
G03X34641000Y-14263500I-55000J0D01*
G01*
X34641000Y-14517500D02*
G75*
G03X34641000Y-14517500I-55000J0D01*
G01*
X34641000Y-14771500D02*
G75*
G03X34641000Y-14771500I-55000J0D01*
G01*
X34641000Y-15025500D02*
G75*
G03X34641000Y-15025500I-55000J0D01*
G01*
X34641000Y-15279500D02*
G75*
G03X34641000Y-15279500I-55000J0D01*
G01*
X34641000Y-15533500D02*
G75*
G03X34641000Y-15533500I-55000J0D01*
G01*
X34641000Y-15787500D02*
G75*
G03X34641000Y-15787500I-55000J0D01*
G01*
X34641000Y-16041500D02*
G75*
G03X34641000Y-16041500I-55000J0D01*
G01*
X34641000Y-16295500D02*
G75*
G03X34641000Y-16295500I-55000J0D01*
G01*
X34641000Y-16549500D02*
G75*
G03X34641000Y-16549500I-55000J0D01*
G01*
X34895000Y-10961500D02*
G75*
G03X34895000Y-10961500I-55000J0D01*
G01*
X34895000Y-11215500D02*
G75*
G03X34895000Y-11215500I-55000J0D01*
G01*
X34895000Y-11469500D02*
G75*
G03X34895000Y-11469500I-55000J0D01*
G01*
X34895000Y-11723500D02*
G75*
G03X34895000Y-11723500I-55000J0D01*
G01*
X34895000Y-11977500D02*
G75*
G03X34895000Y-11977500I-55000J0D01*
G01*
X34895000Y-12231500D02*
G75*
G03X34895000Y-12231500I-55000J0D01*
G01*
X34895000Y-12485500D02*
G75*
G03X34895000Y-12485500I-55000J0D01*
G01*
X34895000Y-12739500D02*
G75*
G03X34895000Y-12739500I-55000J0D01*
G01*
X34895000Y-12993500D02*
G75*
G03X34895000Y-12993500I-55000J0D01*
G01*
X34895000Y-13247500D02*
G75*
G03X34895000Y-13247500I-55000J0D01*
G01*
X34895000Y-13501500D02*
G75*
G03X34895000Y-13501500I-55000J0D01*
G01*
X34895000Y-13755500D02*
G75*
G03X34895000Y-13755500I-55000J0D01*
G01*
X34895000Y-14009500D02*
G75*
G03X34895000Y-14009500I-55000J0D01*
G01*
X34895000Y-14263500D02*
G75*
G03X34895000Y-14263500I-55000J0D01*
G01*
X34895000Y-14517500D02*
G75*
G03X34895000Y-14517500I-55000J0D01*
G01*
X34895000Y-14771500D02*
G75*
G03X34895000Y-14771500I-55000J0D01*
G01*
X34895000Y-15025500D02*
G75*
G03X34895000Y-15025500I-55000J0D01*
G01*
X34895000Y-15279500D02*
G75*
G03X34895000Y-15279500I-55000J0D01*
G01*
X34895000Y-15533500D02*
G75*
G03X34895000Y-15533500I-55000J0D01*
G01*
X34895000Y-15787500D02*
G75*
G03X34895000Y-15787500I-55000J0D01*
G01*
X34895000Y-16041500D02*
G75*
G03X34895000Y-16041500I-55000J0D01*
G01*
X34895000Y-16295500D02*
G75*
G03X34895000Y-16295500I-55000J0D01*
G01*
X34895000Y-16549500D02*
G75*
G03X34895000Y-16549500I-55000J0D01*
G01*
X29887000Y-16898750D02*
X29887000Y-17216250D01*
X29728250Y-17057500D02*
X30045750Y-17057500D01*
X30204500Y-10294750D02*
X30204500Y-10612250D01*
X30045750Y-10453500D02*
X30363250Y-10453500D01*
X34395500Y-10294750D02*
X34395500Y-10612250D01*
X34236750Y-10453500D02*
X34554250Y-10453500D01*
X34713000Y-16898750D02*
X34713000Y-17216250D01*
X34554250Y-17057500D02*
X34871750Y-17057500D01*
D13*
X3263928Y-22473214D02*
X3263928Y-22173214D01*
X3335357Y-22173214D01*
X3378214Y-22187500D01*
X3406786Y-22216072D01*
X3421071Y-22244643D01*
X3435357Y-22301786D01*
X3435357Y-22344643D01*
X3421071Y-22401786D01*
X3406786Y-22430357D01*
X3378214Y-22458929D01*
X3335357Y-22473214D01*
X3263928Y-22473214D01*
X3563928Y-22473214D02*
X3563928Y-22273214D01*
X3563928Y-22330357D02*
X3578214Y-22301786D01*
X3592500Y-22287500D01*
X3621071Y-22273214D01*
X3649643Y-22273214D01*
X3749643Y-22473214D02*
X3749643Y-22273214D01*
X3749643Y-22173214D02*
X3735357Y-22187500D01*
X3749643Y-22201786D01*
X3763928Y-22187500D01*
X3749643Y-22173214D01*
X3749643Y-22201786D01*
X3935357Y-22473214D02*
X3906786Y-22458929D01*
X3892500Y-22430357D01*
X3892500Y-22173214D01*
X4092500Y-22473214D02*
X4063928Y-22458929D01*
X4049643Y-22430357D01*
X4049643Y-22173214D01*
X4435357Y-22473214D02*
X4435357Y-22173214D01*
X4535357Y-22387500D01*
X4635357Y-22173214D01*
X4635357Y-22473214D01*
X4906786Y-22473214D02*
X4906786Y-22316072D01*
X4892500Y-22287500D01*
X4863928Y-22273214D01*
X4806786Y-22273214D01*
X4778214Y-22287500D01*
X4906786Y-22458929D02*
X4878214Y-22473214D01*
X4806786Y-22473214D01*
X4778214Y-22458929D01*
X4763928Y-22430357D01*
X4763928Y-22401786D01*
X4778214Y-22373214D01*
X4806786Y-22358929D01*
X4878214Y-22358929D01*
X4906786Y-22344643D01*
X5049643Y-22273214D02*
X5049643Y-22573214D01*
X5049643Y-22287500D02*
X5078214Y-22273214D01*
X5135357Y-22273214D01*
X5163928Y-22287500D01*
X5178214Y-22301786D01*
X5192500Y-22330357D01*
X5192500Y-22416071D01*
X5178214Y-22444643D01*
X5163928Y-22458929D01*
X5135357Y-22473214D01*
X5078214Y-22473214D01*
X5049643Y-22458929D01*
X5321071Y-22444643D02*
X5335357Y-22458929D01*
X5321071Y-22473214D01*
X5306786Y-22458929D01*
X5321071Y-22444643D01*
X5321071Y-22473214D01*
X5321071Y-22287500D02*
X5335357Y-22301786D01*
X5321071Y-22316072D01*
X5306786Y-22301786D01*
X5321071Y-22287500D01*
X5321071Y-22316072D01*
X2941700Y-22942100D02*
X2992500Y-22992900D01*
X2992500Y-22942100D02*
X2941700Y-22992900D01*
X3321071Y-22803214D02*
X3349643Y-22803214D01*
X3378214Y-22817500D01*
X3392500Y-22831786D01*
X3406786Y-22860357D01*
X3421071Y-22917500D01*
X3421071Y-22988929D01*
X3406786Y-23046071D01*
X3392500Y-23074643D01*
X3378214Y-23088929D01*
X3349643Y-23103214D01*
X3321071Y-23103214D01*
X3292500Y-23088929D01*
X3278214Y-23074643D01*
X3263928Y-23046071D01*
X3249643Y-22988929D01*
X3249643Y-22917500D01*
X3263928Y-22860357D01*
X3278214Y-22831786D01*
X3292500Y-22817500D01*
X3321071Y-22803214D01*
X3549643Y-23074643D02*
X3563928Y-23088929D01*
X3549643Y-23103214D01*
X3535357Y-23088929D01*
X3549643Y-23074643D01*
X3549643Y-23103214D01*
X3835357Y-22803214D02*
X3692500Y-22803214D01*
X3678214Y-22946071D01*
X3692500Y-22931786D01*
X3721071Y-22917500D01*
X3792500Y-22917500D01*
X3821071Y-22931786D01*
X3835357Y-22946071D01*
X3849643Y-22974643D01*
X3849643Y-23046071D01*
X3835357Y-23074643D01*
X3821071Y-23088929D01*
X3792500Y-23103214D01*
X3721071Y-23103214D01*
X3692500Y-23088929D01*
X3678214Y-23074643D01*
X4135357Y-23103214D02*
X3963928Y-23103214D01*
X4049643Y-23103214D02*
X4049643Y-22803214D01*
X4021071Y-22846071D01*
X3992500Y-22874643D01*
X3963928Y-22888929D01*
X4263928Y-23103214D02*
X4263928Y-22903214D01*
X4263928Y-22931786D02*
X4278214Y-22917500D01*
X4306786Y-22903214D01*
X4349643Y-22903214D01*
X4378214Y-22917500D01*
X4392500Y-22946071D01*
X4392500Y-23103214D01*
X4392500Y-22946071D02*
X4406786Y-22917500D01*
X4435357Y-22903214D01*
X4478214Y-22903214D01*
X4506786Y-22917500D01*
X4521071Y-22946071D01*
X4521071Y-23103214D01*
X4663928Y-23103214D02*
X4663928Y-22903214D01*
X4663928Y-22931786D02*
X4678214Y-22917500D01*
X4706786Y-22903214D01*
X4749643Y-22903214D01*
X4778214Y-22917500D01*
X4792500Y-22946071D01*
X4792500Y-23103214D01*
X4792500Y-22946071D02*
X4806786Y-22917500D01*
X4835357Y-22903214D01*
X4878214Y-22903214D01*
X4906786Y-22917500D01*
X4921071Y-22946071D01*
X4921071Y-23103214D01*
X5506786Y-22788929D02*
X5249643Y-23174643D01*
X5892500Y-22803214D02*
X5921071Y-22803214D01*
X5949643Y-22817500D01*
X5963928Y-22831786D01*
X5978214Y-22860357D01*
X5992500Y-22917500D01*
X5992500Y-22988929D01*
X5978214Y-23046071D01*
X5963928Y-23074643D01*
X5949643Y-23088929D01*
X5921071Y-23103214D01*
X5892500Y-23103214D01*
X5863928Y-23088929D01*
X5849643Y-23074643D01*
X5835357Y-23046071D01*
X5821071Y-22988929D01*
X5821071Y-22917500D01*
X5835357Y-22860357D01*
X5849643Y-22831786D01*
X5863928Y-22817500D01*
X5892500Y-22803214D01*
X6121071Y-23074643D02*
X6135357Y-23088929D01*
X6121071Y-23103214D01*
X6106786Y-23088929D01*
X6121071Y-23074643D01*
X6121071Y-23103214D01*
X6321071Y-22803214D02*
X6349643Y-22803214D01*
X6378214Y-22817500D01*
X6392500Y-22831786D01*
X6406786Y-22860357D01*
X6421071Y-22917500D01*
X6421071Y-22988929D01*
X6406786Y-23046071D01*
X6392500Y-23074643D01*
X6378214Y-23088929D01*
X6349643Y-23103214D01*
X6321071Y-23103214D01*
X6292500Y-23088929D01*
X6278214Y-23074643D01*
X6263928Y-23046071D01*
X6249643Y-22988929D01*
X6249643Y-22917500D01*
X6263928Y-22860357D01*
X6278214Y-22831786D01*
X6292500Y-22817500D01*
X6321071Y-22803214D01*
X6535357Y-22831786D02*
X6549643Y-22817500D01*
X6578214Y-22803214D01*
X6649643Y-22803214D01*
X6678214Y-22817500D01*
X6692500Y-22831786D01*
X6706786Y-22860357D01*
X6706786Y-22888929D01*
X6692500Y-22931786D01*
X6521071Y-23103214D01*
X6706786Y-23103214D01*
X6892500Y-22803214D02*
X6921071Y-22803214D01*
X6949643Y-22817500D01*
X6963928Y-22831786D01*
X6978214Y-22860357D01*
X6992500Y-22917500D01*
X6992500Y-22988929D01*
X6978214Y-23046071D01*
X6963928Y-23074643D01*
X6949643Y-23088929D01*
X6921071Y-23103214D01*
X6892500Y-23103214D01*
X6863928Y-23088929D01*
X6849643Y-23074643D01*
X6835357Y-23046071D01*
X6821071Y-22988929D01*
X6821071Y-22917500D01*
X6835357Y-22860357D01*
X6849643Y-22831786D01*
X6863928Y-22817500D01*
X6892500Y-22803214D01*
X7106786Y-22803214D02*
X7106786Y-22860357D01*
X7221071Y-22803214D02*
X7221071Y-22860357D01*
X7663928Y-23217500D02*
X7649643Y-23203214D01*
X7621071Y-23160357D01*
X7606786Y-23131786D01*
X7592500Y-23088929D01*
X7578214Y-23017500D01*
X7578214Y-22960357D01*
X7592500Y-22888929D01*
X7606786Y-22846071D01*
X7621071Y-22817500D01*
X7649643Y-22774643D01*
X7663928Y-22760357D01*
X7935357Y-23103214D02*
X7763928Y-23103214D01*
X7849643Y-23103214D02*
X7849643Y-22803214D01*
X7821071Y-22846071D01*
X7792500Y-22874643D01*
X7763928Y-22888929D01*
X8192500Y-22903214D02*
X8192500Y-23103214D01*
X8121071Y-22788929D02*
X8049643Y-23003214D01*
X8235357Y-23003214D01*
X8478214Y-22903214D02*
X8478214Y-23103214D01*
X8406786Y-22788929D02*
X8335357Y-23003214D01*
X8521071Y-23003214D01*
X8863928Y-23103214D02*
X8863928Y-22803214D01*
X8992500Y-23103214D02*
X8992500Y-22946071D01*
X8978214Y-22917500D01*
X8949643Y-22903214D01*
X8906786Y-22903214D01*
X8878214Y-22917500D01*
X8863928Y-22931786D01*
X9178214Y-23103214D02*
X9149643Y-23088929D01*
X9135357Y-23074643D01*
X9121071Y-23046071D01*
X9121071Y-22960357D01*
X9135357Y-22931786D01*
X9149643Y-22917500D01*
X9178214Y-22903214D01*
X9221071Y-22903214D01*
X9249643Y-22917500D01*
X9263928Y-22931786D01*
X9278214Y-22960357D01*
X9278214Y-23046071D01*
X9263928Y-23074643D01*
X9249643Y-23088929D01*
X9221071Y-23103214D01*
X9178214Y-23103214D01*
X9449643Y-23103214D02*
X9421071Y-23088929D01*
X9406786Y-23060357D01*
X9406786Y-22803214D01*
X9678214Y-23088929D02*
X9649643Y-23103214D01*
X9592500Y-23103214D01*
X9563928Y-23088929D01*
X9549643Y-23060357D01*
X9549643Y-22946071D01*
X9563928Y-22917500D01*
X9592500Y-22903214D01*
X9649643Y-22903214D01*
X9678214Y-22917500D01*
X9692500Y-22946071D01*
X9692500Y-22974643D01*
X9549643Y-23003214D01*
X9806786Y-23088929D02*
X9835357Y-23103214D01*
X9892500Y-23103214D01*
X9921071Y-23088929D01*
X9935357Y-23060357D01*
X9935357Y-23046071D01*
X9921071Y-23017500D01*
X9892500Y-23003214D01*
X9849643Y-23003214D01*
X9821071Y-22988929D01*
X9806786Y-22960357D01*
X9806786Y-22946071D01*
X9821071Y-22917500D01*
X9849643Y-22903214D01*
X9892500Y-22903214D01*
X9921071Y-22917500D01*
X10035357Y-23217500D02*
X10049643Y-23203214D01*
X10078214Y-23160357D01*
X10092500Y-23131786D01*
X10106786Y-23088929D01*
X10121071Y-23017500D01*
X10121071Y-22960357D01*
X10106786Y-22888929D01*
X10092500Y-22846071D01*
X10078214Y-22817500D01*
X10049643Y-22774643D01*
X10035357Y-22760357D01*
X2992500Y-23363500D02*
G75*
G03X2992500Y-23363500I-55000J0D01*
G01*
X3421071Y-23499214D02*
X3249643Y-23499214D01*
X3335357Y-23499214D02*
X3335357Y-23199214D01*
X3306786Y-23242071D01*
X3278214Y-23270643D01*
X3249643Y-23284929D01*
X3549643Y-23470643D02*
X3563928Y-23484929D01*
X3549643Y-23499214D01*
X3535357Y-23484929D01*
X3549643Y-23470643D01*
X3549643Y-23499214D01*
X3849643Y-23499214D02*
X3678214Y-23499214D01*
X3763928Y-23499214D02*
X3763928Y-23199214D01*
X3735357Y-23242071D01*
X3706786Y-23270643D01*
X3678214Y-23284929D01*
X4035357Y-23199214D02*
X4063928Y-23199214D01*
X4092500Y-23213500D01*
X4106786Y-23227786D01*
X4121071Y-23256357D01*
X4135357Y-23313500D01*
X4135357Y-23384929D01*
X4121071Y-23442071D01*
X4106786Y-23470643D01*
X4092500Y-23484929D01*
X4063928Y-23499214D01*
X4035357Y-23499214D01*
X4006786Y-23484929D01*
X3992500Y-23470643D01*
X3978214Y-23442071D01*
X3963928Y-23384929D01*
X3963928Y-23313500D01*
X3978214Y-23256357D01*
X3992500Y-23227786D01*
X4006786Y-23213500D01*
X4035357Y-23199214D01*
X4263928Y-23499214D02*
X4263928Y-23299214D01*
X4263928Y-23327786D02*
X4278214Y-23313500D01*
X4306786Y-23299214D01*
X4349643Y-23299214D01*
X4378214Y-23313500D01*
X4392500Y-23342071D01*
X4392500Y-23499214D01*
X4392500Y-23342071D02*
X4406786Y-23313500D01*
X4435357Y-23299214D01*
X4478214Y-23299214D01*
X4506786Y-23313500D01*
X4521071Y-23342071D01*
X4521071Y-23499214D01*
X4663928Y-23499214D02*
X4663928Y-23299214D01*
X4663928Y-23327786D02*
X4678214Y-23313500D01*
X4706786Y-23299214D01*
X4749643Y-23299214D01*
X4778214Y-23313500D01*
X4792500Y-23342071D01*
X4792500Y-23499214D01*
X4792500Y-23342071D02*
X4806786Y-23313500D01*
X4835357Y-23299214D01*
X4878214Y-23299214D01*
X4906786Y-23313500D01*
X4921071Y-23342071D01*
X4921071Y-23499214D01*
X5506786Y-23184929D02*
X5249643Y-23570643D01*
X5892500Y-23199214D02*
X5921071Y-23199214D01*
X5949643Y-23213500D01*
X5963928Y-23227786D01*
X5978214Y-23256357D01*
X5992500Y-23313500D01*
X5992500Y-23384929D01*
X5978214Y-23442071D01*
X5963928Y-23470643D01*
X5949643Y-23484929D01*
X5921071Y-23499214D01*
X5892500Y-23499214D01*
X5863928Y-23484929D01*
X5849643Y-23470643D01*
X5835357Y-23442071D01*
X5821071Y-23384929D01*
X5821071Y-23313500D01*
X5835357Y-23256357D01*
X5849643Y-23227786D01*
X5863928Y-23213500D01*
X5892500Y-23199214D01*
X6121071Y-23470643D02*
X6135357Y-23484929D01*
X6121071Y-23499214D01*
X6106786Y-23484929D01*
X6121071Y-23470643D01*
X6121071Y-23499214D01*
X6321071Y-23199214D02*
X6349643Y-23199214D01*
X6378214Y-23213500D01*
X6392500Y-23227786D01*
X6406786Y-23256357D01*
X6421071Y-23313500D01*
X6421071Y-23384929D01*
X6406786Y-23442071D01*
X6392500Y-23470643D01*
X6378214Y-23484929D01*
X6349643Y-23499214D01*
X6321071Y-23499214D01*
X6292500Y-23484929D01*
X6278214Y-23470643D01*
X6263928Y-23442071D01*
X6249643Y-23384929D01*
X6249643Y-23313500D01*
X6263928Y-23256357D01*
X6278214Y-23227786D01*
X6292500Y-23213500D01*
X6321071Y-23199214D01*
X6678214Y-23299214D02*
X6678214Y-23499214D01*
X6606786Y-23184929D02*
X6535357Y-23399214D01*
X6721071Y-23399214D01*
X6806786Y-23199214D02*
X6992500Y-23199214D01*
X6892500Y-23313500D01*
X6935357Y-23313500D01*
X6963928Y-23327786D01*
X6978214Y-23342071D01*
X6992500Y-23370643D01*
X6992500Y-23442071D01*
X6978214Y-23470643D01*
X6963928Y-23484929D01*
X6935357Y-23499214D01*
X6849643Y-23499214D01*
X6821071Y-23484929D01*
X6806786Y-23470643D01*
X7106786Y-23199214D02*
X7106786Y-23256357D01*
X7221071Y-23199214D02*
X7221071Y-23256357D01*
X7663928Y-23613500D02*
X7649643Y-23599214D01*
X7621071Y-23556357D01*
X7606786Y-23527786D01*
X7592500Y-23484929D01*
X7578214Y-23413500D01*
X7578214Y-23356357D01*
X7592500Y-23284929D01*
X7606786Y-23242071D01*
X7621071Y-23213500D01*
X7649643Y-23170643D01*
X7663928Y-23156357D01*
X7792500Y-23499214D02*
X7849643Y-23499214D01*
X7878214Y-23484929D01*
X7892500Y-23470643D01*
X7921071Y-23427786D01*
X7935357Y-23370643D01*
X7935357Y-23256357D01*
X7921071Y-23227786D01*
X7906786Y-23213500D01*
X7878214Y-23199214D01*
X7821071Y-23199214D01*
X7792500Y-23213500D01*
X7778214Y-23227786D01*
X7763928Y-23256357D01*
X7763928Y-23327786D01*
X7778214Y-23356357D01*
X7792500Y-23370643D01*
X7821071Y-23384929D01*
X7878214Y-23384929D01*
X7906786Y-23370643D01*
X7921071Y-23356357D01*
X7935357Y-23327786D01*
X8049643Y-23227786D02*
X8063928Y-23213500D01*
X8092500Y-23199214D01*
X8163928Y-23199214D01*
X8192500Y-23213500D01*
X8206786Y-23227786D01*
X8221071Y-23256357D01*
X8221071Y-23284929D01*
X8206786Y-23327786D01*
X8035357Y-23499214D01*
X8221071Y-23499214D01*
X8578214Y-23499214D02*
X8578214Y-23199214D01*
X8706786Y-23499214D02*
X8706786Y-23342071D01*
X8692500Y-23313500D01*
X8663928Y-23299214D01*
X8621071Y-23299214D01*
X8592500Y-23313500D01*
X8578214Y-23327786D01*
X8892500Y-23499214D02*
X8863928Y-23484929D01*
X8849643Y-23470643D01*
X8835357Y-23442071D01*
X8835357Y-23356357D01*
X8849643Y-23327786D01*
X8863928Y-23313500D01*
X8892500Y-23299214D01*
X8935357Y-23299214D01*
X8963928Y-23313500D01*
X8978214Y-23327786D01*
X8992500Y-23356357D01*
X8992500Y-23442071D01*
X8978214Y-23470643D01*
X8963928Y-23484929D01*
X8935357Y-23499214D01*
X8892500Y-23499214D01*
X9163928Y-23499214D02*
X9135357Y-23484929D01*
X9121071Y-23456357D01*
X9121071Y-23199214D01*
X9392500Y-23484929D02*
X9363928Y-23499214D01*
X9306786Y-23499214D01*
X9278214Y-23484929D01*
X9263928Y-23456357D01*
X9263928Y-23342071D01*
X9278214Y-23313500D01*
X9306786Y-23299214D01*
X9363928Y-23299214D01*
X9392500Y-23313500D01*
X9406786Y-23342071D01*
X9406786Y-23370643D01*
X9263928Y-23399214D01*
X9521071Y-23484929D02*
X9549643Y-23499214D01*
X9606786Y-23499214D01*
X9635357Y-23484929D01*
X9649643Y-23456357D01*
X9649643Y-23442071D01*
X9635357Y-23413500D01*
X9606786Y-23399214D01*
X9563928Y-23399214D01*
X9535357Y-23384929D01*
X9521071Y-23356357D01*
X9521071Y-23342071D01*
X9535357Y-23313500D01*
X9563928Y-23299214D01*
X9606786Y-23299214D01*
X9635357Y-23313500D01*
X9749643Y-23613500D02*
X9763928Y-23599214D01*
X9792500Y-23556357D01*
X9806786Y-23527786D01*
X9821071Y-23484929D01*
X9835357Y-23413500D01*
X9835357Y-23356357D01*
X9821071Y-23284929D01*
X9806786Y-23242071D01*
X9792500Y-23213500D01*
X9763928Y-23170643D01*
X9749643Y-23156357D01*
X2833750Y-23600750D02*
X2833750Y-23918250D01*
X2675000Y-23759500D02*
X2992500Y-23759500D01*
X3235357Y-23595214D02*
X3421071Y-23595214D01*
X3321071Y-23709500D01*
X3363928Y-23709500D01*
X3392500Y-23723786D01*
X3406786Y-23738071D01*
X3421071Y-23766643D01*
X3421071Y-23838071D01*
X3406786Y-23866643D01*
X3392500Y-23880929D01*
X3363928Y-23895214D01*
X3278214Y-23895214D01*
X3249643Y-23880929D01*
X3235357Y-23866643D01*
X3549643Y-23866643D02*
X3563928Y-23880929D01*
X3549643Y-23895214D01*
X3535357Y-23880929D01*
X3549643Y-23866643D01*
X3549643Y-23895214D01*
X3849643Y-23895214D02*
X3678214Y-23895214D01*
X3763928Y-23895214D02*
X3763928Y-23595214D01*
X3735357Y-23638071D01*
X3706786Y-23666643D01*
X3678214Y-23680929D01*
X3949643Y-23595214D02*
X4149643Y-23595214D01*
X4021071Y-23895214D01*
X4263928Y-23895214D02*
X4263928Y-23695214D01*
X4263928Y-23723786D02*
X4278214Y-23709500D01*
X4306786Y-23695214D01*
X4349643Y-23695214D01*
X4378214Y-23709500D01*
X4392500Y-23738071D01*
X4392500Y-23895214D01*
X4392500Y-23738071D02*
X4406786Y-23709500D01*
X4435357Y-23695214D01*
X4478214Y-23695214D01*
X4506786Y-23709500D01*
X4521071Y-23738071D01*
X4521071Y-23895214D01*
X4663928Y-23895214D02*
X4663928Y-23695214D01*
X4663928Y-23723786D02*
X4678214Y-23709500D01*
X4706786Y-23695214D01*
X4749643Y-23695214D01*
X4778214Y-23709500D01*
X4792500Y-23738071D01*
X4792500Y-23895214D01*
X4792500Y-23738071D02*
X4806786Y-23709500D01*
X4835357Y-23695214D01*
X4878214Y-23695214D01*
X4906786Y-23709500D01*
X4921071Y-23738071D01*
X4921071Y-23895214D01*
X5506786Y-23580929D02*
X5249643Y-23966643D01*
X5892500Y-23595214D02*
X5921071Y-23595214D01*
X5949643Y-23609500D01*
X5963928Y-23623786D01*
X5978214Y-23652357D01*
X5992500Y-23709500D01*
X5992500Y-23780929D01*
X5978214Y-23838071D01*
X5963928Y-23866643D01*
X5949643Y-23880929D01*
X5921071Y-23895214D01*
X5892500Y-23895214D01*
X5863928Y-23880929D01*
X5849643Y-23866643D01*
X5835357Y-23838071D01*
X5821071Y-23780929D01*
X5821071Y-23709500D01*
X5835357Y-23652357D01*
X5849643Y-23623786D01*
X5863928Y-23609500D01*
X5892500Y-23595214D01*
X6121071Y-23866643D02*
X6135357Y-23880929D01*
X6121071Y-23895214D01*
X6106786Y-23880929D01*
X6121071Y-23866643D01*
X6121071Y-23895214D01*
X6421071Y-23895214D02*
X6249643Y-23895214D01*
X6335357Y-23895214D02*
X6335357Y-23595214D01*
X6306786Y-23638071D01*
X6278214Y-23666643D01*
X6249643Y-23680929D01*
X6535357Y-23623786D02*
X6549643Y-23609500D01*
X6578214Y-23595214D01*
X6649643Y-23595214D01*
X6678214Y-23609500D01*
X6692500Y-23623786D01*
X6706786Y-23652357D01*
X6706786Y-23680929D01*
X6692500Y-23723786D01*
X6521071Y-23895214D01*
X6706786Y-23895214D01*
X6978214Y-23595214D02*
X6835357Y-23595214D01*
X6821071Y-23738071D01*
X6835357Y-23723786D01*
X6863928Y-23709500D01*
X6935357Y-23709500D01*
X6963928Y-23723786D01*
X6978214Y-23738071D01*
X6992500Y-23766643D01*
X6992500Y-23838071D01*
X6978214Y-23866643D01*
X6963928Y-23880929D01*
X6935357Y-23895214D01*
X6863928Y-23895214D01*
X6835357Y-23880929D01*
X6821071Y-23866643D01*
X7106786Y-23595214D02*
X7106786Y-23652357D01*
X7221071Y-23595214D02*
X7221071Y-23652357D01*
X7663928Y-24009500D02*
X7649643Y-23995214D01*
X7621071Y-23952357D01*
X7606786Y-23923786D01*
X7592500Y-23880929D01*
X7578214Y-23809500D01*
X7578214Y-23752357D01*
X7592500Y-23680929D01*
X7606786Y-23638071D01*
X7621071Y-23609500D01*
X7649643Y-23566643D01*
X7663928Y-23552357D01*
X7906786Y-23695214D02*
X7906786Y-23895214D01*
X7835357Y-23580929D02*
X7763928Y-23795214D01*
X7949643Y-23795214D01*
X8292500Y-23895214D02*
X8292500Y-23595214D01*
X8421071Y-23895214D02*
X8421071Y-23738071D01*
X8406786Y-23709500D01*
X8378214Y-23695214D01*
X8335357Y-23695214D01*
X8306786Y-23709500D01*
X8292500Y-23723786D01*
X8606786Y-23895214D02*
X8578214Y-23880929D01*
X8563928Y-23866643D01*
X8549643Y-23838071D01*
X8549643Y-23752357D01*
X8563928Y-23723786D01*
X8578214Y-23709500D01*
X8606786Y-23695214D01*
X8649643Y-23695214D01*
X8678214Y-23709500D01*
X8692500Y-23723786D01*
X8706786Y-23752357D01*
X8706786Y-23838071D01*
X8692500Y-23866643D01*
X8678214Y-23880929D01*
X8649643Y-23895214D01*
X8606786Y-23895214D01*
X8878214Y-23895214D02*
X8849643Y-23880929D01*
X8835357Y-23852357D01*
X8835357Y-23595214D01*
X9106786Y-23880929D02*
X9078214Y-23895214D01*
X9021071Y-23895214D01*
X8992500Y-23880929D01*
X8978214Y-23852357D01*
X8978214Y-23738071D01*
X8992500Y-23709500D01*
X9021071Y-23695214D01*
X9078214Y-23695214D01*
X9106786Y-23709500D01*
X9121071Y-23738071D01*
X9121071Y-23766643D01*
X8978214Y-23795214D01*
X9235357Y-23880929D02*
X9263928Y-23895214D01*
X9321071Y-23895214D01*
X9349643Y-23880929D01*
X9363928Y-23852357D01*
X9363928Y-23838071D01*
X9349643Y-23809500D01*
X9321071Y-23795214D01*
X9278214Y-23795214D01*
X9249643Y-23780929D01*
X9235357Y-23752357D01*
X9235357Y-23738071D01*
X9249643Y-23709500D01*
X9278214Y-23695214D01*
X9321071Y-23695214D01*
X9349643Y-23709500D01*
X9463928Y-24009500D02*
X9478214Y-23995214D01*
X9506786Y-23952357D01*
X9521071Y-23923786D01*
X9535357Y-23880929D01*
X9549643Y-23809500D01*
X9549643Y-23752357D01*
X9535357Y-23680929D01*
X9521071Y-23638071D01*
X9506786Y-23609500D01*
X9478214Y-23566643D01*
X9463928Y-23552357D01*
M02*
