G04 #@! TF.FileFunction,Legend,Top*
%FSLAX46Y46*%
G04 Gerber Fmt 4.6, Leading zero omitted, Abs format (unit mm)*
G04 Created by KiCad (PCBNEW no-vcs-found-product) date Seg 25 Abr 2016 23:01:13 BRT*
%MOMM*%
G01*
G04 APERTURE LIST*
%ADD10C,0.100000*%
%ADD11C,0.150000*%
%ADD12C,0.119380*%
%ADD13C,0.120000*%
%ADD14C,0.099060*%
G04 APERTURE END LIST*
D10*
D11*
X284610000Y-117130000D02*
X285610000Y-117130000D01*
X285610000Y-115430000D02*
X284610000Y-115430000D01*
X285984000Y-165810000D02*
X288016000Y-165810000D01*
X288397000Y-165683000D02*
X285603000Y-165683000D01*
X285349000Y-165556000D02*
X288651000Y-165556000D01*
X288905000Y-165429000D02*
X285095000Y-165429000D01*
X289032000Y-165302000D02*
X284968000Y-165302000D01*
X284714000Y-165175000D02*
X289286000Y-165175000D01*
X282809000Y-166191000D02*
X291191000Y-166191000D01*
X291191000Y-166191000D02*
X291191000Y-158571000D01*
X291191000Y-158571000D02*
X290429000Y-157809000D01*
X290429000Y-157809000D02*
X283571000Y-157809000D01*
X283571000Y-157809000D02*
X282809000Y-158571000D01*
X282809000Y-158571000D02*
X282809000Y-166191000D01*
X287000000Y-158317000D02*
X287000000Y-159079000D01*
X286619000Y-158698000D02*
X287381000Y-158698000D01*
X290937000Y-162000000D02*
G75*
G03X290937000Y-162000000I-3937000J0D01*
G01*
X285356000Y-81902000D02*
X284356000Y-81902000D01*
X284356000Y-83602000D02*
X285356000Y-83602000D01*
X144052000Y-52788000D02*
X144052000Y-53788000D01*
X145752000Y-53788000D02*
X145752000Y-52788000D01*
X144814000Y-72834000D02*
X144814000Y-73834000D01*
X146514000Y-73834000D02*
X146514000Y-72834000D01*
X144814000Y-102318000D02*
X144814000Y-103318000D01*
X146514000Y-103318000D02*
X146514000Y-102318000D01*
X144306000Y-142196000D02*
X144306000Y-143196000D01*
X146006000Y-143196000D02*
X146006000Y-142196000D01*
X144560000Y-181820000D02*
X144560000Y-182820000D01*
X146260000Y-182820000D02*
X146260000Y-181820000D01*
D12*
X61444000Y-53777000D02*
G75*
G03X61444000Y-53777000I-127000J0D01*
G01*
D13*
X70334000Y-65334000D02*
X70334000Y-63302000D01*
X70334000Y-65334000D02*
X68302000Y-65334000D01*
X59666000Y-56698000D02*
X59666000Y-54666000D01*
X61698000Y-54666000D02*
X59666000Y-54666000D01*
X61698000Y-54666000D02*
X61698000Y-53650000D01*
D12*
X72444000Y-53777000D02*
G75*
G03X72444000Y-53777000I-127000J0D01*
G01*
D13*
X81334000Y-65334000D02*
X81334000Y-63302000D01*
X81334000Y-65334000D02*
X79302000Y-65334000D01*
X70666000Y-56698000D02*
X70666000Y-54666000D01*
X72698000Y-54666000D02*
X70666000Y-54666000D01*
X72698000Y-54666000D02*
X72698000Y-53650000D01*
D12*
X94444000Y-53777000D02*
G75*
G03X94444000Y-53777000I-127000J0D01*
G01*
D13*
X103334000Y-65334000D02*
X103334000Y-63302000D01*
X103334000Y-65334000D02*
X101302000Y-65334000D01*
X92666000Y-56698000D02*
X92666000Y-54666000D01*
X94698000Y-54666000D02*
X92666000Y-54666000D01*
X94698000Y-54666000D02*
X94698000Y-53650000D01*
D12*
X127444000Y-53777000D02*
G75*
G03X127444000Y-53777000I-127000J0D01*
G01*
D13*
X136334000Y-65334000D02*
X136334000Y-63302000D01*
X136334000Y-65334000D02*
X134302000Y-65334000D01*
X125666000Y-56698000D02*
X125666000Y-54666000D01*
X127698000Y-54666000D02*
X125666000Y-54666000D01*
X127698000Y-54666000D02*
X127698000Y-53650000D01*
D12*
X149444000Y-53777000D02*
G75*
G03X149444000Y-53777000I-127000J0D01*
G01*
D13*
X158334000Y-65334000D02*
X158334000Y-63302000D01*
X158334000Y-65334000D02*
X156302000Y-65334000D01*
X147666000Y-56698000D02*
X147666000Y-54666000D01*
X149698000Y-54666000D02*
X147666000Y-54666000D01*
X149698000Y-54666000D02*
X149698000Y-53650000D01*
D12*
X193444000Y-53777000D02*
G75*
G03X193444000Y-53777000I-127000J0D01*
G01*
D13*
X202334000Y-65334000D02*
X202334000Y-63302000D01*
X202334000Y-65334000D02*
X200302000Y-65334000D01*
X191666000Y-56698000D02*
X191666000Y-54666000D01*
X193698000Y-54666000D02*
X191666000Y-54666000D01*
X193698000Y-54666000D02*
X193698000Y-53650000D01*
D12*
X237444000Y-53777000D02*
G75*
G03X237444000Y-53777000I-127000J0D01*
G01*
D13*
X246334000Y-65334000D02*
X246334000Y-63302000D01*
X246334000Y-65334000D02*
X244302000Y-65334000D01*
X235666000Y-56698000D02*
X235666000Y-54666000D01*
X237698000Y-54666000D02*
X235666000Y-54666000D01*
X237698000Y-54666000D02*
X237698000Y-53650000D01*
D12*
X259444000Y-53777000D02*
G75*
G03X259444000Y-53777000I-127000J0D01*
G01*
D13*
X268334000Y-65334000D02*
X268334000Y-63302000D01*
X268334000Y-65334000D02*
X266302000Y-65334000D01*
X257666000Y-56698000D02*
X257666000Y-54666000D01*
X259698000Y-54666000D02*
X257666000Y-54666000D01*
X259698000Y-54666000D02*
X259698000Y-53650000D01*
D12*
X61444000Y-73777000D02*
G75*
G03X61444000Y-73777000I-127000J0D01*
G01*
D13*
X70334000Y-85334000D02*
X70334000Y-83302000D01*
X70334000Y-85334000D02*
X68302000Y-85334000D01*
X59666000Y-76698000D02*
X59666000Y-74666000D01*
X61698000Y-74666000D02*
X59666000Y-74666000D01*
X61698000Y-74666000D02*
X61698000Y-73650000D01*
D12*
X72444000Y-73777000D02*
G75*
G03X72444000Y-73777000I-127000J0D01*
G01*
D13*
X81334000Y-85334000D02*
X81334000Y-83302000D01*
X81334000Y-85334000D02*
X79302000Y-85334000D01*
X70666000Y-76698000D02*
X70666000Y-74666000D01*
X72698000Y-74666000D02*
X70666000Y-74666000D01*
X72698000Y-74666000D02*
X72698000Y-73650000D01*
D12*
X94444000Y-73777000D02*
G75*
G03X94444000Y-73777000I-127000J0D01*
G01*
D13*
X103334000Y-85334000D02*
X103334000Y-83302000D01*
X103334000Y-85334000D02*
X101302000Y-85334000D01*
X92666000Y-76698000D02*
X92666000Y-74666000D01*
X94698000Y-74666000D02*
X92666000Y-74666000D01*
X94698000Y-74666000D02*
X94698000Y-73650000D01*
D12*
X127444000Y-73777000D02*
G75*
G03X127444000Y-73777000I-127000J0D01*
G01*
D13*
X136334000Y-85334000D02*
X136334000Y-83302000D01*
X136334000Y-85334000D02*
X134302000Y-85334000D01*
X125666000Y-76698000D02*
X125666000Y-74666000D01*
X127698000Y-74666000D02*
X125666000Y-74666000D01*
X127698000Y-74666000D02*
X127698000Y-73650000D01*
D12*
X149444000Y-73777000D02*
G75*
G03X149444000Y-73777000I-127000J0D01*
G01*
D13*
X158334000Y-85334000D02*
X158334000Y-83302000D01*
X158334000Y-85334000D02*
X156302000Y-85334000D01*
X147666000Y-76698000D02*
X147666000Y-74666000D01*
X149698000Y-74666000D02*
X147666000Y-74666000D01*
X149698000Y-74666000D02*
X149698000Y-73650000D01*
D12*
X193444000Y-73777000D02*
G75*
G03X193444000Y-73777000I-127000J0D01*
G01*
D13*
X202334000Y-85334000D02*
X202334000Y-83302000D01*
X202334000Y-85334000D02*
X200302000Y-85334000D01*
X191666000Y-76698000D02*
X191666000Y-74666000D01*
X193698000Y-74666000D02*
X191666000Y-74666000D01*
X193698000Y-74666000D02*
X193698000Y-73650000D01*
D12*
X237444000Y-73777000D02*
G75*
G03X237444000Y-73777000I-127000J0D01*
G01*
D13*
X246334000Y-85334000D02*
X246334000Y-83302000D01*
X246334000Y-85334000D02*
X244302000Y-85334000D01*
X235666000Y-76698000D02*
X235666000Y-74666000D01*
X237698000Y-74666000D02*
X235666000Y-74666000D01*
X237698000Y-74666000D02*
X237698000Y-73650000D01*
D12*
X259444000Y-73777000D02*
G75*
G03X259444000Y-73777000I-127000J0D01*
G01*
D13*
X268334000Y-85334000D02*
X268334000Y-83302000D01*
X268334000Y-85334000D02*
X266302000Y-85334000D01*
X257666000Y-76698000D02*
X257666000Y-74666000D01*
X259698000Y-74666000D02*
X257666000Y-74666000D01*
X259698000Y-74666000D02*
X259698000Y-73650000D01*
D12*
X61444000Y-103777000D02*
G75*
G03X61444000Y-103777000I-127000J0D01*
G01*
D13*
X70334000Y-115334000D02*
X70334000Y-113302000D01*
X70334000Y-115334000D02*
X68302000Y-115334000D01*
X59666000Y-106698000D02*
X59666000Y-104666000D01*
X61698000Y-104666000D02*
X59666000Y-104666000D01*
X61698000Y-104666000D02*
X61698000Y-103650000D01*
D12*
X72444000Y-103777000D02*
G75*
G03X72444000Y-103777000I-127000J0D01*
G01*
D13*
X81334000Y-115334000D02*
X81334000Y-113302000D01*
X81334000Y-115334000D02*
X79302000Y-115334000D01*
X70666000Y-106698000D02*
X70666000Y-104666000D01*
X72698000Y-104666000D02*
X70666000Y-104666000D01*
X72698000Y-104666000D02*
X72698000Y-103650000D01*
D12*
X94444000Y-103777000D02*
G75*
G03X94444000Y-103777000I-127000J0D01*
G01*
D13*
X103334000Y-115334000D02*
X103334000Y-113302000D01*
X103334000Y-115334000D02*
X101302000Y-115334000D01*
X92666000Y-106698000D02*
X92666000Y-104666000D01*
X94698000Y-104666000D02*
X92666000Y-104666000D01*
X94698000Y-104666000D02*
X94698000Y-103650000D01*
D12*
X127444000Y-103777000D02*
G75*
G03X127444000Y-103777000I-127000J0D01*
G01*
D13*
X136334000Y-115334000D02*
X136334000Y-113302000D01*
X136334000Y-115334000D02*
X134302000Y-115334000D01*
X125666000Y-106698000D02*
X125666000Y-104666000D01*
X127698000Y-104666000D02*
X125666000Y-104666000D01*
X127698000Y-104666000D02*
X127698000Y-103650000D01*
D12*
X149444000Y-103777000D02*
G75*
G03X149444000Y-103777000I-127000J0D01*
G01*
D13*
X158334000Y-115334000D02*
X158334000Y-113302000D01*
X158334000Y-115334000D02*
X156302000Y-115334000D01*
X147666000Y-106698000D02*
X147666000Y-104666000D01*
X149698000Y-104666000D02*
X147666000Y-104666000D01*
X149698000Y-104666000D02*
X149698000Y-103650000D01*
D12*
X193444000Y-103777000D02*
G75*
G03X193444000Y-103777000I-127000J0D01*
G01*
D13*
X202334000Y-115334000D02*
X202334000Y-113302000D01*
X202334000Y-115334000D02*
X200302000Y-115334000D01*
X191666000Y-106698000D02*
X191666000Y-104666000D01*
X193698000Y-104666000D02*
X191666000Y-104666000D01*
X193698000Y-104666000D02*
X193698000Y-103650000D01*
D12*
X237444000Y-103777000D02*
G75*
G03X237444000Y-103777000I-127000J0D01*
G01*
D13*
X246334000Y-115334000D02*
X246334000Y-113302000D01*
X246334000Y-115334000D02*
X244302000Y-115334000D01*
X235666000Y-106698000D02*
X235666000Y-104666000D01*
X237698000Y-104666000D02*
X235666000Y-104666000D01*
X237698000Y-104666000D02*
X237698000Y-103650000D01*
D12*
X259444000Y-103777000D02*
G75*
G03X259444000Y-103777000I-127000J0D01*
G01*
D13*
X268334000Y-115334000D02*
X268334000Y-113302000D01*
X268334000Y-115334000D02*
X266302000Y-115334000D01*
X257666000Y-106698000D02*
X257666000Y-104666000D01*
X259698000Y-104666000D02*
X257666000Y-104666000D01*
X259698000Y-104666000D02*
X259698000Y-103650000D01*
D12*
X61444000Y-143777000D02*
G75*
G03X61444000Y-143777000I-127000J0D01*
G01*
D13*
X70334000Y-155334000D02*
X70334000Y-153302000D01*
X70334000Y-155334000D02*
X68302000Y-155334000D01*
X59666000Y-146698000D02*
X59666000Y-144666000D01*
X61698000Y-144666000D02*
X59666000Y-144666000D01*
X61698000Y-144666000D02*
X61698000Y-143650000D01*
D12*
X72444000Y-143777000D02*
G75*
G03X72444000Y-143777000I-127000J0D01*
G01*
D13*
X81334000Y-155334000D02*
X81334000Y-153302000D01*
X81334000Y-155334000D02*
X79302000Y-155334000D01*
X70666000Y-146698000D02*
X70666000Y-144666000D01*
X72698000Y-144666000D02*
X70666000Y-144666000D01*
X72698000Y-144666000D02*
X72698000Y-143650000D01*
D12*
X94444000Y-143777000D02*
G75*
G03X94444000Y-143777000I-127000J0D01*
G01*
D13*
X103334000Y-155334000D02*
X103334000Y-153302000D01*
X103334000Y-155334000D02*
X101302000Y-155334000D01*
X92666000Y-146698000D02*
X92666000Y-144666000D01*
X94698000Y-144666000D02*
X92666000Y-144666000D01*
X94698000Y-144666000D02*
X94698000Y-143650000D01*
D12*
X127444000Y-143777000D02*
G75*
G03X127444000Y-143777000I-127000J0D01*
G01*
D13*
X136334000Y-155334000D02*
X136334000Y-153302000D01*
X136334000Y-155334000D02*
X134302000Y-155334000D01*
X125666000Y-146698000D02*
X125666000Y-144666000D01*
X127698000Y-144666000D02*
X125666000Y-144666000D01*
X127698000Y-144666000D02*
X127698000Y-143650000D01*
D12*
X149444000Y-143777000D02*
G75*
G03X149444000Y-143777000I-127000J0D01*
G01*
D13*
X158334000Y-155334000D02*
X158334000Y-153302000D01*
X158334000Y-155334000D02*
X156302000Y-155334000D01*
X147666000Y-146698000D02*
X147666000Y-144666000D01*
X149698000Y-144666000D02*
X147666000Y-144666000D01*
X149698000Y-144666000D02*
X149698000Y-143650000D01*
D12*
X193444000Y-143777000D02*
G75*
G03X193444000Y-143777000I-127000J0D01*
G01*
D13*
X202334000Y-155334000D02*
X202334000Y-153302000D01*
X202334000Y-155334000D02*
X200302000Y-155334000D01*
X191666000Y-146698000D02*
X191666000Y-144666000D01*
X193698000Y-144666000D02*
X191666000Y-144666000D01*
X193698000Y-144666000D02*
X193698000Y-143650000D01*
D12*
X237444000Y-143777000D02*
G75*
G03X237444000Y-143777000I-127000J0D01*
G01*
D13*
X246334000Y-155334000D02*
X246334000Y-153302000D01*
X246334000Y-155334000D02*
X244302000Y-155334000D01*
X235666000Y-146698000D02*
X235666000Y-144666000D01*
X237698000Y-144666000D02*
X235666000Y-144666000D01*
X237698000Y-144666000D02*
X237698000Y-143650000D01*
D12*
X259444000Y-143777000D02*
G75*
G03X259444000Y-143777000I-127000J0D01*
G01*
D13*
X268334000Y-155334000D02*
X268334000Y-153302000D01*
X268334000Y-155334000D02*
X266302000Y-155334000D01*
X257666000Y-146698000D02*
X257666000Y-144666000D01*
X259698000Y-144666000D02*
X257666000Y-144666000D01*
X259698000Y-144666000D02*
X259698000Y-143650000D01*
D12*
X61444000Y-183777000D02*
G75*
G03X61444000Y-183777000I-127000J0D01*
G01*
D13*
X70334000Y-195334000D02*
X70334000Y-193302000D01*
X70334000Y-195334000D02*
X68302000Y-195334000D01*
X59666000Y-186698000D02*
X59666000Y-184666000D01*
X61698000Y-184666000D02*
X59666000Y-184666000D01*
X61698000Y-184666000D02*
X61698000Y-183650000D01*
D12*
X72444000Y-183777000D02*
G75*
G03X72444000Y-183777000I-127000J0D01*
G01*
D13*
X81334000Y-195334000D02*
X81334000Y-193302000D01*
X81334000Y-195334000D02*
X79302000Y-195334000D01*
X70666000Y-186698000D02*
X70666000Y-184666000D01*
X72698000Y-184666000D02*
X70666000Y-184666000D01*
X72698000Y-184666000D02*
X72698000Y-183650000D01*
D12*
X94444000Y-183777000D02*
G75*
G03X94444000Y-183777000I-127000J0D01*
G01*
D13*
X103334000Y-195334000D02*
X103334000Y-193302000D01*
X103334000Y-195334000D02*
X101302000Y-195334000D01*
X92666000Y-186698000D02*
X92666000Y-184666000D01*
X94698000Y-184666000D02*
X92666000Y-184666000D01*
X94698000Y-184666000D02*
X94698000Y-183650000D01*
D12*
X127444000Y-183777000D02*
G75*
G03X127444000Y-183777000I-127000J0D01*
G01*
D13*
X136334000Y-195334000D02*
X136334000Y-193302000D01*
X136334000Y-195334000D02*
X134302000Y-195334000D01*
X125666000Y-186698000D02*
X125666000Y-184666000D01*
X127698000Y-184666000D02*
X125666000Y-184666000D01*
X127698000Y-184666000D02*
X127698000Y-183650000D01*
D12*
X149444000Y-183777000D02*
G75*
G03X149444000Y-183777000I-127000J0D01*
G01*
D13*
X158334000Y-195334000D02*
X158334000Y-193302000D01*
X158334000Y-195334000D02*
X156302000Y-195334000D01*
X147666000Y-186698000D02*
X147666000Y-184666000D01*
X149698000Y-184666000D02*
X147666000Y-184666000D01*
X149698000Y-184666000D02*
X149698000Y-183650000D01*
D12*
X193444000Y-183777000D02*
G75*
G03X193444000Y-183777000I-127000J0D01*
G01*
D13*
X202334000Y-195334000D02*
X202334000Y-193302000D01*
X202334000Y-195334000D02*
X200302000Y-195334000D01*
X191666000Y-186698000D02*
X191666000Y-184666000D01*
X193698000Y-184666000D02*
X191666000Y-184666000D01*
X193698000Y-184666000D02*
X193698000Y-183650000D01*
D12*
X237444000Y-183777000D02*
G75*
G03X237444000Y-183777000I-127000J0D01*
G01*
D13*
X246334000Y-195334000D02*
X246334000Y-193302000D01*
X246334000Y-195334000D02*
X244302000Y-195334000D01*
X235666000Y-186698000D02*
X235666000Y-184666000D01*
X237698000Y-184666000D02*
X235666000Y-184666000D01*
X237698000Y-184666000D02*
X237698000Y-183650000D01*
D12*
X259444000Y-183777000D02*
G75*
G03X259444000Y-183777000I-127000J0D01*
G01*
D13*
X268334000Y-195334000D02*
X268334000Y-193302000D01*
X268334000Y-195334000D02*
X266302000Y-195334000D01*
X257666000Y-186698000D02*
X257666000Y-184666000D01*
X259698000Y-184666000D02*
X257666000Y-184666000D01*
X259698000Y-184666000D02*
X259698000Y-183650000D01*
D11*
X282775000Y-114375000D02*
X287225000Y-114375000D01*
X281250000Y-107625000D02*
X287225000Y-107625000D01*
D12*
X281601480Y-85756420D02*
X283001020Y-85756420D01*
X283000000Y-85750000D02*
X283000000Y-84700000D01*
X283000000Y-84700000D02*
X287000000Y-84700000D01*
X287000000Y-84700000D02*
X287000000Y-85750000D01*
X283000000Y-92250000D02*
X283000000Y-93300000D01*
X283000000Y-93300000D02*
X287000000Y-93300000D01*
X287000000Y-93300000D02*
X287000000Y-92250000D01*
D14*
X281288730Y-86142500D02*
G75*
G03X281288730Y-86142500I-68250J0D01*
G01*
D12*
X293987300Y-85378360D02*
X292580140Y-85378360D01*
X293387860Y-83681640D02*
X292580140Y-83681640D01*
D14*
X294436550Y-85027840D02*
G75*
G03X294436550Y-85027840I-68250J0D01*
G01*
D11*
X139800000Y-62725000D02*
X144200000Y-62725000D01*
X138225000Y-57275000D02*
X144200000Y-57275000D01*
X139800000Y-82725000D02*
X144200000Y-82725000D01*
X138225000Y-77275000D02*
X144200000Y-77275000D01*
X139800000Y-112725000D02*
X144200000Y-112725000D01*
X138225000Y-107275000D02*
X144200000Y-107275000D01*
X139800000Y-152725000D02*
X144200000Y-152725000D01*
X138225000Y-147275000D02*
X144200000Y-147275000D01*
X139800000Y-192725000D02*
X144200000Y-192725000D01*
X138225000Y-187275000D02*
X144200000Y-187275000D01*
X298569166Y-36952260D02*
X298235833Y-36476070D01*
X297997738Y-36952260D02*
X297997738Y-35952260D01*
X298378690Y-35952260D01*
X298473928Y-35999880D01*
X298521547Y-36047499D01*
X298569166Y-36142737D01*
X298569166Y-36285594D01*
X298521547Y-36380832D01*
X298473928Y-36428451D01*
X298378690Y-36476070D01*
X297997738Y-36476070D01*
X298997738Y-36428451D02*
X299331071Y-36428451D01*
X299473928Y-36952260D02*
X298997738Y-36952260D01*
X298997738Y-35952260D01*
X299473928Y-35952260D01*
X300235833Y-36428451D02*
X299902500Y-36428451D01*
X299902500Y-36952260D02*
X299902500Y-35952260D01*
X300378690Y-35952260D01*
X300902500Y-35952260D02*
X300902500Y-36190356D01*
X300664404Y-36095118D02*
X300902500Y-36190356D01*
X301140595Y-36095118D01*
X300759642Y-36380832D02*
X300902500Y-36190356D01*
X301045357Y-36380832D01*
X301664404Y-35952260D02*
X301664404Y-36190356D01*
X301426309Y-36095118D02*
X301664404Y-36190356D01*
X301902500Y-36095118D01*
X301521547Y-36380832D02*
X301664404Y-36190356D01*
X301807261Y-36380832D01*
X38569166Y-36952260D02*
X38235833Y-36476070D01*
X37997738Y-36952260D02*
X37997738Y-35952260D01*
X38378690Y-35952260D01*
X38473928Y-35999880D01*
X38521547Y-36047499D01*
X38569166Y-36142737D01*
X38569166Y-36285594D01*
X38521547Y-36380832D01*
X38473928Y-36428451D01*
X38378690Y-36476070D01*
X37997738Y-36476070D01*
X38997738Y-36428451D02*
X39331071Y-36428451D01*
X39473928Y-36952260D02*
X38997738Y-36952260D01*
X38997738Y-35952260D01*
X39473928Y-35952260D01*
X40235833Y-36428451D02*
X39902500Y-36428451D01*
X39902500Y-36952260D02*
X39902500Y-35952260D01*
X40378690Y-35952260D01*
X40902500Y-35952260D02*
X40902500Y-36190356D01*
X40664404Y-36095118D02*
X40902500Y-36190356D01*
X41140595Y-36095118D01*
X40759642Y-36380832D02*
X40902500Y-36190356D01*
X41045357Y-36380832D01*
X41664404Y-35952260D02*
X41664404Y-36190356D01*
X41426309Y-36095118D02*
X41664404Y-36190356D01*
X41902500Y-36095118D01*
X41521547Y-36380832D02*
X41664404Y-36190356D01*
X41807261Y-36380832D01*
X38569166Y-206952260D02*
X38235833Y-206476070D01*
X37997738Y-206952260D02*
X37997738Y-205952260D01*
X38378690Y-205952260D01*
X38473928Y-205999880D01*
X38521547Y-206047499D01*
X38569166Y-206142737D01*
X38569166Y-206285594D01*
X38521547Y-206380832D01*
X38473928Y-206428451D01*
X38378690Y-206476070D01*
X37997738Y-206476070D01*
X38997738Y-206428451D02*
X39331071Y-206428451D01*
X39473928Y-206952260D02*
X38997738Y-206952260D01*
X38997738Y-205952260D01*
X39473928Y-205952260D01*
X40235833Y-206428451D02*
X39902500Y-206428451D01*
X39902500Y-206952260D02*
X39902500Y-205952260D01*
X40378690Y-205952260D01*
X40902500Y-205952260D02*
X40902500Y-206190356D01*
X40664404Y-206095118D02*
X40902500Y-206190356D01*
X41140595Y-206095118D01*
X40759642Y-206380832D02*
X40902500Y-206190356D01*
X41045357Y-206380832D01*
X41664404Y-205952260D02*
X41664404Y-206190356D01*
X41426309Y-206095118D02*
X41664404Y-206190356D01*
X41902500Y-206095118D01*
X41521547Y-206380832D02*
X41664404Y-206190356D01*
X41807261Y-206380832D01*
X283893452Y-118737142D02*
X283845833Y-118784761D01*
X283702976Y-118832380D01*
X283607738Y-118832380D01*
X283464880Y-118784761D01*
X283369642Y-118689523D01*
X283322023Y-118594285D01*
X283274404Y-118403809D01*
X283274404Y-118260952D01*
X283322023Y-118070476D01*
X283369642Y-117975238D01*
X283464880Y-117880000D01*
X283607738Y-117832380D01*
X283702976Y-117832380D01*
X283845833Y-117880000D01*
X283893452Y-117927619D01*
X284845833Y-118832380D02*
X284274404Y-118832380D01*
X284560119Y-118832380D02*
X284560119Y-117832380D01*
X284464880Y-117975238D01*
X284369642Y-118070476D01*
X284274404Y-118118095D01*
X285464880Y-117832380D02*
X285560119Y-117832380D01*
X285655357Y-117880000D01*
X285702976Y-117927619D01*
X285750595Y-118022857D01*
X285798214Y-118213333D01*
X285798214Y-118451428D01*
X285750595Y-118641904D01*
X285702976Y-118737142D01*
X285655357Y-118784761D01*
X285560119Y-118832380D01*
X285464880Y-118832380D01*
X285369642Y-118784761D01*
X285322023Y-118737142D01*
X285274404Y-118641904D01*
X285226785Y-118451428D01*
X285226785Y-118213333D01*
X285274404Y-118022857D01*
X285322023Y-117927619D01*
X285369642Y-117880000D01*
X285464880Y-117832380D01*
X286750595Y-118832380D02*
X286179166Y-118832380D01*
X286464880Y-118832380D02*
X286464880Y-117832380D01*
X286369642Y-117975238D01*
X286274404Y-118070476D01*
X286179166Y-118118095D01*
X282277142Y-163216547D02*
X282324761Y-163264166D01*
X282372380Y-163407023D01*
X282372380Y-163502261D01*
X282324761Y-163645119D01*
X282229523Y-163740357D01*
X282134285Y-163787976D01*
X281943809Y-163835595D01*
X281800952Y-163835595D01*
X281610476Y-163787976D01*
X281515238Y-163740357D01*
X281420000Y-163645119D01*
X281372380Y-163502261D01*
X281372380Y-163407023D01*
X281420000Y-163264166D01*
X281467619Y-163216547D01*
X282372380Y-162264166D02*
X282372380Y-162835595D01*
X282372380Y-162549880D02*
X281372380Y-162549880D01*
X281515238Y-162645119D01*
X281610476Y-162740357D01*
X281658095Y-162835595D01*
X281372380Y-161645119D02*
X281372380Y-161549880D01*
X281420000Y-161454642D01*
X281467619Y-161407023D01*
X281562857Y-161359404D01*
X281753333Y-161311785D01*
X281991428Y-161311785D01*
X282181904Y-161359404D01*
X282277142Y-161407023D01*
X282324761Y-161454642D01*
X282372380Y-161549880D01*
X282372380Y-161645119D01*
X282324761Y-161740357D01*
X282277142Y-161787976D01*
X282181904Y-161835595D01*
X281991428Y-161883214D01*
X281753333Y-161883214D01*
X281562857Y-161835595D01*
X281467619Y-161787976D01*
X281420000Y-161740357D01*
X281372380Y-161645119D01*
X281467619Y-160930833D02*
X281420000Y-160883214D01*
X281372380Y-160787976D01*
X281372380Y-160549880D01*
X281420000Y-160454642D01*
X281467619Y-160407023D01*
X281562857Y-160359404D01*
X281658095Y-160359404D01*
X281800952Y-160407023D01*
X282372380Y-160978452D01*
X282372380Y-160359404D01*
X283639452Y-81009142D02*
X283591833Y-81056761D01*
X283448976Y-81104380D01*
X283353738Y-81104380D01*
X283210880Y-81056761D01*
X283115642Y-80961523D01*
X283068023Y-80866285D01*
X283020404Y-80675809D01*
X283020404Y-80532952D01*
X283068023Y-80342476D01*
X283115642Y-80247238D01*
X283210880Y-80152000D01*
X283353738Y-80104380D01*
X283448976Y-80104380D01*
X283591833Y-80152000D01*
X283639452Y-80199619D01*
X284591833Y-81104380D02*
X284020404Y-81104380D01*
X284306119Y-81104380D02*
X284306119Y-80104380D01*
X284210880Y-80247238D01*
X284115642Y-80342476D01*
X284020404Y-80390095D01*
X285210880Y-80104380D02*
X285306119Y-80104380D01*
X285401357Y-80152000D01*
X285448976Y-80199619D01*
X285496595Y-80294857D01*
X285544214Y-80485333D01*
X285544214Y-80723428D01*
X285496595Y-80913904D01*
X285448976Y-81009142D01*
X285401357Y-81056761D01*
X285306119Y-81104380D01*
X285210880Y-81104380D01*
X285115642Y-81056761D01*
X285068023Y-81009142D01*
X285020404Y-80913904D01*
X284972785Y-80723428D01*
X284972785Y-80485333D01*
X285020404Y-80294857D01*
X285068023Y-80199619D01*
X285115642Y-80152000D01*
X285210880Y-80104380D01*
X285877547Y-80104380D02*
X286496595Y-80104380D01*
X286163261Y-80485333D01*
X286306119Y-80485333D01*
X286401357Y-80532952D01*
X286448976Y-80580571D01*
X286496595Y-80675809D01*
X286496595Y-80913904D01*
X286448976Y-81009142D01*
X286401357Y-81056761D01*
X286306119Y-81104380D01*
X286020404Y-81104380D01*
X285925166Y-81056761D01*
X285877547Y-81009142D01*
X143685452Y-50343142D02*
X143637833Y-50390761D01*
X143494976Y-50438380D01*
X143399738Y-50438380D01*
X143256880Y-50390761D01*
X143161642Y-50295523D01*
X143114023Y-50200285D01*
X143066404Y-50009809D01*
X143066404Y-49866952D01*
X143114023Y-49676476D01*
X143161642Y-49581238D01*
X143256880Y-49486000D01*
X143399738Y-49438380D01*
X143494976Y-49438380D01*
X143637833Y-49486000D01*
X143685452Y-49533619D01*
X144066404Y-49533619D02*
X144114023Y-49486000D01*
X144209261Y-49438380D01*
X144447357Y-49438380D01*
X144542595Y-49486000D01*
X144590214Y-49533619D01*
X144637833Y-49628857D01*
X144637833Y-49724095D01*
X144590214Y-49866952D01*
X144018785Y-50438380D01*
X144637833Y-50438380D01*
X145256880Y-49438380D02*
X145352119Y-49438380D01*
X145447357Y-49486000D01*
X145494976Y-49533619D01*
X145542595Y-49628857D01*
X145590214Y-49819333D01*
X145590214Y-50057428D01*
X145542595Y-50247904D01*
X145494976Y-50343142D01*
X145447357Y-50390761D01*
X145352119Y-50438380D01*
X145256880Y-50438380D01*
X145161642Y-50390761D01*
X145114023Y-50343142D01*
X145066404Y-50247904D01*
X145018785Y-50057428D01*
X145018785Y-49819333D01*
X145066404Y-49628857D01*
X145114023Y-49533619D01*
X145161642Y-49486000D01*
X145256880Y-49438380D01*
X146542595Y-50438380D02*
X145971166Y-50438380D01*
X146256880Y-50438380D02*
X146256880Y-49438380D01*
X146161642Y-49581238D01*
X146066404Y-49676476D01*
X145971166Y-49724095D01*
X144447452Y-70663142D02*
X144399833Y-70710761D01*
X144256976Y-70758380D01*
X144161738Y-70758380D01*
X144018880Y-70710761D01*
X143923642Y-70615523D01*
X143876023Y-70520285D01*
X143828404Y-70329809D01*
X143828404Y-70186952D01*
X143876023Y-69996476D01*
X143923642Y-69901238D01*
X144018880Y-69806000D01*
X144161738Y-69758380D01*
X144256976Y-69758380D01*
X144399833Y-69806000D01*
X144447452Y-69853619D01*
X144780785Y-69758380D02*
X145399833Y-69758380D01*
X145066500Y-70139333D01*
X145209357Y-70139333D01*
X145304595Y-70186952D01*
X145352214Y-70234571D01*
X145399833Y-70329809D01*
X145399833Y-70567904D01*
X145352214Y-70663142D01*
X145304595Y-70710761D01*
X145209357Y-70758380D01*
X144923642Y-70758380D01*
X144828404Y-70710761D01*
X144780785Y-70663142D01*
X146018880Y-69758380D02*
X146114119Y-69758380D01*
X146209357Y-69806000D01*
X146256976Y-69853619D01*
X146304595Y-69948857D01*
X146352214Y-70139333D01*
X146352214Y-70377428D01*
X146304595Y-70567904D01*
X146256976Y-70663142D01*
X146209357Y-70710761D01*
X146114119Y-70758380D01*
X146018880Y-70758380D01*
X145923642Y-70710761D01*
X145876023Y-70663142D01*
X145828404Y-70567904D01*
X145780785Y-70377428D01*
X145780785Y-70139333D01*
X145828404Y-69948857D01*
X145876023Y-69853619D01*
X145923642Y-69806000D01*
X146018880Y-69758380D01*
X147304595Y-70758380D02*
X146733166Y-70758380D01*
X147018880Y-70758380D02*
X147018880Y-69758380D01*
X146923642Y-69901238D01*
X146828404Y-69996476D01*
X146733166Y-70044095D01*
X144447452Y-100127142D02*
X144399833Y-100174761D01*
X144256976Y-100222380D01*
X144161738Y-100222380D01*
X144018880Y-100174761D01*
X143923642Y-100079523D01*
X143876023Y-99984285D01*
X143828404Y-99793809D01*
X143828404Y-99650952D01*
X143876023Y-99460476D01*
X143923642Y-99365238D01*
X144018880Y-99270000D01*
X144161738Y-99222380D01*
X144256976Y-99222380D01*
X144399833Y-99270000D01*
X144447452Y-99317619D01*
X145304595Y-99555714D02*
X145304595Y-100222380D01*
X145066500Y-99174761D02*
X144828404Y-99889047D01*
X145447452Y-99889047D01*
X146018880Y-99222380D02*
X146114119Y-99222380D01*
X146209357Y-99270000D01*
X146256976Y-99317619D01*
X146304595Y-99412857D01*
X146352214Y-99603333D01*
X146352214Y-99841428D01*
X146304595Y-100031904D01*
X146256976Y-100127142D01*
X146209357Y-100174761D01*
X146114119Y-100222380D01*
X146018880Y-100222380D01*
X145923642Y-100174761D01*
X145876023Y-100127142D01*
X145828404Y-100031904D01*
X145780785Y-99841428D01*
X145780785Y-99603333D01*
X145828404Y-99412857D01*
X145876023Y-99317619D01*
X145923642Y-99270000D01*
X146018880Y-99222380D01*
X147304595Y-100222380D02*
X146733166Y-100222380D01*
X147018880Y-100222380D02*
X147018880Y-99222380D01*
X146923642Y-99365238D01*
X146828404Y-99460476D01*
X146733166Y-99508095D01*
X143939452Y-140005142D02*
X143891833Y-140052761D01*
X143748976Y-140100380D01*
X143653738Y-140100380D01*
X143510880Y-140052761D01*
X143415642Y-139957523D01*
X143368023Y-139862285D01*
X143320404Y-139671809D01*
X143320404Y-139528952D01*
X143368023Y-139338476D01*
X143415642Y-139243238D01*
X143510880Y-139148000D01*
X143653738Y-139100380D01*
X143748976Y-139100380D01*
X143891833Y-139148000D01*
X143939452Y-139195619D01*
X144844214Y-139100380D02*
X144368023Y-139100380D01*
X144320404Y-139576571D01*
X144368023Y-139528952D01*
X144463261Y-139481333D01*
X144701357Y-139481333D01*
X144796595Y-139528952D01*
X144844214Y-139576571D01*
X144891833Y-139671809D01*
X144891833Y-139909904D01*
X144844214Y-140005142D01*
X144796595Y-140052761D01*
X144701357Y-140100380D01*
X144463261Y-140100380D01*
X144368023Y-140052761D01*
X144320404Y-140005142D01*
X145510880Y-139100380D02*
X145606119Y-139100380D01*
X145701357Y-139148000D01*
X145748976Y-139195619D01*
X145796595Y-139290857D01*
X145844214Y-139481333D01*
X145844214Y-139719428D01*
X145796595Y-139909904D01*
X145748976Y-140005142D01*
X145701357Y-140052761D01*
X145606119Y-140100380D01*
X145510880Y-140100380D01*
X145415642Y-140052761D01*
X145368023Y-140005142D01*
X145320404Y-139909904D01*
X145272785Y-139719428D01*
X145272785Y-139481333D01*
X145320404Y-139290857D01*
X145368023Y-139195619D01*
X145415642Y-139148000D01*
X145510880Y-139100380D01*
X146796595Y-140100380D02*
X146225166Y-140100380D01*
X146510880Y-140100380D02*
X146510880Y-139100380D01*
X146415642Y-139243238D01*
X146320404Y-139338476D01*
X146225166Y-139386095D01*
X144193452Y-179629142D02*
X144145833Y-179676761D01*
X144002976Y-179724380D01*
X143907738Y-179724380D01*
X143764880Y-179676761D01*
X143669642Y-179581523D01*
X143622023Y-179486285D01*
X143574404Y-179295809D01*
X143574404Y-179152952D01*
X143622023Y-178962476D01*
X143669642Y-178867238D01*
X143764880Y-178772000D01*
X143907738Y-178724380D01*
X144002976Y-178724380D01*
X144145833Y-178772000D01*
X144193452Y-178819619D01*
X145050595Y-178724380D02*
X144860119Y-178724380D01*
X144764880Y-178772000D01*
X144717261Y-178819619D01*
X144622023Y-178962476D01*
X144574404Y-179152952D01*
X144574404Y-179533904D01*
X144622023Y-179629142D01*
X144669642Y-179676761D01*
X144764880Y-179724380D01*
X144955357Y-179724380D01*
X145050595Y-179676761D01*
X145098214Y-179629142D01*
X145145833Y-179533904D01*
X145145833Y-179295809D01*
X145098214Y-179200571D01*
X145050595Y-179152952D01*
X144955357Y-179105333D01*
X144764880Y-179105333D01*
X144669642Y-179152952D01*
X144622023Y-179200571D01*
X144574404Y-179295809D01*
X145764880Y-178724380D02*
X145860119Y-178724380D01*
X145955357Y-178772000D01*
X146002976Y-178819619D01*
X146050595Y-178914857D01*
X146098214Y-179105333D01*
X146098214Y-179343428D01*
X146050595Y-179533904D01*
X146002976Y-179629142D01*
X145955357Y-179676761D01*
X145860119Y-179724380D01*
X145764880Y-179724380D01*
X145669642Y-179676761D01*
X145622023Y-179629142D01*
X145574404Y-179533904D01*
X145526785Y-179343428D01*
X145526785Y-179105333D01*
X145574404Y-178914857D01*
X145622023Y-178819619D01*
X145669642Y-178772000D01*
X145764880Y-178724380D01*
X147050595Y-179724380D02*
X146479166Y-179724380D01*
X146764880Y-179724380D02*
X146764880Y-178724380D01*
X146669642Y-178867238D01*
X146574404Y-178962476D01*
X146479166Y-179010095D01*
X62402500Y-52324380D02*
X62402500Y-51324380D01*
X62735833Y-52038666D01*
X63069166Y-51324380D01*
X63069166Y-52324380D01*
X63545357Y-52324380D02*
X63545357Y-51324380D01*
X64592976Y-52229142D02*
X64545357Y-52276761D01*
X64402500Y-52324380D01*
X64307261Y-52324380D01*
X64164404Y-52276761D01*
X64069166Y-52181523D01*
X64021547Y-52086285D01*
X63973928Y-51895809D01*
X63973928Y-51752952D01*
X64021547Y-51562476D01*
X64069166Y-51467238D01*
X64164404Y-51372000D01*
X64307261Y-51324380D01*
X64402500Y-51324380D01*
X64545357Y-51372000D01*
X64592976Y-51419619D01*
X64973928Y-51419619D02*
X65021547Y-51372000D01*
X65116785Y-51324380D01*
X65354880Y-51324380D01*
X65450119Y-51372000D01*
X65497738Y-51419619D01*
X65545357Y-51514857D01*
X65545357Y-51610095D01*
X65497738Y-51752952D01*
X64926309Y-52324380D01*
X65545357Y-52324380D01*
X66164404Y-51324380D02*
X66259642Y-51324380D01*
X66354880Y-51372000D01*
X66402500Y-51419619D01*
X66450119Y-51514857D01*
X66497738Y-51705333D01*
X66497738Y-51943428D01*
X66450119Y-52133904D01*
X66402500Y-52229142D01*
X66354880Y-52276761D01*
X66259642Y-52324380D01*
X66164404Y-52324380D01*
X66069166Y-52276761D01*
X66021547Y-52229142D01*
X65973928Y-52133904D01*
X65926309Y-51943428D01*
X65926309Y-51705333D01*
X65973928Y-51514857D01*
X66021547Y-51419619D01*
X66069166Y-51372000D01*
X66164404Y-51324380D01*
X67450119Y-52324380D02*
X66878690Y-52324380D01*
X67164404Y-52324380D02*
X67164404Y-51324380D01*
X67069166Y-51467238D01*
X66973928Y-51562476D01*
X66878690Y-51610095D01*
X73402500Y-52324380D02*
X73402500Y-51324380D01*
X73735833Y-52038666D01*
X74069166Y-51324380D01*
X74069166Y-52324380D01*
X74545357Y-52324380D02*
X74545357Y-51324380D01*
X75592976Y-52229142D02*
X75545357Y-52276761D01*
X75402500Y-52324380D01*
X75307261Y-52324380D01*
X75164404Y-52276761D01*
X75069166Y-52181523D01*
X75021547Y-52086285D01*
X74973928Y-51895809D01*
X74973928Y-51752952D01*
X75021547Y-51562476D01*
X75069166Y-51467238D01*
X75164404Y-51372000D01*
X75307261Y-51324380D01*
X75402500Y-51324380D01*
X75545357Y-51372000D01*
X75592976Y-51419619D01*
X75973928Y-51419619D02*
X76021547Y-51372000D01*
X76116785Y-51324380D01*
X76354880Y-51324380D01*
X76450119Y-51372000D01*
X76497738Y-51419619D01*
X76545357Y-51514857D01*
X76545357Y-51610095D01*
X76497738Y-51752952D01*
X75926309Y-52324380D01*
X76545357Y-52324380D01*
X77164404Y-51324380D02*
X77259642Y-51324380D01*
X77354880Y-51372000D01*
X77402500Y-51419619D01*
X77450119Y-51514857D01*
X77497738Y-51705333D01*
X77497738Y-51943428D01*
X77450119Y-52133904D01*
X77402500Y-52229142D01*
X77354880Y-52276761D01*
X77259642Y-52324380D01*
X77164404Y-52324380D01*
X77069166Y-52276761D01*
X77021547Y-52229142D01*
X76973928Y-52133904D01*
X76926309Y-51943428D01*
X76926309Y-51705333D01*
X76973928Y-51514857D01*
X77021547Y-51419619D01*
X77069166Y-51372000D01*
X77164404Y-51324380D01*
X77878690Y-51419619D02*
X77926309Y-51372000D01*
X78021547Y-51324380D01*
X78259642Y-51324380D01*
X78354880Y-51372000D01*
X78402500Y-51419619D01*
X78450119Y-51514857D01*
X78450119Y-51610095D01*
X78402500Y-51752952D01*
X77831071Y-52324380D01*
X78450119Y-52324380D01*
X95402500Y-52324380D02*
X95402500Y-51324380D01*
X95735833Y-52038666D01*
X96069166Y-51324380D01*
X96069166Y-52324380D01*
X96545357Y-52324380D02*
X96545357Y-51324380D01*
X97592976Y-52229142D02*
X97545357Y-52276761D01*
X97402500Y-52324380D01*
X97307261Y-52324380D01*
X97164404Y-52276761D01*
X97069166Y-52181523D01*
X97021547Y-52086285D01*
X96973928Y-51895809D01*
X96973928Y-51752952D01*
X97021547Y-51562476D01*
X97069166Y-51467238D01*
X97164404Y-51372000D01*
X97307261Y-51324380D01*
X97402500Y-51324380D01*
X97545357Y-51372000D01*
X97592976Y-51419619D01*
X97973928Y-51419619D02*
X98021547Y-51372000D01*
X98116785Y-51324380D01*
X98354880Y-51324380D01*
X98450119Y-51372000D01*
X98497738Y-51419619D01*
X98545357Y-51514857D01*
X98545357Y-51610095D01*
X98497738Y-51752952D01*
X97926309Y-52324380D01*
X98545357Y-52324380D01*
X99164404Y-51324380D02*
X99259642Y-51324380D01*
X99354880Y-51372000D01*
X99402500Y-51419619D01*
X99450119Y-51514857D01*
X99497738Y-51705333D01*
X99497738Y-51943428D01*
X99450119Y-52133904D01*
X99402500Y-52229142D01*
X99354880Y-52276761D01*
X99259642Y-52324380D01*
X99164404Y-52324380D01*
X99069166Y-52276761D01*
X99021547Y-52229142D01*
X98973928Y-52133904D01*
X98926309Y-51943428D01*
X98926309Y-51705333D01*
X98973928Y-51514857D01*
X99021547Y-51419619D01*
X99069166Y-51372000D01*
X99164404Y-51324380D01*
X99831071Y-51324380D02*
X100450119Y-51324380D01*
X100116785Y-51705333D01*
X100259642Y-51705333D01*
X100354880Y-51752952D01*
X100402500Y-51800571D01*
X100450119Y-51895809D01*
X100450119Y-52133904D01*
X100402500Y-52229142D01*
X100354880Y-52276761D01*
X100259642Y-52324380D01*
X99973928Y-52324380D01*
X99878690Y-52276761D01*
X99831071Y-52229142D01*
X128402500Y-52324380D02*
X128402500Y-51324380D01*
X128735833Y-52038666D01*
X129069166Y-51324380D01*
X129069166Y-52324380D01*
X129545357Y-52324380D02*
X129545357Y-51324380D01*
X130592976Y-52229142D02*
X130545357Y-52276761D01*
X130402500Y-52324380D01*
X130307261Y-52324380D01*
X130164404Y-52276761D01*
X130069166Y-52181523D01*
X130021547Y-52086285D01*
X129973928Y-51895809D01*
X129973928Y-51752952D01*
X130021547Y-51562476D01*
X130069166Y-51467238D01*
X130164404Y-51372000D01*
X130307261Y-51324380D01*
X130402500Y-51324380D01*
X130545357Y-51372000D01*
X130592976Y-51419619D01*
X130973928Y-51419619D02*
X131021547Y-51372000D01*
X131116785Y-51324380D01*
X131354880Y-51324380D01*
X131450119Y-51372000D01*
X131497738Y-51419619D01*
X131545357Y-51514857D01*
X131545357Y-51610095D01*
X131497738Y-51752952D01*
X130926309Y-52324380D01*
X131545357Y-52324380D01*
X132164404Y-51324380D02*
X132259642Y-51324380D01*
X132354880Y-51372000D01*
X132402500Y-51419619D01*
X132450119Y-51514857D01*
X132497738Y-51705333D01*
X132497738Y-51943428D01*
X132450119Y-52133904D01*
X132402500Y-52229142D01*
X132354880Y-52276761D01*
X132259642Y-52324380D01*
X132164404Y-52324380D01*
X132069166Y-52276761D01*
X132021547Y-52229142D01*
X131973928Y-52133904D01*
X131926309Y-51943428D01*
X131926309Y-51705333D01*
X131973928Y-51514857D01*
X132021547Y-51419619D01*
X132069166Y-51372000D01*
X132164404Y-51324380D01*
X133354880Y-51657714D02*
X133354880Y-52324380D01*
X133116785Y-51276761D02*
X132878690Y-51991047D01*
X133497738Y-51991047D01*
X150402500Y-52324380D02*
X150402500Y-51324380D01*
X150735833Y-52038666D01*
X151069166Y-51324380D01*
X151069166Y-52324380D01*
X151545357Y-52324380D02*
X151545357Y-51324380D01*
X152592976Y-52229142D02*
X152545357Y-52276761D01*
X152402500Y-52324380D01*
X152307261Y-52324380D01*
X152164404Y-52276761D01*
X152069166Y-52181523D01*
X152021547Y-52086285D01*
X151973928Y-51895809D01*
X151973928Y-51752952D01*
X152021547Y-51562476D01*
X152069166Y-51467238D01*
X152164404Y-51372000D01*
X152307261Y-51324380D01*
X152402500Y-51324380D01*
X152545357Y-51372000D01*
X152592976Y-51419619D01*
X152973928Y-51419619D02*
X153021547Y-51372000D01*
X153116785Y-51324380D01*
X153354880Y-51324380D01*
X153450119Y-51372000D01*
X153497738Y-51419619D01*
X153545357Y-51514857D01*
X153545357Y-51610095D01*
X153497738Y-51752952D01*
X152926309Y-52324380D01*
X153545357Y-52324380D01*
X154164404Y-51324380D02*
X154259642Y-51324380D01*
X154354880Y-51372000D01*
X154402500Y-51419619D01*
X154450119Y-51514857D01*
X154497738Y-51705333D01*
X154497738Y-51943428D01*
X154450119Y-52133904D01*
X154402500Y-52229142D01*
X154354880Y-52276761D01*
X154259642Y-52324380D01*
X154164404Y-52324380D01*
X154069166Y-52276761D01*
X154021547Y-52229142D01*
X153973928Y-52133904D01*
X153926309Y-51943428D01*
X153926309Y-51705333D01*
X153973928Y-51514857D01*
X154021547Y-51419619D01*
X154069166Y-51372000D01*
X154164404Y-51324380D01*
X155402500Y-51324380D02*
X154926309Y-51324380D01*
X154878690Y-51800571D01*
X154926309Y-51752952D01*
X155021547Y-51705333D01*
X155259642Y-51705333D01*
X155354880Y-51752952D01*
X155402500Y-51800571D01*
X155450119Y-51895809D01*
X155450119Y-52133904D01*
X155402500Y-52229142D01*
X155354880Y-52276761D01*
X155259642Y-52324380D01*
X155021547Y-52324380D01*
X154926309Y-52276761D01*
X154878690Y-52229142D01*
X194402500Y-52324380D02*
X194402500Y-51324380D01*
X194735833Y-52038666D01*
X195069166Y-51324380D01*
X195069166Y-52324380D01*
X195545357Y-52324380D02*
X195545357Y-51324380D01*
X196592976Y-52229142D02*
X196545357Y-52276761D01*
X196402500Y-52324380D01*
X196307261Y-52324380D01*
X196164404Y-52276761D01*
X196069166Y-52181523D01*
X196021547Y-52086285D01*
X195973928Y-51895809D01*
X195973928Y-51752952D01*
X196021547Y-51562476D01*
X196069166Y-51467238D01*
X196164404Y-51372000D01*
X196307261Y-51324380D01*
X196402500Y-51324380D01*
X196545357Y-51372000D01*
X196592976Y-51419619D01*
X196973928Y-51419619D02*
X197021547Y-51372000D01*
X197116785Y-51324380D01*
X197354880Y-51324380D01*
X197450119Y-51372000D01*
X197497738Y-51419619D01*
X197545357Y-51514857D01*
X197545357Y-51610095D01*
X197497738Y-51752952D01*
X196926309Y-52324380D01*
X197545357Y-52324380D01*
X198164404Y-51324380D02*
X198259642Y-51324380D01*
X198354880Y-51372000D01*
X198402500Y-51419619D01*
X198450119Y-51514857D01*
X198497738Y-51705333D01*
X198497738Y-51943428D01*
X198450119Y-52133904D01*
X198402500Y-52229142D01*
X198354880Y-52276761D01*
X198259642Y-52324380D01*
X198164404Y-52324380D01*
X198069166Y-52276761D01*
X198021547Y-52229142D01*
X197973928Y-52133904D01*
X197926309Y-51943428D01*
X197926309Y-51705333D01*
X197973928Y-51514857D01*
X198021547Y-51419619D01*
X198069166Y-51372000D01*
X198164404Y-51324380D01*
X199354880Y-51324380D02*
X199164404Y-51324380D01*
X199069166Y-51372000D01*
X199021547Y-51419619D01*
X198926309Y-51562476D01*
X198878690Y-51752952D01*
X198878690Y-52133904D01*
X198926309Y-52229142D01*
X198973928Y-52276761D01*
X199069166Y-52324380D01*
X199259642Y-52324380D01*
X199354880Y-52276761D01*
X199402500Y-52229142D01*
X199450119Y-52133904D01*
X199450119Y-51895809D01*
X199402500Y-51800571D01*
X199354880Y-51752952D01*
X199259642Y-51705333D01*
X199069166Y-51705333D01*
X198973928Y-51752952D01*
X198926309Y-51800571D01*
X198878690Y-51895809D01*
X238402500Y-52324380D02*
X238402500Y-51324380D01*
X238735833Y-52038666D01*
X239069166Y-51324380D01*
X239069166Y-52324380D01*
X239545357Y-52324380D02*
X239545357Y-51324380D01*
X240592976Y-52229142D02*
X240545357Y-52276761D01*
X240402500Y-52324380D01*
X240307261Y-52324380D01*
X240164404Y-52276761D01*
X240069166Y-52181523D01*
X240021547Y-52086285D01*
X239973928Y-51895809D01*
X239973928Y-51752952D01*
X240021547Y-51562476D01*
X240069166Y-51467238D01*
X240164404Y-51372000D01*
X240307261Y-51324380D01*
X240402500Y-51324380D01*
X240545357Y-51372000D01*
X240592976Y-51419619D01*
X240973928Y-51419619D02*
X241021547Y-51372000D01*
X241116785Y-51324380D01*
X241354880Y-51324380D01*
X241450119Y-51372000D01*
X241497738Y-51419619D01*
X241545357Y-51514857D01*
X241545357Y-51610095D01*
X241497738Y-51752952D01*
X240926309Y-52324380D01*
X241545357Y-52324380D01*
X242164404Y-51324380D02*
X242259642Y-51324380D01*
X242354880Y-51372000D01*
X242402500Y-51419619D01*
X242450119Y-51514857D01*
X242497738Y-51705333D01*
X242497738Y-51943428D01*
X242450119Y-52133904D01*
X242402500Y-52229142D01*
X242354880Y-52276761D01*
X242259642Y-52324380D01*
X242164404Y-52324380D01*
X242069166Y-52276761D01*
X242021547Y-52229142D01*
X241973928Y-52133904D01*
X241926309Y-51943428D01*
X241926309Y-51705333D01*
X241973928Y-51514857D01*
X242021547Y-51419619D01*
X242069166Y-51372000D01*
X242164404Y-51324380D01*
X242831071Y-51324380D02*
X243497738Y-51324380D01*
X243069166Y-52324380D01*
X260402500Y-52324380D02*
X260402500Y-51324380D01*
X260735833Y-52038666D01*
X261069166Y-51324380D01*
X261069166Y-52324380D01*
X261545357Y-52324380D02*
X261545357Y-51324380D01*
X262592976Y-52229142D02*
X262545357Y-52276761D01*
X262402500Y-52324380D01*
X262307261Y-52324380D01*
X262164404Y-52276761D01*
X262069166Y-52181523D01*
X262021547Y-52086285D01*
X261973928Y-51895809D01*
X261973928Y-51752952D01*
X262021547Y-51562476D01*
X262069166Y-51467238D01*
X262164404Y-51372000D01*
X262307261Y-51324380D01*
X262402500Y-51324380D01*
X262545357Y-51372000D01*
X262592976Y-51419619D01*
X262973928Y-51419619D02*
X263021547Y-51372000D01*
X263116785Y-51324380D01*
X263354880Y-51324380D01*
X263450119Y-51372000D01*
X263497738Y-51419619D01*
X263545357Y-51514857D01*
X263545357Y-51610095D01*
X263497738Y-51752952D01*
X262926309Y-52324380D01*
X263545357Y-52324380D01*
X264164404Y-51324380D02*
X264259642Y-51324380D01*
X264354880Y-51372000D01*
X264402500Y-51419619D01*
X264450119Y-51514857D01*
X264497738Y-51705333D01*
X264497738Y-51943428D01*
X264450119Y-52133904D01*
X264402500Y-52229142D01*
X264354880Y-52276761D01*
X264259642Y-52324380D01*
X264164404Y-52324380D01*
X264069166Y-52276761D01*
X264021547Y-52229142D01*
X263973928Y-52133904D01*
X263926309Y-51943428D01*
X263926309Y-51705333D01*
X263973928Y-51514857D01*
X264021547Y-51419619D01*
X264069166Y-51372000D01*
X264164404Y-51324380D01*
X265069166Y-51752952D02*
X264973928Y-51705333D01*
X264926309Y-51657714D01*
X264878690Y-51562476D01*
X264878690Y-51514857D01*
X264926309Y-51419619D01*
X264973928Y-51372000D01*
X265069166Y-51324380D01*
X265259642Y-51324380D01*
X265354880Y-51372000D01*
X265402500Y-51419619D01*
X265450119Y-51514857D01*
X265450119Y-51562476D01*
X265402500Y-51657714D01*
X265354880Y-51705333D01*
X265259642Y-51752952D01*
X265069166Y-51752952D01*
X264973928Y-51800571D01*
X264926309Y-51848190D01*
X264878690Y-51943428D01*
X264878690Y-52133904D01*
X264926309Y-52229142D01*
X264973928Y-52276761D01*
X265069166Y-52324380D01*
X265259642Y-52324380D01*
X265354880Y-52276761D01*
X265402500Y-52229142D01*
X265450119Y-52133904D01*
X265450119Y-51943428D01*
X265402500Y-51848190D01*
X265354880Y-51800571D01*
X265259642Y-51752952D01*
X62402500Y-72324380D02*
X62402500Y-71324380D01*
X62735833Y-72038666D01*
X63069166Y-71324380D01*
X63069166Y-72324380D01*
X63545357Y-72324380D02*
X63545357Y-71324380D01*
X64592976Y-72229142D02*
X64545357Y-72276761D01*
X64402500Y-72324380D01*
X64307261Y-72324380D01*
X64164404Y-72276761D01*
X64069166Y-72181523D01*
X64021547Y-72086285D01*
X63973928Y-71895809D01*
X63973928Y-71752952D01*
X64021547Y-71562476D01*
X64069166Y-71467238D01*
X64164404Y-71372000D01*
X64307261Y-71324380D01*
X64402500Y-71324380D01*
X64545357Y-71372000D01*
X64592976Y-71419619D01*
X64926309Y-71324380D02*
X65545357Y-71324380D01*
X65212023Y-71705333D01*
X65354880Y-71705333D01*
X65450119Y-71752952D01*
X65497738Y-71800571D01*
X65545357Y-71895809D01*
X65545357Y-72133904D01*
X65497738Y-72229142D01*
X65450119Y-72276761D01*
X65354880Y-72324380D01*
X65069166Y-72324380D01*
X64973928Y-72276761D01*
X64926309Y-72229142D01*
X66164404Y-71324380D02*
X66259642Y-71324380D01*
X66354880Y-71372000D01*
X66402500Y-71419619D01*
X66450119Y-71514857D01*
X66497738Y-71705333D01*
X66497738Y-71943428D01*
X66450119Y-72133904D01*
X66402500Y-72229142D01*
X66354880Y-72276761D01*
X66259642Y-72324380D01*
X66164404Y-72324380D01*
X66069166Y-72276761D01*
X66021547Y-72229142D01*
X65973928Y-72133904D01*
X65926309Y-71943428D01*
X65926309Y-71705333D01*
X65973928Y-71514857D01*
X66021547Y-71419619D01*
X66069166Y-71372000D01*
X66164404Y-71324380D01*
X67450119Y-72324380D02*
X66878690Y-72324380D01*
X67164404Y-72324380D02*
X67164404Y-71324380D01*
X67069166Y-71467238D01*
X66973928Y-71562476D01*
X66878690Y-71610095D01*
X73402500Y-72324380D02*
X73402500Y-71324380D01*
X73735833Y-72038666D01*
X74069166Y-71324380D01*
X74069166Y-72324380D01*
X74545357Y-72324380D02*
X74545357Y-71324380D01*
X75592976Y-72229142D02*
X75545357Y-72276761D01*
X75402500Y-72324380D01*
X75307261Y-72324380D01*
X75164404Y-72276761D01*
X75069166Y-72181523D01*
X75021547Y-72086285D01*
X74973928Y-71895809D01*
X74973928Y-71752952D01*
X75021547Y-71562476D01*
X75069166Y-71467238D01*
X75164404Y-71372000D01*
X75307261Y-71324380D01*
X75402500Y-71324380D01*
X75545357Y-71372000D01*
X75592976Y-71419619D01*
X75926309Y-71324380D02*
X76545357Y-71324380D01*
X76212023Y-71705333D01*
X76354880Y-71705333D01*
X76450119Y-71752952D01*
X76497738Y-71800571D01*
X76545357Y-71895809D01*
X76545357Y-72133904D01*
X76497738Y-72229142D01*
X76450119Y-72276761D01*
X76354880Y-72324380D01*
X76069166Y-72324380D01*
X75973928Y-72276761D01*
X75926309Y-72229142D01*
X77164404Y-71324380D02*
X77259642Y-71324380D01*
X77354880Y-71372000D01*
X77402500Y-71419619D01*
X77450119Y-71514857D01*
X77497738Y-71705333D01*
X77497738Y-71943428D01*
X77450119Y-72133904D01*
X77402500Y-72229142D01*
X77354880Y-72276761D01*
X77259642Y-72324380D01*
X77164404Y-72324380D01*
X77069166Y-72276761D01*
X77021547Y-72229142D01*
X76973928Y-72133904D01*
X76926309Y-71943428D01*
X76926309Y-71705333D01*
X76973928Y-71514857D01*
X77021547Y-71419619D01*
X77069166Y-71372000D01*
X77164404Y-71324380D01*
X77878690Y-71419619D02*
X77926309Y-71372000D01*
X78021547Y-71324380D01*
X78259642Y-71324380D01*
X78354880Y-71372000D01*
X78402500Y-71419619D01*
X78450119Y-71514857D01*
X78450119Y-71610095D01*
X78402500Y-71752952D01*
X77831071Y-72324380D01*
X78450119Y-72324380D01*
X95402500Y-72324380D02*
X95402500Y-71324380D01*
X95735833Y-72038666D01*
X96069166Y-71324380D01*
X96069166Y-72324380D01*
X96545357Y-72324380D02*
X96545357Y-71324380D01*
X97592976Y-72229142D02*
X97545357Y-72276761D01*
X97402500Y-72324380D01*
X97307261Y-72324380D01*
X97164404Y-72276761D01*
X97069166Y-72181523D01*
X97021547Y-72086285D01*
X96973928Y-71895809D01*
X96973928Y-71752952D01*
X97021547Y-71562476D01*
X97069166Y-71467238D01*
X97164404Y-71372000D01*
X97307261Y-71324380D01*
X97402500Y-71324380D01*
X97545357Y-71372000D01*
X97592976Y-71419619D01*
X97926309Y-71324380D02*
X98545357Y-71324380D01*
X98212023Y-71705333D01*
X98354880Y-71705333D01*
X98450119Y-71752952D01*
X98497738Y-71800571D01*
X98545357Y-71895809D01*
X98545357Y-72133904D01*
X98497738Y-72229142D01*
X98450119Y-72276761D01*
X98354880Y-72324380D01*
X98069166Y-72324380D01*
X97973928Y-72276761D01*
X97926309Y-72229142D01*
X99164404Y-71324380D02*
X99259642Y-71324380D01*
X99354880Y-71372000D01*
X99402500Y-71419619D01*
X99450119Y-71514857D01*
X99497738Y-71705333D01*
X99497738Y-71943428D01*
X99450119Y-72133904D01*
X99402500Y-72229142D01*
X99354880Y-72276761D01*
X99259642Y-72324380D01*
X99164404Y-72324380D01*
X99069166Y-72276761D01*
X99021547Y-72229142D01*
X98973928Y-72133904D01*
X98926309Y-71943428D01*
X98926309Y-71705333D01*
X98973928Y-71514857D01*
X99021547Y-71419619D01*
X99069166Y-71372000D01*
X99164404Y-71324380D01*
X99831071Y-71324380D02*
X100450119Y-71324380D01*
X100116785Y-71705333D01*
X100259642Y-71705333D01*
X100354880Y-71752952D01*
X100402500Y-71800571D01*
X100450119Y-71895809D01*
X100450119Y-72133904D01*
X100402500Y-72229142D01*
X100354880Y-72276761D01*
X100259642Y-72324380D01*
X99973928Y-72324380D01*
X99878690Y-72276761D01*
X99831071Y-72229142D01*
X128402500Y-72324380D02*
X128402500Y-71324380D01*
X128735833Y-72038666D01*
X129069166Y-71324380D01*
X129069166Y-72324380D01*
X129545357Y-72324380D02*
X129545357Y-71324380D01*
X130592976Y-72229142D02*
X130545357Y-72276761D01*
X130402500Y-72324380D01*
X130307261Y-72324380D01*
X130164404Y-72276761D01*
X130069166Y-72181523D01*
X130021547Y-72086285D01*
X129973928Y-71895809D01*
X129973928Y-71752952D01*
X130021547Y-71562476D01*
X130069166Y-71467238D01*
X130164404Y-71372000D01*
X130307261Y-71324380D01*
X130402500Y-71324380D01*
X130545357Y-71372000D01*
X130592976Y-71419619D01*
X130926309Y-71324380D02*
X131545357Y-71324380D01*
X131212023Y-71705333D01*
X131354880Y-71705333D01*
X131450119Y-71752952D01*
X131497738Y-71800571D01*
X131545357Y-71895809D01*
X131545357Y-72133904D01*
X131497738Y-72229142D01*
X131450119Y-72276761D01*
X131354880Y-72324380D01*
X131069166Y-72324380D01*
X130973928Y-72276761D01*
X130926309Y-72229142D01*
X132164404Y-71324380D02*
X132259642Y-71324380D01*
X132354880Y-71372000D01*
X132402500Y-71419619D01*
X132450119Y-71514857D01*
X132497738Y-71705333D01*
X132497738Y-71943428D01*
X132450119Y-72133904D01*
X132402500Y-72229142D01*
X132354880Y-72276761D01*
X132259642Y-72324380D01*
X132164404Y-72324380D01*
X132069166Y-72276761D01*
X132021547Y-72229142D01*
X131973928Y-72133904D01*
X131926309Y-71943428D01*
X131926309Y-71705333D01*
X131973928Y-71514857D01*
X132021547Y-71419619D01*
X132069166Y-71372000D01*
X132164404Y-71324380D01*
X133354880Y-71657714D02*
X133354880Y-72324380D01*
X133116785Y-71276761D02*
X132878690Y-71991047D01*
X133497738Y-71991047D01*
X150402500Y-72324380D02*
X150402500Y-71324380D01*
X150735833Y-72038666D01*
X151069166Y-71324380D01*
X151069166Y-72324380D01*
X151545357Y-72324380D02*
X151545357Y-71324380D01*
X152592976Y-72229142D02*
X152545357Y-72276761D01*
X152402500Y-72324380D01*
X152307261Y-72324380D01*
X152164404Y-72276761D01*
X152069166Y-72181523D01*
X152021547Y-72086285D01*
X151973928Y-71895809D01*
X151973928Y-71752952D01*
X152021547Y-71562476D01*
X152069166Y-71467238D01*
X152164404Y-71372000D01*
X152307261Y-71324380D01*
X152402500Y-71324380D01*
X152545357Y-71372000D01*
X152592976Y-71419619D01*
X152926309Y-71324380D02*
X153545357Y-71324380D01*
X153212023Y-71705333D01*
X153354880Y-71705333D01*
X153450119Y-71752952D01*
X153497738Y-71800571D01*
X153545357Y-71895809D01*
X153545357Y-72133904D01*
X153497738Y-72229142D01*
X153450119Y-72276761D01*
X153354880Y-72324380D01*
X153069166Y-72324380D01*
X152973928Y-72276761D01*
X152926309Y-72229142D01*
X154164404Y-71324380D02*
X154259642Y-71324380D01*
X154354880Y-71372000D01*
X154402500Y-71419619D01*
X154450119Y-71514857D01*
X154497738Y-71705333D01*
X154497738Y-71943428D01*
X154450119Y-72133904D01*
X154402500Y-72229142D01*
X154354880Y-72276761D01*
X154259642Y-72324380D01*
X154164404Y-72324380D01*
X154069166Y-72276761D01*
X154021547Y-72229142D01*
X153973928Y-72133904D01*
X153926309Y-71943428D01*
X153926309Y-71705333D01*
X153973928Y-71514857D01*
X154021547Y-71419619D01*
X154069166Y-71372000D01*
X154164404Y-71324380D01*
X155402500Y-71324380D02*
X154926309Y-71324380D01*
X154878690Y-71800571D01*
X154926309Y-71752952D01*
X155021547Y-71705333D01*
X155259642Y-71705333D01*
X155354880Y-71752952D01*
X155402500Y-71800571D01*
X155450119Y-71895809D01*
X155450119Y-72133904D01*
X155402500Y-72229142D01*
X155354880Y-72276761D01*
X155259642Y-72324380D01*
X155021547Y-72324380D01*
X154926309Y-72276761D01*
X154878690Y-72229142D01*
X194402500Y-72324380D02*
X194402500Y-71324380D01*
X194735833Y-72038666D01*
X195069166Y-71324380D01*
X195069166Y-72324380D01*
X195545357Y-72324380D02*
X195545357Y-71324380D01*
X196592976Y-72229142D02*
X196545357Y-72276761D01*
X196402500Y-72324380D01*
X196307261Y-72324380D01*
X196164404Y-72276761D01*
X196069166Y-72181523D01*
X196021547Y-72086285D01*
X195973928Y-71895809D01*
X195973928Y-71752952D01*
X196021547Y-71562476D01*
X196069166Y-71467238D01*
X196164404Y-71372000D01*
X196307261Y-71324380D01*
X196402500Y-71324380D01*
X196545357Y-71372000D01*
X196592976Y-71419619D01*
X196926309Y-71324380D02*
X197545357Y-71324380D01*
X197212023Y-71705333D01*
X197354880Y-71705333D01*
X197450119Y-71752952D01*
X197497738Y-71800571D01*
X197545357Y-71895809D01*
X197545357Y-72133904D01*
X197497738Y-72229142D01*
X197450119Y-72276761D01*
X197354880Y-72324380D01*
X197069166Y-72324380D01*
X196973928Y-72276761D01*
X196926309Y-72229142D01*
X198164404Y-71324380D02*
X198259642Y-71324380D01*
X198354880Y-71372000D01*
X198402500Y-71419619D01*
X198450119Y-71514857D01*
X198497738Y-71705333D01*
X198497738Y-71943428D01*
X198450119Y-72133904D01*
X198402500Y-72229142D01*
X198354880Y-72276761D01*
X198259642Y-72324380D01*
X198164404Y-72324380D01*
X198069166Y-72276761D01*
X198021547Y-72229142D01*
X197973928Y-72133904D01*
X197926309Y-71943428D01*
X197926309Y-71705333D01*
X197973928Y-71514857D01*
X198021547Y-71419619D01*
X198069166Y-71372000D01*
X198164404Y-71324380D01*
X199354880Y-71324380D02*
X199164404Y-71324380D01*
X199069166Y-71372000D01*
X199021547Y-71419619D01*
X198926309Y-71562476D01*
X198878690Y-71752952D01*
X198878690Y-72133904D01*
X198926309Y-72229142D01*
X198973928Y-72276761D01*
X199069166Y-72324380D01*
X199259642Y-72324380D01*
X199354880Y-72276761D01*
X199402500Y-72229142D01*
X199450119Y-72133904D01*
X199450119Y-71895809D01*
X199402500Y-71800571D01*
X199354880Y-71752952D01*
X199259642Y-71705333D01*
X199069166Y-71705333D01*
X198973928Y-71752952D01*
X198926309Y-71800571D01*
X198878690Y-71895809D01*
X238402500Y-72324380D02*
X238402500Y-71324380D01*
X238735833Y-72038666D01*
X239069166Y-71324380D01*
X239069166Y-72324380D01*
X239545357Y-72324380D02*
X239545357Y-71324380D01*
X240592976Y-72229142D02*
X240545357Y-72276761D01*
X240402500Y-72324380D01*
X240307261Y-72324380D01*
X240164404Y-72276761D01*
X240069166Y-72181523D01*
X240021547Y-72086285D01*
X239973928Y-71895809D01*
X239973928Y-71752952D01*
X240021547Y-71562476D01*
X240069166Y-71467238D01*
X240164404Y-71372000D01*
X240307261Y-71324380D01*
X240402500Y-71324380D01*
X240545357Y-71372000D01*
X240592976Y-71419619D01*
X240926309Y-71324380D02*
X241545357Y-71324380D01*
X241212023Y-71705333D01*
X241354880Y-71705333D01*
X241450119Y-71752952D01*
X241497738Y-71800571D01*
X241545357Y-71895809D01*
X241545357Y-72133904D01*
X241497738Y-72229142D01*
X241450119Y-72276761D01*
X241354880Y-72324380D01*
X241069166Y-72324380D01*
X240973928Y-72276761D01*
X240926309Y-72229142D01*
X242164404Y-71324380D02*
X242259642Y-71324380D01*
X242354880Y-71372000D01*
X242402500Y-71419619D01*
X242450119Y-71514857D01*
X242497738Y-71705333D01*
X242497738Y-71943428D01*
X242450119Y-72133904D01*
X242402500Y-72229142D01*
X242354880Y-72276761D01*
X242259642Y-72324380D01*
X242164404Y-72324380D01*
X242069166Y-72276761D01*
X242021547Y-72229142D01*
X241973928Y-72133904D01*
X241926309Y-71943428D01*
X241926309Y-71705333D01*
X241973928Y-71514857D01*
X242021547Y-71419619D01*
X242069166Y-71372000D01*
X242164404Y-71324380D01*
X242831071Y-71324380D02*
X243497738Y-71324380D01*
X243069166Y-72324380D01*
X260402500Y-72324380D02*
X260402500Y-71324380D01*
X260735833Y-72038666D01*
X261069166Y-71324380D01*
X261069166Y-72324380D01*
X261545357Y-72324380D02*
X261545357Y-71324380D01*
X262592976Y-72229142D02*
X262545357Y-72276761D01*
X262402500Y-72324380D01*
X262307261Y-72324380D01*
X262164404Y-72276761D01*
X262069166Y-72181523D01*
X262021547Y-72086285D01*
X261973928Y-71895809D01*
X261973928Y-71752952D01*
X262021547Y-71562476D01*
X262069166Y-71467238D01*
X262164404Y-71372000D01*
X262307261Y-71324380D01*
X262402500Y-71324380D01*
X262545357Y-71372000D01*
X262592976Y-71419619D01*
X262926309Y-71324380D02*
X263545357Y-71324380D01*
X263212023Y-71705333D01*
X263354880Y-71705333D01*
X263450119Y-71752952D01*
X263497738Y-71800571D01*
X263545357Y-71895809D01*
X263545357Y-72133904D01*
X263497738Y-72229142D01*
X263450119Y-72276761D01*
X263354880Y-72324380D01*
X263069166Y-72324380D01*
X262973928Y-72276761D01*
X262926309Y-72229142D01*
X264164404Y-71324380D02*
X264259642Y-71324380D01*
X264354880Y-71372000D01*
X264402500Y-71419619D01*
X264450119Y-71514857D01*
X264497738Y-71705333D01*
X264497738Y-71943428D01*
X264450119Y-72133904D01*
X264402500Y-72229142D01*
X264354880Y-72276761D01*
X264259642Y-72324380D01*
X264164404Y-72324380D01*
X264069166Y-72276761D01*
X264021547Y-72229142D01*
X263973928Y-72133904D01*
X263926309Y-71943428D01*
X263926309Y-71705333D01*
X263973928Y-71514857D01*
X264021547Y-71419619D01*
X264069166Y-71372000D01*
X264164404Y-71324380D01*
X265069166Y-71752952D02*
X264973928Y-71705333D01*
X264926309Y-71657714D01*
X264878690Y-71562476D01*
X264878690Y-71514857D01*
X264926309Y-71419619D01*
X264973928Y-71372000D01*
X265069166Y-71324380D01*
X265259642Y-71324380D01*
X265354880Y-71372000D01*
X265402500Y-71419619D01*
X265450119Y-71514857D01*
X265450119Y-71562476D01*
X265402500Y-71657714D01*
X265354880Y-71705333D01*
X265259642Y-71752952D01*
X265069166Y-71752952D01*
X264973928Y-71800571D01*
X264926309Y-71848190D01*
X264878690Y-71943428D01*
X264878690Y-72133904D01*
X264926309Y-72229142D01*
X264973928Y-72276761D01*
X265069166Y-72324380D01*
X265259642Y-72324380D01*
X265354880Y-72276761D01*
X265402500Y-72229142D01*
X265450119Y-72133904D01*
X265450119Y-71943428D01*
X265402500Y-71848190D01*
X265354880Y-71800571D01*
X265259642Y-71752952D01*
X62402500Y-102324380D02*
X62402500Y-101324380D01*
X62735833Y-102038666D01*
X63069166Y-101324380D01*
X63069166Y-102324380D01*
X63545357Y-102324380D02*
X63545357Y-101324380D01*
X64592976Y-102229142D02*
X64545357Y-102276761D01*
X64402500Y-102324380D01*
X64307261Y-102324380D01*
X64164404Y-102276761D01*
X64069166Y-102181523D01*
X64021547Y-102086285D01*
X63973928Y-101895809D01*
X63973928Y-101752952D01*
X64021547Y-101562476D01*
X64069166Y-101467238D01*
X64164404Y-101372000D01*
X64307261Y-101324380D01*
X64402500Y-101324380D01*
X64545357Y-101372000D01*
X64592976Y-101419619D01*
X65450119Y-101657714D02*
X65450119Y-102324380D01*
X65212023Y-101276761D02*
X64973928Y-101991047D01*
X65592976Y-101991047D01*
X66164404Y-101324380D02*
X66259642Y-101324380D01*
X66354880Y-101372000D01*
X66402500Y-101419619D01*
X66450119Y-101514857D01*
X66497738Y-101705333D01*
X66497738Y-101943428D01*
X66450119Y-102133904D01*
X66402500Y-102229142D01*
X66354880Y-102276761D01*
X66259642Y-102324380D01*
X66164404Y-102324380D01*
X66069166Y-102276761D01*
X66021547Y-102229142D01*
X65973928Y-102133904D01*
X65926309Y-101943428D01*
X65926309Y-101705333D01*
X65973928Y-101514857D01*
X66021547Y-101419619D01*
X66069166Y-101372000D01*
X66164404Y-101324380D01*
X67450119Y-102324380D02*
X66878690Y-102324380D01*
X67164404Y-102324380D02*
X67164404Y-101324380D01*
X67069166Y-101467238D01*
X66973928Y-101562476D01*
X66878690Y-101610095D01*
X73402500Y-102324380D02*
X73402500Y-101324380D01*
X73735833Y-102038666D01*
X74069166Y-101324380D01*
X74069166Y-102324380D01*
X74545357Y-102324380D02*
X74545357Y-101324380D01*
X75592976Y-102229142D02*
X75545357Y-102276761D01*
X75402500Y-102324380D01*
X75307261Y-102324380D01*
X75164404Y-102276761D01*
X75069166Y-102181523D01*
X75021547Y-102086285D01*
X74973928Y-101895809D01*
X74973928Y-101752952D01*
X75021547Y-101562476D01*
X75069166Y-101467238D01*
X75164404Y-101372000D01*
X75307261Y-101324380D01*
X75402500Y-101324380D01*
X75545357Y-101372000D01*
X75592976Y-101419619D01*
X76450119Y-101657714D02*
X76450119Y-102324380D01*
X76212023Y-101276761D02*
X75973928Y-101991047D01*
X76592976Y-101991047D01*
X77164404Y-101324380D02*
X77259642Y-101324380D01*
X77354880Y-101372000D01*
X77402500Y-101419619D01*
X77450119Y-101514857D01*
X77497738Y-101705333D01*
X77497738Y-101943428D01*
X77450119Y-102133904D01*
X77402500Y-102229142D01*
X77354880Y-102276761D01*
X77259642Y-102324380D01*
X77164404Y-102324380D01*
X77069166Y-102276761D01*
X77021547Y-102229142D01*
X76973928Y-102133904D01*
X76926309Y-101943428D01*
X76926309Y-101705333D01*
X76973928Y-101514857D01*
X77021547Y-101419619D01*
X77069166Y-101372000D01*
X77164404Y-101324380D01*
X77878690Y-101419619D02*
X77926309Y-101372000D01*
X78021547Y-101324380D01*
X78259642Y-101324380D01*
X78354880Y-101372000D01*
X78402500Y-101419619D01*
X78450119Y-101514857D01*
X78450119Y-101610095D01*
X78402500Y-101752952D01*
X77831071Y-102324380D01*
X78450119Y-102324380D01*
X95402500Y-102324380D02*
X95402500Y-101324380D01*
X95735833Y-102038666D01*
X96069166Y-101324380D01*
X96069166Y-102324380D01*
X96545357Y-102324380D02*
X96545357Y-101324380D01*
X97592976Y-102229142D02*
X97545357Y-102276761D01*
X97402500Y-102324380D01*
X97307261Y-102324380D01*
X97164404Y-102276761D01*
X97069166Y-102181523D01*
X97021547Y-102086285D01*
X96973928Y-101895809D01*
X96973928Y-101752952D01*
X97021547Y-101562476D01*
X97069166Y-101467238D01*
X97164404Y-101372000D01*
X97307261Y-101324380D01*
X97402500Y-101324380D01*
X97545357Y-101372000D01*
X97592976Y-101419619D01*
X98450119Y-101657714D02*
X98450119Y-102324380D01*
X98212023Y-101276761D02*
X97973928Y-101991047D01*
X98592976Y-101991047D01*
X99164404Y-101324380D02*
X99259642Y-101324380D01*
X99354880Y-101372000D01*
X99402500Y-101419619D01*
X99450119Y-101514857D01*
X99497738Y-101705333D01*
X99497738Y-101943428D01*
X99450119Y-102133904D01*
X99402500Y-102229142D01*
X99354880Y-102276761D01*
X99259642Y-102324380D01*
X99164404Y-102324380D01*
X99069166Y-102276761D01*
X99021547Y-102229142D01*
X98973928Y-102133904D01*
X98926309Y-101943428D01*
X98926309Y-101705333D01*
X98973928Y-101514857D01*
X99021547Y-101419619D01*
X99069166Y-101372000D01*
X99164404Y-101324380D01*
X99831071Y-101324380D02*
X100450119Y-101324380D01*
X100116785Y-101705333D01*
X100259642Y-101705333D01*
X100354880Y-101752952D01*
X100402500Y-101800571D01*
X100450119Y-101895809D01*
X100450119Y-102133904D01*
X100402500Y-102229142D01*
X100354880Y-102276761D01*
X100259642Y-102324380D01*
X99973928Y-102324380D01*
X99878690Y-102276761D01*
X99831071Y-102229142D01*
X128402500Y-102324380D02*
X128402500Y-101324380D01*
X128735833Y-102038666D01*
X129069166Y-101324380D01*
X129069166Y-102324380D01*
X129545357Y-102324380D02*
X129545357Y-101324380D01*
X130592976Y-102229142D02*
X130545357Y-102276761D01*
X130402500Y-102324380D01*
X130307261Y-102324380D01*
X130164404Y-102276761D01*
X130069166Y-102181523D01*
X130021547Y-102086285D01*
X129973928Y-101895809D01*
X129973928Y-101752952D01*
X130021547Y-101562476D01*
X130069166Y-101467238D01*
X130164404Y-101372000D01*
X130307261Y-101324380D01*
X130402500Y-101324380D01*
X130545357Y-101372000D01*
X130592976Y-101419619D01*
X131450119Y-101657714D02*
X131450119Y-102324380D01*
X131212023Y-101276761D02*
X130973928Y-101991047D01*
X131592976Y-101991047D01*
X132164404Y-101324380D02*
X132259642Y-101324380D01*
X132354880Y-101372000D01*
X132402500Y-101419619D01*
X132450119Y-101514857D01*
X132497738Y-101705333D01*
X132497738Y-101943428D01*
X132450119Y-102133904D01*
X132402500Y-102229142D01*
X132354880Y-102276761D01*
X132259642Y-102324380D01*
X132164404Y-102324380D01*
X132069166Y-102276761D01*
X132021547Y-102229142D01*
X131973928Y-102133904D01*
X131926309Y-101943428D01*
X131926309Y-101705333D01*
X131973928Y-101514857D01*
X132021547Y-101419619D01*
X132069166Y-101372000D01*
X132164404Y-101324380D01*
X133354880Y-101657714D02*
X133354880Y-102324380D01*
X133116785Y-101276761D02*
X132878690Y-101991047D01*
X133497738Y-101991047D01*
X150402500Y-102324380D02*
X150402500Y-101324380D01*
X150735833Y-102038666D01*
X151069166Y-101324380D01*
X151069166Y-102324380D01*
X151545357Y-102324380D02*
X151545357Y-101324380D01*
X152592976Y-102229142D02*
X152545357Y-102276761D01*
X152402500Y-102324380D01*
X152307261Y-102324380D01*
X152164404Y-102276761D01*
X152069166Y-102181523D01*
X152021547Y-102086285D01*
X151973928Y-101895809D01*
X151973928Y-101752952D01*
X152021547Y-101562476D01*
X152069166Y-101467238D01*
X152164404Y-101372000D01*
X152307261Y-101324380D01*
X152402500Y-101324380D01*
X152545357Y-101372000D01*
X152592976Y-101419619D01*
X153450119Y-101657714D02*
X153450119Y-102324380D01*
X153212023Y-101276761D02*
X152973928Y-101991047D01*
X153592976Y-101991047D01*
X154164404Y-101324380D02*
X154259642Y-101324380D01*
X154354880Y-101372000D01*
X154402500Y-101419619D01*
X154450119Y-101514857D01*
X154497738Y-101705333D01*
X154497738Y-101943428D01*
X154450119Y-102133904D01*
X154402500Y-102229142D01*
X154354880Y-102276761D01*
X154259642Y-102324380D01*
X154164404Y-102324380D01*
X154069166Y-102276761D01*
X154021547Y-102229142D01*
X153973928Y-102133904D01*
X153926309Y-101943428D01*
X153926309Y-101705333D01*
X153973928Y-101514857D01*
X154021547Y-101419619D01*
X154069166Y-101372000D01*
X154164404Y-101324380D01*
X155402500Y-101324380D02*
X154926309Y-101324380D01*
X154878690Y-101800571D01*
X154926309Y-101752952D01*
X155021547Y-101705333D01*
X155259642Y-101705333D01*
X155354880Y-101752952D01*
X155402500Y-101800571D01*
X155450119Y-101895809D01*
X155450119Y-102133904D01*
X155402500Y-102229142D01*
X155354880Y-102276761D01*
X155259642Y-102324380D01*
X155021547Y-102324380D01*
X154926309Y-102276761D01*
X154878690Y-102229142D01*
X194402500Y-102324380D02*
X194402500Y-101324380D01*
X194735833Y-102038666D01*
X195069166Y-101324380D01*
X195069166Y-102324380D01*
X195545357Y-102324380D02*
X195545357Y-101324380D01*
X196592976Y-102229142D02*
X196545357Y-102276761D01*
X196402500Y-102324380D01*
X196307261Y-102324380D01*
X196164404Y-102276761D01*
X196069166Y-102181523D01*
X196021547Y-102086285D01*
X195973928Y-101895809D01*
X195973928Y-101752952D01*
X196021547Y-101562476D01*
X196069166Y-101467238D01*
X196164404Y-101372000D01*
X196307261Y-101324380D01*
X196402500Y-101324380D01*
X196545357Y-101372000D01*
X196592976Y-101419619D01*
X197450119Y-101657714D02*
X197450119Y-102324380D01*
X197212023Y-101276761D02*
X196973928Y-101991047D01*
X197592976Y-101991047D01*
X198164404Y-101324380D02*
X198259642Y-101324380D01*
X198354880Y-101372000D01*
X198402500Y-101419619D01*
X198450119Y-101514857D01*
X198497738Y-101705333D01*
X198497738Y-101943428D01*
X198450119Y-102133904D01*
X198402500Y-102229142D01*
X198354880Y-102276761D01*
X198259642Y-102324380D01*
X198164404Y-102324380D01*
X198069166Y-102276761D01*
X198021547Y-102229142D01*
X197973928Y-102133904D01*
X197926309Y-101943428D01*
X197926309Y-101705333D01*
X197973928Y-101514857D01*
X198021547Y-101419619D01*
X198069166Y-101372000D01*
X198164404Y-101324380D01*
X199354880Y-101324380D02*
X199164404Y-101324380D01*
X199069166Y-101372000D01*
X199021547Y-101419619D01*
X198926309Y-101562476D01*
X198878690Y-101752952D01*
X198878690Y-102133904D01*
X198926309Y-102229142D01*
X198973928Y-102276761D01*
X199069166Y-102324380D01*
X199259642Y-102324380D01*
X199354880Y-102276761D01*
X199402500Y-102229142D01*
X199450119Y-102133904D01*
X199450119Y-101895809D01*
X199402500Y-101800571D01*
X199354880Y-101752952D01*
X199259642Y-101705333D01*
X199069166Y-101705333D01*
X198973928Y-101752952D01*
X198926309Y-101800571D01*
X198878690Y-101895809D01*
X238402500Y-102324380D02*
X238402500Y-101324380D01*
X238735833Y-102038666D01*
X239069166Y-101324380D01*
X239069166Y-102324380D01*
X239545357Y-102324380D02*
X239545357Y-101324380D01*
X240592976Y-102229142D02*
X240545357Y-102276761D01*
X240402500Y-102324380D01*
X240307261Y-102324380D01*
X240164404Y-102276761D01*
X240069166Y-102181523D01*
X240021547Y-102086285D01*
X239973928Y-101895809D01*
X239973928Y-101752952D01*
X240021547Y-101562476D01*
X240069166Y-101467238D01*
X240164404Y-101372000D01*
X240307261Y-101324380D01*
X240402500Y-101324380D01*
X240545357Y-101372000D01*
X240592976Y-101419619D01*
X241450119Y-101657714D02*
X241450119Y-102324380D01*
X241212023Y-101276761D02*
X240973928Y-101991047D01*
X241592976Y-101991047D01*
X242164404Y-101324380D02*
X242259642Y-101324380D01*
X242354880Y-101372000D01*
X242402500Y-101419619D01*
X242450119Y-101514857D01*
X242497738Y-101705333D01*
X242497738Y-101943428D01*
X242450119Y-102133904D01*
X242402500Y-102229142D01*
X242354880Y-102276761D01*
X242259642Y-102324380D01*
X242164404Y-102324380D01*
X242069166Y-102276761D01*
X242021547Y-102229142D01*
X241973928Y-102133904D01*
X241926309Y-101943428D01*
X241926309Y-101705333D01*
X241973928Y-101514857D01*
X242021547Y-101419619D01*
X242069166Y-101372000D01*
X242164404Y-101324380D01*
X242831071Y-101324380D02*
X243497738Y-101324380D01*
X243069166Y-102324380D01*
X260402500Y-102324380D02*
X260402500Y-101324380D01*
X260735833Y-102038666D01*
X261069166Y-101324380D01*
X261069166Y-102324380D01*
X261545357Y-102324380D02*
X261545357Y-101324380D01*
X262592976Y-102229142D02*
X262545357Y-102276761D01*
X262402500Y-102324380D01*
X262307261Y-102324380D01*
X262164404Y-102276761D01*
X262069166Y-102181523D01*
X262021547Y-102086285D01*
X261973928Y-101895809D01*
X261973928Y-101752952D01*
X262021547Y-101562476D01*
X262069166Y-101467238D01*
X262164404Y-101372000D01*
X262307261Y-101324380D01*
X262402500Y-101324380D01*
X262545357Y-101372000D01*
X262592976Y-101419619D01*
X263450119Y-101657714D02*
X263450119Y-102324380D01*
X263212023Y-101276761D02*
X262973928Y-101991047D01*
X263592976Y-101991047D01*
X264164404Y-101324380D02*
X264259642Y-101324380D01*
X264354880Y-101372000D01*
X264402500Y-101419619D01*
X264450119Y-101514857D01*
X264497738Y-101705333D01*
X264497738Y-101943428D01*
X264450119Y-102133904D01*
X264402500Y-102229142D01*
X264354880Y-102276761D01*
X264259642Y-102324380D01*
X264164404Y-102324380D01*
X264069166Y-102276761D01*
X264021547Y-102229142D01*
X263973928Y-102133904D01*
X263926309Y-101943428D01*
X263926309Y-101705333D01*
X263973928Y-101514857D01*
X264021547Y-101419619D01*
X264069166Y-101372000D01*
X264164404Y-101324380D01*
X265069166Y-101752952D02*
X264973928Y-101705333D01*
X264926309Y-101657714D01*
X264878690Y-101562476D01*
X264878690Y-101514857D01*
X264926309Y-101419619D01*
X264973928Y-101372000D01*
X265069166Y-101324380D01*
X265259642Y-101324380D01*
X265354880Y-101372000D01*
X265402500Y-101419619D01*
X265450119Y-101514857D01*
X265450119Y-101562476D01*
X265402500Y-101657714D01*
X265354880Y-101705333D01*
X265259642Y-101752952D01*
X265069166Y-101752952D01*
X264973928Y-101800571D01*
X264926309Y-101848190D01*
X264878690Y-101943428D01*
X264878690Y-102133904D01*
X264926309Y-102229142D01*
X264973928Y-102276761D01*
X265069166Y-102324380D01*
X265259642Y-102324380D01*
X265354880Y-102276761D01*
X265402500Y-102229142D01*
X265450119Y-102133904D01*
X265450119Y-101943428D01*
X265402500Y-101848190D01*
X265354880Y-101800571D01*
X265259642Y-101752952D01*
X62402500Y-142324380D02*
X62402500Y-141324380D01*
X62735833Y-142038666D01*
X63069166Y-141324380D01*
X63069166Y-142324380D01*
X63545357Y-142324380D02*
X63545357Y-141324380D01*
X64592976Y-142229142D02*
X64545357Y-142276761D01*
X64402500Y-142324380D01*
X64307261Y-142324380D01*
X64164404Y-142276761D01*
X64069166Y-142181523D01*
X64021547Y-142086285D01*
X63973928Y-141895809D01*
X63973928Y-141752952D01*
X64021547Y-141562476D01*
X64069166Y-141467238D01*
X64164404Y-141372000D01*
X64307261Y-141324380D01*
X64402500Y-141324380D01*
X64545357Y-141372000D01*
X64592976Y-141419619D01*
X65497738Y-141324380D02*
X65021547Y-141324380D01*
X64973928Y-141800571D01*
X65021547Y-141752952D01*
X65116785Y-141705333D01*
X65354880Y-141705333D01*
X65450119Y-141752952D01*
X65497738Y-141800571D01*
X65545357Y-141895809D01*
X65545357Y-142133904D01*
X65497738Y-142229142D01*
X65450119Y-142276761D01*
X65354880Y-142324380D01*
X65116785Y-142324380D01*
X65021547Y-142276761D01*
X64973928Y-142229142D01*
X66164404Y-141324380D02*
X66259642Y-141324380D01*
X66354880Y-141372000D01*
X66402500Y-141419619D01*
X66450119Y-141514857D01*
X66497738Y-141705333D01*
X66497738Y-141943428D01*
X66450119Y-142133904D01*
X66402500Y-142229142D01*
X66354880Y-142276761D01*
X66259642Y-142324380D01*
X66164404Y-142324380D01*
X66069166Y-142276761D01*
X66021547Y-142229142D01*
X65973928Y-142133904D01*
X65926309Y-141943428D01*
X65926309Y-141705333D01*
X65973928Y-141514857D01*
X66021547Y-141419619D01*
X66069166Y-141372000D01*
X66164404Y-141324380D01*
X67450119Y-142324380D02*
X66878690Y-142324380D01*
X67164404Y-142324380D02*
X67164404Y-141324380D01*
X67069166Y-141467238D01*
X66973928Y-141562476D01*
X66878690Y-141610095D01*
X73402500Y-142324380D02*
X73402500Y-141324380D01*
X73735833Y-142038666D01*
X74069166Y-141324380D01*
X74069166Y-142324380D01*
X74545357Y-142324380D02*
X74545357Y-141324380D01*
X75592976Y-142229142D02*
X75545357Y-142276761D01*
X75402500Y-142324380D01*
X75307261Y-142324380D01*
X75164404Y-142276761D01*
X75069166Y-142181523D01*
X75021547Y-142086285D01*
X74973928Y-141895809D01*
X74973928Y-141752952D01*
X75021547Y-141562476D01*
X75069166Y-141467238D01*
X75164404Y-141372000D01*
X75307261Y-141324380D01*
X75402500Y-141324380D01*
X75545357Y-141372000D01*
X75592976Y-141419619D01*
X76497738Y-141324380D02*
X76021547Y-141324380D01*
X75973928Y-141800571D01*
X76021547Y-141752952D01*
X76116785Y-141705333D01*
X76354880Y-141705333D01*
X76450119Y-141752952D01*
X76497738Y-141800571D01*
X76545357Y-141895809D01*
X76545357Y-142133904D01*
X76497738Y-142229142D01*
X76450119Y-142276761D01*
X76354880Y-142324380D01*
X76116785Y-142324380D01*
X76021547Y-142276761D01*
X75973928Y-142229142D01*
X77164404Y-141324380D02*
X77259642Y-141324380D01*
X77354880Y-141372000D01*
X77402500Y-141419619D01*
X77450119Y-141514857D01*
X77497738Y-141705333D01*
X77497738Y-141943428D01*
X77450119Y-142133904D01*
X77402500Y-142229142D01*
X77354880Y-142276761D01*
X77259642Y-142324380D01*
X77164404Y-142324380D01*
X77069166Y-142276761D01*
X77021547Y-142229142D01*
X76973928Y-142133904D01*
X76926309Y-141943428D01*
X76926309Y-141705333D01*
X76973928Y-141514857D01*
X77021547Y-141419619D01*
X77069166Y-141372000D01*
X77164404Y-141324380D01*
X77878690Y-141419619D02*
X77926309Y-141372000D01*
X78021547Y-141324380D01*
X78259642Y-141324380D01*
X78354880Y-141372000D01*
X78402500Y-141419619D01*
X78450119Y-141514857D01*
X78450119Y-141610095D01*
X78402500Y-141752952D01*
X77831071Y-142324380D01*
X78450119Y-142324380D01*
X95402500Y-142324380D02*
X95402500Y-141324380D01*
X95735833Y-142038666D01*
X96069166Y-141324380D01*
X96069166Y-142324380D01*
X96545357Y-142324380D02*
X96545357Y-141324380D01*
X97592976Y-142229142D02*
X97545357Y-142276761D01*
X97402500Y-142324380D01*
X97307261Y-142324380D01*
X97164404Y-142276761D01*
X97069166Y-142181523D01*
X97021547Y-142086285D01*
X96973928Y-141895809D01*
X96973928Y-141752952D01*
X97021547Y-141562476D01*
X97069166Y-141467238D01*
X97164404Y-141372000D01*
X97307261Y-141324380D01*
X97402500Y-141324380D01*
X97545357Y-141372000D01*
X97592976Y-141419619D01*
X98497738Y-141324380D02*
X98021547Y-141324380D01*
X97973928Y-141800571D01*
X98021547Y-141752952D01*
X98116785Y-141705333D01*
X98354880Y-141705333D01*
X98450119Y-141752952D01*
X98497738Y-141800571D01*
X98545357Y-141895809D01*
X98545357Y-142133904D01*
X98497738Y-142229142D01*
X98450119Y-142276761D01*
X98354880Y-142324380D01*
X98116785Y-142324380D01*
X98021547Y-142276761D01*
X97973928Y-142229142D01*
X99164404Y-141324380D02*
X99259642Y-141324380D01*
X99354880Y-141372000D01*
X99402500Y-141419619D01*
X99450119Y-141514857D01*
X99497738Y-141705333D01*
X99497738Y-141943428D01*
X99450119Y-142133904D01*
X99402500Y-142229142D01*
X99354880Y-142276761D01*
X99259642Y-142324380D01*
X99164404Y-142324380D01*
X99069166Y-142276761D01*
X99021547Y-142229142D01*
X98973928Y-142133904D01*
X98926309Y-141943428D01*
X98926309Y-141705333D01*
X98973928Y-141514857D01*
X99021547Y-141419619D01*
X99069166Y-141372000D01*
X99164404Y-141324380D01*
X99831071Y-141324380D02*
X100450119Y-141324380D01*
X100116785Y-141705333D01*
X100259642Y-141705333D01*
X100354880Y-141752952D01*
X100402500Y-141800571D01*
X100450119Y-141895809D01*
X100450119Y-142133904D01*
X100402500Y-142229142D01*
X100354880Y-142276761D01*
X100259642Y-142324380D01*
X99973928Y-142324380D01*
X99878690Y-142276761D01*
X99831071Y-142229142D01*
X128402500Y-142324380D02*
X128402500Y-141324380D01*
X128735833Y-142038666D01*
X129069166Y-141324380D01*
X129069166Y-142324380D01*
X129545357Y-142324380D02*
X129545357Y-141324380D01*
X130592976Y-142229142D02*
X130545357Y-142276761D01*
X130402500Y-142324380D01*
X130307261Y-142324380D01*
X130164404Y-142276761D01*
X130069166Y-142181523D01*
X130021547Y-142086285D01*
X129973928Y-141895809D01*
X129973928Y-141752952D01*
X130021547Y-141562476D01*
X130069166Y-141467238D01*
X130164404Y-141372000D01*
X130307261Y-141324380D01*
X130402500Y-141324380D01*
X130545357Y-141372000D01*
X130592976Y-141419619D01*
X131497738Y-141324380D02*
X131021547Y-141324380D01*
X130973928Y-141800571D01*
X131021547Y-141752952D01*
X131116785Y-141705333D01*
X131354880Y-141705333D01*
X131450119Y-141752952D01*
X131497738Y-141800571D01*
X131545357Y-141895809D01*
X131545357Y-142133904D01*
X131497738Y-142229142D01*
X131450119Y-142276761D01*
X131354880Y-142324380D01*
X131116785Y-142324380D01*
X131021547Y-142276761D01*
X130973928Y-142229142D01*
X132164404Y-141324380D02*
X132259642Y-141324380D01*
X132354880Y-141372000D01*
X132402500Y-141419619D01*
X132450119Y-141514857D01*
X132497738Y-141705333D01*
X132497738Y-141943428D01*
X132450119Y-142133904D01*
X132402500Y-142229142D01*
X132354880Y-142276761D01*
X132259642Y-142324380D01*
X132164404Y-142324380D01*
X132069166Y-142276761D01*
X132021547Y-142229142D01*
X131973928Y-142133904D01*
X131926309Y-141943428D01*
X131926309Y-141705333D01*
X131973928Y-141514857D01*
X132021547Y-141419619D01*
X132069166Y-141372000D01*
X132164404Y-141324380D01*
X133354880Y-141657714D02*
X133354880Y-142324380D01*
X133116785Y-141276761D02*
X132878690Y-141991047D01*
X133497738Y-141991047D01*
X150402500Y-142324380D02*
X150402500Y-141324380D01*
X150735833Y-142038666D01*
X151069166Y-141324380D01*
X151069166Y-142324380D01*
X151545357Y-142324380D02*
X151545357Y-141324380D01*
X152592976Y-142229142D02*
X152545357Y-142276761D01*
X152402500Y-142324380D01*
X152307261Y-142324380D01*
X152164404Y-142276761D01*
X152069166Y-142181523D01*
X152021547Y-142086285D01*
X151973928Y-141895809D01*
X151973928Y-141752952D01*
X152021547Y-141562476D01*
X152069166Y-141467238D01*
X152164404Y-141372000D01*
X152307261Y-141324380D01*
X152402500Y-141324380D01*
X152545357Y-141372000D01*
X152592976Y-141419619D01*
X153497738Y-141324380D02*
X153021547Y-141324380D01*
X152973928Y-141800571D01*
X153021547Y-141752952D01*
X153116785Y-141705333D01*
X153354880Y-141705333D01*
X153450119Y-141752952D01*
X153497738Y-141800571D01*
X153545357Y-141895809D01*
X153545357Y-142133904D01*
X153497738Y-142229142D01*
X153450119Y-142276761D01*
X153354880Y-142324380D01*
X153116785Y-142324380D01*
X153021547Y-142276761D01*
X152973928Y-142229142D01*
X154164404Y-141324380D02*
X154259642Y-141324380D01*
X154354880Y-141372000D01*
X154402500Y-141419619D01*
X154450119Y-141514857D01*
X154497738Y-141705333D01*
X154497738Y-141943428D01*
X154450119Y-142133904D01*
X154402500Y-142229142D01*
X154354880Y-142276761D01*
X154259642Y-142324380D01*
X154164404Y-142324380D01*
X154069166Y-142276761D01*
X154021547Y-142229142D01*
X153973928Y-142133904D01*
X153926309Y-141943428D01*
X153926309Y-141705333D01*
X153973928Y-141514857D01*
X154021547Y-141419619D01*
X154069166Y-141372000D01*
X154164404Y-141324380D01*
X155402500Y-141324380D02*
X154926309Y-141324380D01*
X154878690Y-141800571D01*
X154926309Y-141752952D01*
X155021547Y-141705333D01*
X155259642Y-141705333D01*
X155354880Y-141752952D01*
X155402500Y-141800571D01*
X155450119Y-141895809D01*
X155450119Y-142133904D01*
X155402500Y-142229142D01*
X155354880Y-142276761D01*
X155259642Y-142324380D01*
X155021547Y-142324380D01*
X154926309Y-142276761D01*
X154878690Y-142229142D01*
X194402500Y-142324380D02*
X194402500Y-141324380D01*
X194735833Y-142038666D01*
X195069166Y-141324380D01*
X195069166Y-142324380D01*
X195545357Y-142324380D02*
X195545357Y-141324380D01*
X196592976Y-142229142D02*
X196545357Y-142276761D01*
X196402500Y-142324380D01*
X196307261Y-142324380D01*
X196164404Y-142276761D01*
X196069166Y-142181523D01*
X196021547Y-142086285D01*
X195973928Y-141895809D01*
X195973928Y-141752952D01*
X196021547Y-141562476D01*
X196069166Y-141467238D01*
X196164404Y-141372000D01*
X196307261Y-141324380D01*
X196402500Y-141324380D01*
X196545357Y-141372000D01*
X196592976Y-141419619D01*
X197497738Y-141324380D02*
X197021547Y-141324380D01*
X196973928Y-141800571D01*
X197021547Y-141752952D01*
X197116785Y-141705333D01*
X197354880Y-141705333D01*
X197450119Y-141752952D01*
X197497738Y-141800571D01*
X197545357Y-141895809D01*
X197545357Y-142133904D01*
X197497738Y-142229142D01*
X197450119Y-142276761D01*
X197354880Y-142324380D01*
X197116785Y-142324380D01*
X197021547Y-142276761D01*
X196973928Y-142229142D01*
X198164404Y-141324380D02*
X198259642Y-141324380D01*
X198354880Y-141372000D01*
X198402500Y-141419619D01*
X198450119Y-141514857D01*
X198497738Y-141705333D01*
X198497738Y-141943428D01*
X198450119Y-142133904D01*
X198402500Y-142229142D01*
X198354880Y-142276761D01*
X198259642Y-142324380D01*
X198164404Y-142324380D01*
X198069166Y-142276761D01*
X198021547Y-142229142D01*
X197973928Y-142133904D01*
X197926309Y-141943428D01*
X197926309Y-141705333D01*
X197973928Y-141514857D01*
X198021547Y-141419619D01*
X198069166Y-141372000D01*
X198164404Y-141324380D01*
X199354880Y-141324380D02*
X199164404Y-141324380D01*
X199069166Y-141372000D01*
X199021547Y-141419619D01*
X198926309Y-141562476D01*
X198878690Y-141752952D01*
X198878690Y-142133904D01*
X198926309Y-142229142D01*
X198973928Y-142276761D01*
X199069166Y-142324380D01*
X199259642Y-142324380D01*
X199354880Y-142276761D01*
X199402500Y-142229142D01*
X199450119Y-142133904D01*
X199450119Y-141895809D01*
X199402500Y-141800571D01*
X199354880Y-141752952D01*
X199259642Y-141705333D01*
X199069166Y-141705333D01*
X198973928Y-141752952D01*
X198926309Y-141800571D01*
X198878690Y-141895809D01*
X238402500Y-142324380D02*
X238402500Y-141324380D01*
X238735833Y-142038666D01*
X239069166Y-141324380D01*
X239069166Y-142324380D01*
X239545357Y-142324380D02*
X239545357Y-141324380D01*
X240592976Y-142229142D02*
X240545357Y-142276761D01*
X240402500Y-142324380D01*
X240307261Y-142324380D01*
X240164404Y-142276761D01*
X240069166Y-142181523D01*
X240021547Y-142086285D01*
X239973928Y-141895809D01*
X239973928Y-141752952D01*
X240021547Y-141562476D01*
X240069166Y-141467238D01*
X240164404Y-141372000D01*
X240307261Y-141324380D01*
X240402500Y-141324380D01*
X240545357Y-141372000D01*
X240592976Y-141419619D01*
X241497738Y-141324380D02*
X241021547Y-141324380D01*
X240973928Y-141800571D01*
X241021547Y-141752952D01*
X241116785Y-141705333D01*
X241354880Y-141705333D01*
X241450119Y-141752952D01*
X241497738Y-141800571D01*
X241545357Y-141895809D01*
X241545357Y-142133904D01*
X241497738Y-142229142D01*
X241450119Y-142276761D01*
X241354880Y-142324380D01*
X241116785Y-142324380D01*
X241021547Y-142276761D01*
X240973928Y-142229142D01*
X242164404Y-141324380D02*
X242259642Y-141324380D01*
X242354880Y-141372000D01*
X242402500Y-141419619D01*
X242450119Y-141514857D01*
X242497738Y-141705333D01*
X242497738Y-141943428D01*
X242450119Y-142133904D01*
X242402500Y-142229142D01*
X242354880Y-142276761D01*
X242259642Y-142324380D01*
X242164404Y-142324380D01*
X242069166Y-142276761D01*
X242021547Y-142229142D01*
X241973928Y-142133904D01*
X241926309Y-141943428D01*
X241926309Y-141705333D01*
X241973928Y-141514857D01*
X242021547Y-141419619D01*
X242069166Y-141372000D01*
X242164404Y-141324380D01*
X242831071Y-141324380D02*
X243497738Y-141324380D01*
X243069166Y-142324380D01*
X260402500Y-142324380D02*
X260402500Y-141324380D01*
X260735833Y-142038666D01*
X261069166Y-141324380D01*
X261069166Y-142324380D01*
X261545357Y-142324380D02*
X261545357Y-141324380D01*
X262592976Y-142229142D02*
X262545357Y-142276761D01*
X262402500Y-142324380D01*
X262307261Y-142324380D01*
X262164404Y-142276761D01*
X262069166Y-142181523D01*
X262021547Y-142086285D01*
X261973928Y-141895809D01*
X261973928Y-141752952D01*
X262021547Y-141562476D01*
X262069166Y-141467238D01*
X262164404Y-141372000D01*
X262307261Y-141324380D01*
X262402500Y-141324380D01*
X262545357Y-141372000D01*
X262592976Y-141419619D01*
X263497738Y-141324380D02*
X263021547Y-141324380D01*
X262973928Y-141800571D01*
X263021547Y-141752952D01*
X263116785Y-141705333D01*
X263354880Y-141705333D01*
X263450119Y-141752952D01*
X263497738Y-141800571D01*
X263545357Y-141895809D01*
X263545357Y-142133904D01*
X263497738Y-142229142D01*
X263450119Y-142276761D01*
X263354880Y-142324380D01*
X263116785Y-142324380D01*
X263021547Y-142276761D01*
X262973928Y-142229142D01*
X264164404Y-141324380D02*
X264259642Y-141324380D01*
X264354880Y-141372000D01*
X264402500Y-141419619D01*
X264450119Y-141514857D01*
X264497738Y-141705333D01*
X264497738Y-141943428D01*
X264450119Y-142133904D01*
X264402500Y-142229142D01*
X264354880Y-142276761D01*
X264259642Y-142324380D01*
X264164404Y-142324380D01*
X264069166Y-142276761D01*
X264021547Y-142229142D01*
X263973928Y-142133904D01*
X263926309Y-141943428D01*
X263926309Y-141705333D01*
X263973928Y-141514857D01*
X264021547Y-141419619D01*
X264069166Y-141372000D01*
X264164404Y-141324380D01*
X265069166Y-141752952D02*
X264973928Y-141705333D01*
X264926309Y-141657714D01*
X264878690Y-141562476D01*
X264878690Y-141514857D01*
X264926309Y-141419619D01*
X264973928Y-141372000D01*
X265069166Y-141324380D01*
X265259642Y-141324380D01*
X265354880Y-141372000D01*
X265402500Y-141419619D01*
X265450119Y-141514857D01*
X265450119Y-141562476D01*
X265402500Y-141657714D01*
X265354880Y-141705333D01*
X265259642Y-141752952D01*
X265069166Y-141752952D01*
X264973928Y-141800571D01*
X264926309Y-141848190D01*
X264878690Y-141943428D01*
X264878690Y-142133904D01*
X264926309Y-142229142D01*
X264973928Y-142276761D01*
X265069166Y-142324380D01*
X265259642Y-142324380D01*
X265354880Y-142276761D01*
X265402500Y-142229142D01*
X265450119Y-142133904D01*
X265450119Y-141943428D01*
X265402500Y-141848190D01*
X265354880Y-141800571D01*
X265259642Y-141752952D01*
X62402500Y-182324380D02*
X62402500Y-181324380D01*
X62735833Y-182038666D01*
X63069166Y-181324380D01*
X63069166Y-182324380D01*
X63545357Y-182324380D02*
X63545357Y-181324380D01*
X64592976Y-182229142D02*
X64545357Y-182276761D01*
X64402500Y-182324380D01*
X64307261Y-182324380D01*
X64164404Y-182276761D01*
X64069166Y-182181523D01*
X64021547Y-182086285D01*
X63973928Y-181895809D01*
X63973928Y-181752952D01*
X64021547Y-181562476D01*
X64069166Y-181467238D01*
X64164404Y-181372000D01*
X64307261Y-181324380D01*
X64402500Y-181324380D01*
X64545357Y-181372000D01*
X64592976Y-181419619D01*
X65450119Y-181324380D02*
X65259642Y-181324380D01*
X65164404Y-181372000D01*
X65116785Y-181419619D01*
X65021547Y-181562476D01*
X64973928Y-181752952D01*
X64973928Y-182133904D01*
X65021547Y-182229142D01*
X65069166Y-182276761D01*
X65164404Y-182324380D01*
X65354880Y-182324380D01*
X65450119Y-182276761D01*
X65497738Y-182229142D01*
X65545357Y-182133904D01*
X65545357Y-181895809D01*
X65497738Y-181800571D01*
X65450119Y-181752952D01*
X65354880Y-181705333D01*
X65164404Y-181705333D01*
X65069166Y-181752952D01*
X65021547Y-181800571D01*
X64973928Y-181895809D01*
X66164404Y-181324380D02*
X66259642Y-181324380D01*
X66354880Y-181372000D01*
X66402500Y-181419619D01*
X66450119Y-181514857D01*
X66497738Y-181705333D01*
X66497738Y-181943428D01*
X66450119Y-182133904D01*
X66402500Y-182229142D01*
X66354880Y-182276761D01*
X66259642Y-182324380D01*
X66164404Y-182324380D01*
X66069166Y-182276761D01*
X66021547Y-182229142D01*
X65973928Y-182133904D01*
X65926309Y-181943428D01*
X65926309Y-181705333D01*
X65973928Y-181514857D01*
X66021547Y-181419619D01*
X66069166Y-181372000D01*
X66164404Y-181324380D01*
X67450119Y-182324380D02*
X66878690Y-182324380D01*
X67164404Y-182324380D02*
X67164404Y-181324380D01*
X67069166Y-181467238D01*
X66973928Y-181562476D01*
X66878690Y-181610095D01*
X73402500Y-182324380D02*
X73402500Y-181324380D01*
X73735833Y-182038666D01*
X74069166Y-181324380D01*
X74069166Y-182324380D01*
X74545357Y-182324380D02*
X74545357Y-181324380D01*
X75592976Y-182229142D02*
X75545357Y-182276761D01*
X75402500Y-182324380D01*
X75307261Y-182324380D01*
X75164404Y-182276761D01*
X75069166Y-182181523D01*
X75021547Y-182086285D01*
X74973928Y-181895809D01*
X74973928Y-181752952D01*
X75021547Y-181562476D01*
X75069166Y-181467238D01*
X75164404Y-181372000D01*
X75307261Y-181324380D01*
X75402500Y-181324380D01*
X75545357Y-181372000D01*
X75592976Y-181419619D01*
X76450119Y-181324380D02*
X76259642Y-181324380D01*
X76164404Y-181372000D01*
X76116785Y-181419619D01*
X76021547Y-181562476D01*
X75973928Y-181752952D01*
X75973928Y-182133904D01*
X76021547Y-182229142D01*
X76069166Y-182276761D01*
X76164404Y-182324380D01*
X76354880Y-182324380D01*
X76450119Y-182276761D01*
X76497738Y-182229142D01*
X76545357Y-182133904D01*
X76545357Y-181895809D01*
X76497738Y-181800571D01*
X76450119Y-181752952D01*
X76354880Y-181705333D01*
X76164404Y-181705333D01*
X76069166Y-181752952D01*
X76021547Y-181800571D01*
X75973928Y-181895809D01*
X77164404Y-181324380D02*
X77259642Y-181324380D01*
X77354880Y-181372000D01*
X77402500Y-181419619D01*
X77450119Y-181514857D01*
X77497738Y-181705333D01*
X77497738Y-181943428D01*
X77450119Y-182133904D01*
X77402500Y-182229142D01*
X77354880Y-182276761D01*
X77259642Y-182324380D01*
X77164404Y-182324380D01*
X77069166Y-182276761D01*
X77021547Y-182229142D01*
X76973928Y-182133904D01*
X76926309Y-181943428D01*
X76926309Y-181705333D01*
X76973928Y-181514857D01*
X77021547Y-181419619D01*
X77069166Y-181372000D01*
X77164404Y-181324380D01*
X77878690Y-181419619D02*
X77926309Y-181372000D01*
X78021547Y-181324380D01*
X78259642Y-181324380D01*
X78354880Y-181372000D01*
X78402500Y-181419619D01*
X78450119Y-181514857D01*
X78450119Y-181610095D01*
X78402500Y-181752952D01*
X77831071Y-182324380D01*
X78450119Y-182324380D01*
X95402500Y-182324380D02*
X95402500Y-181324380D01*
X95735833Y-182038666D01*
X96069166Y-181324380D01*
X96069166Y-182324380D01*
X96545357Y-182324380D02*
X96545357Y-181324380D01*
X97592976Y-182229142D02*
X97545357Y-182276761D01*
X97402500Y-182324380D01*
X97307261Y-182324380D01*
X97164404Y-182276761D01*
X97069166Y-182181523D01*
X97021547Y-182086285D01*
X96973928Y-181895809D01*
X96973928Y-181752952D01*
X97021547Y-181562476D01*
X97069166Y-181467238D01*
X97164404Y-181372000D01*
X97307261Y-181324380D01*
X97402500Y-181324380D01*
X97545357Y-181372000D01*
X97592976Y-181419619D01*
X98450119Y-181324380D02*
X98259642Y-181324380D01*
X98164404Y-181372000D01*
X98116785Y-181419619D01*
X98021547Y-181562476D01*
X97973928Y-181752952D01*
X97973928Y-182133904D01*
X98021547Y-182229142D01*
X98069166Y-182276761D01*
X98164404Y-182324380D01*
X98354880Y-182324380D01*
X98450119Y-182276761D01*
X98497738Y-182229142D01*
X98545357Y-182133904D01*
X98545357Y-181895809D01*
X98497738Y-181800571D01*
X98450119Y-181752952D01*
X98354880Y-181705333D01*
X98164404Y-181705333D01*
X98069166Y-181752952D01*
X98021547Y-181800571D01*
X97973928Y-181895809D01*
X99164404Y-181324380D02*
X99259642Y-181324380D01*
X99354880Y-181372000D01*
X99402500Y-181419619D01*
X99450119Y-181514857D01*
X99497738Y-181705333D01*
X99497738Y-181943428D01*
X99450119Y-182133904D01*
X99402500Y-182229142D01*
X99354880Y-182276761D01*
X99259642Y-182324380D01*
X99164404Y-182324380D01*
X99069166Y-182276761D01*
X99021547Y-182229142D01*
X98973928Y-182133904D01*
X98926309Y-181943428D01*
X98926309Y-181705333D01*
X98973928Y-181514857D01*
X99021547Y-181419619D01*
X99069166Y-181372000D01*
X99164404Y-181324380D01*
X99831071Y-181324380D02*
X100450119Y-181324380D01*
X100116785Y-181705333D01*
X100259642Y-181705333D01*
X100354880Y-181752952D01*
X100402500Y-181800571D01*
X100450119Y-181895809D01*
X100450119Y-182133904D01*
X100402500Y-182229142D01*
X100354880Y-182276761D01*
X100259642Y-182324380D01*
X99973928Y-182324380D01*
X99878690Y-182276761D01*
X99831071Y-182229142D01*
X128402500Y-182324380D02*
X128402500Y-181324380D01*
X128735833Y-182038666D01*
X129069166Y-181324380D01*
X129069166Y-182324380D01*
X129545357Y-182324380D02*
X129545357Y-181324380D01*
X130592976Y-182229142D02*
X130545357Y-182276761D01*
X130402500Y-182324380D01*
X130307261Y-182324380D01*
X130164404Y-182276761D01*
X130069166Y-182181523D01*
X130021547Y-182086285D01*
X129973928Y-181895809D01*
X129973928Y-181752952D01*
X130021547Y-181562476D01*
X130069166Y-181467238D01*
X130164404Y-181372000D01*
X130307261Y-181324380D01*
X130402500Y-181324380D01*
X130545357Y-181372000D01*
X130592976Y-181419619D01*
X131450119Y-181324380D02*
X131259642Y-181324380D01*
X131164404Y-181372000D01*
X131116785Y-181419619D01*
X131021547Y-181562476D01*
X130973928Y-181752952D01*
X130973928Y-182133904D01*
X131021547Y-182229142D01*
X131069166Y-182276761D01*
X131164404Y-182324380D01*
X131354880Y-182324380D01*
X131450119Y-182276761D01*
X131497738Y-182229142D01*
X131545357Y-182133904D01*
X131545357Y-181895809D01*
X131497738Y-181800571D01*
X131450119Y-181752952D01*
X131354880Y-181705333D01*
X131164404Y-181705333D01*
X131069166Y-181752952D01*
X131021547Y-181800571D01*
X130973928Y-181895809D01*
X132164404Y-181324380D02*
X132259642Y-181324380D01*
X132354880Y-181372000D01*
X132402500Y-181419619D01*
X132450119Y-181514857D01*
X132497738Y-181705333D01*
X132497738Y-181943428D01*
X132450119Y-182133904D01*
X132402500Y-182229142D01*
X132354880Y-182276761D01*
X132259642Y-182324380D01*
X132164404Y-182324380D01*
X132069166Y-182276761D01*
X132021547Y-182229142D01*
X131973928Y-182133904D01*
X131926309Y-181943428D01*
X131926309Y-181705333D01*
X131973928Y-181514857D01*
X132021547Y-181419619D01*
X132069166Y-181372000D01*
X132164404Y-181324380D01*
X133354880Y-181657714D02*
X133354880Y-182324380D01*
X133116785Y-181276761D02*
X132878690Y-181991047D01*
X133497738Y-181991047D01*
X150402500Y-182324380D02*
X150402500Y-181324380D01*
X150735833Y-182038666D01*
X151069166Y-181324380D01*
X151069166Y-182324380D01*
X151545357Y-182324380D02*
X151545357Y-181324380D01*
X152592976Y-182229142D02*
X152545357Y-182276761D01*
X152402500Y-182324380D01*
X152307261Y-182324380D01*
X152164404Y-182276761D01*
X152069166Y-182181523D01*
X152021547Y-182086285D01*
X151973928Y-181895809D01*
X151973928Y-181752952D01*
X152021547Y-181562476D01*
X152069166Y-181467238D01*
X152164404Y-181372000D01*
X152307261Y-181324380D01*
X152402500Y-181324380D01*
X152545357Y-181372000D01*
X152592976Y-181419619D01*
X153450119Y-181324380D02*
X153259642Y-181324380D01*
X153164404Y-181372000D01*
X153116785Y-181419619D01*
X153021547Y-181562476D01*
X152973928Y-181752952D01*
X152973928Y-182133904D01*
X153021547Y-182229142D01*
X153069166Y-182276761D01*
X153164404Y-182324380D01*
X153354880Y-182324380D01*
X153450119Y-182276761D01*
X153497738Y-182229142D01*
X153545357Y-182133904D01*
X153545357Y-181895809D01*
X153497738Y-181800571D01*
X153450119Y-181752952D01*
X153354880Y-181705333D01*
X153164404Y-181705333D01*
X153069166Y-181752952D01*
X153021547Y-181800571D01*
X152973928Y-181895809D01*
X154164404Y-181324380D02*
X154259642Y-181324380D01*
X154354880Y-181372000D01*
X154402500Y-181419619D01*
X154450119Y-181514857D01*
X154497738Y-181705333D01*
X154497738Y-181943428D01*
X154450119Y-182133904D01*
X154402500Y-182229142D01*
X154354880Y-182276761D01*
X154259642Y-182324380D01*
X154164404Y-182324380D01*
X154069166Y-182276761D01*
X154021547Y-182229142D01*
X153973928Y-182133904D01*
X153926309Y-181943428D01*
X153926309Y-181705333D01*
X153973928Y-181514857D01*
X154021547Y-181419619D01*
X154069166Y-181372000D01*
X154164404Y-181324380D01*
X155402500Y-181324380D02*
X154926309Y-181324380D01*
X154878690Y-181800571D01*
X154926309Y-181752952D01*
X155021547Y-181705333D01*
X155259642Y-181705333D01*
X155354880Y-181752952D01*
X155402500Y-181800571D01*
X155450119Y-181895809D01*
X155450119Y-182133904D01*
X155402500Y-182229142D01*
X155354880Y-182276761D01*
X155259642Y-182324380D01*
X155021547Y-182324380D01*
X154926309Y-182276761D01*
X154878690Y-182229142D01*
X194402500Y-182324380D02*
X194402500Y-181324380D01*
X194735833Y-182038666D01*
X195069166Y-181324380D01*
X195069166Y-182324380D01*
X195545357Y-182324380D02*
X195545357Y-181324380D01*
X196592976Y-182229142D02*
X196545357Y-182276761D01*
X196402500Y-182324380D01*
X196307261Y-182324380D01*
X196164404Y-182276761D01*
X196069166Y-182181523D01*
X196021547Y-182086285D01*
X195973928Y-181895809D01*
X195973928Y-181752952D01*
X196021547Y-181562476D01*
X196069166Y-181467238D01*
X196164404Y-181372000D01*
X196307261Y-181324380D01*
X196402500Y-181324380D01*
X196545357Y-181372000D01*
X196592976Y-181419619D01*
X197450119Y-181324380D02*
X197259642Y-181324380D01*
X197164404Y-181372000D01*
X197116785Y-181419619D01*
X197021547Y-181562476D01*
X196973928Y-181752952D01*
X196973928Y-182133904D01*
X197021547Y-182229142D01*
X197069166Y-182276761D01*
X197164404Y-182324380D01*
X197354880Y-182324380D01*
X197450119Y-182276761D01*
X197497738Y-182229142D01*
X197545357Y-182133904D01*
X197545357Y-181895809D01*
X197497738Y-181800571D01*
X197450119Y-181752952D01*
X197354880Y-181705333D01*
X197164404Y-181705333D01*
X197069166Y-181752952D01*
X197021547Y-181800571D01*
X196973928Y-181895809D01*
X198164404Y-181324380D02*
X198259642Y-181324380D01*
X198354880Y-181372000D01*
X198402500Y-181419619D01*
X198450119Y-181514857D01*
X198497738Y-181705333D01*
X198497738Y-181943428D01*
X198450119Y-182133904D01*
X198402500Y-182229142D01*
X198354880Y-182276761D01*
X198259642Y-182324380D01*
X198164404Y-182324380D01*
X198069166Y-182276761D01*
X198021547Y-182229142D01*
X197973928Y-182133904D01*
X197926309Y-181943428D01*
X197926309Y-181705333D01*
X197973928Y-181514857D01*
X198021547Y-181419619D01*
X198069166Y-181372000D01*
X198164404Y-181324380D01*
X199354880Y-181324380D02*
X199164404Y-181324380D01*
X199069166Y-181372000D01*
X199021547Y-181419619D01*
X198926309Y-181562476D01*
X198878690Y-181752952D01*
X198878690Y-182133904D01*
X198926309Y-182229142D01*
X198973928Y-182276761D01*
X199069166Y-182324380D01*
X199259642Y-182324380D01*
X199354880Y-182276761D01*
X199402500Y-182229142D01*
X199450119Y-182133904D01*
X199450119Y-181895809D01*
X199402500Y-181800571D01*
X199354880Y-181752952D01*
X199259642Y-181705333D01*
X199069166Y-181705333D01*
X198973928Y-181752952D01*
X198926309Y-181800571D01*
X198878690Y-181895809D01*
X238402500Y-182324380D02*
X238402500Y-181324380D01*
X238735833Y-182038666D01*
X239069166Y-181324380D01*
X239069166Y-182324380D01*
X239545357Y-182324380D02*
X239545357Y-181324380D01*
X240592976Y-182229142D02*
X240545357Y-182276761D01*
X240402500Y-182324380D01*
X240307261Y-182324380D01*
X240164404Y-182276761D01*
X240069166Y-182181523D01*
X240021547Y-182086285D01*
X239973928Y-181895809D01*
X239973928Y-181752952D01*
X240021547Y-181562476D01*
X240069166Y-181467238D01*
X240164404Y-181372000D01*
X240307261Y-181324380D01*
X240402500Y-181324380D01*
X240545357Y-181372000D01*
X240592976Y-181419619D01*
X241450119Y-181324380D02*
X241259642Y-181324380D01*
X241164404Y-181372000D01*
X241116785Y-181419619D01*
X241021547Y-181562476D01*
X240973928Y-181752952D01*
X240973928Y-182133904D01*
X241021547Y-182229142D01*
X241069166Y-182276761D01*
X241164404Y-182324380D01*
X241354880Y-182324380D01*
X241450119Y-182276761D01*
X241497738Y-182229142D01*
X241545357Y-182133904D01*
X241545357Y-181895809D01*
X241497738Y-181800571D01*
X241450119Y-181752952D01*
X241354880Y-181705333D01*
X241164404Y-181705333D01*
X241069166Y-181752952D01*
X241021547Y-181800571D01*
X240973928Y-181895809D01*
X242164404Y-181324380D02*
X242259642Y-181324380D01*
X242354880Y-181372000D01*
X242402500Y-181419619D01*
X242450119Y-181514857D01*
X242497738Y-181705333D01*
X242497738Y-181943428D01*
X242450119Y-182133904D01*
X242402500Y-182229142D01*
X242354880Y-182276761D01*
X242259642Y-182324380D01*
X242164404Y-182324380D01*
X242069166Y-182276761D01*
X242021547Y-182229142D01*
X241973928Y-182133904D01*
X241926309Y-181943428D01*
X241926309Y-181705333D01*
X241973928Y-181514857D01*
X242021547Y-181419619D01*
X242069166Y-181372000D01*
X242164404Y-181324380D01*
X242831071Y-181324380D02*
X243497738Y-181324380D01*
X243069166Y-182324380D01*
X260402500Y-182324380D02*
X260402500Y-181324380D01*
X260735833Y-182038666D01*
X261069166Y-181324380D01*
X261069166Y-182324380D01*
X261545357Y-182324380D02*
X261545357Y-181324380D01*
X262592976Y-182229142D02*
X262545357Y-182276761D01*
X262402500Y-182324380D01*
X262307261Y-182324380D01*
X262164404Y-182276761D01*
X262069166Y-182181523D01*
X262021547Y-182086285D01*
X261973928Y-181895809D01*
X261973928Y-181752952D01*
X262021547Y-181562476D01*
X262069166Y-181467238D01*
X262164404Y-181372000D01*
X262307261Y-181324380D01*
X262402500Y-181324380D01*
X262545357Y-181372000D01*
X262592976Y-181419619D01*
X263450119Y-181324380D02*
X263259642Y-181324380D01*
X263164404Y-181372000D01*
X263116785Y-181419619D01*
X263021547Y-181562476D01*
X262973928Y-181752952D01*
X262973928Y-182133904D01*
X263021547Y-182229142D01*
X263069166Y-182276761D01*
X263164404Y-182324380D01*
X263354880Y-182324380D01*
X263450119Y-182276761D01*
X263497738Y-182229142D01*
X263545357Y-182133904D01*
X263545357Y-181895809D01*
X263497738Y-181800571D01*
X263450119Y-181752952D01*
X263354880Y-181705333D01*
X263164404Y-181705333D01*
X263069166Y-181752952D01*
X263021547Y-181800571D01*
X262973928Y-181895809D01*
X264164404Y-181324380D02*
X264259642Y-181324380D01*
X264354880Y-181372000D01*
X264402500Y-181419619D01*
X264450119Y-181514857D01*
X264497738Y-181705333D01*
X264497738Y-181943428D01*
X264450119Y-182133904D01*
X264402500Y-182229142D01*
X264354880Y-182276761D01*
X264259642Y-182324380D01*
X264164404Y-182324380D01*
X264069166Y-182276761D01*
X264021547Y-182229142D01*
X263973928Y-182133904D01*
X263926309Y-181943428D01*
X263926309Y-181705333D01*
X263973928Y-181514857D01*
X264021547Y-181419619D01*
X264069166Y-181372000D01*
X264164404Y-181324380D01*
X265069166Y-181752952D02*
X264973928Y-181705333D01*
X264926309Y-181657714D01*
X264878690Y-181562476D01*
X264878690Y-181514857D01*
X264926309Y-181419619D01*
X264973928Y-181372000D01*
X265069166Y-181324380D01*
X265259642Y-181324380D01*
X265354880Y-181372000D01*
X265402500Y-181419619D01*
X265450119Y-181514857D01*
X265450119Y-181562476D01*
X265402500Y-181657714D01*
X265354880Y-181705333D01*
X265259642Y-181752952D01*
X265069166Y-181752952D01*
X264973928Y-181800571D01*
X264926309Y-181848190D01*
X264878690Y-181943428D01*
X264878690Y-182133904D01*
X264926309Y-182229142D01*
X264973928Y-182276761D01*
X265069166Y-182324380D01*
X265259642Y-182324380D01*
X265354880Y-182276761D01*
X265402500Y-182229142D01*
X265450119Y-182133904D01*
X265450119Y-181943428D01*
X265402500Y-181848190D01*
X265354880Y-181800571D01*
X265259642Y-181752952D01*
X283188214Y-106152380D02*
X283188214Y-106961904D01*
X283235833Y-107057142D01*
X283283452Y-107104761D01*
X283378690Y-107152380D01*
X283569166Y-107152380D01*
X283664404Y-107104761D01*
X283712023Y-107057142D01*
X283759642Y-106961904D01*
X283759642Y-106152380D01*
X284759642Y-107152380D02*
X284188214Y-107152380D01*
X284473928Y-107152380D02*
X284473928Y-106152380D01*
X284378690Y-106295238D01*
X284283452Y-106390476D01*
X284188214Y-106438095D01*
X285378690Y-106152380D02*
X285473928Y-106152380D01*
X285569166Y-106200000D01*
X285616785Y-106247619D01*
X285664404Y-106342857D01*
X285712023Y-106533333D01*
X285712023Y-106771428D01*
X285664404Y-106961904D01*
X285616785Y-107057142D01*
X285569166Y-107104761D01*
X285473928Y-107152380D01*
X285378690Y-107152380D01*
X285283452Y-107104761D01*
X285235833Y-107057142D01*
X285188214Y-106961904D01*
X285140595Y-106771428D01*
X285140595Y-106533333D01*
X285188214Y-106342857D01*
X285235833Y-106247619D01*
X285283452Y-106200000D01*
X285378690Y-106152380D01*
X286664404Y-107152380D02*
X286092976Y-107152380D01*
X286378690Y-107152380D02*
X286378690Y-106152380D01*
X286283452Y-106295238D01*
X286188214Y-106390476D01*
X286092976Y-106438095D01*
X283298214Y-94142380D02*
X283298214Y-94951904D01*
X283345833Y-95047142D01*
X283393452Y-95094761D01*
X283488690Y-95142380D01*
X283679166Y-95142380D01*
X283774404Y-95094761D01*
X283822023Y-95047142D01*
X283869642Y-94951904D01*
X283869642Y-94142380D01*
X284869642Y-95142380D02*
X284298214Y-95142380D01*
X284583928Y-95142380D02*
X284583928Y-94142380D01*
X284488690Y-94285238D01*
X284393452Y-94380476D01*
X284298214Y-94428095D01*
X285488690Y-94142380D02*
X285583928Y-94142380D01*
X285679166Y-94190000D01*
X285726785Y-94237619D01*
X285774404Y-94332857D01*
X285822023Y-94523333D01*
X285822023Y-94761428D01*
X285774404Y-94951904D01*
X285726785Y-95047142D01*
X285679166Y-95094761D01*
X285583928Y-95142380D01*
X285488690Y-95142380D01*
X285393452Y-95094761D01*
X285345833Y-95047142D01*
X285298214Y-94951904D01*
X285250595Y-94761428D01*
X285250595Y-94523333D01*
X285298214Y-94332857D01*
X285345833Y-94237619D01*
X285393452Y-94190000D01*
X285488690Y-94142380D01*
X286202976Y-94237619D02*
X286250595Y-94190000D01*
X286345833Y-94142380D01*
X286583928Y-94142380D01*
X286679166Y-94190000D01*
X286726785Y-94237619D01*
X286774404Y-94332857D01*
X286774404Y-94428095D01*
X286726785Y-94570952D01*
X286155357Y-95142380D01*
X286774404Y-95142380D01*
X291172214Y-86014380D02*
X291172214Y-86823904D01*
X291219833Y-86919142D01*
X291267452Y-86966761D01*
X291362690Y-87014380D01*
X291553166Y-87014380D01*
X291648404Y-86966761D01*
X291696023Y-86919142D01*
X291743642Y-86823904D01*
X291743642Y-86014380D01*
X292743642Y-87014380D02*
X292172214Y-87014380D01*
X292457928Y-87014380D02*
X292457928Y-86014380D01*
X292362690Y-86157238D01*
X292267452Y-86252476D01*
X292172214Y-86300095D01*
X293362690Y-86014380D02*
X293457928Y-86014380D01*
X293553166Y-86062000D01*
X293600785Y-86109619D01*
X293648404Y-86204857D01*
X293696023Y-86395333D01*
X293696023Y-86633428D01*
X293648404Y-86823904D01*
X293600785Y-86919142D01*
X293553166Y-86966761D01*
X293457928Y-87014380D01*
X293362690Y-87014380D01*
X293267452Y-86966761D01*
X293219833Y-86919142D01*
X293172214Y-86823904D01*
X293124595Y-86633428D01*
X293124595Y-86395333D01*
X293172214Y-86204857D01*
X293219833Y-86109619D01*
X293267452Y-86062000D01*
X293362690Y-86014380D01*
X294029357Y-86014380D02*
X294648404Y-86014380D01*
X294315071Y-86395333D01*
X294457928Y-86395333D01*
X294553166Y-86442952D01*
X294600785Y-86490571D01*
X294648404Y-86585809D01*
X294648404Y-86823904D01*
X294600785Y-86919142D01*
X294553166Y-86966761D01*
X294457928Y-87014380D01*
X294172214Y-87014380D01*
X294076976Y-86966761D01*
X294029357Y-86919142D01*
X140188214Y-55452380D02*
X140188214Y-56261904D01*
X140235833Y-56357142D01*
X140283452Y-56404761D01*
X140378690Y-56452380D01*
X140569166Y-56452380D01*
X140664404Y-56404761D01*
X140712023Y-56357142D01*
X140759642Y-56261904D01*
X140759642Y-55452380D01*
X141188214Y-55547619D02*
X141235833Y-55500000D01*
X141331071Y-55452380D01*
X141569166Y-55452380D01*
X141664404Y-55500000D01*
X141712023Y-55547619D01*
X141759642Y-55642857D01*
X141759642Y-55738095D01*
X141712023Y-55880952D01*
X141140595Y-56452380D01*
X141759642Y-56452380D01*
X142378690Y-55452380D02*
X142473928Y-55452380D01*
X142569166Y-55500000D01*
X142616785Y-55547619D01*
X142664404Y-55642857D01*
X142712023Y-55833333D01*
X142712023Y-56071428D01*
X142664404Y-56261904D01*
X142616785Y-56357142D01*
X142569166Y-56404761D01*
X142473928Y-56452380D01*
X142378690Y-56452380D01*
X142283452Y-56404761D01*
X142235833Y-56357142D01*
X142188214Y-56261904D01*
X142140595Y-56071428D01*
X142140595Y-55833333D01*
X142188214Y-55642857D01*
X142235833Y-55547619D01*
X142283452Y-55500000D01*
X142378690Y-55452380D01*
X143664404Y-56452380D02*
X143092976Y-56452380D01*
X143378690Y-56452380D02*
X143378690Y-55452380D01*
X143283452Y-55595238D01*
X143188214Y-55690476D01*
X143092976Y-55738095D01*
X140188214Y-75902380D02*
X140188214Y-76711904D01*
X140235833Y-76807142D01*
X140283452Y-76854761D01*
X140378690Y-76902380D01*
X140569166Y-76902380D01*
X140664404Y-76854761D01*
X140712023Y-76807142D01*
X140759642Y-76711904D01*
X140759642Y-75902380D01*
X141140595Y-75902380D02*
X141759642Y-75902380D01*
X141426309Y-76283333D01*
X141569166Y-76283333D01*
X141664404Y-76330952D01*
X141712023Y-76378571D01*
X141759642Y-76473809D01*
X141759642Y-76711904D01*
X141712023Y-76807142D01*
X141664404Y-76854761D01*
X141569166Y-76902380D01*
X141283452Y-76902380D01*
X141188214Y-76854761D01*
X141140595Y-76807142D01*
X142378690Y-75902380D02*
X142473928Y-75902380D01*
X142569166Y-75950000D01*
X142616785Y-75997619D01*
X142664404Y-76092857D01*
X142712023Y-76283333D01*
X142712023Y-76521428D01*
X142664404Y-76711904D01*
X142616785Y-76807142D01*
X142569166Y-76854761D01*
X142473928Y-76902380D01*
X142378690Y-76902380D01*
X142283452Y-76854761D01*
X142235833Y-76807142D01*
X142188214Y-76711904D01*
X142140595Y-76521428D01*
X142140595Y-76283333D01*
X142188214Y-76092857D01*
X142235833Y-75997619D01*
X142283452Y-75950000D01*
X142378690Y-75902380D01*
X143664404Y-76902380D02*
X143092976Y-76902380D01*
X143378690Y-76902380D02*
X143378690Y-75902380D01*
X143283452Y-76045238D01*
X143188214Y-76140476D01*
X143092976Y-76188095D01*
X140188214Y-105902380D02*
X140188214Y-106711904D01*
X140235833Y-106807142D01*
X140283452Y-106854761D01*
X140378690Y-106902380D01*
X140569166Y-106902380D01*
X140664404Y-106854761D01*
X140712023Y-106807142D01*
X140759642Y-106711904D01*
X140759642Y-105902380D01*
X141664404Y-106235714D02*
X141664404Y-106902380D01*
X141426309Y-105854761D02*
X141188214Y-106569047D01*
X141807261Y-106569047D01*
X142378690Y-105902380D02*
X142473928Y-105902380D01*
X142569166Y-105950000D01*
X142616785Y-105997619D01*
X142664404Y-106092857D01*
X142712023Y-106283333D01*
X142712023Y-106521428D01*
X142664404Y-106711904D01*
X142616785Y-106807142D01*
X142569166Y-106854761D01*
X142473928Y-106902380D01*
X142378690Y-106902380D01*
X142283452Y-106854761D01*
X142235833Y-106807142D01*
X142188214Y-106711904D01*
X142140595Y-106521428D01*
X142140595Y-106283333D01*
X142188214Y-106092857D01*
X142235833Y-105997619D01*
X142283452Y-105950000D01*
X142378690Y-105902380D01*
X143664404Y-106902380D02*
X143092976Y-106902380D01*
X143378690Y-106902380D02*
X143378690Y-105902380D01*
X143283452Y-106045238D01*
X143188214Y-106140476D01*
X143092976Y-106188095D01*
X140188214Y-145902380D02*
X140188214Y-146711904D01*
X140235833Y-146807142D01*
X140283452Y-146854761D01*
X140378690Y-146902380D01*
X140569166Y-146902380D01*
X140664404Y-146854761D01*
X140712023Y-146807142D01*
X140759642Y-146711904D01*
X140759642Y-145902380D01*
X141712023Y-145902380D02*
X141235833Y-145902380D01*
X141188214Y-146378571D01*
X141235833Y-146330952D01*
X141331071Y-146283333D01*
X141569166Y-146283333D01*
X141664404Y-146330952D01*
X141712023Y-146378571D01*
X141759642Y-146473809D01*
X141759642Y-146711904D01*
X141712023Y-146807142D01*
X141664404Y-146854761D01*
X141569166Y-146902380D01*
X141331071Y-146902380D01*
X141235833Y-146854761D01*
X141188214Y-146807142D01*
X142378690Y-145902380D02*
X142473928Y-145902380D01*
X142569166Y-145950000D01*
X142616785Y-145997619D01*
X142664404Y-146092857D01*
X142712023Y-146283333D01*
X142712023Y-146521428D01*
X142664404Y-146711904D01*
X142616785Y-146807142D01*
X142569166Y-146854761D01*
X142473928Y-146902380D01*
X142378690Y-146902380D01*
X142283452Y-146854761D01*
X142235833Y-146807142D01*
X142188214Y-146711904D01*
X142140595Y-146521428D01*
X142140595Y-146283333D01*
X142188214Y-146092857D01*
X142235833Y-145997619D01*
X142283452Y-145950000D01*
X142378690Y-145902380D01*
X143664404Y-146902380D02*
X143092976Y-146902380D01*
X143378690Y-146902380D02*
X143378690Y-145902380D01*
X143283452Y-146045238D01*
X143188214Y-146140476D01*
X143092976Y-146188095D01*
X140188214Y-185902380D02*
X140188214Y-186711904D01*
X140235833Y-186807142D01*
X140283452Y-186854761D01*
X140378690Y-186902380D01*
X140569166Y-186902380D01*
X140664404Y-186854761D01*
X140712023Y-186807142D01*
X140759642Y-186711904D01*
X140759642Y-185902380D01*
X141664404Y-185902380D02*
X141473928Y-185902380D01*
X141378690Y-185950000D01*
X141331071Y-185997619D01*
X141235833Y-186140476D01*
X141188214Y-186330952D01*
X141188214Y-186711904D01*
X141235833Y-186807142D01*
X141283452Y-186854761D01*
X141378690Y-186902380D01*
X141569166Y-186902380D01*
X141664404Y-186854761D01*
X141712023Y-186807142D01*
X141759642Y-186711904D01*
X141759642Y-186473809D01*
X141712023Y-186378571D01*
X141664404Y-186330952D01*
X141569166Y-186283333D01*
X141378690Y-186283333D01*
X141283452Y-186330952D01*
X141235833Y-186378571D01*
X141188214Y-186473809D01*
X142378690Y-185902380D02*
X142473928Y-185902380D01*
X142569166Y-185950000D01*
X142616785Y-185997619D01*
X142664404Y-186092857D01*
X142712023Y-186283333D01*
X142712023Y-186521428D01*
X142664404Y-186711904D01*
X142616785Y-186807142D01*
X142569166Y-186854761D01*
X142473928Y-186902380D01*
X142378690Y-186902380D01*
X142283452Y-186854761D01*
X142235833Y-186807142D01*
X142188214Y-186711904D01*
X142140595Y-186521428D01*
X142140595Y-186283333D01*
X142188214Y-186092857D01*
X142235833Y-185997619D01*
X142283452Y-185950000D01*
X142378690Y-185902380D01*
X143664404Y-186902380D02*
X143092976Y-186902380D01*
X143378690Y-186902380D02*
X143378690Y-185902380D01*
X143283452Y-186045238D01*
X143188214Y-186140476D01*
X143092976Y-186188095D01*
X298569166Y-206952260D02*
X298235833Y-206476070D01*
X297997738Y-206952260D02*
X297997738Y-205952260D01*
X298378690Y-205952260D01*
X298473928Y-205999880D01*
X298521547Y-206047499D01*
X298569166Y-206142737D01*
X298569166Y-206285594D01*
X298521547Y-206380832D01*
X298473928Y-206428451D01*
X298378690Y-206476070D01*
X297997738Y-206476070D01*
X298997738Y-206428451D02*
X299331071Y-206428451D01*
X299473928Y-206952260D02*
X298997738Y-206952260D01*
X298997738Y-205952260D01*
X299473928Y-205952260D01*
X300235833Y-206428451D02*
X299902500Y-206428451D01*
X299902500Y-206952260D02*
X299902500Y-205952260D01*
X300378690Y-205952260D01*
X300902500Y-205952260D02*
X300902500Y-206190356D01*
X300664404Y-206095118D02*
X300902500Y-206190356D01*
X301140595Y-206095118D01*
X300759642Y-206380832D02*
X300902500Y-206190356D01*
X301045357Y-206380832D01*
X301664404Y-205952260D02*
X301664404Y-206190356D01*
X301426309Y-206095118D02*
X301664404Y-206190356D01*
X301902500Y-206095118D01*
X301521547Y-206380832D02*
X301664404Y-206190356D01*
X301807261Y-206380832D01*
M02*
