G04 #@! TF.FileFunction,Legend,Bot*
%FSLAX46Y46*%
G04 Gerber Fmt 4.6, Leading zero omitted, Abs format (unit mm)*
G04 Created by KiCad (PCBNEW no-vcs-found-product) date Seg 25 Abr 2016 23:01:13 BRT*
%MOMM*%
G01*
G04 APERTURE LIST*
%ADD10C,0.100000*%
%ADD11C,0.381000*%
%ADD12C,0.304800*%
G04 APERTURE END LIST*
D10*
D11*
X311189000Y-178195000D02*
X311570000Y-178195000D01*
X311570000Y-178195000D02*
X311570000Y-164860000D01*
X311570000Y-164860000D02*
X329350000Y-164860000D01*
X329350000Y-164860000D02*
X329350000Y-185180000D01*
X329350000Y-185180000D02*
X329731000Y-185180000D01*
X295695000Y-111520000D02*
X295695000Y-178195000D01*
X295695000Y-178195000D02*
X311189000Y-178195000D01*
X329731000Y-185180000D02*
X342685000Y-185180000D01*
X343955000Y-185180000D02*
X342685000Y-185180000D01*
X350305000Y-111520000D02*
X350305000Y-178830000D01*
X337605000Y-98820000D02*
X308395000Y-98820000D01*
X350305000Y-111520000D02*
G75*
G03X337605000Y-98820000I-12700000J0D01*
G01*
X308395000Y-98820000D02*
G75*
G03X295695000Y-111520000I0J-12700000D01*
G01*
X343955000Y-185180000D02*
G75*
G03X350305000Y-178830000I0J6350000D01*
G01*
D12*
X320165428Y-139189308D02*
X321399142Y-139189308D01*
X321544285Y-139261880D01*
X321616857Y-139334451D01*
X321689428Y-139479594D01*
X321689428Y-139769880D01*
X321616857Y-139915022D01*
X321544285Y-139987594D01*
X321399142Y-140060165D01*
X320165428Y-140060165D01*
X321689428Y-141584165D02*
X321689428Y-140713308D01*
X321689428Y-141148737D02*
X320165428Y-141148737D01*
X320383142Y-141003594D01*
X320528285Y-140858451D01*
X320600857Y-140713308D01*
X320165428Y-142527594D02*
X320165428Y-142672737D01*
X320238000Y-142817880D01*
X320310571Y-142890451D01*
X320455714Y-142963022D01*
X320746000Y-143035594D01*
X321108857Y-143035594D01*
X321399142Y-142963022D01*
X321544285Y-142890451D01*
X321616857Y-142817880D01*
X321689428Y-142672737D01*
X321689428Y-142527594D01*
X321616857Y-142382451D01*
X321544285Y-142309880D01*
X321399142Y-142237308D01*
X321108857Y-142164737D01*
X320746000Y-142164737D01*
X320455714Y-142237308D01*
X320310571Y-142309880D01*
X320238000Y-142382451D01*
X320165428Y-142527594D01*
X320673428Y-144341880D02*
X321689428Y-144341880D01*
X320092857Y-143979022D02*
X321181428Y-143616165D01*
X321181428Y-144559594D01*
M02*
