G04 #@! TF.FileFunction,Copper,L1,Top,Signal*
%FSLAX46Y46*%
G04 Gerber Fmt 4.6, Leading zero omitted, Abs format (unit mm)*
G04 Created by KiCad (PCBNEW no-vcs-found-product) date Seg 25 Abr 2016 23:01:13 BRT*
%MOMM*%
G01*
G04 APERTURE LIST*
%ADD10C,0.100000*%
%ADD11R,1.500000X1.250000*%
%ADD12R,2.400300X3.500120*%
%ADD13R,1.250000X1.500000*%
%ADD14R,1.600000X2.100000*%
%ADD15R,1.450000X0.450000*%
%ADD16O,1.658620X0.408940*%
%ADD17O,0.657860X0.299720*%
%ADD18C,4.572000*%
%ADD19R,1.800000X1.800000*%
%ADD20C,1.800000*%
%ADD21R,1.500000X0.450000*%
%ADD22C,0.762000*%
%ADD23C,0.508000*%
%ADD24C,0.254000*%
%ADD25C,0.203200*%
G04 APERTURE END LIST*
D10*
D11*
X286360000Y-116280000D03*
X283860000Y-116280000D03*
D12*
X287000000Y-158748800D03*
X287000000Y-165251200D03*
D11*
X283606000Y-82752000D03*
X286106000Y-82752000D03*
D13*
X144902000Y-54538000D03*
X144902000Y-52038000D03*
X145664000Y-74584000D03*
X145664000Y-72084000D03*
X145664000Y-104068000D03*
X145664000Y-101568000D03*
X145156000Y-143946000D03*
X145156000Y-141446000D03*
X145410000Y-183570000D03*
X145410000Y-181070000D03*
D14*
X62968000Y-54666000D03*
X67032000Y-54666000D03*
X62968000Y-65334000D03*
X67032000Y-65334000D03*
X73968000Y-54666000D03*
X78032000Y-54666000D03*
X73968000Y-65334000D03*
X78032000Y-65334000D03*
X95968000Y-54666000D03*
X100032000Y-54666000D03*
X95968000Y-65334000D03*
X100032000Y-65334000D03*
X128968000Y-54666000D03*
X133032000Y-54666000D03*
X128968000Y-65334000D03*
X133032000Y-65334000D03*
X150968000Y-54666000D03*
X155032000Y-54666000D03*
X150968000Y-65334000D03*
X155032000Y-65334000D03*
X194968000Y-54666000D03*
X199032000Y-54666000D03*
X194968000Y-65334000D03*
X199032000Y-65334000D03*
X238968000Y-54666000D03*
X243032000Y-54666000D03*
X238968000Y-65334000D03*
X243032000Y-65334000D03*
X260968000Y-54666000D03*
X265032000Y-54666000D03*
X260968000Y-65334000D03*
X265032000Y-65334000D03*
X62968000Y-74666000D03*
X67032000Y-74666000D03*
X62968000Y-85334000D03*
X67032000Y-85334000D03*
X73968000Y-74666000D03*
X78032000Y-74666000D03*
X73968000Y-85334000D03*
X78032000Y-85334000D03*
X95968000Y-74666000D03*
X100032000Y-74666000D03*
X95968000Y-85334000D03*
X100032000Y-85334000D03*
X128968000Y-74666000D03*
X133032000Y-74666000D03*
X128968000Y-85334000D03*
X133032000Y-85334000D03*
X150968000Y-74666000D03*
X155032000Y-74666000D03*
X150968000Y-85334000D03*
X155032000Y-85334000D03*
X194968000Y-74666000D03*
X199032000Y-74666000D03*
X194968000Y-85334000D03*
X199032000Y-85334000D03*
X238968000Y-74666000D03*
X243032000Y-74666000D03*
X238968000Y-85334000D03*
X243032000Y-85334000D03*
X260968000Y-74666000D03*
X265032000Y-74666000D03*
X260968000Y-85334000D03*
X265032000Y-85334000D03*
X62968000Y-104666000D03*
X67032000Y-104666000D03*
X62968000Y-115334000D03*
X67032000Y-115334000D03*
X73968000Y-104666000D03*
X78032000Y-104666000D03*
X73968000Y-115334000D03*
X78032000Y-115334000D03*
X95968000Y-104666000D03*
X100032000Y-104666000D03*
X95968000Y-115334000D03*
X100032000Y-115334000D03*
X128968000Y-104666000D03*
X133032000Y-104666000D03*
X128968000Y-115334000D03*
X133032000Y-115334000D03*
X150968000Y-104666000D03*
X155032000Y-104666000D03*
X150968000Y-115334000D03*
X155032000Y-115334000D03*
X194968000Y-104666000D03*
X199032000Y-104666000D03*
X194968000Y-115334000D03*
X199032000Y-115334000D03*
X238968000Y-104666000D03*
X243032000Y-104666000D03*
X238968000Y-115334000D03*
X243032000Y-115334000D03*
X260968000Y-104666000D03*
X265032000Y-104666000D03*
X260968000Y-115334000D03*
X265032000Y-115334000D03*
X62968000Y-144666000D03*
X67032000Y-144666000D03*
X62968000Y-155334000D03*
X67032000Y-155334000D03*
X73968000Y-144666000D03*
X78032000Y-144666000D03*
X73968000Y-155334000D03*
X78032000Y-155334000D03*
X95968000Y-144666000D03*
X100032000Y-144666000D03*
X95968000Y-155334000D03*
X100032000Y-155334000D03*
X128968000Y-144666000D03*
X133032000Y-144666000D03*
X128968000Y-155334000D03*
X133032000Y-155334000D03*
X150968000Y-144666000D03*
X155032000Y-144666000D03*
X150968000Y-155334000D03*
X155032000Y-155334000D03*
X194968000Y-144666000D03*
X199032000Y-144666000D03*
X194968000Y-155334000D03*
X199032000Y-155334000D03*
X238968000Y-144666000D03*
X243032000Y-144666000D03*
X238968000Y-155334000D03*
X243032000Y-155334000D03*
X260968000Y-144666000D03*
X265032000Y-144666000D03*
X260968000Y-155334000D03*
X265032000Y-155334000D03*
X62968000Y-184666000D03*
X67032000Y-184666000D03*
X62968000Y-195334000D03*
X67032000Y-195334000D03*
X73968000Y-184666000D03*
X78032000Y-184666000D03*
X73968000Y-195334000D03*
X78032000Y-195334000D03*
X95968000Y-184666000D03*
X100032000Y-184666000D03*
X95968000Y-195334000D03*
X100032000Y-195334000D03*
X128968000Y-184666000D03*
X133032000Y-184666000D03*
X128968000Y-195334000D03*
X133032000Y-195334000D03*
X150968000Y-184666000D03*
X155032000Y-184666000D03*
X150968000Y-195334000D03*
X155032000Y-195334000D03*
X194968000Y-184666000D03*
X199032000Y-184666000D03*
X194968000Y-195334000D03*
X199032000Y-195334000D03*
X238968000Y-184666000D03*
X243032000Y-184666000D03*
X238968000Y-195334000D03*
X243032000Y-195334000D03*
X260968000Y-184666000D03*
X265032000Y-184666000D03*
X260968000Y-195334000D03*
X265032000Y-195334000D03*
D15*
X282050000Y-108075000D03*
X282050000Y-108725000D03*
X282050000Y-109375000D03*
X282050000Y-110025000D03*
X282050000Y-110675000D03*
X282050000Y-111325000D03*
X282050000Y-111975000D03*
X282050000Y-112625000D03*
X282050000Y-113275000D03*
X282050000Y-113925000D03*
X287950000Y-113925000D03*
X287950000Y-113275000D03*
X287950000Y-112625000D03*
X287950000Y-111975000D03*
X287950000Y-111325000D03*
X287950000Y-110675000D03*
X287950000Y-110025000D03*
X287950000Y-109375000D03*
X287950000Y-108725000D03*
X287950000Y-108075000D03*
D16*
X282371100Y-86142500D03*
X282371100Y-86777500D03*
X282371100Y-87412500D03*
X282371100Y-88047500D03*
X282371100Y-88682500D03*
X282371100Y-89317500D03*
X282371100Y-89952500D03*
X282371100Y-90587500D03*
X282371100Y-91222500D03*
X282371100Y-91857500D03*
X287628900Y-91857500D03*
X287628900Y-91222500D03*
X287628900Y-90587500D03*
X287628900Y-89952500D03*
X287628900Y-89317500D03*
X287628900Y-88682500D03*
X287628900Y-88047500D03*
X287628900Y-87412500D03*
X287628900Y-86777500D03*
X287628900Y-86142500D03*
D17*
X293718060Y-85027840D03*
X293718060Y-84530000D03*
X293718060Y-84032160D03*
X292249940Y-84032160D03*
X292249940Y-85027840D03*
D18*
X343955000Y-104535000D03*
X347130000Y-170575000D03*
X298870000Y-170575000D03*
X302045000Y-104535000D03*
D19*
X348400000Y-165495000D03*
D20*
X345860000Y-165495000D03*
X348400000Y-162955000D03*
X345860000Y-162955000D03*
X348400000Y-160415000D03*
X345860000Y-160415000D03*
X348400000Y-157875000D03*
X345860000Y-157875000D03*
X348400000Y-155335000D03*
X345860000Y-155335000D03*
X348400000Y-152795000D03*
X345860000Y-152795000D03*
X348400000Y-150255000D03*
X345860000Y-150255000D03*
X348400000Y-147715000D03*
X345860000Y-147715000D03*
X348400000Y-145175000D03*
X345860000Y-145175000D03*
X348400000Y-142635000D03*
X345860000Y-142635000D03*
X348400000Y-140095000D03*
X345860000Y-140095000D03*
X348400000Y-137555000D03*
X345860000Y-137555000D03*
X348400000Y-135015000D03*
X345860000Y-135015000D03*
X348400000Y-132475000D03*
X345860000Y-132475000D03*
X348400000Y-129935000D03*
X345860000Y-129935000D03*
X348400000Y-127395000D03*
X345860000Y-127395000D03*
X348400000Y-124855000D03*
X345860000Y-124855000D03*
X348400000Y-122315000D03*
X345860000Y-122315000D03*
X348400000Y-119775000D03*
X345860000Y-119775000D03*
X348400000Y-117235000D03*
X345860000Y-117235000D03*
X348400000Y-114695000D03*
X345860000Y-114695000D03*
X348400000Y-112155000D03*
X345860000Y-112155000D03*
X348400000Y-109615000D03*
X345860000Y-109615000D03*
D19*
X300140000Y-165495000D03*
D20*
X297600000Y-165495000D03*
X300140000Y-162955000D03*
X297600000Y-162955000D03*
X300140000Y-160415000D03*
X297600000Y-160415000D03*
X300140000Y-157875000D03*
X297600000Y-157875000D03*
X300140000Y-155335000D03*
X297600000Y-155335000D03*
X300140000Y-152795000D03*
X297600000Y-152795000D03*
X300140000Y-150255000D03*
X297600000Y-150255000D03*
X300140000Y-147715000D03*
X297600000Y-147715000D03*
X300140000Y-145175000D03*
X297600000Y-145175000D03*
X300140000Y-142635000D03*
X297600000Y-142635000D03*
X300140000Y-140095000D03*
X297600000Y-140095000D03*
X300140000Y-137555000D03*
X297600000Y-137555000D03*
X300140000Y-135015000D03*
X297600000Y-135015000D03*
X300140000Y-132475000D03*
X297600000Y-132475000D03*
X300140000Y-129935000D03*
X297600000Y-129935000D03*
X300140000Y-127395000D03*
X297600000Y-127395000D03*
X300140000Y-124855000D03*
X297600000Y-124855000D03*
X300140000Y-122315000D03*
X297600000Y-122315000D03*
X300140000Y-119775000D03*
X297600000Y-119775000D03*
X300140000Y-117235000D03*
X297600000Y-117235000D03*
X300140000Y-114695000D03*
X297600000Y-114695000D03*
X300140000Y-112155000D03*
X297600000Y-112155000D03*
X300140000Y-109615000D03*
X297600000Y-109615000D03*
D21*
X139050000Y-57725000D03*
X139050000Y-58375000D03*
X139050000Y-59025000D03*
X139050000Y-59675000D03*
X139050000Y-60325000D03*
X139050000Y-60975000D03*
X139050000Y-61625000D03*
X139050000Y-62275000D03*
X144950000Y-62275000D03*
X144950000Y-61625000D03*
X144950000Y-60975000D03*
X144950000Y-60325000D03*
X144950000Y-59675000D03*
X144950000Y-59025000D03*
X144950000Y-58375000D03*
X144950000Y-57725000D03*
X139050000Y-77725000D03*
X139050000Y-78375000D03*
X139050000Y-79025000D03*
X139050000Y-79675000D03*
X139050000Y-80325000D03*
X139050000Y-80975000D03*
X139050000Y-81625000D03*
X139050000Y-82275000D03*
X144950000Y-82275000D03*
X144950000Y-81625000D03*
X144950000Y-80975000D03*
X144950000Y-80325000D03*
X144950000Y-79675000D03*
X144950000Y-79025000D03*
X144950000Y-78375000D03*
X144950000Y-77725000D03*
X139050000Y-107725000D03*
X139050000Y-108375000D03*
X139050000Y-109025000D03*
X139050000Y-109675000D03*
X139050000Y-110325000D03*
X139050000Y-110975000D03*
X139050000Y-111625000D03*
X139050000Y-112275000D03*
X144950000Y-112275000D03*
X144950000Y-111625000D03*
X144950000Y-110975000D03*
X144950000Y-110325000D03*
X144950000Y-109675000D03*
X144950000Y-109025000D03*
X144950000Y-108375000D03*
X144950000Y-107725000D03*
X139050000Y-147725000D03*
X139050000Y-148375000D03*
X139050000Y-149025000D03*
X139050000Y-149675000D03*
X139050000Y-150325000D03*
X139050000Y-150975000D03*
X139050000Y-151625000D03*
X139050000Y-152275000D03*
X144950000Y-152275000D03*
X144950000Y-151625000D03*
X144950000Y-150975000D03*
X144950000Y-150325000D03*
X144950000Y-149675000D03*
X144950000Y-149025000D03*
X144950000Y-148375000D03*
X144950000Y-147725000D03*
X139050000Y-187725000D03*
X139050000Y-188375000D03*
X139050000Y-189025000D03*
X139050000Y-189675000D03*
X139050000Y-190325000D03*
X139050000Y-190975000D03*
X139050000Y-191625000D03*
X139050000Y-192275000D03*
X144950000Y-192275000D03*
X144950000Y-191625000D03*
X144950000Y-190975000D03*
X144950000Y-190325000D03*
X144950000Y-189675000D03*
X144950000Y-189025000D03*
X144950000Y-188375000D03*
X144950000Y-187725000D03*
D22*
X287000000Y-155000000D03*
X281300000Y-82752000D03*
X289936000Y-85038000D03*
X288920000Y-116280000D03*
X287904000Y-106628000D03*
X260980000Y-187654000D03*
X236850000Y-186892000D03*
X192654000Y-186892000D03*
X148966000Y-186892000D03*
X126360000Y-186384000D03*
X93594000Y-186638000D03*
X71750000Y-187146000D03*
X62860000Y-187146000D03*
X261996000Y-148030000D03*
X236596000Y-146760000D03*
X192908000Y-147014000D03*
X148712000Y-147014000D03*
X126614000Y-146506000D03*
X93594000Y-145998000D03*
X72004000Y-147522000D03*
X61590000Y-147522000D03*
X263012000Y-106628000D03*
X236850000Y-106882000D03*
X192654000Y-106882000D03*
X148458000Y-106120000D03*
X126614000Y-106374000D03*
X93848000Y-106374000D03*
X71750000Y-106374000D03*
X62860000Y-107390000D03*
X260980000Y-77418000D03*
X237104000Y-76910000D03*
X192908000Y-76656000D03*
X148712000Y-76402000D03*
X126614000Y-76148000D03*
X93848000Y-76148000D03*
X72004000Y-76910000D03*
X62860000Y-77418000D03*
X146680000Y-56336000D03*
X260218000Y-57098000D03*
X238120000Y-57098000D03*
X193924000Y-57098000D03*
X149982000Y-57098000D03*
X126868000Y-56082000D03*
X93848000Y-56336000D03*
X73274000Y-57098000D03*
X62098000Y-57098000D03*
X147948981Y-100450981D03*
X288412000Y-81736000D03*
X281046000Y-93928000D03*
X281300000Y-116280000D03*
X289936000Y-108660000D03*
X282062000Y-106628000D03*
X139060000Y-194004000D03*
X147696000Y-181050000D03*
X265044000Y-187654000D03*
X245486000Y-187146000D03*
X201544000Y-186638000D03*
X157348000Y-186892000D03*
X135250000Y-186384000D03*
X102738000Y-183336000D03*
X80894000Y-183336000D03*
X67178000Y-187146000D03*
X139060000Y-154380000D03*
X147188000Y-141426000D03*
X266060000Y-148030000D03*
X244978000Y-147014000D03*
X201036000Y-147014000D03*
X157094000Y-147014000D03*
X135504000Y-146252000D03*
X102230000Y-146506000D03*
X80640000Y-143458000D03*
X68448000Y-147522000D03*
X139060000Y-113994000D03*
X263012000Y-100278000D03*
X240660000Y-107136000D03*
X201290000Y-106882000D03*
X157348000Y-106882000D03*
X135758000Y-105866000D03*
X102738000Y-106374000D03*
X80386000Y-106120000D03*
X66924000Y-107390000D03*
X147950000Y-70814000D03*
X139060000Y-84022000D03*
X265044000Y-77418000D03*
X244978000Y-76910000D03*
X201036000Y-76910000D03*
X157094000Y-76910000D03*
X135250000Y-76402000D03*
X102230000Y-76148000D03*
X80386000Y-76402000D03*
X66924000Y-77418000D03*
X146934000Y-52018000D03*
X139060000Y-64210000D03*
X264282000Y-57098000D03*
X241930000Y-57098000D03*
X197988000Y-57098000D03*
X154300000Y-57098000D03*
X130932000Y-56082000D03*
X97912000Y-56336000D03*
X77338000Y-57098006D03*
X66162000Y-57098000D03*
X136265996Y-68274000D03*
X147696000Y-68274000D03*
X136266000Y-88340000D03*
X147696000Y-88340000D03*
X136266000Y-118058000D03*
X147696000Y-118058000D03*
X136266000Y-157936000D03*
X147696000Y-157936000D03*
X279013996Y-85038000D03*
X137282000Y-65480004D03*
X279014000Y-86562000D03*
X137282000Y-85292000D03*
X279014000Y-88086000D03*
X137282000Y-115264000D03*
X279014000Y-89864000D03*
X137536000Y-155396000D03*
X279014000Y-91388004D03*
X137282000Y-195274000D03*
X275965998Y-110184000D03*
X283078000Y-103072000D03*
X250566000Y-94690000D03*
X139060000Y-90880000D03*
X250566000Y-98500000D03*
X269870000Y-107644008D03*
X282062000Y-102056000D03*
X142108000Y-194003990D03*
X142108000Y-185368000D03*
X142108000Y-154379976D03*
X142108000Y-145236004D03*
X142108000Y-113993962D03*
X142108000Y-105358000D03*
X142108000Y-84022000D03*
X142108000Y-75132000D03*
X281046000Y-101040000D03*
X275712000Y-106374000D03*
X143378000Y-194004000D03*
X143378000Y-185368000D03*
X143378000Y-154380000D03*
X143378000Y-145236000D03*
X143378000Y-113994000D03*
X143378000Y-105358000D03*
X143378000Y-84022000D03*
X143378000Y-75132000D03*
D23*
X287000000Y-158748800D02*
X287000000Y-155000000D01*
D24*
X283606000Y-82752000D02*
X281300000Y-82752000D01*
X287628900Y-86142500D02*
X288831500Y-86142500D01*
X288831500Y-86142500D02*
X289936000Y-85038000D01*
X287628900Y-86142500D02*
X291539140Y-86142500D01*
X291539140Y-86142500D02*
X292249940Y-85431700D01*
X292249940Y-85431700D02*
X292249940Y-85027840D01*
X286360000Y-116280000D02*
X288920000Y-116280000D01*
X287950000Y-108075000D02*
X287950000Y-106674000D01*
X287950000Y-106674000D02*
X287904000Y-106628000D01*
X145410000Y-183570000D02*
X145410000Y-187265000D01*
X145410000Y-187265000D02*
X144950000Y-187725000D01*
X145410000Y-183570000D02*
X145410000Y-183695000D01*
X145410000Y-183695000D02*
X148607000Y-186892000D01*
X148607000Y-186892000D02*
X148966000Y-186892000D01*
X260968000Y-184666000D02*
X260968000Y-187642000D01*
X260968000Y-187642000D02*
X260980000Y-187654000D01*
X238968000Y-184666000D02*
X238968000Y-184916000D01*
X238968000Y-184916000D02*
X236992000Y-186892000D01*
X236992000Y-186892000D02*
X236850000Y-186892000D01*
X194968000Y-184666000D02*
X194968000Y-184916000D01*
X194968000Y-184916000D02*
X192992000Y-186892000D01*
X192992000Y-186892000D02*
X192654000Y-186892000D01*
X150968000Y-184666000D02*
X150968000Y-184916000D01*
X150968000Y-184916000D02*
X148992000Y-186892000D01*
X148992000Y-186892000D02*
X148966000Y-186892000D01*
X128968000Y-184666000D02*
X128968000Y-184916000D01*
X128968000Y-184916000D02*
X127500000Y-186384000D01*
X127500000Y-186384000D02*
X126360000Y-186384000D01*
X95968000Y-184666000D02*
X95968000Y-184916000D01*
X95968000Y-184916000D02*
X94246000Y-186638000D01*
X94246000Y-186638000D02*
X93594000Y-186638000D01*
X73968000Y-184666000D02*
X73968000Y-184916000D01*
X73968000Y-184916000D02*
X71750000Y-187134000D01*
X71750000Y-187134000D02*
X71750000Y-187146000D01*
X62968000Y-184666000D02*
X62968000Y-187038000D01*
X62968000Y-187038000D02*
X62860000Y-187146000D01*
X145156000Y-143946000D02*
X145156000Y-144071000D01*
X148173185Y-147014000D02*
X148712000Y-147014000D01*
X145156000Y-144071000D02*
X148099000Y-147014000D01*
X148099000Y-147014000D02*
X148173185Y-147014000D01*
X145156000Y-143946000D02*
X145156000Y-147519000D01*
X145156000Y-147519000D02*
X144950000Y-147725000D01*
X260968000Y-144666000D02*
X260968000Y-147002000D01*
X260968000Y-147002000D02*
X261996000Y-148030000D01*
X238968000Y-144666000D02*
X238968000Y-144916000D01*
X238968000Y-144916000D02*
X237124000Y-146760000D01*
X237124000Y-146760000D02*
X236596000Y-146760000D01*
X194968000Y-144666000D02*
X194968000Y-144916000D01*
X192908000Y-146976000D02*
X192908000Y-147014000D01*
X194968000Y-144916000D02*
X192908000Y-146976000D01*
X150968000Y-144666000D02*
X150968000Y-144916000D01*
X150968000Y-144916000D02*
X148870000Y-147014000D01*
X148870000Y-147014000D02*
X148712000Y-147014000D01*
X128968000Y-144666000D02*
X128968000Y-144916000D01*
X128968000Y-144916000D02*
X127378000Y-146506000D01*
X127378000Y-146506000D02*
X126614000Y-146506000D01*
X95968000Y-144666000D02*
X95968000Y-144916000D01*
X95968000Y-144916000D02*
X94886000Y-145998000D01*
X94886000Y-145998000D02*
X93594000Y-145998000D01*
X73968000Y-144666000D02*
X73968000Y-144916000D01*
X73968000Y-144916000D02*
X72004000Y-146880000D01*
X72004000Y-146880000D02*
X72004000Y-147522000D01*
X62968000Y-144666000D02*
X62968000Y-146144000D01*
X62968000Y-146144000D02*
X61590000Y-147522000D01*
X145664000Y-104068000D02*
X145664000Y-104193000D01*
X145664000Y-104193000D02*
X147591000Y-106120000D01*
X147591000Y-106120000D02*
X147919185Y-106120000D01*
X147919185Y-106120000D02*
X148458000Y-106120000D01*
X145664000Y-104068000D02*
X145664000Y-107011000D01*
X145664000Y-107011000D02*
X144950000Y-107725000D01*
X260968000Y-104666000D02*
X260968000Y-105970000D01*
X260968000Y-105970000D02*
X261626000Y-106628000D01*
X261626000Y-106628000D02*
X263012000Y-106628000D01*
X238968000Y-104666000D02*
X238968000Y-104916000D01*
X238968000Y-104916000D02*
X237002000Y-106882000D01*
X237002000Y-106882000D02*
X236850000Y-106882000D01*
X194968000Y-104666000D02*
X194968000Y-104916000D01*
X194968000Y-104916000D02*
X193002000Y-106882000D01*
X193002000Y-106882000D02*
X192654000Y-106882000D01*
X150968000Y-104666000D02*
X150968000Y-104916000D01*
X150968000Y-104916000D02*
X149764000Y-106120000D01*
X149764000Y-106120000D02*
X148458000Y-106120000D01*
X128968000Y-104666000D02*
X128968000Y-104916000D01*
X128968000Y-104916000D02*
X127510000Y-106374000D01*
X127510000Y-106374000D02*
X126614000Y-106374000D01*
X95968000Y-104666000D02*
X95968000Y-104916000D01*
X95968000Y-104916000D02*
X94510000Y-106374000D01*
X94510000Y-106374000D02*
X93848000Y-106374000D01*
X73968000Y-104666000D02*
X73968000Y-104916000D01*
X73968000Y-104916000D02*
X72510000Y-106374000D01*
X72510000Y-106374000D02*
X71750000Y-106374000D01*
X62968000Y-104666000D02*
X62968000Y-107282000D01*
X62968000Y-107282000D02*
X62860000Y-107390000D01*
X145664000Y-74584000D02*
X146894000Y-74584000D01*
X146894000Y-74584000D02*
X148712000Y-76402000D01*
X145664000Y-74584000D02*
X145664000Y-77011000D01*
X145664000Y-77011000D02*
X144950000Y-77725000D01*
X260968000Y-74666000D02*
X260968000Y-77406000D01*
X260968000Y-77406000D02*
X260980000Y-77418000D01*
X238968000Y-74666000D02*
X238968000Y-74916000D01*
X238968000Y-74916000D02*
X237104000Y-76780000D01*
X237104000Y-76780000D02*
X237104000Y-76910000D01*
X194968000Y-74666000D02*
X194968000Y-75970000D01*
X194968000Y-75970000D02*
X194282000Y-76656000D01*
X194282000Y-76656000D02*
X192908000Y-76656000D01*
X150968000Y-74666000D02*
X150968000Y-74916000D01*
X150968000Y-74916000D02*
X149482000Y-76402000D01*
X149482000Y-76402000D02*
X148712000Y-76402000D01*
X128968000Y-74666000D02*
X128968000Y-74916000D01*
X128968000Y-74916000D02*
X127736000Y-76148000D01*
X127736000Y-76148000D02*
X126614000Y-76148000D01*
X95968000Y-74666000D02*
X95968000Y-74916000D01*
X95968000Y-74916000D02*
X94736000Y-76148000D01*
X94736000Y-76148000D02*
X93848000Y-76148000D01*
X73968000Y-74666000D02*
X73968000Y-74916000D01*
X73968000Y-74916000D02*
X72004000Y-76880000D01*
X72004000Y-76880000D02*
X72004000Y-76910000D01*
X62968000Y-74666000D02*
X62968000Y-74916000D01*
X62968000Y-74916000D02*
X62860000Y-75024000D01*
X62860000Y-75024000D02*
X62860000Y-77418000D01*
X144902000Y-54538000D02*
X144902000Y-54663000D01*
X144902000Y-54663000D02*
X146575000Y-56336000D01*
X146575000Y-56336000D02*
X146680000Y-56336000D01*
X144950000Y-57725000D02*
X144950000Y-54586000D01*
X144950000Y-54586000D02*
X144902000Y-54538000D01*
X260968000Y-54666000D02*
X260968000Y-56348000D01*
X260968000Y-56348000D02*
X260218000Y-57098000D01*
X238968000Y-54666000D02*
X238968000Y-56250000D01*
X238968000Y-56250000D02*
X238120000Y-57098000D01*
X194968000Y-54666000D02*
X194968000Y-55970000D01*
X194968000Y-55970000D02*
X193924000Y-57014000D01*
X193924000Y-57014000D02*
X193924000Y-57098000D01*
X150968000Y-54666000D02*
X150968000Y-56112000D01*
X150968000Y-56112000D02*
X149982000Y-57098000D01*
X128968000Y-54666000D02*
X128968000Y-54916000D01*
X128968000Y-54916000D02*
X127802000Y-56082000D01*
X127802000Y-56082000D02*
X126868000Y-56082000D01*
X95968000Y-54666000D02*
X95968000Y-54916000D01*
X95968000Y-54916000D02*
X94548000Y-56336000D01*
X94548000Y-56336000D02*
X93848000Y-56336000D01*
X73968000Y-54666000D02*
X73968000Y-56404000D01*
X73968000Y-56404000D02*
X73274000Y-57098000D01*
X62968000Y-54666000D02*
X62968000Y-56228000D01*
X62968000Y-56228000D02*
X62098000Y-57098000D01*
X145664000Y-101568000D02*
X146831962Y-101568000D01*
X146831962Y-101568000D02*
X147948981Y-100450981D01*
D23*
X287000000Y-165251200D02*
X297356200Y-165251200D01*
X297356200Y-165251200D02*
X297600000Y-165495000D01*
D24*
X286106000Y-82752000D02*
X287396000Y-82752000D01*
X287396000Y-82752000D02*
X288412000Y-81736000D01*
X286106000Y-82752000D02*
X292841760Y-82752000D01*
X292841760Y-82752000D02*
X293718060Y-83628300D01*
X293718060Y-83628300D02*
X293718060Y-84032160D01*
X282371100Y-91857500D02*
X281746260Y-91857500D01*
X281746260Y-91857500D02*
X281046000Y-92557760D01*
X281046000Y-92557760D02*
X281046000Y-93928000D01*
X283860000Y-116280000D02*
X281300000Y-116280000D01*
X287950000Y-108725000D02*
X289871000Y-108725000D01*
X289871000Y-108725000D02*
X289936000Y-108660000D01*
X282050000Y-108075000D02*
X282050000Y-106640000D01*
X282050000Y-106640000D02*
X282062000Y-106628000D01*
X283860000Y-116280000D02*
X282856000Y-116280000D01*
X282856000Y-116280000D02*
X282050000Y-115474000D01*
X282050000Y-115474000D02*
X282050000Y-114404000D01*
X282050000Y-114404000D02*
X282050000Y-113925000D01*
X139050000Y-192275000D02*
X139050000Y-193994000D01*
X139050000Y-193994000D02*
X139060000Y-194004000D01*
X139050000Y-191625000D02*
X139050000Y-192275000D01*
X145410000Y-181070000D02*
X147676000Y-181070000D01*
X147676000Y-181070000D02*
X147696000Y-181050000D01*
X265032000Y-184666000D02*
X265032000Y-187642000D01*
X265032000Y-187642000D02*
X265044000Y-187654000D01*
X243032000Y-184666000D02*
X243032000Y-184916000D01*
X243032000Y-184916000D02*
X245262000Y-187146000D01*
X245262000Y-187146000D02*
X245486000Y-187146000D01*
X199032000Y-184666000D02*
X199032000Y-184916000D01*
X199032000Y-184916000D02*
X200754000Y-186638000D01*
X200754000Y-186638000D02*
X201544000Y-186638000D01*
X155032000Y-184666000D02*
X155032000Y-184916000D01*
X155032000Y-184916000D02*
X157008000Y-186892000D01*
X157008000Y-186892000D02*
X157348000Y-186892000D01*
X133032000Y-184666000D02*
X133032000Y-184916000D01*
X133032000Y-184916000D02*
X134500000Y-186384000D01*
X134500000Y-186384000D02*
X135250000Y-186384000D01*
X100032000Y-184666000D02*
X101408000Y-184666000D01*
X101408000Y-184666000D02*
X102738000Y-183336000D01*
X78032000Y-184666000D02*
X79564000Y-184666000D01*
X79564000Y-184666000D02*
X80894000Y-183336000D01*
X67032000Y-184666000D02*
X67032000Y-187000000D01*
X67032000Y-187000000D02*
X67178000Y-187146000D01*
X139050000Y-152275000D02*
X139050000Y-154370000D01*
X139050000Y-154370000D02*
X139060000Y-154380000D01*
X139050000Y-151625000D02*
X139050000Y-152275000D01*
X145156000Y-141446000D02*
X147168000Y-141446000D01*
X147168000Y-141446000D02*
X147188000Y-141426000D01*
X265032000Y-144666000D02*
X265032000Y-147002000D01*
X265032000Y-147002000D02*
X266060000Y-148030000D01*
X243032000Y-144666000D02*
X243032000Y-144916000D01*
X243032000Y-144916000D02*
X244978000Y-146862000D01*
X244978000Y-146862000D02*
X244978000Y-147014000D01*
X199032000Y-144666000D02*
X199032000Y-144916000D01*
X199032000Y-144916000D02*
X201036000Y-146920000D01*
X201036000Y-146920000D02*
X201036000Y-147014000D01*
X155032000Y-144666000D02*
X155032000Y-144916000D01*
X155032000Y-144916000D02*
X157094000Y-146978000D01*
X157094000Y-146978000D02*
X157094000Y-147014000D01*
X133032000Y-144666000D02*
X133032000Y-144916000D01*
X133032000Y-144916000D02*
X134368000Y-146252000D01*
X134368000Y-146252000D02*
X135504000Y-146252000D01*
X100032000Y-144666000D02*
X100032000Y-144916000D01*
X100032000Y-144916000D02*
X101622000Y-146506000D01*
X101622000Y-146506000D02*
X102230000Y-146506000D01*
X78032000Y-144666000D02*
X79432000Y-144666000D01*
X79432000Y-144666000D02*
X80640000Y-143458000D01*
X67032000Y-144666000D02*
X67032000Y-146106000D01*
X67032000Y-146106000D02*
X68448000Y-147522000D01*
X139050000Y-112275000D02*
X139050000Y-113984000D01*
X139050000Y-113984000D02*
X139060000Y-113994000D01*
X139050000Y-111625000D02*
X139050000Y-112275000D01*
X265032000Y-104666000D02*
X265032000Y-102298000D01*
X265032000Y-102298000D02*
X263012000Y-100278000D01*
X243032000Y-104666000D02*
X243032000Y-104916000D01*
X243032000Y-104916000D02*
X240812000Y-107136000D01*
X240812000Y-107136000D02*
X240660000Y-107136000D01*
X199032000Y-104666000D02*
X199032000Y-104916000D01*
X199032000Y-104916000D02*
X200998000Y-106882000D01*
X200998000Y-106882000D02*
X201290000Y-106882000D01*
X155032000Y-104666000D02*
X155032000Y-104916000D01*
X155032000Y-104916000D02*
X156998000Y-106882000D01*
X156998000Y-106882000D02*
X157348000Y-106882000D01*
X133032000Y-104666000D02*
X133032000Y-104916000D01*
X133032000Y-104916000D02*
X133982000Y-105866000D01*
X133982000Y-105866000D02*
X135758000Y-105866000D01*
X100032000Y-104666000D02*
X100032000Y-104916000D01*
X100032000Y-104916000D02*
X101490000Y-106374000D01*
X101490000Y-106374000D02*
X102738000Y-106374000D01*
X78032000Y-104666000D02*
X78032000Y-104916000D01*
X78032000Y-104916000D02*
X79236000Y-106120000D01*
X79236000Y-106120000D02*
X80386000Y-106120000D01*
X67032000Y-104666000D02*
X67032000Y-107282000D01*
X67032000Y-107282000D02*
X66924000Y-107390000D01*
X145664000Y-72084000D02*
X146680000Y-72084000D01*
X146680000Y-72084000D02*
X147950000Y-70814000D01*
X139050000Y-82275000D02*
X139050000Y-84012000D01*
X139050000Y-84012000D02*
X139060000Y-84022000D01*
X139050000Y-81625000D02*
X139050000Y-82275000D01*
X265032000Y-74666000D02*
X265032000Y-77406000D01*
X265032000Y-77406000D02*
X265044000Y-77418000D01*
X243032000Y-74666000D02*
X243032000Y-74916000D01*
X243032000Y-74916000D02*
X244978000Y-76862000D01*
X244978000Y-76862000D02*
X244978000Y-76910000D01*
X199032000Y-74666000D02*
X199032000Y-74916000D01*
X201026000Y-76910000D02*
X201036000Y-76910000D01*
X199032000Y-74916000D02*
X201026000Y-76910000D01*
X155032000Y-74666000D02*
X155032000Y-74916000D01*
X155032000Y-74916000D02*
X157026000Y-76910000D01*
X157026000Y-76910000D02*
X157094000Y-76910000D01*
X133032000Y-74666000D02*
X133032000Y-74916000D01*
X133032000Y-74916000D02*
X134518000Y-76402000D01*
X134518000Y-76402000D02*
X135250000Y-76402000D01*
X100032000Y-74666000D02*
X100032000Y-74916000D01*
X100032000Y-74916000D02*
X101264000Y-76148000D01*
X101264000Y-76148000D02*
X102230000Y-76148000D01*
X78032000Y-74666000D02*
X78032000Y-74916000D01*
X78032000Y-74916000D02*
X79518000Y-76402000D01*
X79518000Y-76402000D02*
X80386000Y-76402000D01*
X67032000Y-74666000D02*
X67032000Y-77310000D01*
X67032000Y-77310000D02*
X66924000Y-77418000D01*
X144902000Y-52038000D02*
X146914000Y-52038000D01*
X146914000Y-52038000D02*
X146934000Y-52018000D01*
X139050000Y-64200000D02*
X139060000Y-64210000D01*
X139050000Y-62275000D02*
X139050000Y-64200000D01*
X139050000Y-61625000D02*
X139050000Y-62275000D01*
X265032000Y-54666000D02*
X265032000Y-56348000D01*
X265032000Y-56348000D02*
X264282000Y-57098000D01*
X243032000Y-54666000D02*
X243032000Y-55996000D01*
X243032000Y-55996000D02*
X241930000Y-57098000D01*
X199032000Y-54666000D02*
X199032000Y-55970000D01*
X199032000Y-55970000D02*
X197988000Y-57014000D01*
X197988000Y-57014000D02*
X197988000Y-57098000D01*
X155032000Y-54666000D02*
X155032000Y-56366000D01*
X155032000Y-56366000D02*
X154300000Y-57098000D01*
X133032000Y-54666000D02*
X133032000Y-54916000D01*
X133032000Y-54916000D02*
X131866000Y-56082000D01*
X131866000Y-56082000D02*
X130932000Y-56082000D01*
X100032000Y-54666000D02*
X100032000Y-54916000D01*
X100032000Y-54916000D02*
X98612000Y-56336000D01*
X98612000Y-56336000D02*
X97912000Y-56336000D01*
X77718999Y-56717007D02*
X77338000Y-57098006D01*
X78032000Y-56404006D02*
X77718999Y-56717007D01*
X78032000Y-54666000D02*
X78032000Y-56404006D01*
X67032000Y-54666000D02*
X67032000Y-56228000D01*
X67032000Y-56228000D02*
X66162000Y-57098000D01*
X287950000Y-109375000D02*
X286971000Y-109375000D01*
X286971000Y-109375000D02*
X271140000Y-93544000D01*
X135727181Y-68274000D02*
X136265996Y-68274000D01*
X132962000Y-68274000D02*
X135727181Y-68274000D01*
X130022000Y-65334000D02*
X132962000Y-68274000D01*
X128968000Y-65334000D02*
X130022000Y-65334000D01*
X102230000Y-68274000D02*
X136265996Y-68274000D01*
X154962000Y-68274000D02*
X147696000Y-68274000D01*
X271140000Y-73354000D02*
X266060000Y-68274000D01*
X271140000Y-93544000D02*
X271140000Y-73354000D01*
X266060000Y-68274000D02*
X263774000Y-68274000D01*
X77962000Y-68274000D02*
X79878000Y-68274000D01*
X79878000Y-68274000D02*
X102230000Y-68274000D01*
X62968000Y-65334000D02*
X64022000Y-65334000D01*
X64022000Y-65334000D02*
X66962000Y-68274000D01*
X66962000Y-68274000D02*
X79878000Y-68274000D01*
X99962000Y-68274000D02*
X102230000Y-68274000D01*
X73968000Y-65334000D02*
X75022000Y-65334000D01*
X75022000Y-65334000D02*
X77962000Y-68274000D01*
X95968000Y-65334000D02*
X97022000Y-65334000D01*
X97022000Y-65334000D02*
X99962000Y-68274000D01*
X154962000Y-68274000D02*
X158364000Y-68274000D01*
X158364000Y-68274000D02*
X201036000Y-68274000D01*
X198962000Y-68274000D02*
X201036000Y-68274000D01*
X201036000Y-68274000D02*
X244216000Y-68274000D01*
X150968000Y-65334000D02*
X152022000Y-65334000D01*
X152022000Y-65334000D02*
X154962000Y-68274000D01*
X242962000Y-68274000D02*
X244216000Y-68274000D01*
X244216000Y-68274000D02*
X263774000Y-68274000D01*
X194968000Y-65334000D02*
X196022000Y-65334000D01*
X196022000Y-65334000D02*
X198962000Y-68274000D01*
X240022000Y-65334000D02*
X242962000Y-68274000D01*
X263774000Y-68274000D02*
X262504000Y-68274000D01*
X238968000Y-65334000D02*
X240022000Y-65334000D01*
X262504000Y-68274000D02*
X260968000Y-66738000D01*
X260968000Y-66738000D02*
X260968000Y-65334000D01*
X67032000Y-65334000D02*
X70626000Y-65334000D01*
X70626000Y-65334000D02*
X78235000Y-57725000D01*
X78235000Y-57725000D02*
X138046000Y-57725000D01*
X138046000Y-57725000D02*
X139050000Y-57725000D01*
X78032000Y-65334000D02*
X78032000Y-65084000D01*
X78032000Y-65084000D02*
X84741000Y-58375000D01*
X84741000Y-58375000D02*
X138046000Y-58375000D01*
X138046000Y-58375000D02*
X139050000Y-58375000D01*
X100032000Y-65334000D02*
X100032000Y-64030000D01*
X100032000Y-64030000D02*
X105037000Y-59025000D01*
X105037000Y-59025000D02*
X138046000Y-59025000D01*
X138046000Y-59025000D02*
X139050000Y-59025000D01*
X133032000Y-65334000D02*
X133032000Y-64030000D01*
X133032000Y-64030000D02*
X137387000Y-59675000D01*
X137387000Y-59675000D02*
X138046000Y-59675000D01*
X138046000Y-59675000D02*
X139050000Y-59675000D01*
X155032000Y-65334000D02*
X155032000Y-64030000D01*
X155032000Y-64030000D02*
X151327000Y-60325000D01*
X151327000Y-60325000D02*
X145954000Y-60325000D01*
X145954000Y-60325000D02*
X144950000Y-60325000D01*
X199032000Y-65334000D02*
X197978000Y-65334000D01*
X197978000Y-65334000D02*
X192319000Y-59675000D01*
X192319000Y-59675000D02*
X144950000Y-59675000D01*
X243032000Y-65334000D02*
X241978000Y-65334000D01*
X241978000Y-65334000D02*
X235669000Y-59025000D01*
X235669000Y-59025000D02*
X145954000Y-59025000D01*
X145954000Y-59025000D02*
X144950000Y-59025000D01*
X144950000Y-58375000D02*
X258323000Y-58375000D01*
X258323000Y-58375000D02*
X265032000Y-65084000D01*
X265032000Y-65084000D02*
X265032000Y-65334000D01*
X262250000Y-88340000D02*
X279014000Y-105104000D01*
X279014000Y-105104000D02*
X279014000Y-107644000D01*
X280745000Y-109375000D02*
X282050000Y-109375000D01*
X279014000Y-107644000D02*
X280745000Y-109375000D01*
X133028000Y-88340000D02*
X134234000Y-88340000D01*
X134234000Y-88340000D02*
X134488000Y-88340000D01*
X136266000Y-88340000D02*
X134234000Y-88340000D01*
X155028000Y-88340000D02*
X147696000Y-88340000D01*
X244978000Y-88340000D02*
X262250000Y-88340000D01*
X262250000Y-88340000D02*
X260968000Y-87058000D01*
X260968000Y-87058000D02*
X260968000Y-85334000D01*
X78028000Y-88340000D02*
X79370000Y-88340000D01*
X79370000Y-88340000D02*
X100452000Y-88340000D01*
X62968000Y-85334000D02*
X64022000Y-85334000D01*
X64022000Y-85334000D02*
X67028000Y-88340000D01*
X67028000Y-88340000D02*
X79370000Y-88340000D01*
X100028000Y-88340000D02*
X100452000Y-88340000D01*
X100452000Y-88340000D02*
X134488000Y-88340000D01*
X73968000Y-85334000D02*
X75022000Y-85334000D01*
X75022000Y-85334000D02*
X78028000Y-88340000D01*
X95968000Y-85334000D02*
X97022000Y-85334000D01*
X97022000Y-85334000D02*
X100028000Y-88340000D01*
X155028000Y-88340000D02*
X156078000Y-88340000D01*
X156078000Y-88340000D02*
X200020000Y-88340000D01*
X128968000Y-85334000D02*
X130022000Y-85334000D01*
X130022000Y-85334000D02*
X133028000Y-88340000D01*
X199028000Y-88340000D02*
X200020000Y-88340000D01*
X200020000Y-88340000D02*
X244978000Y-88340000D01*
X150968000Y-85334000D02*
X152022000Y-85334000D01*
X152022000Y-85334000D02*
X155028000Y-88340000D01*
X243028000Y-88340000D02*
X244978000Y-88340000D01*
X194968000Y-85334000D02*
X196022000Y-85334000D01*
X196022000Y-85334000D02*
X199028000Y-88340000D01*
X238968000Y-85334000D02*
X240022000Y-85334000D01*
X240022000Y-85334000D02*
X243028000Y-88340000D01*
X67032000Y-85334000D02*
X67032000Y-85084000D01*
X67032000Y-85084000D02*
X74391000Y-77725000D01*
X74391000Y-77725000D02*
X138046000Y-77725000D01*
X138046000Y-77725000D02*
X139050000Y-77725000D01*
X78032000Y-85334000D02*
X79086000Y-85334000D01*
X79086000Y-85334000D02*
X86045000Y-78375000D01*
X86045000Y-78375000D02*
X138046000Y-78375000D01*
X138046000Y-78375000D02*
X139050000Y-78375000D01*
X78032000Y-85334000D02*
X78032000Y-85084000D01*
X100032000Y-85334000D02*
X101086000Y-85334000D01*
X101086000Y-85334000D02*
X107395000Y-79025000D01*
X107395000Y-79025000D02*
X138046000Y-79025000D01*
X138046000Y-79025000D02*
X139050000Y-79025000D01*
X133032000Y-85334000D02*
X133032000Y-84030000D01*
X133032000Y-84030000D02*
X137387000Y-79675000D01*
X137387000Y-79675000D02*
X138046000Y-79675000D01*
X138046000Y-79675000D02*
X139050000Y-79675000D01*
X144950000Y-80325000D02*
X150273000Y-80325000D01*
X150273000Y-80325000D02*
X155032000Y-85084000D01*
X155032000Y-85084000D02*
X155032000Y-85334000D01*
X144950000Y-79675000D02*
X193623000Y-79675000D01*
X193623000Y-79675000D02*
X199032000Y-85084000D01*
X199032000Y-85084000D02*
X199032000Y-85334000D01*
X144950000Y-79025000D02*
X236973000Y-79025000D01*
X236973000Y-79025000D02*
X243032000Y-85084000D01*
X243032000Y-85084000D02*
X243032000Y-85334000D01*
X144950000Y-78375000D02*
X258323000Y-78375000D01*
X258323000Y-78375000D02*
X265032000Y-85084000D01*
X265032000Y-85084000D02*
X265032000Y-85334000D01*
X132746000Y-118058000D02*
X133218000Y-118058000D01*
X133218000Y-118058000D02*
X133472000Y-118058000D01*
X136266000Y-118058000D02*
X133218000Y-118058000D01*
X154746000Y-118058000D02*
X147696000Y-118058000D01*
X77746000Y-118058000D02*
X79370000Y-118058000D01*
X79370000Y-118058000D02*
X102484000Y-118058000D01*
X62968000Y-115334000D02*
X64022000Y-115334000D01*
X66746000Y-118058000D02*
X79370000Y-118058000D01*
X64022000Y-115334000D02*
X66746000Y-118058000D01*
X99746000Y-118058000D02*
X102484000Y-118058000D01*
X102484000Y-118058000D02*
X133472000Y-118058000D01*
X73968000Y-115334000D02*
X75022000Y-115334000D01*
X75022000Y-115334000D02*
X77746000Y-118058000D01*
X95968000Y-115334000D02*
X97022000Y-115334000D01*
X97022000Y-115334000D02*
X99746000Y-118058000D01*
X154746000Y-118058000D02*
X157348000Y-118058000D01*
X157348000Y-118058000D02*
X201036000Y-118058000D01*
X128968000Y-115334000D02*
X130022000Y-115334000D01*
X130022000Y-115334000D02*
X132746000Y-118058000D01*
X198746000Y-118058000D02*
X201036000Y-118058000D01*
X201036000Y-118058000D02*
X243200000Y-118058000D01*
X150968000Y-115334000D02*
X152022000Y-115334000D01*
X152022000Y-115334000D02*
X154746000Y-118058000D01*
X240388000Y-118058000D02*
X243200000Y-118058000D01*
X243200000Y-118058000D02*
X263774000Y-118058000D01*
X194968000Y-115334000D02*
X196022000Y-115334000D01*
X196022000Y-115334000D02*
X198746000Y-118058000D01*
X273688000Y-118058000D02*
X263774000Y-118058000D01*
X263774000Y-118058000D02*
X262250000Y-118058000D01*
X238968000Y-115334000D02*
X238968000Y-116638000D01*
X238968000Y-116638000D02*
X240388000Y-118058000D01*
X282050000Y-110675000D02*
X281071000Y-110675000D01*
X281071000Y-110675000D02*
X273688000Y-118058000D01*
X260968000Y-116776000D02*
X260968000Y-115334000D01*
X262250000Y-118058000D02*
X260968000Y-116776000D01*
X67032000Y-115334000D02*
X67032000Y-114030000D01*
X67032000Y-114030000D02*
X73337000Y-107725000D01*
X73337000Y-107725000D02*
X138046000Y-107725000D01*
X138046000Y-107725000D02*
X139050000Y-107725000D01*
X78032000Y-115334000D02*
X78032000Y-115084000D01*
X78032000Y-115084000D02*
X84741000Y-108375000D01*
X84741000Y-108375000D02*
X138046000Y-108375000D01*
X138046000Y-108375000D02*
X139050000Y-108375000D01*
X107420000Y-109000000D02*
X107445000Y-109025000D01*
X107445000Y-109025000D02*
X139050000Y-109025000D01*
X100032000Y-115334000D02*
X101086000Y-115334000D01*
X101086000Y-115334000D02*
X107420000Y-109000000D01*
X133032000Y-115334000D02*
X133032000Y-114030000D01*
X133032000Y-114030000D02*
X137387000Y-109675000D01*
X138046000Y-109675000D02*
X139050000Y-109675000D01*
X137387000Y-109675000D02*
X138046000Y-109675000D01*
X144950000Y-110325000D02*
X150273000Y-110325000D01*
X150273000Y-110325000D02*
X155032000Y-115084000D01*
X155032000Y-115084000D02*
X155032000Y-115334000D01*
X144950000Y-109675000D02*
X193623000Y-109675000D01*
X193623000Y-109675000D02*
X199032000Y-115084000D01*
X199032000Y-115084000D02*
X199032000Y-115334000D01*
X144950000Y-109025000D02*
X236973000Y-109025000D01*
X236973000Y-109025000D02*
X243032000Y-115084000D01*
X243032000Y-115084000D02*
X243032000Y-115334000D01*
X265032000Y-115334000D02*
X264860000Y-115334000D01*
X264860000Y-115334000D02*
X257901000Y-108375000D01*
X257901000Y-108375000D02*
X145954000Y-108375000D01*
X145954000Y-108375000D02*
X144950000Y-108375000D01*
X132624000Y-157936000D02*
X133472000Y-157936000D01*
X133472000Y-157936000D02*
X133726000Y-157936000D01*
X136266000Y-157936000D02*
X133472000Y-157936000D01*
X154624000Y-157936000D02*
X147696000Y-157936000D01*
X77624000Y-157936000D02*
X79116000Y-157936000D01*
X79116000Y-157936000D02*
X100706000Y-157936000D01*
X64022000Y-155334000D02*
X66624000Y-157936000D01*
X62968000Y-155334000D02*
X64022000Y-155334000D01*
X66624000Y-157936000D02*
X79116000Y-157936000D01*
X99624000Y-157936000D02*
X100706000Y-157936000D01*
X73968000Y-155334000D02*
X75022000Y-155334000D01*
X100706000Y-157936000D02*
X133726000Y-157936000D01*
X75022000Y-155334000D02*
X77624000Y-157936000D01*
X95968000Y-155334000D02*
X97022000Y-155334000D01*
X97022000Y-155334000D02*
X99624000Y-157936000D01*
X154624000Y-157936000D02*
X156840000Y-157936000D01*
X156840000Y-157936000D02*
X197734000Y-157936000D01*
X128968000Y-155334000D02*
X130022000Y-155334000D01*
X130022000Y-155334000D02*
X132624000Y-157936000D01*
X196266000Y-157936000D02*
X197734000Y-157936000D01*
X150968000Y-155334000D02*
X152022000Y-155334000D01*
X197734000Y-157936000D02*
X243708000Y-157936000D01*
X152022000Y-155334000D02*
X154624000Y-157936000D01*
X241320000Y-157936000D02*
X243708000Y-157936000D01*
X243708000Y-157936000D02*
X263012000Y-157936000D01*
X194968000Y-155334000D02*
X194968000Y-156638000D01*
X194968000Y-156638000D02*
X196266000Y-157936000D01*
X273934000Y-157936000D02*
X263012000Y-157936000D01*
X263012000Y-157936000D02*
X262250000Y-157936000D01*
X238968000Y-155334000D02*
X238968000Y-155584000D01*
X238968000Y-155584000D02*
X241320000Y-157936000D01*
X282050000Y-111975000D02*
X281071000Y-111975000D01*
X281071000Y-111975000D02*
X277490000Y-115556000D01*
X277490000Y-115556000D02*
X277490000Y-154380000D01*
X277490000Y-154380000D02*
X273934000Y-157936000D01*
X260968000Y-156654000D02*
X260968000Y-155334000D01*
X262250000Y-157936000D02*
X260968000Y-156654000D01*
X67032000Y-155334000D02*
X68086000Y-155334000D01*
X68086000Y-155334000D02*
X75695000Y-147725000D01*
X75695000Y-147725000D02*
X138046000Y-147725000D01*
X138046000Y-147725000D02*
X139050000Y-147725000D01*
X78032000Y-155334000D02*
X79086000Y-155334000D01*
X79086000Y-155334000D02*
X86045000Y-148375000D01*
X86045000Y-148375000D02*
X138046000Y-148375000D01*
X138046000Y-148375000D02*
X139050000Y-148375000D01*
X100032000Y-155334000D02*
X101086000Y-155334000D01*
X107395000Y-149025000D02*
X138046000Y-149025000D01*
X101086000Y-155334000D02*
X107395000Y-149025000D01*
X138046000Y-149025000D02*
X139050000Y-149025000D01*
X133032000Y-155334000D02*
X133032000Y-153968000D01*
X133032000Y-153968000D02*
X137325000Y-149675000D01*
X137325000Y-149675000D02*
X138046000Y-149675000D01*
X138046000Y-149675000D02*
X139050000Y-149675000D01*
X144950000Y-150325000D02*
X150273000Y-150325000D01*
X150273000Y-150325000D02*
X155032000Y-155084000D01*
X155032000Y-155084000D02*
X155032000Y-155334000D01*
X144950000Y-149675000D02*
X193623000Y-149675000D01*
X193623000Y-149675000D02*
X199032000Y-155084000D01*
X199032000Y-155084000D02*
X199032000Y-155334000D01*
X144950000Y-149025000D02*
X236973000Y-149025000D01*
X236973000Y-149025000D02*
X243032000Y-155084000D01*
X243032000Y-155084000D02*
X243032000Y-155334000D01*
X265032000Y-155334000D02*
X265032000Y-155084000D01*
X265032000Y-155084000D02*
X258323000Y-148375000D01*
X145954000Y-148375000D02*
X144950000Y-148375000D01*
X258323000Y-148375000D02*
X145954000Y-148375000D01*
X136266000Y-198068000D02*
X136012000Y-198068000D01*
X136012000Y-198068000D02*
X132456000Y-198068000D01*
X147696000Y-198068000D02*
X136012000Y-198068000D01*
X131452000Y-198068000D02*
X132456000Y-198068000D01*
X132456000Y-198068000D02*
X132964000Y-198068000D01*
X154756000Y-198068000D02*
X147696000Y-198068000D01*
X77756000Y-198068000D02*
X82672000Y-198068000D01*
X82672000Y-198068000D02*
X100706000Y-198068000D01*
X62968000Y-195334000D02*
X64022000Y-195334000D01*
X64022000Y-195334000D02*
X66756000Y-198068000D01*
X66756000Y-198068000D02*
X82672000Y-198068000D01*
X97398000Y-198068000D02*
X100706000Y-198068000D01*
X100706000Y-198068000D02*
X132964000Y-198068000D01*
X73968000Y-195334000D02*
X75022000Y-195334000D01*
X75022000Y-195334000D02*
X77756000Y-198068000D01*
X95968000Y-195334000D02*
X95968000Y-196638000D01*
X95968000Y-196638000D02*
X97398000Y-198068000D01*
X154756000Y-198068000D02*
X156078000Y-198068000D01*
X156078000Y-198068000D02*
X197734000Y-198068000D01*
X128968000Y-195334000D02*
X128968000Y-195584000D01*
X128968000Y-195584000D02*
X131452000Y-198068000D01*
X196398000Y-198068000D02*
X197734000Y-198068000D01*
X197734000Y-198068000D02*
X244978000Y-198068000D01*
X150968000Y-195334000D02*
X152022000Y-195334000D01*
X152022000Y-195334000D02*
X154756000Y-198068000D01*
X242756000Y-198068000D02*
X244978000Y-198068000D01*
X194968000Y-196638000D02*
X196398000Y-198068000D01*
X244978000Y-198068000D02*
X262504000Y-198068000D01*
X194968000Y-195334000D02*
X194968000Y-196638000D01*
X267330000Y-198068000D02*
X262504000Y-198068000D01*
X262504000Y-198068000D02*
X261996000Y-198068000D01*
X238968000Y-195334000D02*
X240022000Y-195334000D01*
X240022000Y-195334000D02*
X242756000Y-198068000D01*
X282050000Y-113275000D02*
X281071000Y-113275000D01*
X281071000Y-113275000D02*
X279014000Y-115332000D01*
X279014000Y-115332000D02*
X279014000Y-186384000D01*
X279014000Y-186384000D02*
X267330000Y-198068000D01*
X261996000Y-198068000D02*
X260968000Y-197040000D01*
X260968000Y-197040000D02*
X260968000Y-195334000D01*
X67032000Y-195334000D02*
X68086000Y-195334000D01*
X68086000Y-195334000D02*
X75695000Y-187725000D01*
X75695000Y-187725000D02*
X138046000Y-187725000D01*
X138046000Y-187725000D02*
X139050000Y-187725000D01*
X78032000Y-195334000D02*
X79086000Y-195334000D01*
X79086000Y-195334000D02*
X86045000Y-188375000D01*
X86045000Y-188375000D02*
X138046000Y-188375000D01*
X138046000Y-188375000D02*
X139050000Y-188375000D01*
X100032000Y-195334000D02*
X101086000Y-195334000D01*
X101086000Y-195334000D02*
X107395000Y-189025000D01*
X107395000Y-189025000D02*
X138046000Y-189025000D01*
X138046000Y-189025000D02*
X139050000Y-189025000D01*
X133032000Y-195334000D02*
X133032000Y-194030000D01*
X133032000Y-194030000D02*
X137387000Y-189675000D01*
X137387000Y-189675000D02*
X138046000Y-189675000D01*
X138046000Y-189675000D02*
X139050000Y-189675000D01*
X155032000Y-195334000D02*
X155032000Y-194030000D01*
X155032000Y-194030000D02*
X151327000Y-190325000D01*
X151327000Y-190325000D02*
X145954000Y-190325000D01*
X145954000Y-190325000D02*
X144950000Y-190325000D01*
X144950000Y-189675000D02*
X193623000Y-189675000D01*
X193623000Y-189675000D02*
X199032000Y-195084000D01*
X199032000Y-195084000D02*
X199032000Y-195334000D01*
X144950000Y-189025000D02*
X236973000Y-189025000D01*
X236973000Y-189025000D02*
X243032000Y-195084000D01*
X243032000Y-195084000D02*
X243032000Y-195334000D01*
X144950000Y-188375000D02*
X258323000Y-188375000D01*
X258323000Y-188375000D02*
X265032000Y-195084000D01*
X265032000Y-195084000D02*
X265032000Y-195334000D01*
D25*
X297600000Y-152795000D02*
X292000000Y-147195000D01*
X292000000Y-147195000D02*
X292000000Y-116000000D01*
X292000000Y-116000000D02*
X289925000Y-113925000D01*
X289925000Y-113925000D02*
X287950000Y-113925000D01*
D24*
X283029000Y-112625000D02*
X285618000Y-110036000D01*
X282050000Y-112625000D02*
X283029000Y-112625000D01*
X287950000Y-113925000D02*
X286971000Y-113925000D01*
X286971000Y-113925000D02*
X285618000Y-112572000D01*
X285618000Y-112572000D02*
X285618000Y-110036000D01*
X287950000Y-112625000D02*
X286971000Y-112625000D01*
X286971000Y-112625000D02*
X285618000Y-111272000D01*
X285618000Y-111272000D02*
X285618000Y-110036000D01*
X285618000Y-110036000D02*
X285629000Y-110025000D01*
X287950000Y-111325000D02*
X286907000Y-111325000D01*
X286907000Y-111325000D02*
X285618000Y-110036000D01*
X285629000Y-110025000D02*
X286971000Y-110025000D01*
X286971000Y-110025000D02*
X287950000Y-110025000D01*
X282050000Y-111325000D02*
X283029000Y-111325000D01*
X283029000Y-111325000D02*
X284329000Y-110025000D01*
X284329000Y-110025000D02*
X286971000Y-110025000D01*
X282050000Y-110025000D02*
X283029000Y-110025000D01*
X283029000Y-110025000D02*
X287950000Y-110025000D01*
X282050000Y-108725000D02*
X283029000Y-108725000D01*
X283029000Y-108725000D02*
X284329000Y-110025000D01*
X280753496Y-86777500D02*
X279394995Y-85418999D01*
X279394995Y-85418999D02*
X279013996Y-85038000D01*
X282371100Y-86777500D02*
X280753496Y-86777500D01*
X137282000Y-64941189D02*
X137282000Y-65480004D01*
X137282000Y-61089000D02*
X137282000Y-64941189D01*
X138046000Y-60325000D02*
X137282000Y-61089000D01*
X139050000Y-60325000D02*
X138046000Y-60325000D01*
X279394999Y-86942999D02*
X279014000Y-86562000D01*
X279864500Y-87412500D02*
X279394999Y-86942999D01*
X282371100Y-87412500D02*
X279864500Y-87412500D01*
X139050000Y-80325000D02*
X138046000Y-80325000D01*
X138046000Y-80325000D02*
X137282000Y-81089000D01*
X137282000Y-81089000D02*
X137282000Y-85292000D01*
X279014000Y-88086000D02*
X282332600Y-88086000D01*
X282332600Y-88086000D02*
X282371100Y-88047500D01*
X139050000Y-110325000D02*
X138046000Y-110325000D01*
X138046000Y-110325000D02*
X137282000Y-111089000D01*
X137282000Y-111089000D02*
X137282000Y-115264000D01*
X279014000Y-89864000D02*
X280195500Y-88682500D01*
X280195500Y-88682500D02*
X282371100Y-88682500D01*
X139050000Y-150325000D02*
X138046000Y-150325000D01*
X138046000Y-150325000D02*
X137536000Y-150835000D01*
X137536000Y-150835000D02*
X137536000Y-155396000D01*
X279394999Y-91007005D02*
X279014000Y-91388004D01*
X281084504Y-89317500D02*
X279394999Y-91007005D01*
X282371100Y-89317500D02*
X281084504Y-89317500D01*
X139050000Y-190325000D02*
X138046000Y-190325000D01*
X138046000Y-190325000D02*
X137282000Y-191089000D01*
X137282000Y-191089000D02*
X137282000Y-195274000D01*
X275584999Y-109803001D02*
X275965998Y-110184000D01*
X260471998Y-94690000D02*
X275584999Y-109803001D01*
X250566000Y-94690000D02*
X260471998Y-94690000D01*
X283078000Y-103072000D02*
X286126000Y-100024000D01*
X286126000Y-100024000D02*
X286126000Y-91388000D01*
X286126000Y-91388000D02*
X284690500Y-89952500D01*
X284690500Y-89952500D02*
X283454410Y-89952500D01*
X283454410Y-89952500D02*
X282371100Y-89952500D01*
X140838000Y-88340000D02*
X140838000Y-111962000D01*
X140838000Y-84276000D02*
X140838000Y-88340000D01*
X140838000Y-88340000D02*
X140838000Y-89102000D01*
X140838000Y-89102000D02*
X139060000Y-90880000D01*
X144950000Y-60975000D02*
X142041000Y-60975000D01*
X142041000Y-60975000D02*
X140838000Y-62178000D01*
X140838000Y-62178000D02*
X140838000Y-84276000D01*
X140838000Y-144955201D02*
X140838000Y-152094000D01*
X144950000Y-150975000D02*
X141957000Y-150975000D01*
X140838000Y-152094000D02*
X140838000Y-189940000D01*
X141957000Y-150975000D02*
X140838000Y-152094000D01*
X144950000Y-80975000D02*
X141853000Y-80975000D01*
X141853000Y-80975000D02*
X140838000Y-81990000D01*
X140838000Y-81990000D02*
X140838000Y-84276000D01*
X140838000Y-111962000D02*
X140838000Y-144982000D01*
X144950000Y-110975000D02*
X141825000Y-110975000D01*
X141825000Y-110975000D02*
X140838000Y-111962000D01*
X140838000Y-189940000D02*
X141873000Y-190975000D01*
X141873000Y-190975000D02*
X144950000Y-190975000D01*
X269870000Y-107644008D02*
X259710008Y-107644008D01*
X259710008Y-107644008D02*
X250946999Y-98880999D01*
X250946999Y-98880999D02*
X250566000Y-98500000D01*
X282062000Y-102056000D02*
X285110000Y-99008000D01*
X285110000Y-99008000D02*
X285110000Y-91642000D01*
X285110000Y-91642000D02*
X284055500Y-90587500D01*
X284055500Y-90587500D02*
X282371100Y-90587500D01*
X144950000Y-111625000D02*
X143715000Y-111625000D01*
X143715000Y-111625000D02*
X142108000Y-113232000D01*
X142108000Y-113232000D02*
X142108000Y-113993962D01*
X144950000Y-191625000D02*
X143725000Y-191625000D01*
X143725000Y-191625000D02*
X142108000Y-193242000D01*
X142108000Y-193242000D02*
X142108000Y-193465175D01*
X142108000Y-193465175D02*
X142108000Y-194003990D01*
X142108000Y-154379976D02*
X142108000Y-185368000D01*
X142108000Y-153463000D02*
X142108000Y-153841161D01*
X143946000Y-151625000D02*
X142108000Y-153463000D01*
X144950000Y-151625000D02*
X143946000Y-151625000D01*
X142108000Y-153841161D02*
X142108000Y-154379976D01*
X142108000Y-113993962D02*
X142108000Y-145236004D01*
X142108000Y-84022000D02*
X142108000Y-105358000D01*
X142108000Y-83483185D02*
X142108000Y-84022000D01*
X142108000Y-83463000D02*
X142108000Y-83483185D01*
X143946000Y-81625000D02*
X142108000Y-83463000D01*
X144950000Y-81625000D02*
X143946000Y-81625000D01*
X142108000Y-74593185D02*
X142108000Y-75132000D01*
X142108000Y-63463000D02*
X142108000Y-74593185D01*
X143946000Y-61625000D02*
X142108000Y-63463000D01*
X144950000Y-61625000D02*
X143946000Y-61625000D01*
X143378000Y-88340000D02*
X146172000Y-91134000D01*
X146172000Y-91134000D02*
X260472000Y-91134000D01*
X260472000Y-91134000D02*
X275712000Y-106374000D01*
X281046000Y-101040000D02*
X284094000Y-97992000D01*
X284094000Y-97992000D02*
X284094000Y-91862090D01*
X284094000Y-91862090D02*
X283454410Y-91222500D01*
X283454410Y-91222500D02*
X282371100Y-91222500D01*
X143378000Y-88340000D02*
X143378000Y-105358000D01*
X143378000Y-84022000D02*
X143378000Y-88340000D01*
X143378000Y-113994000D02*
X143378000Y-145236000D01*
X143378000Y-194004000D02*
X143378000Y-193847000D01*
X143378000Y-193847000D02*
X144950000Y-192275000D01*
X143378000Y-154380000D02*
X143378000Y-185368000D01*
X143378000Y-154380000D02*
X144950000Y-152808000D01*
X144950000Y-152808000D02*
X144950000Y-152275000D01*
X143378000Y-113994000D02*
X143378000Y-113847000D01*
X143378000Y-113847000D02*
X144950000Y-112275000D01*
X143378000Y-84022000D02*
X143378000Y-83847000D01*
X143378000Y-83847000D02*
X144950000Y-82275000D01*
X144950000Y-62275000D02*
X144950000Y-62754000D01*
X144950000Y-62754000D02*
X143378000Y-64326000D01*
X143378000Y-64326000D02*
X143378000Y-75132000D01*
X293492000Y-96722000D02*
X293492000Y-113994000D01*
X297600000Y-117235000D02*
X296327208Y-117235000D01*
X296327208Y-117235000D02*
X293492000Y-114399792D01*
X293492000Y-114399792D02*
X293492000Y-113994000D01*
X287628900Y-91857500D02*
X288627500Y-91857500D01*
X288627500Y-91857500D02*
X293492000Y-96722000D01*
X287628900Y-87412500D02*
X298406500Y-87412500D01*
X310256000Y-99262000D02*
X310256000Y-109422000D01*
X298406500Y-87412500D02*
X310256000Y-99262000D01*
X310256000Y-109422000D02*
X302443000Y-117235000D01*
X302443000Y-117235000D02*
X300140000Y-117235000D01*
X294508000Y-96214000D02*
X294508000Y-111708000D01*
X297600000Y-114695000D02*
X296327208Y-114695000D01*
X296327208Y-114695000D02*
X294508000Y-112875792D01*
X294508000Y-112875792D02*
X294508000Y-111708000D01*
X287628900Y-91222500D02*
X289516500Y-91222500D01*
X289516500Y-91222500D02*
X294508000Y-96214000D01*
X287628900Y-88047500D02*
X297263500Y-88047500D01*
X297263500Y-88047500D02*
X309240000Y-100024000D01*
X309240000Y-100024000D02*
X309240000Y-108660000D01*
X309240000Y-108660000D02*
X303205000Y-114695000D01*
X303205000Y-114695000D02*
X300140000Y-114695000D01*
X295524000Y-95706000D02*
X295524000Y-109930000D01*
X297600000Y-112155000D02*
X295524000Y-110079000D01*
X295524000Y-110079000D02*
X295524000Y-109930000D01*
X287628900Y-90587500D02*
X290405500Y-90587500D01*
X290405500Y-90587500D02*
X295524000Y-95706000D01*
X287628900Y-88682500D02*
X296120500Y-88682500D01*
X296120500Y-88682500D02*
X308224000Y-100786000D01*
X308224000Y-100786000D02*
X308224000Y-107644000D01*
X308224000Y-107644000D02*
X303713000Y-112155000D01*
X303713000Y-112155000D02*
X300140000Y-112155000D01*
X297600000Y-109615000D02*
X297600000Y-96258000D01*
X297600000Y-96258000D02*
X291342000Y-90000000D01*
X291342000Y-90000000D02*
X287676400Y-90000000D01*
X287676400Y-90000000D02*
X287628900Y-89952500D01*
X287628900Y-89317500D02*
X294977500Y-89317500D01*
X294977500Y-89317500D02*
X307208000Y-101548000D01*
X307208000Y-101548000D02*
X307208000Y-106882000D01*
X307208000Y-106882000D02*
X304475000Y-109615000D01*
X304475000Y-109615000D02*
X300140000Y-109615000D01*
X286341500Y-86777500D02*
X287628900Y-86777500D01*
X286126000Y-86562000D02*
X286341500Y-86777500D01*
X286126000Y-84784000D02*
X286126000Y-86562000D01*
X286877840Y-84032160D02*
X286126000Y-84784000D01*
X292249940Y-84032160D02*
X286877840Y-84032160D01*
X293718060Y-84530000D02*
X299080000Y-84530000D01*
X299080000Y-84530000D02*
X336672000Y-122122000D01*
X336672000Y-122122000D02*
X336672000Y-146147000D01*
X336672000Y-146147000D02*
X345860000Y-155335000D01*
M02*
